<?xml version="1.0" encoding="UTF-8"?>
<svg xmlns="http://www.w3.org/2000/svg" viewBox="0 0 143.3 247.26">
  <defs>
    <style>
      .cls-1 {
        fill: #002af4;
      }

      .cls-2, .cls-3 {
        fill: #fff;
      }

      .cls-3 {
        font-family: W95FARegular, W95FA;
        font-size: 36px;
      }
    </style>
  </defs>
  <g id="Layer_1" data-name="Layer 1">
    <path class="cls-2" d="m5.68,35.75v14.19h120v-14.19H5.68Z"/>
    <path class="cls-2" d="m45.65,22.82v10.64h10.64v-10.64h-10.64Z"/>
    <path class="cls-2" d="m75.07,22.82v10.64h10.64v-10.64h-10.64Z"/>
    <path class="cls-2" d="m58.58,19.26v14.19h14.19v-14.19h-14.19Z"/>
    <path class="cls-2" d="m23.3,52.24h-14.19v55.58h14.19v-55.58Z"/>
    <path class="cls-2" d="m39.79,52.24h-14.19v55.58h14.19v-55.58Z"/>
    <path class="cls-2" d="m56.28,52.24h-14.19v55.58h14.19v-55.58Z"/>
    <path class="cls-2" d="m72.77,52.24h-14.19v55.58h14.19v-55.58Z"/>
    <path class="cls-1" d="m89.26,52.24h-14.19v55.58h14.19v-55.58Z"/>
    <path class="cls-1" d="m102.41,55.34l-13.15,5.34,20.91,51.5,13.15-5.34-20.91-51.5Z"/>
    <path class="cls-1" d="m141.11,56.44l-13.2-5.2-20.37,51.72,13.2,5.2,20.37-51.72Z"/>
    <path class="cls-2" d="m65.29,193.09h9.68v3.36h-9.68v-3.36Zm-5.15,47.71"/>
  </g>
  <g id="Layer_4" data-name="Layer 4">
    <text class="cls-3" transform="translate(10.33 175.06)"><tspan x="0" y="0">08.09.23</tspan></text>
    <text class="cls-3" transform="translate(13.21 240.06)"><tspan x="0" y="0">17.09.23</tspan></text>
  </g>
</svg>