<?xml version="1.0" encoding="utf-8"?>
<!-- Generator: Adobe Illustrator 19.0.0, SVG Export Plug-In . SVG Version: 6.00 Build 0)  -->
<svg version="1.1" xmlns="http://www.w3.org/2000/svg" xmlns:xlink="http://www.w3.org/1999/xlink" x="0px" y="0px"
	 viewBox="0 0 595.3 841.9" style="enable-background:new 0 0 595.3 841.9;" xml:space="preserve">
<style type="text/css">
	.st0{display:none;}
	.st1{display:inline;fill:#ED1C24;}
	.st2{fill:#FED208;}
	.st3{stroke:#000000;}
	.st4{fill:#FED10A;}
	.st5{fill:none;stroke:#000000;stroke-width:0.5;}
</style>
<g id="Background" class="st0">
	<rect id="XMLID_1_" class="st1" width="595.3" height="841.9"/>
</g>
<g id="Layer_2">
	<g id="XMLID_2_">
		<circle id="XMLID_248_" class="st2" cx="506.6" cy="300.9" r="38"/>
		<path id="XMLID_244_" class="st3" d="M394.7,352.5l0.2,0.5l0.5-0.2l12.8-4.7l0.5-0.2l-0.2-0.5l-0.8-2.2l-0.2-0.5L407,345l-9.8,3.6
			l-2.3-6.4l7.4-2.7l0.5-0.2l-0.2-0.5l-0.8-2.2l-0.2-0.5l-0.5,0.2l-7.4,2.7l-2.1-5.7l9.5-3.5l0.5-0.2l-0.2-0.5l-0.8-2.2l-0.2-0.5
			l-0.5,0.2l-12.5,4.6l-0.5,0.2l0.2,0.5L394.7,352.5z M416.3,344.6l0.2,0.5l0.5-0.2l2.6-0.9l0.5-0.2l-0.2-0.5l-6.5-18l5.1-1.9
			l0.5-0.2l-0.2-0.5l-0.8-2.2l-0.2-0.5l-0.5,0.2l-13.7,5l-0.5,0.2l0.2,0.5l0.8,2.2l0.2,0.5l0.5-0.2l5.1-1.9l3.2,8.8L416.3,344.6z
			 M427.9,340.4l0.2,0.5l0.5-0.2l2.6-0.9l0.5-0.2l-0.2-0.5l-3.3-9.1l8.6-3.1l3.3,9.1l0.2,0.5l0.5-0.2l2.6-0.9l0.5-0.2l-0.2-0.5
			l-7.5-20.7l-0.2-0.5l-0.5,0.2l-2.6,0.9l-0.5,0.2l0.2,0.5l3.1,8.4l-8.6,3.1l-3.1-8.4l-0.2-0.5l-0.5,0.2l-2.6,0.9l-0.5,0.2l0.2,0.5
			L427.9,340.4z"/>
		<path id="XMLID_233_" d="M445.9,320.4l-2.6-7.3l3.9-1.4c3.2-1.1,5.1-0.4,6,1.9c0.9,2.5-0.3,4.2-3.7,5.5L445.9,320.4z M449.6,330.8
			l-2.9-8l5.1-1.9c3.3-1.2,5.5-0.2,6.4,2.2c1,2.7-0.3,4.6-3.9,6L449.6,330.8z M447.7,334.2l8.3-3c4.9-1.8,6.7-5.1,5.3-9.1
			c-1.1-3.2-3.7-4.2-6.4-4.1c1-1.2,1.9-3.2,1-5.6c-1.5-4.1-5.2-4.8-10.1-3l-6.3,2.3L447.7,334.2z M466.7,317.4
			c-0.8-2.7-0.2-5.6,2.4-6.5c2.7-1,4.9,1,6,3.4L466.7,317.4z M474.5,325c3.5-1.3,5-4,4.8-6.7l-2.7,1c-0.1,1.6-1.2,2.8-2.9,3.5
			c-2.7,1-5-0.8-6.3-3.5l11.1-4.1c-0.1-0.3-0.2-0.7-0.3-1c-1.6-4.4-5.5-7.3-9.9-5.7c-4.4,1.6-5.7,6.2-4.1,10.8
			C465.9,324,470,326.7,474.5,325z M485.2,320.6l2.7-1l-3.4-9.5l4.1-5.9l-1-2.8l-4.4,6.2l-1.3-3.5l-2.3,0.9L485.2,320.6z
			 M499.5,315.4l2.9-1l-5.5-5.8l-5.7-15.6l-2.7,1l5.9,16.2L499.5,315.4z M497.7,293.6c0.4,1,1.5,1.5,2.5,1.1c1-0.4,1.5-1.5,1.2-2.5
			c-0.4-1-1.5-1.5-2.5-1.1C497.9,291.5,497.4,292.6,497.7,293.6z M505.5,313.2l2.7-1l-5.6-15.5l-2.7,1L505.5,313.2z M513.1,310.5
			l2.7-1l-2.9-8c-0.9-2.3-0.8-6.2,2.2-7.3c3.4-1.2,4.9,2.3,5.7,4.6l2.9,7.9l2.7-1l-2.9-7.9c-1.7-4.6-3.8-7.8-8.6-6.1
			c-3.6,1.3-3.7,4.9-3.7,5.7l-1.2-3.4l-2.3,0.9L513.1,310.5z"/>
		<path id="XMLID_226_" d="M448.7,336.7l3.7,10.1l1.8-0.7l-2.7-7.4l12,3.8l1.8-0.7l-3.4-9.4l-1.8,0.7l2.5,6.8l-12-3.8L448.7,336.7z
			 M454.4,352.5l0.8,2.3l11.2-0.7l-9.1,6.6l0.8,2.3l14.6-0.5l-0.8-2.3l-11.6,0.7l9.4-6.8l-0.8-2.1l-11.6,0.7l9.4-6.9l-0.9-2.3
			L454.4,352.5z M468.6,368.3c2.3-0.7,4.7-0.1,5.5,2c0.8,2.3-0.8,4.2-2.9,5L468.6,368.3z M462.1,374.9c1.1,3,3.4,4.2,5.6,4.1
			l-0.8-2.3c-1.3-0.1-2.4-1-2.9-2.5c-0.8-2.3,0.7-4.2,2.9-5.3l3.4,9.4c0.3-0.1,0.6-0.2,0.8-0.3c3.7-1.4,6.1-4.6,4.8-8.3
			c-1.4-3.7-5.2-4.8-9.1-3.4C463,367.7,460.7,371.1,462.1,374.9z M482.4,377.4c-0.8,0.3-1.3,1.3-1,2.1c0.3,0.8,1.2,1.3,2.1,1
			c0.8-0.3,1.3-1.3,1-2.1C484.2,377.5,483.2,377.1,482.4,377.4z M465.9,383.9l0.8,2.2l13.1-4.8l-0.8-2.2L465.9,383.9z"/>
		<path id="XMLID_225_" class="st4" d="M372.6,350.7l8.3,1.7l2,5.5L372.6,350.7z"/>
		<path id="XMLID_224_" class="st2" d="M385.9,344.4l-11.3-9l5.7,15.7L385.9,344.4z"/>
		<path id="XMLID_223_" class="st5" d="M372.2,347.4l7.5,1.4"/>
		<path id="XMLID_222_" class="st5" d="M371.8,349.7l8.5,1.4"/>
		<path id="XMLID_221_" class="st5" d="M372.8,345.1l7.2,1.6"/>
		<path id="XMLID_220_" class="st5" d="M373.2,342.9l7.2,1.6"/>
		<path id="XMLID_219_" class="st5" d="M373.6,340.8l10,2.3"/>
		<path id="XMLID_218_" class="st5" d="M374,338.8l5.7,1.2"/>
		<path id="XMLID_217_" class="st5" d="M374.5,336.9l1.9,0.4"/>
		<path id="XMLID_216_" d="M386,345.8l-5.2,6.6l2,5.5L386,345.8z"/>
		<path id="XMLID_215_" class="st5" d="M374.7,335.6l-2.8,14.2"/>
	</g>
	<g id="XMLID_3_">
		<circle id="XMLID_38_" class="st2" cx="167.2" cy="503.9" r="31.7"/>
		<path id="XMLID_34_" class="st3" d="M73.9,547l0.1,0.4l0.4-0.1l10.7-3.9l0.4-0.1l-0.1-0.4l-0.7-1.9l-0.1-0.4l-0.4,0.1l-8.2,3
			l-1.9-5.3l6.2-2.3l0.4-0.1l-0.1-0.4l-0.7-1.9l-0.1-0.4l-0.4,0.1l-6.2,2.3l-1.7-4.8l7.9-2.9l0.4-0.1l-0.1-0.4l-0.7-1.9l-0.1-0.4
			l-0.4,0.1l-10.5,3.8l-0.4,0.1l0.1,0.4L73.9,547z M92,540.4l0.1,0.4l0.4-0.1l2.1-0.8l0.4-0.1l-0.1-0.4l-5.5-15l4.3-1.6l0.4-0.1
			l-0.1-0.4l-0.7-1.9l-0.1-0.4l-0.4,0.1l-11.5,4.2l-0.4,0.1l0.1,0.4l0.7,1.9l0.1,0.4l0.4-0.1l4.3-1.6l2.7,7.3L92,540.4z
			 M101.6,536.9l0.1,0.4l0.4-0.1l2.1-0.8l0.4-0.1l-0.1-0.4l-2.8-7.6l7.2-2.6l2.8,7.6l0.1,0.4l0.4-0.1l2.1-0.8l0.4-0.1l-0.1-0.4
			l-6.3-17.2l-0.1-0.4l-0.4,0.1l-2.1,0.8l-0.4,0.1l0.1,0.4l2.6,7l-7.2,2.6l-2.6-7l-0.1-0.4l-0.4,0.1l-2.1,0.8l-0.4,0.1l0.1,0.4
			L101.6,536.9z"/>
		<path id="XMLID_23_" d="M116.6,520.2l-2.2-6.1l3.2-1.2c2.6-1,4.3-0.3,5,1.6c0.7,2.1-0.2,3.5-3.1,4.6L116.6,520.2z M119.8,528.8
			l-2.4-6.6l4.3-1.6c2.7-1,4.6-0.2,5.3,1.8c0.8,2.2-0.2,3.9-3.3,5L119.8,528.8z M118.1,531.7l6.9-2.5c4.1-1.5,5.6-4.3,4.4-7.6
			c-1-2.6-3.1-3.5-5.3-3.4c0.9-1,1.6-2.7,0.9-4.7c-1.2-3.4-4.3-4-8.5-2.5l-5.3,1.9L118.1,531.7z M134,517.6c-0.6-2.3-0.1-4.6,2-5.4
			c2.3-0.8,4.1,0.8,5,2.9L134,517.6z M140.5,524c2.9-1.1,4.1-3.3,4-5.6l-2.3,0.8c-0.1,1.3-1,2.4-2.4,2.9c-2.3,0.8-4.2-0.7-5.2-2.9
			l9.3-3.4c-0.1-0.3-0.2-0.6-0.3-0.8c-1.3-3.7-4.6-6.1-8.3-4.7c-3.7,1.3-4.8,5.2-3.4,9C133.3,523.2,136.7,525.4,140.5,524z
			 M149.4,520.3l2.2-0.8l-2.9-7.9l3.5-4.9l-0.9-2.3l-3.7,5.2l-1.1-2.9l-2,0.7L149.4,520.3z M161.4,516l2.4-0.9l-4.6-4.9l-4.7-13
			l-2.2,0.8l4.9,13.5L161.4,516z M159.9,497.8c0.3,0.8,1.3,1.3,2.1,0.9c0.8-0.3,1.3-1.2,1-2.1c-0.3-0.8-1.3-1.3-2.1-1
			C160,496.1,159.6,497,159.9,497.8z M166.3,514.2l2.2-0.8l-4.7-12.9l-2.2,0.8L166.3,514.2z M172.6,511.9l2.2-0.8l-2.4-6.7
			c-0.7-2-0.7-5.1,1.8-6c2.9-1,4.1,1.9,4.7,3.8l2.4,6.6l2.2-0.8l-2.4-6.6c-1.4-3.9-3.2-6.5-7.2-5.1c-3,1.1-3.1,4.1-3.1,4.8l-1-2.8
			l-2,0.7L172.6,511.9z"/>
		<path id="XMLID_16_" d="M118.9,533.7l3.1,8.4l1.5-0.6l-2.2-6.2l10,3.1l1.5-0.6l-2.9-7.8l-1.5,0.6l2.1,5.6l-10-3.2L118.9,533.7z
			 M123.7,546.9l0.7,1.9l9.3-0.6l-7.6,5.5l0.7,1.9l12.2-0.4l-0.7-1.9l-9.7,0.6l7.8-5.7l-0.6-1.7l-9.7,0.6l7.8-5.7l-0.7-2
			L123.7,546.9z M135.6,560.1c1.9-0.5,3.9-0.1,4.6,1.7c0.7,1.9-0.7,3.5-2.4,4.2L135.6,560.1z M130.2,565.6c0.9,2.5,2.8,3.5,4.7,3.4
			l-0.7-1.9c-1.1-0.1-2-0.8-2.4-2c-0.7-1.9,0.6-3.5,2.5-4.4l2.9,7.8c0.2-0.1,0.5-0.1,0.7-0.2c3.1-1.1,5.1-3.9,4-7
			c-1.1-3.1-4.4-4-7.6-2.9C130.9,559.6,129,562.5,130.2,565.6z M147.1,567.7c-0.7,0.3-1.1,1.1-0.8,1.8c0.3,0.7,1,1.1,1.7,0.8
			c0.7-0.2,1.1-1.1,0.8-1.8C148.6,567.8,147.8,567.4,147.1,567.7z M133.3,573.1l0.7,1.9l10.9-4l-0.7-1.9L133.3,573.1z"/>
		<path id="XMLID_15_" class="st4" d="M55.5,545.5l6.9,1.4l1.7,4.5L55.5,545.5z"/>
		<path id="XMLID_14_" class="st2" d="M66.6,540.2l-9.4-7.5l4.8,13.1L66.6,540.2z"/>
		<path id="XMLID_13_" class="st5" d="M55.2,542.7l6.2,1.2"/>
		<path id="XMLID_12_" class="st5" d="M54.9,544.6l7.1,1.2"/>
		<path id="XMLID_11_" class="st5" d="M55.7,540.8l6,1.3"/>
		<path id="XMLID_10_" class="st5" d="M56,538.9l6,1.3"/>
		<path id="XMLID_9_" class="st5" d="M56.4,537.2l8.4,1.9"/>
		<path id="XMLID_8_" class="st5" d="M56.6,535.5l4.7,1"/>
		<path id="XMLID_7_" class="st5" d="M57.1,533.9l1.6,0.3"/>
		<path id="XMLID_6_" d="M66.7,541.4l-4.4,5.5l1.7,4.5L66.7,541.4z"/>
		<path id="XMLID_5_" class="st5" d="M57.2,532.8l-2.4,11.8"/>
	</g>
	<g id="XMLID_4_">
		<circle id="XMLID_72_" class="st2" cx="428" cy="461.4" r="31.9"/>
		<path id="XMLID_68_" class="st3" d="M521.9,418l-0.1-0.4l-0.4,0.1l-10.8,3.9l-0.4,0.1l0.1,0.4l0.7,1.9l0.1,0.4l0.4-0.1l8.2-3
			l1.9,5.3l-6.2,2.3l-0.4,0.1l0.1,0.4l0.7,1.9l0.1,0.4l0.4-0.1l6.2-2.3l1.8,4.8l-8,2.9l-0.4,0.1l0.1,0.4l0.7,1.9l0.1,0.4l0.4-0.1
			l10.5-3.8l0.4-0.1l-0.1-0.4L521.9,418z M503.7,424.6l-0.1-0.4l-0.4,0.1l-2.2,0.8l-0.4,0.1l0.1,0.4l5.5,15.1l-4.3,1.6l-0.4,0.1
			l0.1,0.4l0.7,1.9l0.1,0.4l0.4-0.1l11.5-4.2l0.4-0.1l-0.1-0.4l-0.7-1.9l-0.1-0.4l-0.4,0.1l-4.3,1.6l-2.7-7.3L503.7,424.6z
			 M494,428.2l-0.1-0.4l-0.4,0.1l-2.2,0.8l-0.4,0.1l0.1,0.4l2.8,7.6l-7.2,2.6l-2.8-7.6l-0.1-0.4l-0.4,0.1l-2.2,0.8l-0.4,0.1l0.1,0.4
			l6.3,17.3l0.1,0.4l0.4-0.1l2.2-0.8l0.4-0.1l-0.1-0.4l-2.6-7.1l7.2-2.6l2.6,7.1l0.1,0.4l0.4-0.1l2.2-0.8l0.4-0.1l-0.1-0.4
			L494,428.2z"/>
		<path id="XMLID_57_" d="M478.9,445l2.2,6.1l-3.2,1.2c-2.6,1-4.3,0.3-5-1.6c-0.8-2.1,0.2-3.5,3.1-4.6L478.9,445z M475.7,436.3
			l2.4,6.7l-4.3,1.6c-2.7,1-4.6,0.2-5.3-1.8c-0.8-2.2,0.2-3.9,3.3-5L475.7,436.3z M477.4,433.4l-6.9,2.5c-4.1,1.5-5.7,4.3-4.5,7.6
			c1,2.6,3.1,3.6,5.3,3.4c-0.9,1-1.6,2.7-0.9,4.7c1.2,3.4,4.3,4.1,8.5,2.5l5.3-1.9L477.4,433.4z M461.4,447.5c0.7,2.3,0.1,4.7-2,5.4
			c-2.3,0.8-4.1-0.8-5-2.9L461.4,447.5z M454.9,441.1c-3,1.1-4.2,3.4-4.1,5.6l2.3-0.8c0.1-1.3,1-2.4,2.4-2.9
			c2.3-0.8,4.2,0.7,5.2,2.9l-9.3,3.4c0.1,0.3,0.2,0.6,0.3,0.8c1.4,3.7,4.6,6.1,8.3,4.7c3.7-1.3,4.8-5.2,3.4-9
			C462.1,442,458.6,439.7,454.9,441.1z M445.9,444.8l-2.2,0.8l2.9,7.9l-3.5,4.9l0.9,2.4l3.7-5.2l1.1,2.9l2-0.7L445.9,444.8z
			 M433.9,449.2l-2.4,0.9l4.6,4.9l4.8,13.1l2.2-0.8l-4.9-13.6L433.9,449.2z M435.4,467.5c-0.3-0.8-1.3-1.3-2.1-0.9
			c-0.8,0.3-1.3,1.2-1,2.1c0.3,0.8,1.3,1.3,2.1,1C435.2,469.2,435.7,468.3,435.4,467.5z M428.9,451l-2.2,0.8l4.7,13l2.2-0.8
			L428.9,451z M422.5,453.3l-2.2,0.8l2.4,6.7c0.7,2,0.7,5.2-1.8,6.1c-2.9,1-4.1-1.9-4.8-3.8l-2.4-6.6l-2.2,0.8l2.4,6.6
			c1.4,3.9,3.2,6.5,7.2,5.1c3-1.1,3.1-4.1,3.1-4.8l1,2.8l2-0.7L422.5,453.3z"/>
		<path id="XMLID_50_" d="M476.6,431.3l-3.1-8.4l-1.5,0.6l2.3,6.2l-10.1-3.2l-1.5,0.6l2.9,7.9l1.5-0.6l-2.1-5.7l10.1,3.2
			L476.6,431.3z M471.7,418.1l-0.7-1.9l-9.4,0.6l7.6-5.6l-0.7-1.9l-12.3,0.4l0.7,1.9l9.7-0.6l-7.9,5.7l0.6,1.7l9.7-0.6l-7.9,5.8
			l0.7,2L471.7,418.1z M459.8,404.8c-1.9,0.6-3.9,0.1-4.6-1.7c-0.7-1.9,0.7-3.5,2.4-4.2L459.8,404.8z M465.3,399.3
			c-0.9-2.5-2.8-3.5-4.7-3.4l0.7,1.9c1.1,0.1,2,0.8,2.4,2.1c0.7,1.9-0.6,3.6-2.5,4.4l-2.9-7.9c-0.2,0.1-0.5,0.1-0.7,0.2
			c-3.1,1.1-5.1,3.9-4,7c1.1,3.1,4.4,4,7.6,2.9C464.5,405.3,466.4,402.4,465.3,399.3z M448.2,397.2c0.7-0.3,1.1-1.1,0.8-1.8
			c-0.3-0.7-1-1.1-1.8-0.8c-0.7,0.2-1.1,1.1-0.8,1.8C446.7,397,447.6,397.4,448.2,397.2z M462.1,391.7l-0.7-1.9l-11,4l0.7,1.9
			L462.1,391.7z"/>
		<path id="XMLID_49_" class="st4" d="M540.4,419.5l-6.9-1.4l-1.7-4.6L540.4,419.5z"/>
		<path id="XMLID_48_" class="st2" d="M529.2,424.8l9.5,7.5l-4.8-13.2L529.2,424.8z"/>
		<path id="XMLID_47_" class="st5" d="M540.7,422.3l-6.3-1.2"/>
		<path id="XMLID_46_" class="st5" d="M541,420.4l-7.1-1.2"/>
		<path id="XMLID_45_" class="st5" d="M540.2,424.2l-6-1.3"/>
		<path id="XMLID_44_" class="st5" d="M539.9,426.1l-6-1.3"/>
		<path id="XMLID_43_" class="st5" d="M539.5,427.8l-8.4-1.9"/>
		<path id="XMLID_42_" class="st5" d="M539.2,429.5l-4.8-1"/>
		<path id="XMLID_41_" class="st5" d="M538.8,431.2l-1.6-0.3"/>
		<path id="XMLID_40_" d="M529.1,423.7l4.4-5.6l-1.7-4.6L529.1,423.7z"/>
		<path id="XMLID_39_" class="st5" d="M538.6,432.2l2.4-11.9"/>
	</g>
	<g id="XMLID_73_">
		<circle id="XMLID_107_" class="st2" cx="129.4" cy="145.9" r="47.5"/>
		<path id="XMLID_103_" class="st3" d="M194,285.8l0.6-0.2l-0.2-0.6l-5.8-16l-0.2-0.6l-0.6,0.2l-2.8,1l-0.6,0.2l0.2,0.6l4.4,12.2
			l-8,2.9l-3.4-9.3l-0.2-0.6l-0.6,0.2l-2.8,1l-0.6,0.2l0.2,0.6l3.4,9.3l-7.2,2.6l-4.3-11.9l-0.2-0.6l-0.6,0.2l-2.8,1l-0.6,0.2
			l0.2,0.6l5.7,15.7l0.2,0.6l0.6-0.2L194,285.8z M184.1,258.8l0.6-0.2l-0.2-0.6l-1.2-3.2l-0.2-0.6l-0.6,0.2l-22.5,8.2l-2.3-6.4
			l-0.2-0.6l-0.6,0.2l-2.8,1l-0.6,0.2l0.2,0.6l6.2,17.2l0.2,0.6l0.6-0.2l2.8-1l0.6-0.2l-0.2-0.6l-2.3-6.4l10.9-4L184.1,258.8z
			 M178.8,244.3l0.6-0.2l-0.2-0.6l-1.2-3.2l-0.2-0.6l-0.6,0.2l-11.3,4.1l-3.9-10.8l11.3-4.1l0.6-0.2l-0.2-0.6l-1.2-3.2l-0.2-0.6
			l-0.6,0.2l-25.8,9.4l-0.6,0.2l0.2,0.6l1.2,3.2l0.2,0.6l0.6-0.2l10.5-3.8l3.9,10.8l-10.5,3.8l-0.6,0.2l0.2,0.6l1.2,3.2l0.2,0.6
			l0.6-0.2L178.8,244.3z"/>
		<path id="XMLID_92_" d="M153.8,221.8l-9.1,3.3l-1.8-4.8c-1.4-3.9-0.4-6.4,2.4-7.5c3.1-1.1,5.3,0.3,6.8,4.6L153.8,221.8z
			 M166.8,217.1l-9.9,3.6l-2.3-6.4c-1.5-4.1-0.3-6.9,2.7-8c3.3-1.2,5.8,0.3,7.4,4.9L166.8,217.1z M171.1,219.6l-3.8-10.3
			c-2.2-6.1-6.4-8.4-11.3-6.6c-3.9,1.4-5.3,4.6-5.1,8c-1.5-1.3-4-2.4-7-1.3c-5.1,1.8-6,6.4-3.8,12.7l2.9,7.9L171.1,219.6z
			 M150,195.8c-3.4,1-7,0.2-8.1-3c-1.2-3.4,1.2-6.2,4.3-7.5L150,195.8z M159.6,186.1c-1.6-4.4-5-6.2-8.3-6.1l1.2,3.4
			c2,0.2,3.5,1.5,4.3,3.6c1.2,3.4-1,6.3-4.4,7.8l-5.1-13.9c-0.4,0.1-0.8,0.3-1.2,0.4c-5.5,2-9.1,6.9-7.1,12.4
			c2,5.5,7.8,7.2,13.5,5.1C158.3,196.8,161.6,191.6,159.6,186.1z M154,172.7l-1.2-3.3l-11.8,4.3l-7.4-5.2l-3.5,1.3l7.8,5.5l-4.3,1.6
			l1.1,2.9L154,172.7z M147.5,154.7l-1.3-3.6l-7.3,6.9l-19.5,7.1l1.2,3.3l20.2-7.4L147.5,154.7z M120.3,157c1.2-0.5,1.9-1.9,1.4-3.2
			c-0.5-1.2-1.9-1.9-3.1-1.5c-1.2,0.4-1.9,1.9-1.4,3.1C117.7,156.8,119.1,157.4,120.3,157z M144.8,147.3l-1.2-3.3l-19.4,7.1l1.2,3.3
			L144.8,147.3z M141.4,137.8l-1.2-3.3l-10,3.6c-2.9,1.1-7.7,1-9.1-2.7c-1.6-4.3,2.9-6.1,5.7-7.1l9.8-3.6l-1.2-3.3l-9.8,3.6
			c-5.8,2.1-9.7,4.8-7.6,10.7c1.6,4.4,6.1,4.6,7.1,4.6l-4.2,1.5l1.1,2.9L141.4,137.8z"/>
		<path id="XMLID_85_" d="M174.1,218.3l12.6-4.6l-0.8-2.3l-9.2,3.4l4.7-15l-0.8-2.3l-11.7,4.3l0.8,2.3l8.5-3.1l-4.7,15L174.1,218.3z
			 M193.9,211.1l2.9-1l-0.9-14l8.3,11.3l2.9-1.1l-0.6-18.3l-2.9,1l0.9,14.5l-8.5-11.7l-2.6,0.9l0.9,14.5l-8.6-11.7l-2.9,1.1
			L193.9,211.1z M213.7,193.4c-0.8-2.9-0.2-5.9,2.5-6.8c2.9-1,5.2,1,6.3,3.6L213.7,193.4z M221.9,201.5c3.7-1.4,5.2-4.2,5.1-7
			l-2.9,1.1c-0.1,1.7-1.3,3-3.1,3.6c-2.9,1-5.3-0.8-6.6-3.7l11.7-4.3c-0.1-0.3-0.2-0.7-0.3-1c-1.7-4.7-5.8-7.6-10.4-6
			c-4.6,1.7-6,6.6-4.3,11.4C212.9,200.4,217.2,203.2,221.9,201.5z M225,176.2c0.4,1.1,1.6,1.6,2.7,1.2c1.1-0.4,1.6-1.6,1.2-2.6
			c-0.4-1-1.6-1.6-2.6-1.2C225.2,173.9,224.6,175.1,225,176.2z M233.2,196.8l2.8-1l-5.9-16.3l-2.8,1L233.2,196.8z"/>
		<path id="XMLID_84_" class="st4" d="M191.7,313.4l2.1-10.3l6.8-2.5L191.7,313.4z"/>
		<path id="XMLID_83_" class="st2" d="M183.8,296.8l-11.2,14.1l19.7-7.2L183.8,296.8z"/>
		<path id="XMLID_82_" class="st5" d="M187.6,313.9l1.8-9.3"/>
		<path id="XMLID_81_" class="st5" d="M190.4,314.4l1.8-10.6"/>
		<path id="XMLID_80_" class="st5" d="M184.7,313.2l2-9"/>
		<path id="XMLID_79_" class="st5" d="M181.9,312.7l2-9"/>
		<path id="XMLID_78_" class="st5" d="M179.3,312.1l2.9-12.5"/>
		<path id="XMLID_77_" class="st5" d="M176.8,311.7l1.5-7.1"/>
		<path id="XMLID_76_" class="st5" d="M174.4,311.1l0.5-2.3"/>
		<path id="XMLID_75_" d="M185.6,296.6l8.3,6.5l6.8-2.5L185.6,296.6z"/>
		<path id="XMLID_74_" class="st5" d="M172.8,310.8l17.7,3.6"/>
	</g>
	<g id="XMLID_108_">
		<circle id="XMLID_142_" class="st2" cx="374.7" cy="114" r="19.2"/>
		<path id="XMLID_138_" class="st3" d="M318,140.1l0.1,0.2l0.2-0.1l6.5-2.4l0.2-0.1l-0.1-0.2l-0.4-1.1l-0.1-0.2l-0.2,0.1l-5,1.8
			l-1.2-3.2l3.8-1.4l0.2-0.1l-0.1-0.2l-0.4-1.1l-0.1-0.2l-0.2,0.1l-3.8,1.4l-1.1-2.9l4.8-1.8l0.2-0.1l-0.1-0.2l-0.4-1.1l-0.1-0.2
			l-0.2,0.1l-6.4,2.3l-0.2,0.1l0.1,0.2L318,140.1z M329,136.1l0.1,0.2l0.2-0.1l1.3-0.5l0.2-0.1l-0.1-0.2l-3.3-9.1l2.6-0.9l0.2-0.1
			l-0.1-0.2l-0.4-1.1l-0.1-0.2l-0.2,0.1l-7,2.5l-0.2,0.1l0.1,0.2l0.4,1.1l0.1,0.2l0.2-0.1l2.6-0.9l1.6,4.4L329,136.1z M334.8,134
			l0.1,0.2l0.2-0.1l1.3-0.5l0.2-0.1l-0.1-0.2l-1.7-4.6l4.4-1.6l1.7,4.6l0.1,0.2l0.2-0.1l1.3-0.5l0.2-0.1l-0.1-0.2l-3.8-10.5
			l-0.1-0.2l-0.2,0.1l-1.3,0.5l-0.2,0.1l0.1,0.2l1.6,4.3l-4.4,1.6l-1.6-4.3l-0.1-0.2l-0.2,0.1l-1.3,0.5l-0.2,0.1l0.1,0.2L334.8,134z
			"/>
		<path id="XMLID_127_" d="M343.9,123.9l-1.3-3.7l2-0.7c1.6-0.6,2.6-0.2,3,1c0.5,1.2-0.1,2.1-1.9,2.8L343.9,123.9z M345.9,129.1
			l-1.5-4l2.6-0.9c1.7-0.6,2.8-0.1,3.2,1.1c0.5,1.3-0.1,2.3-2,3L345.9,129.1z M344.9,130.9l4.2-1.5c2.5-0.9,3.4-2.6,2.7-4.6
			c-0.6-1.6-1.9-2.2-3.2-2.1c0.5-0.6,1-1.6,0.5-2.9c-0.7-2.1-2.6-2.5-5.1-1.5l-3.2,1.2L344.9,130.9z M354.5,122.3
			c-0.4-1.4-0.1-2.8,1.2-3.3c1.4-0.5,2.5,0.5,3,1.7L354.5,122.3z M358.4,126.2c1.8-0.6,2.5-2,2.5-3.4l-1.4,0.5
			c-0.1,0.8-0.6,1.4-1.5,1.8c-1.4,0.5-2.5-0.4-3.2-1.8l5.6-2.1c0-0.2-0.1-0.3-0.2-0.5c-0.8-2.2-2.8-3.7-5-2.9
			c-2.2,0.8-2.9,3.1-2.1,5.5C354.1,125.7,356.2,127,358.4,126.2z M363.9,124l1.3-0.5l-1.7-4.8l2.1-3l-0.5-1.4l-2.2,3.2l-0.6-1.8
			l-1.2,0.4L363.9,124z M371.1,121.3l1.5-0.5l-2.8-3l-2.9-7.9l-1.3,0.5l3,8.2L371.1,121.3z M370.2,110.3c0.2,0.5,0.8,0.8,1.3,0.6
			c0.5-0.2,0.8-0.8,0.6-1.3c-0.2-0.5-0.8-0.8-1.3-0.6C370.3,109.2,370,109.8,370.2,110.3z M374.1,120.2l1.3-0.5l-2.9-7.9l-1.3,0.5
			L374.1,120.2z M378,118.8l1.3-0.5l-1.5-4.1c-0.4-1.2-0.4-3.1,1.1-3.7c1.7-0.6,2.5,1.2,2.9,2.3l1.4,4l1.3-0.5l-1.4-4
			c-0.9-2.3-1.9-3.9-4.4-3.1c-1.8,0.7-1.9,2.5-1.9,2.9l-0.6-1.7l-1.2,0.4L378,118.8z"/>
		<path id="XMLID_120_" d="M345.4,132.1l1.9,5.1l0.9-0.3l-1.4-3.7l6.1,1.9l0.9-0.3l-1.7-4.8l-0.9,0.3l1.2,3.4l-6.1-1.9L345.4,132.1z
			 M348.3,140.1l0.4,1.2l5.7-0.4l-4.6,3.4l0.4,1.2l7.4-0.3l-0.4-1.2l-5.9,0.3l4.7-3.5l-0.4-1.1l-5.9,0.4l4.7-3.5l-0.4-1.2
			L348.3,140.1z M355.5,148.1c1.2-0.3,2.4-0.1,2.8,1c0.4,1.2-0.4,2.1-1.5,2.6L355.5,148.1z M352.2,151.4c0.5,1.5,1.7,2.1,2.9,2.1
			l-0.4-1.2c-0.7-0.1-1.2-0.5-1.5-1.2c-0.4-1.2,0.3-2.1,1.5-2.7l1.7,4.8c0.1,0,0.3-0.1,0.4-0.1c1.9-0.7,3.1-2.4,2.4-4.2
			c-0.7-1.9-2.7-2.4-4.6-1.7C352.6,147.8,351.5,149.5,352.2,151.4z M362.5,152.7c-0.4,0.2-0.6,0.6-0.5,1.1c0.2,0.4,0.6,0.7,1.1,0.5
			c0.4-0.2,0.6-0.6,0.5-1.1C363.4,152.8,362.9,152.6,362.5,152.7z M354.1,156l0.4,1.1l6.6-2.4l-0.4-1.1L354.1,156z"/>
		<path id="XMLID_119_" class="st4" d="M306.8,139.2l4.2,0.9l1,2.8L306.8,139.2z"/>
		<path id="XMLID_118_" class="st2" d="M313.6,136l-5.7-4.5l2.9,8L313.6,136z"/>
		<path id="XMLID_117_" class="st5" d="M306.6,137.5l3.8,0.7"/>
		<path id="XMLID_116_" class="st5" d="M306.4,138.7l4.3,0.7"/>
		<path id="XMLID_115_" class="st5" d="M306.9,136.4l3.6,0.8"/>
		<path id="XMLID_114_" class="st5" d="M307.1,135.3l3.6,0.8"/>
		<path id="XMLID_113_" class="st5" d="M307.4,134.2l5.1,1.2"/>
		<path id="XMLID_112_" class="st5" d="M307.5,133.2l2.9,0.6"/>
		<path id="XMLID_111_" class="st5" d="M307.8,132.2l0.9,0.2"/>
		<path id="XMLID_110_" d="M313.6,136.7l-2.6,3.4l1,2.8L313.6,136.7z"/>
		<path id="XMLID_109_" class="st5" d="M307.9,131.5l-1.4,7.2"/>
	</g>
	<g id="XMLID_143_">
		<circle id="XMLID_177_" class="st2" cx="433" cy="665.2" r="38"/>
		<path id="XMLID_173_" class="st3" d="M321.1,716.9l0.2,0.5l0.5-0.2l12.8-4.7l0.5-0.2l-0.2-0.5l-0.8-2.2l-0.2-0.5l-0.5,0.2
			l-9.8,3.6l-2.3-6.4l7.4-2.7l0.5-0.2l-0.2-0.5l-0.8-2.2l-0.2-0.5l-0.5,0.2l-7.4,2.7l-2.1-5.7l9.5-3.5l0.5-0.2l-0.2-0.5l-0.8-2.2
			l-0.2-0.5l-0.5,0.2l-12.5,4.6l-0.5,0.2l0.2,0.5L321.1,716.9z M342.7,709l0.2,0.5l0.5-0.2l2.6-0.9l0.5-0.2l-0.2-0.5l-6.5-18
			l5.1-1.9l0.5-0.2l-0.2-0.5l-0.8-2.2l-0.2-0.5l-0.5,0.2l-13.7,5l-0.5,0.2l0.2,0.5l0.8,2.2l0.2,0.5l0.5-0.2l5.1-1.9l3.2,8.8
			L342.7,709z M354.3,704.8l0.2,0.5l0.5-0.2l2.6-0.9l0.5-0.2l-0.2-0.5l-3.3-9.1l8.6-3.1l3.3,9.1l0.2,0.5l0.5-0.2l2.6-0.9l0.5-0.2
			l-0.2-0.5l-7.5-20.7l-0.2-0.5l-0.5,0.2l-2.6,0.9l-0.5,0.2l0.2,0.5l3.1,8.4l-8.6,3.1l-3.1-8.4l-0.2-0.5l-0.5,0.2l-2.6,0.9l-0.5,0.2
			l0.2,0.5L354.3,704.8z"/>
		<path id="XMLID_162_" d="M372.3,684.8l-2.6-7.3l3.9-1.4c3.2-1.1,5.1-0.4,6,1.9c0.9,2.5-0.3,4.2-3.7,5.5L372.3,684.8z M376.1,695.2
			l-2.9-8l5.1-1.9c3.3-1.2,5.5-0.2,6.4,2.2c1,2.7-0.3,4.6-3.9,6L376.1,695.2z M374.1,698.6l8.3-3c4.9-1.8,6.7-5.1,5.3-9.1
			c-1.1-3.2-3.7-4.2-6.4-4.1c1-1.2,1.9-3.2,1-5.6c-1.5-4.1-5.2-4.8-10.1-3l-6.3,2.3L374.1,698.6z M393.1,681.7
			c-0.8-2.7-0.2-5.6,2.4-6.5c2.7-1,4.9,1,6,3.4L393.1,681.7z M400.9,689.4c3.5-1.3,5-4,4.8-6.7l-2.7,1c-0.1,1.6-1.2,2.8-2.9,3.5
			c-2.7,1-5-0.8-6.3-3.5l11.1-4.1c-0.1-0.3-0.2-0.7-0.3-1c-1.6-4.4-5.5-7.3-9.9-5.7c-4.4,1.6-5.7,6.2-4.1,10.8
			C392.3,688.4,396.4,691,400.9,689.4z M411.6,685l2.7-1l-3.4-9.5l4.1-5.9l-1-2.8l-4.4,6.2l-1.3-3.5l-2.3,0.9L411.6,685z
			 M425.9,679.8l2.9-1l-5.5-5.8l-5.7-15.6l-2.7,1l5.9,16.2L425.9,679.8z M424.1,658c0.4,1,1.5,1.5,2.5,1.1c1-0.4,1.5-1.5,1.2-2.5
			c-0.4-1-1.5-1.5-2.5-1.1C424.3,655.9,423.8,657,424.1,658z M431.9,677.6l2.7-1l-5.6-15.5l-2.7,1L431.9,677.6z M439.5,674.8l2.7-1
			l-2.9-8c-0.9-2.3-0.8-6.2,2.2-7.3c3.4-1.2,4.9,2.3,5.7,4.6l2.9,7.9l2.7-1l-2.9-7.9c-1.7-4.6-3.8-7.8-8.6-6.1
			c-3.6,1.3-3.7,4.9-3.7,5.7l-1.2-3.4l-2.3,0.9L439.5,674.8z"/>
		<path id="XMLID_155_" d="M375.1,701l3.7,10.1l1.8-0.7l-2.7-7.4l12,3.8l1.8-0.7l-3.4-9.4l-1.8,0.7l2.5,6.8l-12-3.8L375.1,701z
			 M380.8,716.8l0.8,2.3l11.2-0.7l-9.1,6.6l0.8,2.3l14.6-0.5l-0.8-2.3l-11.6,0.7l9.4-6.8l-0.8-2.1l-11.6,0.7l9.4-6.9l-0.9-2.3
			L380.8,716.8z M395,732.7c2.3-0.7,4.7-0.1,5.5,2c0.8,2.3-0.8,4.2-2.9,5L395,732.7z M388.5,739.3c1.1,3,3.4,4.2,5.6,4.1l-0.8-2.3
			c-1.3-0.1-2.4-1-2.9-2.5c-0.8-2.3,0.7-4.2,2.9-5.3l3.4,9.4c0.3-0.1,0.6-0.2,0.8-0.3c3.7-1.4,6.1-4.6,4.8-8.3
			c-1.4-3.7-5.2-4.8-9.1-3.4C389.4,732,387.2,735.5,388.5,739.3z M408.8,741.8c-0.8,0.3-1.3,1.3-1,2.1c0.3,0.8,1.2,1.3,2.1,1
			c0.8-0.3,1.3-1.3,1-2.1C410.6,741.9,409.6,741.5,408.8,741.8z M392.3,748.3l0.8,2.2l13.1-4.8l-0.8-2.2L392.3,748.3z"/>
		<path id="XMLID_154_" class="st4" d="M299,715.1l8.3,1.7l2,5.5L299,715.1z"/>
		<path id="XMLID_153_" class="st2" d="M312.3,708.8l-11.3-9l5.7,15.7L312.3,708.8z"/>
		<path id="XMLID_152_" class="st5" d="M298.6,711.8l7.5,1.4"/>
		<path id="XMLID_151_" class="st5" d="M298.2,714l8.5,1.4"/>
		<path id="XMLID_150_" class="st5" d="M299.2,709.5l7.2,1.6"/>
		<path id="XMLID_149_" class="st5" d="M299.6,707.3l7.2,1.6"/>
		<path id="XMLID_148_" class="st5" d="M300.1,705.2l10,2.3"/>
		<path id="XMLID_147_" class="st5" d="M300.4,703.2l5.7,1.2"/>
		<path id="XMLID_146_" class="st5" d="M300.9,701.3l1.9,0.4"/>
		<path id="XMLID_145_" d="M312.5,710.2l-5.2,6.6l2,5.5L312.5,710.2z"/>
		<path id="XMLID_144_" class="st5" d="M301.1,700l-2.8,14.2"/>
	</g>
	<g id="XMLID_178_">
		<circle id="XMLID_212_" class="st2" cx="295.9" cy="581.4" r="54"/>
		<path id="XMLID_208_" class="st3" d="M455,507.9l-0.2-0.7l-0.7,0.2l-18.2,6.6l-0.7,0.2l0.2,0.7l1.2,3.2l0.2,0.7l0.7-0.2l13.9-5.1
			l3.3,9l-10.6,3.8l-0.7,0.2l0.2,0.7l1.2,3.2l0.2,0.7l0.7-0.2l10.6-3.8l3,8.1l-13.5,4.9l-0.7,0.2l0.2,0.7l1.2,3.2l0.2,0.7l0.7-0.2
			l17.8-6.5l0.7-0.2l-0.2-0.7L455,507.9z M424.2,519.1l-0.2-0.7l-0.7,0.2l-3.7,1.3l-0.7,0.2l0.2,0.7l9.3,25.5l-7.3,2.6l-0.7,0.2
			l0.2,0.7l1.2,3.2l0.2,0.7l0.7-0.2l19.5-7.1l0.7-0.2l-0.2-0.7l-1.2-3.2l-0.2-0.7l-0.7,0.2l-7.3,2.6l-4.5-12.4L424.2,519.1z
			 M407.8,525.1l-0.2-0.7l-0.7,0.2l-3.7,1.3l-0.7,0.2l0.2,0.7l4.7,12.9l-12.3,4.5l-4.7-12.9l-0.2-0.7l-0.7,0.2l-3.7,1.3l-0.7,0.2
			l0.2,0.7l10.7,29.4l0.2,0.7l0.7-0.2l3.7-1.3l0.7-0.2l-0.2-0.7l-4.4-12l12.3-4.5l4.4,12l0.2,0.7l0.7-0.2l3.7-1.3l0.7-0.2l-0.2-0.7
			L407.8,525.1z"/>
		<path id="XMLID_197_" d="M382.2,553.6l3.8,10.3l-5.5,2c-4.5,1.6-7.3,0.5-8.5-2.7c-1.3-3.5,0.4-6,5.3-7.8L382.2,553.6z
			 M376.8,538.8l4.1,11.3l-7.3,2.6c-4.7,1.7-7.8,0.3-9.1-3.1c-1.4-3.8,0.4-6.6,5.6-8.5L376.8,538.8z M379.6,533.9l-11.8,4.3
			c-6.9,2.5-9.6,7.3-7.6,12.9c1.6,4.5,5.2,6,9,5.8c-1.5,1.7-2.7,4.6-1.5,8c2.1,5.8,7.3,6.9,14.4,4.3l9-3.3L379.6,533.9z
			 M352.6,557.9c1.1,3.9,0.2,7.9-3.4,9.2c-3.9,1.4-7-1.4-8.5-4.9L352.6,557.9z M341.5,547c-5,1.8-7.1,5.7-6.9,9.5l3.9-1.4
			c0.2-2.2,1.7-4,4.1-4.9c3.9-1.4,7.1,1.1,8.9,5l-15.8,5.8c0.1,0.5,0.3,0.9,0.5,1.4c2.3,6.3,7.8,10.3,14.1,8
			c6.3-2.3,8.1-8.8,5.8-15.3C353.7,548.5,347.9,544.7,341.5,547z M326.3,553.3l-3.8,1.4l4.9,13.4l-5.9,8.4l1.5,4l6.2-8.8l1.8,4.9
			l3.3-1.2L326.3,553.3z M305.9,560.7l-4.1,1.5l7.8,8.3l8.1,22.2l3.8-1.4l-8.4-23L305.9,560.7z M308.5,591.7
			c-0.5-1.4-2.1-2.1-3.6-1.6c-1.4,0.5-2.2,2.1-1.7,3.5c0.5,1.4,2.1,2.1,3.6,1.6C308.2,594.7,309,593.1,308.5,591.7z M297.5,563.8
			l-3.8,1.4l8,22l3.8-1.4L297.5,563.8z M286.7,567.7l-3.8,1.4l4.1,11.4c1.2,3.3,1.2,8.8-3.1,10.3c-4.9,1.8-6.9-3.3-8.1-6.5
			l-4.1-11.2l-3.8,1.4l4.1,11.2c2.4,6.6,5.4,11.1,12.2,8.6c5.1-1.8,5.2-7,5.3-8.1l1.7,4.8l3.3-1.2L286.7,567.7z"/>
		<path id="XMLID_190_" d="M378.2,530.5l-5.2-14.3l-2.6,1l3.8,10.5l-17.1-5.4l-2.6,1l4.9,13.4l2.6-1l-3.5-9.6l17.1,5.4L378.2,530.5z
			 M370.1,508l-1.2-3.3l-15.9,1.1l12.9-9.4l-1.2-3.3l-20.8,0.7l1.2,3.3l16.5-1l-13.3,9.7l1.1,3l16.5-1l-13.3,9.8l1.2,3.3L370.1,508z
			 M349.9,485.5c-3.3,0.9-6.7,0.2-7.8-2.9c-1.2-3.3,1.1-5.9,4.1-7.2L349.9,485.5z M359.1,476.2c-1.5-4.2-4.8-6-8-5.8l1.2,3.3
			c1.9,0.2,3.4,1.4,4.1,3.5c1.2,3.3-0.9,6-4.2,7.5l-4.9-13.4c-0.4,0.1-0.8,0.2-1.2,0.4c-5.3,1.9-8.7,6.6-6.8,11.9
			c1.9,5.3,7.5,6.9,12.9,4.9C357.8,486.4,361,481.5,359.1,476.2z M330.3,472.6c1.2-0.4,1.8-1.8,1.4-3c-0.4-1.2-1.8-1.9-3-1.4
			c-1.2,0.4-1.8,1.8-1.4,3C327.7,472.4,329.1,473,330.3,472.6z M353.8,463.3l-1.2-3.2l-18.6,6.8l1.2,3.2L353.8,463.3z"/>
		<path id="XMLID_189_" class="st4" d="M486.4,510.5l-11.7-2.4l-2.8-7.8L486.4,510.5z"/>
		<path id="XMLID_188_" class="st2" d="M467.4,519.5l16,12.8l-8.1-22.3L467.4,519.5z"/>
		<path id="XMLID_187_" class="st5" d="M486.9,515.2l-10.6-2.1"/>
		<path id="XMLID_186_" class="st5" d="M487.4,512l-12.1-2"/>
		<path id="XMLID_185_" class="st5" d="M486.1,518.4l-10.2-2.2"/>
		<path id="XMLID_184_" class="st5" d="M485.5,521.6l-10.2-2.2"/>
		<path id="XMLID_183_" class="st5" d="M484.9,524.5l-14.3-3.3"/>
		<path id="XMLID_182_" class="st5" d="M484.4,527.4l-8.1-1.8"/>
		<path id="XMLID_181_" class="st5" d="M483.7,530.2l-2.7-0.5"/>
		<path id="XMLID_180_" d="M467.2,517.5l7.4-9.4l-2.8-7.8L467.2,517.5z"/>
		<path id="XMLID_179_" class="st5" d="M483.4,532l4-20.1"/>
	</g>
	<g id="XMLID_213_">
		<circle id="XMLID_281_" class="st2" cx="285.6" cy="332" r="67.9"/>
		<path id="XMLID_277_" class="st3" d="M85.7,424.3l0.3,0.8l0.8-0.3l22.9-8.3l0.8-0.3l-0.3-0.8l-1.5-4l-0.3-0.8l-0.8,0.3l-17.5,6.4
			l-4.1-11.4l13.3-4.8l0.8-0.3l-0.3-0.8l-1.5-4l-0.3-0.8l-0.8,0.3L84,400.2l-3.7-10.2l17-6.2l0.8-0.3l-0.3-0.8l-1.5-4l-0.3-0.8
			l-0.8,0.3l-22.4,8.2l-0.8,0.3l0.3,0.8L85.7,424.3z M124.4,410.2l0.3,0.8l0.8-0.3l4.6-1.7l0.8-0.3l-0.3-0.8L119,375.8l9.1-3.3
			l0.8-0.3l-0.3-0.8l-1.5-4l-0.3-0.8l-0.8,0.3l-24.5,8.9l-0.8,0.3l0.3,0.8l1.5,4l0.3,0.8l0.8-0.3l9.1-3.3l5.7,15.6L124.4,410.2z
			 M145,402.7l0.3,0.8l0.8-0.3l4.6-1.7l0.8-0.3l-0.3-0.8l-5.9-16.2l15.4-5.6l5.9,16.2l0.3,0.8l0.8-0.3l4.6-1.7l0.8-0.3l-0.3-0.8
			l-13.4-36.9l-0.3-0.8l-0.8,0.3l-4.6,1.7l-0.8,0.3l0.3,0.8l5.5,15.1l-15.4,5.6l-5.5-15.1l-0.3-0.8l-0.8,0.3l-4.6,1.7l-0.8,0.3
			l0.3,0.8L145,402.7z"/>
		<path id="XMLID_266_" d="M177.1,366.9l-4.7-13l6.9-2.5c5.6-2,9.2-0.6,10.7,3.4c1.6,4.4-0.5,7.6-6.6,9.8L177.1,366.9z M183.9,385.5
			l-5.2-14.2l9.1-3.3c5.9-2.1,9.8-0.4,11.4,3.9c1.7,4.7-0.5,8.2-7,10.6L183.9,385.5z M180.4,391.7l14.8-5.4
			c8.7-3.2,12.1-9.2,9.5-16.2c-2-5.6-6.5-7.6-11.4-7.3c1.9-2.1,3.4-5.8,1.8-10.1c-2.6-7.2-9.2-8.6-18.1-5.4l-11.3,4.1L180.4,391.7z
			 M214.4,361.5c-1.4-4.9-0.3-9.9,4.3-11.6c4.8-1.8,8.8,1.7,10.7,6.1L214.4,361.5z M228.2,375.2c6.3-2.3,8.9-7.1,8.7-11.9L232,365
			c-0.2,2.8-2.1,5.1-5.2,6.2c-4.8,1.8-9-1.4-11.2-6.2l19.9-7.2c-0.1-0.6-0.4-1.2-0.6-1.7c-2.9-7.9-9.8-13-17.7-10.1
			c-7.9,2.9-10.2,11.1-7.3,19.2C213,373.3,220.3,378.1,228.2,375.2z M247.4,367.3l4.7-1.7l-6.1-16.9l7.4-10.5l-1.8-5l-7.8,11.1
			l-2.3-6.2l-4.2,1.5L247.4,367.3z M273,357.9l5.1-1.9l-9.8-10.4l-10.1-27.9l-4.7,1.7l10.5,28.9L273,357.9z M269.8,319
			c0.6,1.8,2.7,2.7,4.5,2c1.8-0.6,2.8-2.6,2.1-4.4c-0.6-1.7-2.7-2.7-4.5-2C270.1,315.3,269.2,317.3,269.8,319z M283.6,354.1l4.7-1.7
			l-10.1-27.7l-4.7,1.7L283.6,354.1z M297.2,349.2l4.7-1.7l-5.2-14.3c-1.5-4.2-1.5-11,3.9-13c6.1-2.2,8.7,4.1,10.2,8.2l5.1,14
			l4.7-1.7l-5.1-14c-3-8.2-6.8-13.9-15.4-10.8c-6.4,2.3-6.6,8.8-6.6,10.2l-2.2-6l-4.2,1.5L297.2,349.2z"/>
		<path id="XMLID_259_" d="M182.1,395.9l6.5,18l3.3-1.2l-4.8-13.2l21.4,6.7l3.3-1.2l-6.1-16.8l-3.3,1.2l4.4,12.1l-21.5-6.8
			L182.1,395.9z M192.4,424.2l1.5,4.1l20-1.3l-16.2,11.8l1.5,4.1l26.1-0.9l-1.5-4.1l-20.7,1.2l16.7-12.2l-1.4-3.7l-20.7,1.3
			l16.7-12.3l-1.5-4.2L192.4,424.2z M217.7,452.5c4.1-1.2,8.4-0.2,9.8,3.6c1.5,4.1-1.4,7.4-5.2,9L217.7,452.5z M206.2,464.2
			c1.9,5.3,6,7.5,10.1,7.3l-1.5-4.1c-2.4-0.2-4.3-1.8-5.2-4.4c-1.5-4.1,1.2-7.6,5.2-9.4l6.1,16.8c0.5-0.1,1-0.3,1.5-0.5
			c6.7-2.4,10.9-8.3,8.5-14.9c-2.4-6.6-9.4-8.6-16.2-6.1C207.8,451.3,203.7,457.5,206.2,464.2z M242.4,468.7
			c-1.5,0.5-2.3,2.3-1.7,3.8c0.5,1.5,2.2,2.3,3.7,1.8c1.5-0.5,2.3-2.3,1.7-3.8C245.6,469,243.9,468.2,242.4,468.7z M212.8,480.3
			l1.5,4l23.4-8.5l-1.5-4L212.8,480.3z"/>
		<path id="XMLID_258_" class="st4" d="M46.2,421.1l14.7,3.1l3.5,9.7L46.2,421.1z"/>
		<path id="XMLID_257_" class="st2" d="M70,409.8l-20.1-16l10.2,28.1L70,409.8z"/>
		<path id="XMLID_256_" class="st5" d="M45.6,415.2l13.4,2.6"/>
		<path id="XMLID_255_" class="st5" d="M44.9,419.2l15.2,2.5"/>
		<path id="XMLID_254_" class="st5" d="M46.6,411.1l12.8,2.8"/>
		<path id="XMLID_253_" class="st5" d="M47.3,407.1l12.8,2.8"/>
		<path id="XMLID_252_" class="st5" d="M48.1,403.4l17.9,4.1"/>
		<path id="XMLID_251_" class="st5" d="M48.7,399.8l10.1,2.2"/>
		<path id="XMLID_250_" class="st5" d="M49.6,396.3l3.3,0.6"/>
		<path id="XMLID_249_" d="M70.3,412.3L61,424.1l3.5,9.7L70.3,412.3z"/>
		<path id="XMLID_214_" class="st5" d="M50,394l-5.1,25.3"/>
	</g>
	<g id="XMLID_282_">
		<circle id="XMLID_316_" class="st2" cx="138.9" cy="647.3" r="19.2"/>
		<path id="XMLID_312_" class="st3" d="M82.2,673.4l0.1,0.2l0.2-0.1l6.5-2.4l0.2-0.1l-0.1-0.2l-0.4-1.1l-0.1-0.2l-0.2,0.1l-5,1.8
			l-1.2-3.2l3.8-1.4l0.2-0.1l-0.1-0.2l-0.4-1.1l-0.1-0.2l-0.2,0.1l-3.8,1.4l-1.1-2.9l4.8-1.8l0.2-0.1l-0.1-0.2l-0.4-1.1l-0.1-0.2
			l-0.2,0.1l-6.4,2.3l-0.2,0.1l0.1,0.2L82.2,673.4z M93.1,669.4l0.1,0.2l0.2-0.1l1.3-0.5L95,669l-0.1-0.2l-3.3-9.1l2.6-0.9l0.2-0.1
			l-0.1-0.2l-0.4-1.1l-0.1-0.2l-0.2,0.1l-7,2.5l-0.2,0.1l0.1,0.2l0.4,1.1l0.1,0.2l0.2-0.1l2.6-0.9l1.6,4.4L93.1,669.4z M99,667.3
			l0.1,0.2l0.2-0.1l1.3-0.5l0.2-0.1l-0.1-0.2l-1.7-4.6l4.4-1.6l1.7,4.6l0.1,0.2l0.2-0.1l1.3-0.5l0.2-0.1l-0.1-0.2l-3.8-10.5
			l-0.1-0.2l-0.2,0.1l-1.3,0.5l-0.2,0.1l0.1,0.2l1.6,4.3l-4.4,1.6l-1.6-4.3l-0.1-0.2l-0.2,0.1l-1.3,0.5l-0.2,0.1l0.1,0.2L99,667.3z"
			/>
		<path id="XMLID_301_" d="M108.1,657.2l-1.3-3.7l2-0.7c1.6-0.6,2.6-0.2,3,1c0.5,1.2-0.1,2.1-1.9,2.8L108.1,657.2z M110,662.4
			l-1.5-4l2.6-0.9c1.7-0.6,2.8-0.1,3.2,1.1c0.5,1.3-0.1,2.3-2,3L110,662.4z M109,664.2l4.2-1.5c2.5-0.9,3.4-2.6,2.7-4.6
			c-0.6-1.6-1.9-2.2-3.2-2.1c0.5-0.6,1-1.6,0.5-2.9c-0.7-2.1-2.6-2.5-5.1-1.5l-3.2,1.2L109,664.2z M118.7,655.6
			c-0.4-1.4-0.1-2.8,1.2-3.3c1.4-0.5,2.5,0.5,3,1.7L118.7,655.6z M122.6,659.5c1.8-0.7,2.5-2,2.5-3.4l-1.4,0.5
			c-0.1,0.8-0.6,1.4-1.5,1.8c-1.4,0.5-2.5-0.4-3.2-1.8l5.6-2.1c0-0.2-0.1-0.3-0.2-0.5c-0.8-2.2-2.8-3.7-5-2.9s-2.9,3.1-2.1,5.5
			C118.3,659,120.3,660.3,122.6,659.5z M128,657.3l1.3-0.5l-1.7-4.8l2.1-3l-0.5-1.4l-2.2,3.2l-0.6-1.8l-1.2,0.4L128,657.3z
			 M135.3,654.6l1.5-0.5l-2.8-3l-2.9-7.9l-1.3,0.5l3,8.2L135.3,654.6z M134.4,643.6c0.2,0.5,0.8,0.8,1.3,0.6
			c0.5-0.2,0.8-0.8,0.6-1.3c-0.2-0.5-0.8-0.8-1.3-0.6C134.5,642.5,134.2,643.1,134.4,643.6z M138.3,653.5l1.3-0.5l-2.9-7.9l-1.3,0.5
			L138.3,653.5z M142.1,652.1l1.3-0.5l-1.5-4.1c-0.4-1.2-0.4-3.1,1.1-3.7c1.7-0.6,2.5,1.2,2.9,2.3l1.4,4l1.3-0.5l-1.4-4
			c-0.9-2.3-1.9-3.9-4.4-3.1c-1.8,0.7-1.9,2.5-1.9,2.9l-0.6-1.7l-1.2,0.4L142.1,652.1z"/>
		<path id="XMLID_294_" d="M109.5,665.4l1.9,5.1l0.9-0.3l-1.4-3.7l6.1,1.9l0.9-0.3l-1.7-4.8l-0.9,0.3l1.2,3.4l-6.1-1.9L109.5,665.4z
			 M112.4,673.4l0.4,1.2l5.7-0.4l-4.6,3.4l0.4,1.2l7.4-0.3l-0.4-1.2l-5.9,0.3l4.7-3.5l-0.4-1.1l-5.9,0.4l4.7-3.5l-0.4-1.2
			L112.4,673.4z M119.6,681.4c1.2-0.3,2.4-0.1,2.8,1c0.4,1.2-0.4,2.1-1.5,2.6L119.6,681.4z M116.3,684.8c0.5,1.5,1.7,2.1,2.9,2.1
			l-0.4-1.2c-0.7-0.1-1.2-0.5-1.5-1.2c-0.4-1.2,0.3-2.1,1.5-2.7l1.7,4.8c0.1,0,0.3-0.1,0.4-0.1c1.9-0.7,3.1-2.4,2.4-4.2
			c-0.7-1.9-2.7-2.4-4.6-1.7C116.8,681.1,115.6,682.8,116.3,684.8z M126.6,686c-0.4,0.2-0.6,0.6-0.5,1.1c0.2,0.4,0.6,0.7,1.1,0.5
			c0.4-0.2,0.6-0.6,0.5-1.1C127.5,686.1,127,685.9,126.6,686z M118.2,689.3l0.4,1.1l6.6-2.4l-0.4-1.1L118.2,689.3z"/>
		<path id="XMLID_293_" class="st4" d="M71,672.5l4.2,0.9l1,2.8L71,672.5z"/>
		<path id="XMLID_292_" class="st2" d="M77.7,669.3l-5.7-4.5l2.9,8L77.7,669.3z"/>
		<path id="XMLID_291_" class="st5" d="M70.8,670.9l3.8,0.7"/>
		<path id="XMLID_290_" class="st5" d="M70.6,672l4.3,0.7"/>
		<path id="XMLID_289_" class="st5" d="M71.1,669.7l3.6,0.8"/>
		<path id="XMLID_288_" class="st5" d="M71.3,668.6l3.6,0.8"/>
		<path id="XMLID_287_" class="st5" d="M71.5,667.5l5.1,1.2"/>
		<path id="XMLID_286_" class="st5" d="M71.7,666.5l2.9,0.6"/>
		<path id="XMLID_285_" class="st5" d="M71.9,665.5l0.9,0.2"/>
		<path id="XMLID_284_" d="M77.8,670l-2.6,3.4l1,2.8L77.8,670z"/>
		<path id="XMLID_283_" class="st5" d="M72,664.8l-1.4,7.2"/>
	</g>
	<g id="XMLID_317_">
		<circle id="XMLID_351_" class="st2" cx="369.4" cy="257.2" r="19.2"/>
		<path id="XMLID_347_" class="st3" d="M426.1,231l-0.1-0.2l-0.2,0.1l-6.5,2.4l-0.2,0.1l0.1,0.2l0.4,1.1l0.1,0.2l0.2-0.1l5-1.8
			l1.2,3.2l-3.8,1.4l-0.2,0.1l0.1,0.2l0.4,1.1l0.1,0.2l0.2-0.1l3.8-1.4l1.1,2.9l-4.8,1.8l-0.2,0.1l0.1,0.2l0.4,1.1l0.1,0.2l0.2-0.1
			l6.4-2.3l0.2-0.1l-0.1-0.2L426.1,231z M415.2,235l-0.1-0.2l-0.2,0.1l-1.3,0.5l-0.2,0.1l0.1,0.2l3.3,9.1l-2.6,0.9l-0.2,0.1l0.1,0.2
			l0.4,1.1l0.1,0.2l0.2-0.1l7-2.5l0.2-0.1l-0.1-0.2l-0.4-1.1l-0.1-0.2l-0.2,0.1l-2.6,0.9l-1.6-4.4L415.2,235z M409.3,237.1l-0.1-0.2
			L409,237l-1.3,0.5l-0.2,0.1l0.1,0.2l1.7,4.6l-4.4,1.6l-1.7-4.6l-0.1-0.2l-0.2,0.1l-1.3,0.5l-0.2,0.1l0.1,0.2l3.8,10.5l0.1,0.2
			l0.2-0.1l1.3-0.5l0.2-0.1l-0.1-0.2l-1.6-4.3l4.4-1.6l1.6,4.3l0.1,0.2l0.2-0.1l1.3-0.5l0.2-0.1l-0.1-0.2L409.3,237.1z"/>
		<path id="XMLID_336_" d="M400.2,247.3l1.3,3.7l-2,0.7c-1.6,0.6-2.6,0.2-3-1c-0.5-1.2,0.1-2.1,1.9-2.8L400.2,247.3z M398.3,242
			l1.5,4l-2.6,0.9c-1.7,0.6-2.8,0.1-3.2-1.1c-0.5-1.3,0.1-2.3,2-3L398.3,242z M399.3,240.2l-4.2,1.5c-2.5,0.9-3.4,2.6-2.7,4.6
			c0.6,1.6,1.9,2.2,3.2,2.1c-0.5,0.6-1,1.6-0.5,2.9c0.7,2.1,2.6,2.5,5.1,1.5l3.2-1.2L399.3,240.2z M389.6,248.8
			c0.4,1.4,0.1,2.8-1.2,3.3c-1.4,0.5-2.5-0.5-3-1.7L389.6,248.8z M385.7,244.9c-1.8,0.6-2.5,2-2.5,3.4l1.4-0.5
			c0.1-0.8,0.6-1.4,1.5-1.8c1.4-0.5,2.5,0.4,3.2,1.8l-5.6,2.1c0,0.2,0.1,0.3,0.2,0.5c0.8,2.2,2.8,3.7,5,2.9c2.2-0.8,2.9-3.1,2.1-5.5
			C390,245.4,388,244.1,385.7,244.9z M380.3,247.2l-1.3,0.5l1.7,4.8l-2.1,3l0.5,1.4l2.2-3.2l0.6,1.8l1.2-0.4L380.3,247.2z
			 M373,249.8l-1.5,0.5l2.8,3l2.9,7.9l1.3-0.5l-3-8.2L373,249.8z M373.9,260.8c-0.2-0.5-0.8-0.8-1.3-0.6c-0.5,0.2-0.8,0.8-0.6,1.3
			c0.2,0.5,0.8,0.8,1.3,0.6C373.8,261.9,374.1,261.3,373.9,260.8z M370,250.9l-1.3,0.5l2.9,7.9l1.3-0.5L370,250.9z M366.2,252.3
			l-1.3,0.5l1.5,4.1c0.4,1.2,0.4,3.1-1.1,3.7c-1.7,0.6-2.5-1.2-2.9-2.3l-1.4-4l-1.3,0.5l1.4,4c0.9,2.3,1.9,3.9,4.4,3.1
			c1.8-0.7,1.9-2.5,1.9-2.9l0.6,1.7l1.2-0.4L366.2,252.3z"/>
		<path id="XMLID_329_" d="M398.8,239l-1.9-5.1l-0.9,0.3l1.4,3.7l-6.1-1.9l-0.9,0.3l1.7,4.8l0.9-0.3l-1.2-3.4l6.1,1.9L398.8,239z
			 M395.9,231l-0.4-1.2l-5.7,0.4l4.6-3.4l-0.4-1.2l-7.4,0.3l0.4,1.2l5.9-0.3l-4.7,3.5l0.4,1.1l5.9-0.4l-4.7,3.5l0.4,1.2L395.9,231z
			 M388.7,223c-1.2,0.3-2.4,0.1-2.8-1c-0.4-1.2,0.4-2.1,1.5-2.6L388.7,223z M392,219.7c-0.5-1.5-1.7-2.1-2.9-2.1l0.4,1.2
			c0.7,0.1,1.2,0.5,1.5,1.2c0.4,1.2-0.3,2.1-1.5,2.7l-1.7-4.8c-0.1,0-0.3,0.1-0.4,0.1c-1.9,0.7-3.1,2.4-2.4,4.2
			c0.7,1.9,2.7,2.4,4.6,1.7C391.5,223.3,392.7,221.6,392,219.7z M381.7,218.4c0.4-0.2,0.6-0.6,0.5-1.1c-0.2-0.4-0.6-0.7-1.1-0.5
			c-0.4,0.2-0.6,0.6-0.5,1.1C380.8,218.3,381.3,218.5,381.7,218.4z M390.1,215.1l-0.4-1.1l-6.6,2.4l0.4,1.1L390.1,215.1z"/>
		<path id="XMLID_328_" class="st4" d="M437.3,231.9l-4.2-0.9l-1-2.8L437.3,231.9z"/>
		<path id="XMLID_327_" class="st2" d="M430.6,235.1l5.7,4.5l-2.9-8L430.6,235.1z"/>
		<path id="XMLID_326_" class="st5" d="M437.5,233.6l-3.8-0.7"/>
		<path id="XMLID_325_" class="st5" d="M437.7,232.4l-4.3-0.7"/>
		<path id="XMLID_324_" class="st5" d="M437.2,234.7l-3.6-0.8"/>
		<path id="XMLID_323_" class="st5" d="M437,235.9l-3.6-0.8"/>
		<path id="XMLID_322_" class="st5" d="M436.8,236.9l-5.1-1.2"/>
		<path id="XMLID_321_" class="st5" d="M436.6,237.9l-2.9-0.6"/>
		<path id="XMLID_320_" class="st5" d="M436.4,238.9l-0.9-0.2"/>
		<path id="XMLID_319_" d="M430.5,234.4l2.6-3.4l-1-2.8L430.5,234.4z"/>
		<path id="XMLID_318_" class="st5" d="M436.3,239.6l1.4-7.2"/>
	</g>
	<g id="XMLID_352_">
		<circle id="XMLID_386_" class="st2" cx="477.9" cy="186" r="31.9"/>
		<path id="XMLID_382_" class="st3" d="M434.5,92.1l-0.4,0.1l0.1,0.4l3.9,10.8l0.1,0.4l0.4-0.1l1.9-0.7l0.4-0.1l-0.1-0.4l-3-8.2
			l5.3-1.9l2.3,6.2l0.1,0.4l0.4-0.1l1.9-0.7l0.4-0.1l-0.1-0.4l-2.3-6.2l4.8-1.8l2.9,8l0.1,0.4l0.4-0.1l1.9-0.7l0.4-0.1l-0.1-0.4
			L452.4,86l-0.1-0.4l-0.4,0.1L434.5,92.1z M441.1,110.3l-0.4,0.1l0.1,0.4l0.8,2.2l0.1,0.4l0.4-0.1l15.1-5.5l1.6,4.3l0.1,0.4
			l0.4-0.1l1.9-0.7l0.4-0.1l-0.1-0.4l-4.2-11.5l-0.1-0.4l-0.4,0.1l-1.9,0.7l-0.4,0.1l0.1,0.4l1.6,4.3l-7.3,2.7L441.1,110.3z
			 M444.6,120l-0.4,0.1l0.1,0.4l0.8,2.2l0.1,0.4l0.4-0.1l7.6-2.8l2.6,7.2l-7.6,2.8l-0.4,0.1l0.1,0.4l0.8,2.2l0.1,0.4l0.4-0.1
			l17.3-6.3l0.4-0.1l-0.1-0.4l-0.8-2.2l-0.1-0.4l-0.4,0.1l-7.1,2.6l-2.6-7.2l7.1-2.6l0.4-0.1l-0.1-0.4l-0.8-2.2l-0.1-0.4l-0.4,0.1
			L444.6,120z"/>
		<path id="XMLID_371_" d="M461.5,135l6.1-2.2l1.2,3.2c1,2.6,0.3,4.3-1.6,5c-2.1,0.8-3.5-0.2-4.6-3.1L461.5,135z M452.8,138.2
			l6.7-2.4l1.6,4.3c1,2.7,0.2,4.6-1.8,5.3c-2.2,0.8-3.9-0.2-5-3.3L452.8,138.2z M449.8,136.6l2.5,6.9c1.5,4.1,4.3,5.7,7.6,4.5
			c2.6-1,3.6-3.1,3.4-5.3c1,0.9,2.7,1.6,4.7,0.9c3.4-1.2,4.1-4.3,2.5-8.5l-1.9-5.3L449.8,136.6z M464,152.5c2.3-0.7,4.7-0.1,5.4,2
			c0.8,2.3-0.8,4.1-2.9,5L464,152.5z M457.6,159.1c1.1,3,3.4,4.2,5.6,4.1l-0.8-2.3c-1.3-0.1-2.4-1-2.9-2.4c-0.8-2.3,0.7-4.2,2.9-5.2
			l3.4,9.3c0.3-0.1,0.6-0.2,0.8-0.3c3.7-1.4,6.1-4.6,4.7-8.3c-1.3-3.7-5.2-4.8-9-3.4C458.5,151.9,456.2,155.3,457.6,159.1z
			 M461.3,168l0.8,2.2l7.9-2.9l4.9,3.5l2.4-0.9l-5.2-3.7l2.9-1.1l-0.7-2L461.3,168z M465.7,180.1l0.9,2.4l4.9-4.6l13.1-4.8l-0.8-2.2
			l-13.6,4.9L465.7,180.1z M484,178.6c-0.8,0.3-1.3,1.3-0.9,2.1c0.3,0.8,1.2,1.3,2.1,1c0.8-0.3,1.3-1.3,1-2.1
			C485.7,178.7,484.8,178.3,484,178.6z M467.5,185.1l0.8,2.2l13-4.7l-0.8-2.2L467.5,185.1z M469.8,191.4l0.8,2.2l6.7-2.4
			c2-0.7,5.2-0.7,6.1,1.8c1,2.9-1.9,4.1-3.8,4.8l-6.6,2.4l0.8,2.2l6.6-2.4c3.9-1.4,6.5-3.2,5.1-7.2c-1.1-3-4.1-3.1-4.8-3.1l2.8-1
			l-0.7-2L469.8,191.4z"/>
		<path id="XMLID_364_" d="M447.8,137.4l-8.4,3.1l0.6,1.5l6.2-2.3l-3.2,10.1l0.6,1.5l7.9-2.9l-0.6-1.5l-5.7,2.1l3.2-10.1
			L447.8,137.4z M434.6,142.2l-1.9,0.7l0.6,9.4l-5.6-7.6l-1.9,0.7l0.4,12.3l1.9-0.7l-0.6-9.7l5.7,7.9l1.7-0.6l-0.6-9.7l5.8,7.9
			l2-0.7L434.6,142.2z M421.3,154.1c0.6,1.9,0.1,3.9-1.7,4.6c-1.9,0.7-3.5-0.7-4.2-2.4L421.3,154.1z M415.8,148.7
			c-2.5,0.9-3.5,2.8-3.4,4.7l1.9-0.7c0.1-1.1,0.8-2,2.1-2.4c1.9-0.7,3.6,0.6,4.4,2.5l-7.9,2.9c0.1,0.2,0.1,0.5,0.2,0.7
			c1.1,3.1,3.9,5.1,7,4c3.1-1.1,4-4.4,2.9-7.6C421.8,149.4,418.9,147.6,415.8,148.7z M413.7,165.7c-0.3-0.7-1.1-1.1-1.8-0.8
			c-0.7,0.3-1.1,1-0.8,1.8c0.2,0.7,1.1,1.1,1.8,0.8C413.5,167.2,413.9,166.4,413.7,165.7z M408.2,151.8l-1.9,0.7l4,11l1.9-0.7
			L408.2,151.8z"/>
		<path id="XMLID_363_" class="st4" d="M436,73.6l-1.4,6.9l-4.6,1.7L436,73.6z"/>
		<path id="XMLID_362_" class="st2" d="M441.3,84.7l7.5-9.5l-13.2,4.8L441.3,84.7z"/>
		<path id="XMLID_361_" class="st5" d="M438.8,73.3l-1.2,6.3"/>
		<path id="XMLID_360_" class="st5" d="M436.9,72.9l-1.2,7.1"/>
		<path id="XMLID_359_" class="st5" d="M440.7,73.7l-1.3,6"/>
		<path id="XMLID_358_" class="st5" d="M442.6,74.1l-1.3,6"/>
		<path id="XMLID_357_" class="st5" d="M444.3,74.5l-1.9,8.4"/>
		<path id="XMLID_356_" class="st5" d="M446,74.7l-1,4.8"/>
		<path id="XMLID_355_" class="st5" d="M447.6,75.2l-0.3,1.6"/>
		<path id="XMLID_354_" d="M440.1,84.9l-5.6-4.4l-4.6,1.7L440.1,84.9z"/>
		<path id="XMLID_353_" class="st5" d="M448.7,75.3L436.9,73"/>
	</g>
	<g id="XMLID_387_">
		<circle id="XMLID_421_" class="st2" cx="249.8" cy="742.5" r="38"/>
		<path id="XMLID_417_" class="st3" d="M198.2,630.6l-0.5,0.2l0.2,0.5l4.7,12.8l0.2,0.5l0.5-0.2l2.2-0.8l0.5-0.2l-0.2-0.5l-3.6-9.8
			l6.4-2.3l2.7,7.4l0.2,0.5l0.5-0.2l2.2-0.8l0.5-0.2l-0.2-0.5l-2.7-7.4l5.7-2.1l3.5,9.5l0.2,0.5l0.5-0.2l2.2-0.8l0.5-0.2l-0.2-0.5
			l-4.6-12.5l-0.2-0.5l-0.5,0.2L198.2,630.6z M206,652.3l-0.5,0.2l0.2,0.5l0.9,2.6l0.2,0.5l0.5-0.2l18-6.5l1.9,5.1l0.2,0.5l0.5-0.2
			l2.2-0.8l0.5-0.2l-0.2-0.5l-5-13.7l-0.2-0.5l-0.5,0.2l-2.2,0.8l-0.5,0.2l0.2,0.5l1.9,5.1l-8.8,3.2L206,652.3z M210.2,663.8
			l-0.5,0.2l0.2,0.5l0.9,2.6l0.2,0.5l0.5-0.2l9.1-3.3l3.1,8.6l-9.1,3.3l-0.5,0.2l0.2,0.5l0.9,2.6l0.2,0.5l0.5-0.2l20.7-7.5l0.5-0.2
			l-0.2-0.5l-0.9-2.6l-0.2-0.5l-0.5,0.2l-8.4,3.1l-3.1-8.6l8.4-3.1l0.5-0.2l-0.2-0.5l-0.9-2.6l-0.2-0.5l-0.5,0.2L210.2,663.8z"/>
		<path id="XMLID_406_" d="M230.3,681.8l7.3-2.6l1.4,3.9c1.1,3.2,0.4,5.1-1.9,6c-2.5,0.9-4.2-0.3-5.5-3.7L230.3,681.8z M219.9,685.6
			l8-2.9l1.9,5.1c1.2,3.3,0.2,5.5-2.2,6.4c-2.7,1-4.6-0.3-6-3.9L219.9,685.6z M216.4,683.6l3,8.3c1.8,4.9,5.1,6.7,9.1,5.3
			c3.2-1.1,4.2-3.7,4.1-6.4c1.2,1,3.2,1.9,5.6,1c4.1-1.5,4.8-5.2,3-10.1l-2.3-6.3L216.4,683.6z M233.3,702.7
			c2.7-0.8,5.6-0.2,6.5,2.4c1,2.7-1,4.9-3.4,6L233.3,702.7z M225.7,710.4c1.3,3.5,4,5,6.7,4.8l-1-2.7c-1.6-0.1-2.8-1.2-3.5-2.9
			c-1-2.7,0.8-5,3.5-6.3l4.1,11.1c0.3-0.1,0.7-0.2,1-0.3c4.4-1.6,7.3-5.5,5.7-9.9c-1.6-4.4-6.2-5.7-10.8-4.1
			C226.7,701.9,224,706,225.7,710.4z M230.1,721.1l1,2.7l9.5-3.4l5.9,4.1l2.8-1l-6.2-4.4l3.5-1.3l-0.9-2.3L230.1,721.1z
			 M235.3,735.5l1,2.9l5.8-5.5l15.6-5.7l-1-2.7l-16.2,5.9L235.3,735.5z M257.1,733.7c-1,0.4-1.5,1.5-1.1,2.5c0.4,1,1.5,1.5,2.5,1.2
			c1-0.4,1.5-1.5,1.1-2.5C259.2,733.9,258.1,733.3,257.1,733.7z M237.5,741.4l1,2.7l15.5-5.6l-1-2.7L237.5,741.4z M240.2,749l1,2.7
			l8-2.9c2.3-0.9,6.2-0.8,7.3,2.2c1.2,3.4-2.3,4.9-4.6,5.7l-7.9,2.9l1,2.7l7.9-2.9c4.6-1.7,7.8-3.8,6.1-8.6
			c-1.3-3.6-4.9-3.7-5.7-3.7l3.4-1.2l-0.9-2.3L240.2,749z"/>
		<path id="XMLID_399_" d="M214,684.6l-10.1,3.7l0.7,1.8l7.4-2.7l-3.8,12l0.7,1.8l9.4-3.4l-0.7-1.8l-6.8,2.5l3.8-12L214,684.6z
			 M198.2,690.4l-2.3,0.8l0.7,11.2l-6.6-9.1l-2.3,0.8l0.5,14.6l2.3-0.8l-0.7-11.6l6.8,9.4l2.1-0.8l-0.7-11.6l6.9,9.4l2.3-0.9
			L198.2,690.4z M182.4,704.5c0.7,2.3,0.1,4.7-2,5.5c-2.3,0.8-4.2-0.8-5-2.9L182.4,704.5z M175.8,698.1c-3,1.1-4.2,3.4-4.1,5.6
			l2.3-0.8c0.1-1.3,1-2.4,2.5-2.9c2.3-0.8,4.2,0.7,5.3,2.9l-9.4,3.4c0.1,0.3,0.2,0.6,0.3,0.8c1.4,3.7,4.6,6.1,8.4,4.8
			c3.7-1.4,4.8-5.2,3.4-9.1C183,699,179.6,696.7,175.8,698.1z M173.3,718.4c-0.3-0.8-1.3-1.3-2.1-1c-0.8,0.3-1.3,1.2-1,2.1
			c0.3,0.8,1.3,1.3,2.1,1C173.2,720.1,173.6,719.2,173.3,718.4z M166.8,701.8l-2.2,0.8l4.8,13.1l2.2-0.8L166.8,701.8z"/>
		<path id="XMLID_398_" class="st4" d="M200,608.5l-1.7,8.3l-5.5,2L200,608.5z"/>
		<path id="XMLID_397_" class="st2" d="M206.3,621.9l9-11.3l-15.7,5.7L206.3,621.9z"/>
		<path id="XMLID_396_" class="st5" d="M203.3,608.2l-1.4,7.5"/>
		<path id="XMLID_395_" class="st5" d="M201,607.8l-1.4,8.5"/>
		<path id="XMLID_394_" class="st5" d="M205.5,608.7l-1.6,7.2"/>
		<path id="XMLID_393_" class="st5" d="M207.8,609.1l-1.6,7.2"/>
		<path id="XMLID_392_" class="st5" d="M209.9,609.6l-2.3,10"/>
		<path id="XMLID_391_" class="st5" d="M211.9,609.9l-1.2,5.7"/>
		<path id="XMLID_390_" class="st5" d="M213.8,610.4l-0.4,1.9"/>
		<path id="XMLID_389_" d="M204.9,622l-6.6-5.2l-5.5,2L204.9,622z"/>
		<path id="XMLID_388_" class="st5" d="M215.1,610.6l-14.2-2.8"/>
	</g>
</g>
</svg>
