<?xml version="1.0" encoding="UTF-8"?>
<svg id="Layer_2" data-name="Layer 2" xmlns="http://www.w3.org/2000/svg" viewBox="0 0 1500 500">
  <g>
    <g>
      <path d="m1027.62,185.39v-3.17h2.43c3.67,0,5.92-.31,6.77-.92.84-.61,1.26-1.91,1.26-3.89v-53.44c0-1.95-.43-3.23-1.29-3.84-.86-.61-3.11-.92-6.74-.92h-2.43v-3.17h35.83c6.84,0,12.54,1.88,17.1,5.65,4.56,3.77,6.84,8.18,6.84,13.23s-2.32,9.29-6.96,12.89c-4.64,3.6-10.04,5.4-16.18,5.4h-17.15v24.18c0,1.95.42,3.24,1.26,3.87s3.1.94,6.77.94h2.43v3.17c-2.38-.2-7.38-.3-15.02-.3s-12.54.1-14.92.3Zm19.18-34.69h13.98c3.04,0,5.67-.43,7.88-1.29,2.21-.86,3.82-1.81,4.83-2.85,1.01-1.04,1.8-2.41,2.38-4.11.58-1.7.9-3.02.97-3.96.07-.94.1-2.12.1-3.54s-.03-2.7-.1-3.64c-.07-.94-.39-2.26-.97-3.96-.58-1.7-1.37-3.07-2.38-4.11-1.01-1.04-2.61-1.97-4.81-2.78-2.2-.81-4.83-1.21-7.91-1.21h-9.02c-2.31,0-3.72.23-4.21.69-.5.46-.74,1.59-.74,3.37v27.41Z"/>
      <path d="m1095.87,185.39v-3.17c3.6,0,5.82-.22,6.67-.67.84-.45,1.26-1.76,1.26-3.93v-27.17c0-2.51-.44-4.07-1.31-4.7-.88-.63-3.08-.94-6.62-.94v-3.17l14.13-1.09v11.14c.96-2.9,2.45-5.49,4.49-7.75,2.03-2.26,4.7-3.39,8-3.39,2.18,0,3.97.61,5.38,1.83,1.4,1.22,2.11,2.68,2.11,4.36,0,1.49-.45,2.6-1.36,3.35-.91.74-1.91,1.12-3,1.12-1.22,0-2.26-.39-3.1-1.16-.84-.78-1.26-1.84-1.26-3.2,0-.83.19-1.56.57-2.21.38-.64.72-1.08,1.02-1.31s.55-.38.74-.45c-.13-.07-.5-.1-1.09-.1-3.73,0-6.67,1.86-8.8,5.57-2.13,3.71-3.2,8.21-3.2,13.49v15.59c0,1.95.4,3.23,1.21,3.86.81.63,2.98.94,6.52.94h2.13v3.17c-2.71-.2-7.01-.3-12.89-.3-.83,0-1.88.02-3.17.05-1.29.03-2.78.08-4.46.15-1.69.07-3.01.1-3.96.1Z"/>
      <path d="m1142.23,179.93c-4.48-4.4-6.72-9.83-6.72-16.27s2.19-12.01,6.57-16.71c4.38-4.7,9.71-7.05,15.98-7.05s11.42,2.34,15.84,7.01c4.41,4.68,6.62,10.27,6.62,16.78s-2.22,11.78-6.67,16.21c-4.44,4.43-9.74,6.64-15.88,6.64s-11.26-2.2-15.74-6.6Zm1.71-17.09c0,6.59.86,11.38,2.58,14.36,2.64,4.54,6.49,6.81,11.55,6.81,2.51,0,4.82-.68,6.91-2.04,2.1-1.36,3.72-3.18,4.88-5.46,1.49-2.98,2.23-7.53,2.23-13.66,0-6.52-.89-11.23-2.68-14.11-2.64-4.41-6.46-6.61-11.45-6.61-2.18,0-4.34.57-6.47,1.71-2.13,1.14-3.84,2.84-5.13,5.09-1.62,2.98-2.43,7.62-2.43,13.91Z"/>
      <path d="m1185.38,144.8v-2.23c3.11-.13,5.69-1.3,7.76-3.49,2.06-2.2,3.45-4.65,4.16-7.36.71-2.71,1.1-5.63,1.16-8.77h2.53v18.69h14.52v3.17h-14.52v28.24c0,7.31,2.28,10.97,6.84,10.97,1.95,0,3.57-1,4.86-3,1.29-2,1.93-4.79,1.93-8.36v-5.61h2.53v5.79c0,3.66-.84,6.86-2.53,9.6-1.69,2.74-4.2,4.11-7.53,4.11-1.22,0-2.44-.16-3.64-.47-1.21-.31-2.59-.88-4.16-1.69-1.57-.81-2.84-2.21-3.82-4.21-.97-2-1.46-4.45-1.46-7.36v-28h-8.62Z"/>
      <path d="m1232.34,179.93c-4.48-4.4-6.72-9.83-6.72-16.27s2.19-12.01,6.57-16.71c4.38-4.7,9.71-7.05,15.98-7.05s11.42,2.34,15.84,7.01c4.41,4.68,6.62,10.27,6.62,16.78s-2.22,11.78-6.67,16.21c-4.44,4.43-9.74,6.64-15.88,6.64s-11.26-2.2-15.74-6.6Zm1.71-17.09c0,6.59.86,11.38,2.58,14.36,2.64,4.54,6.49,6.81,11.55,6.81,2.51,0,4.82-.68,6.91-2.04,2.1-1.36,3.72-3.18,4.88-5.46,1.49-2.98,2.23-7.53,2.23-13.66,0-6.52-.89-11.23-2.68-14.11-2.64-4.41-6.46-6.61-11.45-6.61-2.18,0-4.34.57-6.47,1.71-2.13,1.14-3.84,2.84-5.13,5.09-1.62,2.98-2.43,7.62-2.43,13.91Z"/>
      <path d="m1286.29,179.83c-4.3-4.47-6.44-9.92-6.44-16.37s2.11-11.98,6.34-16.61c4.23-4.64,9.45-6.95,15.66-6.95,4.05,0,7.6.98,10.65,2.95,3.05,1.97,4.57,4.62,4.57,7.95,0,1.49-.42,2.65-1.26,3.49-.84.84-1.91,1.26-3.22,1.26-1.38,0-2.49-.44-3.31-1.32-.82-.88-1.23-2-1.23-3.36,0-.6.1-1.19.29-1.79.19-.6.65-1.21,1.38-1.84.72-.63,1.71-1,2.97-1.09-2.39-2.49-5.9-3.73-10.54-3.73h-.2c-3.44,0-6.58,1.62-9.42,4.87-2.84,3.25-4.26,8.58-4.26,16,0,3.88.47,7.23,1.41,10.06.94,2.83,2.19,4.98,3.74,6.43,1.55,1.46,3.09,2.53,4.61,3.2,1.52.68,3.02,1.02,4.51,1.02,6.54,0,10.92-3.57,13.13-10.7.18-.66.59-.99,1.2-.99.88,0,1.33.33,1.33.99,0,.33-.13.93-.39,1.78-.26.86-.8,1.97-1.61,3.32-.81,1.36-1.79,2.62-2.95,3.79-1.15,1.17-2.74,2.19-4.77,3.05-2.03.86-4.31,1.29-6.84,1.29-5.95,0-11.07-2.23-15.36-6.7Z"/>
      <path d="m1330.97,179.93c-4.48-4.4-6.72-9.83-6.72-16.27s2.19-12.01,6.57-16.71c4.38-4.7,9.71-7.05,15.98-7.05s11.42,2.34,15.83,7.01c4.41,4.68,6.62,10.27,6.62,16.78s-2.22,11.78-6.67,16.21c-4.44,4.43-9.74,6.64-15.88,6.64s-11.26-2.2-15.74-6.6Zm1.71-17.09c0,6.59.86,11.38,2.58,14.36,2.64,4.54,6.49,6.81,11.55,6.81,2.51,0,4.82-.68,6.91-2.04,2.1-1.36,3.72-3.18,4.88-5.46,1.49-2.98,2.23-7.53,2.23-13.66,0-6.52-.89-11.23-2.68-14.11-2.64-4.41-6.46-6.61-11.45-6.61-2.18,0-4.34.57-6.47,1.71-2.13,1.14-3.84,2.84-5.13,5.09-1.62,2.98-2.43,7.62-2.43,13.91Z"/>
      <path d="m1375.55,185.39v-3.17c3.6,0,5.82-.22,6.64-.67.83-.45,1.24-1.76,1.24-3.94v-52.74c0-2.51-.44-4.08-1.31-4.7-.88-.63-3.07-.94-6.57-.94v-3.17l14.57-1.09v62.65c0,2.18.43,3.49,1.29,3.94.86.45,3.07.67,6.64.67v3.17c-.83,0-2.1-.03-3.82-.1-1.72-.07-3.21-.12-4.46-.15-1.26-.03-2.25-.05-2.97-.05-.79,0-4.54.1-11.25.3Z"/>
    </g>
    <path d="m1141.91,270.75v-3.3h1.3c4.05,0,6.68-.27,7.87-.81,1.19-.54,1.79-1.79,1.79-3.75v-57.58c0-2.06-.61-3.35-1.82-3.86-1.21-.51-3.79-.76-7.74-.76h-1.4v-3.3h37.18c5.79,0,10.58.98,14.37,2.93,3.24,1.71,5.83,3.9,7.78,6.57,1.95,2.67,2.92,5.51,2.92,8.51,0,1.23-.18,2.49-.55,3.78-.37,1.3-1.1,2.85-2.2,4.68-1.1,1.82-2.91,3.5-5.43,5.04-2.52,1.54-5.63,2.71-9.33,3.52,5.94.42,10.99,2.42,15.15,6.01,4.16,3.58,6.24,7.81,6.24,12.67s-1.94,9.13-5.82,12.82c-3.88,3.69-8.66,5.9-14.36,6.63-1.22.14-3.06.21-5.5.21h-40.46Zm19.98-39.44h15.13c3.28,0,6.15-.55,8.61-1.65,2.46-1.1,4.3-2.51,5.52-4.23,1.22-1.72,2.1-3.41,2.64-5.07.54-1.66.81-3.28.81-4.86,0-1.37-.22-2.8-.65-4.31-.44-1.51-1.13-3.1-2.09-4.78-.96-1.68-2.5-3.05-4.61-4.12-2.11-1.07-4.6-1.6-7.46-1.6h-12.46c-2.06,0-3.48.23-4.27.68-.79.46-1.18,1.54-1.18,3.26v26.69Zm0,31.94c0,1.78.32,2.93.97,3.44.65.51,2.21.76,4.69.76h12.67c5.52,0,9.74-1.67,12.67-5.01,2.93-3.34,4.4-7.16,4.4-11.46s-1.31-8.16-3.93-11.77c-2.62-3.62-6.53-5.43-11.73-5.43h-19.74v29.47Z"/>
    <path d="m1213.93,252.67v-2.44h1.04c3.02,0,4.96-.2,5.82-.6.86-.4,1.3-1.32,1.3-2.76v-42.26c0-1.47-.45-2.4-1.35-2.8-.9-.4-2.82-.6-5.77-.6h-1.04v-2.44h44.61l2.21,17.84-1.97-2.4c-.3-1.62-.53-2.85-.69-3.7-.16-.85-.63-2.06-1.43-3.64-.79-1.57-1.8-2.75-3.03-3.55-2.19-1.41-6.3-2.11-12.34-2.11h-6.56c-2.45,0-3.98.13-4.59.39-.61.26-.94,1.08-1,2.48v19.38h6.35c3.97,0,6.53-.58,7.66-1.75,1.13-1.17,1.7-3.65,1.7-7.46h1.97v20.93h-1.97c0-3.88-.59-6.4-1.76-7.56-1.17-1.15-3.73-1.73-7.68-1.73h-6.27v21.32c0,1.42.3,2.28.91,2.57s2.24.45,4.89.45h7.35c2.06,0,3.74-.06,5.03-.17s2.76-.45,4.43-1.01,3.05-1.36,4.16-2.42c1-1.01,1.89-2.48,2.67-4.43s1.26-3.48,1.46-4.6.52-2.9.96-5.36l1.97.16-3.3,20.27h-45.72Z"/>
    <path d="m1263.85,267.92v-3.11h1.33c3.79,0,6.23-.26,7.33-.77,1.1-.51,1.69-1.69,1.75-3.53v-54.32c0-1.81-.56-2.97-1.68-3.48-1.12-.51-3.59-.77-7.41-.77h-1.33v-3.11h29.83c6.95,0,12.61,1.09,16.99,3.26,3.59,1.74,6.4,3.93,8.42,6.56,2.02,2.63,3.04,5.43,3.04,8.38,0,3.17-1.19,6.1-3.56,8.8-2.37,2.7-5.61,4.83-9.73,6.38-.53.2-2.01.64-4.45,1.34,2.96.96,5.38,2.19,7.24,3.7,1.86,1.51,3.19,3.31,4,5.38.81,2.07,1.38,4.07,1.73,6,.35,1.93.7,4.26,1.06,6.99.36,2.73.82,5.01,1.38,6.82,1.09,3.59,2.9,5.38,5.43,5.38,1.42,0,2.63-.49,3.65-1.46,1.02-.97,1.7-2.02,2.02-3.14.33-1.12.63-2.26.89-3.41l.3-1.63c.21-.46.62-.69,1.23-.69.86,0,1.29.53,1.29,1.58,0,.89-.14,1.88-.4,2.96-.27,1.09-.73,2.27-1.39,3.56s-1.69,2.36-3.1,3.24c-1.41.87-3.07,1.31-4.99,1.31s-3.81-.24-5.61-.72c-1.79-.48-3.57-1.23-5.33-2.27-1.76-1.04-3.18-2.6-4.25-4.69-1.07-2.09-1.61-4.58-1.61-7.48v-7.21c0-3.49-1.05-6.57-3.14-9.24-2.09-2.67-5.64-4-10.64-4h-11.21v25.68c0,2.01.58,3.28,1.73,3.8,1.15.53,3.72.79,7.7.79h.99v3.11c-5.01-.2-9.93-.3-14.77-.3s-9.76.1-14.77.3Zm19.11-35.71h9.43c2.96,0,5.49-.18,7.58-.54,2.09-.36,4.07-1.07,5.95-2.13,1.88-1.06,3.31-2.6,4.3-4.63s1.48-4.59,1.48-7.69c0-5.01-1.32-8.81-3.95-11.4-2.63-2.59-7.19-3.88-13.68-3.88h-4.45c-2.96,0-4.82.18-5.56.54-.74.36-1.11,1.47-1.11,3.31v26.42Z"/>
    <path d="m1331.95,252.74c0-10.8,3.66-19.85,10.99-27.16,7.33-7.31,15.84-10.96,25.55-10.96,7.39,0,13.82,2.98,19.27,8.95,3.92-5.56,6.03-8.44,6.34-8.64.14-.14.32-.2.56-.2.78,0,1.16.77,1.12,2.3v25.33c0,1.46-.48,2.2-1.43,2.2-.68,0-1.13-.2-1.35-.59-.22-.39-.4-1.07-.54-2.02-.92-6.48-3.4-12.12-7.44-16.91-4.04-4.79-9.21-7.19-15.51-7.19-2.08,0-4.2.27-6.36.82-2.16.55-4.51,1.63-7.03,3.25-2.52,1.62-4.74,3.65-6.64,6.09-1.91,2.44-3.51,5.81-4.8,10.11-1.3,4.3-1.94,9.18-1.94,14.63s.61,9.94,1.84,14.08c1.23,4.14,2.78,7.46,4.65,9.97,1.87,2.5,4.07,4.6,6.59,6.29,2.52,1.69,4.95,2.85,7.28,3.48,2.33.63,4.69.95,7.08.95,3.78,0,7.27-.88,10.48-2.63,3.2-1.75,5.08-4.17,5.62-7.23.14-.68.2-1.75.2-3.22v-6.18c0-2.25-.61-3.65-1.84-4.22s-4.48-.84-9.76-.84h-1.38v-3.22l16.46.2h4.91l8.28-.2v3.22h-.36c-2.93,0-4.83.25-5.7.74-.87.49-1.3,1.71-1.3,3.65v18.35c0,1.53-.31,2.3-.92,2.3-.34,0-.97-.36-1.89-1.07-1.94-1.6-3.51-3.41-4.7-5.42h-.1c-1.67,2.93-4.28,5.16-7.84,6.69-3.56,1.53-7.47,2.3-11.73,2.3-9.85,0-18.42-3.65-25.71-10.94-7.29-7.29-10.94-16.31-10.94-27.04Z"/>
  </g>
  <g>
    <path d="m605.51,313.79l2.09-6.33c.13-.34.39-.51.78-.51h16.81c.26,0,.45.03.55.08.11.05.16.18.16.38,0,.06-.06.44-.18,1.14-.12.7-.27,1.57-.44,2.62s-.3,1.84-.39,2.38c-.04.29-.11.46-.19.52-.08.09-.22.13-.4.13-.29,0-.42-.17-.41-.53,0-.13.06-.57.17-1.31s.17-1.4.17-1.97c0-.41-.03-.75-.1-1-.06-.25-.2-.51-.42-.77-.22-.26-.56-.46-1.04-.57-.48-.12-1.1-.17-1.89-.17h-1.46c-.67,0-1.08.08-1.24.25-.16.16-.36.69-.58,1.58l-4.21,16.89c-.06.24-.1.42-.1.54,0,.31.17.5.52.59.34.08,1.07.14,2.18.17h.52c.48,0,.71.15.71.45,0,.38-.22.56-.65.56-.08,0-.34-.01-.78-.03s-1.03-.04-1.79-.05c-.76-.01-1.57-.02-2.44-.02-1.15,0-2.27.01-3.34.03l-1.62.06c-.43,0-.65-.14-.65-.43.02-.39.27-.58.74-.58h.52c1.4-.02,2.31-.11,2.71-.28.4-.16.69-.59.86-1.29l4.15-16.58c.19-.72.29-1.19.3-1.43,0-.19-.09-.31-.26-.36s-.53-.07-1.07-.07h-1.14c-.99,0-1.81.1-2.46.29-.65.2-1.19.55-1.61,1.07-.42.52-.75,1.02-.97,1.51-.23.49-.52,1.23-.86,2.23-.04.13-.07.23-.09.3,0,.02-.02.07-.05.16s-.05.14-.06.17c-.01.03-.03.08-.06.15s-.06.12-.08.15c-.02.03-.05.07-.08.11s-.07.07-.12.1-.09.04-.13.05c-.04.01-.1.02-.16.02-.29.01-.43-.13-.43-.41Z"/>
    <path d="m625.44,328.4c0-.13.12-.69.35-1.68l4.32-17.38c.13-.5.19-.87.19-1.1,0-.35-.19-.54-.57-.57-.38-.03-.77-.05-1.16-.06s-.59-.14-.59-.39c0-.23.16-.38.48-.45s.94-.14,1.87-.21c.54-.04.98-.07,1.33-.09.31-.04.52-.06.65-.06.35,0,.52.14.52.41,0,.13-.14.76-.43,1.9s-.64,2.55-1.08,4.22c-.43,1.67-.74,2.95-.94,3.81,1.32-1.45,2.76-2.17,4.32-2.17h.03c.91,0,1.71.26,2.39.78.68.52,1.02,1.38,1.02,2.6,0,1.08-.42,2.84-1.27,5.29s-1.27,3.91-1.27,4.39c0,.6.24.9.73.9,1.21,0,2.18-1.26,2.88-3.79.08-.35.2-.58.36-.68.15-.11.32-.13.49-.06.17.06.26.19.26.38,0,.13-.08.43-.25.91-.16.48-.4,1.02-.7,1.64-.3.61-.74,1.16-1.31,1.64s-1.2.72-1.86.72c-.72,0-1.31-.24-1.77-.73-.46-.49-.69-1.11-.69-1.85,0-.43.4-1.8,1.2-4.11.8-2.31,1.2-4.02,1.2-5.16,0-1.41-.51-2.11-1.52-2.11-.7,0-1.36.19-1.98.57-.62.38-1.14.86-1.56,1.43s-.73,1.05-.94,1.43c-.22.38-.38.7-.48.95l-1.98,7.9c-.26,1.11-.73,1.67-1.4,1.68-.24,0-.45-.08-.62-.24-.17-.16-.25-.37-.25-.63Z"/>
    <path d="m643.23,323.51c0-2.62.86-4.76,2.57-6.44,1.71-1.67,3.54-2.51,5.47-2.51.93,0,1.71.25,2.32.76.62.51.93,1.17.93,2,0,.29-.04.57-.13.86-.08.29-.24.64-.47,1.04s-.63.77-1.22,1.12c-.59.34-1.3.6-2.15.77-1.12.21-2.65.32-4.57.33-.37,1.6-.56,2.77-.56,3.49,0,.97.2,1.81.6,2.52.4.71,1.04,1.07,1.9,1.07s1.85-.25,2.89-.74c1.04-.5,1.94-1.2,2.7-2.1.33-.41.58-.62.75-.62.11,0,.21.04.3.13.1.09.14.2.14.32,0,.29-.28.71-.84,1.27-.56.56-1.4,1.11-2.51,1.66-1.11.54-2.27.82-3.46.82-1.4,0-2.54-.53-3.39-1.58s-1.28-2.44-1.28-4.18Zm2.95-2.82c4.76,0,7.14-1.13,7.14-3.39,0-.59-.19-1.07-.56-1.44-.38-.37-.87-.55-1.48-.55-.33,0-.69.07-1.09.21s-.85.38-1.37.71c-.52.33-1.02.89-1.49,1.67-.48.78-.86,1.71-1.14,2.79Z"/>
    <path d="m669.58,324.24c0-2.38.79-4.59,2.37-6.62,1.58-2.04,3.27-3.05,5.06-3.05,1.23,0,2.14.64,2.71,1.91.19-.76.46-1.8.79-3.13.34-1.33.62-2.45.85-3.36s.34-1.44.34-1.61c0-.38-.39-.58-1.16-.59-.78,0-1.16-.17-1.16-.48,0-.35.33-.56,1-.62,2.21-.19,3.32-.29,3.34-.29.35,0,.52.14.52.43,0,.16-.09.37-.27.63l-4.33,17.17c-.2,1.21-.3,2.08-.29,2.6,0,.87.27,1.3.82,1.3h.02c.33,0,.63-.18.91-.55.28-.36.48-.73.61-1.1.13-.37.27-.85.44-1.44.16-.59.26-.94.28-1.03.08-.31.26-.46.55-.44.3,0,.45.14.45.41,0,.11-.02.25-.06.43-.37,1.42-.78,2.52-1.25,3.3-.46.78-1.14,1.17-2.02,1.17-.6,0-1.15-.18-1.64-.55s-.82-.94-.99-1.72c-1.36,1.5-2.67,2.26-3.93,2.27-1.17,0-2.13-.47-2.86-1.42-.73-.94-1.1-2.15-1.1-3.61Zm2.2,1.43c0,.74.14,1.4.43,1.98.28.58.75.87,1.39.87.74,0,1.5-.38,2.27-1.12.78-.75,1.31-1.42,1.59-2,.03-.11.32-1.28.89-3.5.56-2.22.85-3.44.85-3.66,0-.51-.18-1.13-.54-1.85s-.92-1.08-1.68-1.08c-.94,0-1.86.66-2.74,1.98-.69.99-1.27,2.43-1.75,4.3-.47,1.87-.71,3.23-.71,4.08Z"/>
    <path d="m686.34,323.51c0-2.62.86-4.76,2.57-6.44,1.71-1.67,3.54-2.51,5.47-2.51.93,0,1.71.25,2.32.76.62.51.93,1.17.93,2,0,.29-.04.57-.13.86-.08.29-.24.64-.47,1.04s-.63.77-1.22,1.12c-.59.34-1.3.6-2.15.77-1.12.21-2.65.32-4.57.33-.37,1.6-.56,2.77-.56,3.49,0,.97.2,1.81.6,2.52.4.71,1.04,1.07,1.9,1.07s1.85-.25,2.89-.74c1.04-.5,1.94-1.2,2.7-2.1.33-.41.58-.62.75-.62.11,0,.21.04.3.13.1.09.14.2.14.32,0,.29-.28.71-.84,1.27-.56.56-1.4,1.11-2.51,1.66-1.11.54-2.27.82-3.46.82-1.4,0-2.54-.53-3.39-1.58s-1.28-2.44-1.28-4.18Zm2.95-2.82c4.76,0,7.14-1.13,7.14-3.39,0-.59-.19-1.07-.56-1.44-.38-.37-.87-.55-1.48-.55-.33,0-.69.07-1.09.21s-.85.38-1.37.71c-.52.33-1.02.89-1.49,1.67-.48.78-.86,1.71-1.14,2.79Z"/>
    <path d="m699.46,323.96c0-2.38.87-4.54,2.61-6.48,1.74-1.94,3.62-2.91,5.62-2.91.98,0,1.8.26,2.45.78s.98,1.19.98,2.01c0,.67-.17,1.16-.51,1.47-.34.32-.72.48-1.12.48-.3,0-.55-.1-.76-.29s-.3-.45-.3-.75c0-.17.03-.35.1-.55.07-.2.23-.41.48-.63.25-.23.59-.36,1.02-.4-.43-.91-1.2-1.36-2.32-1.36-.35,0-.72.08-1.12.23s-.87.42-1.41.81c-.54.39-1.07,1.03-1.58,1.94-.51.91-.93,2.01-1.28,3.32-.38,1.39-.57,2.55-.57,3.49s.21,1.8.63,2.45c.42.65,1.06.98,1.93.98.78,0,1.54-.14,2.28-.42s1.39-.66,1.94-1.13c.55-.48.94-.82,1.15-1.04s.43-.47.64-.75l.03-.03c.15-.11.3-.1.46.02.16.12.24.26.24.41,0,.26-.27.67-.82,1.23-.55.56-1.38,1.11-2.49,1.65-1.12.54-2.28.81-3.48.81-1.43,0-2.58-.5-3.47-1.49s-1.33-2.27-1.33-3.82Z"/>
    <path d="m712.89,323.51c0-2.62.86-4.76,2.57-6.44,1.71-1.67,3.54-2.51,5.47-2.51.93,0,1.71.25,2.32.76.62.51.93,1.17.93,2,0,.29-.04.57-.13.86-.08.29-.24.64-.47,1.04s-.63.77-1.22,1.12c-.59.34-1.3.6-2.15.77-1.12.21-2.65.32-4.57.33-.37,1.6-.56,2.77-.56,3.49,0,.97.2,1.81.6,2.52.4.71,1.04,1.07,1.9,1.07s1.85-.25,2.89-.74c1.04-.5,1.94-1.2,2.7-2.1.33-.41.58-.62.75-.62.11,0,.21.04.3.13.1.09.14.2.14.32,0,.29-.28.71-.84,1.27-.56.56-1.4,1.11-2.51,1.66-1.11.54-2.27.82-3.46.82-1.4,0-2.54-.53-3.39-1.58s-1.28-2.44-1.28-4.18Zm2.95-2.82c4.76,0,7.14-1.13,7.14-3.39,0-.59-.19-1.07-.56-1.44-.38-.37-.87-.55-1.48-.55-.33,0-.69.07-1.09.21s-.85.38-1.37.71c-.52.33-1.02.89-1.49,1.67-.48.78-.86,1.71-1.14,2.79Z"/>
    <path d="m728.21,328.4c0-.25.06-.58.19-1.01l2.44-9.9s.03-.13.07-.28c.04-.14.05-.25.05-.31,0-.33-.2-.51-.59-.55s-.78-.07-1.16-.09c-.39-.02-.58-.15-.58-.38,0-.31.17-.5.5-.59.33-.08,1.12-.16,2.38-.22.19-.11.47-.16.86-.17h.42c.49,0,.74.16.74.49,0,.08-.1.51-.3,1.29,1.33-1.4,2.77-2.1,4.32-2.1h.03c.89,0,1.68.26,2.37.78.69.52,1.03,1.39,1.03,2.63,0,1.08-.43,2.84-1.28,5.29-.85,2.45-1.28,3.91-1.28,4.39,0,.58.24.87.73.87.64,0,1.2-.35,1.68-1.06.48-.7.84-1.45,1.09-2.23s.4-1.19.47-1.23c.08-.06.19-.09.32-.09.29,0,.43.14.43.41,0,.15-.08.47-.24.96-.16.49-.4,1.04-.69,1.66-.3.61-.73,1.15-1.29,1.62s-1.17.71-1.85.71c-.74,0-1.35-.25-1.8-.75-.46-.5-.69-1.12-.69-1.87,0-.37.4-1.73,1.21-4.08s1.21-4.07,1.21-5.15c0-1.41-.53-2.11-1.59-2.11-.63,0-1.25.17-1.84.51s-1.09.76-1.5,1.25c-.41.49-.74.94-.99,1.36-.25.42-.44.77-.55,1.05-.04.13-.73,2.87-2.05,8.22-.17,1.06-.62,1.6-1.38,1.61-.26,0-.47-.08-.64-.24-.17-.16-.25-.38-.25-.66Z"/>
    <path d="m745.39,315.49c0-.38.23-.57.71-.57.1,0,.27,0,.49-.02s.38-.02.49-.02c.21,0,.53,0,.95.02s.74.02.96.02l1.16-4.67c.06-.26.11-.42.13-.47.03-.05.07-.13.13-.25.06-.12.14-.19.24-.2.09,0,.23-.02.41-.02h.59c.48,0,.71.14.71.43,0,.37-.42,2.09-1.27,5.18h2.66c.45,0,.68.15.68.44,0,.25-.09.41-.26.49-.17.08-.48.11-.91.11h-.52c-.21,0-.53,0-.95-.02-.42-.01-.74-.02-.96-.02-.03.12-.08.32-.15.62-.07.3-.13.52-.16.66l-1.96,7.89c-.22,1-.33,1.71-.31,2.13,0,.86.29,1.29.88,1.29h.02c1.42,0,2.68-1.39,3.78-4.16.11-.29.3-.43.58-.42.28,0,.42.12.42.36,0,.58-.49,1.55-1.46,2.92s-2.12,2.05-3.44,2.05c-.82,0-1.49-.28-2-.83-.51-.55-.76-1.25-.76-2.09,0-.46.08-.94.24-1.43l2.24-8.99h-2.62c-.47,0-.71-.15-.71-.44Z"/>
    <path d="m757.19,328.13c0-.06.07-.4.22-1.01l2.31-9.14c.13-.48.19-.83.19-1.05,0-.32-.2-.5-.59-.55-.39-.05-.78-.09-1.16-.11-.38-.02-.58-.15-.58-.4,0-.34.23-.56.68-.65.21-.04.93-.09,2.17-.16.31-.56.72-.84,1.24-.86.33,0,.56.09.7.28.14.18.21.36.21.53,0,.15-.08.56-.25,1.23,1.09-1.11,2.24-1.67,3.47-1.67.8,0,1.53.17,2.19.51.66.34.98.88.98,1.61,0,.43-.15.82-.45,1.16-.3.34-.68.51-1.13.51-.31,0-.57-.1-.78-.29-.22-.19-.33-.44-.33-.73,0-.67.4-1.19,1.2-1.54-.56-.32-1.13-.48-1.71-.48-1.42,0-2.67.99-3.77,2.96-.21.39-.39.86-.53,1.4-.14.55-.79,3.17-1.97,7.86-.1.48-.2.77-.3.88-.09.11-.29.17-.6.17h-.67c-.49,0-.74-.15-.74-.46Z"/>
    <path d="m768.65,324.24c0-2.38.78-4.59,2.35-6.62,1.57-2.04,3.26-3.05,5.08-3.05,1.12,0,2.02.64,2.71,1.91.19-.82.62-1.23,1.27-1.23.26,0,.48.09.65.26.17.17.25.38.25.61,0,.08-.06.28-.19.6l-2.05,8.17c-.26,1-.39,1.78-.38,2.33,0,.86.28,1.29.83,1.29h.02c.36,0,.68-.21.98-.63.3-.42.53-.86.68-1.31.16-.46.32-1.01.5-1.67.04-.17.08-.3.1-.38.11-.39.29-.59.55-.59.33,0,.49.14.49.41-.04.26-.11.6-.19,1s-.31,1.01-.68,1.83c-.37.82-.78,1.39-1.24,1.72-.33.24-.74.36-1.24.36-.6,0-1.15-.18-1.64-.55s-.82-.94-.99-1.72c-1.36,1.5-2.67,2.26-3.93,2.27-1.19,0-2.15-.47-2.88-1.4-.72-.93-1.08-2.14-1.08-3.63Zm2.2,1.43c0,.74.14,1.4.43,1.98.29.58.75.87,1.39.87.74,0,1.5-.37,2.27-1.12.78-.75,1.31-1.41,1.59-2,.03-.11.32-1.28.88-3.49.56-2.22.84-3.44.84-3.66,0-.52-.18-1.14-.54-1.86-.36-.72-.92-1.08-1.68-1.08-.92,0-1.84.66-2.74,1.98-.69.99-1.27,2.43-1.75,4.3-.47,1.87-.71,3.23-.71,4.08Z"/>
    <path d="m784.76,326.35c0-.26.11-.86.34-1.78l3.78-15.05c.15-.6.22-.99.22-1.16,0-.39-.38-.59-1.13-.6-.76,0-1.15-.14-1.2-.38-.02-.19.03-.34.17-.45.13-.11.23-.17.31-.18.07,0,.2-.03.38-.05.33-.02.77-.06,1.34-.11s1.05-.1,1.45-.14.62-.06.66-.06c.37,0,.55.15.55.44,0,.08-.02.19-.07.33-.05.13-.07.21-.07.23l-4.45,18.06c-.19.85-.29,1.45-.3,1.82,0,.83.28,1.25.83,1.25h.02c.17,0,.34-.05.51-.16.17-.11.33-.27.46-.5.14-.23.26-.44.37-.65s.21-.46.31-.78c.09-.31.17-.56.23-.75.06-.19.12-.42.2-.71.07-.29.11-.45.11-.48.11-.37.29-.55.55-.54.31,0,.45.14.44.41,0,.47-.23,1.33-.68,2.56-.62,1.55-1.5,2.33-2.64,2.34-.8,0-1.46-.28-1.95-.84-.5-.56-.75-1.25-.75-2.07Z"/>
    <path d="m794.14,326.67c0-.63.5-2.4,1.5-5.33,1-2.92,1.51-4.48,1.51-4.67,0-.21-.14-.35-.42-.41-.28-.06-.61-.09-.97-.09s-.6-.03-.7-.09c-.21-.14-.24-.34-.07-.61.08-.1.23-.17.44-.21.21-.04.53-.08.98-.11.45-.03.83-.07,1.15-.11.11-.02.21-.04.29-.07.08-.03.15-.04.19-.06.04,0,.14-.02.29-.03s.37-.02.66-.02h.12c.49,0,.73.14.73.42,0,.04-.12.6-.37,1.68-.08.34-.15.58-.21.71-.06.13-.1.2-.12.21-.02.01-.07.1-.16.28-.08.17-.19.45-.31.84-.41,1.24-.9,2.71-1.49,4.38-.79,2.39-1.19,3.78-1.19,4.18,0,.63.25.94.74.94.26,0,.53-.07.81-.21.28-.14.62-.52,1.03-1.15s.76-1.48,1.05-2.54c.13-.46.33-.68.61-.68.3,0,.46.14.46.41,0,.15-.08.46-.25.94-.16.48-.4,1.03-.7,1.64-.3.61-.73,1.15-1.3,1.62-.57.47-1.18.71-1.85.71-.74,0-1.34-.24-1.79-.73s-.68-1.11-.68-1.87Zm3.83-17.5c0-.37.15-.71.44-1.04s.65-.48,1.05-.48c.3,0,.56.09.78.29s.32.45.32.78c0,.39-.16.74-.47,1.05-.31.31-.67.47-1.05.47-.32,0-.58-.09-.78-.29-.2-.19-.3-.45-.3-.78Z"/>
    <path d="m801.93,328.9c0-.11.13-.36.4-.78.72-1.12,1.53-2.17,2.43-3.16.9-.99,2.06-2.15,3.46-3.49,1.4-1.34,2.63-2.59,3.68-3.74-.56-.02-1.24-.21-2.05-.55-.8-.35-1.42-.52-1.86-.52-.54,0-1.03.15-1.46.44-.43.29-.73.59-.89.9l-.21.46c-.08.13-.21.19-.39.19-.27,0-.4-.15-.4-.46,0-.54.37-1.28,1.1-2.22s1.59-1.41,2.57-1.41c.43,0,.83.12,1.17.37.35.25.62.53.82.84.2.31.43.59.7.84.27.25.56.37.87.37s.61-.14.88-.44c.27-.29.52-.64.75-1.05s.38-.65.44-.71c.13-.13.29-.19.49-.19.27,0,.41.1.41.3,0,.18-.17.53-.5,1.04-.33.51-.66.97-.97,1.37-.31.4-.49.62-.53.67-.8.95-2.07,2.27-3.81,3.95s-3.1,3.09-4.08,4.22c.12-.02.3-.03.55-.03.54,0,1.21.18,2.01.53.8.35,1.42.53,1.85.53.7,0,1.38-.25,2.03-.75.66-.5,1.14-1.1,1.44-1.81.14-.41.3-.63.48-.65.14-.02.26,0,.38.08s.16.21.14.4c-.12.91-.65,1.94-1.58,3.09-.93,1.15-1.99,1.73-3.18,1.73-.56,0-1.03-.2-1.42-.6-.39-.4-.75-.8-1.09-1.2-.34-.4-.71-.6-1.12-.6-.33,0-.65.1-.96.31-.31.21-.57.43-.76.67s-.39.49-.57.76c-.18.27-.3.42-.34.47-.13.13-.26.2-.41.21-.31,0-.46-.12-.46-.36Z"/>
    <path d="m816.89,323.51c0-2.62.86-4.76,2.57-6.44,1.71-1.67,3.54-2.51,5.47-2.51.93,0,1.71.25,2.32.76.62.51.93,1.17.93,2,0,.29-.04.57-.13.86-.08.29-.24.64-.47,1.04s-.63.77-1.22,1.12c-.59.34-1.3.6-2.15.77-1.12.21-2.65.32-4.57.33-.37,1.6-.56,2.77-.56,3.49,0,.97.2,1.81.6,2.52.4.71,1.04,1.07,1.9,1.07s1.85-.25,2.89-.74c1.04-.5,1.94-1.2,2.7-2.1.33-.41.58-.62.75-.62.11,0,.21.04.3.13.1.09.14.2.14.32,0,.29-.28.71-.84,1.27-.56.56-1.4,1.11-2.51,1.66-1.11.54-2.27.82-3.46.82-1.41,0-2.54-.53-3.39-1.58s-1.28-2.44-1.28-4.18Zm2.95-2.82c4.76,0,7.14-1.13,7.14-3.39,0-.59-.19-1.07-.56-1.44-.38-.37-.87-.55-1.48-.55-.33,0-.69.07-1.09.21-.4.14-.85.38-1.37.71-.52.33-1.02.89-1.49,1.67-.48.78-.86,1.71-1.14,2.79Z"/>
    <path d="m829.97,324.24c0-2.38.79-4.59,2.37-6.62,1.58-2.04,3.27-3.05,5.06-3.05,1.23,0,2.14.64,2.71,1.91.19-.76.46-1.8.79-3.13s.62-2.45.85-3.36c.23-.91.34-1.44.34-1.61,0-.38-.39-.58-1.16-.59-.78,0-1.17-.17-1.17-.48,0-.35.33-.56,1-.62,2.21-.19,3.32-.29,3.34-.29.35,0,.52.14.52.43,0,.16-.09.37-.27.63l-4.33,17.17c-.21,1.21-.3,2.08-.29,2.6,0,.87.27,1.3.82,1.3h.02c.33,0,.63-.18.91-.55.28-.36.48-.73.61-1.1.13-.37.27-.85.44-1.44.16-.59.26-.94.28-1.03.08-.31.26-.46.55-.44.3,0,.45.14.45.41,0,.11-.02.25-.06.43-.37,1.42-.78,2.52-1.25,3.3-.46.78-1.14,1.17-2.02,1.17-.6,0-1.15-.18-1.64-.55s-.82-.94-.99-1.72c-1.36,1.5-2.67,2.26-3.93,2.27-1.17,0-2.13-.47-2.86-1.42-.73-.94-1.1-2.15-1.1-3.61Zm2.2,1.43c0,.74.14,1.4.43,1.98.29.58.75.87,1.39.87.74,0,1.5-.38,2.27-1.12.78-.75,1.31-1.42,1.59-2,.03-.11.32-1.28.89-3.5.56-2.22.85-3.44.85-3.66,0-.51-.18-1.13-.54-1.85-.36-.72-.92-1.08-1.68-1.08-.94,0-1.86.66-2.74,1.98-.69.99-1.27,2.43-1.75,4.3-.47,1.87-.71,3.23-.71,4.08Z"/>
    <path d="m855.15,334.77c0-.36.29-.56.87-.59.58-.03.97-.16,1.17-.38.11-.15.26-.57.48-1.27l3.55-14.27c.17-.64.25-1.09.25-1.33,0-.33-.19-.52-.57-.57-.38-.05-.76-.09-1.15-.11s-.58-.16-.58-.41c0-.29.17-.47.51-.55.34-.08,1.12-.16,2.34-.22.19-.11.48-.16.87-.17h.27c.35,0,.59.03.73.09.14.06.21.18.21.37,0,.04-.06.32-.19.84,1.19-1.1,2.33-1.65,3.41-1.65,1.19,0,2.15.48,2.88,1.43s1.08,2.16,1.08,3.63c0,2.4-.79,4.61-2.37,6.65-1.58,2.04-3.28,3.06-5.11,3.06-1.12,0-2.04-.61-2.76-1.83-.1.39-.27,1.09-.53,2.1-.25,1.01-.48,1.91-.68,2.71-.2.8-.3,1.25-.3,1.35,0,.36.36.54,1.08.55.72,0,1.13.09,1.23.25.04.09.06.16.06.21,0,.13-.07.25-.2.37s-.29.18-.48.18c-.11,0-.46-.01-1.07-.03-.61-.02-1.26-.03-1.97-.03-.43,0-.89,0-1.4.02s-.81.02-.92.02c-.29,0-.47-.03-.57-.08-.09-.05-.14-.16-.14-.31Zm6.44-9.23c0,.29.06.63.17,1.04.11.41.35.83.71,1.26s.81.65,1.33.65c.8,0,1.55-.43,2.25-1.28.69-.85,1.24-1.88,1.64-3.07.4-1.2.72-2.33.94-3.41s.34-1.94.34-2.57c0-.89-.16-1.58-.47-2.08-.31-.5-.74-.75-1.28-.75-1.16,0-2.35.88-3.57,2.63-.21.35-.4.8-.56,1.36-.04.08-.5,1.91-1.38,5.47-.08.43-.13.68-.13.75Z"/>
    <path d="m875.31,328.13c0-.06.07-.4.22-1.01l2.31-9.14c.13-.48.19-.83.19-1.05,0-.32-.2-.5-.59-.55-.39-.05-.78-.09-1.16-.11-.38-.02-.58-.15-.58-.4,0-.34.23-.56.68-.65.21-.04.93-.09,2.17-.16.31-.56.72-.84,1.24-.86.33,0,.56.09.7.28.14.18.21.36.21.53,0,.15-.08.56-.25,1.23,1.09-1.11,2.24-1.67,3.47-1.67.8,0,1.53.17,2.19.51.66.34.98.88.98,1.61,0,.43-.15.82-.45,1.16-.3.34-.68.51-1.13.51-.31,0-.57-.1-.78-.29-.22-.19-.33-.44-.33-.73,0-.67.4-1.19,1.2-1.54-.56-.32-1.13-.48-1.71-.48-1.42,0-2.67.99-3.77,2.96-.21.39-.39.86-.53,1.4-.14.55-.79,3.17-1.97,7.86-.1.48-.2.77-.3.88-.09.11-.29.17-.6.17h-.67c-.49,0-.74-.15-.74-.46Z"/>
    <path d="m886.8,323.96c0-2.36.87-4.51,2.6-6.46,1.73-1.95,3.61-2.93,5.64-2.93,1.44,0,2.6.5,3.47,1.49.88.99,1.31,2.28,1.31,3.87,0,2.35-.87,4.5-2.61,6.44-1.74,1.94-3.63,2.91-5.68,2.91-1.41,0-2.55-.5-3.42-1.49-.88-1-1.32-2.27-1.32-3.82Zm2.31,1.27c0,1.04.22,1.85.67,2.43.44.58,1.04.87,1.79.87,1.15,0,2.23-.59,3.25-1.78.78-.93,1.43-2.24,1.93-3.92.51-1.68.76-3.07.76-4.17,0-1.04-.23-1.85-.68-2.45-.45-.6-1.06-.9-1.82-.9-1.1,0-2.17.61-3.2,1.82-.78.91-1.43,2.21-1.93,3.92-.51,1.7-.76,3.09-.76,4.17Z"/>
    <path d="m902.88,315.49c0-.38.23-.57.71-.57.1,0,.27,0,.49-.02.22-.01.38-.02.49-.02.21,0,.53,0,.95.02.42.01.74.02.96.02l1.16-4.67c.06-.26.11-.42.13-.47.03-.05.07-.13.13-.25s.14-.19.24-.2c.09,0,.23-.02.41-.02h.59c.47,0,.71.14.71.43,0,.37-.42,2.09-1.27,5.18h2.66c.45,0,.68.15.68.44,0,.25-.09.41-.26.49-.17.08-.48.11-.91.11h-.52c-.21,0-.53,0-.95-.02-.42-.01-.74-.02-.96-.02-.03.12-.08.32-.15.62s-.13.52-.17.66l-1.96,7.89c-.22,1-.33,1.71-.31,2.13,0,.86.29,1.29.88,1.29h.02c1.42,0,2.68-1.39,3.78-4.16.1-.29.3-.43.58-.42.28,0,.42.12.42.36,0,.58-.49,1.55-1.46,2.92s-2.12,2.05-3.44,2.05c-.82,0-1.49-.28-2-.83-.51-.55-.76-1.25-.76-2.09,0-.46.08-.94.24-1.43l2.24-8.99h-2.62c-.47,0-.71-.15-.71-.44Z"/>
    <path d="m914.13,323.96c0-2.36.87-4.51,2.6-6.46,1.73-1.95,3.61-2.93,5.64-2.93,1.44,0,2.6.5,3.47,1.49.88.99,1.31,2.28,1.31,3.87,0,2.35-.87,4.5-2.61,6.44-1.74,1.94-3.63,2.91-5.68,2.91-1.41,0-2.55-.5-3.42-1.49-.88-1-1.32-2.27-1.32-3.82Zm2.31,1.27c0,1.04.22,1.85.67,2.43.44.58,1.04.87,1.79.87,1.15,0,2.23-.59,3.25-1.78.78-.93,1.43-2.24,1.93-3.92.51-1.68.76-3.07.76-4.17,0-1.04-.23-1.85-.68-2.45-.45-.6-1.06-.9-1.82-.9-1.1,0-2.17.61-3.2,1.82-.78.91-1.43,2.21-1.93,3.92-.51,1.7-.76,3.09-.76,4.17Z"/>
    <path d="m929.05,323.96c0-2.38.87-4.54,2.61-6.48,1.74-1.94,3.62-2.91,5.62-2.91.98,0,1.8.26,2.45.78s.98,1.19.98,2.01c0,.67-.17,1.16-.51,1.47-.34.32-.72.48-1.12.48-.3,0-.55-.1-.76-.29-.2-.2-.3-.45-.3-.75,0-.17.03-.35.1-.55.07-.2.23-.41.48-.63.25-.23.59-.36,1.02-.4-.43-.91-1.2-1.36-2.32-1.36-.35,0-.72.08-1.12.23-.4.15-.87.42-1.41.81-.54.39-1.07,1.03-1.58,1.94-.51.91-.93,2.01-1.28,3.32-.38,1.39-.57,2.55-.57,3.49s.21,1.8.62,2.45c.42.65,1.06.98,1.93.98.78,0,1.54-.14,2.28-.42.74-.28,1.39-.66,1.94-1.13s.94-.82,1.15-1.04c.22-.22.43-.47.64-.75l.03-.03c.15-.11.3-.1.46.02.16.12.24.26.24.41,0,.26-.27.67-.82,1.23-.55.56-1.38,1.11-2.49,1.65-1.12.54-2.28.81-3.48.81-1.43,0-2.58-.5-3.47-1.49-.89-1-1.33-2.27-1.33-3.82Z"/>
    <path d="m942.33,323.96c0-2.36.87-4.51,2.6-6.46,1.73-1.95,3.61-2.93,5.64-2.93,1.44,0,2.6.5,3.47,1.49.88.99,1.31,2.28,1.31,3.87,0,2.35-.87,4.5-2.61,6.44-1.74,1.94-3.63,2.91-5.68,2.91-1.41,0-2.55-.5-3.42-1.49-.88-1-1.32-2.27-1.32-3.82Zm2.31,1.27c0,1.04.22,1.85.67,2.43.44.58,1.04.87,1.79.87,1.15,0,2.23-.59,3.25-1.78.78-.93,1.43-2.24,1.93-3.92.51-1.68.76-3.07.76-4.17,0-1.04-.23-1.85-.68-2.45-.45-.6-1.06-.9-1.82-.9-1.1,0-2.17.61-3.2,1.82-.78.91-1.43,2.21-1.93,3.92-.51,1.7-.76,3.09-.76,4.17Z"/>
    <path d="m958.41,326.35c0-.26.11-.86.34-1.78l3.78-15.05c.15-.6.22-.99.22-1.16,0-.39-.38-.59-1.13-.6-.76,0-1.15-.14-1.2-.38-.02-.19.03-.34.17-.45.13-.11.23-.17.31-.18.07,0,.2-.03.38-.05.33-.02.77-.06,1.34-.11s1.05-.1,1.45-.14.62-.06.66-.06c.37,0,.55.15.55.44,0,.08-.02.19-.07.33-.05.13-.07.21-.07.23l-4.45,18.06c-.19.85-.29,1.45-.3,1.82,0,.83.28,1.25.83,1.25h.02c.17,0,.34-.05.51-.16.17-.11.33-.27.46-.5.14-.23.26-.44.37-.65s.21-.46.31-.78c.09-.31.17-.56.23-.75.06-.19.12-.42.2-.71.07-.29.11-.45.11-.48.11-.37.29-.55.55-.54.31,0,.45.14.44.41,0,.47-.23,1.33-.68,2.56-.62,1.55-1.5,2.33-2.64,2.34-.8,0-1.46-.28-1.95-.84-.5-.56-.75-1.25-.75-2.07Z"/>
    <path d="m978.75,324.24c0-2.38.78-4.59,2.35-6.62,1.57-2.04,3.26-3.05,5.08-3.05,1.12,0,2.02.64,2.71,1.91.19-.82.62-1.23,1.27-1.23.26,0,.48.09.65.26.17.17.25.38.25.61,0,.08-.06.28-.19.6l-2.05,8.17c-.26,1-.39,1.78-.38,2.33,0,.86.28,1.29.83,1.29h.02c.36,0,.68-.21.98-.63.3-.42.53-.86.68-1.31.16-.46.32-1.01.5-1.67.04-.17.08-.3.1-.38.11-.39.29-.59.55-.59.33,0,.49.14.49.41-.04.26-.11.6-.19,1s-.31,1.01-.68,1.83c-.37.82-.78,1.39-1.24,1.72-.33.24-.74.36-1.24.36-.6,0-1.15-.18-1.64-.55s-.82-.94-.99-1.72c-1.36,1.5-2.67,2.26-3.93,2.27-1.19,0-2.15-.47-2.88-1.4-.72-.93-1.08-2.14-1.08-3.63Zm2.2,1.43c0,.74.14,1.4.43,1.98.29.58.75.87,1.39.87.74,0,1.5-.37,2.27-1.12.78-.75,1.31-1.41,1.59-2,.03-.11.32-1.28.88-3.49.56-2.22.84-3.44.84-3.66,0-.52-.18-1.14-.54-1.86-.36-.72-.92-1.08-1.68-1.08-.92,0-1.84.66-2.74,1.98-.69.99-1.27,2.43-1.75,4.3-.47,1.87-.71,3.23-.71,4.08Z"/>
    <path d="m995.91,328.4c0-.25.06-.58.19-1.01l2.44-9.9s.03-.13.07-.28.05-.25.05-.31c0-.33-.2-.51-.59-.55s-.78-.07-1.16-.09-.58-.15-.58-.38c0-.31.17-.5.5-.59.33-.08,1.12-.16,2.38-.22.19-.11.47-.16.86-.17h.42c.49,0,.74.16.74.49,0,.08-.1.51-.3,1.29,1.33-1.4,2.77-2.1,4.32-2.1h.03c.89,0,1.68.26,2.37.78.69.52,1.03,1.39,1.03,2.63,0,1.08-.42,2.84-1.28,5.29s-1.28,3.91-1.28,4.39c0,.58.24.87.73.87.64,0,1.2-.35,1.68-1.06.48-.7.84-1.45,1.09-2.23s.4-1.19.46-1.23c.08-.06.19-.09.32-.09.29,0,.43.14.43.41,0,.15-.08.47-.24.96s-.39,1.04-.69,1.66c-.3.61-.73,1.15-1.29,1.62s-1.17.71-1.85.71c-.74,0-1.34-.25-1.8-.75-.46-.5-.69-1.12-.69-1.87,0-.37.4-1.73,1.21-4.08.81-2.35,1.21-4.07,1.21-5.15,0-1.41-.53-2.11-1.59-2.11-.63,0-1.25.17-1.84.51-.59.34-1.09.76-1.5,1.25s-.74.94-.99,1.36c-.25.42-.44.77-.55,1.05-.04.13-.73,2.87-2.05,8.22-.17,1.06-.62,1.6-1.38,1.61-.26,0-.47-.08-.64-.24-.17-.16-.25-.38-.25-.66Z"/>
    <path d="m1013.54,324.24c0-2.38.79-4.59,2.37-6.62,1.58-2.04,3.27-3.05,5.06-3.05,1.23,0,2.14.64,2.71,1.91.19-.76.46-1.8.79-3.13.34-1.33.62-2.45.85-3.36.23-.91.34-1.44.34-1.61,0-.38-.39-.58-1.16-.59-.78,0-1.16-.17-1.16-.48,0-.35.33-.56,1-.62,2.21-.19,3.32-.29,3.34-.29.35,0,.52.14.52.43,0,.16-.09.37-.27.63l-4.33,17.17c-.2,1.21-.3,2.08-.29,2.6,0,.87.27,1.3.82,1.3h.02c.33,0,.63-.18.91-.55.28-.36.48-.73.61-1.1.13-.37.27-.85.44-1.44.16-.59.26-.94.28-1.03.08-.31.26-.46.54-.44.3,0,.45.14.45.41,0,.11-.02.25-.06.43-.37,1.42-.78,2.52-1.25,3.3-.46.78-1.13,1.17-2.02,1.17-.6,0-1.15-.18-1.64-.55s-.82-.94-.99-1.72c-1.36,1.5-2.67,2.26-3.93,2.27-1.17,0-2.12-.47-2.86-1.42s-1.1-2.15-1.1-3.61Zm2.2,1.43c0,.74.14,1.4.43,1.98.28.58.75.87,1.39.87.74,0,1.5-.38,2.27-1.12.78-.75,1.3-1.42,1.59-2,.03-.11.32-1.28.89-3.5.56-2.22.85-3.44.85-3.66,0-.51-.18-1.13-.54-1.85-.36-.72-.92-1.08-1.68-1.08-.94,0-1.86.66-2.74,1.98-.69.99-1.28,2.43-1.75,4.3-.47,1.87-.71,3.23-.71,4.08Z"/>
    <path d="m1042.38,326.67c0-.63.5-2.4,1.5-5.33,1-2.92,1.51-4.48,1.51-4.67,0-.21-.14-.35-.42-.41-.28-.06-.61-.09-.97-.09s-.6-.03-.7-.09c-.21-.14-.24-.34-.07-.61.08-.1.23-.17.44-.21.21-.04.53-.08.98-.11.45-.03.83-.07,1.15-.11.11-.02.21-.04.29-.07.08-.03.15-.04.19-.06.04,0,.14-.02.29-.03s.37-.02.66-.02h.12c.49,0,.73.14.73.42,0,.04-.12.6-.37,1.68-.08.34-.15.58-.21.71-.06.13-.1.2-.12.21-.02.01-.07.1-.16.28-.08.17-.19.45-.31.84-.41,1.24-.9,2.71-1.49,4.38-.79,2.39-1.19,3.78-1.19,4.18,0,.63.25.94.74.94.26,0,.53-.07.81-.21.28-.14.62-.52,1.03-1.15s.76-1.48,1.05-2.54c.13-.46.33-.68.61-.68.3,0,.46.14.46.41,0,.15-.08.46-.25.94-.16.48-.4,1.03-.7,1.64-.3.61-.73,1.15-1.3,1.62-.57.47-1.18.71-1.85.71-.74,0-1.34-.24-1.79-.73s-.68-1.11-.68-1.87Zm3.83-17.5c0-.37.15-.71.44-1.04s.65-.48,1.05-.48c.3,0,.56.09.78.29s.32.45.32.78c0,.39-.16.74-.47,1.05-.31.31-.67.47-1.05.47-.32,0-.58-.09-.78-.29-.2-.19-.3-.45-.3-.78Z"/>
    <path d="m1052.26,328.4c0-.25.06-.58.19-1.01l2.44-9.9s.03-.13.07-.28c.04-.14.05-.25.05-.31,0-.33-.2-.51-.59-.55s-.78-.07-1.17-.09c-.38-.02-.58-.15-.58-.38,0-.31.17-.5.5-.59.33-.08,1.12-.16,2.38-.22.19-.11.47-.16.86-.17h.42c.49,0,.74.16.74.49,0,.08-.1.51-.3,1.29,1.33-1.4,2.77-2.1,4.32-2.1h.03c.89,0,1.68.26,2.37.78.69.52,1.03,1.39,1.03,2.63,0,1.08-.43,2.84-1.28,5.29-.85,2.45-1.28,3.91-1.28,4.39,0,.58.24.87.73.87.64,0,1.2-.35,1.68-1.06.48-.7.84-1.45,1.09-2.23s.4-1.19.47-1.23c.08-.06.19-.09.32-.09.29,0,.43.14.43.41,0,.15-.08.47-.24.96-.16.49-.4,1.04-.69,1.66-.3.61-.73,1.15-1.29,1.62s-1.17.71-1.85.71c-.74,0-1.35-.25-1.8-.75-.46-.5-.69-1.12-.69-1.87,0-.37.4-1.73,1.21-4.08.81-2.35,1.21-4.07,1.21-5.15,0-1.41-.53-2.11-1.59-2.11-.63,0-1.25.17-1.84.51-.59.34-1.09.76-1.5,1.25-.41.49-.74.94-.99,1.36-.25.42-.44.77-.55,1.05-.04.13-.73,2.87-2.05,8.22-.17,1.06-.62,1.6-1.38,1.61-.26,0-.47-.08-.64-.24-.17-.16-.25-.38-.25-.66Z"/>
    <path d="m1065.62,333.42c0-.51.16-.93.48-1.26s.7-.49,1.13-.49c.35,0,.62.1.8.31.18.2.28.46.28.76,0,.82-.48,1.32-1.43,1.51.43.37.86.55,1.27.55.31,0,.57-.09.79-.27s.42-.49.59-.91c.17-.43.29-.79.36-1.08.06-.3.16-.76.29-1.39.32-1.18.72-3.03,1.23-5.54.5-2.52.94-4.77,1.31-6.75l.57-2.93c-.15,0-.37,0-.68.02-.3,0-.53.02-.68.02h-.41c-.66,0-1-.18-1.01-.54,0-.34.3-.51.9-.51h2.08c.62-3.21,1.09-5.21,1.41-6.01.24-.64.53-1.15.87-1.52.8-.91,1.69-1.36,2.66-1.36.72,0,1.34.2,1.85.6.52.4.78.92.78,1.54,0,.47-.15.88-.46,1.23-.31.35-.69.52-1.14.52-.33,0-.59-.1-.79-.29-.2-.19-.3-.44-.3-.75,0-.35.12-.67.37-.98.25-.31.6-.5,1.05-.56-.43-.38-.85-.57-1.24-.57-.27,0-.5.05-.68.15-.19.1-.36.27-.51.52-.16.25-.29.5-.39.77-.1.27-.21.68-.32,1.25s-.21,1.08-.31,1.56c-.09.48-.23,1.14-.39,1.99-.17.85-.29,1.48-.37,1.9h2.61c.48,0,.72.15.72.44,0,.4-.33.6-1.01.6h-.06c-.06,0-.17,0-.31-.02-.14-.01-.25-.02-.31-.02h-1.84c-.18.91-.61,3.08-1.29,6.51s-1.07,5.43-1.17,6c-.17.75-.34,1.41-.5,1.98-.16.57-.44,1.32-.84,2.23-.4.92-.89,1.63-1.47,2.14s-1.23.76-1.94.76c-.67,0-1.26-.19-1.78-.57s-.78-.9-.78-1.56Z"/>
    <path d="m1080.43,328.13c0-.06.07-.4.22-1.01l2.31-9.14c.13-.48.19-.83.19-1.05,0-.32-.2-.5-.59-.55-.39-.05-.78-.09-1.16-.11-.38-.02-.58-.15-.58-.4,0-.34.23-.56.68-.65.21-.04.93-.09,2.17-.16.31-.56.72-.84,1.24-.86.33,0,.56.09.7.28.14.18.21.36.21.53,0,.15-.08.56-.25,1.23,1.09-1.11,2.24-1.67,3.47-1.67.8,0,1.53.17,2.19.51.66.34.98.88.98,1.61,0,.43-.15.82-.45,1.16-.3.34-.68.51-1.13.51-.31,0-.57-.1-.78-.29-.22-.19-.33-.44-.33-.73,0-.67.4-1.19,1.2-1.54-.56-.32-1.13-.48-1.71-.48-1.42,0-2.67.99-3.77,2.96-.21.39-.39.86-.53,1.4-.14.55-.79,3.17-1.97,7.86-.1.48-.2.77-.3.88-.09.11-.29.17-.6.17h-.67c-.49,0-.74-.15-.74-.46Z"/>
    <path d="m1091.89,324.24c0-2.38.78-4.59,2.35-6.62,1.57-2.04,3.26-3.05,5.08-3.05,1.12,0,2.02.64,2.71,1.91.19-.82.62-1.23,1.27-1.23.26,0,.48.09.65.26.17.17.25.38.25.61,0,.08-.06.28-.19.6l-2.05,8.17c-.26,1-.39,1.78-.38,2.33,0,.86.28,1.29.83,1.29h.02c.36,0,.68-.21.98-.63.3-.42.53-.86.68-1.31.16-.46.32-1.01.5-1.67.04-.17.08-.3.1-.38.11-.39.29-.59.55-.59.33,0,.49.14.49.41-.04.26-.11.6-.19,1s-.31,1.01-.68,1.83c-.37.82-.78,1.39-1.24,1.72-.33.24-.74.36-1.24.36-.6,0-1.15-.18-1.64-.55s-.82-.94-.99-1.72c-1.36,1.5-2.67,2.26-3.93,2.27-1.19,0-2.15-.47-2.88-1.4-.72-.93-1.08-2.14-1.08-3.63Zm2.2,1.43c0,.74.14,1.4.43,1.98.29.58.75.87,1.39.87.74,0,1.5-.37,2.27-1.12.78-.75,1.31-1.41,1.59-2,.03-.11.32-1.28.88-3.49.56-2.22.84-3.44.84-3.66,0-.52-.18-1.14-.54-1.86-.36-.72-.92-1.08-1.68-1.08-.92,0-1.84.66-2.74,1.98-.69.99-1.27,2.43-1.75,4.3-.47,1.87-.71,3.23-.71,4.08Z"/>
    <path d="m1107.46,326.08c0-.65.17-1.15.51-1.48s.7-.5,1.09-.5c.32,0,.59.1.79.3.2.2.31.45.31.74,0,.32-.13.65-.4,1-.26.34-.69.52-1.27.54.47,1.23,1.52,1.84,3.14,1.84h.05c1.34,0,2.37-.39,3.1-1.18.72-.79,1.08-1.6,1.08-2.45,0-.51-.15-.94-.45-1.28-.3-.34-.61-.56-.93-.65-.32-.09-.76-.21-1.33-.36-.56-.15-.93-.25-1.09-.3-.56-.17-1.05-.5-1.47-.98-.42-.49-.63-1.13-.63-1.93,0-1.12.44-2.2,1.33-3.26.89-1.05,2.15-1.58,3.8-1.58,1.02,0,1.85.25,2.51.76s.98,1.18.98,2.03c0,.6-.14,1.05-.42,1.33s-.6.43-.95.43c-.26,0-.49-.09-.67-.26-.18-.17-.27-.39-.27-.66,0-.29.11-.55.32-.8.22-.25.52-.41.9-.5-.35-1.06-1.16-1.58-2.42-1.58-1.04,0-1.83.32-2.4.97-.57.64-.85,1.31-.85,2,0,.15.02.29.05.42.03.13.07.25.11.35.04.1.1.19.18.28.08.08.15.16.21.22.06.06.14.12.24.18.09.06.18.1.26.14.08.03.17.06.27.09.1.03.18.04.22.06s.12.03.21.05c.09.02.15.03.17.03s.11.02.28.07c.17.05.32.09.44.12.13.03.31.08.55.14.24.06.45.14.62.23.18.09.38.21.61.33.23.13.42.28.59.46.17.18.32.37.45.59.14.21.25.47.33.77.08.3.12.62.12.95,0,.54-.11,1.11-.34,1.7-.23.6-.56,1.19-1.01,1.77-.44.59-1.08,1.07-1.9,1.45-.82.38-1.76.57-2.82.57-1.23,0-2.23-.3-3.01-.89-.78-.59-1.17-1.36-1.17-2.3Z"/>
    <path d="m1121.26,315.49c0-.38.24-.57.71-.57.1,0,.27,0,.49-.02.22-.01.38-.02.49-.02.21,0,.53,0,.95.02.42.01.74.02.96.02l1.16-4.67c.06-.26.11-.42.13-.47s.07-.13.13-.25c.06-.12.14-.19.24-.2.09,0,.23-.02.41-.02h.59c.48,0,.71.14.71.43,0,.37-.42,2.09-1.27,5.18h2.66c.45,0,.68.15.68.44,0,.25-.09.41-.26.49-.17.08-.48.11-.91.11h-.52c-.21,0-.53,0-.95-.02-.42-.01-.74-.02-.96-.02-.03.12-.08.32-.16.62-.07.3-.13.52-.16.66l-1.96,7.89c-.22,1-.33,1.71-.32,2.13,0,.86.29,1.29.88,1.29h.02c1.42,0,2.68-1.39,3.78-4.16.11-.29.3-.43.58-.42.28,0,.42.12.42.36,0,.58-.49,1.55-1.46,2.92s-2.12,2.05-3.44,2.05c-.82,0-1.49-.28-2-.83s-.76-1.25-.76-2.09c0-.46.08-.94.24-1.43l2.24-8.99h-2.62c-.47,0-.71-.15-.71-.44Z"/>
    <path d="m1133.06,328.13c0-.06.07-.4.22-1.01l2.31-9.14c.13-.48.19-.83.19-1.05,0-.32-.2-.5-.59-.55-.39-.05-.78-.09-1.16-.11-.38-.02-.58-.15-.58-.4,0-.34.23-.56.68-.65.21-.04.93-.09,2.17-.16.31-.56.72-.84,1.24-.86.33,0,.56.09.7.28.14.18.21.36.21.53,0,.15-.08.56-.25,1.23,1.09-1.11,2.24-1.67,3.47-1.67.8,0,1.53.17,2.19.51.66.34.98.88.98,1.61,0,.43-.15.82-.45,1.16-.3.34-.68.51-1.13.51-.31,0-.57-.1-.78-.29-.22-.19-.33-.44-.33-.73,0-.67.4-1.19,1.2-1.54-.56-.32-1.13-.48-1.71-.48-1.42,0-2.67.99-3.77,2.96-.21.39-.39.86-.53,1.4-.14.55-.79,3.17-1.97,7.86-.1.48-.2.77-.3.88-.09.11-.29.17-.6.17h-.67c-.49,0-.74-.15-.74-.46Z"/>
    <path d="m1147.18,315.85c0-.4.23-.6.68-.6,1.94-.21,3.18-.32,3.72-.33.33,0,.49.15.49.46,0,.15-.14.77-.43,1.86-.06.24-.31,1.11-.75,2.61-.43,1.49-.75,2.71-.94,3.63-.2.93-.29,1.77-.29,2.53,0,1.68.59,2.52,1.77,2.52h.02c.58,0,1.15-.2,1.7-.59s.94-.76,1.16-1.08c.22-.33.38-.61.48-.84l.25-1.04,2.08-8.35c.24-1.12.7-1.68,1.36-1.69.26,0,.48.09.64.26s.25.35.25.53-.67,2.99-2.01,8.44c-.41,1.69-.62,2.72-.62,3.08,0,.85.27,1.28.82,1.28h.02c.8,0,1.53-1.27,2.17-3.81.15-.52.35-.78.62-.78.13,0,.23.05.32.14s.13.2.13.3c0,.08-.02.22-.06.39-.24.95-.47,1.69-.67,2.24s-.53,1.06-.97,1.54-.98.72-1.6.72c-1.28,0-2.13-.64-2.57-1.93-1.12,1.29-2.33,1.93-3.63,1.93-.95,0-1.79-.29-2.53-.86-.74-.57-1.11-1.54-1.11-2.89,0-1.12.3-2.73.9-4.83.6-2.1.89-3.37.89-3.8,0-.31-.19-.48-.57-.52-.38-.04-.76-.07-1.15-.09-.39-.02-.58-.16-.58-.43Z"/>
    <path d="m1163.61,323.96c0-2.38.87-4.54,2.61-6.48,1.74-1.94,3.62-2.91,5.62-2.91.98,0,1.8.26,2.45.78s.98,1.19.98,2.01c0,.67-.17,1.16-.51,1.47-.34.32-.72.48-1.12.48-.3,0-.55-.1-.75-.29-.2-.2-.3-.45-.3-.75,0-.17.03-.35.1-.55.07-.2.23-.41.48-.63.25-.23.59-.36,1.02-.4-.43-.91-1.2-1.36-2.32-1.36-.35,0-.72.08-1.12.23-.4.15-.87.42-1.41.81-.54.39-1.07,1.03-1.58,1.94-.51.91-.93,2.01-1.28,3.32-.38,1.39-.57,2.55-.57,3.49s.21,1.8.63,2.45,1.06.98,1.92.98c.78,0,1.54-.14,2.28-.42.74-.28,1.39-.66,1.94-1.13.55-.48.93-.82,1.15-1.04.21-.22.43-.47.64-.75l.03-.03c.14-.11.3-.1.46.02.16.12.24.26.24.41,0,.26-.27.67-.82,1.23-.55.56-1.38,1.11-2.49,1.65-1.12.54-2.28.81-3.48.81-1.43,0-2.58-.5-3.47-1.49-.89-1-1.33-2.27-1.33-3.82Z"/>
    <path d="m1178.04,315.49c0-.38.23-.57.71-.57.1,0,.27,0,.49-.02.22-.01.38-.02.49-.02.21,0,.53,0,.95.02.42.01.74.02.96.02l1.16-4.67c.06-.26.11-.42.13-.47.03-.05.07-.13.13-.25s.14-.19.24-.2c.09,0,.23-.02.41-.02h.59c.47,0,.71.14.71.43,0,.37-.42,2.09-1.27,5.18h2.66c.45,0,.68.15.68.44,0,.25-.09.41-.26.49-.17.08-.48.11-.91.11h-.52c-.21,0-.53,0-.95-.02-.42-.01-.74-.02-.96-.02-.03.12-.08.32-.15.62s-.13.52-.17.66l-1.96,7.89c-.22,1-.33,1.71-.31,2.13,0,.86.29,1.29.88,1.29h.02c1.42,0,2.68-1.39,3.78-4.16.1-.29.3-.43.58-.42.28,0,.42.12.42.36,0,.58-.49,1.55-1.46,2.92s-2.12,2.05-3.44,2.05c-.82,0-1.49-.28-2-.83-.51-.55-.76-1.25-.76-2.09,0-.46.08-.94.24-1.43l2.24-8.99h-2.62c-.47,0-.71-.15-.71-.44Z"/>
    <path d="m1190.27,315.85c0-.4.23-.6.68-.6,1.94-.21,3.18-.32,3.72-.33.33,0,.49.15.49.46,0,.15-.14.77-.43,1.86-.06.24-.31,1.11-.75,2.61-.43,1.49-.75,2.71-.94,3.63-.2.93-.29,1.77-.29,2.53,0,1.68.59,2.52,1.77,2.52h.02c.58,0,1.15-.2,1.7-.59s.94-.76,1.16-1.08c.22-.33.38-.61.48-.84l.25-1.04,2.08-8.35c.24-1.12.7-1.68,1.36-1.69.26,0,.48.09.64.26s.25.35.25.53-.67,2.99-2.01,8.44c-.41,1.69-.62,2.72-.62,3.08,0,.85.27,1.28.82,1.28h.02c.8,0,1.53-1.27,2.17-3.81.15-.52.35-.78.62-.78.13,0,.23.05.32.14s.13.2.13.3c0,.08-.02.22-.06.39-.24.95-.47,1.69-.67,2.24s-.53,1.06-.97,1.54-.98.72-1.6.72c-1.28,0-2.13-.64-2.57-1.93-1.12,1.29-2.33,1.93-3.63,1.93-.95,0-1.79-.29-2.53-.86-.74-.57-1.11-1.54-1.11-2.89,0-1.12.3-2.73.9-4.83.6-2.1.89-3.37.89-3.8,0-.31-.19-.48-.57-.52-.38-.04-.76-.07-1.15-.09-.39-.02-.58-.16-.58-.43Z"/>
    <path d="m1207.25,328.13c0-.06.07-.4.22-1.01l2.31-9.14c.13-.48.19-.83.19-1.05,0-.32-.2-.5-.58-.55-.39-.05-.78-.09-1.16-.11s-.58-.15-.58-.4c0-.34.23-.56.68-.65.21-.04.93-.09,2.17-.16.31-.56.72-.84,1.24-.86.33,0,.56.09.7.28.14.18.21.36.21.53,0,.15-.08.56-.25,1.23,1.09-1.11,2.24-1.67,3.47-1.67.8,0,1.53.17,2.19.51.65.34.98.88.98,1.61,0,.43-.15.82-.45,1.16s-.68.51-1.13.51c-.31,0-.57-.1-.78-.29-.22-.19-.32-.44-.32-.73,0-.67.4-1.19,1.2-1.54-.56-.32-1.13-.48-1.71-.48-1.42,0-2.68.99-3.77,2.96-.21.39-.39.86-.53,1.4-.14.55-.79,3.17-1.97,7.86-.1.48-.2.77-.3.88-.09.11-.29.17-.6.17h-.67c-.49,0-.74-.15-.74-.46Z"/>
    <path d="m1218.9,323.51c0-2.62.86-4.76,2.57-6.44,1.71-1.67,3.54-2.51,5.47-2.51.93,0,1.71.25,2.32.76.62.51.93,1.17.93,2,0,.29-.04.57-.13.86-.08.29-.24.64-.47,1.04s-.63.77-1.22,1.12c-.59.34-1.3.6-2.15.77-1.12.21-2.65.32-4.57.33-.37,1.6-.56,2.77-.56,3.49,0,.97.2,1.81.6,2.52.4.71,1.04,1.07,1.9,1.07s1.85-.25,2.89-.74c1.04-.5,1.94-1.2,2.7-2.1.33-.41.58-.62.75-.62.11,0,.21.04.3.13.1.09.14.2.14.32,0,.29-.28.71-.84,1.27-.56.56-1.4,1.11-2.51,1.66-1.11.54-2.27.82-3.46.82-1.41,0-2.54-.53-3.39-1.58s-1.28-2.44-1.28-4.18Zm2.95-2.82c4.76,0,7.14-1.13,7.14-3.39,0-.59-.19-1.07-.56-1.44-.38-.37-.87-.55-1.48-.55-.33,0-.69.07-1.09.21-.4.14-.85.38-1.37.71-.52.33-1.02.89-1.49,1.67-.48.78-.86,1.71-1.14,2.79Z"/>
    <path d="m1245.28,323.96c0-2.38.87-4.54,2.61-6.48,1.74-1.94,3.62-2.91,5.62-2.91.98,0,1.8.26,2.45.78s.98,1.19.98,2.01c0,.67-.17,1.16-.51,1.47-.34.32-.72.48-1.12.48-.3,0-.55-.1-.76-.29-.2-.2-.3-.45-.3-.75,0-.17.03-.35.1-.55.07-.2.23-.41.48-.63.25-.23.59-.36,1.02-.4-.43-.91-1.2-1.36-2.32-1.36-.35,0-.72.08-1.12.23-.4.15-.87.42-1.41.81-.54.39-1.07,1.03-1.58,1.94-.51.91-.93,2.01-1.28,3.32-.38,1.39-.57,2.55-.57,3.49s.21,1.8.62,2.45c.42.65,1.06.98,1.93.98.78,0,1.54-.14,2.28-.42.74-.28,1.39-.66,1.94-1.13s.94-.82,1.15-1.04c.22-.22.43-.47.64-.75l.03-.03c.15-.11.3-.1.46.02.16.12.24.26.24.41,0,.26-.27.67-.82,1.23-.55.56-1.38,1.11-2.49,1.65-1.12.54-2.28.81-3.48.81-1.43,0-2.58-.5-3.47-1.49-.89-1-1.33-2.27-1.33-3.82Z"/>
    <path d="m1258.55,323.96c0-2.36.87-4.51,2.6-6.46,1.73-1.95,3.61-2.93,5.64-2.93,1.44,0,2.6.5,3.47,1.49.88.99,1.31,2.28,1.31,3.87,0,2.35-.87,4.5-2.61,6.44-1.74,1.94-3.63,2.91-5.68,2.91-1.41,0-2.55-.5-3.42-1.49-.88-1-1.32-2.27-1.32-3.82Zm2.31,1.27c0,1.04.22,1.85.67,2.43.44.58,1.04.87,1.79.87,1.15,0,2.23-.59,3.25-1.78.78-.93,1.43-2.24,1.93-3.92.51-1.68.76-3.07.76-4.17,0-1.04-.23-1.85-.68-2.45-.45-.6-1.06-.9-1.82-.9-1.1,0-2.17.61-3.2,1.82-.78.91-1.43,2.21-1.93,3.92-.51,1.7-.76,3.09-.76,4.17Z"/>
    <path d="m1275.68,328.4c0-.25.06-.58.19-1.01l2.44-9.9s.03-.13.07-.28.05-.25.05-.31c0-.33-.2-.51-.59-.55s-.78-.07-1.16-.09-.58-.15-.58-.38c0-.31.17-.5.5-.59.33-.08,1.12-.16,2.38-.22.19-.11.47-.16.86-.17h.42c.49,0,.74.16.74.49,0,.08-.1.51-.3,1.29,1.33-1.4,2.77-2.1,4.32-2.1h.03c.89,0,1.68.26,2.37.78.69.52,1.03,1.39,1.03,2.63,0,1.08-.42,2.84-1.28,5.29s-1.28,3.91-1.28,4.39c0,.58.24.87.73.87.64,0,1.2-.35,1.68-1.06.48-.7.84-1.45,1.09-2.23s.4-1.19.46-1.23c.08-.06.19-.09.32-.09.29,0,.43.14.43.41,0,.15-.08.47-.24.96s-.39,1.04-.69,1.66c-.3.61-.73,1.15-1.29,1.62s-1.17.71-1.85.71c-.74,0-1.34-.25-1.8-.75-.46-.5-.69-1.12-.69-1.87,0-.37.4-1.73,1.21-4.08.81-2.35,1.21-4.07,1.21-5.15,0-1.41-.53-2.11-1.59-2.11-.63,0-1.25.17-1.84.51-.59.34-1.09.76-1.5,1.25s-.74.94-.99,1.36c-.25.42-.44.77-.55,1.05-.04.13-.73,2.87-2.05,8.22-.17,1.06-.62,1.6-1.38,1.61-.26,0-.47-.08-.64-.24-.17-.16-.25-.38-.25-.66Z"/>
    <path d="m1289.03,333.42c0-.51.16-.93.48-1.26s.7-.49,1.13-.49c.35,0,.62.1.8.31.18.2.28.46.28.76,0,.82-.47,1.32-1.43,1.51.43.37.86.55,1.27.55.31,0,.57-.09.79-.27s.42-.49.59-.91c.17-.43.29-.79.35-1.08.06-.3.16-.76.29-1.39.32-1.18.72-3.03,1.23-5.54.5-2.52.94-4.77,1.31-6.75l.57-2.93c-.15,0-.37,0-.68.02-.31,0-.53.02-.68.02h-.41c-.66,0-1-.18-1.01-.54,0-.34.3-.51.9-.51h2.08c.62-3.21,1.09-5.21,1.41-6.01.24-.64.53-1.15.87-1.52.8-.91,1.69-1.36,2.66-1.36.72,0,1.34.2,1.85.6.52.4.78.92.78,1.54,0,.47-.15.88-.46,1.23-.31.35-.69.52-1.14.52-.33,0-.59-.1-.79-.29-.2-.19-.3-.44-.3-.75,0-.35.12-.67.37-.98s.6-.5,1.05-.56c-.43-.38-.84-.57-1.24-.57-.27,0-.5.05-.69.15s-.36.27-.51.52-.29.5-.39.77c-.1.27-.21.68-.32,1.25s-.21,1.08-.31,1.56-.22,1.14-.39,1.99c-.17.85-.29,1.48-.37,1.9h2.61c.48,0,.72.15.72.44,0,.4-.34.6-1.01.6h-.06c-.06,0-.17,0-.31-.02-.14-.01-.25-.02-.31-.02h-1.84c-.18.91-.61,3.08-1.29,6.51-.68,3.43-1.07,5.43-1.17,6-.17.75-.34,1.41-.5,1.98-.16.57-.44,1.32-.83,2.23-.4.92-.89,1.63-1.47,2.14-.58.51-1.23.76-1.94.76-.67,0-1.26-.19-1.78-.57-.52-.38-.78-.9-.78-1.56Z"/>
    <path d="m1303.45,323.51c0-2.62.86-4.76,2.57-6.44,1.71-1.67,3.54-2.51,5.47-2.51.93,0,1.71.25,2.32.76.62.51.93,1.17.93,2,0,.29-.04.57-.13.86-.08.29-.24.64-.47,1.04s-.63.77-1.22,1.12c-.59.34-1.3.6-2.15.77-1.12.21-2.65.32-4.57.33-.37,1.6-.56,2.77-.56,3.49,0,.97.2,1.81.61,2.52.4.71,1.04,1.07,1.89,1.07s1.86-.25,2.89-.74,1.93-1.2,2.7-2.1c.33-.41.58-.62.75-.62.11,0,.21.04.3.13.1.09.14.2.14.32,0,.29-.28.71-.84,1.27-.56.56-1.4,1.11-2.51,1.66-1.11.54-2.27.82-3.46.82-1.4,0-2.54-.53-3.39-1.58s-1.28-2.44-1.28-4.18Zm2.95-2.82c4.76,0,7.14-1.13,7.14-3.39,0-.59-.19-1.07-.56-1.44-.38-.37-.87-.55-1.48-.55-.33,0-.69.07-1.09.21-.4.14-.85.38-1.37.71-.52.33-1.02.89-1.49,1.67-.48.78-.86,1.71-1.14,2.79Z"/>
    <path d="m1318.77,328.13c0-.06.07-.4.22-1.01l2.31-9.14c.13-.48.19-.83.19-1.05,0-.32-.2-.5-.58-.55-.39-.05-.78-.09-1.16-.11s-.58-.15-.58-.4c0-.34.23-.56.68-.65.21-.04.93-.09,2.17-.16.31-.56.72-.84,1.24-.86.33,0,.56.09.7.28.14.18.21.36.21.53,0,.15-.08.56-.25,1.23,1.09-1.11,2.24-1.67,3.47-1.67.8,0,1.53.17,2.19.51.65.34.98.88.98,1.61,0,.43-.15.82-.45,1.16s-.68.51-1.13.51c-.31,0-.57-.1-.78-.29-.22-.19-.32-.44-.32-.73,0-.67.4-1.19,1.2-1.54-.56-.32-1.13-.48-1.71-.48-1.42,0-2.68.99-3.77,2.96-.21.39-.39.86-.53,1.4-.14.55-.79,3.17-1.97,7.86-.1.48-.2.77-.3.88-.09.11-.29.17-.6.17h-.67c-.49,0-.74-.15-.74-.46Z"/>
    <path d="m1330.42,323.51c0-2.62.86-4.76,2.57-6.44,1.71-1.67,3.54-2.51,5.47-2.51.93,0,1.71.25,2.32.76.62.51.93,1.17.93,2,0,.29-.04.57-.13.86-.08.29-.24.64-.47,1.04s-.63.77-1.22,1.12c-.59.34-1.3.6-2.15.77-1.12.21-2.65.32-4.57.33-.37,1.6-.56,2.77-.56,3.49,0,.97.2,1.81.6,2.52.4.71,1.04,1.07,1.9,1.07s1.85-.25,2.89-.74c1.04-.5,1.94-1.2,2.7-2.1.33-.41.58-.62.75-.62.11,0,.21.04.3.13.1.09.14.2.14.32,0,.29-.28.71-.84,1.27-.56.56-1.4,1.11-2.51,1.66-1.11.54-2.27.82-3.46.82-1.41,0-2.54-.53-3.39-1.58s-1.28-2.44-1.28-4.18Zm2.95-2.82c4.76,0,7.14-1.13,7.14-3.39,0-.59-.19-1.07-.56-1.44-.38-.37-.87-.55-1.48-.55-.33,0-.69.07-1.09.21-.4.14-.85.38-1.37.71-.52.33-1.02.89-1.49,1.67-.48.78-.86,1.71-1.14,2.79Z"/>
    <path d="m1345.74,328.4c0-.25.06-.58.19-1.01l2.44-9.9s.03-.13.07-.28.05-.25.05-.31c0-.33-.2-.51-.59-.55s-.78-.07-1.16-.09-.58-.15-.58-.38c0-.31.17-.5.5-.59.33-.08,1.12-.16,2.38-.22.19-.11.47-.16.86-.17h.42c.49,0,.74.16.74.49,0,.08-.1.51-.3,1.29,1.33-1.4,2.77-2.1,4.32-2.1h.03c.89,0,1.68.26,2.37.78.69.52,1.03,1.39,1.03,2.63,0,1.08-.42,2.84-1.28,5.29s-1.28,3.91-1.28,4.39c0,.58.24.87.73.87.64,0,1.2-.35,1.68-1.06.48-.7.84-1.45,1.09-2.23s.4-1.19.46-1.23c.08-.06.19-.09.32-.09.29,0,.43.14.43.41,0,.15-.08.47-.24.96s-.39,1.04-.69,1.66c-.3.61-.73,1.15-1.29,1.62s-1.17.71-1.85.71c-.74,0-1.34-.25-1.8-.75-.46-.5-.69-1.12-.69-1.87,0-.37.4-1.73,1.21-4.08.81-2.35,1.21-4.07,1.21-5.15,0-1.41-.53-2.11-1.59-2.11-.63,0-1.25.17-1.84.51-.59.34-1.09.76-1.5,1.25s-.74.94-.99,1.36c-.25.42-.44.77-.55,1.05-.04.13-.73,2.87-2.05,8.22-.17,1.06-.62,1.6-1.38,1.61-.26,0-.47-.08-.64-.24-.17-.16-.25-.38-.25-.66Z"/>
    <path d="m1363.4,323.96c0-2.38.87-4.54,2.61-6.48,1.74-1.94,3.62-2.91,5.62-2.91.98,0,1.8.26,2.45.78s.98,1.19.98,2.01c0,.67-.17,1.16-.51,1.47-.34.32-.72.48-1.12.48-.3,0-.55-.1-.76-.29-.2-.2-.3-.45-.3-.75,0-.17.03-.35.1-.55.07-.2.23-.41.48-.63.25-.23.59-.36,1.02-.4-.43-.91-1.2-1.36-2.32-1.36-.35,0-.72.08-1.12.23-.4.15-.87.42-1.41.81-.54.39-1.07,1.03-1.58,1.94-.51.91-.93,2.01-1.28,3.32-.38,1.39-.57,2.55-.57,3.49s.21,1.8.62,2.45c.42.65,1.06.98,1.93.98.78,0,1.54-.14,2.28-.42.74-.28,1.39-.66,1.94-1.13s.94-.82,1.15-1.04c.22-.22.43-.47.64-.75l.03-.03c.15-.11.3-.1.46.02.16.12.24.26.24.41,0,.26-.27.67-.82,1.23-.55.56-1.38,1.11-2.49,1.65-1.12.54-2.28.81-3.48.81-1.43,0-2.58-.5-3.47-1.49-.89-1-1.33-2.27-1.33-3.82Z"/>
    <path d="m1376.83,323.51c0-2.62.86-4.76,2.57-6.44,1.71-1.67,3.54-2.51,5.47-2.51.93,0,1.71.25,2.32.76.62.51.93,1.17.93,2,0,.29-.04.57-.13.86-.08.29-.24.64-.47,1.04s-.63.77-1.22,1.12c-.59.34-1.3.6-2.15.77-1.12.21-2.65.32-4.57.33-.37,1.6-.56,2.77-.56,3.49,0,.97.2,1.81.61,2.52.4.71,1.04,1.07,1.89,1.07s1.86-.25,2.89-.74,1.93-1.2,2.7-2.1c.33-.41.58-.62.75-.62.11,0,.21.04.3.13.1.09.14.2.14.32,0,.29-.28.71-.84,1.27-.56.56-1.4,1.11-2.51,1.66-1.11.54-2.27.82-3.46.82-1.4,0-2.54-.53-3.39-1.58s-1.28-2.44-1.28-4.18Zm2.95-2.82c4.76,0,7.14-1.13,7.14-3.39,0-.59-.19-1.07-.56-1.44-.38-.37-.87-.55-1.48-.55-.33,0-.69.07-1.09.21-.4.14-.85.38-1.37.71-.52.33-1.02.89-1.49,1.67-.48.78-.86,1.71-1.14,2.79Z"/>
    <path d="m1391.73,327.64c0-.45.21-.87.63-1.27.42-.39.9-.59,1.44-.59.41,0,.75.12,1.01.37.26.24.4.54.4.9,0,.45-.21.87-.63,1.27-.42.39-.91.59-1.46.59-.41,0-.75-.12-1.01-.37-.26-.25-.39-.54-.39-.9Z"/>
    <path d="m1007.73,367.78v-6.5c0-.24,0-.41.02-.49,0-.08.05-.16.11-.22s.16-.1.29-.1c.24,0,.38.11.4.33.06,2.14.74,3.8,2.02,4.98,1.26,1.17,2.97,1.75,5.14,1.75,1.3,0,2.36-.47,3.17-1.4.81-.93,1.21-2.01,1.21-3.23s-.34-2.17-1.03-2.99c-.29-.37-.61-.67-.97-.91-.36-.24-.65-.39-.87-.47-.22-.07-.54-.16-.96-.27-2.68-.64-4.11-1-4.28-1.08-1.28-.43-2.3-1.2-3.08-2.29s-1.17-2.31-1.17-3.65c0-1.73.61-3.21,1.84-4.44,1.23-1.23,2.73-1.84,4.51-1.84.89,0,1.71.14,2.46.42.75.28,1.28.55,1.58.8.31.25.7.61,1.18,1.06l1.13-1.85c.17-.29.34-.43.5-.43.17,0,.28.05.31.15s.06.31.06.63v6.53c0,.24,0,.41-.02.49-.01.08-.05.15-.12.21-.07.05-.17.08-.3.08-.21,0-.35-.13-.4-.38-.6-4.52-2.71-6.78-6.32-6.78-1.24,0-2.26.41-3.07,1.24-.81.83-1.21,1.82-1.21,2.99,0,.95.29,1.81.87,2.58s1.37,1.28,2.35,1.52l4.15.99c1.41.33,2.59,1.11,3.54,2.34.95,1.23,1.42,2.65,1.42,4.25,0,1.84-.61,3.43-1.82,4.76-1.21,1.33-2.76,2-4.65,2-1.34,0-2.52-.22-3.55-.67-1.03-.45-1.83-.98-2.38-1.61-.45.72-.82,1.29-1.11,1.69l-.1.16c-.17.29-.34.43-.51.43-.17,0-.28-.05-.31-.16-.03-.11-.05-.31-.05-.62Z"/>
    <path d="m1024.81,360.7c0-2.04.65-3.78,1.96-5.23,1.31-1.45,2.9-2.17,4.78-2.17s3.35.62,4.33,1.84,1.48,2.73,1.48,4.49c0,.34-.04.55-.13.61s-.31.1-.68.1h-9.06c0,2.21.33,3.84.98,4.88.91,1.45,2.13,2.18,3.66,2.18.21,0,.45-.02.7-.06s.64-.16,1.17-.34c.52-.18,1.01-.53,1.47-1.02.46-.5.82-1.14,1.08-1.92.06-.31.19-.46.4-.44.27,0,.41.13.41.38,0,.19-.1.5-.31.92-.21.43-.5.89-.9,1.4s-.96.95-1.72,1.33c-.76.38-1.59.57-2.5.57-1.9,0-3.57-.72-5-2.16-1.43-1.44-2.15-3.22-2.15-5.35Zm2.72-1.06h7.7c0-.45-.04-.93-.12-1.44-.08-.5-.23-1.11-.46-1.81-.23-.7-.61-1.27-1.13-1.71-.53-.44-1.18-.66-1.96-.66-.35,0-.71.07-1.08.22-.38.15-.79.4-1.24.76-.45.36-.84.94-1.16,1.75-.32.81-.5,1.77-.54,2.89Z"/>
    <path d="m1039.21,373.12c1.15,0,1.86-.07,2.13-.21.27-.14.4-.56.4-1.24v-15.18c0-.72-.13-1.17-.4-1.35-.27-.18-.98-.27-2.13-.27v-1.01l4.67-.35v2.14c1.3-1.43,2.81-2.14,4.55-2.14,1.84,0,3.43.71,4.77,2.14,1.34,1.43,2.01,3.16,2.01,5.2s-.71,3.8-2.14,5.22c-1.43,1.42-3.13,2.14-5.1,2.14-1.08,0-1.98-.28-2.7-.83-.72-.55-1.15-1.03-1.29-1.44v5.73c0,.69.14,1.11.41,1.25.28.14.98.21,2.12.21v1.01c-2.27-.06-3.49-.1-3.66-.1-.21,0-1.43.03-3.64.1v-1.01Zm4.77-8.96c0,.33.02.55.07.67.05.12.18.35.39.7.86,1.31,1.98,1.97,3.38,1.97h.03c1.24,0,2.32-.63,3.26-1.9.94-1.26,1.41-2.85,1.41-4.75s-.43-3.36-1.28-4.63c-.86-1.27-1.88-1.9-3.06-1.9-.85,0-1.64.23-2.38.68-.74.45-1.35,1.09-1.82,1.92v7.25Z"/>
    <path d="m1056.92,354.86v-.71c.99-.04,1.82-.41,2.48-1.12.66-.7,1.1-1.49,1.33-2.35.23-.87.35-1.8.37-2.8h.81v5.97h4.64v1.01h-4.64v9.03c0,2.34.73,3.51,2.19,3.51.62,0,1.14-.32,1.55-.96s.62-1.53.62-2.67v-1.79h.81v1.85c0,1.17-.27,2.19-.81,3.07-.54.88-1.34,1.31-2.41,1.31-.39,0-.78-.05-1.17-.15s-.83-.28-1.33-.54c-.5-.26-.91-.71-1.22-1.35-.31-.64-.47-1.42-.47-2.35v-8.95h-2.76Z"/>
    <path d="m1069.79,360.7c0-2.04.65-3.78,1.96-5.23,1.31-1.45,2.9-2.17,4.78-2.17s3.35.62,4.33,1.84,1.48,2.73,1.48,4.49c0,.34-.04.55-.13.61s-.31.1-.68.1h-9.06c0,2.21.33,3.84.98,4.88.91,1.45,2.13,2.18,3.66,2.18.21,0,.45-.02.7-.06s.64-.16,1.17-.34c.52-.18,1.01-.53,1.47-1.02.46-.5.82-1.14,1.08-1.92.06-.31.19-.46.4-.44.27,0,.41.13.41.38,0,.19-.1.5-.31.92-.21.43-.5.89-.9,1.4s-.96.95-1.72,1.33c-.76.38-1.59.57-2.5.57-1.9,0-3.57-.72-5-2.16-1.43-1.44-2.15-3.22-2.15-5.35Zm2.72-1.06h7.7c0-.45-.04-.93-.12-1.44-.08-.5-.23-1.11-.46-1.81-.23-.7-.61-1.27-1.13-1.71-.53-.44-1.18-.66-1.96-.66-.35,0-.71.07-1.08.22-.38.15-.79.4-1.24.76-.45.36-.84.94-1.16,1.75-.32.81-.5,1.77-.54,2.89Z"/>
    <path d="m1084.31,367.84v-1.01c1.16,0,1.87-.07,2.14-.21s.4-.56.4-1.26v-8.69c0-.8-.14-1.3-.42-1.5-.28-.2-.99-.3-2.11-.3v-1.01l4.56-.35v3.4c1.01-2.27,2.62-3.4,4.81-3.4,2.54,0,3.98,1.06,4.33,3.17.37-.82.94-1.56,1.72-2.2s1.77-.97,2.99-.97c1.63,0,2.76.4,3.41,1.2.48.54.76,1.11.86,1.71s.14,1.68.14,3.24v6.19c.02.45.21.73.55.83s1.01.15,1.98.15v1.01c-2.21-.06-3.42-.1-3.63-.1-.17,0-1.39.03-3.68.1v-1.01c1.15,0,1.86-.07,2.13-.21s.4-.56.4-1.26v-7.55c0-1.1-.17-1.97-.51-2.62-.34-.65-.97-.97-1.9-.97-1.12,0-2.13.47-3.03,1.41-.9.94-1.35,2.2-1.35,3.78v5.95c0,.7.13,1.12.4,1.26s.98.21,2.13.21v1.01c-2.21-.06-3.42-.1-3.64-.1-.17,0-1.39.03-3.66.1v-1.01c1.15,0,1.86-.07,2.13-.21s.4-.56.4-1.26v-7.55c0-1.1-.17-1.97-.51-2.62-.34-.65-.97-.97-1.91-.97-1.12,0-2.13.47-3.03,1.41-.9.94-1.35,2.2-1.35,3.78v5.95c0,.7.14,1.12.41,1.26.27.14.98.21,2.13.21v1.01c-2.21-.06-3.42-.1-3.64-.1-.17,0-1.39.03-3.67.1Z"/>
    <path d="m1110.29,346.69v-1.01l4.67-.35v10.28c1.26-1.4,2.74-2.11,4.45-2.11,1.86,0,3.47.71,4.83,2.14s2.04,3.16,2.04,5.2-.71,3.8-2.14,5.23-3.13,2.14-5.1,2.14c-1.8,0-3.21-.79-4.25-2.38-.76,1.32-1.15,1.99-1.17,2.01h-.81v-19.34c0-.8-.14-1.3-.43-1.51-.29-.2-.99-.3-2.11-.3Zm4.77,17.47c0,.46.15.91.46,1.36.86,1.31,1.98,1.97,3.38,1.97h.03c1.51,0,2.74-.69,3.68-2.08.67-1.04,1-2.57,1-4.6s-.31-3.52-.93-4.52c-.87-1.39-2-2.08-3.41-2.08-1.58,0-2.86.69-3.83,2.08-.24.35-.36.74-.36,1.17v6.69Z"/>
    <path d="m1129.2,360.7c0-2.04.66-3.78,1.96-5.23s2.9-2.17,4.78-2.17,3.35.62,4.33,1.84c.99,1.23,1.48,2.73,1.48,4.49,0,.34-.04.55-.13.61-.08.07-.31.1-.68.1h-9.06c0,2.21.33,3.84.98,4.88.91,1.45,2.13,2.18,3.66,2.18.21,0,.45-.02.7-.06.25-.04.64-.16,1.17-.34.52-.18,1.01-.53,1.47-1.02.46-.5.82-1.14,1.08-1.92.06-.31.19-.46.4-.44.27,0,.41.13.41.38,0,.19-.1.5-.31.92s-.5.89-.9,1.4-.96.95-1.72,1.33c-.75.38-1.59.57-2.5.57-1.9,0-3.57-.72-5-2.16-1.43-1.44-2.15-3.22-2.15-5.35Zm2.73-1.06h7.7c0-.45-.04-.93-.12-1.44-.08-.5-.23-1.11-.46-1.81s-.6-1.27-1.13-1.71-1.18-.66-1.96-.66c-.35,0-.71.07-1.08.22s-.79.4-1.24.76c-.45.36-.84.94-1.16,1.75-.32.81-.5,1.77-.54,2.89Z"/>
    <path d="m1143.6,367.84v-1.01c1.15,0,1.86-.07,2.13-.21.27-.14.4-.56.4-1.26v-8.69c0-.8-.14-1.3-.42-1.5-.28-.2-.98-.3-2.12-.3v-1.01l4.52-.35v3.56c.31-.93.78-1.75,1.43-2.48.65-.72,1.5-1.08,2.56-1.08.7,0,1.27.2,1.72.59.45.39.67.86.67,1.39,0,.48-.15.83-.44,1.07-.29.24-.61.36-.96.36-.39,0-.72-.12-.99-.37-.27-.25-.4-.59-.4-1.02,0-.26.06-.5.18-.7.12-.21.23-.35.33-.42.09-.07.17-.12.24-.14-.04-.02-.16-.03-.35-.03-1.19,0-2.13.59-2.81,1.78-.68,1.19-1.02,2.62-1.02,4.31v4.98c0,.62.13,1.03.39,1.23s.95.3,2.08.3h.68v1.01c-.87-.06-2.24-.1-4.12-.1-.26,0-.6,0-1.01.02-.41.01-.89.03-1.43.05-.54.02-.96.03-1.27.03Z"/>
    <path d="m1168.88,349.32v-1.01c2.62,0,4.61-.69,5.96-2.08.35,0,.55.04.61.13.06.08.09.32.09.71v18.19c0,.64.17,1.07.49,1.27.33.2,1.21.3,2.65.3h1.07v1.01c-.76-.06-2.51-.1-5.26-.1s-4.49.03-5.24.1v-1.01h1.03c1.36,0,2.21-.1,2.54-.29s.49-.62.49-1.27v-16.79c-1.17.57-2.65.86-4.42.86Z"/>
    <path d="m1183.87,362.53c0-.68.19-1.15.56-1.41s.76-.39,1.16-.39c.47,0,.84.16,1.12.49.27.33.41.72.41,1.18s-.14.85-.41,1.18-.65.49-1.12.49c-.26,0-.46-.02-.6-.06.28.99.86,1.84,1.72,2.56.86.71,1.87,1.07,3.01,1.07,1.45,0,2.61-.72,3.48-2.15.52-.93.78-2.45.78-4.55,0-1.77-.2-3.09-.59-3.98-.6-1.35-1.52-2.02-2.76-2.02-1.75,0-3.14.73-4.18,2.2-.12.19-.24.28-.37.29-.19,0-.31-.06-.35-.18-.04-.12-.06-.34-.06-.67v-9.54c0-.51.11-.77.32-.77.08,0,.22.02.4.07,1.36.43,2.8.65,4.31.66,1.55,0,3.03-.32,4.42-.95.11-.06.19-.09.25-.09.21,0,.32.12.33.36,0,.08-.09.25-.26.51s-.45.56-.82.92c-.37.36-.8.7-1.28,1.04-.48.34-1.07.62-1.77.85-.7.23-1.43.34-2.2.34-.92,0-1.85-.14-2.79-.43v6.29c1.12-1.08,2.5-1.62,4.13-1.62,1.73,0,3.19.68,4.38,2.05,1.19,1.36,1.79,3,1.79,4.9,0,2.08-.7,3.83-2.11,5.26-1.41,1.42-3.06,2.13-4.96,2.13-1.74,0-3.17-.63-4.27-1.88-1.1-1.25-1.65-2.63-1.65-4.14Z"/>
    <path d="m1201.85,367.32c-.31-.35-.46-.75-.46-1.2s.15-.85.45-1.2c.3-.34.73-.51,1.28-.51.64,0,1.15.31,1.52.93.37.62.55,1.44.55,2.48,0,1.12-.23,2.2-.68,3.24s-.9,1.81-1.35,2.31c-.44.5-.75.74-.93.74-.21,0-.32-.12-.32-.35,0-.08.07-.21.22-.36,1.55-1.67,2.33-3.53,2.35-5.58,0-.33-.02-.49-.06-.49l-.08.06c-.37.31-.78.46-1.22.46-.54,0-.96-.17-1.27-.52Z"/>
    <path d="m1219.99,367.84c0-.39.02-.64.05-.76s.14-.26.3-.44l6.18-6.94c2.28-2.56,3.41-4.96,3.41-7.19,0-1.44-.38-2.68-1.14-3.71-.76-1.03-1.83-1.55-3.22-1.55-.94,0-1.81.29-2.61.86-.8.58-1.38,1.38-1.74,2.4.06-.02.2-.03.42-.03.53,0,.94.17,1.24.51.3.34.44.74.44,1.2,0,.59-.18,1.02-.55,1.3-.37.28-.73.42-1.1.42-.14,0-.31-.02-.5-.05s-.44-.2-.74-.5c-.3-.3-.45-.73-.45-1.27,0-1.51.57-2.86,1.7-4.06,1.13-1.2,2.57-1.8,4.31-1.8,1.97,0,3.59.59,4.88,1.76,1.29,1.18,1.94,2.68,1.94,4.51,0,.65-.1,1.26-.29,1.85-.19.59-.42,1.11-.68,1.56-.26.45-.73,1.05-1.42,1.78-.69.73-1.32,1.35-1.87,1.87-.56.52-1.46,1.33-2.7,2.43l-3.41,3.35h5.81c1.89,0,2.91-.08,3.05-.25.21-.31.45-1.27.71-2.88h.81l-.9,5.64h-11.93Z"/>
    <path d="m1235.87,357.46c0-3.18.4-5.63,1.2-7.37,1.12-2.58,3-3.87,5.64-3.87.56,0,1.13.08,1.72.23s1.25.52,2,1.1c.75.58,1.34,1.35,1.8,2.3.87,1.84,1.3,4.37,1.3,7.6s-.4,5.6-1.2,7.32c-1.17,2.51-3.05,3.77-5.64,3.77-.97,0-1.95-.25-2.94-.74-.99-.5-1.79-1.34-2.42-2.54-.97-1.79-1.46-4.39-1.46-7.81Zm2.69-.4c0,3.26.12,5.54.35,6.84.26,1.4.76,2.41,1.48,3.02s1.49.91,2.29.91c.87,0,1.66-.33,2.38-.97s1.2-1.68,1.42-3.08c.24-1.38.36-3.62.35-6.72,0-3.01-.11-5.12-.32-6.32-.29-1.4-.8-2.39-1.56-2.95-.76-.57-1.51-.85-2.27-.85-.29,0-.58.04-.88.13-.3.08-.67.25-1.1.49-.43.24-.82.67-1.15,1.27-.33.6-.58,1.36-.74,2.27-.17,1.17-.25,3.16-.25,5.97Z"/>
    <path d="m1252.44,367.84c0-.39.02-.64.05-.76s.14-.26.3-.44l6.18-6.94c2.28-2.56,3.41-4.96,3.41-7.19,0-1.44-.38-2.68-1.14-3.71-.76-1.03-1.83-1.55-3.22-1.55-.94,0-1.81.29-2.61.86-.8.58-1.38,1.38-1.74,2.4.06-.02.2-.03.42-.03.53,0,.94.17,1.24.51.3.34.44.74.44,1.2,0,.59-.18,1.02-.55,1.3-.37.28-.73.42-1.1.42-.14,0-.31-.02-.5-.05s-.44-.2-.74-.5c-.3-.3-.45-.73-.45-1.27,0-1.51.57-2.86,1.7-4.06,1.13-1.2,2.57-1.8,4.31-1.8,1.97,0,3.59.59,4.88,1.76,1.29,1.18,1.94,2.68,1.94,4.51,0,.65-.1,1.26-.29,1.85-.19.59-.42,1.11-.68,1.56-.26.45-.73,1.05-1.42,1.78-.69.73-1.32,1.35-1.87,1.87-.56.52-1.46,1.33-2.7,2.43l-3.41,3.35h5.81c1.89,0,2.91-.08,3.05-.25.21-.31.45-1.27.71-2.88h.81l-.9,5.64h-11.93Z"/>
    <path d="m1268.41,363.45c0-.65.15-1.13.46-1.44.31-.31.66-.46,1.05-.46.5,0,.93.16,1.29.49.36.32.54.77.54,1.33,0,.61-.21,1.08-.63,1.42-.42.34-.93.47-1.53.39.52.86,1.26,1.48,2.22,1.87.96.39,1.89.58,2.78.58s1.78-.4,2.53-1.21,1.14-2.19,1.14-4.16c0-1.66-.33-2.97-.98-3.93-.65-.96-1.62-1.44-2.9-1.44h-1.43c-.37,0-.61-.01-.71-.05-.11-.03-.16-.13-.16-.3,0-.2.2-.33.59-.37.33,0,.75-.03,1.27-.09,1.26-.04,2.22-.61,2.89-1.72.6-1.03.91-2.27.91-3.73,0-1.31-.31-2.24-.95-2.79-.63-.55-1.35-.82-2.17-.82-.76,0-1.57.15-2.41.46-.84.31-1.49.8-1.94,1.49,1.35,0,2.03.55,2.03,1.66,0,.48-.15.89-.46,1.2s-.71.48-1.21.48-.88-.15-1.2-.46c-.32-.31-.48-.72-.48-1.25,0-1.23.56-2.26,1.67-3.11,1.11-.85,2.49-1.27,4.12-1.27s2.95.42,4.12,1.26c1.17.84,1.75,1.9,1.75,3.19s-.41,2.46-1.24,3.52-1.89,1.8-3.2,2.24c1.65.33,2.96,1.04,3.95,2.15.98,1.11,1.47,2.33,1.47,3.69,0,1.7-.67,3.17-2,4.41-1.33,1.25-2.97,1.87-4.92,1.87-1.72,0-3.2-.49-4.43-1.46-1.23-.97-1.85-2.19-1.85-3.64Z"/>
    <path d="m1286.52,367.32c-.31-.35-.46-.75-.46-1.2s.15-.85.45-1.2.73-.51,1.28-.51c.64,0,1.15.31,1.52.93.37.62.55,1.44.55,2.48,0,1.12-.23,2.2-.68,3.24s-.9,1.81-1.35,2.31c-.44.5-.75.74-.93.74-.21,0-.32-.12-.32-.35,0-.08.07-.21.22-.36,1.55-1.67,2.33-3.53,2.34-5.58,0-.33-.02-.49-.06-.49l-.08.06c-.37.31-.78.46-1.22.46-.54,0-.96-.17-1.27-.52Z"/>
    <path d="m1304.21,367.84v-1.01h.78c1.17,0,1.89-.1,2.16-.29s.4-.61.4-1.24v-17.08c0-.62-.14-1.03-.41-1.23s-.99-.29-2.15-.29h-.78v-1.01h11.92c2.07,0,3.8.55,5.18,1.66,1.38,1.1,2.07,2.38,2.07,3.83,0,1.19-.51,2.27-1.54,3.22-1.03.95-2.34,1.58-3.94,1.89,1.8.19,3.29.83,4.48,1.91,1.19,1.08,1.78,2.32,1.78,3.73,0,1.59-.68,2.97-2.04,4.16-1.36,1.19-3.09,1.79-5.18,1.79h-12.72Zm6.04-11.88h4.71c1.67,0,2.95-.5,3.84-1.5.89-1,1.34-2.1,1.34-3.3,0-1.06-.36-2.06-1.07-3.03-.71-.96-1.78-1.44-3.21-1.44h-4.02c-.74,0-1.19.07-1.35.22-.16.15-.24.51-.24,1.08v7.97Zm0,9.57c0,.56.08.92.24,1.07s.61.23,1.35.23h4.06c1.55,0,2.78-.51,3.68-1.53s1.35-2.17,1.35-3.44-.39-2.46-1.18-3.55c-.79-1.09-1.91-1.64-3.38-1.64h-6.1v8.86Z"/>
    <path d="m1326.9,360.7c0-2.04.66-3.78,1.96-5.23s2.9-2.17,4.78-2.17,3.35.62,4.33,1.84c.99,1.23,1.48,2.73,1.48,4.49,0,.34-.04.55-.13.61-.08.07-.31.1-.68.1h-9.06c0,2.21.33,3.84.98,4.88.91,1.45,2.13,2.18,3.66,2.18.21,0,.45-.02.7-.06.25-.04.64-.16,1.17-.34.52-.18,1.01-.53,1.47-1.02.46-.5.82-1.14,1.08-1.92.06-.31.19-.46.4-.44.27,0,.41.13.41.38,0,.19-.1.5-.31.92s-.5.89-.9,1.4-.96.95-1.72,1.33c-.75.38-1.59.57-2.5.57-1.9,0-3.57-.72-5-2.16-1.43-1.44-2.15-3.22-2.15-5.35Zm2.73-1.06h7.7c0-.45-.04-.93-.12-1.44-.08-.5-.23-1.11-.46-1.81s-.6-1.27-1.13-1.71-1.18-.66-1.96-.66c-.35,0-.71.07-1.08.22s-.79.4-1.24.76c-.45.36-.84.94-1.16,1.75-.32.81-.5,1.77-.54,2.89Z"/>
    <path d="m1341.3,367.84v-1.01c1.15,0,1.86-.07,2.13-.21s.4-.56.4-1.26v-8.69c0-.8-.14-1.3-.42-1.5-.28-.2-.99-.3-2.12-.3v-1.01l4.52-.35v3.56c.31-.93.78-1.75,1.43-2.48.65-.72,1.5-1.08,2.56-1.08.7,0,1.27.2,1.72.59.45.39.67.86.67,1.39,0,.48-.14.83-.44,1.07-.29.24-.61.36-.96.36-.39,0-.72-.12-.99-.37s-.4-.59-.4-1.02c0-.26.06-.5.18-.7.12-.21.23-.35.32-.42.1-.07.17-.12.24-.14-.04-.02-.16-.03-.35-.03-1.19,0-2.13.59-2.81,1.78-.68,1.19-1.02,2.62-1.02,4.31v4.98c0,.62.13,1.03.39,1.23s.95.3,2.08.3h.68v1.01c-.87-.06-2.24-.1-4.12-.1-.26,0-.6,0-1.01.02s-.89.03-1.43.05c-.54.02-.96.03-1.27.03Z"/>
    <path d="m1354.15,367.84v-1.01c1.15,0,1.86-.07,2.12-.21.26-.14.4-.56.4-1.26v-16.86c0-.8-.14-1.3-.42-1.5-.28-.2-.98-.3-2.1-.3v-1.01l4.66-.35v20.03c0,.7.14,1.12.41,1.26s.98.21,2.12.21v1.01c-.26,0-.67-.01-1.22-.03s-1.02-.04-1.43-.05-.72-.02-.95-.02c-.25,0-1.45.03-3.6.1Z"/>
    <path d="m1363.13,367.84v-1.01c1.15,0,1.86-.07,2.12-.21.26-.14.4-.56.4-1.26v-8.72c0-.8-.13-1.3-.4-1.49s-.93-.29-1.99-.29v-1.01l4.53-.35v11.88c0,.64.12,1.04.35,1.2s.88.24,1.93.24v1.01c-2.21-.06-3.33-.1-3.37-.1-.3,0-1.48.03-3.57.1Zm1.32-19.99c0-.43.17-.83.52-1.18s.76-.53,1.24-.53.89.16,1.22.48.51.73.51,1.24-.17.91-.51,1.24-.75.48-1.22.48c-.51,0-.93-.17-1.26-.52-.33-.35-.5-.75-.5-1.2Z"/>
    <path d="m1372.07,367.84v-1.01c1.16,0,1.87-.07,2.14-.21s.4-.56.4-1.26v-8.69c0-.8-.14-1.3-.42-1.5-.28-.2-.99-.3-2.11-.3v-1.01l4.56-.35v3.4c1.01-2.27,2.62-3.4,4.81-3.4,1.63,0,2.76.4,3.41,1.2.48.54.76,1.11.86,1.71s.15,1.68.15,3.24v6.19c.02.45.21.73.55.83s1.01.15,1.98.15v1.01c-2.21-.06-3.42-.1-3.64-.1-.17,0-1.39.03-3.66.1v-1.01c1.15,0,1.86-.07,2.13-.21.27-.14.4-.56.4-1.26v-7.55c0-1.1-.17-1.97-.51-2.62-.34-.65-.97-.97-1.91-.97-1.12,0-2.13.47-3.03,1.41-.9.94-1.35,2.2-1.35,3.78v5.95c0,.7.14,1.12.41,1.26.27.14.98.21,2.13.21v1.01c-2.21-.06-3.42-.1-3.64-.1-.17,0-1.39.03-3.67.1Z"/>
    <path d="m1392.27,367.31c-.32-.35-.48-.76-.48-1.22s.16-.86.48-1.19c.32-.33.73-.5,1.21-.5s.86.16,1.17.47c.32.31.47.72.47,1.23s-.17.92-.5,1.25-.72.49-1.14.49c-.49,0-.89-.18-1.21-.53Z"/>
  </g>
</svg>