<?xml version="1.0" encoding="UTF-8"?>
<svg id="Layer_2" data-name="Layer 2" xmlns="http://www.w3.org/2000/svg" viewBox="0 0 400 400">
  <defs>
    <style>
      .cls-1 {
        fill: #fff;
      }
    </style>
  </defs>
  <rect width="400" height="400"/>
  <path class="cls-1" d="m30.89,234.57v-4.28h1.68c5.25,0,8.64-.35,10.19-1.05,1.55-.7,2.32-2.32,2.32-4.86v-74.55c0-2.67-.79-4.34-2.35-4.99-1.57-.66-4.91-.99-10.02-.99h-1.82v-4.28h48.13c7.5,0,13.7,1.27,18.61,3.8,4.2,2.22,7.55,5.05,10.07,8.51,2.52,3.46,3.78,7.13,3.78,11.02,0,1.59-.24,3.22-.71,4.9-.48,1.68-1.42,3.7-2.85,6.05-1.42,2.36-3.77,4.53-7.03,6.53-3.26,1.99-7.28,3.51-12.07,4.56,7.69.54,14.23,3.14,19.61,7.77,5.38,4.64,8.08,10.11,8.08,16.4s-2.51,11.83-7.53,16.6c-5.02,4.78-11.22,7.64-18.59,8.59-1.58.18-3.96.27-7.12.27H30.89Zm25.87-51.06h19.59c4.25,0,7.97-.71,11.15-2.14,3.19-1.43,5.57-3.25,7.15-5.48,1.58-2.22,2.72-4.41,3.42-6.56.7-2.15,1.05-4.25,1.05-6.29,0-1.77-.28-3.63-.85-5.58-.56-1.95-1.47-4.01-2.71-6.19-1.24-2.18-3.23-3.95-5.97-5.34-2.73-1.38-5.95-2.07-9.66-2.07h-16.14c-2.67,0-4.51.29-5.53.88-1.02.59-1.52,1.99-1.52,4.22v34.55Zm0,41.35c0,2.31.42,3.79,1.25,4.45.84.66,2.86.98,6.07.98h16.41c7.14,0,12.61-2.16,16.41-6.48,3.8-4.32,5.7-9.27,5.7-14.84s-1.7-10.56-5.09-15.24c-3.39-4.69-8.45-7.03-15.19-7.03h-25.56v38.16Z"/>
  <path class="cls-1" d="m124.14,211.16v-3.16h1.35c3.91,0,6.42-.26,7.54-.78,1.12-.52,1.68-1.71,1.68-3.58v-54.71c0-1.9-.58-3.11-1.75-3.63-1.17-.52-3.66-.78-7.46-.78h-1.35v-3.16h57.76l2.86,23.09-2.55-3.11c-.39-2.09-.69-3.69-.89-4.79-.21-1.1-.82-2.67-1.85-4.71-1.03-2.03-2.33-3.57-3.92-4.59-2.83-1.82-8.16-2.73-15.98-2.73h-8.5c-3.17,0-5.15.17-5.94.5-.79.33-1.22,1.4-1.29,3.21v25.1h8.22c5.14,0,8.45-.75,9.92-2.26,1.47-1.51,2.2-4.73,2.2-9.66h2.55v27.1h-2.55c0-5.03-.76-8.29-2.28-9.78-1.52-1.49-4.83-2.24-9.94-2.24h-8.12v27.6c0,1.84.39,2.95,1.18,3.33s2.89.58,6.33.58h9.51c2.67,0,4.84-.08,6.51-.23s3.58-.58,5.73-1.3,3.95-1.76,5.38-3.13c1.3-1.3,2.45-3.22,3.45-5.74s1.63-4.51,1.89-5.95.68-3.76,1.25-6.94l2.55.2-4.28,26.25h-59.19Z"/>
  <path class="cls-1" d="m188.76,230.9v-4.03h1.73c4.9,0,8.07-.33,9.5-.99,1.43-.66,2.18-2.19,2.27-4.57v-70.33c0-2.35-.73-3.85-2.17-4.51-1.45-.66-4.65-.99-9.59-.99h-1.73v-4.03h38.62c8.99,0,16.33,1.41,22,4.21,4.65,2.26,8.28,5.09,10.9,8.49,2.62,3.41,3.93,7.02,3.93,10.86,0,4.1-1.53,7.9-4.6,11.4-3.07,3.5-7.27,6.25-12.6,8.26-.68.26-2.6.83-5.76,1.73,3.84,1.24,6.96,2.84,9.37,4.8,2.41,1.96,4.13,4.28,5.18,6.97,1.04,2.69,1.79,5.28,2.24,7.77.45,2.49.91,5.51,1.37,9.05.47,3.54,1.07,6.48,1.79,8.82,1.41,4.65,3.75,6.97,7.03,6.97,1.83,0,3.41-.63,4.73-1.89,1.32-1.26,2.19-2.61,2.62-4.06.43-1.45.81-2.92,1.15-4.41l.38-2.11c.28-.6.81-.9,1.6-.9,1.11,0,1.67.68,1.67,2.05,0,1.15-.17,2.43-.52,3.84-.35,1.41-.95,2.94-1.79,4.6s-2.19,3.06-4.01,4.19c-1.83,1.13-3.98,1.69-6.46,1.69s-4.93-.31-7.26-.93c-2.32-.62-4.63-1.6-6.91-2.94-2.28-1.34-4.11-3.37-5.5-6.07-1.39-2.71-2.08-5.94-2.08-9.69v-9.34c0-4.52-1.35-8.5-4.06-11.96-2.71-3.45-7.3-5.18-13.78-5.18h-14.52v33.25c0,2.6.75,4.24,2.24,4.92,1.49.68,4.82,1.02,9.98,1.02h1.28v4.03c-6.48-.26-12.85-.38-19.12-.38s-12.64.13-19.12.38Zm24.75-46.23h12.21c3.84,0,7.11-.23,9.82-.7,2.71-.47,5.28-1.39,7.71-2.75,2.43-1.37,4.28-3.36,5.56-5.99,1.28-2.63,1.92-5.95,1.92-9.96,0-6.49-1.71-11.41-5.12-14.76-3.41-3.35-9.31-5.03-17.71-5.03h-5.76c-3.84,0-6.23.23-7.19.7-.96.47-1.44,1.9-1.44,4.29v34.2Z"/>
  <path class="cls-1" d="m276.94,211.25c0-13.98,4.74-25.7,14.23-35.16,9.48-9.46,20.51-14.19,33.08-14.19,9.57,0,17.89,3.86,24.95,11.59,5.07-7.2,7.81-10.93,8.21-11.19.18-.18.42-.26.73-.26,1.01,0,1.5.99,1.46,2.98v32.8c0,1.9-.62,2.84-1.85,2.84-.88,0-1.47-.25-1.75-.76-.29-.51-.52-1.38-.69-2.62-1.19-8.39-4.4-15.69-9.63-21.9-5.23-6.21-11.92-9.31-20.08-9.31-2.69,0-5.44.35-8.24,1.06-2.8.71-5.83,2.11-9.1,4.21-3.26,2.1-6.13,4.73-8.6,7.88-2.47,3.16-4.54,7.52-6.22,13.08-1.68,5.57-2.51,11.88-2.51,18.95s.79,12.87,2.38,18.23c1.59,5.36,3.59,9.66,6.02,12.91,2.43,3.24,5.27,5.96,8.54,8.14,3.26,2.18,6.41,3.68,9.43,4.5,3.02.82,6.08,1.22,9.16,1.22,4.9,0,9.42-1.14,13.56-3.41,4.15-2.27,6.57-5.39,7.28-9.36.18-.88.26-2.27.26-4.17v-8.01c0-2.91-.79-4.73-2.38-5.46s-5.8-1.09-12.64-1.09h-1.79v-4.17l21.31.26h6.35l10.72-.26v4.17h-.46c-3.79,0-6.25.32-7.38.96-1.12.64-1.69,2.22-1.69,4.73v23.75c0,1.99-.4,2.98-1.19,2.98-.44,0-1.26-.46-2.45-1.39-2.51-2.07-4.54-4.41-6.09-7.01h-.13c-2.16,3.79-5.55,6.68-10.16,8.67-4.61,1.99-9.67,2.98-15.19,2.98-12.75,0-23.84-4.72-33.28-14.16-9.44-9.44-14.16-21.11-14.16-35.01Z"/>
</svg>