<?xml version="1.0" encoding="UTF-8"?>
<svg xmlns="http://www.w3.org/2000/svg" xmlns:xlink="http://www.w3.org/1999/xlink" viewBox="0 0 2046.12 2558.28">
  <defs>
    <style>
      .cls-1 {
        fill: #fdd205;
      }

      .cls-2 {
        fill: #7f6917;
      }

      .cls-3 {
        fill: #806516;
      }

      .cls-4 {
        fill: #a78912;
      }

      .cls-5 {
        fill: #c4a00b;
      }

      .cls-6 {
        fill: #e0b70a;
      }

      .cls-7 {
        fill: #241f12;
      }

      .cls-8 {
        fill: #242013;
      }

      .cls-9 {
        fill: #1d1d1b;
      }

      .cls-10 {
        fill: #594514;
      }

      .cls-11 {
        fill: #594a15;
      }

      .cls-12 {
        filter: url(#outer-glow-1);
      }
    </style>
    <filter id="outer-glow-1" filterUnits="userSpaceOnUse">
      <feOffset dx="0" dy="0"/>
      <feGaussianBlur result="blur" stdDeviation="2.83"/>
      <feFlood flood-color="#fff" flood-opacity="1"/>
      <feComposite in2="blur" operator="in"/>
      <feComposite in="SourceGraphic"/>
    </filter>
  </defs>
  <g id="Layer_5" data-name="Layer 5">
    <g class="cls-12">
      <path class="cls-9" d="M1103.17,1187.23h-8.01v6.79h9.34v2.07h-11.77v-19.17h11.65v2.08h-9.22v6.16h8.01v2.07Z"/>
      <path class="cls-9" d="M1121.73,1179h-5.93v17.09h-2.37v-17.09h-5.92v-2.08h14.22v2.08Z"/>
      <path class="cls-9" d="M1137.01,1196.09h-2.3v-8.86h-7.86v8.86h-2.29v-19.17h2.29v8.24h7.86v-8.24h2.3v19.17Z"/>
      <path class="cls-9" d="M1141.14,1196.09v-19.17h5.7c.79,0,1.56,.11,2.32,.31,.75,.2,1.43,.5,2.01,.92s1.06,.94,1.41,1.58c.35,.64,.52,1.41,.51,2.3,0,.5-.09,.96-.24,1.37-.15,.41-.36,.78-.63,1.11s-.58,.62-.94,.86c-.36,.25-.74,.46-1.15,.63,.51,.15,.98,.36,1.4,.64,.43,.28,.79,.61,1.1,1s.55,.83,.72,1.32c.17,.49,.26,1.02,.26,1.59,0,.9-.16,1.69-.51,2.37-.35,.68-.82,1.26-1.41,1.72s-1.27,.81-2.03,1.06c-.77,.25-1.56,.37-2.38,.38h-6.14Zm2.45-10.99h3.4c.46,0,.9-.08,1.34-.22,.44-.14,.83-.33,1.17-.59,.34-.26,.62-.58,.83-.96,.21-.38,.32-.82,.32-1.32,0-.54-.1-.99-.31-1.37-.21-.38-.48-.69-.83-.93-.35-.24-.75-.42-1.2-.53-.45-.11-.92-.18-1.39-.18h-3.33v6.1Zm0,2.03v6.9h3.75c.51,0,.99-.09,1.45-.26,.46-.16,.86-.39,1.21-.68,.35-.29,.63-.65,.84-1.07,.21-.42,.31-.9,.31-1.44,0-.54-.08-1.03-.27-1.45s-.45-.78-.78-1.07c-.33-.29-.72-.52-1.17-.68-.45-.16-.93-.25-1.45-.26h-3.88Z"/>
      <path class="cls-9" d="M1160.2,1185.33h1.74c.61,0,1.16-.08,1.63-.25,.47-.17,.87-.4,1.19-.68,.32-.29,.56-.64,.73-1.04,.17-.4,.25-.85,.25-1.33,0-1.11-.29-1.96-.86-2.52-.57-.57-1.4-.85-2.5-.85-.52,0-.99,.08-1.42,.23-.43,.15-.79,.38-1.09,.67s-.54,.64-.71,1.04c-.17,.4-.25,.86-.25,1.36h-2.45c0-.73,.14-1.42,.43-2.06,.29-.65,.69-1.21,1.21-1.69s1.14-.86,1.86-1.13,1.53-.42,2.42-.42,1.65,.12,2.36,.35c.71,.23,1.32,.58,1.83,1.03,.51,.46,.9,1.02,1.18,1.7,.28,.68,.42,1.46,.42,2.34,0,.37-.06,.75-.17,1.15-.11,.4-.29,.78-.53,1.15-.24,.37-.54,.72-.92,1.05-.37,.33-.82,.6-1.34,.82,.62,.2,1.14,.47,1.56,.79s.75,.69,1,1.09c.25,.4,.43,.83,.53,1.28,.1,.45,.15,.89,.15,1.33,0,.9-.15,1.69-.46,2.38-.31,.69-.73,1.28-1.28,1.76-.54,.48-1.19,.84-1.93,1.09-.74,.25-1.54,.38-2.4,.38s-1.64-.12-2.38-.36c-.74-.24-1.38-.58-1.93-1.04-.54-.46-.98-1.01-1.3-1.67-.32-.66-.48-1.41-.48-2.25h2.44c0,.5,.08,.96,.26,1.37,.17,.41,.41,.76,.73,1.05,.32,.29,.7,.51,1.15,.67s.95,.24,1.51,.24,1.05-.07,1.5-.22c.45-.14,.83-.37,1.15-.66,.32-.3,.56-.67,.73-1.11s.26-.97,.26-1.57-.1-1.11-.3-1.55c-.2-.43-.47-.8-.83-1.09s-.79-.5-1.29-.65-1.06-.21-1.67-.21h-1.74v-1.98Z"/>
      <path class="cls-9" d="M1179.88,1188.27h-3.83v7.82h-2.42v-19.17h5.62c.9,.02,1.74,.14,2.53,.38,.79,.24,1.48,.59,2.07,1.07s1.06,1.07,1.4,1.78c.34,.72,.51,1.56,.51,2.52,0,.62-.09,1.19-.27,1.71s-.43,.99-.74,1.41c-.32,.42-.69,.79-1.13,1.12-.44,.33-.92,.6-1.45,.83l4.07,8.19v.16h-2.58l-3.77-7.82Zm-3.83-2h3.27c.54,0,1.06-.09,1.54-.26,.48-.16,.91-.4,1.27-.7,.36-.31,.65-.68,.86-1.13s.32-.95,.32-1.53c0-.61-.1-1.15-.3-1.61-.2-.46-.48-.85-.84-1.16-.36-.31-.79-.55-1.28-.7s-1.04-.24-1.63-.25h-3.2v7.35Z"/>
      <path class="cls-9" d="M1192.47,1194.02h9.38v2.07h-11.81v-19.17h2.44v17.1Z"/>
      <path class="cls-9" d="M1205.9,1176.92h11.59v2.12h-4.59v14.94h4.59v2.11h-11.59v-2.11h4.49v-14.94h-4.49v-2.12Z"/>
      <path class="cls-9" d="M1234.09,1196.09h-2.48l-7.44-14.33-.04,14.33h-2.46v-19.17h2.48l7.44,14.3,.04-14.3h2.46v19.17Z"/>
    </g>
  </g>
  <g id="Layer_4" data-name="Layer 4">
    <g>
      <path class="cls-1" d="M1101.67,949.7v2.19h-.21c-.81,0-1.53,.08-2.17,.25-.64,.17-1.2,.4-1.68,.68-.48,.29-.9,.63-1.24,1.03-.35,.4-.63,.84-.86,1.31-.23,.47-.4,.97-.53,1.49-.12,.52-.2,1.04-.24,1.58,.23-.27,.49-.52,.79-.76,.3-.23,.62-.43,.97-.61,.35-.17,.72-.31,1.12-.41,.4-.1,.82-.15,1.26-.15,.96,0,1.78,.18,2.48,.55s1.26,.85,1.71,1.44c.45,.6,.78,1.27,.99,2.03s.32,1.52,.32,2.3c0,.9-.12,1.74-.38,2.53-.25,.79-.62,1.48-1.12,2.07-.5,.59-1.12,1.06-1.86,1.4-.74,.34-1.6,.51-2.57,.51-.69,0-1.33-.1-1.9-.3-.57-.2-1.09-.48-1.55-.82s-.86-.76-1.2-1.23c-.34-.47-.62-.98-.85-1.53-.22-.54-.39-1.11-.51-1.7-.11-.59-.17-1.18-.17-1.76v-1.15c0-.88,.05-1.76,.17-2.64,.11-.88,.3-1.73,.56-2.53,.26-.81,.62-1.56,1.07-2.27,.45-.71,1.01-1.32,1.69-1.84,.68-.52,1.49-.93,2.43-1.22s2.04-.45,3.29-.45h.21Zm-3.19,8.64c-.41,0-.81,.07-1.2,.2-.39,.13-.75,.32-1.08,.55s-.63,.52-.88,.86c-.25,.33-.46,.7-.61,1.11v.82c0,.84,.1,1.59,.3,2.25,.2,.65,.47,1.2,.82,1.65,.34,.45,.74,.79,1.18,1.02,.45,.23,.92,.35,1.41,.35,.57,0,1.08-.11,1.51-.33,.44-.22,.81-.52,1.11-.91s.53-.85,.68-1.39c.15-.54,.23-1.13,.23-1.76,0-.56-.07-1.11-.21-1.64-.14-.53-.36-1-.65-1.42-.29-.41-.65-.74-1.09-.99-.44-.25-.95-.37-1.54-.37Z"/>
      <path class="cls-1" d="M1114.61,964.96l4.53-15.25h2.59l-6.04,19.17h-2.12l-6.06-19.17h2.61l4.49,15.25Z"/>
      <path class="cls-1" d="M1127.21,963.72l.29,2.04,.36-2.04,2.28-9.09h1.57l2.26,9.09,.38,2.24,.36-2.24,1.58-9.09h2.16l-3.03,14.25h-1.92l-2.23-8.73-.37-2.21-.36,2.21-2.2,8.73h-1.92l-3.03-14.25h2.16l1.66,9.09Z"/>
      <path class="cls-1" d="M1150.57,954.37c.23,0,.46,0,.71,.02,.25,.01,.48,.04,.7,.07s.43,.07,.62,.11c.19,.04,.34,.09,.47,.15l-.33,2.38c-.47-.11-.92-.18-1.35-.23s-.87-.07-1.34-.07c-1.14,0-2.07,.26-2.77,.78-.71,.52-1.23,1.24-1.56,2.17v9.14h-2.45v-14.25h2.32l.12,2.26c.58-.78,1.28-1.4,2.09-1.85,.81-.45,1.74-.68,2.77-.68Z"/>
      <path class="cls-1" d="M1159.06,954.64h7.19v14.34c0,.91-.12,1.72-.38,2.42-.25,.7-.61,1.29-1.09,1.77-.48,.48-1.06,.84-1.75,1.09-.69,.25-1.47,.38-2.35,.38-.5,0-.97-.02-1.4-.05s-.89-.09-1.38-.18l.17-2c.15,.03,.34,.05,.57,.07s.46,.04,.69,.05,.46,.02,.67,.03c.21,0,.38,0,.51,0,.46,0,.89-.06,1.29-.18,.4-.12,.75-.32,1.05-.6,.3-.28,.53-.65,.7-1.11s.26-1.03,.26-1.71v-12.22h-4.75v-2.12Zm4.41-3.75c0-.4,.12-.73,.36-1.01,.24-.28,.6-.42,1.09-.42s.86,.14,1.11,.42,.37,.61,.37,1.01-.12,.73-.37,.99-.61,.4-1.11,.4-.86-.13-1.09-.4c-.24-.27-.36-.6-.36-.99Z"/>
      <path class="cls-1" d="M1182.75,963.92h-6.4l-1.54,4.96h-2.44l6.19-19.17h2.04l6.08,19.17h-2.42l-1.51-4.96Zm-5.74-2.12h5.1l-2.53-8.32-2.57,8.32Z"/>
      <path class="cls-1" d="M1199.29,963.7l1.46-13.98h2.3l-2.33,19.17h-2.49l-2.46-14.44-2.49,14.44h-2.5l-2.33-19.17h2.32l1.46,13.98,2.46-13.98h2.12l2.48,13.98Z"/>
      <path class="cls-1" d="M1211.9,957.23l4.13-7.52h2.87l-5.57,9.51,5.7,9.66h-2.84l-4.24-7.66-4.25,7.66h-2.88l5.71-9.66-5.57-9.51h2.86l4.08,7.52Z"/>
      <path class="cls-1" d="M1224.14,966.82h9.93v2.07h-12.68l-.03-1.9,9.55-15.2h-9.38v-2.08h12.15l.03,1.86-9.57,15.25Z"/>
      <path class="cls-6" d="M1092.69,982.07h11.59v2.12h-4.59v14.94h4.59v2.11h-11.59v-2.11h4.49v-14.94h-4.49v-2.12Z"/>
      <path class="cls-6" d="M1120.88,1001.24h-2.48l-7.44-14.33-.04,14.33h-2.46v-19.17h2.48l7.44,14.3,.04-14.3h2.46v19.17Z"/>
      <path class="cls-6" d="M1126.7,987h7.19v14.34c0,.91-.12,1.72-.38,2.42-.25,.7-.61,1.29-1.09,1.77-.48,.48-1.06,.84-1.75,1.09-.69,.25-1.47,.38-2.35,.38-.5,0-.97-.02-1.4-.05s-.89-.09-1.38-.18l.17-2c.15,.03,.34,.05,.57,.07s.46,.04,.69,.05,.46,.02,.67,.03c.21,0,.38,0,.51,0,.46,0,.89-.06,1.29-.18,.4-.12,.75-.32,1.05-.6,.3-.28,.53-.65,.7-1.11s.26-1.03,.26-1.71v-12.22h-4.75v-2.12Zm4.41-3.75c0-.4,.12-.73,.36-1.01,.24-.28,.6-.42,1.09-.42s.86,.14,1.11,.42,.37,.61,.37,1.01-.12,.73-.37,.99-.61,.4-1.11,.4-.86-.13-1.09-.4c-.24-.27-.36-.6-.36-.99Z"/>
      <path class="cls-6" d="M1146.98,997.32l4.53-15.25h2.59l-6.04,19.17h-2.12l-6.06-19.17h2.61l4.49,15.25Z"/>
      <path class="cls-6" d="M1163.71,1001.51c-1,0-1.92-.17-2.76-.51-.84-.34-1.56-.82-2.15-1.44-.6-.61-1.06-1.34-1.4-2.19-.33-.84-.5-1.76-.5-2.75v-.55c0-1.15,.18-2.18,.55-3.09,.37-.91,.86-1.68,1.47-2.3,.61-.63,1.3-1.11,2.08-1.44,.78-.33,1.57-.5,2.39-.5,1.03,0,1.92,.18,2.69,.53,.77,.36,1.41,.85,1.92,1.47,.51,.63,.89,1.37,1.14,2.22,.25,.85,.38,1.77,.38,2.77v1.09h-10.18c.03,.65,.15,1.26,.38,1.83s.53,1.07,.92,1.49c.39,.43,.86,.76,1.4,1.01,.54,.25,1.15,.37,1.8,.37,.87,0,1.64-.18,2.32-.53s1.24-.82,1.69-1.4l1.49,1.16c-.24,.36-.53,.7-.89,1.03s-.77,.62-1.23,.88c-.47,.25-.99,.46-1.58,.61-.59,.15-1.23,.23-1.92,.23Zm-.32-12.77c-.49,0-.96,.09-1.4,.27-.44,.18-.83,.44-1.18,.79-.35,.35-.65,.77-.89,1.28-.24,.5-.41,1.09-.51,1.74h7.66v-.18c-.03-.47-.12-.94-.27-1.41-.15-.47-.38-.88-.68-1.25-.3-.37-.67-.67-1.13-.9-.45-.23-.99-.34-1.61-.34Z"/>
      <path class="cls-6" d="M1173.98,987h7.28v12.14h4.65v2.11h-11.93v-2.11h4.85v-10.02h-4.85v-2.12Zm4.53-3.74c0-.4,.12-.74,.36-1.02s.61-.42,1.1-.42,.85,.14,1.09,.42,.37,.62,.37,1.02-.12,.72-.37,.99c-.25,.26-.61,.4-1.09,.4s-.86-.13-1.1-.4c-.24-.26-.36-.59-.36-.99Z"/>
      <path class="cls-6" d="M1195.43,991.7l4.37-9.62h2.76l-5.96,12.02-.04,7.15h-2.26l-.04-7.15-5.96-12.02h2.78l4.36,9.62Z"/>
      <path class="cls-6" d="M1218.1,983.44l-7.94,17.8h-2.55l7.91-17.04h-10.38v-2.13h12.96v1.37Z"/>
      <path class="cls-6" d="M1228.22,999.53c.44,0,.87-.07,1.28-.21,.42-.14,.79-.34,1.11-.59,.32-.25,.59-.54,.78-.88s.3-.7,.31-1.1h2.3c0,.63-.17,1.24-.49,1.81-.32,.58-.75,1.08-1.28,1.51-.54,.43-1.15,.78-1.84,1.04-.69,.26-1.42,.39-2.17,.39-1.08,0-2.02-.19-2.83-.58s-1.48-.91-2.02-1.56c-.54-.65-.95-1.41-1.22-2.26s-.41-1.76-.41-2.71v-.55c0-.94,.14-1.84,.41-2.7s.68-1.62,1.22-2.27,1.21-1.17,2.02-1.56c.81-.39,1.75-.58,2.83-.58,.84,0,1.62,.13,2.32,.4,.71,.27,1.32,.63,1.83,1.09,.51,.46,.92,1.01,1.21,1.64,.29,.63,.43,1.31,.43,2.03h-2.3c0-.43-.1-.84-.28-1.22s-.42-.72-.73-1.01c-.31-.29-.67-.52-1.1-.68-.43-.17-.88-.25-1.38-.25-.75,0-1.39,.15-1.9,.45-.51,.3-.93,.7-1.25,1.19-.32,.49-.54,1.03-.68,1.64-.14,.61-.2,1.22-.2,1.83v.55c0,.62,.07,1.24,.2,1.85,.14,.61,.36,1.16,.67,1.65,.31,.49,.72,.88,1.24,1.19s1.15,.45,1.92,.45Z"/>
      <path class="cls-5" d="M1095.44,1031.54h9.38v2.07h-11.81v-19.17h2.44v17.1Z"/>
      <path class="cls-5" d="M1118.11,1031.64c-.47,.7-1.07,1.25-1.78,1.64-.71,.39-1.53,.59-2.46,.59-.75,0-1.42-.12-2.03-.35-.61-.23-1.12-.59-1.55-1.09-.43-.49-.76-1.12-.99-1.88s-.35-1.67-.35-2.73v-8.47h2.44v8.49c0,.77,.06,1.41,.18,1.92s.31,.92,.55,1.22c.25,.3,.55,.52,.9,.64s.77,.18,1.23,.18c.99,0,1.79-.2,2.4-.61,.61-.4,1.06-.95,1.36-1.63v-10.22h2.45v14.25h-2.21l-.15-1.96Z"/>
      <path class="cls-5" d="M1127.67,1031.44c.87,0,1.63-.08,2.29-.23,.66-.15,1.23-.37,1.72-.65s.89-.61,1.22-.99,.59-.8,.8-1.26,.36-.95,.45-1.46c.1-.51,.16-1.04,.18-1.57-.21,.26-.45,.51-.72,.74s-.58,.44-.92,.61c-.34,.18-.72,.31-1.14,.41-.42,.1-.87,.15-1.36,.15-.95,0-1.77-.19-2.46-.56-.69-.37-1.26-.86-1.71-1.47-.45-.61-.78-1.29-.99-2.05-.21-.76-.32-1.53-.32-2.3,0-.9,.12-1.76,.38-2.56s.62-1.51,1.12-2.11c.5-.6,1.12-1.08,1.86-1.44,.74-.36,1.6-.53,2.59-.53,.74,0,1.4,.1,2,.31,.59,.21,1.11,.49,1.57,.86s.84,.79,1.17,1.29c.33,.5,.59,1.03,.8,1.61,.21,.57,.36,1.18,.45,1.8,.1,.63,.15,1.26,.15,1.89v.88c0,.82-.04,1.65-.12,2.51-.08,.86-.23,1.68-.47,2.48-.23,.8-.56,1.55-.98,2.26-.42,.71-.97,1.32-1.65,1.85-.68,.53-1.5,.94-2.46,1.25-.97,.31-2.11,.46-3.44,.46h-.25v-2.17h.25Zm2.91-6.27c.41,0,.81-.07,1.21-.2,.39-.14,.75-.33,1.08-.58s.62-.54,.88-.88,.46-.71,.61-1.13v-.79c0-.85-.1-1.61-.3-2.28-.2-.67-.46-1.23-.8-1.69s-.73-.81-1.17-1.06c-.44-.25-.92-.37-1.42-.37-.57,0-1.08,.11-1.51,.34-.44,.23-.81,.54-1.11,.94-.3,.4-.53,.87-.69,1.42-.16,.55-.24,1.14-.24,1.77,0,.56,.07,1.11,.21,1.65,.14,.54,.35,1.02,.64,1.44,.29,.42,.64,.76,1.08,1.02s.95,.39,1.53,.39Z"/>
      <path class="cls-5" d="M1150.6,1033.6c-.1-.18-.17-.41-.23-.69-.06-.28-.1-.56-.12-.86-.25,.25-.52,.48-.82,.7-.3,.22-.64,.41-1,.58-.36,.17-.75,.3-1.17,.4-.41,.1-.85,.14-1.32,.14-.76,0-1.44-.11-2.05-.33s-1.13-.52-1.55-.89-.75-.82-.99-1.33c-.23-.51-.35-1.07-.35-1.67,0-.78,.16-1.47,.47-2.05,.31-.59,.75-1.08,1.32-1.47s1.26-.68,2.06-.88c.8-.19,1.7-.29,2.69-.29h2.66v-1.12c0-.43-.08-.82-.24-1.16-.16-.34-.38-.63-.67-.88-.29-.24-.64-.43-1.06-.56-.42-.13-.88-.2-1.4-.2-.48,0-.92,.06-1.3,.18-.38,.12-.7,.29-.97,.49-.26,.2-.47,.44-.61,.72-.14,.28-.22,.56-.22,.86h-2.45c0-.52,.14-1.03,.4-1.53s.63-.95,1.12-1.35,1.08-.72,1.78-.97c.7-.25,1.49-.37,2.38-.37,.81,0,1.56,.1,2.25,.3,.69,.2,1.29,.5,1.8,.9,.5,.4,.9,.9,1.19,1.49,.29,.6,.43,1.29,.43,2.09v6.62c0,.47,.04,.98,.13,1.51s.21,.99,.37,1.39v.21h-2.54Zm-4.31-1.86c.47,0,.92-.06,1.33-.18,.41-.12,.79-.29,1.13-.49,.34-.2,.63-.43,.88-.69,.25-.26,.44-.53,.58-.81v-2.88h-2.26c-1.42,0-2.53,.21-3.32,.63s-1.18,1.08-1.18,1.99c0,.35,.06,.68,.18,.97,.12,.3,.3,.56,.53,.77,.24,.22,.54,.38,.9,.51,.36,.12,.78,.18,1.25,.18Z"/>
      <path class="cls-5" d="M1157.42,1014.43h11.59v2.12h-4.59v14.94h4.59v2.11h-11.59v-2.11h4.49v-14.94h-4.49v-2.12Z"/>
      <path class="cls-5" d="M1184.27,1025.14h-7.98v8.47h-2.46v-19.17h11.77v2.08h-9.31v6.56h7.98v2.07Z"/>
      <path class="cls-5" d="M1189.33,1026.36c0-1.06,.13-2.04,.39-2.93,.26-.89,.63-1.66,1.13-2.3,.49-.64,1.09-1.14,1.79-1.5s1.5-.54,2.38-.54,1.65,.16,2.31,.47c.66,.31,1.23,.76,1.69,1.35l.12-1.55h2.21v13.94c0,.94-.15,1.77-.44,2.5s-.71,1.35-1.24,1.86c-.53,.51-1.17,.9-1.9,1.16-.74,.26-1.55,.4-2.45,.4-.37,0-.79-.04-1.26-.12-.47-.08-.95-.22-1.44-.41-.49-.19-.96-.44-1.41-.76s-.84-.71-1.17-1.17l1.26-1.46c.3,.36,.61,.67,.92,.92s.64,.45,.96,.6c.33,.15,.65,.26,.97,.32,.32,.07,.65,.1,.97,.1,.58,0,1.1-.08,1.57-.25,.47-.17,.86-.41,1.19-.73,.33-.32,.58-.72,.76-1.19,.17-.47,.26-1.02,.26-1.63v-1.22c-.47,.54-1.03,.96-1.68,1.24-.64,.29-1.39,.43-2.25,.43s-1.65-.18-2.36-.55-1.3-.88-1.78-1.53c-.49-.65-.86-1.42-1.13-2.3s-.39-1.83-.39-2.85v-.28Zm2.44,.28c0,.69,.07,1.35,.22,1.98,.14,.62,.37,1.17,.68,1.65,.31,.47,.71,.85,1.19,1.13,.48,.28,1.06,.42,1.74,.42,.42,0,.8-.05,1.14-.15,.34-.1,.64-.24,.91-.43,.27-.18,.51-.4,.72-.66s.4-.54,.55-.84v-6.53c-.16-.3-.34-.57-.55-.82-.21-.25-.45-.46-.72-.64-.27-.18-.58-.32-.91-.42-.33-.1-.7-.15-1.11-.15-.68,0-1.27,.14-1.76,.42-.49,.28-.89,.66-1.2,1.14-.31,.48-.54,1.03-.68,1.66-.15,.63-.22,1.29-.22,1.98v.28Z"/>
      <path class="cls-5" d="M1212.03,1031.89c.44,0,.87-.07,1.28-.21,.42-.14,.79-.34,1.11-.59,.32-.25,.59-.54,.78-.88s.3-.7,.31-1.1h2.3c0,.63-.17,1.24-.49,1.81-.32,.58-.75,1.08-1.28,1.51-.54,.43-1.15,.78-1.84,1.04-.69,.26-1.42,.39-2.17,.39-1.08,0-2.02-.19-2.83-.58s-1.48-.91-2.02-1.56c-.54-.65-.95-1.41-1.22-2.26s-.41-1.76-.41-2.71v-.55c0-.94,.14-1.84,.41-2.7s.68-1.62,1.22-2.27,1.21-1.17,2.02-1.56c.81-.39,1.75-.58,2.83-.58,.84,0,1.62,.13,2.32,.4,.71,.27,1.32,.63,1.83,1.09,.51,.46,.92,1.01,1.21,1.64,.29,.63,.43,1.31,.43,2.03h-2.3c0-.43-.1-.84-.28-1.22s-.42-.72-.73-1.01c-.31-.29-.67-.52-1.1-.68-.43-.17-.88-.25-1.38-.25-.75,0-1.39,.15-1.9,.45-.51,.3-.93,.7-1.25,1.19-.32,.49-.54,1.03-.68,1.64-.14,.61-.2,1.22-.2,1.83v.55c0,.62,.07,1.24,.2,1.85,.14,.61,.36,1.16,.67,1.65,.31,.49,.72,.88,1.24,1.19s1.15,.45,1.92,.45Z"/>
      <path class="cls-5" d="M1222.53,1013.38h7.28v18.12h4.65v2.11h-11.93v-2.11h4.85v-16h-4.85v-2.12Z"/>
      <path class="cls-4" d="M1098.76,1064.25c.44,0,.87-.07,1.28-.21,.42-.14,.79-.34,1.11-.59,.32-.25,.59-.54,.78-.88s.3-.7,.31-1.1h2.3c0,.63-.17,1.24-.49,1.81-.32,.58-.75,1.08-1.28,1.51-.54,.43-1.15,.78-1.84,1.04-.69,.26-1.42,.39-2.17,.39-1.08,0-2.02-.19-2.83-.58s-1.48-.91-2.02-1.56c-.54-.65-.95-1.41-1.22-2.26s-.41-1.76-.41-2.71v-.55c0-.94,.14-1.84,.41-2.7s.68-1.62,1.22-2.27,1.21-1.17,2.02-1.56c.81-.39,1.75-.58,2.83-.58,.84,0,1.62,.13,2.32,.4,.71,.27,1.32,.63,1.83,1.09,.51,.46,.92,1.01,1.21,1.64,.29,.63,.43,1.31,.43,2.03h-2.3c0-.43-.1-.84-.28-1.22s-.42-.72-.73-1.01c-.31-.29-.67-.52-1.1-.68-.43-.17-.88-.25-1.38-.25-.75,0-1.39,.15-1.9,.45-.51,.3-.93,.7-1.25,1.19-.32,.49-.54,1.03-.68,1.64-.14,.61-.2,1.22-.2,1.83v.55c0,.62,.07,1.24,.2,1.85,.14,.61,.36,1.16,.67,1.65,.31,.49,.72,.88,1.24,1.19s1.15,.45,1.92,.45Z"/>
      <path class="cls-4" d="M1120.9,1058.63c0,1.22-.14,2.3-.42,3.25-.28,.94-.68,1.74-1.21,2.38-.53,.65-1.17,1.13-1.94,1.47s-1.64,.5-2.62,.5-1.85-.17-2.61-.5c-.77-.33-1.42-.82-1.96-1.47-.54-.65-.95-1.44-1.23-2.38-.29-.94-.43-2.03-.43-3.25v-4.49c0-1.22,.14-2.3,.42-3.25,.28-.94,.69-1.74,1.22-2.39,.53-.65,1.18-1.14,1.95-1.48,.77-.34,1.64-.51,2.61-.51s1.86,.17,2.63,.51c.77,.34,1.42,.83,1.95,1.48,.53,.65,.94,1.45,1.22,2.39,.28,.94,.42,2.03,.42,3.25v4.49Zm-9.97-.49l7.47-5.73c-.14-1.27-.51-2.24-1.11-2.9-.6-.66-1.47-.99-2.6-.99-1.28,0-2.23,.43-2.84,1.3s-.92,2.13-.92,3.79v4.54Zm7.52-3.4l-7.45,5.7c.15,1.24,.53,2.18,1.15,2.83s1.47,.97,2.57,.97c1.29,0,2.24-.44,2.84-1.32s.9-2.14,.9-3.79v-4.4Z"/>
      <path class="cls-4" d="M1125.92,1056.35l.96-9.56h9.84v2.37h-7.78l-.54,5.11c.38-.22,.83-.41,1.36-.58,.53-.17,1.14-.25,1.83-.25,.89,0,1.68,.15,2.38,.46s1.3,.74,1.79,1.3c.49,.56,.87,1.23,1.13,2.02,.26,.79,.39,1.67,.39,2.63,0,.91-.12,1.76-.37,2.54-.25,.78-.62,1.46-1.11,2.02-.5,.57-1.12,1.01-1.88,1.33s-1.64,.48-2.66,.48c-.78,0-1.52-.11-2.21-.33s-1.31-.55-1.85-.99c-.54-.44-.98-.99-1.33-1.66s-.56-1.44-.65-2.33h2.32c.15,1.09,.55,1.91,1.21,2.48,.65,.56,1.49,.84,2.52,.84,.58,0,1.09-.1,1.54-.31,.45-.21,.82-.5,1.13-.88,.3-.38,.53-.84,.68-1.38,.15-.54,.23-1.13,.23-1.79,0-.6-.09-1.15-.26-1.67-.17-.52-.42-.97-.74-1.35-.33-.38-.72-.68-1.2-.9-.47-.22-1.02-.33-1.63-.33-.4,0-.75,.03-1.05,.09s-.56,.14-.8,.24c-.24,.11-.46,.23-.67,.38-.21,.15-.42,.32-.64,.51l-1.95-.5Z"/>
      <path class="cls-4" d="M1154.17,1048.87h-5.93v17.09h-2.37v-17.09h-5.92v-2.08h14.22v2.08Z"/>
      <path class="cls-4" d="M1169.49,1059c0,1.02-.12,1.97-.37,2.85-.25,.88-.61,1.65-1.08,2.3-.47,.65-1.06,1.16-1.76,1.53s-1.5,.55-2.4,.55-1.71-.16-2.38-.49c-.67-.32-1.25-.79-1.72-1.4l-.12,1.62h-2.24v-20.23h2.44v7.51c.46-.58,1.03-1.02,1.69-1.33s1.43-.46,2.3-.46,1.72,.18,2.42,.54,1.29,.86,1.76,1.5,.83,1.41,1.08,2.3c.25,.89,.37,1.87,.37,2.93v.28Zm-2.44-.28c0-.69-.07-1.35-.2-1.98-.14-.63-.35-1.18-.65-1.66-.3-.48-.69-.86-1.17-1.14-.48-.28-1.08-.42-1.78-.42-.42,0-.81,.05-1.16,.16-.35,.11-.67,.26-.94,.46-.28,.2-.52,.43-.74,.7-.22,.27-.4,.56-.55,.88v6.23c.16,.32,.34,.61,.56,.88,.21,.27,.46,.5,.74,.7,.28,.2,.6,.36,.95,.47,.35,.11,.74,.16,1.16,.16,.67,0,1.24-.14,1.72-.42s.87-.65,1.17-1.13c.3-.47,.53-1.02,.67-1.65,.15-.62,.22-1.28,.22-1.98v-.28Z"/>
      <path class="cls-4" d="M1176.35,1063.9h9.38v2.07h-11.81v-19.17h2.44v17.1Z"/>
      <path class="cls-4" d="M1195.52,1062.04l4.53-15.25h2.59l-6.04,19.17h-2.12l-6.06-19.17h2.61l4.49,15.25Z"/>
      <path class="cls-4" d="M1205.96,1046.79h11.59v2.12h-4.59v14.94h4.59v2.11h-11.59v-2.11h4.49v-14.94h-4.49v-2.12Z"/>
      <path class="cls-4" d="M1234.17,1059c0,1.02-.12,1.97-.37,2.85-.25,.88-.61,1.65-1.08,2.3-.47,.65-1.06,1.16-1.76,1.53-.7,.37-1.49,.55-2.39,.55s-1.63-.14-2.3-.42c-.66-.28-1.23-.68-1.71-1.21v6.85h-2.44v-19.72h2.22l.12,1.55c.47-.59,1.05-1.04,1.72-1.35,.67-.31,1.45-.47,2.34-.47s1.72,.18,2.42,.54,1.29,.86,1.76,1.5c.47,.64,.83,1.41,1.08,2.3,.25,.89,.37,1.87,.37,2.93v.28Zm-2.44-.28c0-.69-.08-1.35-.23-1.98-.15-.63-.39-1.18-.71-1.66-.32-.48-.73-.86-1.22-1.14-.49-.28-1.08-.42-1.76-.42-.78,0-1.44,.18-1.97,.55s-.95,.83-1.27,1.4v6.86c.32,.56,.74,1.02,1.26,1.38,.53,.36,1.19,.53,2,.53,.68,0,1.26-.14,1.75-.43s.9-.67,1.21-1.15c.32-.48,.55-1.04,.7-1.67,.15-.63,.23-1.29,.23-1.99v-.28Z"/>
      <path class="cls-3" d="M1098.76,1096.61c.44,0,.87-.07,1.28-.21,.42-.14,.79-.34,1.11-.59,.32-.25,.59-.54,.78-.88s.3-.7,.31-1.1h2.3c0,.63-.17,1.24-.49,1.81-.32,.58-.75,1.08-1.28,1.51-.54,.43-1.15,.78-1.84,1.04-.69,.26-1.42,.39-2.17,.39-1.08,0-2.02-.19-2.83-.58s-1.48-.91-2.02-1.56c-.54-.65-.95-1.41-1.22-2.26s-.41-1.76-.41-2.71v-.55c0-.94,.14-1.84,.41-2.7s.68-1.62,1.22-2.27,1.21-1.17,2.02-1.56c.81-.39,1.75-.58,2.83-.58,.84,0,1.62,.13,2.32,.4,.71,.27,1.32,.63,1.83,1.09,.51,.46,.92,1.01,1.21,1.64,.29,.63,.43,1.31,.43,2.03h-2.3c0-.43-.1-.84-.28-1.22s-.42-.72-.73-1.01c-.31-.29-.67-.52-1.1-.68-.43-.17-.88-.25-1.38-.25-.75,0-1.39,.15-1.9,.45-.51,.3-.93,.7-1.25,1.19-.32,.49-.54,1.03-.68,1.64-.14,.61-.2,1.22-.2,1.83v.55c0,.62,.07,1.24,.2,1.85,.14,.61,.36,1.16,.67,1.65,.31,.49,.72,.88,1.24,1.19s1.15,.45,1.92,.45Z"/>
      <path class="cls-3" d="M1114.11,1093.27l.63,1.72,4.34-10.92h2.73l-7.23,16.45c-.17,.37-.38,.76-.64,1.17s-.57,.79-.94,1.15c-.37,.35-.8,.65-1.29,.88-.49,.24-1.06,.36-1.7,.36-.11,0-.24,0-.38-.02s-.28-.03-.42-.05c-.14-.02-.27-.05-.4-.07s-.22-.05-.3-.07l.4-1.99c.06,0,.14,0,.25,.01s.21,.02,.33,.03,.22,.02,.33,.02,.19,0,.25,0c.33,0,.64-.09,.92-.28,.28-.18,.52-.4,.74-.66s.4-.52,.55-.79c.15-.27,.27-.5,.36-.67l.97-1.9-6.14-13.58h2.73l3.91,9.19Z"/>
      <path class="cls-3" d="M1124.6,1091.08c0-1.06,.13-2.04,.39-2.93,.26-.89,.63-1.66,1.13-2.3,.49-.64,1.09-1.14,1.79-1.5s1.5-.54,2.38-.54,1.65,.16,2.31,.47c.66,.31,1.23,.76,1.69,1.35l.12-1.55h2.21v13.94c0,.94-.15,1.77-.44,2.5s-.71,1.35-1.24,1.86c-.53,.51-1.17,.9-1.9,1.16-.74,.26-1.55,.4-2.45,.4-.37,0-.79-.04-1.26-.12-.47-.08-.95-.22-1.44-.41-.49-.19-.96-.44-1.41-.76s-.84-.71-1.17-1.17l1.26-1.46c.3,.36,.61,.67,.92,.92s.64,.45,.96,.6c.33,.15,.65,.26,.97,.32,.32,.07,.65,.1,.97,.1,.58,0,1.1-.08,1.57-.25,.47-.17,.86-.41,1.19-.73,.33-.32,.58-.72,.76-1.19,.17-.47,.26-1.02,.26-1.63v-1.22c-.47,.54-1.03,.96-1.68,1.24-.64,.29-1.39,.43-2.25,.43s-1.65-.18-2.36-.55-1.3-.88-1.78-1.53c-.49-.65-.86-1.42-1.13-2.3s-.39-1.83-.39-2.85v-.28Zm2.44,.28c0,.69,.07,1.35,.22,1.98,.14,.62,.37,1.17,.68,1.65,.31,.47,.71,.85,1.19,1.13,.48,.28,1.06,.42,1.74,.42,.42,0,.8-.05,1.14-.15,.34-.1,.64-.24,.91-.43,.27-.18,.51-.4,.72-.66s.4-.54,.55-.84v-6.53c-.16-.3-.34-.57-.55-.82-.21-.25-.45-.46-.72-.64-.27-.18-.58-.32-.91-.42-.33-.1-.7-.15-1.11-.15-.68,0-1.27,.14-1.76,.42-.49,.28-.89,.66-1.2,1.14-.31,.48-.54,1.03-.68,1.66-.15,.63-.22,1.29-.22,1.98v.28Z"/>
      <path class="cls-3" d="M1153.38,1080.52l-7.94,17.8h-2.55l7.91-17.04h-10.38v-2.13h12.96v1.37Z"/>
      <path class="cls-3" d="M1163.36,1086.67l4.13-7.52h2.87l-5.57,9.51,5.7,9.66h-2.84l-4.24-7.66-4.25,7.66h-2.88l5.71-9.66-5.57-9.51h2.86l4.08,7.52Z"/>
      <path class="cls-3" d="M1185.62,1098.32h-2.3v-8.86h-7.86v8.86h-2.29v-19.17h2.29v8.24h7.86v-8.24h2.3v19.17Z"/>
      <path class="cls-3" d="M1194.05,1091.67l-1.79,1.73v4.92h-2.45v-20.23h2.45v12.38l1.59-1.71,4.67-4.69h2.96l-5.77,5.94,6.65,8.31h-3.09l-5.23-6.65Z"/>
      <path class="cls-3" d="M1208.58,1096.16c.87,0,1.63-.08,2.29-.23,.66-.15,1.23-.37,1.72-.65s.89-.61,1.22-.99,.59-.8,.8-1.26,.36-.95,.45-1.46c.1-.51,.16-1.04,.18-1.57-.21,.26-.45,.51-.72,.74s-.58,.44-.92,.61c-.34,.18-.72,.31-1.14,.41-.42,.1-.87,.15-1.36,.15-.95,0-1.77-.19-2.46-.56-.69-.37-1.26-.86-1.71-1.47-.45-.61-.78-1.29-.99-2.05-.21-.76-.32-1.53-.32-2.3,0-.9,.12-1.76,.38-2.56s.62-1.51,1.12-2.11c.5-.6,1.12-1.08,1.86-1.44,.74-.36,1.6-.53,2.59-.53,.74,0,1.4,.1,2,.31,.59,.21,1.11,.49,1.57,.86s.84,.79,1.17,1.29c.33,.5,.59,1.03,.8,1.61,.21,.57,.36,1.18,.45,1.8,.1,.63,.15,1.26,.15,1.89v.88c0,.82-.04,1.65-.12,2.51-.08,.86-.23,1.68-.47,2.48-.23,.8-.56,1.55-.98,2.26-.42,.71-.97,1.32-1.65,1.85-.68,.53-1.5,.94-2.46,1.25-.97,.31-2.11,.46-3.44,.46h-.25v-2.17h.25Zm2.91-6.27c.41,0,.81-.07,1.21-.2,.39-.14,.75-.33,1.08-.58s.62-.54,.88-.88,.46-.71,.61-1.13v-.79c0-.85-.1-1.61-.3-2.28-.2-.67-.46-1.23-.8-1.69s-.73-.81-1.17-1.06c-.44-.25-.92-.37-1.42-.37-.57,0-1.08,.11-1.51,.34-.44,.23-.81,.54-1.11,.94-.3,.4-.53,.87-.69,1.42-.16,.55-.24,1.14-.24,1.77,0,.56,.07,1.11,.21,1.65,.14,.54,.35,1.02,.64,1.44,.29,.42,.64,.76,1.08,1.02s.95,.39,1.53,.39Z"/>
      <path class="cls-3" d="M1232.18,1093.48c0-.59-.13-1.08-.4-1.49s-.61-.74-1.03-1.02c-.42-.28-.88-.51-1.39-.69-.5-.18-.99-.35-1.46-.5-.68-.22-1.36-.48-2.06-.79-.7-.31-1.33-.68-1.91-1.13s-1.04-.98-1.41-1.59c-.36-.61-.55-1.33-.55-2.15s.18-1.56,.55-2.21,.84-1.2,1.43-1.65,1.26-.79,2-1.02c.75-.23,1.5-.35,2.25-.35,.83,0,1.64,.14,2.41,.42s1.46,.67,2.05,1.17c.6,.5,1.08,1.11,1.44,1.82,.36,.71,.55,1.51,.57,2.38h-2.5c-.07-.55-.21-1.06-.41-1.51s-.47-.84-.8-1.17c-.33-.32-.73-.58-1.19-.76-.46-.18-.98-.27-1.56-.27-.46,0-.92,.07-1.36,.2-.44,.13-.84,.33-1.19,.59s-.62,.59-.83,.97-.31,.83-.31,1.34c0,.55,.15,1.02,.42,1.4,.27,.38,.62,.7,1.03,.97,.42,.26,.87,.48,1.36,.66,.49,.18,.95,.33,1.38,.46,.47,.15,.95,.32,1.43,.51,.48,.19,.95,.41,1.4,.65,.45,.25,.86,.52,1.25,.83,.39,.31,.72,.66,1.01,1.05,.29,.39,.52,.82,.68,1.29s.24,.99,.24,1.56c0,.86-.19,1.61-.57,2.25s-.88,1.17-1.48,1.6-1.29,.75-2.05,.96c-.76,.21-1.53,.32-2.29,.32-.85,0-1.69-.13-2.5-.4-.82-.26-1.55-.64-2.19-1.14s-1.17-1.1-1.57-1.82c-.4-.72-.62-1.53-.65-2.44h2.49c.08,.6,.24,1.13,.49,1.59,.25,.46,.56,.85,.95,1.17,.39,.32,.83,.56,1.34,.72,.5,.16,1.05,.24,1.65,.24,.47,0,.94-.06,1.4-.18,.46-.12,.87-.3,1.23-.55,.36-.25,.65-.57,.88-.95,.23-.38,.34-.84,.34-1.36Z"/>
      <path class="cls-10" d="M1102.19,1125.5l1.46-13.98h2.3l-2.33,19.17h-2.49l-2.46-14.44-2.49,14.44h-2.5l-2.33-19.17h2.32l1.46,13.98,2.46-13.98h2.12l2.48,13.98Z"/>
      <path class="cls-10" d="M1121.8,1113.59h-5.93v17.09h-2.37v-17.09h-5.92v-2.08h14.22v2.08Z"/>
      <path class="cls-10" d="M1136.85,1116.52c0,.96-.27,1.81-.78,2.55-.51,.75-1.19,1.33-2.04,1.75,.49,.21,.94,.47,1.34,.78s.74,.67,1.03,1.07c.29,.4,.5,.84,.66,1.32s.23,.98,.23,1.51c0,.87-.16,1.64-.48,2.32-.32,.68-.75,1.24-1.3,1.71-.55,.46-1.19,.81-1.93,1.05s-1.53,.36-2.37,.36-1.66-.12-2.4-.36c-.74-.24-1.39-.59-1.94-1.05-.55-.46-.98-1.03-1.3-1.71-.32-.68-.47-1.45-.47-2.33,0-.54,.07-1.04,.22-1.52,.15-.48,.36-.92,.64-1.32,.28-.4,.62-.76,1.01-1.07,.39-.32,.84-.58,1.33-.79-.42-.21-.8-.46-1.15-.76-.34-.29-.63-.62-.87-.99-.24-.36-.42-.76-.55-1.19s-.2-.88-.2-1.36c0-.83,.14-1.58,.42-2.23,.28-.65,.67-1.2,1.17-1.65,.5-.45,1.09-.79,1.78-1.03,.69-.24,1.44-.36,2.26-.36s1.56,.12,2.25,.36c.69,.24,1.29,.58,1.8,1.03s.91,1,1.2,1.65c.29,.65,.43,1.4,.43,2.23Zm-2,8.94c0-.54-.09-1.03-.27-1.47s-.43-.83-.76-1.15c-.33-.32-.71-.57-1.17-.74s-.95-.26-1.48-.26-1.05,.09-1.5,.26c-.45,.18-.83,.42-1.15,.74-.32,.32-.56,.7-.73,1.15-.17,.45-.26,.94-.26,1.47s.09,1.05,.26,1.48c.17,.43,.42,.8,.73,1.1,.32,.3,.7,.53,1.15,.68s.96,.24,1.52,.24,1.03-.08,1.47-.24c.45-.16,.83-.39,1.15-.68,.32-.3,.57-.67,.75-1.1s.27-.93,.27-1.48Zm-.45-8.9c0-.48-.08-.93-.24-1.33-.16-.4-.39-.75-.67-1.05-.29-.29-.62-.52-1.02-.69-.39-.16-.83-.24-1.3-.24s-.9,.08-1.29,.23c-.39,.15-.72,.38-1,.67s-.5,.64-.65,1.05c-.15,.41-.23,.86-.23,1.36s.08,.95,.23,1.35c.15,.4,.37,.74,.66,1.03,.29,.29,.62,.5,1.01,.66,.39,.15,.82,.23,1.3,.23s.9-.08,1.29-.23c.39-.15,.73-.37,1.02-.66,.29-.29,.51-.63,.66-1.03,.16-.4,.24-.85,.24-1.34Z"/>
      <path class="cls-10" d="M1150.48,1128.72c-.47,.7-1.07,1.25-1.78,1.64-.71,.39-1.53,.59-2.46,.59-.75,0-1.42-.12-2.03-.35-.61-.23-1.12-.59-1.55-1.09-.43-.49-.76-1.12-.99-1.88s-.35-1.67-.35-2.73v-8.47h2.44v8.49c0,.77,.06,1.41,.18,1.92s.31,.92,.55,1.22c.25,.3,.55,.52,.9,.64s.77,.18,1.23,.18c.99,0,1.79-.2,2.4-.61,.61-.4,1.06-.95,1.36-1.63v-10.22h2.45v14.25h-2.21l-.15-1.96Z"/>
      <path class="cls-10" d="M1166.4,1111.5v2.19h-.21c-.81,0-1.53,.08-2.17,.25-.64,.17-1.2,.4-1.68,.68-.48,.29-.9,.63-1.24,1.03-.35,.4-.63,.84-.86,1.31-.23,.47-.4,.97-.53,1.49-.12,.52-.2,1.04-.24,1.58,.23-.27,.49-.52,.79-.76,.3-.23,.62-.43,.97-.61,.35-.17,.72-.31,1.12-.41,.4-.1,.82-.15,1.26-.15,.96,0,1.78,.18,2.48,.55s1.26,.85,1.71,1.44c.45,.6,.78,1.27,.99,2.03s.32,1.52,.32,2.3c0,.9-.12,1.74-.38,2.53-.25,.79-.62,1.48-1.12,2.07-.5,.59-1.12,1.06-1.86,1.4-.74,.34-1.6,.51-2.57,.51-.69,0-1.33-.1-1.9-.3-.57-.2-1.09-.48-1.55-.82s-.86-.76-1.2-1.23c-.34-.47-.62-.98-.85-1.53-.22-.54-.39-1.11-.51-1.7-.11-.59-.17-1.18-.17-1.76v-1.15c0-.88,.05-1.76,.17-2.64,.11-.88,.3-1.73,.56-2.53,.26-.81,.62-1.56,1.07-2.27,.45-.71,1.01-1.32,1.69-1.84,.68-.52,1.49-.93,2.43-1.22s2.04-.45,3.29-.45h.21Zm-3.19,8.64c-.41,0-.81,.07-1.2,.2-.39,.13-.75,.32-1.08,.55s-.63,.52-.88,.86c-.25,.33-.46,.7-.61,1.11v.82c0,.84,.1,1.59,.3,2.25,.2,.65,.47,1.2,.82,1.65,.34,.45,.74,.79,1.18,1.02,.45,.23,.92,.35,1.41,.35,.57,0,1.08-.11,1.51-.33,.44-.22,.81-.52,1.11-.91s.53-.85,.68-1.39c.15-.54,.23-1.13,.23-1.76,0-.56-.07-1.11-.21-1.64-.14-.53-.36-1-.65-1.42-.29-.41-.65-.74-1.09-.99-.44-.25-.95-.37-1.54-.37Z"/>
      <path class="cls-10" d="M1179.25,1121.14l4.37-9.62h2.76l-5.96,12.02-.04,7.15h-2.26l-.04-7.15-5.96-12.02h2.78l4.36,9.62Z"/>
      <path class="cls-10" d="M1189.33,1123.44c0-1.06,.13-2.04,.39-2.93,.26-.89,.63-1.66,1.13-2.3,.49-.64,1.09-1.14,1.79-1.5s1.5-.54,2.38-.54,1.65,.16,2.31,.47c.66,.31,1.23,.76,1.69,1.35l.12-1.55h2.21v13.94c0,.94-.15,1.77-.44,2.5s-.71,1.35-1.24,1.86c-.53,.51-1.17,.9-1.9,1.16-.74,.26-1.55,.4-2.45,.4-.37,0-.79-.04-1.26-.12-.47-.08-.95-.22-1.44-.41-.49-.19-.96-.44-1.41-.76s-.84-.71-1.17-1.17l1.26-1.46c.3,.36,.61,.67,.92,.92s.64,.45,.96,.6c.33,.15,.65,.26,.97,.32,.32,.07,.65,.1,.97,.1,.58,0,1.1-.08,1.57-.25,.47-.17,.86-.41,1.19-.73,.33-.32,.58-.72,.76-1.19,.17-.47,.26-1.02,.26-1.63v-1.22c-.47,.54-1.03,.96-1.68,1.24-.64,.29-1.39,.43-2.25,.43s-1.65-.18-2.36-.55-1.3-.88-1.78-1.53c-.49-.65-.86-1.42-1.13-2.3s-.39-1.83-.39-2.85v-.28Zm2.44,.28c0,.69,.07,1.35,.22,1.98,.14,.62,.37,1.17,.68,1.65,.31,.47,.71,.85,1.19,1.13,.48,.28,1.06,.42,1.74,.42,.42,0,.8-.05,1.14-.15,.34-.1,.64-.24,.91-.43,.27-.18,.51-.4,.72-.66s.4-.54,.55-.84v-6.53c-.16-.3-.34-.57-.55-.82-.21-.25-.45-.46-.72-.64-.27-.18-.58-.32-.91-.42-.33-.1-.7-.15-1.11-.15-.68,0-1.27,.14-1.76,.42-.49,.28-.89,.66-1.2,1.14-.31,.48-.54,1.03-.68,1.66-.15,.63-.22,1.29-.22,1.98v.28Z"/>
      <path class="cls-10" d="M1209.6,1130.68v-12.36h-3.92v-1.88h3.92v-1c0-.91,.13-1.71,.4-2.4,.27-.69,.64-1.27,1.13-1.73,.49-.46,1.07-.82,1.76-1.05s1.45-.36,2.29-.36c.58,0,1.14,.05,1.69,.15s1.11,.22,1.69,.37l-.29,2.01c-.36-.12-.78-.23-1.26-.32s-.99-.14-1.53-.14c-1.14,0-2,.3-2.57,.87-.57,.57-.86,1.44-.86,2.61v1h5.49v1.88h-5.49v12.36h-2.45Z"/>
      <path class="cls-10" d="M1221.71,1123.44c0-1.06,.13-2.04,.39-2.93,.26-.89,.63-1.66,1.13-2.3,.49-.64,1.09-1.14,1.79-1.5s1.5-.54,2.38-.54,1.65,.16,2.31,.47c.66,.31,1.23,.76,1.69,1.35l.12-1.55h2.21v13.94c0,.94-.15,1.77-.44,2.5s-.71,1.35-1.24,1.86c-.53,.51-1.17,.9-1.9,1.16-.74,.26-1.55,.4-2.45,.4-.37,0-.79-.04-1.26-.12-.47-.08-.95-.22-1.44-.41-.49-.19-.96-.44-1.41-.76s-.84-.71-1.17-1.17l1.26-1.46c.3,.36,.61,.67,.92,.92s.64,.45,.96,.6c.33,.15,.65,.26,.97,.32,.32,.07,.65,.1,.97,.1,.58,0,1.1-.08,1.57-.25,.47-.17,.86-.41,1.19-.73,.33-.32,.58-.72,.76-1.19,.17-.47,.26-1.02,.26-1.63v-1.22c-.47,.54-1.03,.96-1.68,1.24-.64,.29-1.39,.43-2.25,.43s-1.65-.18-2.36-.55-1.3-.88-1.78-1.53c-.49-.65-.86-1.42-1.13-2.3s-.39-1.83-.39-2.85v-.28Zm2.44,.28c0,.69,.07,1.35,.22,1.98,.14,.62,.37,1.17,.68,1.65,.31,.47,.71,.85,1.19,1.13,.48,.28,1.06,.42,1.74,.42,.42,0,.8-.05,1.14-.15,.34-.1,.64-.24,.91-.43,.27-.18,.51-.4,.72-.66s.4-.54,.55-.84v-6.53c-.16-.3-.34-.57-.55-.82-.21-.25-.45-.46-.72-.64-.27-.18-.58-.32-.91-.42-.33-.1-.7-.15-1.11-.15-.68,0-1.27,.14-1.76,.42-.49,.28-.89,.66-1.2,1.14-.31,.48-.54,1.03-.68,1.66-.15,.63-.22,1.29-.22,1.98v.28Z"/>
      <path class="cls-7" d="M1092.44,1163.04v-19.17h4.44c1.33,.02,2.53,.24,3.57,.68,1.05,.43,1.94,1.04,2.66,1.82s1.28,1.71,1.66,2.79,.58,2.28,.59,3.6v1.41c0,1.32-.2,2.52-.59,3.6s-.93,2.01-1.66,2.79-1.61,1.38-2.66,1.82-2.24,.66-3.57,.67h-4.44Zm2.48-17.17v15.18h1.96c1.04,0,1.93-.19,2.69-.55s1.38-.84,1.88-1.46c.5-.61,.86-1.34,1.11-2.17s.37-1.74,.38-2.71v-1.44c0-.97-.14-1.88-.38-2.71-.25-.83-.62-1.55-1.11-2.16-.49-.61-1.12-1.09-1.87-1.44-.75-.35-1.65-.54-2.69-.55h-1.96Z"/>
      <path class="cls-7" d="M1108.84,1163.04v-19.17h5.7c.79,0,1.56,.11,2.32,.31,.75,.2,1.43,.5,2.01,.92s1.06,.94,1.41,1.58c.35,.64,.52,1.41,.51,2.3,0,.5-.09,.96-.24,1.37-.15,.41-.36,.78-.63,1.11s-.58,.62-.94,.86c-.36,.25-.74,.46-1.15,.63,.51,.15,.98,.36,1.4,.64,.43,.28,.79,.61,1.1,1s.55,.83,.72,1.32c.17,.49,.26,1.02,.26,1.59,0,.9-.16,1.69-.51,2.37-.35,.68-.82,1.26-1.41,1.72s-1.27,.81-2.03,1.06c-.77,.25-1.56,.37-2.38,.38h-6.14Zm2.45-10.99h3.4c.46,0,.9-.08,1.34-.22,.44-.14,.83-.33,1.17-.59,.34-.26,.62-.58,.83-.96,.21-.38,.32-.82,.32-1.32,0-.54-.1-.99-.31-1.37-.21-.38-.48-.69-.83-.93-.35-.24-.75-.42-1.2-.53-.45-.11-.92-.18-1.39-.18h-3.33v6.1Zm0,2.03v6.9h3.75c.51,0,.99-.09,1.45-.26,.46-.16,.86-.39,1.21-.68,.35-.29,.63-.65,.84-1.07,.21-.42,.31-.9,.31-1.44,0-.54-.08-1.03-.27-1.45s-.45-.78-.78-1.07c-.33-.29-.72-.52-1.17-.68-.45-.16-.93-.25-1.45-.26h-3.88Z"/>
      <path class="cls-7" d="M1126.17,1148.8l.07,1.34c.29-.5,.67-.89,1.14-1.17s1.04-.43,1.71-.43c1.31,0,2.18,.51,2.62,1.53,.28-.46,.65-.82,1.11-1.1,.46-.28,1.02-.42,1.68-.43,1.04,0,1.85,.32,2.41,.96,.56,.64,.84,1.61,.84,2.91v10.64h-2.32v-10.67c0-1.19-.55-1.79-1.65-1.78-.29,0-.54,.04-.75,.12-.21,.08-.39,.19-.53,.32-.14,.14-.25,.29-.33,.47-.08,.18-.13,.37-.16,.56v10.97h-2.32v-10.68c0-.57-.13-1.01-.38-1.32-.25-.31-.66-.46-1.21-.45-.51,0-.9,.1-1.18,.3-.28,.2-.49,.47-.62,.8v11.34h-2.32v-14.25h2.19Z"/>
      <path class="cls-7" d="M1152.99,1163.04h-12.56v-1.75l6.28-6.98c.56-.62,1.03-1.18,1.41-1.66,.38-.48,.68-.93,.91-1.34s.39-.79,.49-1.16c.1-.36,.14-.74,.14-1.13,0-.47-.08-.92-.23-1.34-.15-.42-.38-.78-.67-1.09-.29-.31-.65-.55-1.07-.73-.42-.18-.89-.27-1.42-.27-.64,0-1.2,.09-1.67,.28-.47,.18-.86,.45-1.17,.78-.31,.34-.54,.75-.7,1.23-.15,.48-.23,1.02-.23,1.62h-2.45c0-.81,.14-1.57,.42-2.28,.28-.72,.69-1.34,1.22-1.88,.53-.54,1.18-.96,1.95-1.28,.77-.32,1.64-.47,2.63-.47,.9,0,1.72,.13,2.44,.4,.72,.27,1.34,.64,1.84,1.11,.5,.47,.88,1.04,1.15,1.69,.27,.65,.4,1.36,.4,2.12,0,.57-.1,1.13-.29,1.69-.19,.56-.46,1.11-.78,1.65-.33,.54-.71,1.08-1.15,1.61s-.89,1.06-1.38,1.59l-5.15,5.58h9.63v1.99Z"/>
      <path class="cls-7" d="M1163.18,1145.35v3.45h5.42v1.88h-5.42v7.74c0,.55,.07,1.01,.21,1.37,.14,.36,.33,.65,.58,.86,.25,.21,.53,.37,.85,.45s.66,.13,1.02,.13c.26,0,.54-.02,.82-.05,.28-.03,.56-.07,.82-.11s.52-.09,.75-.14c.23-.05,.42-.09,.57-.12l.34,1.72c-.2,.12-.45,.23-.74,.32-.29,.09-.61,.17-.95,.24-.34,.07-.71,.12-1.09,.15s-.76,.05-1.14,.05c-.63,0-1.22-.09-1.77-.27-.55-.18-1.03-.47-1.43-.86-.4-.39-.72-.9-.96-1.51-.23-.62-.35-1.37-.35-2.25v-7.74h-3.74v-1.88h3.74v-3.45h2.45Z"/>
      <path class="cls-7" d="M1185.36,1163.04h-12.56v-1.75l6.28-6.98c.56-.62,1.03-1.18,1.41-1.66,.38-.48,.68-.93,.91-1.34s.39-.79,.49-1.16c.1-.36,.14-.74,.14-1.13,0-.47-.08-.92-.23-1.34-.15-.42-.38-.78-.67-1.09-.29-.31-.65-.55-1.07-.73-.42-.18-.89-.27-1.42-.27-.64,0-1.2,.09-1.67,.28-.47,.18-.86,.45-1.17,.78-.31,.34-.54,.75-.7,1.23-.15,.48-.23,1.02-.23,1.62h-2.45c0-.81,.14-1.57,.42-2.28,.28-.72,.69-1.34,1.22-1.88,.53-.54,1.18-.96,1.95-1.28,.77-.32,1.64-.47,2.63-.47,.9,0,1.72,.13,2.44,.4,.72,.27,1.34,.64,1.84,1.11,.5,.47,.88,1.04,1.15,1.69,.27,.65,.4,1.36,.4,2.12,0,.57-.1,1.13-.29,1.69-.19,.56-.46,1.11-.78,1.65-.33,.54-.71,1.08-1.15,1.61s-.89,1.06-1.38,1.59l-5.15,5.58h9.63v1.99Z"/>
      <path class="cls-7" d="M1202.18,1160.53c-.81,.95-1.73,1.65-2.78,2.11-1.04,.46-2.19,.68-3.44,.67-.79,0-1.52-.13-2.18-.36-.66-.23-1.26-.55-1.78-.96-.53-.41-.99-.89-1.38-1.44-.39-.55-.73-1.15-.99-1.8-.27-.65-.47-1.32-.61-2.03-.14-.71-.21-1.42-.22-2.14v-2.23c0-.71,.07-1.42,.19-2.13,.12-.71,.3-1.38,.55-2.03,.25-.65,.55-1.25,.92-1.81,.37-.56,.81-1.04,1.32-1.45s1.09-.73,1.75-.97c.65-.24,1.38-.36,2.19-.36,.9,0,1.72,.14,2.48,.42s1.41,.67,1.97,1.19c.56,.51,1.01,1.13,1.36,1.86,.34,.72,.55,1.53,.63,2.43h-2.41c-.1-.55-.25-1.06-.45-1.53-.2-.47-.47-.87-.8-1.21-.33-.33-.72-.59-1.18-.78-.46-.19-.99-.28-1.59-.28s-1.09,.1-1.54,.3c-.45,.2-.84,.46-1.17,.8-.33,.33-.61,.72-.83,1.17-.22,.44-.4,.91-.54,1.4-.14,.49-.24,.99-.3,1.5-.06,.51-.09,1-.09,1.47v2.25c0,.48,.05,.98,.12,1.49,.08,.51,.19,1.02,.35,1.51,.16,.49,.36,.96,.61,1.4,.25,.44,.54,.83,.89,1.16,.35,.33,.75,.6,1.21,.8,.46,.2,.97,.3,1.55,.31,.33,0,.68,0,1.05-.04s.72-.11,1.06-.21,.66-.25,.96-.43c.3-.18,.55-.42,.75-.7l.03-4.31h-3.9v-2.05h6.21l.04,7.03Z"/>
      <path class="cls-7" d="M1207.08,1148.8l.07,1.34c.29-.5,.67-.89,1.14-1.17s1.04-.43,1.71-.43c1.31,0,2.18,.51,2.62,1.53,.28-.46,.65-.82,1.11-1.1,.46-.28,1.02-.42,1.68-.43,1.04,0,1.85,.32,2.41,.96,.56,.64,.84,1.61,.84,2.91v10.64h-2.32v-10.67c0-1.19-.55-1.79-1.65-1.78-.29,0-.54,.04-.75,.12-.21,.08-.39,.19-.53,.32-.14,.14-.25,.29-.33,.47-.08,.18-.13,.37-.16,.56v10.97h-2.32v-10.68c0-.57-.13-1.01-.38-1.32-.25-.31-.66-.46-1.21-.45-.51,0-.9,.1-1.18,.3-.28,.2-.49,.47-.62,.8v11.34h-2.32v-14.25h2.19Z"/>
      <path class="cls-7" d="M1222.15,1143.87h11.59v2.12h-4.59v14.94h4.59v2.11h-11.59v-2.11h4.49v-14.94h-4.49v-2.12Z"/>
      <path class="cls-9" d="M1103.23,1186.54h-8.01v6.79h9.34v2.07h-11.77v-19.17h11.65v2.08h-9.22v6.16h8.01v2.07Z"/>
      <path class="cls-9" d="M1121.8,1178.31h-5.93v17.09h-2.37v-17.09h-5.92v-2.08h14.22v2.08Z"/>
      <path class="cls-9" d="M1137.07,1195.4h-2.3v-8.86h-7.86v8.86h-2.29v-19.17h2.29v8.24h7.86v-8.24h2.3v19.17Z"/>
      <path class="cls-9" d="M1141.21,1195.4v-19.17h5.7c.79,0,1.56,.11,2.32,.31,.75,.2,1.43,.5,2.01,.92s1.06,.94,1.41,1.58c.35,.64,.52,1.41,.51,2.3,0,.5-.09,.96-.24,1.37-.15,.41-.36,.78-.63,1.11s-.58,.62-.94,.86c-.36,.25-.74,.46-1.15,.63,.51,.15,.98,.36,1.4,.64,.43,.28,.79,.61,1.1,1s.55,.83,.72,1.32c.17,.49,.26,1.02,.26,1.59,0,.9-.16,1.69-.51,2.37-.35,.68-.82,1.26-1.41,1.72s-1.27,.81-2.03,1.06c-.77,.25-1.56,.37-2.38,.38h-6.14Zm2.45-10.99h3.4c.46,0,.9-.08,1.34-.22,.44-.14,.83-.33,1.17-.59,.34-.26,.62-.58,.83-.96,.21-.38,.32-.82,.32-1.32,0-.54-.1-.99-.31-1.37-.21-.38-.48-.69-.83-.93-.35-.24-.75-.42-1.2-.53-.45-.11-.92-.18-1.39-.18h-3.33v6.1Zm0,2.03v6.9h3.75c.51,0,.99-.09,1.45-.26,.46-.16,.86-.39,1.21-.68,.35-.29,.63-.65,.84-1.07,.21-.42,.31-.9,.31-1.44,0-.54-.08-1.03-.27-1.45s-.45-.78-.78-1.07c-.33-.29-.72-.52-1.17-.68-.45-.16-.93-.25-1.45-.26h-3.88Z"/>
      <path class="cls-9" d="M1160.26,1184.65h1.74c.61,0,1.16-.08,1.63-.25,.47-.17,.87-.4,1.19-.68,.32-.29,.56-.64,.73-1.04,.17-.4,.25-.85,.25-1.33,0-1.11-.29-1.96-.86-2.52-.57-.57-1.4-.85-2.5-.85-.52,0-.99,.08-1.42,.23-.43,.15-.79,.38-1.09,.67s-.54,.64-.71,1.04c-.17,.4-.25,.86-.25,1.36h-2.45c0-.73,.14-1.42,.43-2.06,.29-.65,.69-1.21,1.21-1.69s1.14-.86,1.86-1.13,1.53-.42,2.42-.42,1.65,.12,2.36,.35c.71,.23,1.32,.58,1.83,1.03,.51,.46,.9,1.02,1.18,1.7,.28,.68,.42,1.46,.42,2.34,0,.37-.06,.75-.17,1.15-.11,.4-.29,.78-.53,1.15-.24,.37-.54,.72-.92,1.05-.37,.33-.82,.6-1.34,.82,.62,.2,1.14,.47,1.56,.79s.75,.69,1,1.09c.25,.4,.43,.83,.53,1.28,.1,.45,.15,.89,.15,1.33,0,.9-.15,1.69-.46,2.38-.31,.69-.73,1.28-1.28,1.76-.54,.48-1.19,.84-1.93,1.09-.74,.25-1.54,.38-2.4,.38s-1.64-.12-2.38-.36c-.74-.24-1.38-.58-1.93-1.04-.54-.46-.98-1.01-1.3-1.67-.32-.66-.48-1.41-.48-2.25h2.44c0,.5,.08,.96,.26,1.37,.17,.41,.41,.76,.73,1.05,.32,.29,.7,.51,1.15,.67s.95,.24,1.51,.24,1.05-.07,1.5-.22c.45-.14,.83-.37,1.15-.66,.32-.3,.56-.67,.73-1.11s.26-.97,.26-1.57-.1-1.11-.3-1.55c-.2-.43-.47-.8-.83-1.09s-.79-.5-1.29-.65-1.06-.21-1.67-.21h-1.74v-1.98Z"/>
      <path class="cls-9" d="M1179.95,1187.58h-3.83v7.82h-2.42v-19.17h5.62c.9,.02,1.74,.14,2.53,.38,.79,.24,1.48,.59,2.07,1.07s1.06,1.07,1.4,1.78c.34,.72,.51,1.56,.51,2.52,0,.62-.09,1.19-.27,1.71s-.43,.99-.74,1.41c-.32,.42-.69,.79-1.13,1.12-.44,.33-.92,.6-1.45,.83l4.07,8.19v.16h-2.58l-3.77-7.82Zm-3.83-2h3.27c.54,0,1.06-.09,1.54-.26,.48-.16,.91-.4,1.27-.7,.36-.31,.65-.68,.86-1.13s.32-.95,.32-1.53c0-.61-.1-1.15-.3-1.61-.2-.46-.48-.85-.84-1.16-.36-.31-.79-.55-1.28-.7s-1.04-.24-1.63-.25h-3.2v7.35Z"/>
      <path class="cls-9" d="M1192.53,1193.34h9.38v2.07h-11.81v-19.17h2.44v17.1Z"/>
      <path class="cls-9" d="M1205.96,1176.23h11.59v2.12h-4.59v14.94h4.59v2.11h-11.59v-2.11h4.49v-14.94h-4.49v-2.12Z"/>
      <path class="cls-9" d="M1234.16,1195.4h-2.48l-7.44-14.33-.04,14.33h-2.46v-19.17h2.48l7.44,14.3,.04-14.3h2.46v19.17Z"/>
      <path class="cls-8" d="M1097.28,1218.86l-2.13,2.42v6.48h-2.49v-19.17h2.49v9.36l1.86-2.32,5.62-7.04h2.96l-6.7,8.39,7.15,10.78h-2.96l-5.79-8.9Z"/>
      <path class="cls-8" d="M1121.27,1225.25c-.81,.95-1.73,1.65-2.78,2.11-1.04,.46-2.19,.68-3.44,.67-.79,0-1.52-.13-2.18-.36-.66-.23-1.26-.55-1.78-.96-.53-.41-.99-.89-1.38-1.44-.39-.55-.73-1.15-.99-1.8-.27-.65-.47-1.32-.61-2.03-.14-.71-.21-1.42-.22-2.14v-2.23c0-.71,.07-1.42,.19-2.13,.12-.71,.3-1.38,.55-2.03,.25-.65,.55-1.25,.92-1.81,.37-.56,.81-1.04,1.32-1.45s1.09-.73,1.75-.97c.65-.24,1.38-.36,2.19-.36,.9,0,1.72,.14,2.48,.42s1.41,.67,1.97,1.19c.56,.51,1.01,1.13,1.36,1.86,.34,.72,.55,1.53,.63,2.43h-2.41c-.1-.55-.25-1.06-.45-1.53-.2-.47-.47-.87-.8-1.21-.33-.33-.72-.59-1.18-.78-.46-.19-.99-.28-1.59-.28s-1.09,.1-1.54,.3c-.45,.2-.84,.46-1.17,.8-.33,.33-.61,.72-.83,1.17-.22,.44-.4,.91-.54,1.4-.14,.49-.24,.99-.3,1.5-.06,.51-.09,1-.09,1.47v2.25c0,.48,.05,.98,.12,1.49,.08,.51,.19,1.02,.35,1.51,.16,.49,.36,.96,.61,1.4,.25,.44,.54,.83,.89,1.16,.35,.33,.75,.6,1.21,.8,.46,.2,.97,.3,1.55,.31,.33,0,.68,0,1.05-.04s.72-.11,1.06-.21,.66-.25,.96-.43c.3-.18,.55-.42,.75-.7l.03-4.31h-3.9v-2.05h6.21l.04,7.03Z"/>
      <path class="cls-8" d="M1130.64,1224.26l.22,.88,.24-.88,3.99-10.74h2.49l-5.81,14.25h-1.86l-5.86-14.25h2.5l4.08,10.74Z"/>
      <path class="cls-8" d="M1146.82,1224.26l.22,.88,.24-.88,3.99-10.74h2.49l-5.81,14.25h-1.86l-5.86-14.25h2.5l4.08,10.74Z"/>
      <path class="cls-8" d="M1157.8,1213.52h7.28v12.14h4.65v2.11h-11.93v-2.11h4.85v-10.02h-4.85v-2.12Zm4.53-3.74c0-.4,.12-.74,.36-1.02s.61-.42,1.1-.42,.85,.14,1.09,.42,.37,.62,.37,1.02-.12,.72-.37,.99c-.25,.26-.61,.4-1.09,.4s-.86-.13-1.1-.4c-.24-.26-.36-.59-.36-.99Z"/>
      <path class="cls-8" d="M1176.26,1220.07v7.69h-2.44v-19.17h6.21c.86,.02,1.67,.15,2.44,.41,.77,.25,1.44,.62,2.02,1.11s1.04,1.08,1.38,1.79c.34,.71,.51,1.53,.51,2.45s-.17,1.74-.51,2.44c-.34,.71-.8,1.3-1.38,1.78-.58,.48-1.25,.85-2.02,1.11-.77,.25-1.58,.39-2.44,.4h-3.78Zm0-2h3.78c.56,0,1.08-.1,1.55-.27,.47-.17,.89-.42,1.24-.73,.35-.32,.62-.7,.82-1.15,.2-.45,.3-.97,.3-1.55s-.1-1.1-.3-1.57c-.2-.47-.47-.86-.82-1.19-.35-.32-.76-.57-1.24-.75-.48-.18-1-.27-1.56-.28h-3.78v7.48Z"/>
      <path class="cls-8" d="M1198.76,1208.58v2.19h-.21c-.81,0-1.53,.08-2.17,.25-.64,.17-1.2,.4-1.68,.68-.48,.29-.9,.63-1.24,1.03-.35,.4-.63,.84-.86,1.31-.23,.47-.4,.97-.53,1.49-.12,.52-.2,1.04-.24,1.58,.23-.27,.49-.52,.79-.76,.3-.23,.62-.43,.97-.61,.35-.17,.72-.31,1.12-.41,.4-.1,.82-.15,1.26-.15,.96,0,1.78,.18,2.48,.55s1.26,.85,1.71,1.44c.45,.6,.78,1.27,.99,2.03s.32,1.52,.32,2.3c0,.9-.12,1.74-.38,2.53-.25,.79-.62,1.48-1.12,2.07-.5,.59-1.12,1.06-1.86,1.4-.74,.34-1.6,.51-2.57,.51-.69,0-1.33-.1-1.9-.3-.57-.2-1.09-.48-1.55-.82s-.86-.76-1.2-1.23c-.34-.47-.62-.98-.85-1.53-.22-.54-.39-1.11-.51-1.7-.11-.59-.17-1.18-.17-1.76v-1.15c0-.88,.05-1.76,.17-2.64,.11-.88,.3-1.73,.56-2.53,.26-.81,.62-1.56,1.07-2.27,.45-.71,1.01-1.32,1.69-1.84,.68-.52,1.49-.93,2.43-1.22s2.04-.45,3.29-.45h.21Zm-3.19,8.64c-.41,0-.81,.07-1.2,.2-.39,.13-.75,.32-1.08,.55s-.63,.52-.88,.86c-.25,.33-.46,.7-.61,1.11v.82c0,.84,.1,1.59,.3,2.25,.2,.65,.47,1.2,.82,1.65,.34,.45,.74,.79,1.18,1.02,.45,.23,.92,.35,1.41,.35,.57,0,1.08-.11,1.51-.33,.44-.22,.81-.52,1.11-.91s.53-.85,.68-1.39c.15-.54,.23-1.13,.23-1.76,0-.56-.07-1.11-.21-1.64-.14-.53-.36-1-.65-1.42-.29-.41-.65-.74-1.09-.99-.44-.25-.95-.37-1.54-.37Z"/>
      <path class="cls-8" d="M1207.95,1225.7h9.93v2.07h-12.68l-.03-1.9,9.55-15.2h-9.38v-2.08h12.15l.03,1.86-9.57,15.25Z"/>
      <path class="cls-8" d="M1223.27,1213.52l.07,1.34c.29-.5,.67-.89,1.14-1.17s1.04-.43,1.71-.43c1.31,0,2.18,.51,2.62,1.53,.28-.46,.65-.82,1.11-1.1,.46-.28,1.02-.42,1.68-.43,1.04,0,1.85,.32,2.41,.96,.56,.64,.84,1.61,.84,2.91v10.64h-2.32v-10.67c0-1.19-.55-1.79-1.65-1.78-.29,0-.54,.04-.75,.12-.21,.08-.39,.19-.53,.32-.14,.14-.25,.29-.33,.47-.08,.18-.13,.37-.16,.56v10.97h-2.32v-10.68c0-.57-.13-1.01-.38-1.32-.25-.31-.66-.46-1.21-.45-.51,0-.9,.1-1.18,.3-.28,.2-.49,.47-.62,.8v11.34h-2.32v-14.25h2.19Z"/>
      <path class="cls-11" d="M1102.02,1245.61c.23,0,.46,0,.71,.02,.25,.01,.48,.04,.7,.07s.43,.07,.62,.11c.19,.04,.34,.09,.47,.15l-.33,2.38c-.47-.11-.92-.18-1.35-.23s-.87-.07-1.34-.07c-1.14,0-2.07,.26-2.77,.78-.71,.52-1.23,1.24-1.56,2.17v9.14h-2.45v-14.25h2.32l.12,2.26c.58-.78,1.28-1.4,2.09-1.85,.81-.45,1.74-.68,2.77-.68Z"/>
      <path class="cls-11" d="M1120.67,1245.95c0,.96-.27,1.81-.78,2.55-.51,.75-1.19,1.33-2.04,1.75,.49,.21,.94,.47,1.34,.78s.74,.67,1.03,1.07c.29,.4,.5,.84,.66,1.32s.23,.98,.23,1.51c0,.87-.16,1.64-.48,2.32-.32,.68-.75,1.24-1.3,1.71-.55,.46-1.19,.81-1.93,1.05s-1.53,.36-2.37,.36-1.66-.12-2.4-.36c-.74-.24-1.39-.59-1.94-1.05-.55-.46-.98-1.03-1.3-1.71-.32-.68-.47-1.45-.47-2.33,0-.54,.07-1.04,.22-1.52,.15-.48,.36-.92,.64-1.32,.28-.4,.62-.76,1.01-1.07,.39-.32,.84-.58,1.33-.79-.42-.21-.8-.46-1.15-.76-.34-.29-.63-.62-.87-.99-.24-.36-.42-.76-.55-1.19s-.2-.88-.2-1.36c0-.83,.14-1.58,.42-2.23,.28-.65,.67-1.2,1.17-1.65,.5-.45,1.09-.79,1.78-1.03,.69-.24,1.44-.36,2.26-.36s1.56,.12,2.25,.36c.69,.24,1.29,.58,1.8,1.03s.91,1,1.2,1.65c.29,.65,.43,1.4,.43,2.23Zm-2,8.94c0-.54-.09-1.03-.27-1.47s-.43-.83-.76-1.15c-.33-.32-.71-.57-1.17-.74s-.95-.26-1.48-.26-1.05,.09-1.5,.26c-.45,.18-.83,.42-1.15,.74-.32,.32-.56,.7-.73,1.15-.17,.45-.26,.94-.26,1.47s.09,1.05,.26,1.48c.17,.43,.42,.8,.73,1.1,.32,.3,.7,.53,1.15,.68s.96,.24,1.52,.24,1.03-.08,1.47-.24c.45-.16,.83-.39,1.15-.68,.32-.3,.57-.67,.75-1.1s.27-.93,.27-1.48Zm-.45-8.9c0-.48-.08-.93-.24-1.33-.16-.4-.39-.75-.67-1.05-.29-.29-.62-.52-1.02-.69-.39-.16-.83-.24-1.3-.24s-.9,.08-1.29,.23c-.39,.15-.72,.38-1,.67s-.5,.64-.65,1.05c-.15,.41-.23,.86-.23,1.36s.08,.95,.23,1.35c.15,.4,.37,.74,.66,1.03,.29,.29,.62,.5,1.01,.66,.39,.15,.82,.23,1.3,.23s.9-.08,1.29-.23c.39-.15,.73-.37,1.02-.66,.29-.29,.51-.63,.66-1.03,.16-.4,.24-.85,.24-1.34Z"/>
      <path class="cls-11" d="M1134.2,1255.16h-6.4l-1.54,4.96h-2.44l6.19-19.17h2.04l6.08,19.17h-2.42l-1.51-4.96Zm-5.74-2.12h5.1l-2.53-8.32-2.57,8.32Z"/>
      <path class="cls-11" d="M1147.31,1258.41c.44,0,.87-.07,1.28-.21,.42-.14,.79-.34,1.11-.59,.32-.25,.59-.54,.78-.88s.3-.7,.31-1.1h2.3c0,.63-.17,1.24-.49,1.81-.32,.58-.75,1.08-1.28,1.51-.54,.43-1.15,.78-1.84,1.04-.69,.26-1.42,.39-2.17,.39-1.08,0-2.02-.19-2.83-.58s-1.48-.91-2.02-1.56c-.54-.65-.95-1.41-1.22-2.26s-.41-1.76-.41-2.71v-.55c0-.94,.14-1.84,.41-2.7s.68-1.62,1.22-2.27,1.21-1.17,2.02-1.56c.81-.39,1.75-.58,2.83-.58,.84,0,1.62,.13,2.32,.4,.71,.27,1.32,.63,1.83,1.09,.51,.46,.92,1.01,1.21,1.64,.29,.63,.43,1.31,.43,2.03h-2.3c0-.43-.1-.84-.28-1.22s-.42-.72-.73-1.01c-.31-.29-.67-.52-1.1-.68-.43-.17-.88-.25-1.38-.25-.75,0-1.39,.15-1.9,.45-.51,.3-.93,.7-1.25,1.19-.32,.49-.54,1.03-.68,1.64-.14,.61-.2,1.22-.2,1.83v.55c0,.62,.07,1.24,.2,1.85,.14,.61,.36,1.16,.67,1.65,.31,.49,.72,.88,1.24,1.19s1.15,.45,1.92,.45Z"/>
      <path class="cls-11" d="M1165.32,1260.12h-2.44v-16.06l-5.02,1.91v-2.23l7.25-2.79h.2v19.17Z"/>
      <path class="cls-11" d="M1181.5,1260.12h-2.44v-16.06l-5.02,1.91v-2.23l7.25-2.79h.2v19.17Z"/>
      <path class="cls-11" d="M1192.45,1240.95l3.12,9.59,3.37-9.59h3.03v19.17h-2.37v-7.65l.2-8.01-3.54,10.32h-1.4l-3.25-10.05,.2,7.73v7.65h-2.37v-19.17h3.01Z"/>
      <path class="cls-11" d="M1215.33,1260.12c-.1-.18-.17-.41-.23-.69-.06-.28-.1-.56-.12-.86-.25,.25-.52,.48-.82,.7-.3,.22-.64,.41-1,.58-.36,.17-.75,.3-1.17,.4-.41,.1-.85,.14-1.32,.14-.76,0-1.44-.11-2.05-.33s-1.13-.52-1.55-.89-.75-.82-.99-1.33c-.23-.51-.35-1.07-.35-1.67,0-.78,.16-1.47,.47-2.05,.31-.59,.75-1.08,1.32-1.47s1.26-.68,2.06-.88c.8-.19,1.7-.29,2.69-.29h2.66v-1.12c0-.43-.08-.82-.24-1.16-.16-.34-.38-.63-.67-.88-.29-.24-.64-.43-1.06-.56-.42-.13-.88-.2-1.4-.2-.48,0-.92,.06-1.3,.18-.38,.12-.7,.29-.97,.49-.26,.2-.47,.44-.61,.72-.14,.28-.22,.56-.22,.86h-2.45c0-.52,.14-1.03,.4-1.53s.63-.95,1.12-1.35,1.08-.72,1.78-.97c.7-.25,1.49-.37,2.38-.37,.81,0,1.56,.1,2.25,.3,.69,.2,1.29,.5,1.8,.9,.5,.4,.9,.9,1.19,1.49,.29,.6,.43,1.29,.43,2.09v6.62c0,.47,.04,.98,.13,1.51s.21,.99,.37,1.39v.21h-2.54Zm-4.31-1.86c.47,0,.92-.06,1.33-.18,.41-.12,.79-.29,1.13-.49,.34-.2,.63-.43,.88-.69,.25-.26,.44-.53,.58-.81v-2.88h-2.26c-1.42,0-2.53,.21-3.32,.63s-1.18,1.08-1.18,1.99c0,.35,.06,.68,.18,.97,.12,.3,.3,.56,.53,.77,.24,.22,.54,.38,.9,.51,.36,.12,.78,.18,1.25,.18Z"/>
      <path class="cls-11" d="M1228.22,1258.41c.44,0,.87-.07,1.28-.21,.42-.14,.79-.34,1.11-.59,.32-.25,.59-.54,.78-.88s.3-.7,.31-1.1h2.3c0,.63-.17,1.24-.49,1.81-.32,.58-.75,1.08-1.28,1.51-.54,.43-1.15,.78-1.84,1.04-.69,.26-1.42,.39-2.17,.39-1.08,0-2.02-.19-2.83-.58s-1.48-.91-2.02-1.56c-.54-.65-.95-1.41-1.22-2.26s-.41-1.76-.41-2.71v-.55c0-.94,.14-1.84,.41-2.7s.68-1.62,1.22-2.27,1.21-1.17,2.02-1.56c.81-.39,1.75-.58,2.83-.58,.84,0,1.62,.13,2.32,.4,.71,.27,1.32,.63,1.83,1.09,.51,.46,.92,1.01,1.21,1.64,.29,.63,.43,1.31,.43,2.03h-2.3c0-.43-.1-.84-.28-1.22s-.42-.72-.73-1.01c-.31-.29-.67-.52-1.1-.68-.43-.17-.88-.25-1.38-.25-.75,0-1.39,.15-1.9,.45-.51,.3-.93,.7-1.25,1.19-.32,.49-.54,1.03-.68,1.64-.14,.61-.2,1.22-.2,1.83v.55c0,.62,.07,1.24,.2,1.85,.14,.61,.36,1.16,.67,1.65,.31,.49,.72,.88,1.24,1.19s1.15,.45,1.92,.45Z"/>
      <path class="cls-2" d="M1098.43,1288.56l4.53-15.25h2.59l-6.04,19.17h-2.12l-6.06-19.17h2.61l4.49,15.25Z"/>
      <path class="cls-2" d="M1111.62,1290.42h9.38v2.07h-11.81v-19.17h2.44v17.1Z"/>
      <path class="cls-2" d="M1130.99,1280.83l4.13-7.52h2.87l-5.57,9.51,5.7,9.66h-2.84l-4.24-7.66-4.25,7.66h-2.88l5.71-9.66-5.57-9.51h2.86l4.08,7.52Z"/>
      <path class="cls-2" d="M1145.83,1283.58l-2.13,2.42v6.48h-2.49v-19.17h2.49v9.36l1.86-2.32,5.62-7.04h2.96l-6.7,8.39,7.15,10.78h-2.96l-5.79-8.9Z"/>
      <path class="cls-2" d="M1158.54,1278.24l.07,1.34c.29-.5,.67-.89,1.14-1.17s1.04-.43,1.71-.43c1.31,0,2.18,.51,2.62,1.53,.28-.46,.65-.82,1.11-1.1,.46-.28,1.02-.42,1.68-.43,1.04,0,1.85,.32,2.41,.96,.56,.64,.84,1.61,.84,2.91v10.64h-2.32v-10.67c0-1.19-.55-1.79-1.65-1.78-.29,0-.54,.04-.75,.12-.21,.08-.39,.19-.53,.32-.14,.14-.25,.29-.33,.47-.08,.18-.13,.37-.16,.56v10.97h-2.32v-10.68c0-.57-.13-1.01-.38-1.32-.25-.31-.66-.46-1.21-.45-.51,0-.9,.1-1.18,.3-.28,.2-.49,.47-.62,.8v11.34h-2.32v-14.25h2.19Z"/>
      <path class="cls-2" d="M1183.11,1287.29l1.46-13.98h2.3l-2.33,19.17h-2.49l-2.46-14.44-2.49,14.44h-2.5l-2.33-19.17h2.32l1.46,13.98,2.46-13.98h2.12l2.48,13.98Z"/>
      <path class="cls-2" d="M1202.18,1289.97c-.81,.95-1.73,1.65-2.78,2.11-1.04,.46-2.19,.68-3.44,.67-.79,0-1.52-.13-2.18-.36-.66-.23-1.26-.55-1.78-.96-.53-.41-.99-.89-1.38-1.44-.39-.55-.73-1.15-.99-1.8-.27-.65-.47-1.32-.61-2.03-.14-.71-.21-1.42-.22-2.14v-2.23c0-.71,.07-1.42,.19-2.13,.12-.71,.3-1.38,.55-2.03,.25-.65,.55-1.25,.92-1.81,.37-.56,.81-1.04,1.32-1.45s1.09-.73,1.75-.97c.65-.24,1.38-.36,2.19-.36,.9,0,1.72,.14,2.48,.42s1.41,.67,1.97,1.19c.56,.51,1.01,1.13,1.36,1.86,.34,.72,.55,1.53,.63,2.43h-2.41c-.1-.55-.25-1.06-.45-1.53-.2-.47-.47-.87-.8-1.21-.33-.33-.72-.59-1.18-.78-.46-.19-.99-.28-1.59-.28s-1.09,.1-1.54,.3c-.45,.2-.84,.46-1.17,.8-.33,.33-.61,.72-.83,1.17-.22,.44-.4,.91-.54,1.4-.14,.49-.24,.99-.3,1.5-.06,.51-.09,1-.09,1.47v2.25c0,.48,.05,.98,.12,1.49,.08,.51,.19,1.02,.35,1.51,.16,.49,.36,.96,.61,1.4,.25,.44,.54,.83,.89,1.16,.35,.33,.75,.6,1.21,.8,.46,.2,.97,.3,1.55,.31,.33,0,.68,0,1.05-.04s.72-.11,1.06-.21,.66-.25,.96-.43c.3-.18,.55-.42,.75-.7l.03-4.31h-3.9v-2.05h6.21l.04,7.03Z"/>
      <path class="cls-2" d="M1218.89,1275.39h-5.93v17.09h-2.37v-17.09h-5.92v-2.08h14.22v2.08Z"/>
      <path class="cls-2" d="M1230.05,1292.48h-2.44v-16.06l-5.02,1.91v-2.23l7.25-2.79h.2v19.17Z"/>
      <path class="cls-4" d="M1093.81,1310.59l.07,1.34c.29-.5,.67-.89,1.14-1.17s1.04-.43,1.71-.43c1.31,0,2.18,.51,2.62,1.53,.28-.46,.65-.82,1.11-1.1,.46-.28,1.02-.42,1.68-.43,1.04,0,1.85,.32,2.41,.96,.56,.64,.84,1.61,.84,2.91v10.64h-2.32v-10.67c0-1.19-.55-1.79-1.65-1.78-.29,0-.54,.04-.75,.12-.21,.08-.39,.19-.53,.32-.14,.14-.25,.29-.33,.47-.08,.18-.13,.37-.16,.56v10.97h-2.32v-10.68c0-.57-.13-1.01-.38-1.32-.25-.31-.66-.46-1.21-.45-.51,0-.9,.1-1.18,.3-.28,.2-.49,.47-.62,.8v11.34h-2.32v-14.25h2.19Z"/>
      <path class="cls-4" d="M1120.9,1305.67l.03,12.98c-.02,.9-.18,1.73-.49,2.51-.31,.78-.74,1.46-1.29,2.05-.55,.58-1.21,1.04-1.97,1.38s-1.6,.51-2.51,.51-1.78-.17-2.54-.5-1.42-.79-1.96-1.38c-.54-.58-.97-1.27-1.28-2.05-.31-.79-.47-1.63-.47-2.52l.03-12.98h2.32l.05,12.98c0,.57,.1,1.12,.27,1.65,.17,.53,.42,.99,.74,1.4,.32,.4,.72,.73,1.2,.97,.48,.25,1.03,.37,1.65,.37s1.17-.12,1.65-.36c.47-.24,.87-.57,1.19-.97,.32-.41,.56-.88,.73-1.4,.17-.53,.26-1.08,.28-1.65l.04-12.98h2.36Z"/>
      <path class="cls-4" d="M1126.7,1310.59h7.19v14.34c0,.91-.12,1.72-.38,2.42-.25,.7-.61,1.29-1.09,1.77-.48,.48-1.06,.84-1.75,1.09-.69,.25-1.47,.38-2.35,.38-.5,0-.97-.02-1.4-.05s-.89-.09-1.38-.18l.17-2c.15,.03,.34,.05,.57,.07s.46,.04,.69,.05,.46,.02,.67,.03c.21,0,.38,0,.51,0,.46,0,.89-.06,1.29-.18,.4-.12,.75-.32,1.05-.6,.3-.28,.53-.65,.7-1.11s.26-1.03,.26-1.71v-12.22h-4.75v-2.12Zm4.41-3.75c0-.4,.12-.73,.36-1.01,.24-.28,.6-.42,1.09-.42s.86,.14,1.11,.42,.37,.61,.37,1.01-.12,.73-.37,.99-.61,.4-1.11,.4-.86-.13-1.09-.4c-.24-.27-.36-.6-.36-.99Z"/>
      <path class="cls-4" d="M1143.22,1322.77h9.93v2.07h-12.68l-.03-1.9,9.55-15.2h-9.38v-2.08h12.15l.03,1.86-9.57,15.25Z"/>
      <path class="cls-4" d="M1169.89,1316.36c0,.68-.07,1.38-.18,2.07-.11,.7-.28,1.37-.51,2.02-.23,.65-.52,1.26-.88,1.82-.36,.56-.78,1.05-1.27,1.47-.49,.42-1.06,.75-1.69,.99s-1.35,.36-2.14,.36-1.5-.12-2.14-.36-1.2-.57-1.69-.99c-.49-.42-.92-.92-1.28-1.48-.36-.57-.66-1.17-.89-1.82-.23-.65-.41-1.32-.52-2.01-.11-.69-.18-1.38-.18-2.07v-2.19c0-.68,.07-1.38,.18-2.07,.11-.7,.28-1.37,.51-2.02,.23-.65,.53-1.26,.88-1.82,.36-.57,.78-1.06,1.27-1.49,.49-.43,1.05-.76,1.69-1,.64-.24,1.35-.36,2.14-.36s1.51,.12,2.15,.36c.64,.24,1.21,.57,1.7,.99,.49,.42,.92,.92,1.27,1.48,.36,.57,.65,1.17,.88,1.82,.23,.65,.4,1.33,.51,2.03,.11,.7,.17,1.4,.18,2.08v2.19Zm-2.41-2.21c0-.46-.04-.93-.09-1.43-.05-.5-.14-.99-.27-1.47-.13-.49-.3-.95-.51-1.4-.21-.44-.47-.83-.79-1.17-.32-.34-.69-.61-1.12-.8-.43-.2-.93-.3-1.5-.3s-1.06,.1-1.49,.3c-.43,.2-.8,.47-1.12,.81-.32,.34-.58,.73-.79,1.17-.21,.44-.38,.91-.51,1.4-.13,.49-.22,.98-.28,1.47-.06,.5-.09,.97-.1,1.42v2.21c0,.45,.04,.92,.1,1.42,.06,.5,.15,.99,.28,1.48,.13,.49,.3,.95,.51,1.4,.21,.45,.47,.84,.79,1.18s.69,.61,1.12,.81c.43,.2,.93,.3,1.5,.3s1.07-.1,1.51-.3c.43-.2,.81-.47,1.12-.81s.57-.73,.78-1.17c.21-.44,.37-.91,.5-1.4,.13-.49,.21-.98,.26-1.48,.05-.5,.08-.98,.08-1.44v-2.21Z"/>
      <path class="cls-4" d="M1179.49,1315.88l3.81-5.28h2.86l-5.31,7.04,5.45,7.2h-2.82l-3.94-5.42-3.94,5.42h-2.84l5.45-7.2-5.31-7.04h2.82l3.77,5.28Z"/>
      <path class="cls-4" d="M1190.9,1310.59l.07,1.34c.29-.5,.67-.89,1.14-1.17s1.04-.43,1.71-.43c1.31,0,2.18,.51,2.62,1.53,.28-.46,.65-.82,1.11-1.1,.46-.28,1.02-.42,1.68-.43,1.04,0,1.85,.32,2.41,.96,.56,.64,.84,1.61,.84,2.91v10.64h-2.32v-10.67c0-1.19-.55-1.79-1.65-1.78-.29,0-.54,.04-.75,.12-.21,.08-.39,.19-.53,.32-.14,.14-.25,.29-.33,.47-.08,.18-.13,.37-.16,.56v10.97h-2.32v-10.68c0-.57-.13-1.01-.38-1.32-.25-.31-.66-.46-1.21-.45-.51,0-.9,.1-1.18,.3-.28,.2-.49,.47-.62,.8v11.34h-2.32v-14.25h2.19Z"/>
      <path class="cls-4" d="M1215.47,1319.65l1.46-13.98h2.3l-2.33,19.17h-2.49l-2.46-14.44-2.49,14.44h-2.5l-2.33-19.17h2.32l1.46,13.98,2.46-13.98h2.12l2.48,13.98Z"/>
      <path class="cls-4" d="M1232.18,1320c0-.59-.13-1.08-.4-1.49s-.61-.74-1.03-1.02c-.42-.28-.88-.51-1.39-.69-.5-.18-.99-.35-1.46-.5-.68-.22-1.36-.48-2.06-.79-.7-.31-1.33-.68-1.91-1.13s-1.04-.98-1.41-1.59c-.36-.61-.55-1.33-.55-2.15s.18-1.56,.55-2.21,.84-1.2,1.43-1.65,1.26-.79,2-1.02c.75-.23,1.5-.35,2.25-.35,.83,0,1.64,.14,2.41,.42s1.46,.67,2.05,1.17c.6,.5,1.08,1.11,1.44,1.82,.36,.71,.55,1.51,.57,2.38h-2.5c-.07-.55-.21-1.06-.41-1.51s-.47-.84-.8-1.17c-.33-.32-.73-.58-1.19-.76-.46-.18-.98-.27-1.56-.27-.46,0-.92,.07-1.36,.2-.44,.13-.84,.33-1.19,.59s-.62,.59-.83,.97-.31,.83-.31,1.34c0,.55,.15,1.02,.42,1.4,.27,.38,.62,.7,1.03,.97,.42,.26,.87,.48,1.36,.66,.49,.18,.95,.33,1.38,.46,.47,.15,.95,.32,1.43,.51,.48,.19,.95,.41,1.4,.65,.45,.25,.86,.52,1.25,.83,.39,.31,.72,.66,1.01,1.05,.29,.39,.52,.82,.68,1.29s.24,.99,.24,1.56c0,.86-.19,1.61-.57,2.25s-.88,1.17-1.48,1.6-1.29,.75-2.05,.96c-.76,.21-1.53,.32-2.29,.32-.85,0-1.69-.13-2.5-.4-.82-.26-1.55-.64-2.19-1.14s-1.17-1.1-1.57-1.82c-.4-.72-.62-1.53-.65-2.44h2.49c.08,.6,.24,1.13,.49,1.59,.25,.46,.56,.85,.95,1.17,.39,.32,.83,.56,1.34,.72,.5,.16,1.05,.24,1.65,.24,.47,0,.94-.06,1.4-.18,.46-.12,.87-.3,1.23-.55,.36-.25,.65-.57,.88-.95,.23-.38,.34-.84,.34-1.36Z"/>
      <path class="cls-5" d="M1104.72,1338.03l.03,12.98c-.02,.9-.18,1.73-.49,2.51-.31,.78-.74,1.46-1.29,2.05-.55,.58-1.21,1.04-1.97,1.38s-1.6,.51-2.51,.51-1.78-.17-2.54-.5-1.42-.79-1.96-1.38c-.54-.58-.97-1.27-1.28-2.05-.31-.79-.47-1.63-.47-2.52l.03-12.98h2.32l.05,12.98c0,.57,.1,1.12,.27,1.65,.17,.53,.42,.99,.74,1.4,.32,.4,.72,.73,1.2,.97,.48,.25,1.03,.37,1.65,.37s1.17-.12,1.65-.36c.47-.24,.87-.57,1.19-.97,.32-.41,.56-.88,.73-1.4,.17-.53,.26-1.08,.28-1.65l.04-12.98h2.36Z"/>
      <path class="cls-5" d="M1114.45,1353.7l.22,.88,.24-.88,3.99-10.74h2.49l-5.81,14.25h-1.86l-5.86-14.25h2.5l4.08,10.74Z"/>
      <path class="cls-5" d="M1131.4,1349.38h-3.83v7.82h-2.42v-19.17h5.62c.9,.02,1.74,.14,2.53,.38,.79,.24,1.48,.59,2.07,1.07s1.06,1.07,1.4,1.78c.34,.72,.51,1.56,.51,2.52,0,.62-.09,1.19-.27,1.71s-.43,.99-.74,1.41c-.32,.42-.69,.79-1.13,1.12-.44,.33-.92,.6-1.45,.83l4.07,8.19v.16h-2.58l-3.77-7.82Zm-3.83-2h3.27c.54,0,1.06-.09,1.54-.26,.48-.16,.91-.4,1.27-.7,.36-.31,.65-.68,.86-1.13s.32-.95,.32-1.53c0-.61-.1-1.15-.3-1.61-.2-.46-.48-.85-.84-1.16-.36-.31-.79-.55-1.28-.7s-1.04-.24-1.63-.25h-3.2v7.35Z"/>
      <path class="cls-5" d="M1152.99,1357.2h-12.56v-1.75l6.28-6.98c.56-.62,1.03-1.18,1.41-1.66,.38-.48,.68-.93,.91-1.34s.39-.79,.49-1.16c.1-.36,.14-.74,.14-1.13,0-.47-.08-.92-.23-1.34-.15-.42-.38-.78-.67-1.09-.29-.31-.65-.55-1.07-.73-.42-.18-.89-.27-1.42-.27-.64,0-1.2,.09-1.67,.28-.47,.18-.86,.45-1.17,.78-.31,.34-.54,.75-.7,1.23-.15,.48-.23,1.02-.23,1.62h-2.45c0-.81,.14-1.57,.42-2.28,.28-.72,.69-1.34,1.22-1.88,.53-.54,1.18-.96,1.95-1.28,.77-.32,1.64-.47,2.63-.47,.9,0,1.72,.13,2.44,.4,.72,.27,1.34,.64,1.84,1.11,.5,.47,.88,1.04,1.15,1.69,.27,.65,.4,1.36,.4,2.12,0,.57-.1,1.13-.29,1.69-.19,.56-.46,1.11-.78,1.65-.33,.54-.71,1.08-1.15,1.61s-.89,1.06-1.38,1.59l-5.15,5.58h9.63v1.99Z"/>
      <path class="cls-5" d="M1159.6,1342.95l.17,2.11c.52-.74,1.15-1.31,1.91-1.73,.75-.42,1.6-.63,2.53-.64,.75,0,1.42,.11,2.04,.32,.61,.21,1.13,.54,1.56,.99,.43,.45,.76,1.02,.99,1.71s.35,1.51,.35,2.46v9.05h-2.44v-8.99c0-.63-.07-1.17-.21-1.61-.14-.44-.35-.79-.63-1.07s-.61-.47-1.01-.59c-.4-.12-.86-.18-1.38-.18-.82,0-1.53,.2-2.15,.61-.62,.41-1.11,.95-1.48,1.61v10.22h-2.44v-14.25h2.19Z"/>
      <path class="cls-5" d="M1173.14,1349.96c0-1.06,.13-2.04,.4-2.93,.27-.89,.65-1.66,1.15-2.3,.5-.64,1.1-1.14,1.8-1.5s1.49-.54,2.36-.54,1.6,.14,2.23,.43c.64,.29,1.19,.7,1.65,1.24v-7.39h2.44v20.23h-2.24l-.11-1.5c-.47,.58-1.04,1.02-1.7,1.32-.66,.3-1.43,.45-2.3,.45s-1.64-.18-2.34-.55c-.7-.37-1.29-.88-1.78-1.53-.49-.65-.87-1.42-1.15-2.3s-.41-1.83-.41-2.85v-.28Zm2.44,.28c0,.69,.07,1.35,.22,1.98,.15,.62,.38,1.17,.69,1.65,.31,.47,.71,.85,1.19,1.13,.48,.28,1.06,.42,1.74,.42,.41,0,.79-.05,1.12-.15,.33-.1,.64-.23,.91-.41,.27-.18,.51-.4,.72-.65,.21-.25,.39-.53,.55-.84v-6.61c-.32-.58-.74-1.06-1.28-1.43s-1.2-.56-2-.56c-.68,0-1.27,.14-1.76,.42-.49,.28-.89,.66-1.2,1.14-.31,.48-.54,1.03-.69,1.66-.15,.63-.22,1.29-.22,1.98v.28Z"/>
      <path class="cls-5" d="M1189.53,1357.2v-19.17h4.44c1.33,.02,2.53,.24,3.57,.68,1.05,.43,1.94,1.04,2.66,1.82s1.28,1.71,1.66,2.79,.58,2.28,.59,3.6v1.41c0,1.32-.2,2.52-.59,3.6s-.93,2.01-1.66,2.79-1.61,1.38-2.66,1.82-2.24,.66-3.57,.67h-4.44Zm2.48-17.17v15.18h1.96c1.04,0,1.93-.19,2.69-.55s1.38-.84,1.88-1.46c.5-.61,.86-1.34,1.11-2.17s.37-1.74,.38-2.71v-1.44c0-.97-.14-1.88-.38-2.71-.25-.83-.62-1.55-1.11-2.16-.49-.61-1.12-1.09-1.87-1.44-.75-.35-1.65-.54-2.69-.55h-1.96Z"/>
      <path class="cls-5" d="M1217.76,1343.03c0,.96-.27,1.81-.78,2.55-.51,.75-1.19,1.33-2.04,1.75,.49,.21,.94,.47,1.34,.78s.74,.67,1.03,1.07c.29,.4,.5,.84,.66,1.32s.23,.98,.23,1.51c0,.87-.16,1.64-.48,2.32-.32,.68-.75,1.24-1.3,1.71-.55,.46-1.19,.81-1.93,1.05s-1.53,.36-2.37,.36-1.66-.12-2.4-.36c-.74-.24-1.39-.59-1.94-1.05-.55-.46-.98-1.03-1.3-1.71-.32-.68-.47-1.45-.47-2.33,0-.54,.07-1.04,.22-1.52,.15-.48,.36-.92,.64-1.32,.28-.4,.62-.76,1.01-1.07,.39-.32,.84-.58,1.33-.79-.42-.21-.8-.46-1.15-.76-.34-.29-.63-.62-.87-.99-.24-.36-.42-.76-.55-1.19s-.2-.88-.2-1.36c0-.83,.14-1.58,.42-2.23,.28-.65,.67-1.2,1.17-1.65,.5-.45,1.09-.79,1.78-1.03,.69-.24,1.44-.36,2.26-.36s1.56,.12,2.25,.36c.69,.24,1.29,.58,1.8,1.03s.91,1,1.2,1.65c.29,.65,.43,1.4,.43,2.23Zm-2,8.94c0-.54-.09-1.03-.27-1.47s-.43-.83-.76-1.15c-.33-.32-.71-.57-1.17-.74s-.95-.26-1.48-.26-1.05,.09-1.5,.26c-.45,.18-.83,.42-1.15,.74-.32,.32-.56,.7-.73,1.15-.17,.45-.26,.94-.26,1.47s.09,1.05,.26,1.48c.17,.43,.42,.8,.73,1.1,.32,.3,.7,.53,1.15,.68s.96,.24,1.52,.24,1.03-.08,1.47-.24c.45-.16,.83-.39,1.15-.68,.32-.3,.57-.67,.75-1.1s.27-.93,.27-1.48Zm-.45-8.9c0-.48-.08-.93-.24-1.33-.16-.4-.39-.75-.67-1.05-.29-.29-.62-.52-1.02-.69-.39-.16-.83-.24-1.3-.24s-.9,.08-1.29,.23c-.39,.15-.72,.38-1,.67s-.5,.64-.65,1.05c-.15,.41-.23,.86-.23,1.36s.08,.95,.23,1.35c.15,.4,.37,.74,.66,1.03,.29,.29,.62,.5,1.01,.66,.39,.15,.82,.23,1.3,.23s.9-.08,1.29-.23c.39-.15,.73-.37,1.02-.66,.29-.29,.51-.63,.66-1.03,.16-.4,.24-.85,.24-1.34Z"/>
      <path class="cls-5" d="M1231.13,1338.02v2.19h-.21c-.81,0-1.53,.08-2.17,.25-.64,.17-1.2,.4-1.68,.68-.48,.29-.9,.63-1.24,1.03-.35,.4-.63,.84-.86,1.31-.23,.47-.4,.97-.53,1.49-.12,.52-.2,1.04-.24,1.58,.23-.27,.49-.52,.79-.76,.3-.23,.62-.43,.97-.61,.35-.17,.72-.31,1.12-.41,.4-.1,.82-.15,1.26-.15,.96,0,1.78,.18,2.48,.55s1.26,.85,1.71,1.44c.45,.6,.78,1.27,.99,2.03s.32,1.52,.32,2.3c0,.9-.12,1.74-.38,2.53-.25,.79-.62,1.48-1.12,2.07-.5,.59-1.12,1.06-1.86,1.4-.74,.34-1.6,.51-2.57,.51-.69,0-1.33-.1-1.9-.3-.57-.2-1.09-.48-1.55-.82s-.86-.76-1.2-1.23c-.34-.47-.62-.98-.85-1.53-.22-.54-.39-1.11-.51-1.7-.11-.59-.17-1.18-.17-1.76v-1.15c0-.88,.05-1.76,.17-2.64,.11-.88,.3-1.73,.56-2.53,.26-.81,.62-1.56,1.07-2.27,.45-.71,1.01-1.32,1.69-1.84,.68-.52,1.49-.93,2.43-1.22s2.04-.45,3.29-.45h.21Zm-3.19,8.64c-.41,0-.81,.07-1.2,.2-.39,.13-.75,.32-1.08,.55s-.63,.52-.88,.86c-.25,.33-.46,.7-.61,1.11v.82c0,.84,.1,1.59,.3,2.25,.2,.65,.47,1.2,.82,1.65,.34,.45,.74,.79,1.18,1.02,.45,.23,.92,.35,1.41,.35,.57,0,1.08-.11,1.51-.33,.44-.22,.81-.52,1.11-.91s.53-.85,.68-1.39c.15-.54,.23-1.13,.23-1.76,0-.56-.07-1.11-.21-1.64-.14-.53-.36-1-.65-1.42-.29-.41-.65-.74-1.09-.99-.44-.25-.95-.37-1.54-.37Z"/>
      <path class="cls-6" d="M1102.02,1375.05c.23,0,.46,0,.71,.02,.25,.01,.48,.04,.7,.07,.22,.03,.43,.07,.62,.11,.19,.04,.34,.09,.47,.14l-.33,2.38c-.47-.1-.92-.18-1.35-.23-.43-.05-.87-.07-1.34-.07-1.14,0-2.07,.26-2.77,.78-.71,.52-1.23,1.24-1.56,2.17v9.14h-2.45v-14.25h2.32l.12,2.26c.58-.78,1.28-1.4,2.09-1.85,.81-.45,1.74-.68,2.77-.68Z"/>
      <path class="cls-6" d="M1108.42,1382.32c0-1.06,.13-2.04,.38-2.93,.25-.89,.63-1.66,1.12-2.3,.49-.64,1.09-1.14,1.81-1.5,.71-.36,1.53-.54,2.44-.54,.84,0,1.59,.14,2.23,.43,.65,.29,1.21,.7,1.68,1.24l.11-1.41h2.24v19.72h-2.44v-6.77c-.47,.5-1.03,.88-1.66,1.15-.63,.27-1.36,.4-2.19,.4-.9,0-1.71-.18-2.42-.55-.71-.37-1.31-.88-1.8-1.53-.49-.65-.87-1.42-1.13-2.3-.26-.88-.39-1.83-.39-2.85v-.28Zm2.44,.28c0,.69,.08,1.36,.23,1.99,.15,.63,.39,1.19,.7,1.67,.32,.48,.72,.87,1.21,1.15,.49,.29,1.07,.43,1.75,.43,.78,0,1.43-.18,1.96-.53,.53-.35,.96-.81,1.29-1.37v-7.03c-.17-.27-.36-.52-.57-.74-.21-.22-.46-.42-.72-.59-.27-.17-.56-.3-.88-.39-.32-.09-.67-.14-1.05-.14-.68,0-1.26,.14-1.75,.43-.49,.29-.9,.68-1.22,1.17s-.56,1.05-.71,1.68-.23,1.29-.23,1.99v.28Z"/>
      <path class="cls-6" d="M1134.2,1384.6h-6.4l-1.54,4.96h-2.44l6.19-19.17h2.04l6.08,19.17h-2.42l-1.51-4.96Zm-5.74-2.12h5.1l-2.53-8.32-2.57,8.32Z"/>
      <path class="cls-6" d="M1153.65,1383.79c-.11,.89-.34,1.7-.68,2.44-.34,.74-.79,1.38-1.34,1.91s-1.2,.94-1.95,1.24c-.75,.29-1.59,.44-2.51,.44-.79,0-1.51-.11-2.15-.34-.65-.22-1.22-.53-1.73-.93-.5-.39-.94-.86-1.3-1.4s-.67-1.12-.91-1.75-.42-1.29-.54-1.99c-.12-.69-.18-1.4-.19-2.11v-2.67c0-.71,.07-1.41,.19-2.11,.12-.69,.3-1.36,.54-1.99s.54-1.22,.91-1.76,.8-1.01,1.3-1.4c.5-.39,1.08-.7,1.72-.93,.64-.22,1.36-.34,2.16-.34,.96,0,1.81,.15,2.57,.44,.75,.29,1.4,.71,1.95,1.25,.54,.54,.98,1.19,1.31,1.94s.55,1.59,.65,2.5h-2.44c-.08-.58-.21-1.12-.41-1.62-.19-.5-.45-.94-.78-1.32-.33-.38-.72-.67-1.19-.89-.47-.21-1.03-.32-1.67-.32-.58,0-1.09,.09-1.53,.28-.44,.19-.83,.45-1.15,.77-.32,.33-.59,.7-.8,1.13-.22,.43-.39,.89-.52,1.37-.13,.48-.23,.98-.28,1.48-.06,.5-.08,.99-.08,1.47v2.7c0,.47,.03,.96,.08,1.47,.06,.5,.15,1,.28,1.49,.13,.49,.3,.95,.51,1.38,.21,.43,.48,.81,.8,1.14,.33,.33,.71,.59,1.15,.78,.44,.19,.95,.28,1.54,.28,.64,0,1.2-.1,1.67-.3,.47-.2,.87-.48,1.19-.85,.32-.36,.58-.79,.78-1.29,.19-.5,.33-1.03,.41-1.61h2.44Z"/>
      <path class="cls-6" d="M1169.44,1389.56h-2.3v-8.86h-7.86v8.86h-2.29v-19.17h2.29v8.24h7.86v-8.24h2.3v19.17Z"/>
      <path class="cls-6" d="M1182.58,1370.38v2.19h-.21c-.81,0-1.53,.08-2.17,.25-.64,.17-1.2,.4-1.68,.68-.48,.29-.9,.63-1.24,1.03-.35,.4-.63,.84-.86,1.31-.23,.47-.4,.97-.53,1.49-.12,.52-.2,1.04-.24,1.58,.23-.27,.49-.52,.79-.76,.3-.23,.62-.43,.97-.61,.35-.17,.72-.31,1.12-.41,.4-.1,.82-.15,1.26-.15,.96,0,1.78,.18,2.48,.55s1.26,.84,1.71,1.44c.45,.6,.78,1.27,.99,2.03s.32,1.52,.32,2.3c0,.9-.12,1.74-.38,2.53-.25,.79-.62,1.48-1.12,2.07-.5,.59-1.12,1.06-1.86,1.4-.74,.34-1.6,.51-2.57,.51-.69,0-1.33-.1-1.9-.3-.57-.2-1.09-.48-1.55-.82s-.86-.76-1.2-1.23c-.34-.47-.62-.98-.85-1.53-.22-.54-.39-1.11-.51-1.7s-.17-1.18-.17-1.76v-1.15c0-.88,.05-1.76,.17-2.64,.11-.88,.3-1.73,.56-2.54,.26-.81,.62-1.56,1.07-2.27,.45-.71,1.01-1.32,1.69-1.84,.68-.52,1.49-.93,2.43-1.22,.94-.3,2.04-.45,3.29-.45h.21Zm-3.19,8.64c-.41,0-.81,.07-1.2,.2-.39,.13-.75,.32-1.08,.55-.33,.24-.63,.52-.88,.86-.25,.33-.46,.7-.61,1.11v.82c0,.84,.1,1.59,.3,2.25,.2,.65,.47,1.21,.82,1.65,.34,.45,.74,.79,1.18,1.02,.45,.23,.92,.35,1.41,.35,.57,0,1.08-.11,1.51-.33,.44-.22,.81-.52,1.11-.91,.3-.39,.53-.85,.68-1.39,.15-.54,.23-1.13,.23-1.76,0-.56-.07-1.11-.21-1.64s-.36-1-.65-1.42c-.29-.41-.65-.74-1.09-.99-.44-.25-.95-.37-1.54-.37Z"/>
      <path class="cls-6" d="M1199.25,1385.78c0-.29-.06-.55-.17-.78s-.31-.45-.58-.64c-.27-.19-.63-.37-1.08-.53-.45-.16-1-.31-1.67-.44-.82-.17-1.56-.37-2.23-.61-.67-.24-1.25-.52-1.73-.85-.48-.33-.85-.71-1.11-1.16s-.4-.96-.4-1.55,.14-1.12,.41-1.63c.27-.5,.65-.95,1.15-1.32,.49-.38,1.08-.68,1.76-.89,.68-.22,1.43-.33,2.25-.33,.88,0,1.67,.11,2.37,.34s1.3,.54,1.79,.95c.49,.4,.87,.88,1.14,1.42s.4,1.12,.4,1.75h-2.44c0-.31-.08-.61-.24-.9-.16-.29-.38-.55-.66-.78-.28-.23-.62-.41-1.02-.55s-.85-.21-1.35-.21-.97,.06-1.36,.17-.72,.27-.97,.46-.45,.42-.59,.67-.2,.52-.2,.79,.05,.53,.16,.75c.11,.22,.29,.42,.55,.59s.61,.33,1.04,.47c.43,.14,.99,.28,1.65,.41,.88,.18,1.66,.4,2.36,.64,.69,.24,1.28,.53,1.75,.87,.47,.34,.84,.73,1.09,1.18,.25,.45,.38,.97,.38,1.55,0,.63-.14,1.21-.43,1.72-.29,.52-.68,.96-1.19,1.33-.51,.37-1.12,.65-1.83,.86-.71,.2-1.49,.3-2.33,.3-.97,0-1.83-.13-2.58-.39s-1.39-.6-1.92-1.03-.92-.92-1.2-1.48c-.28-.56-.41-1.15-.41-1.75h2.44c.04,.5,.17,.92,.4,1.26,.23,.34,.52,.62,.87,.83s.73,.36,1.15,.45c.42,.09,.84,.13,1.25,.13,1.03,0,1.84-.19,2.44-.57,.6-.38,.9-.88,.91-1.5Z"/>
      <path class="cls-6" d="M1209.6,1389.56v-12.36h-3.92v-1.88h3.92v-1c0-.91,.13-1.71,.4-2.4,.27-.69,.64-1.27,1.13-1.73,.49-.47,1.07-.82,1.76-1.05s1.45-.36,2.29-.36c.58,0,1.14,.05,1.69,.14s1.11,.22,1.69,.37l-.29,2.01c-.36-.12-.78-.23-1.26-.32-.48-.09-.99-.14-1.53-.14-1.14,0-2,.3-2.57,.87-.57,.57-.86,1.44-.86,2.61v1h5.49v1.88h-5.49v12.36h-2.45Z"/>
      <path class="cls-6" d="M1231.5,1375.05c.23,0,.46,0,.71,.02,.25,.01,.48,.04,.7,.07,.22,.03,.43,.07,.62,.11,.19,.04,.34,.09,.47,.14l-.33,2.38c-.47-.1-.92-.18-1.35-.23-.43-.05-.87-.07-1.34-.07-1.14,0-2.07,.26-2.77,.78-.71,.52-1.23,1.24-1.56,2.17v9.14h-2.45v-14.25h2.32l.12,2.26c.58-.78,1.28-1.4,2.09-1.85,.81-.45,1.74-.68,2.77-.68Z"/>
      <path class="cls-1" d="M1093.56,1412.31l.96-9.56h9.84v2.37h-7.78l-.54,5.11c.38-.22,.83-.41,1.36-.58,.53-.17,1.14-.25,1.83-.25,.89,0,1.68,.15,2.38,.46,.7,.31,1.3,.74,1.79,1.3,.49,.56,.87,1.23,1.13,2.02,.26,.79,.39,1.67,.39,2.63,0,.91-.12,1.76-.37,2.54-.25,.78-.62,1.46-1.11,2.02-.5,.57-1.12,1.01-1.88,1.33s-1.64,.48-2.66,.48c-.78,0-1.52-.11-2.21-.33-.69-.22-1.31-.55-1.85-.99-.54-.44-.98-.99-1.33-1.66-.35-.67-.56-1.44-.65-2.33h2.32c.15,1.09,.55,1.91,1.21,2.48s1.49,.84,2.52,.84c.58,0,1.09-.1,1.54-.31,.45-.21,.82-.5,1.13-.88,.3-.38,.53-.84,.68-1.38,.15-.54,.23-1.13,.23-1.79,0-.6-.09-1.15-.26-1.67-.17-.52-.42-.97-.74-1.35-.33-.38-.72-.68-1.2-.9s-1.02-.33-1.63-.33c-.4,0-.75,.03-1.05,.08-.29,.06-.56,.14-.8,.24-.24,.11-.46,.23-.67,.38-.21,.15-.42,.32-.64,.51l-1.95-.5Z"/>
      <path class="cls-1" d="M1118.38,1416.73l1.46-13.98h2.3l-2.33,19.17h-2.49l-2.46-14.44-2.49,14.44h-2.5l-2.33-19.17h2.32l1.46,13.98,2.46-13.98h2.12l2.48,13.98Z"/>
      <path class="cls-1" d="M1124.6,1414.68c0-1.06,.13-2.04,.38-2.93,.25-.89,.63-1.66,1.12-2.3,.49-.64,1.09-1.14,1.81-1.5,.71-.36,1.53-.54,2.44-.54,.84,0,1.59,.14,2.23,.43,.65,.29,1.21,.7,1.68,1.24l.11-1.41h2.24v19.72h-2.44v-6.77c-.47,.5-1.03,.88-1.66,1.15-.63,.27-1.36,.4-2.19,.4-.9,0-1.71-.18-2.42-.55-.71-.37-1.31-.88-1.8-1.53-.49-.65-.87-1.42-1.13-2.3-.26-.88-.39-1.83-.39-2.85v-.28Zm2.44,.28c0,.69,.08,1.36,.23,1.99,.15,.63,.39,1.19,.7,1.67,.32,.48,.72,.87,1.21,1.15,.49,.29,1.07,.43,1.75,.43,.78,0,1.43-.18,1.96-.53,.53-.35,.96-.81,1.29-1.37v-7.03c-.17-.27-.36-.52-.57-.74-.21-.22-.46-.42-.72-.59-.27-.17-.56-.3-.88-.39-.32-.09-.67-.14-1.05-.14-.68,0-1.26,.14-1.75,.43-.49,.29-.9,.68-1.22,1.17s-.56,1.05-.71,1.68-.23,1.29-.23,1.99v.28Z"/>
      <path class="cls-1" d="M1152.99,1421.92h-12.56v-1.75l6.28-6.98c.56-.62,1.03-1.18,1.41-1.66,.38-.48,.68-.93,.91-1.34s.39-.79,.49-1.16,.14-.74,.14-1.13c0-.47-.08-.92-.23-1.34-.15-.42-.38-.78-.67-1.09-.29-.31-.65-.55-1.07-.73-.42-.18-.89-.27-1.42-.27-.64,0-1.2,.09-1.67,.28-.47,.18-.86,.45-1.17,.78-.31,.34-.54,.75-.7,1.23-.15,.48-.23,1.02-.23,1.62h-2.45c0-.81,.14-1.57,.42-2.29,.28-.71,.69-1.34,1.22-1.88,.53-.54,1.18-.96,1.95-1.28,.77-.32,1.64-.47,2.63-.47,.9,0,1.72,.13,2.44,.4,.72,.27,1.34,.64,1.84,1.11,.5,.47,.88,1.04,1.15,1.69s.4,1.36,.4,2.12c0,.57-.1,1.13-.29,1.69-.19,.56-.46,1.11-.78,1.65-.33,.54-.71,1.08-1.15,1.61-.43,.53-.89,1.06-1.38,1.59l-5.15,5.58h9.63v1.99Z"/>
      <path class="cls-1" d="M1163.16,1418l4.53-15.25h2.59l-6.04,19.17h-2.12l-6.06-19.17h2.61l4.49,15.25Z"/>
      <path class="cls-1" d="M1185.36,1421.92h-12.56v-1.75l6.28-6.98c.56-.62,1.03-1.18,1.41-1.66,.38-.48,.68-.93,.91-1.34s.39-.79,.49-1.16,.14-.74,.14-1.13c0-.47-.08-.92-.23-1.34-.15-.42-.38-.78-.67-1.09-.29-.31-.65-.55-1.07-.73-.42-.18-.89-.27-1.42-.27-.64,0-1.2,.09-1.67,.28-.47,.18-.86,.45-1.17,.78-.31,.34-.54,.75-.7,1.23-.15,.48-.23,1.02-.23,1.62h-2.45c0-.81,.14-1.57,.42-2.29,.28-.71,.69-1.34,1.22-1.88,.53-.54,1.18-.96,1.95-1.28,.77-.32,1.64-.47,2.63-.47,.9,0,1.72,.13,2.44,.4,.72,.27,1.34,.64,1.84,1.11,.5,.47,.88,1.04,1.15,1.69s.4,1.36,.4,2.12c0,.57-.1,1.13-.29,1.69-.19,.56-.46,1.11-.78,1.65-.33,.54-.71,1.08-1.15,1.61-.43,.53-.89,1.06-1.38,1.59l-5.15,5.58h9.63v1.99Z"/>
      <path class="cls-1" d="M1201.82,1414.59c0,1.22-.14,2.3-.42,3.25-.28,.94-.68,1.74-1.21,2.38s-1.17,1.13-1.94,1.47c-.76,.33-1.64,.5-2.62,.5s-1.85-.17-2.61-.5c-.77-.33-1.42-.82-1.96-1.47s-.95-1.44-1.23-2.38c-.29-.94-.43-2.03-.43-3.25v-4.49c0-1.22,.14-2.3,.42-3.25,.28-.94,.69-1.74,1.22-2.39,.53-.65,1.18-1.14,1.95-1.48,.77-.34,1.64-.51,2.61-.51s1.86,.17,2.63,.51c.77,.34,1.42,.83,1.95,1.48,.53,.65,.94,1.45,1.22,2.39,.28,.94,.42,2.03,.42,3.25v4.49Zm-9.97-.49l7.47-5.73c-.14-1.27-.51-2.24-1.11-2.9-.6-.66-1.47-.99-2.6-.99-1.28,0-2.23,.43-2.84,1.3s-.92,2.13-.92,3.79v4.54Zm7.52-3.4l-7.45,5.7c.15,1.24,.53,2.18,1.15,2.83,.61,.65,1.47,.97,2.57,.97,1.29,0,2.24-.44,2.84-1.32s.9-2.14,.9-3.79v-4.4Z"/>
      <path class="cls-1" d="M1211.55,1418.42l.22,.88,.24-.88,3.99-10.74h2.49l-5.81,14.25h-1.86l-5.86-14.25h2.5l4.08,10.74Z"/>
      <path class="cls-1" d="M1224.81,1414.23v7.69h-2.44v-19.17h6.21c.86,.02,1.67,.15,2.44,.41,.77,.25,1.44,.62,2.02,1.11s1.04,1.08,1.38,1.79,.51,1.53,.51,2.45-.17,1.74-.51,2.44c-.34,.71-.8,1.3-1.38,1.78-.58,.48-1.25,.85-2.02,1.11-.77,.25-1.58,.39-2.44,.4h-3.78Zm0-2h3.78c.56,0,1.08-.1,1.55-.27,.47-.17,.89-.42,1.24-.73,.35-.32,.62-.7,.82-1.15,.2-.45,.3-.97,.3-1.55s-.1-1.1-.3-1.57c-.2-.46-.47-.86-.82-1.18-.35-.33-.76-.58-1.24-.75s-1-.27-1.56-.28h-3.78v7.48Z"/>
    </g>
  </g>
</svg>