<?xml version="1.0" encoding="UTF-8"?>
<svg xmlns="http://www.w3.org/2000/svg" viewBox="0 0 1100 1000">
  <defs>
    <style>
      .cls-1 {
        fill: #0b0409;
      }

      .cls-1, .cls-2 {
        stroke-width: 2.86px;
      }

      .cls-1, .cls-2, .cls-3, .cls-4 {
        stroke: #6a5fdb;
      }

      .cls-5 {
        fill: #ff5053;
      }

      .cls-2 {
        fill: none;
      }

      .cls-6 {
        fill: #b2aaff;
      }

      .cls-3 {
        fill: #0f000a;
      }

      .cls-3, .cls-4 {
        stroke-width: 2.5px;
      }

      .cls-4 {
        fill: #190b2f;
        stroke-miterlimit: 10;
      }

      .cls-7 {
        stroke: #ff5053;
        stroke-linejoin: round;
        stroke-width: 4.5px;
      }
    </style>
  </defs>
  <g id="Blob">
    <path id="path1" class="cls-4" d="M949.81,301.84l.9-3.13.71-1.23.89-1.15,1.05-1.05,1.19-.93,2.29-1.59,2.5-1.52,2.67-1.22,2.79-.89,2.84-.54.68-.08,2.43-.19,2.4.05,2.34.29,2.24.53,1.43.42,2.15.73,2.04.9,1.92,1.07,1.78,1.23,1.4,1.07,1.54,1.26,1.44,1.34,1.33,1.43,1.23,1.5,1.59,2.09.98,1.34.93,1.37.88,1.4.83,1.43,2.07,3.72.54.98.53.99.52,1,.51,1,3.17,6.29.11.24.12.24.12.24.12.24,3.52,7.05.31.63.31.63.31.63.31.63,1.99,4.06.84,1.75.84,1.75.82,1.76.82,1.76.39.86,1.03,2.27,1.01,2.28,1,2.29.97,2.29.47,1.12.7,1.67.69,1.67.68,1.68.67,1.68,1.95,4.96.16.41.16.41.16.41.16.41,2.34,6.03.45,1.16.46,1.15.46,1.15.46,1.15.98,2.41.9,2.19.92,2.19.93,2.18.96,2.17,1.04,2.32,1.06,2.31,1.07,2.3,1.1,2.29,1.03,2.12.52,1.07.53,1.07.53,1.07.53,1.07,2.23,4.41.56,1.12.54,1.12.55,1.12.54,1.13,1.43,3.04.83,1.8.79,1.81.76,1.83.72,1.85.46,1.18.79,2.15.73,2.18.67,2.2.61,2.22.15.58.55,2.26.48,2.28.41,2.3.34,2.32.13.97.24,2.14.17,2.15.1,2.16.03,2.17v1.65s-.07,2.06-.07,2.06l-.14,2.07-.24,2.07-.32,2.08-.32,1.74-.45,2.15-.58,2.15-.72,2.14-.84,2.11-.53,1.22-1.05,2.21-1.23,2.16-1.4,2.1-1.56,2.03-.59.72-1.75,1.96-1.92,1.85-2.07,1.71-2.21,1.57-.62.4-2.37,1.41-2.47,1.21-2.57,1-2.72.8-2.94.59-2.85.3h-2.82s-2.75-.26-2.75-.26l-2.55-.52-2.42-.77-2.27-1.01-2.09-1.25-.89-.61-1.62-1.21-1.5-1.33-1.35-1.44-1.22-1.55-2.61-3.67-.4-.57-.39-.57-.38-.58-.37-.58-2.13-3.41-1.21-1.85-1.29-1.8-1.37-1.76-1.44-1.7-1.84-1.99-1.95-1.91-2.05-1.82-2.15-1.74-.49-.38-1.6-1.19-1.64-1.15-1.68-1.1-1.72-1.06-2.61-1.55-1.41-.83-1.43-.81-1.45-.79-1.46-.78-2.58-1.35-1.89-.98-1.91-.96-1.92-.95-1.93-.93-3.63-1.74-1.01-.48-1.02-.48-1.02-.47-1.03-.47-4.55-2.06-1.51-.7-1.49-.73-1.47-.76-1.45-.78-.81-.45-2.66-1.54-2.57-1.64-2.48-1.74-2.38-1.84-1.57-1.31-1.52-1.35-1.47-1.4-1.42-1.43-3.9-4.06-.16-.17-.22-.23-3.99-4.12-1.42-1.43-1.45-1.4-1.49-1.36-1.53-1.33-1.11-.94-1.78-1.45-1.84-1.39-1.9-1.33-1.96-1.27-.58-.36-2.13-1.27-2.2-1.19-2.26-1.11-2.38-1.05-2.58-1.01-2.58-.89-2.64-.79-2.69-.68-2.65-.56-2.7-.47-2.73-.37-2.76-.27-.5-.04-2.63-.17-2.65-.08h-2.67s-2.68.08-2.68.08l-.96.04-2.64.15-2.64.22-2.64.29-2.65.35-1.63.24-2.37.38-2.37.45-2.36.52-2.35.59-3.39.99-3.36,1.13-3.31,1.27-3.26,1.41-1.51.69-1.45.68-1.43.72-1.42.74-1.4.78-3.86,2.2-1.92,1.02-1.98.9-2.03.77-2.06.65-3.46.78-3.47.41-3.43.04-3.34-.34-.46-.07-1.85-.36-1.8-.47-1.74-.58-1.67-.69-4.73-2.14-.81-.38-.81-.39-.8-.4-.79-.41-3.65-1.93-1.93-1.11-1.81-1.24-1.68-1.37-1.55-1.49-.78-.81-1.44-1.66-1.24-1.79-1.03-1.91-.81-2.01-.24-.7-.58-2.18-.3-2.26v-2.32s.28-2.35.28-2.35l.65-2.61,1-2.57,1.33-2.5,1.72-2.49,1.73-2.06,1.83-1.83,2.01-1.68,2.16-1.52,1.88-1.22,1.86-1.14,1.92-1.06,1.97-.96,2.01-.87,4.44-1.8,1.34-.51,1.35-.45,1.37-.39,1.38-.33,1.98-.44,3.29-.95,3.16-1.38,2.95-1.77,2.66-2.11,1.67-1.67,1.47-1.8,1.27-1.9,1.03-1.98.51-1.13.93-2.36.66-2.39.39-2.4.11-2.38-.04-3.26-.03-1-.05-1-.09-.99-.11-.98-.95-7.16-.06-.38-.08-.38-.09-.37-.11-.36-1.49-4.49-.91-1.48-1.52-1-1.93-.37-2.07.3-1.49.66-1.29.98-.98,1.21-.59,1.35-1.18,4.33-.26.83-.33.83-.39.81-.45.8-1.39,2.27-1.76,2.33-2.22,2.04-2.58,1.66-2.83,1.21-2.18.56-2.2.28h-2.16s-2.09-.33-2.09-.33l-2.35-.53-1.89-.51-1.79-.68-1.68-.83-1.56-.98-4.23-2.96-.52-.37-.52-.38-.51-.39-.5-.39-2.91-2.32-2.06-1.56-2.15-1.46-2.24-1.37-2.32-1.27-2.29-1.13-2.36-1.04-2.42-.94-2.48-.85-1.96-.62-1.68-.51-1.69-.48-1.71-.45-1.73-.42-4.99-1.16-1.14-.26-1.15-.26-1.15-.25-1.15-.24-5.39-1.14-1.57-.33-1.57-.34-1.57-.34-1.56-.35-4.31-.97-1.68-.37-1.68-.36-1.69-.35-1.69-.33-3.08-.59-2.23-.4-2.24-.37-2.26-.33-2.27-.29-3.89-.47-1.38-.15-1.39-.11-1.4-.08-1.41-.05-5.11-.11-1.77.02-1.78.15-1.79.28-1.78.4-3.04.8-2.22.75-2.1,1.05-1.92,1.33-1.68,1.56-1.65,2.14-1.17,2.32-.63,2.41-.07,2.39.03.3.34,1.84.67,1.72.99,1.56,1.29,1.37,3.66,3.24.39.33.4.33.4.32.41.31,4.34,3.22,1.35,1.17,1.12,1.35.88,1.5.62,1.62.38,1.29.32,2.02-.17,2.1-.66,2.09-1.11,2-1.63,1.92-2.01,1.63-2.3,1.26-2.48.83-.91.22-2.04.35-2.03.09-1.97-.18-1.87-.45-6.06-1.93-.31-.1-.42-.13-6.43-1.86-1.82-.38-1.91-.13-1.95.13-1.96.38-1.04.27-2.57.94-2.34,1.42-1.98,1.82-1.5,2.11-.79,1.79-.41,1.83-.03,1.81.36,1.73,1.79,5.38.08.24,1.56,4.37.77,2.36.65,2.4.52,2.44.4,2.48.18,1.38.28,1.73.36,1.71.45,1.68.53,1.65.81,2.3.71,1.76.87,1.68,1.02,1.6,1.17,1.51,1.44,1.68,1.3,1.33,1.49,1.16,1.67.98,1.82.78,2.99.79,3.19.29,3.29-.22,3.29-.72,1.06-.32,1.44-.47,1.42-.55,1.38-.63,1.35-.71,2.59-1.44,2.65-1.29,2.77-.99,2.84-.67,2.86-.33h2.56s2.49.26,2.49.26l2.38.55,2.24.82,2.35,1.04,1.39.65,1.33.73,1.28.8,1.21.86,5.45,4.11.23.17.31.23,4.15,3.07,1.94,1.38,2.01,1.32,2.06,1.25,2.12,1.18,2.48,1.26,2.55,1.18,2.61,1.08,2.68.99.74.26,2.02.67,2.05.63,2.07.58,2.09.54,1.94.47,2.28.53,2.3.49,2.31.46,2.33.42,3.27.56,1.53.26,1.54.25,1.54.24,1.54.23,4.16.6,1.94.28,1.94.27,1.94.26,1.95.25,2.12.26,2.59.31,2.6.29,2.61.26,2.61.24,4.33.39.88.07.88.06.88.06.88.05,4.01.19,2.83.06,2.85-.09,2.87-.24,2.88-.39,2.85-.54,2.84-.68,2.81-.83,2.78-.97.62-.23,2.52-1.01,2.48-1.11,2.44-1.21,2.38-1.3,4.52-2.59.58-.33.59-.32.58-.32.59-.31,4.53-2.35,2.47-1.15,2.55-.93,2.61-.71,2.64-.47,2.9-.25,2.86.05,2.78.34,2.67.63.47.14,2.16.75,2.04.93,1.91,1.1,1.76,1.27.92.74,1.67,1.46,1.52,1.58,1.36,1.69,1.2,1.8.5.83,1.07,1.92.92,2,.77,2.07.61,2.12.18.71.49,2.26.34,2.3.19,2.34.04,2.36v.32s-.12,2.51-.12,2.51l-.27,2.52-.42,2.53-.6,2.61-.73,2.55-.85,2.45-.99,2.43-1.12,2.4-.36.72-1.12,2.15-1.22,2.12-1.3,2.09-1.39,2.06-1.15,1.63-1.28,1.78-1.33,1.76-1.38,1.73-1.42,1.71-1.64,1.93-1.5,1.74-1.53,1.72-1.56,1.7-1.59,1.69-2.09,2.18-1.41,1.45-1.44,1.43-1.47,1.4-1.5,1.38-2.12,1.92-1.84,1.6-1.89,1.54-1.96,1.48-2.01,1.42-1.31.9-2.26,1.47-2.34,1.37-2.4,1.26-2.46,1.15-1.26.55-2.38.97-2.42.83-2.46.69-2.49.55-3.25.5-3.22.25h-3.19s-3.13-.26-3.13-.26l-2.32-.36-2.25-.5-2.19-.64-2.11-.78-5.2-2.13-.25-.1-.26-.1-.25-.1-.26-.1-.47-.19-4.52-1.67-4.62-1.5-4.71-1.33-4.93-1.19-.55-.12-.41-.1-.41-.1-.41-.1-3.9-.93-2.93-.78-2.85-.92-2.77-1.06-2.68-1.2-2.05-1.05-1.99-1.13-1.91-1.21-1.84-1.29-1.56-1.14-1.5-1.14-1.46-1.18-1.42-1.21-1.38-1.25-.95-.89-1.81-1.73-1.75-1.77-1.7-1.82-1.71-1.95-1.58-1.91-1.45-1.85-1.4-1.89-1.34-1.92-.95-1.39-.96-1.44-.94-1.46-.92-1.47-.9-1.48-2.59-4.35-.33-.56-.34-.56-.34-.55-.35-.55-3.05-4.83-.78-1.17-.83-1.14-.88-1.11-.93-1.07-2.36-2.6-1.25-1.24-1.38-1.12-1.51-.99-1.63-.85-1.93-.89-2.02-.75-2.18-.46-2.28-.16-2.48.17-2.94.61-2.71,1.03-2.52,1.43-2.25,1.78-1.69,1.81-1.37,1.99-1.01,2.11-.62,2.17-.41,2.1-.24,1.69-.07,1.68.09,1.66.27,1.62.99,4.53.22.95.25.95.27.94.29.93,1.39,4.19.59,1.63.66,1.6.74,1.56.82,1.52,1.66,2.64,1.9,2.49,2.12,2.33,2.36,2.19,1.4,1.14,1.43,1.06,1.49,1,1.53.94,3.93,2.29.95.56.95.57.94.58.93.59,5.76,3.73.53.34.53.33.54.33.54.32,2.95,1.71,2.49,1.32,2.64,1.12,2.76.92,2.87.72,2.4.43,2.45.3,2.5.15h2.53s3.37-.06,3.37-.06l1.55-.02h1.55s1.54.06,1.54.06l1.53.08,1.1.07,3.56.28,3.53.41,3.48.54,3.43.66,3.84.82.22.04,9.09,1.96.84.2.82.23.81.26.79.28,4.3,1.63,1.7.84,1.44,1.12,1.13,1.37.79,1.58.47,2.34-.22,2.47-.91,2.44-1.54,2.27-.58.68-1.38,1.42-1.58,1.25-1.74,1.05-1.86.83-3.76,1.41-1.76.6-1.78.5-1.8.39-1.8.28-2.57.32-2.68.24-2.66.06-2.62-.12-2.57-.31-2.82-.56-2.71-.78-2.58-1-2.44-1.21-1.86-1.04-1.21-.7-1.18-.74-1.15-.78-1.11-.82-3.58-2.74-1.17-.88-1.18-.86-1.2-.85-1.21-.83-5.48-3.7-.3-.2-.3-.2-.3-.2-.3-.2-7.54-5.14-.26-.18-.34-.24-5.82-4.13-1.15-.73-1.25-.61-1.33-.5-1.4-.38-3.02-.66-2.04-.22-2.12.2-2.09.61-2.01,1.02-2.07,1.64-1.53,1.96-.92,2.17-.25,2.22.36,1.87.89,1.66,1.36,1.35,1.75.97,4.31,1.7.68.25.7.22.71.2.73.17,2.16.45,3.35.89,3.15,1.24,2.91,1.57,2.64,1.88,1.3,1.14,1.2,1.21,1.1,1.29,1,1.36,2.03,2.97.84,1.16.91,1.12.97,1.08,1.03,1.03.97.91,2.12,1.77,2.36,1.53,2.57,1.27,2.76,1,2.26.59,2.34.41,2.4.23,2.44.06,2.67-.03,1.95-.06,1.96-.14,1.97-.21,1.97-.28,3.64-.59,2.04-.35,2.04-.39,2.03-.43,2.03-.47,4.14-.99,1.71-.39,1.72-.34,1.72-.3,1.72-.26,2.53-.34,2.8-.29,2.78-.12,2.75.06,2.78.24,2.8.43,2.66.61,2.56.79,2.51,1,2.32,1.14,2.14,1.28,2,1.43,1.85,1.58,1.76,1.8,1.57,1.94,1.37,2.07,1.19,2.26.92,2.18.7,2.18.51,2.25.32,2.3.12,1.25.14,2.01.03,2.03-.09,2.05-.2,2.05-.21,1.73-.32,2.19-.4,2.19-.49,2.19-.58,2.18-.26.9-.75,2.47-.84,2.46-.93,2.45-1.07,2.54-1.18,2.57-1.21,2.43-1.3,2.41-1.42,2.44-1.51,2.43-1.55,2.33-1.63,2.3-1.76,2.32-1.82,2.27-1.85,2.16-1.92,2.12-1.99,2.07-.59.59-1.83,1.8-1.9,1.75-1.95,1.7-2.01,1.65-1.89,1.51-1.7,1.3-1.75,1.24-1.81,1.18-1.85,1.12-2.66,1.54-2.03,1.09-2.09.96-2.15.82-2.19.68-2.82.77-2.09.46-2.1.23h-2.07s-2.01-.22-2.01-.22l-1.72-.29-2.26-.61-2-1.02-1.67-1.38-1.27-1.69-.82-1.97-.32-2.14.19-2.23.7-2.22.54-1.25.8-1.6,1-1.53,1.18-1.45,1.35-1.34,5.16-4.63.33-.3.34-.3.34-.29.34-.29,5.17-4.34,1.57-1.38,1.48-1.45,1.39-1.51,1.3-1.57,1.55-1.98,1.33-1.88,1.12-1.97.89-2.03.66-2.07.24-.92.42-2.32.05-2.3-.33-2.23-.69-2.11-1.09-2.04-1.45-1.82-1.77-1.57-2.07-1.29-.99-.51-1.81-.82-1.92-.65-2.01-.47-2.09-.3-5.89-.57-.54-.05-.54-.04-.54-.04-.55-.03-5.99-.35-2.11-.18-2.07-.31-2.02-.43-1.97-.54-.96-.3-2.56-.95-2.39-1.19-2.2-1.42-1.98-1.64-1.59-1.67-1.38-1.82-1.16-1.95-.93-2.07-1.36-3.56-.24-.65-.22-.66-.21-.66-.2-.67-1.49-5.28-.47-1.34-.65-1.26-.81-1.17-.97-1.07-1.32-1.28-1.75-1.3-2.1-.88-2.35-.41-2.48.08-2.5.57-2.38,1.02-2.15,1.43-1.8,1.77-1.68,2.01-1.01,1.32-.86,1.38-.71,1.42-.56,1.46-2.22,6.9-.08.24-.1.32-2.45,7.97-.3,1-.3,1-.29,1-.29,1-.79,2.81-.8,2.7-.86,2.69-.93,2.69-.99,2.67-.94,2.37-.99,2.36-1.04,2.35-1.1,2.34-.65,1.36-.96,1.94-.99,1.93-1.03,1.92-1.07,1.91-1.03,1.79-1.21,2.03-1.27,2.01-1.33,1.99-1.39,1.96-1.99,2.63-2.09,2.57-2.2,2.51-2.3,2.45-1.75,1.76-1.8,1.72-1.85,1.68-1.9,1.64-3.88,3.27-.68.58-.67.59-.66.6-.65.61-4.01,3.78-1.52,1.55-1.37,1.64-1.21,1.72-1.04,1.79-.13.25-1.22,2.77-.77,2.83-.32,2.84.15,2.78.39,1.94.63,1.86.86,1.76,1.08,1.64,2.26,3.01.61.86.55.89.51.91.45.94.89,1.99.8,2.38.35,2.53-.12,2.6-.58,2.62-.84,2.18-1.14,2.11-1.43,2-1.69,1.86-2.42,2.39-1.14,1.08-1.19,1.04-1.24.99-1.28.94-3.53,2.48-1.81,1.17-1.91,1.02-1.99.85-2.05.68-.48.14-3.17.68-3.17.23-3.08-.24-2.92-.69-2.03-.81-1.86-1.04-1.66-1.26-1.43-1.46-3.63-4.32-.15-.18-3.43-3.98-1.55-1.66-1.69-1.55-1.82-1.43-1.95-1.3-1.37-.84-1.73-.96-1.83-.83-1.92-.69-2-.54-1.78-.41-2.37-.4-2.45-.14-2.5.13-2.51.4-3.03.84-2.92,1.21-2.76,1.55-2.52,1.86-2.97,2.48-.61.52-.59.53-.58.54-.57.55-1,.98-3.2,2.96-3.4,2.78-3.58,2.59-3.75,2.38-1.36.81-.65.4-.64.41-.63.42-.62.43-4.32,3.08-1.91,1.57-1.63,1.79-1.31,1.96-.95,2.07-.42,1.16-.52,2.17v2.15s.55,2.02.55,2.02l1.04,1.8.73.95,1.35,1.31,1.74.93,2.01.48h2.17s2.68-.61,2.68-.61l2.47-1.27,2.04-1.81,1.43-2.18,1.65-3.54.12-.26.17-.34,2.63-4.96,1.34-2.17,1.63-2.04,1.9-1.87,2.13-1.66,2.5-1.53,2.67-1.23,2.78-.9,2.84-.55.82-.11,2.28-.2h2.26s2.21.21,2.21.21l2.14.41,2.22.54,2,.56,1.94.68,1.86.79,1.78.91,2.42,1.35,1.55.9,1.51.96,1.46,1.01,1.41,1.06,4.21,3.3.51.39.52.38.53.37.54.36,3.72,2.42,1.96,1.08,2.15.83,2.3.56,2.4.28,2.76-.03,2.79-.38,2.76-.72,2.68-1.05,1.57-.72,1.83-.92,1.76-1.03,1.69-1.14,1.6-1.24,3.82-3.16,1.1-.88,1.14-.84,1.17-.8,1.21-.76,2.44-1.47,2.57-1.36,2.7-1.06,2.79-.75,2.82-.42,2.61-.09,2.55.2,2.44.49,2.3.78,1.03.43,1.95.92,1.81,1.1,1.66,1.26,1.49,1.41.96,1.02,1.39,1.61,1.23,1.72,1.07,1.81.9,1.9.56,1.33.72,1.89.6,1.94.47,1.98.34,2.02.24,1.75.24,2.01.15,2.03.06,2.04-.03,2.06-.06,2-.09,2.02-.15,2.03-.21,2.03-.26,2.03-.28,1.94-.32,2.12-.36,2.12-.4,2.12-.44,2.12-.36,1.68-.49,2.17-.54,2.17-.58,2.16-.62,2.16-.49,1.65-.66,2.12-.72,2.11-.77,2.11-.82,2.1-.6,1.47-.93,2.19-1.02,2.17-1.09,2.15-1.17,2.13-.66,1.15-1.27,2.12-1.37,2.09-1.46,2.05-1.55,2.01-.84,1.05-1.62,1.93-1.73,1.86-1.83,1.79-1.92,1.72-1.08.92-2.01,1.62-2.11,1.51-2.2,1.4-2.28,1.28-1.22.64-2.37,1.13-2.44.96-2.49.79-2.52.6-1.22.24-2.53.39-2.52.16-2.49-.08-2.41-.32-.93-.17-2.35-.58-2.19-.85-2-1.11-1.78-1.36-.23-.2-1.62-1.71-1.28-1.95-.9-2.14-.51-2.29-.11-2.34.28-2.38.67-2.38,1.04-2.32,1.38-2.57.7-1.22.76-1.2.82-1.17.88-1.15,2.13-2.64,1.58-2.04,1.46-2.1,1.35-2.14,1.23-2.18.18-.35,1.24-2.51,1.07-2.55.9-2.57.72-2.59.16-.67.45-2.16.3-2.16.16-2.15v-2.13s-.02-1.24-.02-1.24l-.17-2.23-.38-2.18-.58-2.12-.79-2.04-1.21-2.34-1.48-2.19-1.75-2.02-2.07-1.89-1.83-1.38-1.89-1.18-2.01-1.04-2.11-.89-4.75-1.78-.47-.18-.47-.18-.47-.19-.47-.19-1.93-.8-3.41-1.53-3.26-1.73-3.1-1.92-2.93-2.1-1.37-1.06-.5-.38-.51-.36-.52-.35-.54-.33-3.29-1.99-2.31-1.11-2.56-.71-2.73-.29-2.83.14-2.74.55-2.68.93-2.53,1.29-2.32,1.62-2.16,1.74-1.16,1.01-1.07,1.08-.96,1.15-.85,1.21-2.35,3.64-.79,1.6-.37,1.66.08,1.62.52,1.5,1.57,1.86,2.32,1.14,2.77.27,2.86-.64,2.24-.86,3.11-1.26,3.9-1.29,3.99-.74,3.97-.18,3.85.39,1.22.25,1.19.31,1.16.37,1.12.42,6.46,2.64.61.24.61.23.61.23.62.22,5.27,1.82,1.77.71,1.66.87,1.53,1.02,1.38,1.16,1.85,2.08,1.42,2.35.97,2.57.49,2.73.07.79.07,1.56-.06,1.58-.2,1.59-.32,1.59-1.06,4.28-.4,1.37-.53,1.35-.65,1.32-.77,1.29-1.87,2.87-1.29,1.63-1.61,1.41-1.85,1.14-2.02.82-2.41.5h-2.39s-2.23-.48-2.23-.48l-1.96-.95-2.27-1.49-1.01-.74-.92-.82-.82-.9-.71-.98-2.57-3.95-.76-1.11-.82-1.08-.86-1.05-.91-1.01-2.05-2.16-1.5-1.41-1.67-1.26-1.83-1.09-1.97-.91-.89-.36-2.35-.77-2.49-.48-2.59-.19-2.65.11-2.84.44-2.81.77-2.73,1.09-2.63,1.4-2.3,1.55-2.07,1.74-1.84,1.92-1.59,2.08-.5.73-1.27,2.07-1.04,2.14-.8,2.19-.55,2.21-.35,1.82-.3,1.93-.16,1.92-.03,1.91.11,1.89.39,4.06.12,1.07.14,1.07.16,1.06.18,1.05.69,3.79.34,1.94.31,1.95.29,1.96.26,1.96.11.89.29,2.54.25,2.55.2,2.57.15,2.57.04.86.08,2.02.04,2.03v2.03s-.02,2.04-.02,2.04l-.06,2.37-.07,1.86-.12,1.86-.16,1.87-.22,1.87-.31,2.47-.3,2.01-.39,2.01-.48,2.01-.57,2-.6,1.95-.72,2.09-.85,2.07-.99,2.04-1.12,2-.76,1.26-1.38,2.11-1.57,2.03-1.74,1.93-1.9,1.82-.68.6-2.12,1.73-2.29,1.56-2.42,1.37-2.53,1.16-.32.13-2.78.99-2.84.71-2.87.43-2.85.14-2.79-.15-2.7-.44-2.58-.72-2.41-.99-.24-.11-2.14-1.19-1.94-1.4-1.73-1.6-1.49-1.79-.4-.54-1.21-1.86-1-1.97-.78-2.07-.55-2.16-.19-.95-.34-2.17-.15-2.22.03-2.25.21-2.26.21-1.53.34-2.07.45-2.07.57-2.06.67-2.05.72-2.02.75-2,.82-1.99.89-1.98.96-1.96.78-1.54,1.16-2.2,1.22-2.18,1.28-2.16,1.34-2.14.66-1.03,1.38-2.1,1.42-2.08,1.46-2.06,1.51-2.04,1.96-2.59.95-1.25.96-1.24.97-1.24.98-1.23,3.04-3.79,1.09-1.38,1.07-1.39,1.06-1.4,1.04-1.41,1.62-2.23,1.49-2.1,1.43-2.13,1.36-2.16,1.3-2.18.47-.82,1.25-2.25,1.16-2.27,1.08-2.29.99-2.31.45-1.11.83-2.15.73-2.17.64-2.18.54-2.18.46-2.03.37-1.91.26-1.91.14-1.9.03-1.89-.02-1.18-.18-2.51-.44-2.45-.69-2.37-.94-2.27-.49-1.03-.85-1.56-1.01-1.47-1.16-1.37-1.31-1.25-1.25-1.09-1.85-1.36-2.1-1.08-2.3-.78-2.46-.46-2.74-.14-2.8.24-2.79.61-2.73.97-2.46,1.21-2.28,1.47-2.07,1.71-1.81,1.92-1.01,1.21-1.26,1.64-1.11,1.7-.95,1.76-.78,1.8-2.21,5.82-.1.28-.1.28-.1.28-.1.28-1.64,4.6-.94,2.48-1.06,2.45-1.18,2.43-1.29,2.4-1.44,2.42-1.55,2.38-1.67,2.33-1.77,2.28-.95,1.17-1.34,1.61-1.38,1.59-1.42,1.57-1.46,1.54-3.39,3.49-.91.93-.92.92-.92.92-.93.91-4.75,4.64-.9.88-.91.88-.91.88-.92.87-3.13,2.97-1.8,1.69-1.83,1.67-1.86,1.65-1.88,1.63-.67.58-2.3,1.93-2.34,1.89-2.38,1.85-2.41,1.82-.32.24-2.23,1.62-2.27,1.59-2.29,1.55-2.32,1.51-1.21.77-2.14,1.34-2.16,1.29-2.2,1.25-2.22,1.21-1.65.88-2.28,1.17-2.31,1.11-2.34,1.05-2.37.98-1.76.7-2.33.88-2.36.79-2.38.7-2.4.61-1.42.33-2.66.55-2.67.4-2.66.26-2.65.11h-.36s-2.85-.05-2.85-.05l-2.81-.24-2.75-.42-2.78-.63-2.54-.77-2.34-.9-2.23-1.06-2.11-1.21-.55-.35-1.91-1.32-1.76-1.46-1.6-1.6-1.43-1.73-.44-.59-1.23-1.84-1.01-1.96-.78-2.07-.55-2.15-.08-.4-.31-2.35-.02-2.41.28-2.44.57-2.44.87-2.46,1.15-2.4,1.42-2.32,1.67-2.21.32-.38,1.73-1.91,1.89-1.79,2.04-1.66,2.18-1.51,1.53-.98,2.02-1.22,2.08-1.13,2.13-1.03,2.18-.92,3.7-1.46,1.55-.59,1.56-.57,1.57-.54,1.58-.51,6.63-2.06.84-.27.84-.27.84-.27.84-.28,5.65-1.89,2.02-.71,2-.77,1.98-.84,1.95-.9,2.33-1.11,2.27-1.16,2.2-1.28,2.12-1.39,2.03-1.5,1.04-.82,2.04-1.72,1.89-1.85,1.72-1.96,1.53-2.06.26-.39,1.42-2.31,1.16-2.39.89-2.44.61-2.47.33-2.51.03-2.48-.27-2.43-.57-2.35-.15-.47-.75-2.03-.95-1.94-1.16-1.83-1.35-1.71-1.12-1.28-1.29-1.38-1.39-1.31-1.48-1.23-1.56-1.15-2.87-1.97-1.19-.8-1.22-.78-1.24-.75-1.26-.73-3.21-1.8-1.68-.93-1.69-.91-1.71-.89-1.73-.86-2-.99-2-.96-2.03-.92-2.05-.88-2.14-.87-2.9-1.1-2.89-1-2.93-.92-2.97-.85-2.3-.6-2.32-.55-2.35-.51-2.36-.46-2.26-.42-1.98-.35-1.99-.31-2-.28-2.01-.24-2.2-.25-2.5-.24-2.52-.17-2.54-.09h-2.56s-3.21.08-3.21.08l-3.23.21-3.23.33-3.24.44-4.31.67-.45.07-.45.07-.45.07-.45.07-3.98.67-3.41.54-3.41.48-3.41.42-3.4.36-2.44.22-2.44.19-2.43.16-2.43.13-4.4.21-1.19.05-1.19.05-1.19.05-1.19.04-5.97.21-1.64.06-1.64.08-1.64.09-1.64.1-3.06.2-2.66.2-2.66.25-2.67.3-2.67.35-3.18.48-3.18.56-3.17.63-3.17.7-.42.1-2.44.59-2.43.63-2.43.66-2.42.7-3.43,1.03-1.63.49-1.62.5-1.62.51-1.62.52-6.8,2.22-.7.23-.7.23-.7.23-.7.23-6.64,2.2-1.69.57-1.69.58-1.69.58-1.69.59-2.03.72-2.98,1.07-2.97,1.11-2.95,1.14-2.94,1.18-2.65,1.1-2.64,1.13-2.63,1.16-2.61,1.18-4.24,1.95-.76.35-.76.34-.77.34-.77.34-5.7,2.47-1.93.8-1.96.74-1.98.67-1.99.61-2.79.8-2.36.6-2.38.45-2.38.3-2.37.15-1.52.05-2.58-.04-2.51-.28-2.42-.52-2.31-.75-.38-.15-2.34-1.08-2.13-1.34-1.88-1.59-1.61-1.82-1.28-1.97-.97-2.12-.65-2.25-.33-2.45v-2.47s.35-2.4.35-2.4l.68-2.39.99-2.35,1.37-2.37,1.68-2.24,1.96-2.08,2.25-1.92,2.29-1.59,2.4-1.34,2.52-1.11,2.6-.86,1.79-.49,2.08-.51,2.09-.39,2.09-.26,2.08-.14,5.56-.2.91-.03.91-.02h.9s.9,0,.9,0l4.72.05h2.5s2.51-.01,2.51-.01l2.51-.06,2.52-.09,1.68-.07,2.45-.12,2.45-.17,2.46-.21,2.46-.25,2.26-.25,2.25-.27,2.25-.32,2.25-.38,2.25-.43,2.47-.5,2.33-.51,2.32-.6,2.31-.68,2.29-.76,1.72-.61,2.49-.95,2.44-1.08,2.38-1.2,2.31-1.32.78-.47,2.37-1.53,2.25-1.67,2.13-1.8,2.06-1.99,2-2.21,1.73-2.23,1.53-2.33,1.33-2.4,1.09-2.42.87-2.46.65-2.48.42-2.49.04-.34.19-2.36v-2.34s-.22-2.3-.22-2.3l-.41-2.25-.23-1.02-.52-2-.65-1.95-.78-1.9-.91-1.84-1.37-2.56-.67-1.21-.7-1.19-.73-1.17-.76-1.15-2.45-3.61-.75-1.14-.72-1.16-.69-1.17-.66-1.19-1.18-2.2-1.01-2.04-.87-2.1-.73-2.16-.59-2.21-.49-2.55-.3-2.6-.11-2.64.07-2.66.06-.95.16-1.91.24-1.92.32-1.92.41-1.92,1.41-6.08.06-.25.08-.33,1.37-6.03.42-1.99.35-1.99.28-1.99.21-1.99.17-1.86.14-2.18.02-2.16-.1-2.14-.21-2.12-.16-1.26-.36-2.14-.51-2.1-.67-2.04-.82-1.98-.41-.88-1.02-1.95-1.2-1.85-1.38-1.74-1.55-1.61-.57-.54-1.74-1.48-1.91-1.31-2.07-1.12-2.21-.93-.53-.2-2.42-.74-2.54-.5-2.63-.25h-2.79s-2.92.28-2.92.28l-2.81.55-2.77.82-2.7,1.08-2.6,1.33-2.46,1.56-2.28,1.77-2.08,1.95-.41.42-1.71,1.92-1.52,2.03-1.31,2.12-1.1,2.18-.57,1.27-.85,2.11-.69,2.13-.53,2.15-.36,2.15-.27,2.16-.2,1.88-.11,1.87-.02,1.86.07,1.85.3,5.03.04.66.05.66.05.66.06.66.48,5.34.13,1.66.09,1.67.05,1.68v1.68s0,2.56,0,2.56l-.06,2.11-.16,2.12-.25,2.12-.35,2.13-.25,1.34-.51,2.32-.65,2.32-.8,2.3-.94,2.28-.43.96-1.07,2.21-1.23,2.17-1.39,2.11-1.53,2.05-.73.92-1.68,1.96-1.83,1.85-1.98,1.74-2.11,1.61-1.06.75-2.2,1.43-2.32,1.25-2.41,1.06-2.48.85-1.12.33-2.59.63-2.61.35-2.59.06-2.52-.22-.6-.09-2.52-.55-2.34-.88-2.12-1.19-1.84-1.48-1.59-1.81-1.22-2.05-.82-2.24-.4-2.45v-2.34s.36-2.3.36-2.3l.71-2.29,1.04-2.23,1.05-1.9.92-1.54,1.03-1.5,1.13-1.46,1.23-1.4,3.31-3.55,1.02-1.12.99-1.14.96-1.15.92-1.17,1.96-2.55,1.5-2.11,1.33-2.18,1.15-2.24.96-2.28.26-.67.77-2.35.53-2.36.3-2.36.06-2.34-.02-.79-.19-2.19-.44-2.12-.69-2.04-.93-1.94-.29-.52-1.27-1.92-1.55-1.74-1.81-1.52-2.04-1.29-2.31-1.06-2.49-.78-2.63-.49-2.73-.18-1.74-.02-1.89.03-1.9.14-1.91.25-1.91.35-4.76,1.01-1.53.3-1.53.26-1.53.22-1.53.18-3.29.35-2.58.18h-2.56s-2.51-.2-2.51-.2l-2.45-.38-.91-.18-2.38-.59-2.26-.8-2.12-1.01-1.97-1.21-.73-.51-1.72-1.36-1.49-1.56-1.25-1.73-.99-1.88-.28-.65-.71-2.06-.36-2.17v-2.24s.33-2.27.33-2.27l.77-2.47,1.17-2.4,1.54-2.28,1.87-2.1.45-.45,1.73-1.56,1.89-1.41,2.02-1.24,2.13-1.06,6.13-2.72.34-.15.45-.21,5.74-2.66,2.27-1.17,2.16-1.36,2.02-1.53,1.85-1.69,2.02-2.26,1.71-2.42,1.37-2.55,1-2.63.68-2.24.33-1.18.28-1.18.22-1.18.17-1.18.31-2.54.44-2.58.7-2.58.96-2.55,1.2-2.5,1.34-2.28,1.54-2.21,1.73-2.11,1.91-2,.59-.58,1.92-1.74,2.05-1.62,2.17-1.48,2.28-1.33,2.89-1.41,2.99-1.16,3.06-.91,3.22-.66,2.57-.33,2.44-.15,2.42.02,2.38.18,5.94.67.41.05.54.06,5.56.55,2.63.18,2.67.03,2.69-.12,2.7-.28,3.05-.48,3.03-.68,3.01-.86,3.07-1.08,2.61-1.07,2.45-1.15,2.39-1.27,2.32-1.38,1.02-.64,2.23-1.46,2.16-1.54,2.09-1.62,2.01-1.7,2.77-2.43,1.07-.96,1.06-.97,1.04-.98,1.03-.99,2.58-2.52,1.92-1.83,1.97-1.78,2.03-1.73,2.08-1.68,2.6-1.97,2.67-1.9,2.74-1.81,2.8-1.73.79-.47,1.95-1.14,1.98-1.1,2-1.06,2.02-1.03,2.76-1.37,2.01-.98,2.02-.96,2.03-.93,2.04-.91,4.19-1.85,1.39-.62,1.38-.63,1.38-.64,1.37-.66,1.6-.78,3.23-1.62,3.18-1.71,3.13-1.79,3.08-1.87.49-.31,1.79-1.14,1.76-1.18,1.74-1.21,1.71-1.23,1.12-.82,2.51-1.91,2.43-1.99,2.35-2.06,2.27-2.13,1.95-1.95,1.88-2,1.8-2.04,1.73-2.09.44-.55,1.64-2.12,1.58-2.16,1.5-2.19,1.43-2.22,2.16-3.46.5-.81.49-.82.48-.83.46-.82,1-1.8,1.83-3.06,2.03-2.98,2.23-2.89,2.42-2.79,1.06-1.15.88-.98.84-1,.8-1.02.76-1.05,1.61-2.3,1.46-2.34,1.16-2.44.83-2.5.5-2.52.48-2.43.79-2.41,1.09-2.36,1.38-2.28,2.28-3.36.52-.75.54-.74.55-.73.57-.72,3.32-4.12,1.28-1.72,1.13-1.78.97-1.84.8-1.88.14-.37.86-2.85.43-2.87v-2.83s-.43-2.75-.43-2.75l-.59-1.94-.81-1.85-1.03-1.74-1.24-1.61-1.42-1.65-1.21-1.31-1.3-1.24-1.39-1.16-1.48-1.08-3.55-2.42-.95-.63-.96-.62-.98-.6-.99-.59-5.23-3.04-.89-.51-.89-.51-.89-.51-.89-.5-6.98-3.9-.25-.14-.33-.19-7.3-4.07-.78-.44-.78-.44-.78-.44-.77-.44-4.41-2.52-1.53-.89-1.51-.91-1.5-.93-1.48-.95-1.52-.99-2.06-1.38-2.01-1.43-1.96-1.48-1.91-1.53-1.57-1.29-1.22-1.03-1.18-1.06-1.14-1.1-1.1-1.13-2.24-2.37-1.17-1.33-1.07-1.39-.97-1.46-.86-1.52-1.02-1.95-.82-1.85-.59-1.95-.35-2.02-.1-2.08v-.51s.24-2.61.24-2.61l.64-2.62,1.03-2.57,1.41-2.48,1.52-2.06,1.77-1.92,1.99-1.76,2.18-1.57,1.16-.75,2.12-1.26,2.21-1.11,2.28-.95,2.34-.78,1.89-.56,2.39-.64,2.41-.51,2.41-.38,2.41-.24,2.58-.19,2.09-.12,2.08-.05h2.07s2.05.1,2.05.1l5.24.29,1.03.06,1.03.07,1.02.08,1.02.08,5.94.51,1.67.13,1.68.11,1.69.08,1.69.06,4.05.06,4.07-.07,4.09-.2,4.1-.33,3.42-.33,7.36-.74,2.1-.1,2.06.12,1.99.34,1.89.55.72.26,2.33,1.09,1.99,1.48,1.59,1.82,1.14,2.1.58,1.96.21,2.06-.16,2.12-.53,2.12-.66,1.96-.67,1.72-.83,1.68-.98,1.63-1.13,1.57-4.11,5.27-.25.32-.25.32-.24.32-.24.32-3.04,4.1-1.56,2.23-1.41,2.29-1.25,2.34-1.09,2.38-.98,2.57-.79,2.59-.59,2.61-.39,2.6-.06.47-.19,2.23-.05,2.21.08,2.2.21,2.17.14,1.02.36,2.24.47,2.2.59,2.17.71,2.12,1.24,3.43.29.78.31.77.32.76.34.76,1.83,3.94.7,1.75.52,1.82.32,1.88.13,1.93-.16,2.89-.58,2.9-.99,2.88-1.38,2.8-.75,1.31-.75,1.25-.81,1.22-.87,1.19-.93,1.17-4.15,4.99-.64.81-.59.83-.54.85-.49.87-1.99,3.77-.77,1.97-.25,2,.28,1.92.8,1.74,1.35,1.53,1.79,1.13,2.12.67,2.33.16,3.53-.14,1.02-.07,1.03-.12,1.03-.18,1.02-.24,7.83-2.03.85-.23.85-.25.85-.27.84-.29,5.11-1.8,2.17-.92,2.04-1.16,1.88-1.39,1.73-1.65,1.91-2.47,1.32-2.61.73-2.71.1-2.69-.32-1.88-.64-1.78-.95-1.63-1.24-1.45-2.67-2.6-.74-.76-.7-.8-.66-.83-.61-.86-1.99-2.94-1.13-1.74-1.06-1.79-.99-1.82-.92-1.86-1.91-4.04-.26-.54-.27-.53-.27-.53-.28-.53-2.14-3.95-.87-1.82-.69-1.91-.5-1.98-.3-2.03-.09-2.87.29-2.91.66-2.92,1.02-2.89.38-.9.75-1.65.85-1.62.95-1.59,1.04-1.55,2.2-3.1,1.07-1.57,1.02-1.59.96-1.61.91-1.64,1.61-3.26,1.37-3.32,1.12-3.35.88-3.38.35-1.73.29-1.73.22-1.72.15-1.72.3-4.39.1-1.2.14-1.2.19-1.2.23-1.2.39-1.86.77-2.92,1.08-2.89,1.39-2.82,1.68-2.73,1.39-1.91,1.53-1.84,1.66-1.76,1.78-1.67,2.17-1.92,1.47-1.35,1.4-1.4,1.33-1.44,1.29-1.53,2.2-2.98,1.88-3.06,1.56-3.16,1.24-3.23.54-1.79.43-1.8.33-1.8.22-1.8.64-6.63.68-6.89.2-1.67.28-1.68.36-1.67.44-1.67.78-2.74.68-2.04.87-2.02,1.05-1.97,1.23-1.91.75-1.08,1.66-2.13,1.92-1.97,2.14-1.79,2.34-1.58,2.7-1.44,2.84-1.14,2.93-.82,2.96-.49,1.52-.16,2.02-.15,2-.02,1.97.1,1.94.23,5.06.78,1.07.18,1.07.19,1.06.21,1.05.23,5.39,1.2,1.65.36,1.66.35,1.67.33,1.68.32,1.94.36,2.84.49,2.86.44,2.88.38,2.9.32,2.73.24,2.75.2,2.76.15,2.77.09,4.57.11.68.02.68.03.68.03.68.04,5.75.35,2.11.2,2.06.34,2.01.47,1.94.61,1.17.41,2.4,1.02,2.2,1.28,1.97,1.52,1.71,1.75,1.39,1.88,1.11,2.04.82,2.18.53,2.39.22,2.46-.09,2.4-.39,2.42-.71,2.51-1,2.49-1.24,2.33-1.49,2.25-1.73,2.13-.96,1.07-1.5,1.6-1.6,1.52-1.7,1.44-1.79,1.35-4.6,3.29-.72.51-.72.51-.73.5-.74.49-5.49,3.62-1.52,1.03-1.48,1.08-1.45,1.12-1.4,1.15-2.39,2.02-1.85,1.68-1.71,1.79-1.57,1.88-1.46,2.05-1.58,2.65-1.23,2.65-.92,2.7-.61,2.72-.26,2.23-.04,2.21.18,2.18.4,2.12.42,1.76.47,1.74.58,1.7.68,1.66.79,1.61,1.62,3.06.65,1.2.68,1.18.71,1.17.74,1.15,3.01,4.57.45.69.44.69.43.7.42.7,2.38,3.95.88,1.55.8,1.59.72,1.63.64,1.66.11.32.85,2.79.62,2.87.37,2.93.13,2.98-.05,1.99-.15,2-.26,2.01-.36,2.01-.73,3.51-.25,1.36-.18,1.36-.12,1.35-.05,1.35-.03,2.89.12,2.17.42,2.1.71,2,.99,1.88.39.62,1.31,1.75,1.61,1.53,1.88,1.28,2.11,1.01.8.31,2.15.65,2.29.33h2.38s2.54-.35,2.54-.35l2.86-.8,2.6-1.19,2.38-1.56,2.08-1.88,1.47-1.79,1.16-1.92.83-2.01.48-2.05.83-5.72.04-.23.96-5.03,1.31-4.88,1.67-4.84,2.02-4.78.17-.37,2.19-4.75,1.13-2.61,1-2.64.87-2.66.73-2.67.54-2.42.43-2.42.32-2.42.2-2.41.17-2.93.07-1.21.04-1.21.03-1.21v-1.21s0-4.74,0-4.74v-1.5s.03-1.5.03-1.5l.04-1.5.06-1.51.18-3.85.1-1.67.15-1.67.19-1.67.23-1.68.53-3.43.31-1.73.41-1.73.5-1.72.59-1.71,1.1-2.94.78-1.81.96-1.76,1.13-1.71,1.29-1.63,1.45-1.68,1.66-1.69,1.9-1.48,2.09-1.25,2.24-.98.3-.11,2.71-.76,2.75-.32,2.68.13,2.52.58,2.04.87,1.79,1.18,1.49,1.46,1.15,1.7.63,1.16.76,1.7.52,1.8.27,1.87v1.93s-.13,2.31-.13,2.31l-.19,1.88-.34,1.89-.49,1.88-.64,1.87-1.04,2.73-.72,1.79-.8,1.77-.88,1.76-.95,1.73-2.79,4.89-.39.68-.4.68-.4.68-.41.67-1.09,1.81-1.93,3.24-1.89,3.25-1.84,3.27-1.79,3.28-.89,1.66-.42.78-.42.78-.42.78-.43.78-3.73,6.77-.4.72-.4.72-.4.72-.4.71-3.62,6.44-.52.93-.5.94-.49.94-.48.95-2.1,4.21-.88,1.9-.77,1.92-.66,1.94-.55,1.95-.25.99-.52,2.58-.28,2.57-.02,2.55.22,2.51.43,2.32.65,2.25.87,2.17,1.08,2.07,1.1,1.88.75,1.19.84,1.14.92,1.08,1,1.02,3.41,3.23.93.75,1.06.6,1.18.45,1.27.29,1.99.31h2.29s2.28-.65,2.28-.65l2.03-1.24,1.56-1.7.73-1.41.35-1.47-.05-1.45-.45-1.34-2.36-4.66-.26-.49-.28-.47-.3-.46-.32-.45-2.51-3.39-1.24-1.87-1.03-1.98-.81-2.08-.59-2.17-.4-2.52-.1-2.58.18-2.62.47-2.64.15-.65.56-2.05.72-2.04.87-2.01,1.01-1.98.37-.66,1.5-2.5,1.69-2.42,1.88-2.33,2.05-2.23.6-.62,1.65-1.61,1.73-1.55,1.8-1.48,1.87-1.42,2.44-1.77,1.7-1.26,1.66-1.29,1.63-1.33,1.59-1.36,1.45-1.26,2.13-1.9,2.08-1.94,2.03-1.98,1.98-2.02,1.94-2.02,1.12-1.18,1.11-1.19,1.1-1.19,1.09-1.21,3.56-3.97,1.02-1.14,1.02-1.15,1.02-1.15,1.01-1.15,2.89-3.31,1.37-1.57,1.36-1.57,1.35-1.58,1.35-1.58,1.61-1.9,1.59-1.89,1.58-1.9,1.57-1.91,1.55-1.91.48-.59,1.82-2.29,1.8-2.3,1.78-2.31,1.76-2.32,1.68-2.26,1.66-2.28,1.64-2.28,1.62-2.3,3.31-4.73,4.08-5.83,1.24-1.74,1.28-1.72,1.32-1.71,1.35-1.69,2.32-2.76,2.41-2.7,2.5-2.64,2.62-2.6,1.6-1.52,1.61-1.47,1.64-1.45,1.66-1.42,3.52-2.96,1.11-.94,1.1-.95,1.09-.96,1.07-.97,2.48-2.26,2.02-1.9,1.95-1.95,1.88-2,1.8-2.05,1.92-2.34,1.82-2.4,1.72-2.44,1.62-2.49.99-1.59.9-1.47.87-1.48.84-1.49.81-1.49,2.33-4.38.67-1.21.71-1.19.76-1.18.8-1.16,2.33-3.28,1.36-1.74,1.53-1.64,1.69-1.52,1.83-1.38.37-.26,2.67-1.62,2.85-1.29,2.97-.94,3.02-.56,2.42-.17,2.37.07,2.3.32,2.2.57,3.04.97,1.39.48,1.36.54,1.32.6,1.27.66,5.47,2.99.59.32.58.33.58.33.58.33,7.21,4.22.3.18.3.18.3.18.3.18,5.86,3.46,1.24.74,1.24.74,1.23.75,1.22.75,3.64,2.26,1.35.85,1.33.86,1.32.88,1.3.9,3.03,2.13,1.36.99,1.32,1.03,1.28,1.07,1.23,1.1,2.46,2.28,1.18,1.17,1.09,1.24.99,1.31.9,1.37,1.42,2.34.82,1.61.59,1.71.36,1.79.12,1.85v.51s-.27,2.62-.27,2.62l-.77,2.61-1.25,2.53-1.7,2.37-1.69,1.78-1.92,1.59-2.12,1.37-2.27,1.13-2.64,1.13-1.79.71-1.83.6-1.85.5-1.86.39-4.3.76-1.8.3-1.8.25-1.8.2-1.8.15-3.54.25-2.26.14-2.26.1-2.25.06-2.24.02h-1.84s-2.61-.02-2.61-.02l-2.6-.06-2.59-.1-2.59-.13-4.4-.26-.93-.05-.92-.04-.93-.03-.93-.02-4.21-.06-2.7.04-2.72.18-2.73.33-2.73.47-3.03.7-3.01.88-2.96,1.05-2.91,1.22-.64.29-2.25,1.07-2.2,1.16-2.15,1.25-2.1,1.33-2.01,1.33-1.91,1.3-1.87,1.34-1.83,1.38-1.79,1.43-2.61,2.14-1.52,1.26-1.5,1.28-1.48,1.29-1.46,1.31-3.24,2.95-1.3,1.19-1.29,1.19-1.28,1.2-1.27,1.2-2.52,2.4-1.75,1.65-1.76,1.65-1.77,1.64-1.77,1.63-2.6,2.36-2.62,2.34-2.64,2.32-2.65,2.3-2.85,2.46-.41.35-.41.35-.41.35-.4.35-7.56,6.56-.3.26-.3.26-.3.26-.3.26-6.65,5.74-.87.75-.86.76-.86.76-.85.77-3.19,2.87-1.97,1.74-2.02,1.7-2.06,1.66-2.1,1.62-2.68,1.96-2.74,1.89-2.79,1.82-2.84,1.75-2.58,1.55-1.01.59-1.02.58-1.02.57-1.04.55-4.28,2.25-2.12,1.19-2.04,1.31-1.96,1.42-1.86,1.52-.65.56-2.19,2.07-1.98,2.21-1.75,2.34-1.5,2.45-.56,1.03-.9,1.83-.71,1.86-.52,1.89-.33,1.89-.32,2.62-.06,1.81.25,1.76.56,1.66.86,1.53,1.93,2.07,2.52,1.51,2.96.88,3.23.19.37-.02,1.73-.18,1.73-.35,1.7-.53,1.65-.69,6.14-2.95.65-.32.65-.33.64-.34.64-.34,5.54-3.05,1.88-1.04,1.88-1.06,1.86-1.08,1.85-1.09,2.49-1.48,2.1-1.23,2.12-1.19,2.14-1.16,2.16-1.14,1.09-.57,2.67-1.34,2.7-1.29,2.72-1.23,2.75-1.17,2.83-1.13,2.85-1.07,2.87-1,2.89-.94.46-.14,2.61-.79,2.62-.74,2.63-.69,2.64-.64,3.43-.8,1.46-.35,1.45-.37,1.45-.39,1.45-.41.47-.14,4.05-1.28,4-1.45,3.94-1.62,3.87-1.78,1.57-.78,1.55-.8,1.54-.83,1.52-.86,3.96-2.27,1.75-.98,1.77-.93,1.79-.89,1.81-.85,1.23-.56,3.07-1.31,3.12-1.16,3.17-1.01,3.2-.85,2.56-.57,2.57-.46,2.57-.36,2.57-.26,2.87-.23,1.81-.13,1.81-.09,1.8-.06,1.8-.03h1.48s3.22.03,3.22.03l3.2.17,3.16.3,3.11.42,2.4.42,2.37.49,2.34.57,2.3.64,5.41,1.6.35.1.46.14,6.55,1.99,1.76.53,1.77.52,1.77.51,1.78.5,4.51,1.25,1.23.35,1.22.36,1.22.38,1.21.39,3.43,1.14,2.19.77,2.14.86,2.08.93,2.02,1.01.4.21,2.36,1.33,2.26,1.46,2.15,1.57,2.03,1.68,1.74,1.61,1.64,1.7,1.53,1.78,1.42,1.85.88,1.22,1.05,1.5.99,1.54.94,1.57.88,1.6,1.36,2.57.75,1.45.72,1.46.7,1.47.67,1.48,2.26,5.08.2.46.2.46.2.46.2.46,1.98,4.69.76,1.7.82,1.67.89,1.64.95,1.6,1.68,2.53,1.84,2.42,2,2.32,2.15,2.2,1.39,1.29,1.44,1.24,1.49,1.2,1.54,1.15,2.06,1.48,1.57,1.1,1.6,1.07,1.62,1.04,1.65,1.01,1.54.92,2.03,1.19,2.05,1.16,2.08,1.13,2.1,1.09,1.51.77,1.82.91,1.83.89,1.84.88,1.85.86,5.91,2.7,6.1,2.79,1.76.82,1.74.83,1.73.85,1.72.87,1.46.75,2.21,1.17,2.17,1.21,2.14,1.25,2.1,1.29,2.26,1.46,2.21,1.51,2.17,1.55,2.2,1.67,1.91,1.5,1.78,1.47,1.75,1.5,1.71,1.54.69.63,1.65,1.54,1.62,1.57,1.59,1.59,1.56,1.62.53.55,1.61,1.72,1.58,1.75,1.55,1.77,1.52,1.79.43.51,1.45,1.76,1.42,1.77,1.4,1.79,1.37,1.81.85,1.14,1.17,1.57,1.15,1.58,1.14,1.6,1.12,1.6,2.15,3.1.62.89.62.9.61.9.61.9,3.64,5.4.33.48.33.48.33.49.33.48,3.77,5.51.57.83.57.82.58.82.59.82,2.91,4.03.86,1.16.89,1.14.92,1.12.95,1.1,2.23,2.53,1.25,1.33,1.33,1.26,1.41,1.19,1.49,1.12,1.72,1.23,1.8,1.15,1.93,1.01,2.04.85,2.15.68.85.23,2.56.55,2.66.29,2.73.02,2.76-.25,2.79-.52,2.76-.79,2.69-1.04,2.59-1.28.6-.33,2.22-1.34,2.11-1.5,1.97-1.64,1.83-1.76.94-.99,1.69-1.87,1.54-1.95,1.39-2.02,1.25-2.08.65-1.17,1.11-2.15.98-2.18.84-2.21.71-2.22.32-1.09.59-2.3.48-2.31.36-2.3.23-2.3.08-.95.12-2.31.02-2.3-.08-2.28-.19-2.26-.1-.96-.27-2.22-.36-2.19-.44-2.18-.52-2.15-.32-1.22-.57-2.01-.61-1.99-.67-1.97-.73-1.94-.64-1.64-.73-1.81-.76-1.79-.79-1.78-.83-1.77-1.01-2.09-.78-1.62-.81-1.6-.82-1.6-.84-1.59-1.25-2.35-.85-1.57-.86-1.56-.88-1.55-.89-1.54-1.37-2.36-.9-1.52-.92-1.51-.95-1.49-.97-1.48-1.32-1.96-1.12-1.62-1.16-1.59-1.21-1.56-1.26-1.53-.84-1.01-1.53-1.74-1.6-1.68-1.67-1.63-1.74-1.57-2.08-1.71-2.17-1.63-2.25-1.55-2.33-1.46-.96-.57-1.62-.94-1.65-.9-1.68-.87-1.7-.83-6.11-2.9-2.44-1.11-2.55-1.82-1.54-2.58-.34-3.04Z"/>
    <path id="path2" class="cls-3" d="M788.47,282.11l-1.58.87-1.65.93-1.02,1.46-.12,1.59.81,1.3,1.84,1.55.54.56.4.65.25.73.09.77.05,5.7-.05,1.11-.18,1.12-.31,1.11-.43,1.1-1.54,3.45-1.1,1.73-1.6,1.44-1.95,1.02-2.12.5-2.02-.05-1.83-.57-1.47-1.04-.99-1.42-1.7-3.74-.16-.37-.14-.37-.13-.38-.11-.38-.99-3.65-.89-2.32-1.35-2.1-1.77-1.81-2.15-1.47-1.96-.92-2.13-.65-2.26-.38-2.35-.1-5.69.1h-.36s-.36.02-.36.02h-.36s-.36.03-.36.03l-1,.05-4.89.13-4.85-.1-4.8-.33-4.73-.56-1.45-.21-.25-.04-2.74-.39-4.13-.55-4.15-.5-4.17-.44-4.18-.38-1.31-.11-.79-.07-.79-.07-.79-.08-.79-.08-4.88-.51-2.39-.21-2.4-.14-2.42-.07h-2.44s-3.3.1-3.3.1l-3.32.23-3.33.35-3.33.47-.47.08-2.23.39-2.23.44-2.22.49-2.22.54-4.28,1.09-1.42.35-1.42.33-1.43.31-1.43.29-6.59,1.27-1.08.23-1.07.28-1.06.33-1.05.38-3.78,1.46-2.34,1.14-2.08,1.52-1.72,1.83-1.29,2.05-.74,2-.3,2.02.16,1.97.62,1.84,1.5,3.13.38.74.42.72.47.7.5.67,3.2,4.01.76,1.21.47,1.34.16,1.43-.15,1.48-.25,1.21-.78,2.01-1.43,1.8-1.94,1.4-2.25.87-1.73.25-1.68-.11-1.55-.45-1.32-.78-4.09-3.2-.39-.29-.4-.28-.41-.27-.42-.26-2.42-1.43-2.65-1.26-2.93-.81-3.13-.33-3.24.15-2.07.34-2.05.53-2.01.72-1.95.89-5.62,2.88-.56.29-.56.3-.55.3-.55.31-8.15,4.61-.6.35-.58.36-.58.37-.56.39-4.57,3.23-1.7,1.46-1.35,1.7-.94,1.86-.47,1.93v1.85l.46,1.74.89,1.56,1.28,1.3,2.47,1.95,1.06.76,1.14.67,1.22.57,1.28.47,7.05,2.26.27.09.27.09.27.08.27.08,7.88,2.37.95.32.91.38.87.44.82.5,2.79,1.81,1.58,1.4,1.04,1.77.43,2.02-.2,2.14-.44,1.32-.67,1.28-.88,1.2-1.07,1.09-3.02,2.67-1.49,1.54-1.2,1.71-.87,1.81-.52,1.87-.13,2.09.34,2,.79,1.84,1.22,1.61,2.15,2.23.82.79.89.74.95.68,1.01.61,5.37,3.02.78.45.77.46.75.48.74.49,3.72,2.54,1.49,1.14,1.34,1.28,1.18,1.4,1.04,1.58,1.21,2.55.71,2.66.24,2.78-.23,2.85-.39,1.81-.58,1.8-.76,1.77-.93,1.73-3.56,5.99-.09.15-2.11,3.51-1.87,2.94-2.04,2.87-2.2,2.8-2.35,2.71-1.26,1.38-.8.86-.83.84-.86.82-.88.8-4.12,3.63-1.29,1.26-1.13,1.36-.95,1.45-.77,1.51-1.05,2.42-.54,1.79-.08,1.79.38,1.69.87,1.58,1.68,1.6,2.16.98,2.5.32,2.62-.35,2.12-.8,1.91-1.2,1.59-1.53,1.16-1.77,2.37-4.74.24-.5.22-.5.21-.51.19-.51,2.09-5.91.6-1.52.73-1.5.85-1.46.96-1.42,2.29-3.14,1.19-1.41,1.4-1.26,1.58-1.08,1.71-.87,3.12-.95,3.16-.21,2.97.54,2.57,1.25,1.65,1.13.77.57.71.63.65.68.58.72,3.4,4.62.64.9.62.91.59.93.57.94.25.42,1.65,3.06,1.42,3.17,1.18,3.27.94,3.36.3,1.35.27,1.36.23,1.37.19,1.38.33,2.73.22,2.16.13,2.18.04,2.19-.05,2.2-.19,2.83-.34,2.83-.48,2.84-.62,2.84-1.07,4.35-.04.16-1.26,5.27-.42,2.35-.14,2.33.14,2.29.42,2.23.78,2.36,1.11,2.22,1.42,2.05,1.71,1.86,1.58,1.49.92.91.86.96.81,1,.75,1.03.54.78,1.52,2.61,1.12,2.8.7,2.95.27,3.07-.04,1.84-.2,1.85-.34,1.85-.49,1.85-1.41,4.59-.29.91-.33.9-.37.9-.4.89-1.85,3.9-1.12,1.98-1.44,1.85-1.72,1.67-1.95,1.46-.81.53-2.46,1.31-2.63.89-2.7.42-2.65-.06-2.48-.54-2.22-.99-1.86-1.41-1.43-1.76-.45-.72-.85-1.68-.54-1.81-.21-1.9.11-1.95.65-4.61.11-.69.13-.69.14-.69.16-.69.7-2.79.69-3,.57-3,.46-3,.34-2.99.1-1.11.13-1.52.1-1.52.08-1.51.05-1.51.05-1.94.1-2.56.17-2.57.24-2.58.31-2.58.37-2.5.43-2.5.49-2.5.56-2.5.64-2.71.29-1.23.28-1.23.27-1.23.26-1.23.83-4.06.36-1.83.32-1.83.29-1.83.25-1.82.53-4.1.14-1.21.1-1.21.05-1.2.02-1.2-.03-6.4-.04-.61-.1-.59-.17-.57-.23-.55-1.84-3.75-.98-1.08-1.5-.51-1.72.17-1.58.81-.48.43-.4.49-.31.53-.21.55-1.65,5.85-.5,1.52-.62,1.5-.75,1.47-.87,1.43-.21.31-1.98,2.65-2.33,2.44-2.64,2.2-2.9,1.92-1.86,1.08-1.08.61-1.1.58-1.12.55-1.13.51-5.57,2.42-1.58.7-1.58.72-1.56.73-1.56.75-5.47,2.69-1.11.55-1.1.55-1.1.56-1.1.57-5.86,3.02-1.31.69-1.3.71-1.28.74-1.27.76-3.75,2.28-1.91,1.24-1.83,1.33-1.74,1.42-1.65,1.51-1.13,1.09-1.83,1.94-1.62,2.06-1.4,2.16-1.15,2.24-.96,2.48-.65,2.52-.34,2.52-.02,2.49.16,2.82.08,1.01.11,1,.15.99.18.98.45,2.25.39,2.66.11,2.72-.17,2.76-.45,2.77-.56,2.21-.73,2.2-.9,2.17-1.07,2.14-1.38,2.53-.81,1.44-.86,1.43-.91,1.41-.95,1.39-.32.45-2.18,2.94-2.35,2.86-2.51,2.76-2.67,2.66-1.51,1.39-1.55,1.36-1.59,1.32-1.63,1.29-2.95,2.27-1.56,1.24-1.53,1.27-1.5,1.3-1.46,1.33-2.73,2.68-2.58,2.79-2.41,2.88-2.25,2.97-2.14,2.99-.2.28-4.09,5.65-1.27,1.67-1.37,1.62-1.46,1.57-1.54,1.51-.91.86-2.26,1.95-2.42,1.79-2.57,1.61-2.69,1.42-2.6,1.15-2.67.96-2.72.77-2.74.58-2.81.49-1.63.26-1.63.21-1.62.16-1.62.12-4.38.25-1.99.14-1.99.18-1.99.21-2,.26-3.38.47-2.13.34-2.12.41-2.12.5-2.11.57-3.54,1.03-1.82.59-1.78.7-1.74.81-1.68.92-1.78,1.04-2.36,1.59-2.11,1.85-1.81,2.07-1.47,2.23-1.12,2.41-.7,2.48-.26,2.48.19,2.43.06.34.55,2.12.89,1.99,1.21,1.83,1.51,1.63.4.37,1.87,1.49,2.11,1.23,2.32.96,2.49.67.3.06,2.61.38,2.69.1,2.74-.19,2.75-.47,1.72-.39,2.08-.53,2.05-.65,2.02-.77,1.98-.88,6.5-3.13.29-.14.38-.18,5.95-2.81,2.33-1.04,2.37-.95,2.41-.85,2.43-.76,1.26-.36,2.65-.69,2.67-.54,2.68-.39,2.67-.24.96-.06,2.58-.07,2.56.1,2.51.27,2.45.44,1.96.43,1.88.49,1.79.65,1.69.8,1.58.95,1.3.87,1.81,1.46,1.48,1.73,1.12,1.95.73,2.13.33,2.36-.13,2.43-.58,2.45-1.01,2.4-1.04,2.01-.72,1.3-.81,1.27-.9,1.23-.98,1.19-2.6,3-1.52,1.57-1.7,1.42-1.86,1.25-1.99,1.06-3.2,1.2-3.31.68-3.29.13-3.17-.42-2.32-.52-.92-.19-.93-.15-.94-.12-.96-.08-3.12-.2-3.15-.13h-3.18s-3.2.17-3.2.17l-3.21.3-4.25.5-.48.05-.47.05-.48.05-.47.05-6.98.71-1.85.21-1.86.26-1.86.3-1.85.35-3.92.88-3.89,1.08-3.85,1.27-3.82,1.47-1.77.76-1.72.78-1.71.82-1.68.86-3.9,2.04-1.71.86-1.73.81-1.75.75-1.78.7-2.19.82-2.73.91-2.77.73-2.8.53-2.8.33-2.94.14-2.91-.09-2.85-.31-2.76-.54-1.19-.28-1.97-.52-1.92-.62-1.86-.71-1.8-.8-5.8-2.78-.15-.07-4.63-2.24-2.42-1.12-2.48-1.04-2.52-.96-2.58-.88-2.55-.78-2.59-.7-2.63-.62-2.67-.54-1.33-.25-2.1-.37-2.12-.33-2.13-.29-2.15-.25-.45-.05-3.23-.31-3.26-.23-3.28-.15-3.29-.07-3.81-.03h-.53s-.53-.03-.53-.03l-.53-.03-.52-.03-5.86-.44-2.05-.32-1.9-.64-1.69-.94-1.42-1.22-.86-.91-1.17-1.69-.6-1.96v-2.11s.62-2.13.62-2.13l1.29-2.14,1.84-1.86,2.27-1.44,2.53-.91,1.25-.3,1.98-.33,1.96-.05,1.89.24,1.77.52,2.28.89,2.05.66,2.16.43,2.24.19,2.3-.05,1.87-.14,2.45-.27,2.45-.46,2.43-.65,2.39-.83,5.49-2.13.45-.17.46-.17.46-.17.46-.17,3.44-1.24,3.48-1.18,3.51-1.07,3.53-.95,3.62-.85,2.24-.46,2.17-.4,2.17-.35,2.17-.31,4.51-.59,1.39-.21,1.4-.26,1.39-.31,1.38-.36,1.8-.5,3.34-1.12,3.22-1.47,3.04-1.8,2.8-2.09,1.66-1.49,1.53-1.58,1.39-1.67,1.24-1.74,1.59-2.42,1.13-1.64,1.22-1.61,1.29-1.57,1.37-1.52,2.63-2.61,2.84-2.43,3.04-2.24,3.21-2.03,1.31-.77,1.18-.67,1.2-.65,1.21-.61,1.23-.59,4.92-2.28,1.7-.88,1.62-1.01,1.52-1.12,1.41-1.23,2.92-2.35,3.3-1.88,3.56-1.32,3.68-.72,1.03-.11,1.2-.1,1.19-.05,1.18.02,1.17.07,3.72.33,2.59.11,2.63-.14,2.65-.38,2.63-.61,2.9-.97,2.8-1.24,2.67-1.5,2.5-1.74,2.25-1.74,1.03-.82,1-.85.98-.88.94-.9,4.12-4.05,1.19-1.15,1.2-1.14,1.21-1.12,1.23-1.11,2.74-2.45,1.79-1.59,1.8-1.57,1.81-1.56,1.83-1.55,4.79-4.02.3-.25.3-.25.3-.25.3-.24,4.18-3.43,2.14-1.83,2.05-1.9,1.96-1.97,1.87-2.03.24-.28,1.79-2.12,1.68-2.18,1.56-2.24,1.44-2.28,1.77-2.95.55-.98.5-1,.44-1.01.38-1.02,1.36-4.01.43-1.89v-1.87s-.42-1.78-.42-1.78l-.84-1.61-1.5-1.62-1.96-1.2-2.31-.71-2.63-.18-2.16.24-2.04.55-1.95.85-1.8,1.12-2.78,2.05-1.36,1.08-1.27,1.16-1.17,1.23-1.06,1.3-3.04,4.04-.91,1.17-.95,1.15-.98,1.13-1.01,1.11-1.4,1.49-2.26,2.25-2.43,2.11-2.59,1.96-2.73,1.8-2.26,1.3-2.33,1.19-2.39,1.06-2.44.94-1.55.55-2.38.8-2.4.7-2.42.61-2.44.51-1.61.31-2.54.43-2.54.32-2.53.21-2.52.1-1.09.02-2.64-.02-2.61-.17-2.57-.31-2.51-.45-2.78-.69-2.69-.87-2.58-1.05-2.51-1.25-2.06-1.21-1.9-1.29-1.79-1.4-1.67-1.5-1.03-1-1.4-1.42-1.32-1.48-1.24-1.53-1.16-1.58-.83-1.18-1.22-1.82-1.14-1.87-1.06-1.91-.98-1.95-.35-.73-.95-2.06-.87-2.1-.79-2.13-.72-2.16-.17-.53-.65-2.23-.58-2.25-.5-2.28-.42-2.3-.08-.51-.33-2.3-.24-2.32-.15-2.34-.06-2.36v-.44s.03-2.43.03-2.43l.13-2.44.23-2.45.35-2.53.47-2.62.56-2.54.67-2.53.78-2.52.89-2.5.99-2.49,1.1-2.47,1.2-2.44.22-.43,1.18-2.22,1.26-2.19,1.33-2.17,1.41-2.14,1.11-1.64,1.19-1.69,1.25-1.66,1.31-1.63,1.38-1.6,1.9-2.14,1.51-1.61,1.6-1.54,1.7-1.47,1.78-1.39,1.47-1.08,2.23-1.52,2.36-1.34,2.46-1.15,2.63-.99,3.02-.85,2.96-.54,2.96-.25,2.92.04,2.63.3,2.54.55,2.41.79,2.27,1.02.7.37,1.97,1.14,1.83,1.3,1.67,1.45,1.5,1.59,1.35,1.58,1.06,1.31.98,1.37.9,1.41.82,1.46,2.99,5.65,2.92,5.55.84,1.52.91,1.48.98,1.44,1.04,1.4,1.25,1.6,1.38,1.63,1.51,1.53,1.64,1.43,1.76,1.32.57.4,2.12,1.33,2.27,1.16,2.4.97,2.52.77,2.67.59,2.76.38,2.82.17,2.87-.05.48-.03,2.6-.22,2.6-.38,2.6-.53,2.58-.68,1.12-.33,2.53-.83,2.48-.97,2.43-1.11,2.36-1.24,1.07-.6,2.25-1.37,2.14-1.51,2.02-1.64,1.88-1.76,2.08-2.29,1.84-2.42,1.57-2.54,1.29-2.62.21-.49.75-1.92.61-1.94.47-1.95.32-1.95.63-4.96.09-.63.09-.63.11-.63.12-.63.8-4.16.57-2.3.82-2.27,1.07-2.23,1.29-2.16,1.65-2.24,1.89-2.11,2.1-1.96,2.29-1.78,4.32-3.05.27-.2.25-.21.24-.22.23-.23,1.22-2.09.05-2.2-1.14-1.8-2.07-.99-.79-.16-.72-.1-.75-.02-.76.07-.76.15-5.1,1.33-2.26.5-2.26.33-2.26.15-2.23-.03-5.83-.3-.53-.03-.53-.02-.53-.02h-.53s-.73-.03-.73-.03l-4.81.02-4.84.23-4.87.45-4.87.66-.76.12-.53.08-.53.08-.53.08-.53.07-5.55.69-2.43.21h-2.41s-2.36-.18-2.36-.18l-2.3-.38-2.81-.76-2.63-1.06-2.42-1.35-2.17-1.61-.37-.31-1.39-1.3-1.25-1.41-1.11-1.51-.96-1.6-1.67-3.12-.56-1.08-.53-1.1-.49-1.12-.45-1.13-.91-2.4-.8-2.22-.74-2.24-.67-2.27-.6-2.29-1.1-4.45-.08-.33-.11-.43-1.09-4.07-.78-2.42-1.01-2.33-1.23-2.22-1.45-2.1-1.44-1.73-1.59-1.62-1.74-1.5-1.88-1.37-1.8-1.2-1.41-.9-1.45-.86-1.49-.81-1.53-.76-1.93-.91-2.25-1.01-2.31-.93-2.37-.84-2.42-.75-2.77-.74-2.83-.63-2.88-.52-2.92-.4-.65-.07-2.31-.24-2.33-.17-2.34-.11-2.36-.05-5.63-.03h-.56s-.56,0-.56,0h-.56s-.56,0-.56,0l-4.02.02h-3.18s-3.17-.08-3.17-.08l-3.16-.12-3.14-.18-2.52-.18-2.51-.22-2.5-.25-2.49-.3-3.86-.48-1.16-.14-1.17-.13-1.16-.12-1.17-.11-3.28-.3-2.81-.21-2.84-.13-2.86-.04-2.87.04-2.89.13-2.9.22-2.91.31-2.9.39-1.58.24-2.12.33-2.12.37-2.12.41-2.11.44-2.21.48-2.59.54-2.59.49-2.59.44-2.59.39-3.7.53-1.37.18-1.37.15-1.37.11-1.37.08-6.22.3-1.31.11-1.31.21-1.3.31-1.28.4-3.34,1.56-2.95,2.15-2.39,2.63-1.69,2.95-.83,1.95-.23.56-.21.57-.19.57-.17.57-.46,1.7-1.18,3.23-1.75,3.1-2.27,2.89-2.73,2.6-1.37,1.06-1.44.98-1.5.89-1.56.8-3.59,1.71-1.99,1-1.96,1.07-1.91,1.14-1.87,1.2-2.85,1.91-1.66,1.13-1.63,1.17-1.61,1.19-1.58,1.22-4.4,3.47-.89.7-.9.69-.9.69-.9.69-5.48,4.15-1.09.83-1.08.85-1.07.86-1.06.87-1.39,1.15-2.73,2.36-2.63,2.44-2.52,2.53-2.41,2.6-1.45,1.67-1.4,1.69-1.35,1.72-1.3,1.74-2.03,2.8-1.05,1.42-1.08,1.41-1.1,1.4-1.12,1.39-2.41,2.92-1.33,1.56-1.39,1.52-1.45,1.49-1.51,1.45-1.9,1.76-1.83,1.61-1.94,1.51-2.03,1.41-2.11,1.3-1.38.8-2.31,1.22-2.39,1.05-2.46.86-2.5.67-1.66.38-2.3.41-2.29.18-2.26-.04-2.2-.27-2.2-.39-1.89-.49-1.73-.76-1.52-1.01-1.28-1.24-1.4-2.24-.68-2.55.07-2.73.82-2.74.12-.26.91-1.72,1.18-1.62,1.42-1.48,1.62-1.32,4.24-3.02.97-.67,1-.64,1.02-.61,1.04-.58,5.79-3.11,1.35-.72,1.36-.7,1.37-.69,1.38-.67,3.78-1.83,2.15-1.03,2.16-1.01,2.17-.98,2.18-.96,3.67-1.59,1.49-.66,1.48-.68,1.47-.71,1.46-.73,3.84-2.07,3.74-2.22,3.63-2.37,3.51-2.52,1.5-1.12.55-.41.54-.41.54-.42.54-.42,5.1-4.01,1.58-1.24,1.57-1.25,1.57-1.25,1.56-1.26,5.55-4.49.27-.22.27-.22.28-.22.28-.21,2.08-1.61,3.2-2.7,2.92-2.93,2.6-3.13,2.26-3.3.8-1.34.74-1.36.68-1.38.61-1.39,1.91-4.56.56-1.3.6-1.29.63-1.29.67-1.27,2.4-4.45.78-1.33.88-1.3.97-1.26,1.06-1.21,2.97-2.75,3.39-2.34,3.71-1.86,3.92-1.32,1.42-.37.91-.22.91-.2.91-.17.91-.14,3.98-.57,2.92-.46,2.91-.55,2.91-.63,2.9-.71,4.78-1.24.49-.13.49-.12.49-.12.49-.12,2.22-.53,4.17-.89,4.18-.68,4.18-.46,4.16-.24,1.6-.03h1.6s1.59.03,1.59.03l1.59.07,3.14.17,2.53.11,2.54.07,2.55.02h2.56s2.42-.05,2.42-.05l1.99-.04,1.99-.05,2-.07,2-.09,1.87-.09,2.86-.16,2.87-.19,2.87-.22,2.87-.25.79-.07,2.55-.25,2.55-.27,2.55-.3,2.55-.33,3.27-.47,3.27-.51,3.27-.56,3.27-.6,3.13-.6.98-.18.98-.17.99-.17.98-.15,5.21-.79,2.23-.29,2.22-.18,2.21-.07,2.19.04.51.02,3.19.27,3.1.52,2.99.77,2.86,1.02,2.04.92,1.94,1.05,1.83,1.17,1.72,1.29,3.63,2.94.43.34.43.34.44.33.44.33,3.76,2.82,1.77,1.25,1.85,1.17,1.93,1.08,2,.99,1.88.88,1.74.88,1.65.98,1.56,1.08,1.46,1.18,2.17,2.15,1.87,2.37,1.54,2.57,1.19,2.74.55,1.51.32.95.29.96.26.97.23.98,1.03,4.78.39,1.38.56,1.31.72,1.23.88,1.13,1.37,1.56,1.69,1.46,2.1,1.03,2.39.54,2.56.03,2.31-.41,2.24-.81,2.08-1.16,1.84-1.48,2.02-1.93,1.08-1.11.98-1.18.87-1.23.75-1.28,1.36-2.54.93-2.21.45-2.26-.04-2.22-.53-2.1-.82-1.64-1.14-1.46-1.43-1.24-1.68-.99-4.96-2.35-.33-.15-.33-.15-.34-.15-.34-.14-3.19-1.31-2.94-1.24-2.9-1.3-2.86-1.35-2.82-1.41-1.75-.89-.98-.5-.98-.49-.99-.49-.99-.48-5.95-2.87-.75-.38-.74-.39-.73-.4-.72-.42-4.01-2.39-1.6-1.08-1.43-1.24-1.25-1.39-1.05-1.52-.39-.64-1-2.08-.6-2.25-.18-2.35.24-2.41.61-2.29.97-2.24,1.31-2.15,1.62-2.01.68-.73,1.67-1.65,1.83-1.51,1.98-1.35,2.11-1.18,2.18-1.1,2.05-.94,2.1-.81,2.14-.66,2.18-.52,1.31-.27,2.79-.41,2.77-.11,2.71.21,2.6.52,2.3.76,2.14,1,1.94,1.24,1.71,1.46,1.02,1,1.31,1.42,1.16,1.52,1,1.62.84,1.7,1.58,3.64.34.8.32.8.3.81.28.82,1.41,3.63,1.76,3.47,2.1,3.29,2.42,3.08.22.25.5.57.51.55.52.55.53.54,3.22,3.2,1.28,1.41,1.11,1.52.94,1.62.76,1.71.78,2.62.37,2.74-.04,2.81-.46,2.85-.15.65-.47,1.72-.6,1.71-.73,1.69-.85,1.66-2.24,4.02-.67,1.16-.69,1.16-.72,1.15-.74,1.14-3.27,4.87-.7,1.11-.62,1.14-.55,1.16-.47,1.18-.68,1.89-.64,2.47-.13,2.46.37,2.37.87,2.21,1.1,1.68,1.41,1.48,1.69,1.24,1.93.96,3.28,1.33,1.16.43,1.19.38,1.22.33,1.25.27,6.32,1.25,1.01.18,1.02.14,1.04.11,1.05.07,4.12.2,2.3-.04,2.32-.36,2.29-.67,2.2-.96,1.61-.83,1.83-1.14,1.59-1.4,1.29-1.61.94-1.75.65-2.42-.08-2.38-.79-2.18-1.46-1.83-2.11-1.93-.65-.64-.59-.68-.53-.72-.47-.76-1.18-2.09-1.2-2.43-.95-2.54-.68-2.64-.41-2.72-.37-3.72-.03-.3-.03-.3-.02-.3-.02-.3-.1-1.67-.48-3.66-.97-3.53-1.44-3.34-1.9-3.12-.65-.96-.61-.99-.56-1.01-.52-1.03-.21-.46-1.61-2.99-1.92-2.81-2.23-2.62-2.51-2.4-1.98-1.71-.2-.18-.26-.23-4.82-4.33-1.09-1.12-.92-1.24-.75-1.35-.55-1.43-.51-2.94.24-3.06.97-3.06,1.66-2.91.8-1.13.78-1.02.84-.99.91-.94.97-.9,4.9-4.3.97-.84.99-.83,1-.81,1.02-.8,3.28-2.54,1.98-1.58,1.92-1.63,1.87-1.68,1.8-1.73,2.4-2.29,2.51-2.2,2.61-2.11,2.71-2.01,2.94-2.09.63-.45.63-.44.64-.44.64-.43,6.41-4.33,1.11-.74,1.12-.73,1.12-.73,1.13-.72,2.95-1.86,2.47-1.51,2.52-1.45,2.56-1.38,2.6-1.31,2.79-1.31,2.83-1.23,2.86-1.15,2.89-1.07.56-.2,2.46-.83,2.48-.78,2.49-.72,2.5-.66,5.12-1.3.71-.18.71-.18.71-.19.71-.19,5.35-1.43,2.39-.62,2.39-.59,2.4-.56,2.4-.53,3.37-.72,1.71-.35,1.71-.32,1.71-.29,1.71-.26,1.33-.18,3.41-.55,3.41-.7,3.39-.85,3.48-1.03,2.32-.77,2.18-.8,2.16-.87,2.13-.93,1.69-.77,2.51-1.07,2.55-.95,2.58-.83,2.61-.71,3.11-.68,3.12-.5,3.12-.32,3.11-.14,1.64-.03h1.83s1.82.04,1.82.04l1.8.1,1.79.14,1.67.16,2.97.34,2.94.43,2.91.53,2.91.63,2.47.62,2.4.68,2.36.74,2.32.81,4.33,1.59.56.2.55.2.56.2.56.2,7.35,2.56.84.28.85.26.86.24.87.21,7.3,1.69.74.22.69.32.62.4.53.48,2.46,2.58.65,1.32-.22,1.53-1.02,1.37Z"/>
  </g>
  <g id="Grid">
    <rect id="rect4" class="cls-1" x="266.86" y="208.69" width="484.61" height="87.5"/>
    <rect id="rect6" class="cls-1" x="130.37" y="684.34" width="808.79" height="87.5"/>
    <rect class="cls-2" x="266.86" y="208.69" width="87.5" height="87.5"/>
  </g>
  <g id="Icons">
    <g id="g2">
      <path id="path1-7" class="cls-5" d="M290.7,225.51c-1.68.02-3.06.06-3.09.08-.05.05,1.37,2.32,4.03,6.46,3.89,6.06,6.29,10.04,6.54,10.87.04.12-.06.34-.36.86-.94,1.61-3.63,5.84-8.16,12.84l-2.08,3.21,1.22.04c.67.03,7.39.06,14.94.09,7.55.02,16.51.06,19.93.09l6.19.05v19.34h3.79v-54h-19.94c-10.97.02-21.32.04-23,.07ZM329.86,242.73v13.51l-17.64-.03c-9.7-.01-17.66-.04-17.69-.07-.06-.06.94-1.66,3.54-5.7,3.08-4.79,4.71-7.44,4.71-7.66s-1.37-2.44-4-6.52c-1.59-2.46-3.76-5.9-4.1-6.48l-.19-.33.39-.05c.71-.09,9.14-.16,22.14-.16h12.84s0,13.49,0,13.49Z"/>
    </g>
  </g>
  <g id="Text">
    <g>
      <path class="cls-7" d="M333.79,499.23c0,76.14-43.25,115.54-133.61,115.24-76.43-.3-91.84-71.4-62.51-130.94l10.96-22.22c5.04-10.37.59-14.81-12.74-17.18-16.59-2.96-24.29-14.22-24.29-27.85,0-15.41,10.37-31.11,29.92-31.11h102.8c64.29,0,89.47,41.47,89.47,114.06ZM265.36,418.95l-74.06,14.22c-25.18,4.74-33.77,18.07-28.14,38.22l30.51,107.24c8.59,30.51,41.48,24.88,50.66,2.96l51.25-123.54c11.85-28.74-7.7-43.55-30.22-39.1Z"/>
      <path class="cls-7" d="M420.89,614.77c-31.11,0-38.51-29.03-27.85-58.06l50.36-136.57c7.41-19.85-8.89-27.25-18.07-16l-21.33,25.77c-18.66,22.51-51.25,13.04-52.44-13.04-.89-16.89,9.48-31.7,31.4-31.7h49.77c13.04,0,25.77,5.63,25.77,29.62l.89,151.38c.3,34.66-11.26,48.58-38.51,48.58Z"/>
      <path class="cls-7" d="M647.81,584.55c0-8.59,1.78-16.89,3.55-21.33l14.22-35.25c5.04-12.44,9.48-20.74,2.67-24.29-5.04-2.67-10.07,2.37-20.44,11.26l-99.24,84.73c-11.26,9.48-26.66,15.11-35.25,15.11-13.04,0-21.63-8-21.63-21.33,0-7.41,2.67-16.29,8.29-26.66l83.84-149.9c12.15-21.63,31.7-36.14,50.07-36.14s34.96,14.22,34.96,34.66c0,10.07-5.04,20.14-15.11,27.25l-109.02,76.14c-6.52,4.44-9.18,9.48-9.18,13.63,0,4.74,3.55,8,8.59,8,2.07,0,4.44-.59,7.11-1.78l100.13-46.51c17.48-8,34.07.59,40.88,19.26l15.11,40.59c3.56,9.48,5.63,19.26,5.63,28.14,0,19.26-10.07,34.66-37.03,34.66-22.51,0-28.14-15.7-28.14-30.22Z"/>
      <path class="cls-7" d="M739.64,542.19v-79.99c0-66.66,13.92-81.47,45.62-81.47,23.4,0,36.44,18.37,54.21,46.22l70.21,109.91c7.11,11.26,11.26,15.41,16.59,15.41,7.41,0,10.96-3.26,10.96-9.78,0-5.33-2.37-12.15-6.22-21.92l-27.25-70.21c-7.41-18.96-6.81-28.44-6.81-35.55,0-15.11,7.7-34.37,32.59-34.37,29.33,0,38.22,28.44,35.25,55.7l-15.11,137.16c-3.26,28.44-13.03,41.47-32.29,41.47-18.07,0-27.25-12.74-48.29-41.77l-49.18-68.14c-11.85-16.29-24.29-42.66-20.44-67.25l2.67-16.89c2.37-15.11-6.81-22.81-17.48-22.81-16.59,0-26.37,12.44-26.37,29.33,0,8.29,2.67,21.63,5.33,28.14l40.29,98.65c13.33,32.88,7.41,60.73-24.59,60.73-38.81,0-39.7-29.62-39.7-72.58Z"/>
    </g>
    <g>
      <path class="cls-6" d="M404.06,243.97c7.37,0,11.86,4.39,13.04,10.4l-6.52,1.41c-.37-3.25-2.35-5.85-6.41-5.85s-7.16,3.03-7.16,8.23,3.1,8.23,7.16,8.23,6.04-2.44,6.62-5.9l6.52,1.57c-1.5,5.9-5.82,10.29-13.25,10.29s-13.78-5.85-13.78-14.19,6.09-14.19,13.78-14.19Z"/>
      <path class="cls-6" d="M451.11,248.52h.53c1.02-2.87,3.26-3.9,6.62-3.9h2.78v5.74h-3.95c-3.42,0-5.88,1.84-5.88,5.63v15.6h-6.73v-26.87h6.62v3.79Z"/>
      <path class="cls-6" d="M490.85,232.27c2.67,0,4.75,1.9,4.75,4.66s-2.08,4.66-4.75,4.66-4.75-1.9-4.75-4.66,2.08-4.66,4.75-4.66ZM494.22,271.6h-6.73v-26.87h6.73v26.87Z"/>
      <path class="cls-6" d="M520.45,244.73h6.62v-8.34h6.73v8.34h7.26v5.53h-7.26v14.19c0,1.08.53,1.62,1.5,1.62h5.13v5.53h-7.48c-3.53,0-5.88-2.38-5.88-6.07v-15.28h-6.62v-5.53Z"/>
      <path class="cls-6" d="M571.94,232.27c2.67,0,4.75,1.9,4.75,4.66s-2.08,4.66-4.75,4.66-4.75-1.9-4.75-4.66,2.08-4.66,4.75-4.66ZM575.3,271.6h-6.73v-26.87h6.73v26.87Z"/>
      <path class="cls-6" d="M616.49,243.97c7.37,0,11.86,4.39,13.03,10.4l-6.52,1.41c-.37-3.25-2.35-5.85-6.41-5.85s-7.16,3.03-7.16,8.23,3.1,8.23,7.16,8.23,6.04-2.44,6.62-5.9l6.52,1.57c-1.5,5.9-5.82,10.29-13.25,10.29s-13.78-5.85-13.78-14.19,6.09-14.19,13.78-14.19Z"/>
      <path class="cls-6" d="M668.73,243.97c6.94,0,11.49,3.95,11.49,10.67v16.95h-6.52v-3.47h-.53c-.85,1.57-2.94,4.23-8.12,4.23-5.45,0-9.51-2.87-9.51-7.96s4.17-7.42,9.72-8.29l8.33-1.3v-.65c0-2.6-1.5-4.77-5.13-4.77s-5.56,2.17-6.2,5.2l-6.46-2.22c1.82-4.44,5.98-8.4,12.93-8.4ZM666.59,267.15c4.27,0,7-2.82,7-6.83v-.7l-7.59,1.19c-2.4.38-3.74,1.46-3.74,3.2s1.33,3.14,4.33,3.14Z"/>
      <path class="cls-6" d="M715.62,271.6h-6.73v-37.92h6.73v37.92Z"/>
    </g>
    <g>
      <path class="cls-6" d="M189.65,746.31h-6.62v-3.63h-.53c-1.6,2.33-4.17,4.39-8.76,4.39-6.3,0-11.97-5.42-11.97-14.19s5.66-14.19,11.97-14.19c4.59,0,7.16,2.06,8.65,4.22h.53v-14.52h6.73v37.92ZM168.5,732.88c0,5.31,3.1,8.34,7.27,8.34s7.26-3.03,7.26-8.34-3.1-8.34-7.26-8.34-7.27,3.03-7.27,8.34Z"/>
      <path class="cls-6" d="M230.35,718.69c7.69,0,12.88,5.47,12.88,13.76v2.55h-19.29c.27,3.47,2.99,6.23,6.73,6.23s5.61-2.11,6.73-4.12l5.4,3.36c-1.5,2.06-4.65,6.61-12.13,6.61-8.12,0-13.62-6.07-13.62-14.41s5.5-13.98,13.3-13.98ZM236.39,730.23c-.37-3.52-2.62-5.69-6.09-5.69-3.79,0-5.88,2.27-6.3,5.69h12.39Z"/>
      <path class="cls-6" d="M282.59,718.69c7.37,0,11.86,4.39,13.04,10.4l-6.52,1.41c-.37-3.25-2.35-5.85-6.41-5.85s-7.16,3.03-7.16,8.23,3.1,8.23,7.16,8.23,6.04-2.44,6.62-5.9l6.52,1.57c-1.5,5.91-5.82,10.29-13.25,10.29s-13.78-5.85-13.78-14.19,6.09-14.19,13.78-14.19Z"/>
      <path class="cls-6" d="M334.72,718.69c7.69,0,12.87,5.47,12.87,13.76v2.55h-19.29c.27,3.47,2.99,6.23,6.73,6.23s5.61-2.11,6.73-4.12l5.4,3.36c-1.5,2.06-4.65,6.61-12.13,6.61-8.12,0-13.62-6.07-13.62-14.41s5.5-13.98,13.3-13.98ZM340.76,730.23c-.37-3.52-2.62-5.69-6.09-5.69-3.79,0-5.88,2.27-6.3,5.69h12.39Z"/>
      <path class="cls-6" d="M381.41,719.45v4.01h.53c1.07-2.27,3.31-4.44,8.17-4.44,6.2,0,10.31,4.6,10.31,11.27v16.03h-6.73v-15.71c0-4.06-2.03-6.07-5.66-6.07-4.11,0-6.52,2.92-6.52,7.91v13.87h-6.73v-26.87h6.62Z"/>
      <path class="cls-6" d="M425.79,719.45h6.62v-8.34h6.73v8.34h7.26v5.53h-7.26v14.19c0,1.08.53,1.62,1.5,1.62h5.13v5.53h-7.48c-3.53,0-5.88-2.38-5.88-6.07v-15.28h-6.62v-5.53Z"/>
      <path class="cls-6" d="M480.55,723.24h.53c1.01-2.87,3.26-3.9,6.62-3.9h2.78v5.74h-3.95c-3.42,0-5.88,1.84-5.88,5.63v15.6h-6.73v-26.87h6.62v3.79Z"/>
      <path class="cls-6" d="M528.46,718.69c6.94,0,11.49,3.95,11.49,10.67v16.96h-6.52v-3.47h-.53c-.85,1.57-2.94,4.23-8.12,4.23-5.45,0-9.51-2.87-9.51-7.96s4.17-7.42,9.72-8.29l8.33-1.3v-.65c0-2.6-1.5-4.77-5.13-4.77s-5.56,2.17-6.2,5.2l-6.46-2.22c1.82-4.44,5.98-8.4,12.93-8.4ZM526.32,741.87c4.27,0,7-2.82,7-6.83v-.71l-7.59,1.19c-2.4.38-3.74,1.46-3.74,3.2s1.33,3.14,4.33,3.14Z"/>
      <path class="cls-6" d="M575.36,746.31h-6.73v-37.92h6.73v37.92Z"/>
      <path class="cls-6" d="M607.73,706.99c2.67,0,4.75,1.9,4.75,4.66s-2.08,4.66-4.75,4.66-4.75-1.9-4.75-4.66,2.08-4.66,4.75-4.66ZM611.09,746.31h-6.73v-26.87h6.73v26.87Z"/>
      <path class="cls-6" d="M650.24,718.69c6.2,0,10.79,3.09,13.36,8.07l-5.98,2.44c-1.39-4.17-4.59-5.2-7.27-5.2s-4.33.92-4.33,2.65,1.39,2.44,4.27,3.03l2.67.54c5.45,1.08,10.31,2.76,10.31,8.29s-4.81,8.56-11.33,8.56-11.7-3.03-13.89-8.83l6.09-2.17c1.23,4.5,4.38,5.69,7.69,5.69s4.92-1.19,4.92-2.93-1.5-2.27-4.59-2.92l-2.67-.54c-5.56-1.14-9.99-3.41-9.99-8.5s4.54-8.18,10.74-8.18Z"/>
      <path class="cls-6" d="M702.75,718.69c6.94,0,11.49,3.95,11.49,10.67v16.96h-6.52v-3.47h-.53c-.85,1.57-2.94,4.23-8.12,4.23-5.45,0-9.51-2.87-9.51-7.96s4.17-7.42,9.72-8.29l8.33-1.3v-.65c0-2.6-1.5-4.77-5.13-4.77s-5.56,2.17-6.2,5.2l-6.46-2.22c1.82-4.44,5.98-8.4,12.93-8.4ZM700.61,741.87c4.27,0,7-2.82,7-6.83v-.71l-7.59,1.19c-2.4.38-3.74,1.46-3.74,3.2s1.33,3.14,4.33,3.14Z"/>
      <path class="cls-6" d="M739.6,719.45h6.62v-8.34h6.73v8.34h7.26v5.53h-7.26v14.19c0,1.08.53,1.62,1.5,1.62h5.13v5.53h-7.48c-3.53,0-5.88-2.38-5.88-6.07v-15.28h-6.62v-5.53Z"/>
      <path class="cls-6" d="M791.1,706.99c2.67,0,4.75,1.9,4.75,4.66s-2.08,4.66-4.75,4.66-4.75-1.9-4.75-4.66,2.08-4.66,4.75-4.66ZM794.46,746.31h-6.73v-26.87h6.73v26.87Z"/>
      <path class="cls-6" d="M835.75,718.69c7.91,0,13.89,5.42,13.89,14.19s-5.98,14.19-13.89,14.19-13.89-5.42-13.89-14.19,5.98-14.19,13.89-14.19ZM835.75,741.11c4.17,0,7.16-3.03,7.16-8.23s-2.99-8.23-7.16-8.23-7.16,3.03-7.16,8.23,2.99,8.23,7.16,8.23Z"/>
      <path class="cls-6" d="M883.67,719.45v4.01h.53c1.07-2.27,3.31-4.44,8.17-4.44,6.2,0,10.31,4.6,10.31,11.27v16.03h-6.73v-15.71c0-4.06-2.03-6.07-5.66-6.07-4.11,0-6.52,2.92-6.52,7.91v13.87h-6.73v-26.87h6.62Z"/>
    </g>
  </g>
</svg>