<?xml version="1.0" encoding="UTF-8"?>
<svg xmlns="http://www.w3.org/2000/svg" viewBox="0 0 1216.21 256">
  <defs>
    <style>
      .cls-1 {
        fill: #ff5053;
      }

      .cls-2 {
        fill: #190b2f;
      }

      .cls-3 {
        fill: #b2aaff;
      }

      .cls-4 {
        stroke: #6a5fdb;
        stroke-width: 2.72px;
      }

      .cls-4, .cls-5 {
        fill: #0f000a;
      }
    </style>
  </defs>
  <g id="BG">
    <rect class="cls-5" width="1216.21" height="256"/>
  </g>
  <g id="Blob">
    <path class="cls-2" d="M802.29,93.2l-6.18,2.34-4.47,2.58-2.16,1.39-2.03,1.58-1.87,1.77-1.69,1.93-.73.91-4.54,7.54-2.43,8.46-.15,8.8,2.15,8.57,1.11,2.52,1.3,2.39,1.49,2.28,1.67,2.15,3.98,4.73,4.21,5.54,3.66,5.92,3.06,6.25,2.45,6.52,1.54,4.81,1.03,3.04,1.13,3,1.23,2.97,1.33,2.93,2.69,5.69,2.69,5.95,2.49,6.03,2.29,6.11,2.08,6.19,3.05,9.63.4,1.26.42,1.25.43,1.25.44,1.25,4.27,11.95,1.56,4.98,1.16,5.08.76,5.16.35,5.2-.21,7.42-1.04,7.35-1.86,7.19-2.65,6.94-3.39,7.57-.41.95-.39.96-.36.97-.34.98-1.48,4.51-1.56,8.38.71,8.5,2.93,8,4.94,6.95,1.41,1.41,1.49,1.32,1.57,1.23,1.65,1.13,5.61,3.59,5.65,4.45,4.68,5.46,3.54,6.26,2.26,6.83.74,4.54.17,4.6-.4,4.58-.97,4.5-2.4,8.54-.8,3.48-.48,3.54-.14,3.57.19,3.57.66,6.53,1.12,5.24,2.25,4.87,3.26,4.26,4.12,3.44,5.16,2.6,5.63,1.31,5.78-.07,5.6-1.43,1.24-.48,4.34-2.15,3.88-2.89,3.3-3.54,2.61-4.08,6.79-13.06,5.26-10.14,3.7-5.76,4.69-4.99,5.52-4.04,6.17-2.97,4.69-1.4,4.83-.77,4.89-.13,4.87.51,15.19,2.6,15.48,2.6,5,.73,5.03.5,5.04.28,5.05.06,4.87-.05,5.34-.24,5.32-.61,5.26-.97,5.18-1.32,3.07-.9,5.46-1.88,5.26-2.38,5.01-2.86,4.72-3.32,1.18-.91,4.57-3.96,4.1-4.44,3.59-4.86,3.04-5.23,2.56-5.85,1.87-6.11,1.14-6.29.41-6.38v-.87s-.23-5.6-.23-5.6l-.77-5.55-1.3-5.45-1.81-5.3-3.71-9.37-.77-1.89-.8-1.87-.84-1.86-.87-1.84-4.67-9.66-2.26-5.01-1.99-5.13-1.72-5.23-1.44-5.31-1.45-7.09-.95-7.17-.45-7.22.06-7.23.13-2.98.24-4.02.37-4.01.5-4,.63-3.98,2.11-12.1.48-2.7.51-2.7.53-2.7.55-2.69,2.29-10.86.99-4.52,1.06-4.51,1.13-4.49,1.19-4.47,1.53-5.55,1.5-5.19,1.65-5.15,1.79-5.1,1.93-5.05,1.47-3.69,2.12-5.07,2.31-4.99,2.5-4.89,2.68-4.8,1.74-2.98,2.97-4.79,3.2-4.63,3.43-4.46,3.65-4.28,1.65-1.84,4.09-4.28,4.36-4.01,4.61-3.72,4.84-3.42.54-.36,5.53-3.36,5.76-2.95,5.97-2.51,6.13-2.07,6.01-1.55,6.1-1.12,6.17-.69,6.2-.25h2.27s5.4.1,5.4.1l5.39.4,5.36.67,5.32.95,7.01,1.44,3.79.83,3.77.91,3.75.99,3.72,1.08,12.25,3.7,2.54.75,2.54.73,2.55.7,2.56.67,10.06,2.6,4.92,1.17,4.96.98,5,.79,5.02.59,3.99.4,5.74.4,5.75.06,5.74-.28,5.72-.62,2.01-.28,5.88-1.03,5.79-1.45,5.67-1.86,5.52-2.27,1.04-.47,5.47-2.75,5.23-3.18,4.96-3.59,4.66-3.98.68-.63,4.25-4.29,3.87-4.64,3.46-4.95,3.02-5.23.69-1.33,2.45-5.27,1.96-5.47,1.44-5.63.91-5.74.18-1.58.34-5.89-.29-5.9-.91-5.84-1.53-5.71-.25-.76-2.23-5.7-2.88-5.39-3.5-5.02-4.06-4.58-4.67-4.15-5.14-3.56-5.53-2.92-5.84-2.23-2.11-.67-5.03-1.36-5.13-.92-5.19-.48-5.21-.04-12.04.43-1.62.07-1.62.09-1.62.11-1.62.13-12.17,1.04-5.13.31-5.14.05-5.14-.21-5.12-.47-2.31-.27-6.4-.99-6.31-1.46-6.18-1.93-6.02-2.39-5.66-2.74-5.44-3.14-5.2-3.53-4.93-3.89-1.64-1.39-4.06-3.65-3.86-3.86-3.65-4.07-3.42-4.26-3.7-4.86-2.6-3.52-2.5-3.59-2.4-3.66-2.3-3.72-7.6-12.68-.59-.99-.6-.99-.6-.99-.61-.99-7.44-12.02-2.54-3.94-2.68-3.84-2.81-3.74-2.95-3.64-3.18-3.78-3.8-4.24-4.07-3.99-4.31-3.73-4.53-3.45-1.19-.85-5.31-3.48-5.57-3.05-5.79-2.61-5.98-2.14-6.18-1.68-6.3-1.18-6.37-.68-6.4-.18-3.28.04-4.79.17-4.77.4-4.75.62-4.71.84-10.49,2.14-2.71.53-2.72.5-2.73.46-2.74.43-11.13,1.68-4.47.71-4.45.79-4.44.86-4.43.94-4.73,1.05-5.8,1.38-5.76,1.56-5.7,1.74-5.65,1.92-2.26.8-5.37,2.03-5.29,2.23-5.21,2.42-5.12,2.61-.87.46-5.8,3.26-5.64,3.52-5.48,3.78-5.3,4.02-.93.74-4.34,3.6-4.18,3.79-4.01,3.96-3.84,4.13-4.66,5.53-4.35,5.78-4.03,6.01-3.7,6.22-3.83,6.87-.83,1.51-.8,1.53-.77,1.55-.74,1.56-5.28,11.36-2.3,4.27-2.78,3.97-3.22,3.62-3.63,3.22-6.39,4.13-7.04,2.9-7.44,1.56-7.61.17-7.18-.51-1.18-.1-1.18-.12-1.18-.14-1.17-.16-13.77-2.07-4.71-.52-4.73-.16-4.73.21-4.7.57-2.01.32-6.73,1.53-6.48,2.38-6.12,3.2-5.66,3.96-4.19,3.72-3.77,4.14-3.32,4.51-2.84,4.83-6.55,12.64-4.6,8.9-3.87,6.83-4.37,6.52-4.85,6.18-5.29,5.8-3.83,3.89-1.55,1.5-1.62,1.43-1.68,1.35-1.74,1.27-6.64,4.61-4.72,4.11-3.73,5.02-2.56,5.71-1.27,6.13-.08,4.61.66,4.56,1.37,4.4,2.06,4.12,5.76,9.58,1.2,2.07,1.11,2.12,1.04,2.16.95,2.19,5.07,12.35,1.42,3.55,1.36,3.57,1.31,3.59,1.25,3.61,2.83,8.4,1.54,4.4,1.63,4.37,1.72,4.34,1.81,4.3,1.85,4.28,2.25,5.47,2.05,5.55,1.84,5.62,1.63,5.68.75,2.82,1.54,5.3,1.77,5.23,1.99,5.14,2.22,5.05,3.29,6.56,3.67,6.36,4.03,6.13,4.38,5.89,4.24,5.37,1.27,1.66,1.23,1.7,1.18,1.73,1.13,1.77,3.26,5.26,3.48,6.64,2.5,7.07,1.47,7.36.4,7.49-.32,4.88-.77,4.83-1.22,4.74-1.65,4.6-3.82,9.26-1.15,2.69-1.22,2.65-1.3,2.62-1.37,2.58-.4.72-4.24,8.5-3.56,8.81-2.85,9.06-2.13,9.26-.13.67-.59,2.92-.66,2.91-.73,2.89-.79,2.87-.23.8-2.94,9.01-3.53,8.79-4.1,8.53-4.66,8.24-3.09,5.05-.34.56-.43.75-6.35,11.02-3.43,4.9-4.22,4.23-4.9,3.44-5.42,2.54-6.13,1.62-6.33.47-6.3-.7-6.07-1.85-5.86-2.39-2.81-1.25-2.73-1.42-2.64-1.58-2.54-1.74-11.46-8.37-2.2-1.63-2.17-1.67-2.14-1.7-2.12-1.74-13.58-11.34-1.03-.86-1.04-.86-1.04-.85-1.05-.85-14.34-11.54-1.82-1.52-1.76-1.59-1.69-1.66-1.62-1.72-7.64-8.43-2.77-3.64-2.14-4.05-1.43-4.35-.69-4.53-.05-.84.44-6.81,2.2-6.46,3.81-5.66,5.15-4.47,1.54-1.02,3.6-1.91,3.89-1.19,4.05-.43,4.05.35,6.24,2.18,5.27,3.99,3.81,5.41,1.97,6.32,1.42,9.62.1.6.14.8,1.42,7.3,2.25,7.87,3.55,7.38,4.75,6.67,5.81,5.77,1.49,1.25,2.63,2.01,2.8,1.77,2.95,1.51,3.06,1.24,2.61.92,6.95,1.61h7.13s6.95-1.6,6.95-1.6l6.41-3.12,3.89-2.91,3.4-3.48,2.82-3.96,2.18-4.35,4.37-10.7.76-1.96.71-1.99.64-2.01.58-2.03,1.25-4.63,2.44-7.97,2.94-7.8,3.44-7.59,3.92-7.35,2.83-4.9.86-1.44.91-1.41.97-1.38,1.01-1.35,10.13-13,1.37-2.21.87-2.45.33-2.58-.23-2.59-2-4.67-3.73-3.44-4.81-1.62-5.05.49-11.56,3.67-.79.24-11.64,2.94-11.86,1.84-11.98.73-12-.4-1.06-.08-.73-.06-11.69-1.04-6.83-.42-6.83-.04-6.84.34-6.8.72-5.81.92-5.77,1.2-5.7,1.47-5.62,1.74-6.13,2.06-3.61,1.12-3.65.94-3.7.76-3.72.58-1.84.24-7.66.57-7.68-.27-7.6-1.12-7.43-1.95-4.61-1.67-4.47-1.99-4.32-2.3-4.15-2.6-8.34-5.63-2.41-1.66-2.37-1.71-2.33-1.76-2.3-1.81-7.18-5.77-4.24-3.33-4.32-3.23-4.38-3.13-4.46-3.03-9.12-6.05-1.67-1.15-1.63-1.2-1.6-1.25-1.55-1.3-8.64-7.48-3.22-3.26-2.66-3.73-2.04-4.1-1.36-4.37-.91-4-.51-4.71.57-4.7,1.63-4.45,2.59-3.96,4.05-3.7,4.87-2.51,5.37-1.14,5.47.32,1.53.3,4.27,1.25,3.94,2.04,3.49,2.75,2.9,3.37,7.2,10.19,1,1.47.95,1.5.91,1.53.85,1.56,5.03,9.55,2.77,4.85,3.11,4.64,3.41,4.42,3.71,4.17,2.44,2.56,3.89,3.73,4.2,3.37,4.48,2.99,4.73,2.58,6.46,2.71,6.72,1.95,6.9,1.17,6.99.37h2.53s4.18-.16,4.18-.16l4.18-.39,4.14-.63,4.1-.87,8.52-2.08,4.21-.96,4.24-.84,4.26-.71,4.28-.59,4.09-.5,6.41-.64,6.44-.36,6.45-.07,6.45.21,7.46.41,2.69.09,2.69-.03,2.68-.15,2.68-.27,7.7-.93,5.58-1.12,5.34-1.96,4.97-2.75,4.5-3.48,4.08-4.34,3.33-4.94,2.5-5.41,1.6-5.74.8-4.12.62-4.2.27-4.24-.1-4.25-.46-4.22-1.61-10.52-.65-3.18-.97-3.1-1.27-2.98-1.56-2.84-3.98-6.47-2.84-3.54-3.62-2.73-4.19-1.76-4.48-.68-4.74.5-4.45,1.7-3.86,2.79-3.01,3.7-6.53,10.59-.51.84-.48.85-.47.87-.44.88-5.15,10.54-2.81,5.04-3.34,4.7-3.84,4.3-4.29,3.86-5.28,3.74-5.7,3.06-6.03,2.34-6.51,1.63-5.84.8-5.65.17-5.63-.42-5.56-1-3.41-.8-5.01-1.36-4.9-1.73-4.76-2.08-4.59-2.42-6.1-3.5-3.53-2.11-3.46-2.23-3.38-2.35-3.29-2.46-9.61-7.46-2.13-1.68-2.11-1.71-2.08-1.74-2.06-1.77-9.6-8.43-2.78-2.59-2.63-2.74-2.47-2.89-2.31-3.02-3.84-5.35-2.84-4.54-2.23-4.86-1.6-5.11-.93-5.27-.16-1.5-.18-5.91.76-5.86,1.68-5.67,2.55-5.33,3.38-4.87,4.11-4.27,4.74-3.56,5.24-2.76,1.94-.83,4.7-1.7,4.87-1.15,4.96-.59,5-.02,15.2.83.47.03,14.87.71,5.32.07,5.3-.3,5.27-.68,5.21-1.04,1.25-.3,6.39-1.85,6.19-2.45,5.92-3.04,5.6-3.59,4.59-3.57,4.28-3.95,3.93-4.3,3.55-4.61,7.82-11.08.41-.58,4.87-7,4.96-6.77,5.29-6.52,5.61-6.24,5.92-5.95,3.99-3.81,1.23-1.2,1.19-1.24,1.16-1.27,1.12-1.3,6.27-7.43,3.3-4.62,2.52-5.09,1.67-5.42.78-5.62-.15-5.84-1.12-5.74-2.05-5.48-2.92-5.06-5.67-8.16-1.03-1.43-1.06-1.41-1.1-1.38-1.14-1.35-6.79-7.8-3.71-4.56-3.38-4.8-3.04-5.03-2.69-5.23-2.64-6.21-2.14-6.4-1.63-6.55-1.11-6.65-.75-5.93-.34-3.06-.27-3.07-.19-3.07-.12-3.08-.29-11.26-.19-4.19-.36-4.18-.52-4.16-.69-4.14-1.14-6.1-1.22-5.31-1.64-5.2-2.06-5.05-2.46-4.87-1.5-2.7-2.97-4.73-3.46-4.39-3.89-4-4.3-3.57-2.04-1.52-4.66-3.03-5.01-2.4-5.28-1.74-5.45-1.05-1.79-.23-5.79-.28-5.76.61-5.6,1.49-5.31,2.34-5.35,3.48-4.68,4.33-3.88,5.06-2.97,5.64-.39.93-1.81,5.24-1.07,5.44-.32,5.54.45,5.53,2.02,13.61.08.53.1.71,1.73,13.08.52,5.97v5.99s-.56,5.97-.56,5.97l-1.08,5.9-.47,2.07-1.56,5.49-2.1,5.3-2.62,5.06-3.12,4.77-1.46,2.01-3.63,4.4-4.14,3.93-4.59,3.39-4.97,2.8-.87.42-5.81,2.32-6.08,1.46-6.23.57-6.24-.33-5.89-1.15-5.67-1.95-5.34-2.72-4.92-3.43-2.6-2.09-3.52-3.09-3.25-3.38-2.95-3.64-2.63-3.88-6.3-10.21-1.08-1.78-1.05-1.8-1.02-1.82-.99-1.83-5.95-11.25-2.15-3.91-2.3-3.84-2.42-3.75-2.55-3.67-3.26-4.52-3.41-4.41-3.69-4.19-3.95-3.94-4.19-3.67-1.98-1.62-4.68-3.52-4.95-3.12-5.19-2.71-5.4-2.27-1.93-.72-5.45-1.74-5.58-1.21-5.67-.68-5.72-.13-2.34.06-5.59.45-5.5,1.08-5.34,1.68-5.12,2.27-1.48.76-5,3-4.56,3.64-4.03,4.22-3.44,4.71-2.93,5.45-2.13,5.81-1.29,6.06-.43,6.33.38,5.88,1.1,5.63,1.81,5.44,2.5,5.16,1.77,3.14,2.58,4.16,2.92,3.93,3.24,3.68,3.53,3.39,8.08,7.14,1.92,1.66,1.95,1.62,1.99,1.58,2.02,1.54,10.64,7.93,2.94,2.3,2.83,2.44,2.7,2.57,2.58,2.7,4.2,4.63,3.6,4.46,3.07,4.84,2.5,5.16,1.9,5.41,1.38,6.27.57,6.39-.25,6.41-1.07,6.33-.83,3.56-1.1,4.07-1.36,3.99-1.61,3.89-1.88,3.78-6.81,12.67-.72,1.31-.73,1.3-.75,1.29-.77,1.28-7.95,12.98-2.1,3.05-2.41,2.81-2.7,2.54-2.96,2.24-2.74,1.86-5.31,2.81-5.79,1.6-5.99.31-5.92-.99-4.72-1.81-4.31-2.63-3.76-3.38-3.09-4-5.13-8.08-1.38-2.3-1.26-2.37-1.14-2.43-1.01-2.48-5-13.19-1.15-2.96-1.21-2.95-1.25-2.93-1.3-2.9-1.56-3.41-3.35-7.09-3.53-7-3.71-6.91-3.89-6.81-1.69-2.88-1.75-2.93-1.77-2.91-1.8-2.89-1.82-2.88-7.78-12.17-1.24-1.93-1.25-1.93-1.25-1.92-1.27-1.92-7.14-10.78-2.34-3.44-2.4-3.4-2.46-3.35-2.53-3.3-4.11-5.26-3.4-4.18-3.57-4.04-3.72-3.89-3.88-3.74-2.13-1.97-4.5-3.94-4.71-3.68-4.91-3.42-5.09-3.14-1.2-.69-5.38-2.89-5.55-2.54-5.7-2.19-5.82-1.82-1.23-.34-5.84-1.41-5.92-1.01-5.98-.6-6-.19h-1.55s-5.92.25-5.92.25l-5.89.7-5.82,1.15-5.72,1.59-1.53.49-5.55,2.04-5.36,2.52-5.12,2.98-4.84,3.41-1.29.99-4.46,3.8-4.06,4.21-3.64,4.59-3.17,4.92-.69,1.19-2.69,5.32-2.09,5.59-1.46,5.79-.81,5.91-.08.95-.13,6.01.6,5.99,1.31,5.87,2,5.67,2.85,5.71,3.56,5.3,4.21,4.81,4.79,4.23.79.61,4.64,3.23,4.95,2.73,5.21,2.19,5.41,1.63,6.67,1.63,3.63.81,3.66.65,3.68.49,3.7.33,16.51,1.12.93.07.93.07.93.07.93.08,13.51,1.1,5.18.49,5.17.63,5.15.77,5.13.91,4,.77,5.53,1.17,5.48,1.39,5.42,1.61,5.35,1.82,3.01,1.09,5.24,2.05,5.13,2.31,5,2.57,4.87,2.82,2.47,1.52,4.82,3.19,4.61,3.49,4.37,3.79,4.11,4.06,2.35,2.48,3.53,4.03,3.2,4.29,2.85,4.53,2.48,4.74.98,2.08,2.37,5.81,1.72,6.03,1.04,6.19.36,6.27-.35,6.41-1.05,6.33-1.76,6.17-2.45,5.94-.5,1.04-2.73,4.99-3.25,4.67-3.72,4.3-4.16,3.88-5.58,4.09-6.07,3.33-6.44,2.52-6.72,1.66-9.68,1.73-.77.14-.76.15-.77.16-.77.16-2.75.59-10.4,2.5-10.27,2.99-10.12,3.47-9.94,3.95-1.99.84-2.01.82-2,.8-2.02.78-13,4.95-3.55,1.34-3.56,1.33-3.57,1.31-3.57,1.3-6.43,2.32-5.36,1.96-5.33,2.02-5.31,2.07-5.29,2.13-1.48.6-5.93,2.46-5.89,2.54-5.86,2.61-5.83,2.69-5.86,2.8-5.83,2.88-5.79,2.95-5.76,3.03-1,.53-5.15,2.79-5.1,2.85-5.07,2.92-5.03,2.98-3.13,1.88-4.48,2.73-4.44,2.8-4.39,2.87-4.35,2.93-4.1,2.8-4.25,2.98-4.18,3.07-4.11,3.16-4.04,3.25-3.19,2.63-4.3,3.66-4.18,3.8-4.06,3.93-3.92,4.07-1.45,1.56-4.11,4.6-3.92,4.76-3.72,4.92-3.51,5.08-.36.55-3.38,5.39-3.14,5.54-2.88,5.67-2.63,5.81-2.41,6.03-2.11,6.12-1.83,6.21-1.57,6.42-1.23,6.26-.93,6.17-.64,6.21-.36,6.23-.03,1.01-.06,6.1.23,6.1.53,6.08.82,6.05.27,1.7,1.08,5.77,1.39,5.7,1.7,5.62,1.98,5.52.95,2.42,2.21,5.19,2.53,5.04,2.85,4.87,3.15,4.68,1.72,2.39,3.47,4.44,3.81,4.15,4.13,3.84,4.42,3.5,2.02,1.48,4.8,3.15,5.08,2.67,5.32,2.16,5.51,1.63,1.52.37,5.85,1.07,5.93.39,5.94-.29,5.87-.97,6.1-1.77,5.84-2.5,5.48-3.2,5.24-4.01,4.3-4.11,3.67-4.36,3.19-4.72,2.67-5.04,1.73-3.73,1.88-4.43,1.59-4.55,1.29-4.64.97-4.72,1.78-10.36.45-2.74.39-2.75.35-2.76.29-2.76,1.14-11.62.43-4.29.48-4.29.52-4.28.55-4.27.53-3.96.92-6.55,1.01-6.54,1.09-6.52,1.17-6.51.55-2.95.91-4.72.96-4.71,1.02-4.7,1.07-4.69,1.46-6.23,1.17-4.77,1.26-4.75,1.36-4.72,1.45-4.69,1.64-5.12,1.7-5.02,1.86-4.97,2.02-4.9,2.17-4.83,1.66-3.53,2.5-5.02,2.73-4.9,2.95-4.77,3.26-4.75,4.36-5.71,4.6-5.33,4.9-5.05,5.2-4.75,4.43-3.63,4.59-3.41,4.75-3.19,4.9-2.96,5.95-3.4,3.26-1.81,3.3-1.73,3.34-1.65,3.38-1.57,9.17-4.12,3.83-1.59,3.91-1.36,3.99-1.12,4.04-.88,4.43-.83,6.05-.77,6.1-.04,6.06.68,5.93,1.4,5.73,2.09,5.44,2.76,5.08,3.38,4.64,3.96,2.64,2.54,3.2,3.31,2.97,3.52,2.72,3.72,2.45,3.9,5.42,9.31,1.42,2.51,1.37,2.54,1.33,2.56,1.27,2.59,5.89,12.3,1.37,2.92,1.33,2.94,1.28,2.96,1.24,2.98,3.93,9.66,1.6,4.17,1.4,4.24,1.22,4.29,1.02,4.35.62,2.92,1.13,6.67.58,6.74.03,6.76-.53,6.74-.9,5.75-1.31,5.68-1.7,5.57-2.09,5.44-4.83,11.36-.34.79-.35.79-.34.78-.35.78-4.8,10.68-2.42,5.67-2.18,5.77-1.95,5.85-1.73,5.99-1.58,6.49-1.28,6.48-1,6.53-.72,6.63-.41,6.23-.15,6.19.11,6.19.37,6.18.14,1.75.59,5.76.84,5.73,1.1,5.68,1.35,5.63.5,1.9,1.7,5.81,2.02,5.71,2.32,5.59,2.62,5.46,3.25,5.89,3.6,5.68,3.93,5.45,4.25,5.2,4.1,4.46,4.33,4.23,4.55,4,4.77,3.74,2.56,1.9,4.22,3.01,4.33,2.86,4.43,2.69,4.53,2.53,7.15,3.83,3.24,1.71,3.27,1.66,3.28,1.61,3.31,1.56,13.22,6.11,1.8.83,1.8.84,1.8.85,1.79.85,4.8,2.28,7.47,3.59,7.44,3.64,7.41,3.7,7.38,3.76,4.5,2.32,1.87.97,1.87.97,1.87.97,1.87.98,10.52,5.52,4.32,2.25,4.34,2.22,4.36,2.19,4.37,2.15,2.15,1.05,6.17,2.97,6.21,2.89,6.24,2.82,6.28,2.74,5.59,2.37,5.61,2.3,5.64,2.24,5.67,2.18,3.12,1.19,4.85,1.82,4.87,1.78,4.88,1.76,4.89,1.72,6.7,2.32,3.97,1.36,3.98,1.33,3.99,1.3,4.01,1.27,8.61,2.7,4.03,1.23,4.04,1.16,4.06,1.11,4.08,1.04,6.65,1.64,5.14,1.18,5.16,1.02,5.2.86,5.22.69,2.81.33,6.15.57,6.17.29h6.17s6.17-.27,6.17-.27l3.22-.22,5.03-.47,5-.71,4.96-.96,4.91-1.2,6.91-1.88,3.99-1.25,3.88-1.55,3.75-1.83,3.61-2.11,5.88-3.75,3.79-2.83,3.34-3.36,2.81-3.81,2.3-4.35,2.08-6.42.67-6.53-.7-6.53-2.03-6.24-2.47-4.51-3.16-4.05-3.78-3.47-4.29-2.82-13.32-7.25-10.85-5.83-5.57-3.36-5.21-3.89-4.81-4.38-4.35-4.84-3.62-4.91-3.15-5.23-2.66-5.49-2.14-5.72-2.15-6.69-.92-3.05-.79-3.08-.67-3.11-.54-3.14-1.56-10.1-.93-4.33-1.44-4.2-1.92-4-2.37-3.74-4.95-5.6-5.96-4.51-6.73-3.24-7.24-1.85-6.09-.92-1.9-.25-1.9-.18-1.91-.11-1.92-.04-13.11-.04-4.44.03-4.44.11-4.43.2-4.43.28-8.93.66-3.99.31-3.99.35-3.98.38-3.98.41-14.3,1.55-1.72.18-1.72.18-1.72.17-1.72.17-14.97,1.45-3.66.32-3.66.25-3.67.19-3.67.12-9.56.22h-4.44s-4.43-.21-4.43-.21l-4.42-.42-4.39-.62-4.15-.69-6.09-1.28-5.96-1.8-5.77-2.32-5.56-2.81-5.49-3.42-5.16-3.9-4.78-4.35-4.37-4.77-3.12-3.73-2.46-3.06-2.33-3.16-2.2-3.25-2.07-3.33-8.19-13.77-.51-.84-.5-.84-.51-.84-.51-.84-5.11-8.34-3.57-6.06-3.35-6.18-3.13-6.3-2.91-6.4-2.25-5.42-2.1-5.48-1.93-5.54-1.76-5.6-2.19-7.33-.9-3.1-.84-3.11-.78-3.13-.72-3.14-.41-1.88-1.62-8.52-1.14-8.6-.67-8.65-.18-8.67.09-4.2.2-4.2.31-4.19.43-4.18,1.64-14.25.17-1.53.16-1.54.15-1.54.14-1.54.62-7.22.87-7.65,1.26-7.6,1.65-7.52,2.05-7.43,1.11-3.64,1-3.11,1.11-3.07,1.22-3.03,1.33-2.99.95-2.05,3.11-7.7,2.33-7.97,1.51-8.17.68-8.28.14-4.6v-2.15s-.09-2.15-.09-2.15l-.23-2.14-.33-2.13-.62-9.56,1.68-9.43,3.88-8.76,5.85-7.58,3.03-3.07.36-.38.48-.51.97-1.04,7.66-9,6.84-9.65,5.96-10.21,5.04-10.7.47-1.12.2-.48.25-.64,3.41-8.84,3.41-6.49,4.81-5.53,5.96-4.27,6.78-2.79,4.12-.87,4.2-.31,4.2.25,4.13.81,5.45,1.44,5.17,1.71,4.91,2.34,4.59,2.93,4.21,3.49,4.61,5.05,3.75,5.68,2.83,6.19,1.84,6.55.71,5.19.08,5.23-.54,5.2-1.15,5.11-.92,3.17-1.82,5.3-2.33,5.1-2.81,4.84-3.27,4.55-4.86,6.1-2.01,2.43-2.07,2.36-2.16,2.29-2.23,2.22-6.13,5.92-3.85,3.92-3.65,4.11-3.42,4.29-3.2,4.46-1.27,1.88-3.24,5.17-2.89,5.38-2.52,5.56-2.13,5.72-.68,2.06-1.57,5.34-1.17,5.44-.75,5.52-.35,5.56-.04,1.79.13,6.2.73,6.15,1.3,6.06,1.86,5.91,2.47,5.82,3.01,5.56,3.55,5.24,4.03,4.87,1.36,1.49,3.68,3.77,3.94,3.5,4.16,3.22,4.38,2.92,7.16,4.43,2.81,1.8,2.75,1.89,2.69,1.98,2.62,2.07,6.93,6.2,6.33,6.8,5.69,7.35,4.99,7.84.85,1.47,1.21,2.15,1.15,2.17,1.11,2.2,1.06,2.22,2.08,4.51,3.55,7.08,4.01,6.84,4.43,6.56,4.84,6.27,3.1,3.61,3.24,3.49,3.37,3.36,3.5,3.23,8.25,7.32,1.99,1.74,2,1.72,2.01,1.7,2.04,1.68,13.43,10.99,1.24,1.02,1.25,1.02,1.23,1.02,1.24,1.02,7.16,5.93,5.15,4.24,5.17,4.21,5.2,4.17,5.23,4.14,8.83,6.94.75.59,1.01.78,11.62,8.85,3.95,3.24,3.7,3.53,3.43,3.79,3.15,4.03,3.97,6.14,3.3,6.51,2.61,6.83,1.87,7.06,1.68,7.97.26,1.17.29,1.16.32,1.15.35,1.15,3.85,12.09,1.88,4.22,2.77,3.7,3.51,2.99,4.09,2.15,5.17,1.29,5.32-.07,5.13-1.41,4.6-2.67,3.05-2.34,2.78-2.45,2.43-2.81,2.04-3.11,1.6-3.35,4.33-10.9,1.25-2.94,1.38-2.88,1.51-2.82,1.64-2.75,1.62-2.58,4.4-6.45,4.87-6.1,5.32-5.72,5.73-5.3,2.39-2.05,2.56-2.27,2.49-2.35,2.41-2.44,2.32-2.51,3.01-3.36,4.42-5.41,3.92-5.78,3.39-6.11,2.83-6.39,1.86-5.31,1.47-5.43,1.08-5.52.68-5.59,1.06-12.45.08-.92.08-.92.09-.92.1-.92.74-6.82,1.19-8.39,1.73-8.3,2.28-8.17,2.8-8,.3-.78,1.45-3.57,1.57-3.52,1.68-3.46,1.79-3.41,4.07-7.41,2.15-4.3,1.81-4.45,1.46-4.57,1.1-4.68.99-7.42.1-7.48-.8-7.45-1.69-7.29-.85-2.87-1.08-3.37-1.24-3.31-1.4-3.25-1.55-3.18-7.33-14.16-.65-1.24-.65-1.24-.66-1.23-.67-1.23-9.07-16.58-1-1.82-.99-1.82-.99-1.83-.98-1.83-9.75-18.15-.39-.73-.52-.97-7.95-15.12-1.76-3.55-1.59-3.63-1.42-3.7-1.24-3.76-1.73-5.68-1.39-5.58-.81-5.7-.21-5.75.38-5.74,1.15-6.45,1.9-6.27,2.63-6.01,3.49-5.92,3.45-4.69,3.67-4.1,4.04-3.73,4.38-3.34,8.38-5.78,1.75-1.18,1.77-1.15,1.79-1.11,1.81-1.08,5.03-2.94,6.67-4.11,6.47-4.42,6.26-4.72,6.03-5.01,3.7-3.32,3.6-3.43,3.5-3.54,3.39-3.64,9.32-10.3.67-.74.67-.74.67-.74.68-.73,14.03-15.2,1.07-1.17,1.07-1.17,1.07-1.18,1.06-1.18,6.82-7.62,4.08-4.69,3.95-4.8,3.82-4.9,3.69-5,3.8-5.47,3.64-5.57,3.48-5.68,3.31-5.77,4.28-7.73.9-1.61.91-1.6.93-1.59.93-1.58,5.19-8.69,3.19-5.05,3.42-4.89,3.66-4.72,3.88-4.54,4.69-4.94,4.95-4.68,5.2-4.4,5.43-4.1.94-.67,4.5-3.07,4.61-2.88,4.73-2.69,4.83-2.5,2.93-1.44,5.25-2.47,5.33-2.28,5.41-2.1,5.48-1.9,2.65-.87,5.43-1.66,5.49-1.42,5.55-1.19,5.59-.95,1.65-.24,6.27-.76,6.3-.42,6.31-.08,6.31.26,6.44.62,6.4.97,6.33,1.32,6.25,1.67.78.23,5.66,1.82,5.57,2.09,5.46,2.35,5.34,2.61.9.47,5.59,3.07,5.43,3.33,5.27,3.59,5.33,4.03,4.97,4.12,4.53,4.15,4.32,4.37,4.11,4.58,1.22,1.43,3.62,4.46,3.38,4.64,3.13,4.82,2.87,4.97,1.08,1.99,2.65,5.28,2.31,5.44,1.95,5.58,1.59,5.7.33,1.35,1.23,6,.79,6.07.33,6.11-.12,6.12-.63,6.52-1.15,6.45-1.66,6.34-2.22,6.36-2.44,5.64-2.76,5.29-3.12,5.08-3.47,4.85-2.22,2.88-3.16,3.91-3.33,3.77-3.5,3.61-3.66,3.44-6.46,5.81-2.64,2.34-2.68,2.29-2.72,2.24-2.76,2.2-12.22,9.55-1.29,1.01-1.29,1.02-1.29,1.02-1.28,1.02-9.48,7.57-4.07,3.27-4.05,3.29-4.03,3.31-4.01,3.34-6.91,5.78-2.44,2.07-2.43,2.09-2.41,2.11-2.39,2.13-8.69,7.81-2.85,2.62-2.78,2.7-2.7,2.77-2.63,2.84-5.05,5.6-3.37,3.97-3.12,4.16-2.86,4.35-2.59,4.51-.33.62-3.09,6.44-2.51,6.68-1.92,6.88-1.32,7.02-.6,5.57-.22,5.59.17,5.59.55,5.57.88,6.56.58,3.92.7,3.9.82,3.88.94,3.85,3.04,11.69.75,2.82.77,2.81.8,2.81.82,2.8,3.39,11.34,1.19,3.91,1.24,3.9,1.29,3.88,1.34,3.86,3.05,8.28,3.27,8.2,3.49,8.11,3.7,8.01,2.82,5.91.36.74.36.73.37.73.38.73,7.48,14.11,1.61,3.66,1.06,3.86.48,3.97-.11,4-1.88,7.55-3.93,6.71-5.67,5.33-6.94,3.51-4.01,1.35-1.57.49-1.6.41-1.62.33-1.63.25-21.98,2.87-.57.08-13.35,1.92-5.82.34-5.79-.64-5.6-1.6-5.25-2.52-4.87-3.46-4.2-4.24-3.41-4.9-2.52-5.41-1.32-3.61-1.26-4.04-.88-4.14-.49-4.21-.1-4.24.26-10.82.12-3.11.21-3.11.31-3.1.41-3.09,2.47-16.85.18-1.28.18-1.27.18-1.28.17-1.27,2.49-18.77.29-2.15.31-2.15.32-2.15.34-2.15.17-1.1,1.44-10.08,1.11-10.12.77-10.15.43-10.17.06-2.68.03-2.68v-2.68s0-2.68,0-2.68l-.17-18.86v-.82s-.02-.82-.02-.82v-.82s-.02-.82-.02-.82l-.26-15.64-.13-4.28-.25-4.28-.37-4.27-.49-4.26-.96-7.49-.74-4.75-1.01-4.71-1.27-4.64-1.53-4.57-1.69-4.63-2.11-5.05-2.57-4.84-3-4.58-3.4-4.29-1.57-1.8-4.07-4.16-4.52-3.65-4.92-3.1-5.25-2.5-1.39-.57-5.42-1.81-5.6-1.1-5.7-.36-5.7.38-.98.13-5.79,1.19-5.56,2.02-5.21,2.8-4.75,3.53-4.23,4.22-3.57,4.8-2.83,5.27-2.05,5.68-1.21,5.92-.33,5.98.54,5.97,1.4,5.83.22.7,2.07,5.28,2.74,4.97,3.36,4.57,3.92,4.1,4.48,4.11,2.86,2.48,3,2.31,3.12,2.14,3.24,1.96,8.71,4.93,3.51,2.11,3.4,2.29,3.27,2.46,3.14,2.63,3.3,2.92,4.44,4.38,3.95,4.83,3.41,5.23,2.83,5.56,2.19,5.75,1.57,5.94.93,6.08.28,6.14-.02,3.43-.26,4.76-.72,4.71-1.17,4.62-1.62,4.48-1,2.39-2.77,5.46-3.56,4.97-4.26,4.39-4.87,3.7-1.45.93-4.59,2.5-4.91,1.79-5.12,1.05-5.35.27-6.64-.77-6.24-1.99-5.75-3.14-5.05-4.17-3.56-4.18-2.85-4.69-2.07-5.08-1.23-5.35-1.29-8.72-.48-2.77-.6-2.74-.73-2.71-.85-2.67-2.41-7.01-1.89-6.07-1.53-6.18-1.16-6.25-.8-6.31-.81-6.44-1.2-6.38-1.58-6.3-1.96-6.19-2.76-7.91-.71-2.1-.67-2.11-.62-2.12-.59-2.14-3.64-13.82-.74-3.44-.41-3.49-.09-3.52.24-3.51.97-8.4v-4.73s-1.07-4.6-1.07-4.6l-2.09-4.24-3-3.65-5.44-3.77-6.35-1.85-6.61.26Z"/>
  </g>
  <g id="Rulers">
    <g>
      <line class="cls-4" x1="797.58" y1="105.67" x2="797.58" y2="96.59"/>
      <line class="cls-4" x1="888.36" y1="105.67" x2="888.36" y2="96.59"/>
      <line class="cls-4" x1="979.14" y1="105.67" x2="979.14" y2="96.59"/>
      <line class="cls-4" x1="1069.91" y1="105.67" x2="1069.91" y2="96.59"/>
      <line class="cls-4" x1="1160.69" y1="105.67" x2="1160.69" y2="96.59"/>
      <line class="cls-4" x1="797.58" y1="105.67" x2="797.58" y2="89.79"/>
      <line class="cls-4" x1="888.36" y1="105.67" x2="888.36" y2="89.79"/>
      <line class="cls-4" x1="979.14" y1="105.67" x2="979.14" y2="89.79"/>
      <line class="cls-4" x1="1069.91" y1="105.67" x2="1069.91" y2="89.79"/>
      <line class="cls-4" x1="1160.69" y1="105.67" x2="1160.69" y2="89.79"/>
    </g>
  </g>
  <g id="Icons">
    <path class="cls-1" d="M183.71,150.29H61.14s32.31-50.14,32.31-50.14l-32.31-50.14h133.71v156h-11.14v-55.71ZM183.71,61.14h-102.12s25.24,39,25.24,39l-25.24,39h102.12s0-78,0-78Z"/>
  </g>
  <g id="Text">
    <g>
      <path class="cls-3" d="M313.88,73.7c8.59,0,13.81,5.11,15.18,12.12l-7.59,1.64c-.44-3.79-2.74-6.82-7.47-6.82s-8.34,3.53-8.34,9.59,3.61,9.59,8.34,9.59,7.03-2.84,7.72-6.88l7.59,1.83c-1.74,6.88-6.78,11.99-15.43,11.99s-16.05-6.82-16.05-16.54,7.09-16.54,16.05-16.54Z"/>
      <path class="cls-3" d="M368.7,79h.62c1.18-3.34,3.79-4.54,7.71-4.54h3.24v6.69h-4.6c-3.98,0-6.84,2.15-6.84,6.56v18.18h-7.84v-31.3h7.72v4.42Z"/>
      <path class="cls-3" d="M415,60.06c3.11,0,5.54,2.21,5.54,5.43s-2.43,5.43-5.54,5.43-5.54-2.21-5.54-5.43,2.43-5.43,5.54-5.43ZM418.92,105.88h-7.84v-31.3h7.84v31.3Z"/>
      <path class="cls-3" d="M449.47,74.58h7.72v-9.72h7.84v9.72h8.46v6.44h-8.46v16.53c0,1.26.62,1.89,1.74,1.89h5.97v6.44h-8.71c-4.11,0-6.84-2.78-6.84-7.07v-17.8h-7.72v-6.44Z"/>
      <path class="cls-3" d="M509.46,60.06c3.11,0,5.54,2.21,5.54,5.43s-2.43,5.43-5.54,5.43-5.54-2.21-5.54-5.43,2.43-5.43,5.54-5.43ZM513.38,105.88h-7.84v-31.3h7.84v31.3Z"/>
      <path class="cls-3" d="M561.36,73.7c8.59,0,13.81,5.11,15.18,12.12l-7.59,1.64c-.44-3.79-2.74-6.82-7.47-6.82s-8.34,3.53-8.34,9.59,3.61,9.59,8.34,9.59,7.03-2.84,7.72-6.88l7.59,1.83c-1.74,6.88-6.78,11.99-15.43,11.99s-16.05-6.82-16.05-16.54,7.09-16.54,16.05-16.54Z"/>
      <path class="cls-3" d="M622.22,73.7c8.09,0,13.38,4.61,13.38,12.43v19.75h-7.59v-4.04h-.62c-1,1.83-3.42,4.92-9.46,4.92-6.35,0-11.08-3.34-11.08-9.28s4.85-8.65,11.32-9.66l9.71-1.51v-.76c0-3.03-1.74-5.55-5.97-5.55s-6.47,2.52-7.22,6.06l-7.53-2.59c2.12-5.17,6.97-9.78,15.06-9.78ZM619.73,100.71c4.98,0,8.15-3.28,8.15-7.95v-.82l-8.84,1.39c-2.8.44-4.36,1.7-4.36,3.72s1.56,3.66,5.04,3.66Z"/>
      <path class="cls-3" d="M676.86,105.88h-7.84v-44.18h7.84v44.18Z"/>
      <path class="cls-3" d="M330.3,181.61h-7.72v-4.23h-.62c-1.87,2.71-4.85,5.11-10.21,5.11-7.34,0-13.94-6.31-13.94-16.54s6.6-16.54,13.94-16.54c5.35,0,8.34,2.4,10.08,4.92h.62v-16.91h7.84v44.18ZM305.66,165.96c0,6.18,3.61,9.72,8.46,9.72s8.46-3.53,8.46-9.72-3.61-9.72-8.46-9.72-8.46,3.53-8.46,9.72Z"/>
      <path class="cls-3" d="M377.72,149.42c8.96,0,15,6.37,15,16.03v2.97h-22.46c.31,4.04,3.48,7.26,7.84,7.26s6.53-2.46,7.84-4.8l6.28,3.91c-1.74,2.4-5.41,7.7-14.12,7.7-9.46,0-15.87-7.07-15.87-16.79s6.41-16.28,15.49-16.28ZM384.75,162.86c-.44-4.1-3.05-6.63-7.09-6.63-4.42,0-6.84,2.65-7.34,6.63h14.44Z"/>
      <path class="cls-3" d="M438.58,149.42c8.59,0,13.81,5.11,15.18,12.12l-7.59,1.64c-.44-3.79-2.74-6.82-7.47-6.82s-8.34,3.53-8.34,9.59,3.61,9.59,8.34,9.59,7.03-2.84,7.72-6.88l7.59,1.83c-1.74,6.88-6.78,11.99-15.43,11.99s-16.05-6.82-16.05-16.54,7.09-16.54,16.05-16.54Z"/>
      <path class="cls-3" d="M499.32,149.42c8.96,0,15,6.37,15,16.03v2.97h-22.46c.31,4.04,3.49,7.26,7.84,7.26s6.53-2.46,7.84-4.8l6.28,3.91c-1.74,2.4-5.41,7.7-14.12,7.7-9.46,0-15.87-7.07-15.87-16.79s6.41-16.28,15.49-16.28ZM506.35,162.86c-.44-4.1-3.05-6.63-7.09-6.63-4.42,0-6.84,2.65-7.34,6.63h14.44Z"/>
      <path class="cls-3" d="M553.71,150.31v4.67h.62c1.24-2.65,3.86-5.17,9.52-5.17,7.22,0,12.01,5.36,12.01,13.13v18.68h-7.84v-18.3c0-4.73-2.37-7.07-6.6-7.07-4.79,0-7.59,3.41-7.59,9.21v16.16h-7.84v-31.3h7.72Z"/>
      <path class="cls-3" d="M605.42,150.31h7.72v-9.72h7.84v9.72h8.46v6.44h-8.46v16.54c0,1.26.62,1.89,1.74,1.89h5.97v6.44h-8.71c-4.11,0-6.84-2.78-6.84-7.07v-17.8h-7.72v-6.44Z"/>
      <path class="cls-3" d="M669.21,154.72h.62c1.18-3.34,3.79-4.54,7.72-4.54h3.24v6.69h-4.6c-3.98,0-6.84,2.15-6.84,6.56v18.18h-7.84v-31.3h7.72v4.42Z"/>
      <path class="cls-3" d="M725.03,149.42c8.09,0,13.38,4.61,13.38,12.43v19.75h-7.59v-4.04h-.62c-1,1.83-3.42,4.92-9.46,4.92-6.35,0-11.08-3.34-11.08-9.28s4.85-8.65,11.32-9.66l9.71-1.51v-.76c0-3.03-1.74-5.55-5.97-5.55s-6.47,2.52-7.22,6.06l-7.53-2.59c2.12-5.17,6.97-9.78,15.06-9.78ZM722.54,176.43c4.98,0,8.15-3.28,8.15-7.95v-.82l-8.84,1.39c-2.8.44-4.36,1.7-4.36,3.72s1.56,3.66,5.04,3.66Z"/>
      <path class="cls-3" d="M779.66,181.61h-7.84v-44.18h7.84v44.18Z"/>
      <path class="cls-3" d="M817.38,135.79c3.11,0,5.54,2.21,5.54,5.43s-2.43,5.43-5.54,5.43-5.54-2.21-5.54-5.43,2.43-5.43,5.54-5.43ZM821.3,181.61h-7.84v-31.3h7.84v31.3Z"/>
      <path class="cls-3" d="M866.91,149.42c7.22,0,12.57,3.6,15.56,9.4l-6.97,2.84c-1.62-4.86-5.35-6.06-8.46-6.06s-5.04,1.07-5.04,3.09,1.62,2.84,4.98,3.53l3.11.63c6.35,1.26,12.01,3.22,12.01,9.66s-5.6,9.97-13.19,9.97-13.63-3.53-16.18-10.29l7.09-2.52c1.43,5.24,5.1,6.63,8.96,6.63s5.73-1.39,5.73-3.41-1.74-2.65-5.35-3.41l-3.11-.63c-6.47-1.33-11.64-3.98-11.64-9.91s5.29-9.53,12.51-9.53Z"/>
      <path class="cls-3" d="M928.08,149.42c8.09,0,13.38,4.61,13.38,12.43v19.75h-7.59v-4.04h-.62c-1,1.83-3.42,4.92-9.46,4.92-6.35,0-11.08-3.34-11.08-9.28s4.85-8.65,11.32-9.66l9.71-1.51v-.76c0-3.03-1.74-5.55-5.97-5.55s-6.47,2.52-7.22,6.06l-7.53-2.59c2.12-5.17,6.97-9.78,15.06-9.78ZM925.59,176.43c4.98,0,8.15-3.28,8.15-7.95v-.82l-8.84,1.39c-2.8.44-4.36,1.7-4.36,3.72s1.56,3.66,5.04,3.66Z"/>
      <path class="cls-3" d="M971.02,150.31h7.72v-9.72h7.84v9.72h8.46v6.44h-8.46v16.54c0,1.26.62,1.89,1.74,1.89h5.97v6.44h-8.71c-4.11,0-6.84-2.78-6.84-7.07v-17.8h-7.72v-6.44Z"/>
      <path class="cls-3" d="M1031.01,135.79c3.11,0,5.54,2.21,5.54,5.43s-2.43,5.43-5.54,5.43-5.54-2.21-5.54-5.43,2.43-5.43,5.54-5.43ZM1034.93,181.61h-7.84v-31.3h7.84v31.3Z"/>
      <path class="cls-3" d="M1083.03,149.42c9.21,0,16.18,6.31,16.18,16.54s-6.97,16.54-16.18,16.54-16.18-6.31-16.18-16.54,6.97-16.54,16.18-16.54ZM1083.03,175.55c4.85,0,8.34-3.53,8.34-9.59s-3.48-9.59-8.34-9.59-8.34,3.53-8.34,9.59,3.49,9.59,8.34,9.59Z"/>
      <path class="cls-3" d="M1138.85,150.31v4.67h.62c1.24-2.65,3.86-5.17,9.52-5.17,7.22,0,12.01,5.36,12.01,13.13v18.68h-7.84v-18.3c0-4.73-2.37-7.07-6.6-7.07-4.79,0-7.59,3.41-7.59,9.21v16.16h-7.84v-31.3h7.72Z"/>
    </g>
  </g>
</svg>