<svg width="1100" height="1000" viewBox="0 0 1100 1000" fill="none" xmlns="http://www.w3.org/2000/svg">
<path d="M942.99 306.022L943.871 302.95L944.566 301.748L945.44 300.614L946.47 299.579L947.635 298.664L949.884 297.104L952.339 295.608L954.96 294.413L957.694 293.539L960.481 293.01L961.153 292.926L963.543 292.739L965.899 292.785L968.191 293.07L970.388 293.586L971.793 293.998L973.905 294.719L975.912 295.605L977.793 296.658L979.538 297.862L980.908 298.908L982.416 300.14L983.829 301.457L985.138 302.857L986.342 304.331L987.907 306.383L988.871 307.701L989.788 309.046L990.655 310.423L991.472 311.828L993.505 315.476L994.037 316.442L994.559 317.413L995.069 318.391L995.568 319.373L998.677 325.55L998.793 325.781L998.908 326.012L999.024 326.243L999.139 326.475L1002.59 333.393L1002.9 334.015L1003.21 334.637L1003.51 335.257L1003.82 335.879L1005.76 339.867L1006.59 341.582L1007.41 343.303L1008.22 345.031L1009.02 346.762L1009.41 347.608L1010.42 349.835L1011.41 352.071L1012.39 354.313L1013.34 356.563L1013.81 357.663L1014.49 359.302L1015.17 360.946L1015.83 362.591L1016.49 364.243L1018.41 369.111L1018.57 369.508L1018.72 369.908L1018.88 370.306L1019.03 370.707L1021.33 376.626L1021.77 377.762L1022.22 378.895L1022.67 380.026L1023.13 381.155L1024.09 383.518L1024.97 385.671L1025.87 387.815L1026.79 389.952L1027.72 392.082L1028.75 394.354L1029.79 396.618L1030.84 398.873L1031.92 401.119L1032.93 403.199L1033.44 404.252L1033.96 405.301L1034.48 406.348L1035 407.396L1037.19 411.723L1037.73 412.818L1038.27 413.917L1038.81 415.02L1039.33 416.127L1040.74 419.108L1041.55 420.873L1042.33 422.653L1043.08 424.447L1043.79 426.258L1044.23 427.414L1045.01 429.529L1045.73 431.668L1046.38 433.827L1046.98 436.008L1047.13 436.577L1047.67 438.795L1048.14 441.031L1048.55 443.289L1048.88 445.566L1049.01 446.517L1049.24 448.611L1049.41 450.717L1049.5 452.838L1049.53 454.97L1049.52 456.595L1049.47 458.613L1049.32 460.642L1049.09 462.677L1048.77 464.714L1048.47 466.421L1048.03 468.536L1047.45 470.645L1046.75 472.742L1045.92 474.818L1045.41 476.013L1044.37 478.183L1043.16 480.306L1041.79 482.369L1040.26 484.359L1039.68 485.063L1037.97 486.992L1036.08 488.802L1034.05 490.483L1031.88 492.021L1031.27 492.416L1028.95 493.801L1026.52 494.987L1023.99 495.968L1021.33 496.753L1018.44 497.335L1015.64 497.625L1012.88 497.636L1010.18 497.372L1007.68 496.859L1005.3 496.1L1003.08 495.105L1001.03 493.882L1000.15 493.288L998.56 492.101L997.092 490.795L995.762 489.379L994.571 487.86L992.008 484.257L991.618 483.702L991.238 483.14L990.865 482.574L990.502 482.003L988.415 478.655L987.226 476.837L985.961 475.065L984.62 473.342L983.206 471.671L981.396 469.718L979.485 467.843L977.47 466.057L975.363 464.354L974.883 463.984L973.31 462.815L971.697 461.686L970.044 460.603L968.351 459.562L965.79 458.041L964.401 457.227L963 456.432L961.582 455.653L960.151 454.889L957.618 453.562L955.762 452.6L953.893 451.653L952.011 450.721L950.118 449.806L946.559 448.1L945.567 447.627L944.569 447.16L943.568 446.697L942.562 446.236L938.092 444.21L936.609 443.52L935.144 442.803L933.698 442.06L932.272 441.292L931.475 440.855L928.864 439.339L926.339 437.726L923.908 436.016L921.568 434.21L920.026 432.925L918.534 431.597L917.087 430.227L915.69 428.82L911.862 424.831L911.702 424.664L911.488 424.443L907.571 420.4L906.18 418.999L904.754 417.63L903.287 416.294L901.782 414.991L900.691 414.071L898.945 412.649L897.141 411.287L895.28 409.981L893.36 408.735L892.794 408.38L890.702 407.136L888.546 405.97L886.325 404.885L883.988 403.858L881.459 402.864L878.929 401.994L876.343 401.222L873.707 400.55L871.104 399.996L868.46 399.538L865.779 399.178L863.069 398.913L862.582 398.874L859.997 398.711L857.396 398.629L854.778 398.626L852.146 398.704L851.202 398.746L848.617 398.895L846.023 399.111L843.428 399.392L840.83 399.739L839.229 399.971L836.902 400.348L834.578 400.794L832.262 401.308L829.952 401.891L826.625 402.86L823.333 403.971L820.082 405.219L816.879 406.602L815.394 407.283L813.972 407.951L812.567 408.652L811.176 409.384L809.802 410.146L806.017 412.302L804.133 413.3L802.192 414.183L800.203 414.943L798.177 415.581L794.786 416.345L791.38 416.749L788.01 416.782L784.728 416.446L784.279 416.375L782.463 416.021L780.698 415.56L778.992 414.989L777.35 414.316L772.709 412.217L771.911 411.85L771.118 411.468L770.337 411.078L769.563 410.678L765.985 408.786L764.093 407.694L762.314 406.471L760.66 405.131L759.136 403.672L758.367 402.876L756.957 401.247L755.744 399.49L754.736 397.617L753.942 395.64L753.706 394.952L753.134 392.813L752.844 390.592L752.838 388.316L753.115 386.015L753.753 383.454L754.732 380.928L756.035 378.477L757.726 376.032L759.423 374.013L761.224 372.219L763.197 370.569L765.317 369.073L767.162 367.88L768.992 366.76L770.877 365.724L772.806 364.779L774.782 363.926L779.139 362.162L780.45 361.664L781.777 361.22L783.118 360.836L784.47 360.51L786.411 360.082L789.636 359.148L792.733 357.797L795.623 356.062L798.238 353.99L799.879 352.346L801.326 350.582L802.567 348.718L803.58 346.775L804.082 345.667L804.994 343.352L805.644 341.005L806.025 338.651L806.136 336.314L806.099 333.115L806.073 332.134L806.02 331.156L805.934 330.187L805.821 329.221L804.888 322.194L804.828 321.822L804.753 321.453L804.662 321.087L804.55 320.73L803.086 316.325L802.196 314.872L800.7 313.894L798.81 313.528L796.782 313.822L795.317 314.468L794.056 315.426L793.097 316.616L792.519 317.942L791.364 322.193L791.108 323.012L790.788 323.823L790.406 324.62L789.961 325.402L788.593 327.626L786.865 329.917L784.685 331.916L782.153 333.541L779.372 334.724L777.234 335.277L775.076 335.549L772.953 335.535L770.907 335.23L768.596 334.712L766.746 334.208L764.986 333.546L763.332 332.733L761.797 331.773L757.645 328.866L757.131 328.501L756.625 328.129L756.124 327.751L755.631 327.364L752.776 325.089L750.757 323.561L748.649 322.123L746.455 320.777L744.182 319.527L741.932 318.417L739.614 317.401L737.237 316.48L734.797 315.651L732.878 315.043L731.233 314.54L729.572 314.068L727.894 313.626L726.201 313.215L721.299 312.079L720.178 311.819L719.052 311.568L717.924 311.322L716.793 311.082L711.499 309.967L709.956 309.641L708.418 309.308L706.88 308.971L705.347 308.627L701.119 307.679L699.474 307.313L697.821 306.964L696.163 306.626L694.5 306.298L691.481 305.719L689.291 305.321L687.089 304.959L684.872 304.634L682.641 304.344L678.827 303.886L677.474 303.741L676.109 303.628L674.735 303.547L673.355 303.499L668.338 303.39L666.602 303.415L664.854 303.564L663.101 303.837L661.359 304.232L658.372 305.015L656.194 305.753L654.135 306.787L652.25 308.091L650.596 309.624L648.975 311.721L647.83 314L647.211 316.363L647.141 318.709L647.169 319.008L647.506 320.813L648.169 322.501L649.145 324.036L650.406 325.381L653.995 328.557L654.375 328.884L654.763 329.207L655.16 329.522L655.564 329.827L659.828 332.988L661.148 334.136L662.249 335.456L663.112 336.924L663.72 338.516L664.091 339.787L664.405 341.766L664.238 343.822L663.593 345.875L662.5 347.835L660.903 349.719L658.931 351.317L656.673 352.556L654.24 353.371L653.345 353.585L651.339 353.932L649.346 354.018L647.41 353.839L645.575 353.402L639.624 351.506L639.316 351.409L638.906 351.285L632.596 349.457L630.813 349.08L628.942 348.949L627.025 349.073L625.103 349.443L624.087 349.706L621.564 350.629L619.263 352.024L617.324 353.808L615.85 355.882L615.078 357.634L614.674 359.429L614.647 361.207L615.005 362.905L616.76 368.18L616.84 368.416L618.368 372.708L619.126 375.024L619.76 377.382L620.272 379.78L620.662 382.213L620.842 383.573L621.112 385.273L621.468 386.951L621.906 388.603L622.429 390.225L623.221 392.481L623.916 394.206L624.768 395.856L625.77 397.426L626.923 398.905L628.335 400.556L629.609 401.859L631.074 402.995L632.711 403.952L634.492 404.717L637.425 405.491L640.557 405.775L643.783 405.558L647.007 404.85L648.051 404.541L649.464 404.078L650.853 403.536L652.21 402.92L653.534 402.227L656.071 400.809L658.677 399.539L661.397 398.566L664.185 397.911L666.989 397.585L669.498 397.578L671.94 397.845L674.277 398.385L676.472 399.187L678.781 400.204L680.141 400.848L681.445 401.56L682.696 402.34L683.886 403.182L689.231 407.213L689.458 407.382L689.759 407.608L693.83 410.618L695.736 411.975L697.703 413.266L699.727 414.494L701.809 415.656L704.245 416.897L706.746 418.051L709.313 419.114L711.939 420.085L712.666 420.337L714.645 421L716.653 421.617L718.683 422.189L720.738 422.714L722.64 423.175L724.876 423.698L727.132 424.182L729.399 424.632L731.684 425.043L734.893 425.588L736.398 425.84L737.908 426.084L739.42 426.317L740.934 426.539L745.015 427.125L746.915 427.395L748.817 427.656L750.721 427.907L752.63 428.149L754.713 428.406L757.254 428.713L759.806 428.997L762.364 429.258L764.929 429.495L769.173 429.873L770.033 429.946L770.895 430.008L771.76 430.063L772.627 430.109L776.567 430.3L779.341 430.357L782.141 430.266L784.958 430.028L787.779 429.641L790.578 429.111L793.364 428.439L796.121 427.626L798.849 426.676L799.454 426.448L801.931 425.46L804.368 424.371L806.759 423.185L809.098 421.907L813.533 419.363L814.101 419.041L814.675 418.722L815.25 418.414L815.831 418.109L820.28 415.806L822.707 414.678L825.214 413.763L827.777 413.066L830.365 412.602L833.213 412.359L836.022 412.407L838.752 412.74L841.371 413.355L841.829 413.489L843.948 414.224L845.954 415.135L847.828 416.214L849.556 417.457L850.462 418.182L852.097 419.611L853.59 421.159L854.93 422.817L856.112 424.58L856.602 425.392L857.655 427.281L858.559 429.243L859.317 431.269L859.919 433.354L860.094 434.053L860.571 436.271L860.902 438.531L861.085 440.824L861.124 443.141L861.118 443.456L861.005 445.916L860.739 448.39L860.322 450.869L859.734 453.43L859.013 455.933L858.179 458.337L857.211 460.72L856.11 463.076L855.756 463.787L854.652 465.898L853.458 467.98L852.178 470.032L850.81 472.05L849.678 473.655L848.419 475.399L847.111 477.122L845.76 478.821L844.366 480.497L842.755 482.394L841.279 484.101L839.773 485.792L838.242 487.466L836.681 489.121L834.632 491.261L833.246 492.683L831.83 494.084L830.385 495.463L828.909 496.818L826.827 498.698L825.025 500.272L823.166 501.787L821.247 503.245L819.277 504.643L817.989 505.523L815.768 506.969L813.475 508.315L811.118 509.554L808.705 510.683L807.471 511.225L805.139 512.177L802.761 512.996L800.352 513.676L797.905 514.22L794.715 514.711L791.558 514.954L788.429 514.949L785.362 514.696L783.09 514.343L780.88 513.849L778.735 513.22L776.665 512.456L771.564 510.364L771.316 510.264L771.066 510.162L770.819 510.063L770.569 509.966L770.104 509.783L765.674 508.146L761.143 506.677L756.521 505.374L751.687 504.212L751.152 504.093L750.748 504L750.347 503.906L749.945 503.813L746.123 502.9L743.252 502.133L740.453 501.227L737.739 500.184L735.114 499.008L733.101 497.978L731.151 496.87L729.274 495.682L727.466 494.415L725.938 493.294L724.466 492.177L723.028 491.022L721.632 489.835L720.273 488.609L719.338 487.74L717.561 486.043L715.841 484.301L714.176 482.514L712.497 480.597L710.945 478.727L709.519 476.908L708.146 475.054L706.828 473.166L705.898 471.799L704.952 470.383L704.028 468.952L703.126 467.509L702.244 466.055L699.707 461.783L699.379 461.235L699.044 460.688L698.707 460.145L698.368 459.602L695.372 454.861L694.611 453.709L693.798 452.593L692.932 451.507L692.019 450.456L689.705 447.909L688.481 446.696L687.124 445.601L685.639 444.633L684.041 443.796L682.152 442.918L680.169 442.178L678.032 441.728L675.792 441.575L673.357 441.744L670.472 442.346L667.81 443.357L665.333 444.763L663.129 446.51L661.467 448.29L660.122 450.241L659.134 452.309L658.525 454.44L658.126 456.501L657.888 458.162L657.816 459.812L657.908 461.439L658.168 463.026L659.137 467.472L659.355 468.407L659.595 469.334L659.862 470.254L660.15 471.164L661.516 475.272L662.093 476.871L662.745 478.439L663.477 479.971L664.281 481.464L665.913 484.049L667.773 486.494L669.856 488.781L672.175 490.928L673.545 492.043L674.946 493.083L676.404 494.063L677.909 494.987L681.771 497.238L682.706 497.79L683.633 498.354L684.553 498.924L685.461 499.507L691.11 503.166L691.628 503.498L692.147 503.822L692.675 504.142L693.206 504.457L696.098 506.138L698.547 507.429L701.135 508.533L703.843 509.44L706.66 510.15L709.016 510.576L711.425 510.867L713.875 511.017L716.354 511.032L719.665 510.958L721.189 510.939L722.709 510.953L724.222 510.996L725.727 511.073L726.802 511.137L730.298 511.412L733.757 511.815L737.171 512.342L740.537 512.993L744.303 513.798L744.517 513.842L753.432 515.768L754.256 515.963L755.065 516.184L755.858 516.435L756.633 516.713L760.857 518.314L762.521 519.138L763.93 520.24L765.04 521.588L765.813 523.137L766.273 525.436L766.053 527.858L765.159 530.254L763.648 532.477L763.08 533.142L761.72 534.531L760.167 535.757L758.457 536.79L756.627 537.606L752.938 538.987L751.212 539.577L749.462 540.064L747.698 540.446L745.928 540.717L743.409 541.031L740.782 541.266L738.172 541.325L735.599 541.205L733.076 540.905L730.313 540.359L727.657 539.593L725.124 538.614L722.733 537.428L720.905 536.41L719.714 535.72L718.557 534.99L717.432 534.225L716.344 533.424L712.831 530.73L711.686 529.866L710.525 529.02L709.351 528.187L708.16 527.369L702.782 523.735L702.491 523.537L702.198 523.339L701.907 523.141L701.614 522.943L694.216 517.897L693.963 517.724L693.628 517.487L687.92 513.435L686.788 512.721L685.566 512.117L684.263 511.63L682.894 511.26L679.933 510.612L677.933 510.396L675.855 510.587L673.806 511.182L671.831 512.184L669.796 513.792L668.298 515.716L667.394 517.847L667.153 520.021L667.507 521.854L668.381 523.485L669.716 524.815L671.437 525.765L675.663 527.43L676.33 527.677L677.016 527.897L677.718 528.09L678.431 528.255L680.547 528.698L683.833 529.575L686.925 530.791L689.782 532.332L692.373 534.176L693.644 535.29L694.825 536.479L695.907 537.743L696.887 539.075L698.877 541.995L699.701 543.136L700.591 544.234L701.545 545.289L702.556 546.295L703.511 547.193L705.595 548.928L707.912 550.426L710.439 551.674L713.145 552.659L715.359 553.237L717.652 553.641L720.003 553.871L722.402 553.927L725.02 553.893L726.936 553.832L728.86 553.699L730.794 553.495L732.724 553.221L736.297 552.647L738.3 552.306L740.298 551.926L742.295 551.506L744.288 551.047L748.35 550.072L750.032 549.691L751.715 549.355L753.402 549.061L755.09 548.811L757.572 548.476L760.318 548.191L763.051 548.077L765.753 548.134L768.478 548.37L771.225 548.798L773.834 549.397L776.348 550.176L778.815 551.157L781.094 552.273L783.193 553.526L785.153 554.929L786.964 556.475L788.691 558.245L790.232 560.152L791.577 562.184L792.747 564.399L793.646 566.542L794.332 568.687L794.834 570.895L795.151 573.155L795.27 574.378L795.406 576.352L795.432 578.345L795.346 580.353L795.153 582.369L794.942 584.072L794.631 586.22L794.236 588.369L793.754 590.516L793.186 592.66L792.936 593.541L792.196 595.964L791.372 598.376L790.455 600.776L789.401 603.273L788.244 605.791L787.052 608.176L785.777 610.538L784.385 612.934L782.904 615.313L781.381 617.601L779.779 619.856L778.051 622.137L776.263 624.362L774.449 626.484L772.564 628.562L770.608 630.594L770.03 631.178L768.23 632.943L766.368 634.662L764.452 636.331L762.476 637.95L760.62 639.428L758.951 640.707L757.231 641.927L755.459 643.087L753.644 644.184L751.035 645.696L749.043 646.766L746.987 647.706L744.877 648.511L742.728 649.175L739.958 649.934L737.908 650.384L735.849 650.614L733.817 650.621L731.84 650.404L730.149 650.119L727.93 649.52L725.963 648.523L724.325 647.168L723.082 645.508L722.274 643.574L721.956 641.473L722.141 639.289L722.825 637.112L723.353 635.889L724.137 634.321L725.119 632.816L726.278 631.397L727.6 630.082L732.663 625.533L732.991 625.239L733.326 624.948L733.66 624.659L733.998 624.373L739.071 620.114L740.608 618.757L742.06 617.334L743.429 615.849L744.703 614.309L746.226 612.366L747.535 610.518L748.637 608.588L749.514 606.599L750.159 604.572L750.393 603.674L750.8 601.398L750.846 599.144L750.526 596.959L749.849 594.885L748.776 592.888L747.353 591.099L745.612 589.555L743.585 588.292L742.61 587.787L740.834 586.981L738.953 586.342L736.979 585.875L734.931 585.586L729.148 585.031L728.616 584.983L728.082 584.939L727.548 584.9L727.011 584.867L721.138 584.526L719.067 584.345L717.034 584.044L715.051 583.626L713.121 583.092L712.175 582.796L709.666 581.867L707.318 580.697L705.163 579.301L703.219 577.69L701.654 576.057L700.295 574.275L699.156 572.361L698.244 570.333L696.912 566.843L696.675 566.202L696.454 565.555L696.246 564.903L696.051 564.246L694.587 559.067L694.122 557.755L693.488 556.518L692.696 555.372L691.748 554.326L690.454 553.068L688.738 551.787L686.674 550.922L684.369 550.515L681.933 550.589L679.48 551.144L677.144 552.147L675.037 553.552L673.27 555.289L671.621 557.261L670.635 558.552L669.792 559.901L669.095 561.298L668.549 562.727L666.368 569.499L666.294 569.734L666.195 570.046L663.795 577.868L663.495 578.85L663.204 579.831L662.916 580.816L662.636 581.799L661.858 584.556L661.076 587.206L660.229 589.849L659.315 592.487L658.339 595.112L657.414 597.442L656.438 599.761L655.412 602.071L654.336 604.369L653.695 605.705L652.758 607.609L651.782 609.503L650.77 611.386L649.719 613.257L648.708 615.018L647.525 617.016L646.279 618.991L644.975 620.942L643.611 622.869L641.66 625.446L639.605 627.967L637.449 630.429L635.195 632.829L633.479 634.553L631.71 636.239L629.894 637.886L628.031 639.493L624.22 642.698L623.553 643.268L622.893 643.847L622.242 644.434L621.604 645.028L617.666 648.738L616.177 650.256L614.834 651.866L613.645 653.555L612.622 655.309L612.494 655.553L611.301 658.271L610.542 661.051L610.229 663.834L610.375 666.563L610.761 668.469L611.38 670.296L612.224 672.025L613.286 673.639L615.506 676.593L616.103 677.433L616.648 678.303L617.146 679.199L617.59 680.122L618.461 682.073L619.251 684.411L619.592 686.888L619.476 689.445L618.903 692.02L618.082 694.157L616.96 696.226L615.558 698.191L613.903 700.016L611.524 702.358L610.402 703.417L609.231 704.434L608.012 705.407L606.751 706.333L603.289 708.767L601.51 709.911L599.631 710.908L597.681 711.746L595.67 712.418L595.198 712.554L592.087 713.224L588.975 713.446L585.95 713.213L583.088 712.533L581.098 711.738L579.275 710.714L577.65 709.476L576.251 708.042L572.687 703.805L572.539 703.63L569.175 699.724L567.652 698.095L565.994 696.577L564.204 695.177L562.29 693.902L560.951 693.08L559.254 692.135L557.457 691.323L555.57 690.648L553.605 690.114L551.854 689.71L549.532 689.317L547.131 689.184L544.678 689.314L542.212 689.706L539.243 690.529L536.374 691.714L533.671 693.236L531.193 695.059L528.282 697.49L527.686 697.998L527.105 698.515L526.532 699.044L525.973 699.582L524.992 700.546L521.852 703.447L518.514 706.174L515 708.712L511.324 711.049L509.991 711.843L509.353 712.231L508.727 712.63L508.108 713.043L507.5 713.467L503.265 716.485L501.39 718.028L499.788 719.785L498.505 721.707L497.576 723.74L497.164 724.881L496.656 727.014L496.669 729.12L497.196 731.104L498.218 732.873L498.931 733.802L500.26 735.088L501.965 735.996L503.941 736.471L506.067 736.486L508.698 735.873L511.124 734.623L513.128 732.849L514.529 730.709L516.152 727.23L516.273 726.978L516.441 726.644L519.023 721.782L520.338 719.652L521.938 717.653L523.803 715.819L525.891 714.185L528.343 712.686L530.963 711.482L533.693 710.599L536.479 710.054L537.286 709.947L539.526 709.749L541.742 709.751L543.907 709.954L546.005 710.356L548.186 710.886L550.153 711.432L552.054 712.097L553.883 712.878L555.627 713.771L558 715.092L559.523 715.979L561.001 716.918L562.433 717.907L563.814 718.946L567.95 722.185L568.451 722.569L568.963 722.943L569.484 723.307L570.015 723.661L573.661 726.036L575.584 727.1L577.689 727.912L579.942 728.458L582.303 728.73L585.009 728.703L587.744 728.332L590.455 727.624L593.083 726.595L594.622 725.885L596.418 724.986L598.15 723.974L599.806 722.858L601.375 721.642L605.119 718.541L606.199 717.68L607.317 716.857L608.467 716.073L609.65 715.331L612.04 713.89L614.564 712.556L617.217 711.511L619.952 710.774L622.716 710.359L625.277 710.27L627.78 710.469L630.179 710.955L632.441 711.717L633.455 712.136L635.367 713.04L637.145 714.114L638.773 715.348L640.232 716.732L641.179 717.737L642.544 719.318L643.751 721.004L644.801 722.784L645.682 724.65L646.229 725.957L646.935 727.815L647.519 729.719L647.985 731.664L648.322 733.646L648.561 735.365L648.793 737.336L648.939 739.326L649.001 741.33L648.977 743.348L648.916 745.311L648.825 747.293L648.679 749.281L648.477 751.273L648.224 753.267L647.954 755.173L647.641 757.257L647.288 759.342L646.893 761.428L646.461 763.513L646.102 765.158L645.618 767.285L645.093 769.41L644.526 771.532L643.919 773.651L643.439 775.268L642.793 777.348L642.091 779.422L641.334 781.49L640.526 783.547L639.938 784.991L639.021 787.138L638.024 789.268L636.952 791.378L635.806 793.467L635.162 794.598L633.916 796.682L632.577 798.731L631.144 800.741L629.626 802.709L628.8 803.737L627.205 805.628L625.507 807.457L623.715 809.217L621.829 810.904L620.768 811.81L618.796 813.401L616.725 814.886L614.562 816.258L612.323 817.51L611.124 818.136L608.803 819.248L606.413 820.193L603.973 820.964L601.497 821.555L600.305 821.796L597.821 822.181L595.347 822.335L592.909 822.258L590.539 821.949L589.631 821.783L587.33 821.215L585.178 820.377L583.215 819.283L581.472 817.952L581.248 817.756L579.656 816.074L578.404 814.162L577.517 812.063L577.015 809.821L576.911 807.523L577.188 805.184L577.848 802.848L578.873 800.567L580.225 798.045L580.909 796.843L581.653 795.665L582.461 794.512L583.329 793.386L585.419 790.798L586.966 788.791L588.401 786.734L589.727 784.63L590.935 782.486L591.117 782.143L592.334 779.681L593.382 777.183L594.262 774.656L594.965 772.111L595.126 771.453L595.564 769.337L595.863 767.221L596.019 765.113L596.032 763.022L595.997 761.804L595.832 759.613L595.461 757.47L594.887 755.388L594.114 753.382L592.928 751.083L591.472 748.933L589.758 746.953L587.732 745.099L585.934 743.746L584.083 742.588L582.114 741.571L580.039 740.7L575.381 738.956L574.917 738.779L574.453 738.599L573.992 738.416L573.533 738.229L571.64 737.448L568.299 735.945L565.102 734.249L562.065 732.366L559.19 730.305L557.847 729.269L557.359 728.902L556.854 728.548L556.342 728.206L555.813 727.878L552.583 725.925L550.32 724.833L547.81 724.135L545.128 723.853L542.353 723.995L539.66 724.532L537.031 725.449L534.548 726.718L532.275 728.304L530.161 730.012L529.025 731.003L527.98 732.067L527.036 733.194L526.199 734.377L523.888 737.954L523.109 739.52L522.749 741.144L522.824 742.737L523.334 744.208L524.875 746.038L527.155 747.157L529.876 747.419L532.684 746.791L534.878 745.942L537.926 744.706L541.756 743.441L545.672 742.71L549.572 742.531L553.35 742.91L554.542 743.154L555.707 743.455L556.842 743.814L557.944 744.229L564.282 746.817L564.876 747.054L565.475 747.284L566.077 747.507L566.687 747.721L571.858 749.504L573.596 750.201L575.221 751.054L576.721 752.055L578.078 753.195L579.89 755.231L581.283 757.536L582.231 760.056L582.708 762.735L582.775 763.507L582.841 765.034L582.778 766.579L582.587 768.134L582.268 769.691L581.228 773.896L580.833 775.236L580.313 776.56L579.672 777.859L578.918 779.123L577.08 781.936L575.811 783.534L574.233 784.922L572.416 786.04L570.431 786.844L568.07 787.332L565.729 787.338L563.541 786.86L561.62 785.925L559.393 784.458L558.4 783.734L557.498 782.926L556.696 782.039L555.998 781.08L553.477 777.209L552.729 776.116L551.93 775.056L551.08 774.029L550.184 773.037L548.173 770.913L546.705 769.526L545.066 768.292L543.271 767.223L541.339 766.329L540.47 765.979L538.165 765.222L535.721 764.746L533.177 764.56L530.574 764.667L527.783 765.102L525.024 765.858L522.349 766.923L519.77 768.297L517.515 769.823L515.483 771.533L513.673 773.422L512.111 775.459L511.623 776.178L510.379 778.211L509.359 780.312L508.573 782.461L508.031 784.633L507.688 786.421L507.391 788.313L507.23 790.197L507.202 792.068L507.313 793.918L507.697 797.898L507.811 798.948L507.945 799.993L508.099 801.033L508.276 802.067L508.95 805.789L509.284 807.695L509.59 809.608L509.869 811.527L510.126 813.453L510.234 814.332L510.524 816.828L510.766 819.335L510.958 821.852L511.102 824.378L511.143 825.224L511.221 827.209L511.262 829.201L511.268 831.198L511.24 833.199L511.183 835.521L511.116 837.346L511.001 839.176L510.839 841.011L510.625 842.848L510.317 845.27L510.018 847.245L509.632 849.219L509.161 851.191L508.599 853.158L508.009 855.073L507.306 857.123L506.469 859.151L505.496 861.15L504.397 863.112L503.655 864.35L502.297 866.421L500.761 868.41L499.053 870.302L497.19 872.084L496.522 872.678L494.44 874.376L492.197 875.905L489.825 877.245L487.346 878.384L487.027 878.515L484.298 879.486L481.511 880.187L478.698 880.611L475.902 880.75L473.161 880.604L470.51 880.174L467.982 879.468L465.615 878.492L465.381 878.379L463.284 877.21L461.376 875.83L459.679 874.256L458.215 872.503L457.824 871.971L456.634 870.148L455.65 868.213L454.886 866.18L454.342 864.065L454.154 863.131L453.821 860.997L453.669 858.823L453.701 856.619L453.912 854.397L454.116 852.896L454.448 850.868L454.891 848.84L455.446 846.817L456.106 844.806L456.815 842.822L457.555 840.857L458.36 838.906L459.236 836.967L460.178 835.045L460.944 833.539L462.079 831.381L463.273 829.24L464.525 827.12L465.837 825.02L466.484 824.009L467.834 821.95L469.227 819.91L470.664 817.889L472.147 815.888L474.066 813.344L474.999 812.119L475.941 810.899L476.892 809.684L477.852 808.474L480.83 804.753L481.901 803.398L482.956 802.034L483.993 800.66L485.012 799.278L486.605 797.089L488.068 795.024L489.468 792.932L490.804 790.815L492.077 788.674L492.541 787.87L493.768 785.663L494.908 783.433L495.968 781.181L496.942 778.911L497.388 777.825L498.203 775.711L498.923 773.584L499.552 771.445L500.085 769.301L500.534 767.308L500.899 765.433L501.151 763.561L501.29 761.694L501.316 759.841L501.295 758.685L501.122 756.221L500.694 753.816L500.019 751.489L499.095 749.257L498.611 748.246L497.775 746.717L496.786 745.276L495.645 743.935L494.359 742.703L493.136 741.638L491.319 740.306L489.263 739.247L487.007 738.483L484.596 738.028L481.909 737.896L479.165 738.13L476.424 738.726L473.743 739.673L471.332 740.863L469.097 742.311L467.068 743.993L465.29 745.875L464.301 747.062L463.068 748.667L461.983 750.34L461.054 752.067L460.292 753.836L458.121 759.546L458.019 759.819L457.916 760.092L457.817 760.365L457.717 760.639L456.111 765.15L455.185 767.58L454.141 769.988L452.985 772.371L451.717 774.723L450.306 777.099L448.781 779.433L447.147 781.721L445.409 783.958L444.476 785.108L443.162 786.694L441.806 788.255L440.409 789.792L438.973 791.302L435.646 794.725L434.754 795.636L433.856 796.542L432.952 797.443L432.041 798.339L427.381 802.895L426.494 803.76L425.601 804.623L424.707 805.482L423.808 806.339L420.737 809.255L418.966 810.917L417.167 812.559L415.343 814.18L413.497 815.78L412.836 816.345L410.58 818.239L408.289 820.096L405.957 821.916L403.589 823.697L403.274 823.931L401.083 825.521L398.86 827.077L396.608 828.595L394.329 830.077L393.139 830.836L391.038 832.146L388.914 833.414L386.76 834.641L384.582 835.826L382.963 836.686L380.723 837.836L378.453 838.925L376.154 839.951L373.829 840.913L372.099 841.602L369.81 842.464L367.493 843.241L365.155 843.928L362.801 844.527L361.405 844.854L358.797 845.393L356.181 845.79L353.569 846.043L350.97 846.151L350.617 846.156L347.818 846.105L345.063 845.87L342.368 845.455L339.642 844.834L337.149 844.082L334.856 843.2L332.668 842.163L330.598 840.978L330.053 840.637L328.182 839.347L326.458 837.913L324.893 836.344L323.495 834.65L323.058 834.066L321.856 832.256L320.868 830.329L320.103 828.301L319.566 826.189L319.489 825.791L319.186 823.482L319.172 821.118L319.444 818.726L320.001 816.331L320.852 813.921L321.981 811.563L323.375 809.286L325.018 807.115L325.331 806.74L327.027 804.865L328.886 803.106L330.893 801.476L333.032 799.991L334.531 799.03L336.511 797.828L338.551 796.721L340.643 795.714L342.78 794.81L346.414 793.376L347.935 792.792L349.465 792.236L351.004 791.71L352.551 791.214L359.06 789.19L359.889 788.93L360.716 788.666L361.542 788.397L362.367 788.124L367.915 786.269L369.9 785.571L371.866 784.811L373.812 783.991L375.73 783.112L378.012 782.023L380.241 780.885L382.398 779.63L384.479 778.263L386.473 776.79L387.494 775.991L389.496 774.301L391.347 772.485L393.031 770.556L394.536 768.531L394.795 768.148L396.189 765.88L397.326 763.535L398.199 761.137L398.798 758.712L399.118 756.254L399.145 753.82L398.879 751.439L398.323 749.136L398.18 748.676L397.445 746.683L396.508 744.78L395.372 742.982L394.046 741.303L392.947 740.046L391.679 738.69L390.319 737.407L388.871 736.202L387.34 735.076L384.526 733.14L383.355 732.353L382.16 731.591L380.944 730.853L379.707 730.141L376.554 728.375L374.907 727.467L373.247 726.577L371.568 725.707L369.873 724.858L367.912 723.888L365.95 722.945L363.959 722.04L361.942 721.173L359.839 720.32L356.992 719.243L354.158 718.264L351.283 717.358L348.369 716.527L346.11 715.94L343.83 715.398L341.529 714.9L339.21 714.447L336.992 714.037L335.051 713.696L333.097 713.389L331.131 713.115L329.153 712.875L326.999 712.634L324.544 712.396L322.067 712.234L319.571 712.146L317.061 712.132L313.91 712.221L310.745 712.425L307.571 712.746L304.393 713.182L300.161 713.839L299.72 713.908L299.28 713.978L298.839 714.05L298.398 714.123L294.49 714.778L291.147 715.308L287.804 715.781L284.462 716.195L281.122 716.552L278.729 716.772L276.339 716.961L273.952 717.121L271.567 717.251L267.247 717.458L266.081 717.512L264.915 717.563L263.75 717.609L262.585 717.652L256.723 717.858L255.117 717.921L253.511 717.996L251.903 718.083L250.293 718.181L247.29 718.377L244.681 718.573L242.068 718.818L239.452 719.113L236.836 719.458L233.715 719.935L230.596 720.482L227.482 721.099L224.375 721.785L223.96 721.881L221.567 722.457L219.18 723.071L216.799 723.723L214.426 724.413L211.064 725.419L209.468 725.902L207.874 726.395L206.284 726.897L204.695 727.41L198.019 729.587L197.329 729.812L196.64 730.038L195.95 730.266L195.261 730.494L188.75 732.653L187.088 733.209L185.428 733.773L183.771 734.346L182.116 734.927L180.126 735.632L177.205 736.685L174.295 737.774L171.397 738.898L168.511 740.056L165.911 741.134L163.322 742.24L160.744 743.373L158.178 744.535L154.015 746.446L153.266 746.787L152.516 747.125L151.764 747.458L151.01 747.788L145.419 750.215L143.522 751.003L141.603 751.728L139.664 752.391L137.709 752.988L134.974 753.776L132.657 754.368L130.324 754.813L127.987 755.109L125.658 755.255L124.165 755.3L121.635 755.26L119.167 754.984L116.787 754.476L114.522 753.741L114.152 753.598L111.853 752.541L109.767 751.222L107.923 749.659L106.345 747.871L105.09 745.94L104.137 743.857L103.496 741.648L103.171 739.247L103.176 736.823L103.515 734.467L104.178 732.12L105.154 729.816L106.494 727.49L108.139 725.286L110.061 723.243L112.274 721.358L114.525 719.8L116.881 718.486L119.354 717.401L121.909 716.561L123.662 716.076L125.701 715.575L127.752 715.195L129.805 714.936L131.851 714.802L137.31 714.609L138.202 714.582L139.092 714.566L139.98 714.56L140.867 714.565L145.499 714.614L147.956 714.623L150.42 714.6L152.888 714.545L155.361 714.457L157.011 714.388L159.413 714.266L161.819 714.104L164.23 713.9L166.642 713.656L168.863 713.412L171.071 713.145L173.28 712.826L175.489 712.457L177.694 712.037L180.122 711.546L182.411 711.041L184.689 710.454L186.952 709.786L189.196 709.038L190.882 708.443L193.32 707.512L195.711 706.457L198.046 705.282L200.316 703.991L201.08 703.53L203.401 702.029L205.612 700.391L207.698 698.628L209.723 696.671L211.682 694.507L213.383 692.315L214.89 690.034L216.19 687.68L217.262 685.305L218.118 682.893L218.752 680.457L219.16 678.015L219.201 677.682L219.384 675.365L219.372 673.073L219.166 670.815L218.765 668.604L218.539 667.606L218.023 665.643L217.381 663.726L216.613 661.859L215.722 660.05L214.381 657.542L213.727 656.356L213.042 655.189L212.326 654.041L211.579 652.909L209.177 649.371L208.439 648.254L207.731 647.119L207.054 645.966L206.406 644.799L205.247 642.641L204.257 640.642L203.404 638.58L202.688 636.463L202.113 634.295L201.635 631.793L201.339 629.241L201.228 626.654L201.302 624.04L201.361 623.109L201.52 621.231L201.76 619.348L202.079 617.463L202.477 615.577L203.863 609.605L203.919 609.364L203.993 609.042L205.333 603.128L205.743 601.174L206.086 599.222L206.363 597.271L206.573 595.321L206.739 593.497L206.876 591.362L206.897 589.24L206.804 587.136L206.595 585.056L206.435 583.818L206.084 581.714L205.578 579.657L204.919 577.65L204.111 575.707L203.711 574.839L202.713 572.926L201.535 571.113L200.181 569.409L198.661 567.827L198.104 567.299L196.399 565.849L194.522 564.564L192.489 563.46L190.316 562.542L189.793 562.351L187.421 561.621L184.932 561.131L182.355 560.887L179.616 560.895L176.755 561.165L173.999 561.704L171.28 562.507L168.633 563.562L166.08 564.866L163.667 566.394L161.425 568.129L159.384 570.046L158.985 570.459L157.308 572.347L155.818 574.337L154.529 576.413L153.452 578.557L152.897 579.803L152.058 581.875L151.379 583.971L150.862 586.078L150.511 588.191L150.241 590.309L150.049 592.15L149.943 593.985L149.921 595.809L149.986 597.621L150.279 602.558L150.32 603.209L150.366 603.859L150.416 604.508L150.471 605.156L150.937 610.4L151.062 612.033L151.15 613.675L151.199 615.323L151.21 616.977L151.197 619.484L151.139 621.553L150.986 623.631L150.737 625.717L150.394 627.806L150.149 629.117L149.651 631.398L149.009 633.67L148.227 635.928L147.307 638.165L146.888 639.106L145.833 641.28L144.623 643.411L143.263 645.486L141.76 647.499L141.042 648.401L139.397 650.322L137.597 652.14L135.655 653.847L133.584 655.425L132.547 656.162L130.389 657.566L128.115 658.791L125.747 659.827L123.31 660.663L122.21 660.991L119.665 661.609L117.103 661.954L114.563 662.016L112.085 661.799L111.498 661.711L109.025 661.171L106.727 660.306L104.651 659.134L102.842 657.68L101.283 655.901L100.089 653.888L99.2866 651.691L98.8898 649.29L98.8903 646.992L99.244 644.736L99.9393 642.493L100.963 640.303L101.991 638.436L102.89 636.921L103.896 635.448L105.005 634.02L106.211 632.65L109.46 629.17L110.458 628.074L111.426 626.959L112.363 625.825L113.269 624.675L115.192 622.171L116.669 620.101L117.976 617.963L119.107 615.769L120.054 613.53L120.305 612.867L121.057 610.565L121.58 608.249L121.871 605.933L121.927 603.634L121.906 602.862L121.721 600.712L121.288 598.628L120.609 596.623L119.693 594.721L119.408 594.214L118.161 592.327L116.638 590.624L114.861 589.128L112.855 587.864L110.586 586.821L108.141 586.056L105.557 585.578L102.874 585.398L101.161 585.378L99.307 585.409L97.4395 585.545L95.5668 585.787L93.6961 586.131L89.0226 587.121L87.5217 587.42L86.0184 587.68L84.5141 587.9L83.0101 588.079L79.7822 588.426L77.2475 588.608L74.7381 588.602L72.2718 588.413L69.8653 588.039L68.9765 587.864L66.641 587.289L64.42 586.501L62.3351 585.51L60.4068 584.325L59.6882 583.826L58.0029 582.488L56.5372 580.959L55.3105 579.263L54.339 577.422L54.0597 576.787L53.365 574.766L53.0093 572.635L52.9989 570.433L53.3344 568.202L54.0892 565.78L55.2327 563.423L56.7399 561.188L58.5771 559.122L59.0199 558.686L60.7182 557.158L62.5686 555.777L64.5489 554.559L66.6357 553.519L72.6533 550.847L72.9869 550.697L73.4305 550.494L79.0683 547.884L81.2995 546.732L83.416 545.397L85.3936 543.893L87.2104 542.236L89.1936 540.019L90.8694 537.64L92.2094 535.136L93.1901 532.55L93.8593 530.357L94.1837 529.202L94.4561 528.046L94.676 526.89L94.8424 525.733L95.1446 523.24L95.58 520.705L96.2692 518.178L97.2073 515.678L98.3864 513.227L99.7056 510.987L101.22 508.823L102.919 506.75L104.79 504.783L105.374 504.213L107.253 502.501L109.266 500.915L111.398 499.461L113.634 498.152L116.466 496.772L119.399 495.63L122.402 494.74L125.562 494.094L128.084 493.766L130.478 493.62L132.848 493.637L135.179 493.816L141.007 494.475L141.407 494.519L141.941 494.576L147.394 495.111L149.976 495.287L152.593 495.316L155.234 495.198L157.888 494.927L160.879 494.451L163.856 493.788L166.805 492.943L169.812 491.887L172.37 490.834L174.777 489.702L177.125 488.455L179.405 487.096L180.409 486.466L182.593 485.032L184.713 483.516L186.762 481.923L188.735 480.254L191.45 477.866L192.503 476.926L193.543 475.976L194.568 475.012L195.578 474.036L198.111 471.558L199.991 469.766L201.927 468.023L203.916 466.324L205.958 464.677L208.508 462.739L211.127 460.877L213.813 459.1L216.559 457.405L217.337 456.94L219.256 455.822L221.197 454.742L223.159 453.698L225.141 452.692L227.848 451.349L229.815 450.386L231.794 449.446L233.783 448.529L235.781 447.634L239.897 445.821L241.258 445.214L242.614 444.592L243.964 443.961L245.308 443.314L246.883 442.551L250.05 440.96L253.172 439.286L256.244 437.53L259.265 435.692L259.75 435.389L261.503 434.267L263.234 433.112L264.941 431.93L266.623 430.717L267.725 429.91L270.187 428.038L272.574 426.088L274.884 424.07L277.113 421.982L279.024 420.069L280.865 418.106L282.635 416.099L284.329 414.046L284.762 413.503L286.377 411.423L287.923 409.307L289.398 407.161L290.801 404.984L292.918 401.588L293.409 400.79L293.889 399.988L294.357 399.179L294.814 398.37L295.793 396.606L297.585 393.599L299.582 390.67L301.773 387.831L304.151 385.097L305.19 383.968L306.05 383.004L306.873 382.019L307.658 381.013L308.405 379.988L309.987 377.735L311.421 375.434L312.556 373.039L313.374 370.589L313.865 368.117L314.333 365.73L315.106 363.364L316.174 361.05L317.523 358.816L319.761 355.524L320.269 354.792L320.794 354.069L321.337 353.352L321.895 352.644L325.153 348.598L326.413 346.907L327.521 345.155L328.472 343.349L329.257 341.502L329.393 341.143L330.235 338.345L330.659 335.532L330.661 332.756L330.241 330.062L329.662 328.159L328.864 326.346L327.853 324.638L326.639 323.054L325.242 321.437L324.053 320.152L322.772 318.938L321.404 317.802L319.954 316.745L316.467 314.371L315.536 313.748L314.592 313.142L313.634 312.55L312.664 311.973L307.536 308.987L306.667 308.484L305.795 307.984L304.921 307.487L304.043 306.993L297.195 303.162L296.95 303.024L296.623 302.841L289.455 298.85L288.69 298.421L287.926 297.991L287.164 297.559L286.403 297.126L282.074 294.65L280.573 293.776L279.088 292.883L277.619 291.975L276.168 291.046L274.675 290.075L272.651 288.72L270.674 287.315L268.745 285.86L266.867 284.358L265.328 283.09L264.134 282.076L262.977 281.032L261.856 279.953L260.775 278.846L258.573 276.518L257.424 275.218L256.373 273.851L255.423 272.417L254.579 270.928L253.582 269.015L252.775 267.196L252.199 265.286L251.859 263.299L251.758 261.262L251.763 260.767L251.99 258.202L252.616 255.633L253.63 253.105L255.012 250.67L256.504 248.65L258.238 246.763L260.186 245.037L262.322 243.501L263.465 242.762L265.545 241.522L267.712 240.431L269.952 239.5L272.245 238.734L274.095 238.186L276.441 237.564L278.803 237.065L281.174 236.697L283.541 236.462L286.077 236.278L288.127 236.162L290.169 236.113L292.199 236.126L294.216 236.206L299.357 236.496L300.365 236.556L301.372 236.622L302.377 236.698L303.38 236.779L309.21 237.275L310.852 237.405L312.5 237.513L314.154 237.595L315.813 237.655L319.782 237.712L323.776 237.64L327.788 237.441L331.811 237.115L335.165 236.79L342.387 236.068L344.449 235.97L346.47 236.085L348.422 236.416L350.277 236.956L350.987 237.209L353.274 238.279L355.232 239.73L356.795 241.518L357.914 243.579L358.485 245.498L358.695 247.518L358.538 249.594L358.015 251.678L357.365 253.598L356.71 255.283L355.894 256.934L354.929 258.538L353.819 260.084L349.787 265.251L349.542 265.568L349.297 265.884L349.058 266.202L348.82 266.52L345.832 270.549L344.304 272.739L342.923 274.986L341.694 277.283L340.624 279.622L339.666 282.141L338.892 284.682L338.31 287.24L337.922 289.795L337.867 290.256L337.685 292.443L337.633 294.613L337.714 296.766L337.923 298.894L338.056 299.896L338.406 302.09L338.869 304.25L339.445 306.376L340.138 308.46L341.358 311.829L341.646 312.592L341.948 313.347L342.267 314.094L342.6 314.835L344.401 318.705L345.089 320.426L345.597 322.216L345.914 324.061L346.043 325.953L345.886 328.784L345.316 331.631L344.344 334.452L342.987 337.197L342.254 338.479L341.517 339.702L340.722 340.899L339.866 342.071L338.956 343.217L334.884 348.117L334.256 348.911L333.677 349.725L333.146 350.562L332.664 351.416L330.707 355.114L329.952 357.042L329.708 359.002L329.981 360.886L330.762 362.591L332.082 364.091L333.837 365.201L335.918 365.856L338.205 366.014L341.665 365.875L342.671 365.806L343.681 365.683L344.692 365.503L345.696 365.27L353.384 363.278L354.222 363.05L355.053 362.807L355.882 362.544L356.707 362.262L361.725 360.491L363.854 359.593L365.861 358.452L367.703 357.087L369.397 355.471L371.276 353.048L372.57 350.488L373.281 347.832L373.384 345.19L373.07 343.341L372.437 341.596L371.499 339.996L370.279 338.575L367.657 336.02L366.927 335.272L366.238 334.488L365.59 333.675L364.989 332.833L363.04 329.945L361.929 328.234L360.888 326.483L359.917 324.695L359.013 322.873L357.143 318.905L356.889 318.377L356.626 317.853L356.358 317.331L356.082 316.813L353.977 312.937L353.119 311.146L352.444 309.272L351.956 307.331L351.664 305.336L351.578 302.519L351.858 299.661L352.508 296.797L353.514 293.964L353.887 293.082L354.623 291.465L355.456 289.873L356.386 288.311L357.408 286.785L359.562 283.742L360.617 282.2L361.615 280.637L362.561 279.054L363.451 277.446L365.026 274.243L366.367 270.99L367.471 267.7L368.332 264.387L368.674 262.694L368.956 260.999L369.167 259.308L369.318 257.62L369.615 253.313L369.715 252.139L369.856 250.964L370.041 249.788L370.263 248.612L370.642 246.79L371.397 243.923L372.461 241.09L373.825 238.322L375.473 235.641L376.841 233.763L378.343 231.958L379.975 230.232L381.724 228.594L383.856 226.714L385.294 225.393L386.669 224.021L387.973 222.603L389.239 221.101L391.4 218.178L393.24 215.179L394.775 212.081L395.989 208.916L396.515 207.157L396.942 205.39L397.267 203.621L397.487 201.854L398.11 195.343L398.773 188.579L398.971 186.938L399.248 185.294L399.601 183.652L400.03 182.012L400.794 179.328L401.463 177.322L402.316 175.344L403.347 173.41L404.549 171.536L405.283 170.48L406.917 168.394L408.802 166.459L410.906 164.704L413.203 163.158L415.854 161.746L418.642 160.63L421.513 159.826L424.421 159.349L425.917 159.188L427.896 159.039L429.856 159.016L431.792 159.119L433.694 159.345L438.661 160.109L439.713 160.28L440.758 160.468L441.798 160.671L442.832 160.894L448.116 162.073L449.74 162.428L451.372 162.769L453.012 163.096L454.656 163.407L456.562 163.757L459.349 164.239L462.154 164.666L464.981 165.037L467.823 165.35L470.505 165.591L473.2 165.784L475.906 165.927L478.627 166.017L483.112 166.128L483.781 166.147L484.445 166.172L485.109 166.205L485.774 166.24L491.417 166.579L493.492 166.773L495.516 167.105L497.488 167.569L499.389 168.165L500.533 168.572L502.888 169.571L505.045 170.827L506.977 172.323L508.657 174.037L510.017 175.882L511.106 177.883L511.905 180.021L512.421 182.368L512.64 184.783L512.548 187.139L512.169 189.513L511.468 191.975L510.485 194.421L509.271 196.71L507.811 198.913L506.116 201.005L505.178 202.059L503.705 203.623L502.13 205.113L500.464 206.527L498.711 207.854L494.196 211.081L493.489 211.581L492.778 212.077L492.061 212.565L491.337 213.046L485.952 216.599L484.462 217.613L483.008 218.669L481.589 219.763L480.211 220.896L477.87 222.879L476.051 224.528L474.369 226.282L472.832 228.127L471.396 230.136L469.849 232.734L468.643 235.33L467.736 237.981L467.14 240.654L466.885 242.843L466.845 245.011L467.02 247.145L467.409 249.228L467.825 250.957L468.29 252.663L468.861 254.333L469.531 255.962L470.304 257.543L471.89 260.545L472.53 261.724L473.199 262.887L473.895 264.034L474.622 265.165L477.573 269.646L478.011 270.319L478.443 270.998L478.871 271.68L479.286 272.365L481.624 276.241L482.489 277.764L483.275 279.325L483.983 280.927L484.612 282.56L484.722 282.872L485.56 285.608L486.168 288.422L486.533 291.299L486.663 294.224L486.617 296.179L486.465 298.142L486.207 300.114L485.85 302.087L485.131 305.528L484.887 306.859L484.706 308.189L484.592 309.515L484.545 310.836L484.514 313.676L484.636 315.806L485.047 317.865L485.741 319.829L486.711 321.67L487.091 322.28L488.377 323.997L489.955 325.5L491.797 326.755L493.865 327.744L494.648 328.047L496.756 328.684L499.008 329.007L501.346 329.007L503.839 328.662L506.642 327.877L509.197 326.709L511.533 325.177L513.572 323.336L515.014 321.581L516.154 319.694L516.972 317.718L517.442 315.703L518.257 310.089L518.291 309.868L519.235 304.935L520.518 300.15L522.156 295.401L524.141 290.709L524.309 290.346L526.457 285.686L527.569 283.123L528.552 280.537L529.401 277.93L530.119 275.313L530.652 272.938L531.075 270.56L531.387 268.185L531.586 265.817L531.757 262.941L531.821 261.749L531.865 260.56L531.894 259.373L531.903 258.19L531.903 253.543L531.912 252.073L531.937 250.6L531.981 249.125L532.038 247.648L532.213 243.872L532.31 242.234L532.452 240.592L532.639 238.949L532.869 237.304L533.387 233.941L533.695 232.243L534.095 230.546L534.587 228.856L535.17 227.175L536.253 224.291L537.014 222.519L537.955 220.788L539.063 219.115L540.329 217.518L541.754 215.868L543.388 214.211L545.255 212.757L547.308 211.534L549.501 210.575L549.793 210.469L552.451 209.725L555.145 209.414L557.776 209.543L560.252 210.112L562.253 210.965L564.006 212.126L565.47 213.557L566.597 215.224L567.211 216.365L567.959 218.034L568.468 219.801L568.73 221.64L568.736 223.529L568.598 225.794L568.408 227.643L568.07 229.497L567.589 231.345L566.961 233.18L565.936 235.857L565.226 237.612L564.441 239.351L563.581 241.073L562.647 242.773L559.905 247.569L559.52 248.234L559.132 248.897L558.739 249.561L558.342 250.22L557.268 251.996L555.373 255.171L553.523 258.361L551.717 261.565L549.957 264.784L549.081 266.409L548.667 267.177L548.252 267.941L547.835 268.707L547.415 269.471L543.753 276.113L543.363 276.817L542.973 277.52L542.58 278.224L542.186 278.925L538.635 285.243L538.125 286.16L537.631 287.082L537.148 288.004L536.677 288.933L534.617 293.061L533.749 294.922L532.99 296.806L532.341 298.706L531.807 300.617L531.564 301.59L531.052 304.121L530.782 306.647L530.758 309.149L530.975 311.61L531.401 313.885L532.042 316.093L532.893 318.22L533.949 320.253L535.027 322.097L535.763 323.261L536.584 324.376L537.489 325.433L538.47 326.433L541.819 329.607L542.732 330.341L543.776 330.934L544.929 331.377L546.171 331.659L548.127 331.967L550.369 331.972L552.61 331.328L554.601 330.106L556.132 328.435L556.85 327.051L557.196 325.607L557.151 324.188L556.715 322.873L554.394 318.297L554.142 317.822L553.87 317.357L553.576 316.905L553.262 316.464L550.798 313.138L549.584 311.304L548.57 309.36L547.773 307.314L547.19 305.19L546.8 302.715L546.697 300.179L546.878 297.605L547.345 295.019L547.496 294.379L548.045 292.365L548.747 290.365L549.596 288.388L550.586 286.449L550.948 285.796L552.417 283.344L554.079 280.967L555.92 278.679L557.933 276.493L558.527 275.886L560.15 274.304L561.845 272.782L563.612 271.325L565.447 269.937L567.841 268.201L569.508 266.967L571.14 265.697L572.739 264.392L574.304 263.056L575.722 261.817L577.811 259.951L579.856 258.043L581.849 256.099L583.794 254.119L585.696 252.14L586.798 250.983L587.89 249.816L588.97 248.643L590.037 247.46L593.534 243.563L594.537 242.441L595.536 241.315L596.532 240.187L597.522 239.057L600.362 235.81L601.703 234.27L603.038 232.726L604.366 231.176L605.688 229.622L607.267 227.759L608.83 225.902L610.377 224.04L611.915 222.168L613.434 220.289L613.904 219.707L615.694 217.464L617.462 215.211L619.206 212.947L620.932 210.673L622.583 208.45L624.216 206.217L625.828 203.975L627.418 201.723L630.669 197.079L634.67 191.357L635.888 189.646L637.146 187.953L638.438 186.278L639.763 184.621L642.039 181.918L644.407 179.271L646.864 176.68L649.436 174.129L651.011 172.634L652.587 171.191L654.191 169.77L655.824 168.375L659.276 165.471L660.362 164.547L661.441 163.612L662.508 162.669L663.563 161.716L665.993 159.501L667.972 157.637L669.885 155.721L671.726 153.757L673.494 151.746L675.381 149.446L677.17 147.093L678.859 144.696L680.446 142.255L681.415 140.697L682.295 139.258L683.148 137.809L683.971 136.352L684.767 134.887L687.05 130.589L687.706 129.402L688.404 128.23L689.144 127.074L689.926 125.934L692.209 122.717L693.544 121.008L695.049 119.4L696.711 117.909L698.511 116.551L698.877 116.297L701.497 114.71L704.295 113.441L707.209 112.521L710.177 111.967L712.548 111.796L714.877 111.869L717.14 112.184L719.3 112.74L722.283 113.694L723.649 114.169L724.981 114.698L726.272 115.285L727.522 115.931L732.895 118.867L733.475 119.184L734.047 119.507L734.619 119.833L735.189 120.162L742.266 124.306L742.56 124.479L742.858 124.653L743.152 124.828L743.447 125.001L749.196 128.395L750.413 129.117L751.626 129.846L752.83 130.583L754.032 131.323L757.607 133.537L758.927 134.371L760.231 135.22L761.522 136.088L762.797 136.97L765.773 139.064L767.108 140.034L768.402 141.043L769.655 142.092L770.868 143.175L773.285 145.409L774.445 146.558L775.514 147.777L776.49 149.06L777.369 150.405L778.759 152.702L779.567 154.281L780.15 155.959L780.503 157.712L780.619 159.524L780.618 160.029L780.36 162.598L779.608 165.162L778.381 167.645L776.719 169.975L775.06 171.724L773.176 173.287L771.096 174.635L768.868 175.741L766.278 176.847L764.517 177.541L762.724 178.134L760.907 178.622L759.076 179.003L754.853 179.752L753.084 180.043L751.315 180.286L749.547 180.48L747.784 180.628L744.308 180.87L742.095 181.004L739.882 181.103L737.677 181.16L735.478 181.181L733.673 181.182L731.112 181.164L728.557 181.11L726.012 181.017L723.474 180.889L719.159 180.638L718.251 180.589L717.344 180.551L716.432 180.524L715.518 180.504L711.385 180.443L708.738 180.477L706.071 180.653L703.395 180.976L700.717 181.441L697.739 182.129L694.788 182.992L691.88 184.021L689.029 185.215L688.403 185.499L686.196 186.551L684.035 187.688L681.924 188.912L679.867 190.215L677.891 191.522L676.021 192.795L674.189 194.113L672.393 195.47L670.638 196.872L668.073 198.975L666.585 200.213L665.112 201.468L663.661 202.738L662.227 204.027L659.043 206.925L657.77 208.089L656.503 209.26L655.243 210.439L653.995 211.621L651.518 213.975L649.805 215.596L648.082 217.211L646.348 218.818L644.606 220.417L642.059 222.729L639.493 225.024L636.904 227.301L634.3 229.562L631.501 231.977L631.102 232.32L630.702 232.666L630.302 233.011L629.905 233.357L622.49 239.798L622.199 240.049L621.908 240.303L621.614 240.557L621.323 240.809L614.794 246.446L613.943 247.186L613.098 247.928L612.257 248.673L611.419 249.425L608.29 252.244L606.353 253.952L604.373 255.619L602.355 257.249L600.295 258.838L597.669 260.766L594.984 262.626L592.247 264.414L589.458 266.135L586.923 267.652L585.934 268.235L584.938 268.806L583.932 269.362L582.916 269.905L578.719 272.117L576.638 273.287L574.635 274.57L572.713 275.96L570.887 277.449L570.25 277.997L568.099 280.024L566.155 282.196L564.44 284.496L562.97 286.899L562.416 287.91L561.533 289.702L560.834 291.529L560.321 293.38L560.001 295.238L559.691 297.808L559.629 299.586L559.875 301.311L560.425 302.938L561.267 304.435L563.159 306.464L565.63 307.95L568.535 308.812L571.705 308.999L572.071 308.98L573.771 308.808L575.468 308.461L577.139 307.94L578.755 307.258L584.781 304.362L585.42 304.05L586.055 303.729L586.683 303.399L587.308 303.063L592.744 300.074L594.591 299.048L596.431 298.006L598.259 296.951L600.079 295.883L602.524 294.434L604.587 293.232L606.667 292.062L608.764 290.917L610.881 289.804L611.954 289.25L614.57 287.933L617.216 286.67L619.889 285.467L622.586 284.321L625.362 283.209L628.161 282.163L630.979 281.177L633.815 280.256L634.266 280.114L636.831 279.337L639.406 278.608L641.988 277.93L644.579 277.3L647.942 276.514L649.371 276.172L650.798 275.805L652.221 275.42L653.639 275.015L654.103 274.878L658.073 273.619L661.998 272.195L665.865 270.605L669.666 268.856L671.206 268.092L672.729 267.303L674.241 266.488L675.737 265.648L679.624 263.422L681.34 262.465L683.077 261.549L684.838 260.675L686.616 259.84L687.827 259.293L690.842 258.008L693.908 256.872L697.014 255.883L700.155 255.049L702.668 254.495L705.193 254.041L707.717 253.689L710.241 253.435L713.062 253.21L714.838 253.085L716.615 252.992L718.385 252.933L720.15 252.905L721.604 252.898L724.765 252.939L727.901 253.105L731.001 253.395L734.058 253.81L736.416 254.218L738.739 254.701L741.033 255.255L743.286 255.885L748.592 257.459L748.933 257.562L749.388 257.697L755.813 259.651L757.541 260.172L759.275 260.68L761.016 261.181L762.759 261.669L767.188 262.897L768.394 263.239L769.593 263.595L770.787 263.965L771.971 264.347L775.34 265.462L777.491 266.22L779.587 267.061L781.632 267.977L783.618 268.973L784.009 269.179L786.328 270.489L788.546 271.917L790.657 273.457L792.652 275.108L794.358 276.69L795.963 278.354L797.461 280.098L798.855 281.916L799.716 283.115L800.742 284.589L801.713 286.096L802.632 287.632L803.497 289.2L804.833 291.721L805.566 293.14L806.277 294.569L806.963 296.011L807.624 297.465L809.839 302.452L810.036 302.901L810.234 303.353L810.429 303.805L810.622 304.258L812.569 308.863L813.314 310.527L814.121 312.164L814.989 313.768L815.925 315.339L817.572 317.816L819.376 320.195L821.336 322.467L823.443 324.629L824.805 325.896L826.219 327.118L827.684 328.294L829.198 329.421L831.217 330.872L832.756 331.951L834.325 333.001L835.92 334.021L837.542 335.013L839.055 335.918L841.044 337.083L843.06 338.218L845.102 339.322L847.168 340.394L848.645 341.146L850.428 342.04L852.224 342.917L854.03 343.777L855.85 344.622L861.651 347.272L867.64 350.008L869.365 350.81L871.075 351.629L872.772 352.467L874.455 353.324L875.884 354.061L878.05 355.21L880.181 356.399L882.28 357.629L884.345 358.898L886.561 360.332L888.734 361.811L890.864 363.337L893.027 364.972L894.896 366.446L896.646 367.891L898.364 369.366L900.043 370.873L900.722 371.495L902.344 373.006L903.935 374.544L905.497 376.103L907.028 377.688L907.546 378.232L909.127 379.924L910.682 381.639L912.205 383.375L913.699 385.133L914.117 385.635L915.54 387.359L916.936 389.098L918.307 390.858L919.654 392.633L920.49 393.749L921.634 395.295L922.763 396.849L923.882 398.415L924.981 399.988L927.089 403.029L927.696 403.907L928.3 404.788L928.901 405.673L929.5 406.558L933.067 411.857L933.39 412.331L933.709 412.806L934.032 413.283L934.357 413.756L938.059 419.168L938.616 419.979L939.179 420.786L939.751 421.592L940.325 422.394L943.183 426.352L944.027 427.492L944.898 428.609L945.798 429.71L946.73 430.787L948.923 433.269L950.145 434.577L951.45 435.816L952.836 436.988L954.295 438.091L955.988 439.296L957.753 440.429L959.645 441.416L961.648 442.246L963.753 442.913L964.591 443.141L967.105 443.682L969.717 443.962L972.395 443.979L975.106 443.731L977.844 443.216L980.549 442.444L983.187 441.42L985.726 440.161L986.314 439.835L988.495 438.516L990.565 437.048L992.501 435.442L994.293 433.711L995.22 432.741L996.872 430.906L998.386 428.994L999.754 427.011L1000.97 424.971L1001.61 423.821L1002.7 421.715L1003.66 419.575L1004.49 417.409L1005.19 415.228L1005.5 414.154L1006.08 411.895L1006.55 409.633L1006.9 407.372L1007.13 405.113L1007.2 404.178L1007.33 401.913L1007.35 399.659L1007.27 397.418L1007.09 395.2L1006.99 394.254L1006.71 392.08L1006.36 389.926L1005.93 387.791L1005.42 385.683L1005.1 384.483L1004.55 382.513L1003.95 380.56L1003.29 378.629L1002.58 376.721L1001.95 375.11L1001.23 373.332L1000.49 371.571L999.709 369.821L998.897 368.088L997.909 366.036L997.138 364.449L996.348 362.874L995.541 361.304L994.717 359.746L993.484 357.441L992.65 355.905L991.805 354.373L990.947 352.852L990.071 351.336L988.724 349.023L987.841 347.529L986.933 346.05L986.001 344.586L985.049 343.133L983.757 341.205L982.662 339.612L981.52 338.048L980.333 336.513L979.1 335.008L978.271 334.017L976.773 332.308L975.204 330.656L973.56 329.059L971.849 327.52L969.811 325.841L967.686 324.242L965.481 322.726L963.196 321.296L962.254 320.738L960.667 319.816L959.051 318.93L957.406 318.077L955.737 317.26L949.745 314.414L947.348 313.324L944.841 311.542L943.329 309.007L942.99 306.022Z" fill="#0F000A" stroke="#6A5FDB" stroke-width="2.80536"/>
<path d="M784.656 286.656L783.104 287.51L781.49 288.42L780.492 289.848L780.374 291.412L781.169 292.692L782.975 294.211L783.506 294.762L783.899 295.403L784.142 296.116L784.229 296.873L784.274 302.472L784.22 303.559L784.042 304.654L783.741 305.744L783.32 306.822L781.804 310.203L780.721 311.902L779.149 313.315L777.235 314.314L775.154 314.806L773.17 314.76L771.378 314.204L769.937 313.188L768.966 311.794L767.294 308.123L767.139 307.763L766.998 307.398L766.871 307.025L766.761 306.649L765.789 303.066L764.913 300.79L763.588 298.733L761.848 296.958L759.744 295.512L757.818 294.611L755.726 293.968L753.508 293.591L751.2 293.493L745.618 293.588L745.265 293.595L744.908 293.605L744.555 293.62L744.2 293.635L743.216 293.684L738.413 293.811L733.651 293.712L728.943 293.385L724.303 292.833L722.883 292.627L722.636 292.592L719.944 292.212L715.895 291.672L711.827 291.186L707.737 290.758L703.635 290.385L702.351 290.275L701.573 290.209L700.795 290.139L700.019 290.062L699.243 289.986L694.454 289.489L692.114 289.283L689.753 289.143L687.374 289.071L684.984 289.065L681.74 289.165L678.481 289.386L675.214 289.731L671.942 290.197L671.478 290.271L669.289 290.651L667.1 291.079L664.919 291.556L662.745 292.086L658.546 293.153L657.152 293.499L655.756 293.822L654.356 294.124L652.954 294.407L646.49 295.656L645.432 295.884L644.381 296.16L643.34 296.486L642.311 296.855L638.6 298.283L636.305 299.407L634.267 300.899L632.576 302.693L631.313 304.705L630.583 306.663L630.29 308.645L630.449 310.576L631.053 312.379L632.525 315.455L632.897 316.185L633.313 316.893L633.771 317.575L634.265 318.235L637.409 322.174L638.153 323.358L638.609 324.677L638.767 326.085L638.619 327.541L638.376 328.726L637.612 330.698L636.209 332.461L634.31 333.839L632.102 334.693L630.403 334.934L628.751 334.826L627.232 334.38L625.934 333.615L621.919 330.472L621.541 330.185L621.149 329.907L620.746 329.645L620.333 329.391L617.956 327.987L615.353 326.753L612.472 325.96L609.399 325.632L606.22 325.775L604.186 326.111L602.171 326.634L600.198 327.336L598.287 328.209L592.775 331.03L592.226 331.314L591.682 331.605L591.14 331.899L590.602 332.201L582.607 336.726L582.023 337.066L581.451 337.419L580.887 337.785L580.332 338.167L575.851 341.34L574.179 342.771L572.852 344.436L571.934 346.262L571.468 348.155L571.469 349.966L571.917 351.675L572.788 353.202L574.048 354.478L576.47 356.39L577.511 357.133L578.635 357.787L579.829 358.351L581.09 358.814L588.013 361.036L588.279 361.121L588.547 361.206L588.815 361.288L589.083 361.37L596.816 363.693L597.746 364.008L598.639 364.38L599.491 364.81L600.299 365.295L603.032 367.073L604.582 368.448L605.605 370.19L606.032 372.175L605.834 374.276L605.402 375.571L604.744 376.825L603.878 377.999L602.829 379.067L599.867 381.691L598.4 383.204L597.219 384.878L596.363 386.659L595.858 388.498L595.728 390.543L596.061 392.505L596.839 394.313L598.04 395.893L600.152 398.08L600.96 398.858L601.834 399.58L602.769 400.245L603.761 400.847L609.027 403.809L609.793 404.251L610.545 404.706L611.284 405.178L612.01 405.662L615.658 408.159L617.119 409.277L618.429 410.53L619.583 411.901L620.608 413.449L621.79 415.95L622.488 418.557L622.722 421.288L622.495 424.084L622.112 425.858L621.546 427.621L620.806 429.356L619.897 431.052L616.399 436.929L616.31 437.078L614.241 440.519L612.404 443.404L610.404 446.223L608.247 448.966L605.938 451.627L604.707 452.979L603.918 453.824L603.102 454.649L602.258 455.455L601.392 456.241L597.352 459.807L596.088 461.045L594.978 462.382L594.04 463.804L593.288 465.287L592.253 467.666L591.721 469.424L591.638 471.178L592.01 472.84L592.866 474.392L594.52 475.967L596.641 476.925L599.095 477.242L601.665 476.897L603.743 476.117L605.616 474.94L607.171 473.438L608.312 471.701L610.64 467.047L610.875 466.557L611.094 466.062L611.297 465.566L611.484 465.065L613.536 459.269L614.128 457.776L614.844 456.305L615.676 454.87L616.619 453.475L618.861 450.39L620.025 449.01L621.397 447.775L622.946 446.718L624.628 445.864L627.687 444.936L630.785 444.729L633.698 445.258L636.217 446.482L637.834 447.594L638.587 448.155L639.283 448.769L639.917 449.434L640.487 450.145L643.823 454.674L644.454 455.554L645.061 456.452L645.645 457.361L646.205 458.283L646.449 458.699L648.071 461.7L649.464 464.809L650.624 468.02L651.548 471.318L651.845 472.644L652.108 473.982L652.332 475.33L652.518 476.686L652.845 479.37L653.06 481.489L653.187 483.626L653.225 485.777L653.177 487.939L652.988 490.712L652.658 493.493L652.186 496.279L651.574 499.062L650.526 503.33L650.488 503.491L649.252 508.662L648.838 510.965L648.699 513.255L648.835 515.507L649.248 517.696L650.017 520.015L651.106 522.194L652.5 524.207L654.18 526.028L655.735 527.494L656.637 528.391L657.485 529.329L658.282 530.307L659.02 531.321L659.552 532.09L661.047 534.649L662.146 537.4L662.833 540.298L663.097 543.308L663.053 545.109L662.86 546.925L662.525 548.742L662.041 550.557L660.661 555.059L660.373 555.951L660.047 556.836L659.685 557.718L659.294 558.592L657.483 562.421L656.383 564.361L654.97 566.175L653.284 567.817L651.365 569.245L650.569 569.762L648.16 571.052L645.579 571.922L642.927 572.335L640.323 572.273L637.889 571.742L635.708 570.766L633.879 569.386L632.471 567.66L632.032 566.952L631.197 565.304L630.67 563.529L630.462 561.663L630.571 559.745L631.208 555.219L631.314 554.545L631.437 553.866L631.578 553.192L631.736 552.514L632.418 549.776L633.092 546.836L633.653 543.892L634.1 540.951L634.432 538.016L634.533 536.929L634.66 535.438L634.762 533.948L634.838 532.462L634.89 530.977L634.94 529.074L635.04 526.557L635.209 524.036L635.447 521.508L635.751 518.977L636.112 516.526L636.537 514.074L637.022 511.62L637.575 509.17L638.206 506.512L638.488 505.304L638.758 504.096L639.02 502.888L639.273 501.681L640.088 497.693L640.438 495.9L640.755 494.109L641.037 492.317L641.285 490.528L641.808 486.507L641.941 485.322L642.036 484.137L642.088 482.959L642.103 481.783L642.07 475.504L642.035 474.909L641.934 474.331L641.771 473.772L641.546 473.236L639.742 469.559L638.782 468.5L637.309 468L635.624 468.167L634.077 468.964L633.604 469.39L633.209 469.871L632.902 470.393L632.694 470.938L631.073 476.679L630.586 478.168L629.974 479.638L629.239 481.083L628.387 482.489L628.183 482.798L626.241 485.397L623.953 487.796L621.364 489.956L618.516 491.834L616.695 492.9L615.63 493.5L614.548 494.07L613.452 494.605L612.339 495.109L606.878 497.48L605.327 498.164L603.78 498.869L602.246 499.589L600.72 500.33L595.355 502.973L594.268 503.512L593.184 504.057L592.1 504.605L591.023 505.158L585.275 508.124L583.99 508.801L582.719 509.5L581.458 510.222L580.214 510.966L576.534 513.207L574.661 514.421L572.866 515.726L571.153 517.121L569.535 518.598L568.423 519.671L566.622 521.571L565.029 523.59L563.656 525.712L562.522 527.911L561.579 530.346L560.938 532.816L560.606 535.288L560.59 537.734L560.752 540.503L560.826 541.49L560.935 542.471L561.077 543.444L561.251 544.406L561.694 546.616L562.073 549.227L562.178 551.899L562.01 554.603L561.564 557.323L561.014 559.495L560.295 561.652L559.408 563.786L558.361 565.881L557.007 568.366L556.209 569.784L555.365 571.187L554.477 572.571L553.546 573.939L553.237 574.377L551.095 577.267L548.787 580.068L546.319 582.778L543.701 585.387L542.221 586.755L540.701 588.088L539.143 589.385L537.544 590.648L534.653 592.874L533.117 594.087L531.616 595.33L530.146 596.609L528.714 597.917L526.036 600.548L523.51 603.282L521.14 606.111L518.934 609.031L516.836 611.96L516.635 612.236L512.625 617.776L511.375 619.417L510.033 621.007L508.602 622.545L507.089 624.024L506.192 624.863L503.974 626.777L501.598 628.533L499.08 630.116L496.441 631.514L493.893 632.639L491.278 633.585L488.612 634.344L485.921 634.91L483.165 635.387L481.566 635.642L479.969 635.85L478.374 636.011L476.781 636.126L472.484 636.375L470.532 636.508L468.578 636.68L466.624 636.891L464.664 637.142L461.352 637.599L459.262 637.927L457.177 638.335L455.098 638.821L453.031 639.384L449.559 640.399L447.776 640.981L446.031 641.673L444.326 642.471L442.677 643.372L440.928 644.397L438.613 645.956L436.544 647.769L434.766 649.796L433.323 651.988L432.224 654.359L431.539 656.792L431.288 659.228L431.473 661.607L431.529 661.94L432.07 664.023L432.939 665.978L434.123 667.771L435.602 669.367L435.995 669.729L437.83 671.186L439.903 672.395L442.178 673.338L444.62 673.999L444.912 674.059L447.473 674.435L450.115 674.53L452.802 674.344L455.499 673.879L457.186 673.5L459.224 672.98L461.238 672.341L463.219 671.587L465.159 670.721L471.534 667.652L471.816 667.518L472.19 667.34L478.034 664.587L480.323 663.563L482.65 662.632L485.01 661.794L487.393 661.054L488.626 660.698L491.223 660.023L493.841 659.491L496.466 659.107L499.086 658.871L500.03 658.812L502.568 658.739L505.076 658.835L507.537 659.099L509.937 659.529L511.86 659.947L513.709 660.433L515.47 661.073L517.133 661.86L518.68 662.788L519.96 663.646L521.739 665.08L523.193 666.775L524.292 668.691L525.007 670.782L525.329 673.094L525.204 675.483L524.638 677.885L523.648 680.239L522.626 682.212L521.914 683.488L521.115 684.735L520.235 685.946L519.277 687.119L516.73 690.06L515.239 691.601L513.567 692.996L511.739 694.222L509.785 695.26L506.646 696.442L503.398 697.112L500.165 697.244L497.059 696.836L494.783 696.323L493.882 696.139L492.969 695.989L492.042 695.875L491.103 695.796L488.038 695.595L484.949 695.465L481.831 695.479L478.691 695.635L475.539 695.934L471.367 696.422L470.901 696.476L470.438 696.527L469.972 696.577L469.508 696.625L462.658 697.319L460.838 697.525L459.015 697.776L457.19 698.072L455.372 698.412L451.524 699.277L447.705 700.337L443.93 701.587L440.186 703.034L438.448 703.776L436.759 704.544L435.084 705.351L433.43 706.194L429.603 708.199L427.928 709.043L426.229 709.834L424.508 710.57L422.762 711.252L420.613 712.054L417.936 712.952L415.217 713.664L412.473 714.187L409.728 714.515L406.838 714.648L403.985 714.561L401.192 714.253L398.479 713.728L397.312 713.45L395.379 712.938L393.496 712.333L391.669 711.635L389.904 710.848L384.214 708.122L384.062 708.049L379.517 705.855L377.146 704.759L374.717 703.741L372.24 702.801L369.711 701.94L367.208 701.177L364.665 700.492L362.082 699.884L359.465 699.353L358.161 699.11L356.096 698.745L354.018 698.419L351.926 698.132L349.82 697.883L349.383 697.835L346.211 697.531L343.016 697.306L339.801 697.16L336.568 697.093L332.828 697.062L332.309 697.053L331.791 697.036L331.275 697.01L330.762 696.976L325.009 696.542L322.994 696.225L321.131 695.594L319.476 694.667L318.081 693.473L317.234 692.583L316.081 690.928L315.489 689.006L315.494 686.936L316.096 684.848L317.357 682.744L319.167 680.921L321.396 679.511L323.882 678.614L325.109 678.32L327.049 677.994L328.972 677.949L330.825 678.186L332.557 678.699L334.798 679.575L336.805 680.223L338.925 680.643L341.128 680.831L343.384 680.784L345.223 680.65L347.63 680.381L350.034 679.927L352.417 679.29L354.758 678.476L360.141 676.384L360.589 676.211L361.036 676.042L361.487 675.876L361.938 675.712L365.317 674.499L368.728 673.337L372.168 672.288L375.635 671.355L379.186 670.524L381.381 670.071L383.512 669.678L385.64 669.332L387.772 669.031L392.196 668.455L393.564 668.253L394.934 667.999L396.296 667.698L397.655 667.348L399.417 666.86L402.696 665.762L405.854 664.319L408.833 662.556L411.582 660.503L413.208 659.046L414.71 657.493L416.077 655.855L417.295 654.146L418.859 651.769L419.969 650.155L421.164 648.577L422.432 647.04L423.776 645.546L426.361 642.988L429.151 640.601L432.132 638.402L435.281 636.406L436.565 635.653L437.723 634.993L438.899 634.359L440.088 633.755L441.294 633.178L446.118 630.936L447.788 630.077L449.375 629.091L450.871 627.988L452.253 626.776L455.117 624.469L458.36 622.627L461.858 621.328L465.469 620.617L466.481 620.505L467.66 620.403L468.83 620.358L469.992 620.373L471.14 620.446L474.791 620.772L477.335 620.878L479.916 620.743L482.516 620.372L485.099 619.77L487.944 618.823L490.696 617.604L493.314 616.131L495.764 614.422L497.97 612.718L498.983 611.912L499.967 611.078L500.925 610.219L501.85 609.335L505.896 605.359L507.059 604.231L508.234 603.113L509.425 602.012L510.631 600.919L513.316 598.52L515.068 596.964L516.837 595.422L518.617 593.892L520.415 592.374L525.117 588.432L525.407 588.19L525.7 587.945L525.993 587.703L526.287 587.463L530.39 584.099L532.49 582.307L534.506 580.446L536.435 578.515L538.271 576.521L538.51 576.251L540.269 574.166L541.916 572.025L543.451 569.827L544.865 567.585L546.6 564.686L547.138 563.729L547.625 562.752L548.054 561.765L548.423 560.767L549.76 556.83L550.179 554.971L550.182 553.137L549.763 551.395L548.943 549.818L547.47 548.224L545.548 547.043L543.282 546.344L540.703 546.166L538.583 546.398L536.584 546.94L534.674 547.775L532.911 548.878L530.179 550.892L528.844 551.948L527.601 553.087L526.454 554.298L525.414 555.572L522.427 559.535L521.536 560.684L520.609 561.817L519.648 562.928L518.654 564.02L517.281 565.487L515.065 567.696L512.681 569.768L510.141 571.693L507.467 573.455L505.248 574.736L502.962 575.902L500.619 576.946L498.225 577.869L496.706 578.411L494.367 579.192L492.006 579.883L489.628 580.479L487.237 580.981L485.654 581.283L483.166 581.7L480.672 582.017L478.186 582.224L475.712 582.327L474.645 582.347L472.053 582.327L469.493 582.165L466.976 581.859L464.511 581.413L461.78 580.733L459.141 579.88L456.61 578.851L454.144 577.623L452.125 576.436L450.265 575.171L448.512 573.797L446.875 572.32L445.864 571.344L444.493 569.952L443.196 568.504L441.978 567.002L440.837 565.448L440.026 564.285L438.833 562.496L437.716 560.665L436.673 558.794L435.708 556.88L435.367 556.162L434.439 554.137L433.584 552.079L432.805 549.989L432.096 547.873L431.934 547.356L431.292 545.169L430.726 542.959L430.237 540.724L429.827 538.468L429.748 537.972L429.425 535.714L429.187 533.435L429.038 531.137L428.975 528.826L428.971 528.393L429.003 526.011L429.131 523.619L429.359 521.217L429.7 518.733L430.158 516.164L430.71 513.674L431.37 511.19L432.139 508.717L433.007 506.26L433.981 503.819L435.056 501.397L436.231 499L436.446 498.58L437.608 496.403L438.845 494.251L440.153 492.124L441.536 490.023L442.627 488.418L443.797 486.756L445.028 485.125L446.317 483.524L447.666 481.955L449.531 479.851L451.013 478.271L452.585 476.758L454.25 475.319L455.995 473.958L457.433 472.895L459.622 471.407L461.937 470.092L464.351 468.959L466.935 467.99L469.902 467.152L472.808 466.62L475.711 466.374L478.575 466.415L481.157 466.709L483.647 467.244L486.015 468.016L488.238 469.016L488.931 469.373L490.868 470.495L492.665 471.771L494.303 473.195L495.776 474.754L497.096 476.307L498.136 477.597L499.1 478.937L499.988 480.319L500.796 481.75L503.729 487.291L506.595 492.734L507.423 494.225L508.314 495.679L509.272 497.095L510.296 498.469L511.52 500.042L512.871 501.645L514.353 503.15L515.96 504.554L517.686 505.846L518.247 506.238L520.331 507.543L522.563 508.676L524.922 509.626L527.399 510.387L530.02 510.962L532.725 511.332L535.492 511.494L538.304 511.449L538.776 511.424L541.327 511.209L543.881 510.84L546.427 510.319L548.955 509.646L550.054 509.32L552.536 508.506L554.973 507.554L557.356 506.467L559.676 505.25L560.724 504.662L562.935 503.321L565.035 501.843L567.014 500.234L568.858 498.506L570.903 496.26L572.705 493.882L574.247 491.393L575.515 488.819L575.724 488.336L576.464 486.455L577.062 484.555L577.521 482.646L577.837 480.734L578.454 475.868L578.539 475.252L578.629 474.634L578.734 474.017L578.848 473.402L579.63 469.318L580.187 467.06L580.99 464.829L582.035 462.641L583.306 460.519L584.922 458.324L586.775 456.255L588.842 454.337L591.094 452.593L595.333 449.603L595.595 449.409L595.842 449.203L596.079 448.987L596.304 448.759L597.506 446.705L597.551 444.548L596.433 442.783L594.404 441.817L593.627 441.659L592.916 441.56L592.18 441.545L591.434 441.614L590.689 441.766L585.688 443.072L583.473 443.565L581.249 443.885L579.032 444.035L576.84 444.009L571.118 443.713L570.599 443.686L570.078 443.668L569.557 443.651L569.036 443.638L568.321 443.626L563.598 443.645L558.846 443.873L554.072 444.314L549.291 444.963L548.546 445.081L548.024 445.159L547.499 445.235L546.977 445.309L546.454 445.374L541.005 446.055L538.615 446.259L536.253 446.271L533.932 446.088L531.676 445.716L528.922 444.97L526.34 443.926L523.965 442.603L521.834 441.019L521.474 440.713L520.11 439.438L518.882 438.058L517.797 436.579L516.859 435.013L515.22 431.953L514.669 430.889L514.155 429.807L513.676 428.708L513.232 427.595L512.337 425.237L511.548 423.057L510.823 420.855L510.163 418.625L509.57 416.376L508.49 412.013L508.411 411.692L508.3 411.267L507.231 407.275L506.468 404.9L505.481 402.614L504.271 400.436L502.849 398.376L501.432 396.68L499.868 395.092L498.159 393.622L496.316 392.279L494.553 391.1L493.172 390.213L491.752 389.373L490.289 388.582L488.789 387.84L486.899 386.947L484.688 385.957L482.42 385.048L480.097 384.225L477.727 383.485L475.006 382.757L472.233 382.14L469.412 381.633L466.548 381.238L465.915 381.165L463.65 380.931L461.365 380.761L459.065 380.653L456.75 380.607L451.221 380.574L450.672 380.571L450.121 380.571L449.572 380.572L449.023 380.574L445.079 380.597L441.96 380.585L438.85 380.522L435.753 380.401L432.67 380.228L430.195 380.047L427.732 379.828L425.277 379.578L422.834 379.289L419.049 378.815L417.911 378.678L416.767 378.55L415.625 378.431L414.478 378.321L411.256 378.025L408.494 377.815L405.711 377.691L402.905 377.65L400.086 377.694L397.252 377.825L394.407 378.039L391.554 378.34L388.703 378.722L387.152 378.955L385.071 379.283L382.99 379.646L380.91 380.045L378.835 380.479L376.665 380.951L374.128 381.477L371.589 381.957L369.047 382.39L366.504 382.774L362.871 383.289L361.527 383.464L360.183 383.608L358.842 383.718L357.501 383.8L351.396 384.091L350.113 384.201L348.829 384.408L347.554 384.709L346.295 385.104L343.014 386.637L340.122 388.752L337.78 391.33L336.121 394.228L335.303 396.145L335.08 396.698L334.876 397.253L334.691 397.813L334.529 398.375L334.077 400.048L332.922 403.218L331.207 406.261L328.98 409.096L326.303 411.643L324.96 412.683L323.548 413.643L322.073 414.52L320.545 415.306L317.022 416.986L315.064 417.965L313.144 419.013L311.267 420.129L309.436 421.31L306.636 423.188L305.008 424.301L303.405 425.446L301.825 426.615L300.272 427.815L295.951 431.217L295.076 431.901L294.199 432.583L293.317 433.261L292.432 433.936L287.057 438.012L285.988 438.831L284.93 439.661L283.883 440.503L282.846 441.356L281.486 442.484L278.806 444.796L276.227 447.194L273.754 449.673L271.393 452.227L269.972 453.865L268.597 455.528L267.271 457.219L265.992 458.931L263.996 461.68L262.966 463.073L261.91 464.456L260.831 465.827L259.726 467.186L257.358 470.054L256.049 471.585L254.682 473.081L253.258 474.538L251.78 475.957L249.919 477.684L248.119 479.264L246.218 480.749L244.227 482.133L242.154 483.409L240.798 484.195L238.535 485.394L236.188 486.421L233.776 487.269L231.32 487.927L229.686 488.301L227.431 488.704L225.18 488.886L222.96 488.843L220.801 488.576L218.639 488.193L216.785 487.713L215.09 486.968L213.598 485.975L212.345 484.76L210.971 482.564L210.299 480.057L210.367 477.38L211.171 474.697L211.284 474.439L212.177 472.754L213.332 471.167L214.722 469.712L216.315 468.42L220.476 465.461L221.43 464.803L222.408 464.175L223.406 463.578L224.424 463.009L230.107 459.955L231.434 459.252L232.769 458.562L234.111 457.886L235.461 457.225L239.172 455.43L241.28 454.423L243.399 453.437L245.528 452.476L247.666 451.535L251.272 449.971L252.734 449.323L254.185 448.654L255.625 447.96L257.054 447.244L260.819 445.218L264.488 443.04L268.051 440.713L271.498 438.244L272.968 437.141L273.504 436.738L274.038 436.331L274.569 435.922L275.097 435.509L280.106 431.576L281.651 430.356L283.192 429.133L284.728 427.905L286.259 426.673L291.71 422.265L291.978 422.05L292.247 421.838L292.517 421.625L292.789 421.414L294.83 419.835L297.97 417.187L300.833 414.311L303.387 411.239L305.607 408.005L306.387 406.687L307.109 405.354L307.773 404.005L308.378 402.641L310.255 398.167L310.808 396.889L311.397 395.623L312.018 394.361L312.674 393.111L315.025 388.749L315.789 387.439L316.648 386.162L317.599 384.929L318.635 383.742L321.546 381.039L324.87 378.743L328.509 376.921L332.355 375.625L333.753 375.264L334.644 375.045L335.537 374.853L336.434 374.684L337.331 374.543L341.233 373.984L344.096 373.53L346.955 372.996L349.807 372.379L352.65 371.682L357.341 370.461L357.819 370.338L358.299 370.216L358.78 370.097L359.261 369.98L361.438 369.457L365.529 368.58L369.631 367.917L373.732 367.469L377.818 367.234L379.392 367.203L380.963 367.203L382.528 367.234L384.087 367.301L387.173 367.463L389.659 367.573L392.156 367.642L394.661 367.666L397.174 367.652L399.553 367.618L401.506 367.58L403.465 367.527L405.425 367.456L407.386 367.367L409.219 367.277L412.029 367.124L414.842 366.94L417.658 366.727L420.477 366.482L421.255 366.41L423.758 366.165L426.262 365.895L428.763 365.596L431.268 365.272L434.481 364.812L437.694 364.31L440.906 363.761L444.118 363.171L447.187 362.582L448.153 362.402L449.118 362.232L450.086 362.069L451.052 361.919L456.167 361.143L458.353 360.863L460.534 360.688L462.7 360.622L464.849 360.661L465.345 360.683L468.474 360.948L471.516 361.46L474.452 362.22L477.253 363.219L479.254 364.117L481.158 365.144L482.956 366.293L484.644 367.557L488.205 370.444L488.625 370.78L489.048 371.113L489.476 371.443L489.904 371.77L493.598 374.539L495.336 375.77L497.151 376.916L499.04 377.978L501.003 378.948L502.852 379.808L504.556 380.669L506.176 381.635L507.706 382.7L509.138 383.856L511.272 385.962L513.105 388.288L514.614 390.807L515.783 393.499L516.32 394.982L516.636 395.911L516.921 396.848L517.175 397.799L517.397 398.759L518.403 403.454L518.784 404.805L519.33 406.09L520.041 407.296L520.907 408.408L522.254 409.938L523.916 411.37L525.973 412.381L528.317 412.913L530.828 412.939L533.097 412.536L535.298 411.745L537.34 410.604L539.141 409.154L541.121 407.255L542.183 406.163L543.143 405.006L543.994 403.798L544.734 402.542L546.066 400.049L546.974 397.884L547.418 395.668L547.378 393.489L546.859 391.423L546.053 389.814L544.937 388.381L543.538 387.166L541.891 386.198L537.026 383.888L536.702 383.738L536.376 383.591L536.048 383.447L535.717 383.308L532.589 382.023L529.705 380.803L526.86 379.528L524.051 378.204L521.282 376.824L519.565 375.948L518.606 375.461L517.643 374.982L516.677 374.504L515.708 374.033L509.868 371.219L509.129 370.851L508.4 370.471L507.681 370.074L506.976 369.664L503.04 367.32L501.473 366.257L500.069 365.035L498.843 363.672L497.809 362.18L497.431 361.549L496.449 359.504L495.864 357.299L495.685 354.989L495.919 352.623L496.518 350.379L497.469 348.182L498.756 346.077L500.35 344.107L501.013 343.389L502.649 341.773L504.45 340.293L506.395 338.968L508.462 337.814L510.599 336.74L512.612 335.812L514.676 335.017L516.782 334.365L518.917 333.857L520.202 333.596L522.944 333.192L525.665 333.088L528.322 333.293L530.873 333.8L533.127 334.541L535.222 335.527L537.122 336.747L538.804 338.183L539.801 339.164L541.088 340.553L542.226 342.044L543.21 343.63L544.032 345.3L545.583 348.873L545.913 349.655L546.223 350.444L546.519 351.24L546.796 352.043L548.18 355.602L549.906 359.006L551.965 362.234L554.344 365.261L554.557 365.507L555.048 366.064L555.549 366.609L556.062 367.149L556.585 367.677L559.749 370.813L561.003 372.194L562.095 373.684L563.018 375.272L563.762 376.948L564.524 379.519L564.882 382.206L564.841 384.966L564.393 387.759L564.246 388.4L563.787 390.091L563.201 391.771L562.487 393.427L561.65 395.056L559.455 398.998L558.801 400.139L558.124 401.273L557.417 402.398L556.685 403.513L553.476 408.288L552.787 409.382L552.175 410.498L551.637 411.636L551.177 412.793L550.51 414.645L549.886 417.072L549.755 419.489L550.121 421.818L550.974 423.985L552.056 425.638L553.44 427.086L555.096 428.299L556.987 429.244L560.203 430.546L561.339 430.972L562.506 431.348L563.7 431.672L564.922 431.94L571.128 433.163L572.122 433.339L573.126 433.478L574.143 433.585L575.171 433.655L579.215 433.857L581.474 433.812L583.752 433.457L586 432.798L588.153 431.854L589.732 431.038L591.528 429.919L593.091 428.542L594.361 426.965L595.283 425.249L595.918 422.877L595.841 420.539L595.063 418.399L593.635 416.599L591.568 414.704L590.935 414.077L590.356 413.406L589.838 412.697L589.377 411.951L588.218 409.898L587.037 407.515L586.107 405.02L585.44 402.43L585.039 399.761L584.675 396.113L584.648 395.816L584.623 395.519L584.601 395.222L584.579 394.924L584.476 393.285L584.006 389.689L583.057 386.228L581.644 382.95L579.785 379.892L579.148 378.949L578.553 377.98L578.005 376.989L577.499 375.975L577.291 375.527L575.715 372.593L573.828 369.833L571.644 367.267L569.182 364.912L567.235 363.233L567.038 363.06L566.778 362.831L562.046 358.585L560.972 357.488L560.066 356.272L559.334 354.952L558.789 353.547L558.289 350.666L558.522 347.66L559.476 344.658L561.109 341.802L561.899 340.69L562.663 339.685L563.49 338.717L564.382 337.789L565.333 336.907L570.145 332.688L571.101 331.861L572.073 331.049L573.057 330.252L574.057 329.469L577.281 326.98L579.224 325.43L581.111 323.83L582.941 322.179L584.712 320.478L587.071 318.235L589.532 316.078L592.094 314.013L594.752 312.044L597.637 309.99L598.257 309.553L598.877 309.121L599.5 308.691L600.129 308.265L606.42 304.014L607.508 303.285L608.604 302.565L609.703 301.853L610.808 301.15L613.701 299.324L616.126 297.843L618.597 296.422L621.106 295.07L623.655 293.783L626.393 292.496L629.169 291.288L631.978 290.16L634.815 289.116L635.359 288.924L637.776 288.105L640.206 287.341L642.65 286.63L645.104 285.979L650.128 284.704L650.824 284.524L651.521 284.344L652.217 284.162L652.913 283.977L658.158 282.575L660.5 281.964L662.847 281.382L665.196 280.834L667.551 280.315L670.855 279.609L672.53 279.267L674.211 278.952L675.893 278.673L677.573 278.423L678.882 278.241L682.228 277.702L685.571 277.013L688.893 276.18L692.307 275.168L694.583 274.407L696.724 273.619L698.842 272.769L700.935 271.859L702.594 271.106L705.056 270.061L707.556 269.129L710.092 268.313L712.653 267.616L715.71 266.95L718.776 266.46L721.842 266.144L724.891 266.007L726.497 265.98L728.289 265.978L730.07 266.022L731.84 266.118L733.597 266.261L735.234 266.419L738.154 266.748L741.04 267.171L743.892 267.687L746.746 268.307L749.169 268.912L751.521 269.576L753.839 270.307L756.118 271.102L760.372 272.66L760.917 272.857L761.462 273.054L762.009 273.248L762.557 273.442L769.769 275.957L770.59 276.232L771.425 276.487L772.272 276.719L773.129 276.928L780.298 278.591L781.028 278.81L781.701 279.119L782.306 279.515L782.828 279.984L785.241 282.521L785.875 283.811L785.661 285.312L784.656 286.656Z" fill="#0F000A" stroke="#6A5FDB" stroke-width="2.80536"/>
<path d="M270.29 495.402C299.134 483.569 324.152 497.768 324.152 524.689C324.152 578.529 259.988 609 184.639 609C131.954 609 114 596.871 114 578.234C114 568.767 119.004 559.892 141.078 561.963L270.584 573.5C287.655 574.979 295.308 566.992 295.308 558.709C295.308 550.13 288.538 544.213 270.584 541.847L165.214 528.83C142.844 526.168 135.192 512.56 135.192 498.36C135.192 487.414 139.312 473.51 165.214 465.227L280.003 428.545C293.836 424.107 296.191 418.191 296.191 410.795C295.896 401.328 287.067 399.849 279.708 401.92L176.987 432.39C156.089 438.603 116.649 452.211 114.294 412.274C112.823 388.608 131.954 379.437 156.384 379.437H265.58C296.779 379.437 312.379 393.933 312.379 413.457C312.379 424.403 304.726 435.349 291.481 444.815L203.771 506.051C191.998 514.335 197.884 525.28 211.424 519.66L270.29 495.402ZM352.862 424.995C352.862 405.47 371.11 375 436.158 375C523.868 375.591 553.89 394.228 553.89 424.699C553.89 441.857 547.709 447.478 526.517 457.24L477.658 479.723C473.832 481.498 472.066 483.864 472.949 487.414C473.538 490.077 475.892 492.443 482.368 492.739L506.503 493.627C540.351 494.81 556.539 511.672 556.539 551.905C556.539 589.179 517.982 608.704 462.353 608.704C396.423 608.112 341.972 598.054 341.972 547.467C341.972 518.772 351.685 498.952 385.827 496.289L418.203 493.627C424.973 493.035 427.328 489.781 427.328 485.935C427.328 482.089 424.384 478.835 419.675 477.652C370.522 465.227 352.862 451.323 352.862 424.995ZM472.36 506.643C456.172 495.402 446.753 494.514 429.682 506.643L371.11 548.651C362.575 554.863 363.458 566.105 376.114 566.105L528.872 565.217C540.645 565.217 542.117 555.455 533.287 549.242L472.36 506.643ZM434.392 467.298C440.573 480.906 453.523 480.906 465.002 472.623L504.148 444.815C512.978 438.603 513.861 430.911 502.971 425.586L431.154 390.679C412.905 381.804 398.483 389.791 406.136 406.062L434.392 467.298ZM672.018 375C727.94 375 779.448 412.866 779.448 438.899C779.448 460.494 751.193 476.173 728.235 449.252L684.968 398.37C658.184 367.012 606.676 415.824 647.883 437.715L664.071 446.294C688.795 459.606 680.259 485.639 659.361 491.556L606.382 506.347C594.02 509.897 594.609 520.547 606.088 527.647L701.156 585.629C714.696 593.912 722.054 585.038 719.699 571.725L714.696 543.622C711.752 526.759 711.752 501.022 736.476 498.36C766.498 495.106 775.328 514.335 775.328 535.043C775.328 573.5 742.068 608.704 685.557 608.704C617.861 608.704 570.474 558.117 570.474 487.71C570.474 424.403 602.556 375 672.018 375ZM951.138 495.402C979.982 483.569 1005 497.768 1005 524.689C1005 578.529 940.836 609 865.487 609C812.802 609 794.848 596.871 794.848 578.234C794.848 568.767 799.851 559.892 821.926 561.963L951.432 573.5C968.503 574.979 976.156 566.992 976.156 558.709C976.156 550.13 969.386 544.213 951.432 541.847L846.061 528.83C823.692 526.168 816.04 512.56 816.04 498.36C816.04 487.414 820.16 473.51 846.061 465.227L960.85 428.545C974.684 424.107 977.039 418.191 977.039 410.795C976.744 401.328 967.914 399.849 960.556 401.92L857.835 432.39C836.937 438.603 797.497 452.211 795.142 412.274C793.67 388.608 812.802 379.437 837.231 379.437H946.428C977.627 379.437 993.227 393.933 993.227 413.457C993.227 424.403 985.574 435.349 972.329 444.815L884.619 506.051C872.845 514.335 878.732 525.28 892.271 519.66L951.138 495.402Z" fill="#0F000A" stroke="#FF5053" stroke-width="4.5" stroke-miterlimit="2" stroke-linejoin="round"/>
<rect x="360.132" y="215.896" width="397.004" height="86.5613" fill="#0F000A"/>
<rect x="360.132" y="215.896" width="397.004" height="86.5613" stroke="#6A5FDB" stroke-width="2.80536"/>
<path d="M400.06 241.02H405.245V277.676H400.06V241.02ZM434.903 241.02H440.087V273.016H458.363V277.676H434.903V241.02ZM485.291 241.02H490.475V273.016H508.751V277.676H485.291V241.02ZM535.68 241.02H559.088V245.68H540.864V256.887H557.621V261.6H540.864V273.016H559.35V277.676H535.68V241.02ZM586.039 263.38V255.316C586.039 245.733 591.799 240.286 600.806 240.286C609.709 240.286 614.369 245.418 614.369 253.221V253.745H609.185V253.169C609.185 248.299 606.462 244.895 600.806 244.895C594.837 244.895 591.223 248.822 591.223 255.211V263.485C591.223 269.874 594.837 273.801 600.754 273.801C606.619 273.801 609.499 270.607 609.499 265.37V264.375H599.183V259.924H614.579V264.899C614.579 273.33 609.447 278.409 600.754 278.409C591.695 278.409 586.039 272.963 586.039 263.38ZM650.51 241.02H658.522L669.833 277.676H664.439L661.716 268.774H647.263L644.54 277.676H639.198L650.51 241.02ZM648.572 264.061H660.407L654.751 245.523H654.228L648.572 264.061ZM696.46 241.02H701.644V273.016H719.92V277.676H696.46V241.02Z" fill="#FF5053"/>
<rect x="224.632" y="681.99" width="668.004" height="86.5613" fill="#0F000A"/>
<rect x="224.632" y="681.99" width="668.004" height="86.5613" stroke="#6A5FDB" stroke-width="2.80536"/>
<path d="M264.219 707.114H269.403V743.771H264.219V707.114ZM299.061 707.114H307.911L320.374 738.377H320.898V707.114H326.082V743.771H317.232L304.769 712.508H304.245V743.771H299.061V707.114ZM367.784 706.381C375.325 706.381 381.033 710.256 381.033 717.901V719.315H375.901V717.901C375.901 712.927 372.55 710.937 367.784 710.937C363.124 710.937 360.296 712.927 360.296 716.487C360.296 720.048 362.757 721.358 367.522 722.457L369.774 722.981C376.634 724.552 381.452 727.066 381.452 733.611C381.452 740.105 376.215 744.504 368.046 744.504C359.824 744.504 353.959 740.052 353.959 731.621V731.15H359.091V731.621C359.091 737.277 362.652 739.948 368.046 739.948C373.387 739.948 376.372 737.382 376.372 733.716C376.372 729.998 373.387 728.689 368.57 727.589L366.318 727.066C359.458 725.495 355.164 722.929 355.164 716.592C355.164 710.256 360.243 706.381 367.784 706.381ZM406.267 707.114H435.121V711.774H423.286V743.771H418.102V711.774H406.267V707.114ZM488.907 718.163C488.907 723.924 485.346 727.851 480.214 728.898L488.226 743.771H482.308L474.872 729.16H467.122V743.771H461.938V707.166H477.334C484.037 707.166 488.907 711.356 488.907 718.163ZM467.122 711.827V724.5H476.81C481.104 724.5 483.722 722.091 483.722 718.163C483.722 714.183 481.104 711.827 476.81 711.827H467.122ZM516.464 707.114H521.648V731.412C521.648 736.91 524.738 739.895 530.236 739.895C535.735 739.895 538.824 736.91 538.824 731.412V707.114H544.009V731.307C544.009 739.791 538.667 744.504 530.236 744.504C521.805 744.504 516.464 739.791 516.464 731.307V707.114ZM572.198 729.474V721.41C572.198 711.827 577.906 706.381 586.913 706.381C595.815 706.381 600.842 711.513 600.842 719.525V720.363H595.658V719.472C595.658 714.55 592.621 710.989 586.913 710.989C580.943 710.989 577.382 714.916 577.382 721.305V729.579C577.382 735.968 580.995 739.895 586.913 739.895C592.778 739.895 595.658 736.387 595.658 731.464V730.26H600.842V731.412C600.842 739.424 595.605 744.504 586.913 744.504C577.801 744.504 572.198 739.058 572.198 729.474ZM625.311 707.114H654.165V711.774H642.33V743.771H637.146V711.774H625.311V707.114ZM680.982 707.114H686.166V743.771H680.982V707.114ZM714.567 721.2C714.567 711.565 720.275 706.381 729.178 706.381C738.08 706.381 743.788 711.565 743.788 721.2V729.684C743.788 739.319 738.08 744.504 729.178 744.504C720.275 744.504 714.567 739.319 714.567 729.684V721.2ZM719.752 720.991V729.893C719.752 736.073 723.26 739.895 729.178 739.895C735.095 739.895 738.604 736.073 738.604 729.893V720.991C738.604 714.812 735.095 710.989 729.178 710.989C723.26 710.989 719.752 714.812 719.752 720.991ZM772.196 707.114H781.046L793.509 738.377H794.033V707.114H799.217V743.771H790.367L777.904 712.508H777.38V743.771H772.196V707.114ZM840.919 706.381C848.46 706.381 854.168 710.256 854.168 717.901V719.315H849.036V717.901C849.036 712.927 845.685 710.937 840.919 710.937C836.259 710.937 833.431 712.927 833.431 716.487C833.431 720.048 835.892 721.358 840.657 722.457L842.909 722.981C849.769 724.552 854.587 727.066 854.587 733.611C854.587 740.105 849.35 744.504 841.181 744.504C832.96 744.504 827.094 740.052 827.094 731.621V731.15H832.226V731.621C832.226 737.277 835.787 739.948 841.181 739.948C846.522 739.948 849.507 737.382 849.507 733.716C849.507 729.998 846.522 728.689 841.705 727.589L839.453 727.066C832.593 725.495 828.299 722.929 828.299 716.592C828.299 710.256 833.378 706.381 840.919 706.381Z" fill="#FF5053"/>
</svg>
