<svg width="914" height="477" viewBox="0 0 914 477" fill="none" xmlns="http://www.w3.org/2000/svg">
<path d="M167.79 241.402C196.634 229.569 221.652 243.768 221.652 270.689C221.652 324.529 157.488 355 82.139 355C29.454 355 11.5 342.871 11.5 324.234C11.5 314.767 16.504 305.892 38.578 307.963L168.084 319.5C185.155 320.979 192.808 312.992 192.808 304.709C192.808 296.13 186.038 290.213 168.084 287.847L62.714 274.83C40.344 272.168 32.692 258.56 32.692 244.36C32.692 233.414 36.812 219.51 62.714 211.227L177.503 174.545C191.336 170.107 193.691 164.191 193.691 156.795C193.396 147.328 184.567 145.849 177.208 147.92L74.487 178.39C53.589 184.603 14.149 198.211 11.794 158.274C10.323 134.608 29.454 125.437 53.884 125.437H163.08C194.279 125.437 209.879 139.933 209.879 159.457C209.879 170.403 202.226 181.349 188.981 190.815L101.271 252.051C89.498 260.335 95.384 271.28 108.924 265.66L167.79 241.402ZM250.362 170.995C250.362 151.47 268.61 121 333.658 121C421.368 121.591 451.39 140.228 451.39 170.699C451.39 187.857 445.209 193.478 424.017 203.24L375.158 225.723C371.332 227.498 369.566 229.864 370.449 233.414C371.038 236.077 373.392 238.443 379.868 238.739L404.003 239.627C437.851 240.81 454.039 257.672 454.039 297.905C454.039 335.179 415.482 354.704 359.853 354.704C293.923 354.112 239.472 344.054 239.472 293.467C239.472 264.772 249.185 244.952 283.327 242.289L315.703 239.627C322.473 239.035 324.828 235.781 324.828 231.935C324.828 228.089 321.884 224.835 317.175 223.652C268.022 211.227 250.362 197.323 250.362 170.995ZM369.86 252.643C353.672 241.402 344.253 240.514 327.182 252.643L268.61 294.651C260.075 300.863 260.958 312.105 273.614 312.105L426.372 311.217C438.145 311.217 439.617 301.455 430.787 295.242L369.86 252.643ZM331.892 213.298C338.073 226.906 351.023 226.906 362.502 218.623L401.648 190.815C410.478 184.603 411.361 176.911 400.471 171.586L328.654 136.679C310.405 127.804 295.983 135.791 303.636 152.062L331.892 213.298ZM569.518 121C625.44 121 676.948 158.866 676.948 184.899C676.948 206.494 648.693 222.173 625.735 195.252L582.468 144.37C555.684 113.012 504.176 161.824 545.383 183.715L561.571 192.294C586.295 205.606 577.759 231.639 556.861 237.556L503.882 252.347C491.52 255.897 492.109 266.547 503.588 273.647L598.656 331.629C612.196 339.912 619.554 331.038 617.199 317.725L612.196 289.622C609.252 272.759 609.252 247.022 633.976 244.36C663.998 241.106 672.828 260.335 672.828 281.043C672.828 319.5 639.568 354.704 583.057 354.704C515.361 354.704 467.974 304.117 467.974 233.71C467.974 170.403 500.056 121 569.518 121ZM848.638 241.402C877.482 229.569 902.5 243.768 902.5 270.689C902.5 324.529 838.336 355 762.987 355C710.302 355 692.348 342.871 692.348 324.234C692.348 314.767 697.351 305.892 719.426 307.963L848.932 319.5C866.003 320.979 873.656 312.992 873.656 304.709C873.656 296.13 866.886 290.213 848.932 287.847L743.561 274.83C721.192 272.168 713.54 258.56 713.54 244.36C713.54 233.414 717.66 219.51 743.561 211.227L858.35 174.545C872.184 170.107 874.539 164.191 874.539 156.795C874.244 147.328 865.414 145.849 858.056 147.92L755.335 178.39C734.437 184.603 694.997 198.211 692.642 158.274C691.17 134.608 710.302 125.437 734.731 125.437H843.928C875.127 125.437 890.727 139.933 890.727 159.457C890.727 170.403 883.074 181.349 869.829 190.815L782.119 252.051C770.345 260.335 776.232 271.28 789.771 265.66L848.638 241.402Z" fill="#FF5053" stroke="#FF5053" stroke-width="4.5" stroke-miterlimit="2" stroke-linejoin="round"/>
<rect x="305.11" y="4.27295" width="301.78" height="65.7057" fill="#0F000A"/>
<rect x="305.11" y="4.27295" width="301.78" height="65.7057" stroke="#6A5FDB" stroke-width="2.13428"/>
<path d="M335.358 23.2377H339.303V51.1257H335.358V23.2377ZM361.866 23.2377H365.81V47.58H379.714V51.1257H361.866V23.2377ZM400.201 23.2377H404.145V47.58H418.049V51.1257H400.201V23.2377ZM438.536 23.2377H456.345V26.7835H442.48V35.3093H455.229V38.8949H442.48V47.58H456.544V51.1257H438.536V23.2377ZM476.849 40.2494V34.1141C476.849 26.8233 481.231 22.68 488.084 22.68C494.857 22.68 498.402 26.5843 498.402 32.5205V32.9189H494.458V32.4806C494.458 28.7755 492.386 26.1859 488.084 26.1859C483.542 26.1859 480.793 29.1739 480.793 34.0344V40.3291C480.793 45.1896 483.542 48.1776 488.044 48.1776C492.506 48.1776 494.697 45.7473 494.697 41.7633V41.0064H486.849V37.62H498.562V41.4048C498.562 47.819 494.657 51.6835 488.044 51.6835C481.152 51.6835 476.849 47.5401 476.849 40.2494ZM525.898 23.2377H531.993L540.598 51.1257H536.495L534.423 44.3529H523.427L521.356 51.1257H517.292L525.898 23.2377ZM524.423 40.7673H533.427L529.125 26.664H528.726L524.423 40.7673ZM560.856 23.2377H564.8V47.58H578.704V51.1257H560.856V23.2377Z" fill="#FF5053"/>
<rect x="201.61" y="407.021" width="508.78" height="65.7057" fill="#0F000A"/>
<rect x="201.61" y="407.021" width="508.78" height="65.7057" stroke="#6A5FDB" stroke-width="2.13428"/>
<path d="M232.012 425.986H235.956V453.874H232.012V425.986ZM258.519 425.986H265.252L274.734 449.771H275.133V425.986H279.077V453.874H272.344L262.862 430.09H262.464V453.874H258.519V425.986ZM310.803 425.428C316.54 425.428 320.883 428.376 320.883 434.193V435.269H316.978V434.193C316.978 430.408 314.429 428.894 310.803 428.894C307.257 428.894 305.106 430.408 305.106 433.117C305.106 435.827 306.979 436.823 310.604 437.659L312.317 438.058C317.536 439.253 321.201 441.165 321.201 446.145C321.201 451.085 317.217 454.432 311.002 454.432C304.748 454.432 300.285 451.045 300.285 444.631V444.273H304.19V444.631C304.19 448.934 306.899 450.966 311.002 450.966C315.066 450.966 317.337 449.014 317.337 446.225C317.337 443.396 315.066 442.4 311.401 441.563L309.688 441.165C304.469 439.97 301.202 438.018 301.202 433.197C301.202 428.376 305.066 425.428 310.803 425.428ZM340.08 425.986H362.032V429.532H353.028V453.874H349.084V429.532H340.08V425.986ZM402.952 434.392C402.952 438.775 400.243 441.763 396.338 442.559L402.434 453.874H397.932L392.275 442.759H386.378V453.874H382.434V426.026H394.147C399.247 426.026 402.952 429.213 402.952 434.392ZM386.378 429.572V439.213H393.749C397.016 439.213 399.008 437.38 399.008 434.392C399.008 431.364 397.016 429.572 393.749 429.572H386.378ZM423.917 425.986H427.861V444.472C427.861 448.655 430.212 450.926 434.395 450.926C438.578 450.926 440.929 448.655 440.929 444.472V425.986H444.873V444.392C444.873 450.846 440.809 454.432 434.395 454.432C427.981 454.432 423.917 450.846 423.917 444.392V425.986ZM466.319 442.998V436.862C466.319 429.572 470.661 425.428 477.514 425.428C484.286 425.428 488.111 429.333 488.111 435.428V436.066H484.167V435.388C484.167 431.643 481.856 428.934 477.514 428.934C472.972 428.934 470.263 431.922 470.263 436.783V443.077C470.263 447.938 473.012 450.926 477.514 450.926C481.976 450.926 484.167 448.257 484.167 444.512V443.595H488.111V444.472C488.111 450.567 484.127 454.432 477.514 454.432C470.581 454.432 466.319 450.288 466.319 442.998ZM506.727 425.986H528.678V429.532H519.675V453.874H515.73V429.532H506.727V425.986ZM549.08 425.986H553.025V453.874H549.08V425.986ZM574.632 436.703C574.632 429.372 578.974 425.428 585.747 425.428C592.52 425.428 596.863 429.372 596.863 436.703V443.157C596.863 450.488 592.52 454.432 585.747 454.432C578.974 454.432 574.632 450.488 574.632 443.157V436.703ZM578.576 436.544V443.316C578.576 448.018 581.245 450.926 585.747 450.926C590.249 450.926 592.918 448.018 592.918 443.316V436.544C592.918 431.843 590.249 428.934 585.747 428.934C581.245 428.934 578.576 431.843 578.576 436.544ZM618.475 425.986H625.208L634.69 449.771H635.088V425.986H639.033V453.874H632.3L622.818 430.09H622.419V453.874H618.475V425.986ZM670.759 425.428C676.496 425.428 680.838 428.376 680.838 434.193V435.269H676.934V434.193C676.934 430.408 674.384 428.894 670.759 428.894C667.213 428.894 665.062 430.408 665.062 433.117C665.062 435.827 666.934 436.823 670.56 437.659L672.273 438.058C677.492 439.253 681.157 441.165 681.157 446.145C681.157 451.085 677.173 454.432 670.958 454.432C664.703 454.432 660.241 451.045 660.241 444.631V444.273H664.145V444.631C664.145 448.934 666.855 450.966 670.958 450.966C675.022 450.966 677.293 449.014 677.293 446.225C677.293 443.396 675.022 442.4 671.357 441.563L669.643 441.165C664.424 439.97 661.157 438.018 661.157 433.197C661.157 428.376 665.022 425.428 670.759 425.428Z" fill="#FF5053"/>
</svg>
