<svg width="515" height="598" viewBox="0 0 515 598" fill="none" xmlns="http://www.w3.org/2000/svg">
<path d="M180.655 476.173L182.072 477.821L182.854 478.231L183.704 478.465L184.584 478.513L185.546 478.346L187.816 478.285L189.738 479.311L190.922 481.14L191.07 483.314L191.012 484.508L191.282 485.673L191.862 486.72L192.702 487.57L197.001 490.854L197.639 491.374L198.241 491.932L198.809 492.527L199.34 493.156L202.389 497.024L203.19 498.281L203.721 499.673L203.963 501.143L203.904 502.632L204.011 505.282L205.047 507.724L206.881 509.643L209.273 510.791L211.94 511.521L212.108 511.569L220.76 514.185L221.079 514.278L221.4 514.363L221.724 514.44L222.048 514.509L227.058 515.519L228.707 516.107L230.125 517.14L231.189 518.531L231.815 520.167L231.928 522.2L231.365 524.156L230.193 525.82L228.537 527.006L226.798 527.857L226.023 528.19L225.219 528.445L224.396 528.62L223.558 528.713L217.522 529.084L216.558 529.155L215.593 529.25L214.634 529.37L213.674 529.513L210.593 530.013L208.323 530.439L206.079 530.977L203.863 531.626L201.68 532.384L199.517 533.196L198.246 533.713L197.004 534.298L195.793 534.951L194.621 535.667L190.848 538.117L189.813 538.694L188.712 539.128L187.565 539.412L186.386 539.541L183.96 539.645L182.206 539.44L180.601 538.697L179.31 537.491L178.46 535.942L178.146 534.43L178.258 532.889L178.789 531.439L179.695 530.189L182.328 527.455L182.798 526.994L183.293 526.56L183.812 526.154L184.355 525.778L187.49 523.725L189.26 522.375L190.817 520.782L192.125 518.982L193.16 517.011L193.886 514.957L194.312 512.821L194.434 510.647L194.244 508.477L194.161 507.959L193.679 505.82L192.929 503.76L191.92 501.813L190.671 500.01L189.645 498.715L188.6 497.485L187.473 496.33L186.267 495.254L184.99 494.265L182.694 492.607L181.242 491.511L179.834 490.356L178.477 489.144L177.172 487.876L173.874 484.541L173.421 484.102L172.951 483.681L172.461 483.281L171.957 482.902L168.286 480.263L166.825 479.466L165.21 479.054L163.546 479.051L161.931 479.458L160.35 480.333L159.059 481.599L158.156 483.162L157.7 484.91L157.43 487.145L157.357 488.191L157.389 489.238L157.525 490.277L157.766 491.297L158.726 494.62L159.128 496.512L159.254 498.442L159.108 500.37L158.687 502.258L157.825 504.433L156.604 506.426L155.055 508.181L153.231 509.643L151.504 510.796L150.427 511.464L149.309 512.061L148.157 512.583L146.971 513.028L142.808 514.439L141.493 514.907L140.19 515.414L138.906 515.961L137.637 516.546L136.115 517.276L133.845 518.469L131.667 519.825L129.594 521.337L127.641 522.998L126.053 524.543L124.569 526.185L123.191 527.918L121.926 529.735L120.857 531.376L119.983 532.772L119.152 534.195L118.37 535.644L117.637 537.118L116.904 538.653L115.925 540.8L115.023 542.982L114.203 545.194L113.462 547.435L112.775 549.809L112.178 552.207L111.672 554.625L111.258 557.061L110.973 558.953L110.778 560.373L110.62 561.799L110.498 563.227L110.413 564.659L110.274 567.64L110.242 569.551L110.327 571.46L110.527 573.361L110.841 575.246L111.058 576.332L111.608 578.564L112.356 580.737L113.299 582.834L114.427 584.837L115.805 586.832L117.372 588.686L119.106 590.383L120.993 591.907L121.235 592.084L123.044 593.298L124.947 594.362L126.927 595.269L128.975 596.014L129.962 596.329L131.991 596.905L134.049 597.352L136.134 597.668L138.234 597.852L139.422 597.918L141.544 597.974L143.665 597.904L145.78 597.71L147.879 597.391L148.303 597.313L150.71 596.781L153.07 596.072L155.372 595.189L157.6 594.137L159.62 592.997L161.556 591.72L163.398 590.309L165.134 588.773L168.44 585.639L168.625 585.465L168.812 585.292L168.997 585.12L169.187 584.949L171.901 582.509L173.976 580.852L176.229 579.446L178.631 578.312L181.149 577.465L183.156 577.013L185.195 576.744L187.251 576.659L189.307 576.76L191.83 576.998L193.338 577.109L194.85 577.156L196.365 577.141L197.876 577.062L198.319 577.03L201.347 576.671L204.328 576.041L207.244 575.145L210.064 573.99L211.645 573.209L213.18 572.346L214.67 571.405L216.107 570.387L220.022 567.461L220.55 567.07L221.084 566.684L221.619 566.305L222.16 565.931L225.341 563.755L227.244 562.546L229.221 561.466L231.265 560.52L233.369 559.711L234.434 559.343L236.351 558.759L238.307 558.322L240.289 558.035L242.404 557.895L245.176 557.95L247.813 558.286L250.4 558.896L252.909 559.774L254.843 560.663L256.699 561.712L258.458 562.913L260.109 564.256L261.639 565.61L262.876 566.758L264.062 567.96L265.193 569.216L266.264 570.52L269.387 574.501L269.789 575.007L270.196 575.51L270.605 576.009L271.019 576.505L274.34 580.444L275.432 581.664L276.591 582.821L277.815 583.908L279.1 584.924L280.868 586.241L282.608 587.393L284.465 588.344L286.416 589.083L288.437 589.601L289.563 589.823L291.659 590.085L293.771 590.046L295.856 589.708L297.895 589.068L300.179 587.938L302.213 586.448L303.963 584.632L305.377 582.543L306.251 580.682L306.856 578.717L307.181 576.687L307.219 574.632L306.984 570.055L306.963 569.694L306.939 569.334L306.909 568.974L306.876 568.615L306.416 563.968L306.313 561.828L306.424 559.69L306.749 557.573L307.285 555.499L308.194 553.105L309.384 550.837L310.837 548.727L312.532 546.807L312.99 546.347L314.325 545.104L315.751 543.966L317.259 542.939L318.841 542.03L324.157 539.238L329.311 536.526L331.01 535.572L332.655 534.528L334.24 533.397L335.762 532.181L336.969 531.163L338.5 529.762L339.915 528.245L341.205 526.62L342.363 524.898L342.887 524.047L343.937 522.125L344.786 520.105L345.422 518.009L345.843 515.84L346.049 513.346L345.96 510.865L345.582 508.412L344.918 506.02L344.108 503.997L343.094 502.067L341.886 500.253L340.498 498.572L339.293 497.257L338.127 496.054L336.894 494.918L335.599 493.854L334.245 492.864L330.579 490.339L329.794 489.807L329.003 489.285L328.204 488.775L327.398 488.275L322.094 485.036L321.399 484.611L320.706 484.184L320.014 483.754L319.323 483.323L314.318 480.191L313.385 479.602L312.457 479.005L311.534 478.401L310.615 477.789L307.9 475.964L306.151 474.753L304.436 473.494L302.756 472.187L301.114 470.834L300.055 469.937L298.531 468.599L297.055 467.207L295.629 465.763L294.256 464.27L291.96 461.683L291.214 460.883L290.429 460.121L289.609 459.399L288.753 458.718L286.845 457.275L284.836 455.994L282.649 455.048L280.339 454.462L277.965 454.251L275.946 454.37L273.961 454.76L272.047 455.415L270.239 456.323L268.527 457.333L267.105 458.248L265.755 459.27L264.486 460.392L263.31 461.608L260.419 464.83L259.751 465.508L259.023 466.12L258.241 466.662L257.41 467.128L254.509 468.072L251.455 468.111L248.53 467.242L245.994 465.544L245.587 465.172L245.21 464.81L244.849 464.43L244.508 464.033L244.187 463.621L242.825 461.789L240.828 459.341L238.614 457.083L236.205 455.036L233.591 453.196L232.227 452.365L230.858 451.615L229.458 450.926L228.03 450.299L225.819 449.388L223.86 448.62L221.88 447.918L219.873 447.284L217.849 446.718L214.79 445.918L213.647 445.637L212.5 445.387L211.343 445.168L210.184 444.982L207.762 444.626L205.331 444.375L202.891 444.332L200.453 444.497L198.039 444.869L195.766 445.417L193.545 446.149L191.392 447.059L189.319 448.142L185.154 450.541L184.993 450.633L179.561 453.704L178.039 454.439L176.434 454.972L174.775 455.294L173.089 455.401L170.269 455.089L167.582 454.178L165.154 452.71L163.098 450.754L161.466 448.821L161.222 448.528L160.989 448.231L160.757 447.929L160.533 447.622L156.692 442.237L156.017 441.267L155.367 440.281L154.741 439.279L154.139 438.262L152.532 435.469L151.44 433.726L150.22 432.071L148.878 430.513L147.421 429.06L146.937 428.61L145.088 427.065L143.096 425.712L140.976 424.567L138.753 423.639L136.497 422.951L134.186 422.487L131.837 422.253L129.48 422.25L127.076 422.365L125.841 422.404L124.603 422.399L123.368 422.352L122.133 422.264L120.738 422.139L117.871 421.763L115.045 421.151L112.278 420.309L109.592 419.242L107.872 418.42L106.204 417.506L104.584 416.502L103.022 415.412L101.59 414.353L99.9656 413.102L98.3945 411.786L96.8771 410.41L95.4132 408.973L94.7044 408.248L93.1284 406.578L91.6158 404.852L90.1665 403.072L88.783 401.24L88.4664 400.803L87.1608 398.926L85.9308 396.998L84.7811 395.022L83.7142 393L82.6157 390.688L81.6268 388.328L80.7426 385.926L79.9388 383.373L79.3372 381.17L78.8476 379.06L78.4335 376.933L78.0998 374.792L77.4568 370.098L77.413 369.779L77.3715 369.46L77.3301 369.142L77.2887 368.823L76.3948 361.759L76.2779 360.779L76.178 359.797L76.0952 358.814L76.0245 357.829L75.7761 353.799L75.7201 351.951L75.781 350.103L75.9564 348.263L76.2486 346.437L76.4386 345.443L77.0135 343.087L77.8197 340.795L78.8476 338.597L80.0898 336.51L81.4441 334.665L82.964 332.955L84.6374 331.397L86.4496 330L87.9281 328.965L89.2483 328.088L90.6098 327.27L92.008 326.52L93.4402 325.834L98.7014 323.462L99.0546 323.302L99.4029 323.141L99.7537 322.978L100.1 322.812L103.929 320.986L106.014 319.905L108.023 318.693L109.952 317.356L111.791 315.895L113.601 314.257L115.294 312.499L116.867 310.634L118.312 308.666L118.801 307.951L119.861 306.324L120.845 304.651L121.753 302.937L122.584 301.182L123.354 299.453L124.123 297.649L124.84 295.823L125.497 293.975L126.099 292.108L127.655 287.002L127.758 286.673L127.899 286.235L130.062 279.8L130.547 278.634L131.187 277.545L131.971 276.557L132.887 275.688L134.665 274.215L136.18 273.309L137.898 272.902L139.659 273.026L141.3 273.676L142.698 274.821L143.675 276.338L144.14 278.083L144.045 279.888L143.471 282.595L143.229 283.503L142.903 284.385L142.491 285.229L142.002 286.03L139.822 289.22L138.777 290.866L137.842 292.58L137.026 294.35L136.329 296.171L134.948 300.176L134.719 300.853L134.5 301.535L134.29 302.219L134.088 302.903L133.114 306.302L132.376 308.549L131.47 310.736L130.4 312.844L129.173 314.868L127.77 316.825L126.218 318.666L124.53 320.385L122.713 321.965L122.18 322.396L120.543 323.635L118.835 324.78L117.067 325.824L115.24 326.764L110.941 328.821L110.573 328.994L110.206 329.165L109.835 329.328L109.463 329.488L105.792 331.056L103.622 332.135L101.593 333.457L99.7293 335.008L98.0584 336.763L96.7041 338.548L95.5496 340.467L94.6069 342.497L93.8884 344.618L92.746 348.696L92.6364 349.095L92.5317 349.497L92.4294 349.899L92.3319 350.301L90.5904 357.678L90.4418 358.325L90.2981 358.973L90.1641 359.622L90.035 360.272L89.4237 363.451L89.0242 365.99L88.7928 368.549L88.7343 371.119L88.8439 373.686L89.0802 375.909L89.4431 378.115L89.9327 380.296L90.549 382.446L91.3089 384.833L91.7547 386.103L92.2783 387.344L92.8751 388.55L93.5449 389.719L94.4291 391.158L95.9344 393.233L97.7369 395.055L99.7951 396.582L102.06 397.778L103.916 398.457L105.836 398.913L107.799 399.141L109.774 399.138L113.418 398.917L114.373 398.873L115.33 398.858L116.288 398.871L117.242 398.913L118.972 399.015L121.919 399.342L124.818 399.969L127.636 400.891L130.344 402.097L131.879 402.937L133.36 403.869L134.782 404.888L136.139 405.992L139.927 409.27L140.377 409.657L140.83 410.04L141.288 410.419L141.749 410.794L146.886 414.944L147.633 415.556L148.374 416.179L149.105 416.812L149.826 417.455L151.058 418.568L153.265 420.674L155.35 422.898L157.311 425.234L159.137 427.675L160.141 429.094L160.648 429.836L161.13 430.594L161.588 431.367L162.021 432.155L164.211 436.288L165.049 437.635L166.062 438.855L167.234 439.923L168.542 440.821L170.473 441.96L171.954 442.617L173.547 442.917L175.167 442.844L176.728 442.403L177.469 442.097L179.14 441.059L180.382 439.538L181.067 437.696L181.12 435.731L180.879 434.694L180.46 433.717L179.873 432.828L179.14 432.058L175.971 429.273L174.814 428.157L173.767 426.94L172.834 425.631L172.018 424.224L170.948 421.713L170.283 419.086L170.033 416.388L170.198 413.683L170.398 412.252L170.602 411.039L170.873 409.839L171.209 408.657L171.613 407.494L173.803 401.703L173.991 401.199L174.176 400.695L174.356 400.189L174.534 399.682L177.367 391.505L179.525 385.268L180.078 383.813L180.716 382.394L181.437 381.015L182.238 379.682L183.563 377.626L184.706 376.065L186.026 374.653L187.509 373.409L189.129 372.353L189.509 372.135L191.667 371.127L193.959 370.478L196.324 370.205L198.704 370.315L200.65 370.698L202.528 371.337L204.304 372.223L205.945 373.338L208.532 375.363L209.484 376.074L210.466 376.743L211.479 377.367L212.602 377.99L215.747 379.431L218.95 380.461L222.25 381.112L225.604 381.374L228.113 381.424L228.386 381.431L228.749 381.444L235.637 381.751L236.76 381.887L237.851 382.19L238.884 382.654L239.836 383.268L241.21 384.311L242.521 385.733L243.259 387.521L243.327 389.454L242.72 391.291L241.68 392.654L240.268 393.629L238.621 394.12L236.906 394.079L231.428 393.078L231.18 393.028L227.241 392.182L224.625 391.777L221.98 391.68L219.34 391.893L216.743 392.412L214.768 393.026L212.856 393.818L211.021 394.782L209.287 395.908L207.438 397.232L206.14 398.206L204.891 399.24L203.69 400.33L202.54 401.475L200.553 403.55L199.374 404.87L198.292 406.268L197.308 407.739L196.431 409.275L195.369 411.294L194.607 412.974L194.047 414.731L193.698 416.541L193.559 418.38L193.555 418.766L193.728 421.25L194.319 423.667L195.311 425.951L196.675 428.034L198.07 429.576L199.671 430.905L201.442 431.994L203.351 432.822L204.45 433.208L206.401 433.777L208.403 434.131L210.432 434.264L212.463 434.176L213.691 434.055L215.757 433.763L217.79 433.293L219.776 432.651L221.697 431.84L224.257 430.627L225.48 430.076L226.722 429.57L227.982 429.11L229.258 428.697L229.94 428.491L232.909 427.741L235.937 427.273L238.996 427.091L242.058 427.198L243.785 427.386L245.497 427.666L247.192 428.037L248.866 428.497L253.335 429.856L254.09 430.09L254.846 430.332L255.596 430.581L256.344 430.839L261.761 432.735L262.901 433.139L264.038 433.553L265.171 433.977L266.301 434.41L268.885 435.414L270.989 436.262L273.069 437.163L275.126 438.116L277.158 439.122L278.058 439.582L279.903 440.56L281.72 441.591L283.506 442.674L285.259 443.809L287.526 445.389L289.731 447.055L291.869 448.804L293.939 450.635L296.201 452.716L296.607 453.094L297.009 453.475L297.406 453.861L297.8 454.251L300.403 456.863L302.169 458.493L304.063 459.972L306.073 461.29L308.185 462.437L310.342 463.389L312.568 464.162L314.85 464.754L317.173 465.158L319.713 465.495L320.91 465.637L322.109 465.747L323.311 465.825L324.515 465.87L328.044 465.955L329.935 465.969L331.826 465.919L333.714 465.805L335.597 465.629L337.012 465.472L339.23 465.167L341.429 464.746L343.602 464.21L345.745 463.562L348.171 462.675L350.539 461.643L352.84 460.47L355.126 459.122L356.997 457.879L358.747 456.586L360.43 455.207L362.043 453.746L363.5 452.358L364.696 451.189L365.862 449.989L366.995 448.76L368.096 447.501L370.86 444.255L371.547 443.443L372.228 442.625L372.902 441.803L373.571 440.976L376.938 436.781L377.634 435.908L378.325 435.032L379.01 434.151L379.691 433.267L382.379 429.751L383.302 428.52L384.2 427.271L385.074 426.005L385.922 424.721L387.425 422.399L388.441 420.754L389.387 419.066L390.261 417.341L391.061 415.58L391.341 414.928L392.267 412.564L393.043 410.147L393.664 407.685L394.129 405.19L394.411 402.923L394.564 400.643L394.587 398.358L394.481 396.076L394.277 393.378L394.174 392.165L394.048 390.955L393.899 389.747L393.727 388.542L393.272 385.563L392.965 383.443L392.69 381.318L392.446 379.189L392.234 377.056L391.934 373.782L391.84 372.706L391.754 371.629L391.677 370.552L391.609 369.474L391.371 365.456L391.242 363.69L391.062 361.928L390.833 360.171L390.554 358.422L390.318 357.066L389.85 354.723L389.268 352.404L388.573 350.118L387.76 347.854L386.818 345.589L385.77 343.388L384.612 341.246L383.32 339.12L381.97 337.126L380.551 335.244L379.041 333.433L377.442 331.702L377.086 331.334L375.49 329.773L373.814 328.298L372.063 326.915L370.242 325.624L369.641 325.223L367.737 324.03L365.763 322.956L363.727 322.006L361.637 321.183L361.091 320.989L358.904 320.29L356.672 319.747L354.408 319.362L352.122 319.138L351.579 319.107L349.323 319.053L347.069 319.177L344.832 319.474L342.625 319.944L341.581 320.21L339.639 320.796L337.756 321.551L335.948 322.467L334.227 323.54L333.602 323.969L331.714 325.439L330.017 327.127L328.534 329.004L327.287 331.044L326.301 333.206L325.579 335.468L325.131 337.798L324.965 340.167L324.956 341.024L325.018 342.989L325.245 344.944L325.635 346.873L326.186 348.762L327.432 352.448L327.732 353.31L328.049 354.165L328.384 355.014L328.734 355.857L330.389 359.721L331.1 361.432L331.777 363.157L332.419 364.895L333.026 366.646L333.718 368.712L334.298 370.542L334.817 372.391L335.276 374.256L335.672 376.135L336.105 378.368L336.403 380.14L336.611 381.925L336.729 383.718L336.757 385.515L336.738 387.504L336.632 389.54L336.354 391.56L335.907 393.549L335.293 395.493L335.169 395.836L334.169 398.172L332.912 400.381L331.414 402.434L329.694 404.306L328.063 405.744L326.301 407.019L324.424 408.118L322.45 409.031L320.167 409.956L318.882 410.447L317.578 410.888L316.258 411.278L314.924 411.616L310.647 412.609L309.392 412.91L308.141 413.229L306.894 413.566L305.653 413.92L301.812 415.045L300.306 415.498L298.808 415.972L297.316 416.469L295.832 416.987L292.087 418.325L290.849 418.746L289.599 419.129L288.338 419.474L287.067 419.781L284.138 420.439L282.147 420.803L280.133 421.002L278.11 421.036L276.09 420.905L275.721 420.866L273.239 420.464L270.815 419.795L268.478 418.867L266.257 417.69L264.459 416.489L262.781 415.126L261.239 413.611L259.822 411.931L258.368 409.807L257.169 407.568L256.222 405.212L255.532 402.768L255.32 401.819L255.011 400.214L254.797 398.593L254.677 396.962L254.653 395.327L254.707 391.819L254.682 390.356L254.568 388.897L254.363 387.448L254.071 386.014L253.625 384.135L252.972 382.02L252.042 380.011L250.853 378.144L249.428 376.451L247.709 374.901L245.789 373.605L243.709 372.588L241.51 371.871L239.968 371.486L238.492 371.169L236.994 370.955L235.486 370.842L233.976 370.833L230.79 370.923L229.065 370.913L227.343 370.789L225.636 370.549L223.948 370.195L222.231 369.775L220.212 369.155L218.278 368.305L216.453 367.238L214.768 365.968L214.436 365.686L212.804 364.098L211.404 362.302L210.261 360.332L209.399 358.225L208.827 355.998L208.566 353.714L208.622 351.416L208.995 349.147L209.065 348.857L209.701 346.768L210.6 344.779L211.747 342.919L213.123 341.224L213.355 340.976L214.989 339.437L216.828 338.146L218.828 337.129L220.954 336.403L223.234 335.977L225.553 335.889L227.86 336.14L230.106 336.724L230.651 336.91L232.539 337.674L234.329 338.65L235.993 339.826L237.513 341.185L240.609 344.292L241.027 344.718L241.437 345.151L241.841 345.589L242.236 346.035L245.215 349.441L246.552 350.929L247.928 352.38L249.346 353.795L250.797 355.171L252.782 357L253.874 358.044L254.921 359.128L255.927 360.252L256.889 361.414L257.888 362.668L259.364 364.688L260.662 366.823L261.778 369.06L262.701 371.383L263.378 373.583L263.88 375.828L264.209 378.105L264.362 380.401L264.459 383.986L264.474 384.74L264.479 385.495L264.472 386.249L264.455 387.004L264.265 393.417L264.262 394.312L264.308 395.205L264.401 396.095L264.545 396.978L265.12 400.018L265.772 402.14L266.876 404.067L268.376 405.703L270.201 406.969L272.34 407.823L274.617 408.167L276.912 407.983L279.214 407.229L281.118 406.141L282.674 404.77L283.93 403.121L284.837 401.256L285.334 399.912L285.839 398.225L286.126 396.488L286.192 394.727L286.036 392.973L285.129 387.062L284.979 386.114L284.42 381.782L284.105 377.426L284.034 373.06L284.208 368.696L284.241 368.234L284.277 367.772L284.315 367.311L284.356 366.85L284.478 365.525L284.761 361.801L284.927 358.069L284.974 354.335L284.903 350.6L284.888 350.177L284.852 349.268L284.807 348.358L284.754 347.45L284.692 346.544L284.355 341.925L284.269 340.287L284.252 338.648L284.301 337.009L284.419 335.373L284.569 333.747L284.882 331.392L285.382 329.072L286.067 326.798L286.931 324.587L287.986 322.42L289.214 320.348L290.607 318.381L292.154 316.533L293.272 315.303L294.346 314.166L295.465 313.073L296.626 312.026L297.827 311.023L300.879 308.576L301.919 307.731L302.946 306.87L303.96 305.991L304.961 305.099L305.31 304.783L307.711 302.543L310.04 300.225L312.295 297.839L314.475 295.382L316.234 293.337L316.455 293.081L316.751 292.741L320.751 288.192L321.885 286.975L323.085 285.823L324.349 284.742L325.673 283.734L327.239 282.61L329.067 281.438L331.01 280.469L333.044 279.712L335.147 279.174L337.636 278.836L340.149 278.804L342.646 279.084L345.09 279.666L345.584 279.817L347.379 280.448L349.114 281.229L350.777 282.152L352.356 283.216L355.22 285.324L356.121 286.006L357.004 286.712L357.869 287.44L358.714 288.19L361.788 290.992L363.021 292.1L364.268 293.193L365.53 294.267L366.806 295.326L367.295 295.726L369.551 297.532L371.843 299.295L374.169 301.011L376.528 302.679L377.668 303.471L378.724 304.196L379.785 304.917L380.851 305.628L381.922 306.331L385.529 308.683L386.73 309.47L387.929 310.259L389.124 311.055L390.317 311.856L392.742 313.487L394.375 314.593L396.002 315.705L397.624 316.828L399.24 317.957L403.382 320.869L403.682 321.081L403.981 321.293L404.281 321.505L404.581 321.717L409.96 325.529L410.946 326.226L411.933 326.917L412.922 327.606L413.914 328.293L417.098 330.492L418.524 331.47L419.957 332.439L421.395 333.399L422.84 334.348L425.548 336.118L426.827 336.944L428.116 337.754L429.415 338.551L430.722 339.332L433.391 340.905L434.949 341.796L436.528 342.648L438.129 343.459L439.75 344.231L441.487 345.029L443.416 345.867L445.379 346.622L447.373 347.291L449.394 347.873L450.249 348.1L452.474 348.623L454.726 349.02L456.995 349.293L459.277 349.436L460.076 349.466L462.205 349.475L464.329 349.354L466.443 349.1L468.537 348.716L469.574 348.494L471.648 347.963L473.675 347.274L475.643 346.429L477.54 345.434L478.332 344.981L480.141 343.824L481.834 342.502L483.396 341.029L484.812 339.417L485.357 338.733L486.585 337.004L487.612 335.149L488.426 333.192L489.017 331.156L489.096 330.81L489.468 328.522L489.537 326.206L489.302 323.901L488.767 321.646L487.967 319.535L486.904 317.543L485.595 315.703L484.063 314.045L483.127 313.154L481.798 311.982L480.382 310.921L478.888 309.971L477.323 309.144L472.34 306.748L472.054 306.609L471.769 306.468L471.485 306.327L471.201 306.183L470.572 305.864L466.892 303.902L463.293 301.791L459.781 299.541L456.271 297.084L455.719 296.68L455.262 296.342L454.806 295.998L454.353 295.65L450.388 292.597L448.95 291.548L447.463 290.566L445.93 289.661L444.353 288.833L443.44 288.38L441.16 287.367L438.805 286.544L436.39 285.918L433.931 285.495L431.667 285.288L429.395 285.249L427.125 285.383L424.872 285.687L422.739 286.057L421.287 286.335L419.845 286.661L418.415 287.034L416.998 287.452L412.731 288.794L411.628 289.132L410.52 289.454L409.407 289.76L408.29 290.048L404.916 290.895L403.006 291.326L401.078 291.664L399.136 291.913L397.184 292.069L395.68 292.154L393.57 292.2L391.461 292.1L389.364 291.854L387.29 291.465L386.471 291.28L384.295 290.693L382.179 289.916L380.139 288.959L378.189 287.825L377.936 287.664L376.017 286.298L374.24 284.752L372.621 283.041L371.176 281.183L370.91 280.803L369.751 278.965L368.779 277.019L368.005 274.989L367.436 272.892L367.213 271.875L366.893 269.854L366.81 267.809L366.966 265.768L367.358 263.76L367.467 263.338L368.236 261.06L369.337 258.919L370.743 256.969L372.424 255.248L374.235 253.865L376.224 252.75L378.349 251.927L380.569 251.411L382.531 251.099L384.034 250.911L385.546 250.821L387.061 250.834L388.572 250.943L391.898 251.299L393.547 251.415L395.2 251.42L396.85 251.311L398.488 251.087L401.51 250.361L404.412 249.251L407.146 247.775L409.666 245.957L410.469 245.295L411.35 244.535L412.199 243.739L413.014 242.908L413.793 242.047L415.055 240.588L416.894 238.575L418.839 236.663L420.883 234.859L423.02 233.167L424.495 232.062L425.47 231.346L426.458 230.647L427.458 229.965L428.471 229.301L432.904 226.449L433.773 225.911L434.66 225.405L435.563 224.928L436.483 224.485L437.664 223.939L440.578 222.814L443.612 222.069L446.717 221.721L449.841 221.77L451.491 221.96L453.124 222.259L454.733 222.671L456.311 223.189L460.609 224.769L461.465 225.076L462.326 225.368L463.191 225.648L464.06 225.914L467.774 227.019L469.719 227.555L471.684 228.01L473.666 228.385L475.662 228.675L476.92 228.833L479.11 229.045L481.309 229.128L483.509 229.084L485.703 228.913L486.491 228.828L488.711 228.514L490.905 228.047L493.06 227.428L495.168 226.661L495.632 226.474L497.761 225.515L499.808 224.39L501.758 223.104L503.6 221.668L505.426 219.985L507.102 218.152L508.618 216.185L509.972 214.078L511.073 212.016L511.999 209.891L512.756 207.702L513.339 205.459L513.492 204.761L513.886 202.635L514.144 200.49L514.266 198.33L514.25 196.168L514.207 195.07L514.07 192.937L513.826 190.812L513.476 188.703L513.021 186.614L512.846 185.901L512.235 183.634L511.518 181.397L510.697 179.196L509.736 176.956L508.646 174.699L507.492 172.576L506.241 170.509L504.894 168.502L504.719 168.254L503.362 166.413L501.93 164.629L500.425 162.905L498.849 161.247L497.811 160.2L496.503 158.909L495.162 157.655L493.791 156.433L492.389 155.247L490.146 153.399L488.921 152.404L487.682 151.427L486.427 150.47L485.159 149.533L482.194 147.376L481.003 146.536L479.787 145.735L478.546 144.973L477.282 144.252L474.554 142.747L472.91 141.92L471.211 141.213L469.464 140.634L467.679 140.181L465.79 139.777L463.806 139.47L461.799 139.4L459.798 139.565L457.829 139.964L456.538 140.305L454.587 140.99L452.769 141.973L451.129 143.232L449.708 144.734L448.314 146.86L447.359 149.217L446.879 151.715L446.894 154.269L447.249 156.236L447.895 158.116L448.817 159.876L449.995 161.476L452.883 164.833L453.209 165.22L453.529 165.612L453.841 166.011L454.145 166.416L456.178 169.169L457.605 171.344L458.783 173.661L459.698 176.096L460.339 178.614L460.656 180.737L460.778 182.879L460.705 185.022L460.436 187.15L460.259 188.178L459.819 190.264L459.229 192.312L458.491 194.311L457.557 196.353L456.265 198.701L454.844 200.831L453.251 202.837L451.496 204.705L451.298 204.897L449.746 206.319L448.106 207.639L446.383 208.849L444.585 209.944L441.773 211.537L440.792 212.077L439.8 212.601L438.798 213.105L437.786 213.589L434.462 215.14L432.723 215.939L430.974 216.713L429.216 217.465L427.448 218.198L424.973 219.201L423.466 219.798L421.947 220.363L420.418 220.898L418.879 221.402L416.848 222.047L414.785 222.749L412.752 223.528L410.75 224.387L408.784 225.322L406.425 226.574L404.128 227.94L401.9 229.41L399.744 230.988L398.968 231.584L397.613 232.592L396.224 233.554L394.805 234.47L393.355 235.336L392.137 236.038L389.974 237.194L387.743 238.214L385.454 239.096L383.114 239.831L380.813 240.403L378.481 240.836L376.128 241.129L373.762 241.277L372.97 241.304L370.903 241.326L368.838 241.255L366.778 241.092L364.728 240.836L362.96 240.576L361.095 240.264L359.244 239.882L357.408 239.432L355.591 238.911L353.687 238.326L351.829 237.693L350.013 236.955L348.243 236.111L346.526 235.161L344.999 234.258L343.359 233.189L341.816 231.986L340.382 230.654L339.067 229.206L337.955 227.871L336.825 226.333L335.888 224.672L335.158 222.909L334.646 221.074L334.343 219.666L334.094 217.726L334.171 215.773L334.573 213.859L335.289 212.038L336.536 210.047L338.157 208.345L340.085 207.001L342.244 206.068L343.267 205.744L344.575 205.399L345.909 205.177L347.258 205.084L348.61 205.121L353.458 205.479L354.522 205.574L355.584 205.696L356.642 205.847L357.695 206.027L361.307 206.876L364.822 208.065L368.208 209.579L371.435 211.408L372.277 211.941L372.667 212.189L373.052 212.445L373.434 212.705L373.812 212.971L376.503 214.892L378.694 216.25L381.041 217.319L383.506 218.076L386.047 218.51L388.028 218.622L390.009 218.537L391.973 218.254L393.899 217.782L398.912 216.282L399.244 216.185L399.687 216.058L406.346 214.212L407.514 213.896L408.687 213.599L409.863 213.316L411.043 213.051L411.792 212.888L414.956 212.131L418.084 211.237L421.172 210.215L424.213 209.06L425.681 208.449L427.136 207.809L428.577 207.139L430.004 206.438L434.039 204.405L434.943 203.935L435.835 203.441L436.714 202.927L437.58 202.392L440.594 200.471L442.216 199.329L443.726 198.041L445.111 196.621L446.358 195.078L447.021 194.177L448.167 192.395L449.083 190.486L449.755 188.477L450.173 186.4L450.368 184.981L450.482 183.201L450.336 181.426L449.935 179.69L449.286 178.029L448.47 176.32L447.608 174.911L446.473 173.71L445.116 172.768L443.593 172.125L441.349 171.782L439.1 172.084L437.026 173.007L435.297 174.475L435.08 174.721L434.068 176.135L433.366 177.728L433.003 179.429L432.996 181.17L433.268 183.924L433.339 185.497L433.241 187.067L432.975 188.618L432.545 190.133L431.372 192.711L429.726 195.014L427.668 196.962L425.275 198.477L423.707 199.268L422.808 199.694L421.888 200.071L420.949 200.4L419.995 200.68L418.821 200.989L415.757 201.634L412.643 201.963L409.513 201.97L406.397 201.659L403.572 201.23L403.313 201.191L403.054 201.155L402.795 201.118L402.535 201.084L398.056 200.51L395.797 200.3L393.528 200.247L391.262 200.349L389.007 200.609L386.197 201.031L385.051 201.157L383.9 201.194L382.749 201.14L381.606 200.999L379.961 200.729L377.696 200.103L375.613 199.015L373.808 197.512L372.359 195.662L371.505 193.994L370.944 192.205L370.693 190.349L370.759 188.475L371.056 186.008L371.152 184.438L371.062 182.867L370.789 181.319L370.336 179.812L369.131 177.34L367.445 175.166L365.351 173.384L362.937 172.067L360.702 171.132L360.035 170.866L359.359 170.628L358.674 170.414L357.981 170.226L353.902 169.206L351.938 168.67L350 168.052L348.089 167.353L346.209 166.571L345.211 166.133L343.172 165.164L341.193 164.076L339.281 162.878L337.442 161.568L335.45 159.951L333.57 158.208L331.809 156.345L330.156 154.344L328.823 152.513L327.613 150.636L326.513 148.691L325.526 146.687L325.297 146.185L324.384 144.043L323.586 141.854L322.905 139.626L322.32 137.257L321.84 134.791L321.508 132.412L321.3 130.018L321.218 127.615L321.201 125.422L321.217 124.07L321.289 122.717L321.415 121.37L321.596 120.029L322.3 116.657L323.349 113.377L324.73 110.221L326.437 107.215L327.197 106.075L327.995 104.977L328.836 103.913L329.721 102.883L332.293 100.008L333.335 98.8195L334.353 97.6119L335.348 96.3847L336.319 95.1382L338.519 92.2554L339.422 91.0891L340.343 89.9375L341.28 88.8005L342.235 87.6756L342.695 87.1449L344.718 84.8781L346.819 82.6844L348.995 80.5637L351.242 78.5209L352.623 77.3328L354.029 76.1714L355.458 75.0417L356.911 73.9412L359.915 71.7134L360.862 71.017L361.813 70.328L362.77 69.6462L363.732 68.9718L368.081 65.943L368.931 65.3367L369.766 64.7085L370.587 64.0634L371.393 63.3987L374.124 61.0905L375.604 59.727L376.964 58.2467L378.193 56.6544L379.283 54.9646L379.506 54.5848L380.651 52.3498L381.532 49.9978L382.138 47.5606L382.461 45.0698L382.508 42.8907L382.338 40.7165L381.953 38.5714L381.357 36.4751L381.019 35.4793L380.284 33.5705L379.397 31.7249L378.364 29.9597L377.192 28.2822L376.165 26.9309L374.949 25.4992L373.587 24.2039L372.094 23.0645L370.488 22.0882L369.601 21.6134L367.524 20.7028L365.33 20.1281L363.073 19.9017L360.808 20.0332L358.648 20.5007L356.585 21.292L354.666 22.3876L352.937 23.7632L351.808 24.8126L350.668 25.9643L349.628 27.2084L348.696 28.5354L347.878 29.9378L345.684 34.0891L345.29 34.8511L344.91 35.6205L344.545 36.3948L344.193 37.1788L341.854 42.5133L341.41 43.5164L340.961 44.5196L340.506 45.5202L340.046 46.5185L339.375 47.9647L338.109 50.6551L336.813 53.3285L335.487 55.9873L334.131 58.6314L333.632 59.5907L333.003 60.791L332.365 61.9865L331.719 63.1771L331.065 64.3628L328.979 68.1075L328.302 69.3005L327.602 70.4789L326.88 71.6427L326.137 72.7944L324.398 75.4385L323.314 77.0017L322.157 78.516L320.93 79.972L319.637 81.3672L318.615 82.419L317.042 83.9261L315.364 85.3188L313.591 86.5849L311.731 87.7194L311.24 87.997L309.182 89.0415L307.042 89.9059L304.836 90.5851L302.505 91.0867L300.095 91.3959L297.743 91.4787L295.394 91.3521L293.065 91.0161L290.75 90.4634L288.494 89.7038L286.318 88.7396L284.22 87.5758L282.272 86.2537L280.465 84.7758L278.796 83.1445L277.277 81.3745L276.971 80.9849L275.695 79.2246L274.554 77.3766L273.554 75.4458L272.701 73.4493L272.116 71.9252L271.502 70.2111L270.967 68.4727L270.512 66.7099L270.137 64.9301L269.331 60.6133L269.18 59.7831L269.039 58.9528L268.902 58.1226L268.776 57.2898L267.938 51.6023L267.75 50.4677L267.521 49.3428L267.253 48.2252L266.946 47.1174L265.524 42.3112L265.139 41.2302L264.635 40.1979L264.019 39.2288L263.3 38.3352L260.806 35.5596L259.754 34.6856L258.492 34.1523L257.13 34.0038L255.786 34.2546L254.429 34.9851L253.382 36.1147L252.756 37.5221L252.619 39.056L252.968 43.6893L252.999 44.0545L253.045 44.4173L253.106 44.7801L253.177 45.1404L253.511 46.6889L254.076 50.2169L254.268 53.7838L254.081 57.3507L253.518 60.8787L253.274 62.0181L253.158 62.5441L253.028 63.0675L252.892 63.5886L252.746 64.1072L251.567 68.144L251.114 70.2428L250.963 72.3854L251.116 74.5279L251.574 76.6267L252.378 78.7547L253.494 80.7366L254.897 82.531L256.551 84.0917L259.352 86.3633L259.797 86.7163L260.25 87.0597L260.713 87.3956L261.181 87.7194L264.861 90.2126L266.501 91.4349L268.028 92.7959L269.428 94.286L270.691 95.8929L270.953 96.2581L272.252 98.3106L273.307 100.497L274.106 102.791L274.637 105.16L274.884 107.4L274.893 109.652L274.662 111.894L274.194 114.1L273.733 115.819L273.277 117.353L272.738 118.858L272.119 120.331L271.421 121.767L269.75 124.981L269.131 126.276L268.598 127.611L268.155 128.974L267.804 130.367L267.507 131.725L267.149 134.262L267.17 136.824L267.575 139.356L268.349 141.798L269.19 143.59L270.232 145.272L271.461 146.826L272.86 148.228L276.324 151.318L276.666 151.62L277.011 151.917L277.359 152.209L277.712 152.496L281.389 155.467L282.919 156.801L284.342 158.249L285.651 159.803L286.837 161.451L287.214 162.018L288.421 164.056L289.415 166.209L290.186 168.451L290.724 170.759L291.022 173.077L291.085 175.415L290.914 177.747L290.509 180.05L290.351 180.747L289.823 182.712L289.149 184.63L288.33 186.493L287.372 188.287L286.643 189.536L285.56 191.275L284.381 192.952L283.109 194.557L281.748 196.09L281.229 196.641L279.538 198.34L277.756 199.942L275.887 201.445L273.872 202.881L271.829 204.181L269.786 205.333L267.684 206.372L265.531 207.3L265.11 207.471L262.993 208.259L260.842 208.951L258.662 209.54L256.456 210.029L256.117 210.095L253.747 210.504L251.36 210.799L248.961 210.979L246.557 211.045L244.133 210.994L241.712 210.828L239.303 210.546L236.909 210.146L235.844 209.942L234.012 209.562L232.193 209.126L230.388 208.634L228.598 208.089L224.187 206.672L223.541 206.465L222.898 206.251L222.255 206.036L221.615 205.817L214.972 203.538L214.329 203.314L213.689 203.083L213.05 202.842L212.415 202.599L207.48 200.658L206.082 200.054L204.73 199.358L203.427 198.572L202.18 197.702L200.061 196.115L198.66 194.905L197.44 193.515L196.424 191.968L195.632 190.296L195.328 189.519L194.738 187.457L194.553 185.322L194.773 183.189L195.394 181.136L196.339 179.322L197.596 177.708L199.123 176.347L200.872 175.285L203.953 173.778L204.732 173.418L205.524 173.089L206.328 172.797L207.144 172.539L210.342 171.597L212.49 170.864L214.565 169.953L216.558 168.87L218.494 167.587L220.421 166.058L222.158 164.395L223.736 162.576L225.139 160.623L225.31 160.358L226.418 158.476L227.353 156.499L228.108 154.449L228.676 152.338L229.092 149.842L229.251 147.317L229.146 144.79L228.778 142.287L228.629 141.542L228.223 139.799L227.706 138.085L227.08 136.407L226.347 134.774L225.034 132.076L224.386 130.659L223.812 129.208L223.312 127.73L222.888 126.23L222.752 125.689L222.184 122.868L221.909 119.999L221.931 117.122L222.248 114.258L222.606 112.444L223.083 110.657L223.678 108.907L224.386 107.197L226.805 101.873L226.92 101.617L227.994 99.2115L229.404 96.0147L230.785 92.8056L232.139 89.5821L233.462 86.3487L234.492 83.7995L237.622 76.0448L237.881 75.4093L238.144 74.7738L238.411 74.1408L238.684 73.5102L241.327 67.4476L241.658 66.6417L241.958 65.8212L242.221 64.9886L242.45 64.1461L243.456 60.1117L243.717 58.4731L243.687 56.8151L243.373 55.1886L242.781 53.6401L241.498 51.6631L239.766 50.061L237.695 48.9338L235.411 48.347L232.685 47.9988L231.837 47.916L230.985 47.8819L230.135 47.899L229.285 47.9647L226.333 48.2788L223.851 48.4663L221.364 48.498L218.882 48.3738L216.409 48.0962L214.483 47.8211L213.121 47.6044L211.764 47.3512L210.417 47.059L209.078 46.7279L205.792 45.8684L204.08 45.4837L202.343 45.2207L200.594 45.082L198.838 45.0674L197.661 45.099L195.282 45.306L192.943 45.7929L190.68 46.5574L188.522 47.5873L188.198 47.7675L186.379 48.9167L184.706 50.2704L183.203 51.8092L181.89 53.5135L180.604 55.7146L179.632 58.0739L178.996 60.5427L178.706 63.1552L178.726 65.3416L178.984 67.4331L179.474 69.4831L180.187 71.465L180.477 72.1492L181.485 74.2236L182.706 76.1836L184.121 78.0047L185.719 79.6726L187.672 81.5108L188.547 82.307L189.45 83.0715L190.378 83.8068L191.328 84.5104L193.91 86.3511L195.571 87.6172L197.152 88.9831L198.645 90.4439L200.043 91.9949L201.731 94.157L203.239 96.4505L204.552 98.8609L205.665 101.369L205.948 102.085L206.542 103.687L207.063 105.313L207.511 106.961L207.887 108.627L208.966 113.981L209.046 114.395L209.126 114.811L209.204 115.227L209.282 115.646L209.804 118.561L210.405 121.451L211.17 124.302L212.091 127.104L213.172 129.85L213.891 131.54L214.29 132.434L214.721 133.313L215.184 134.175L215.679 135.019L218.092 138.981L218.794 140.335L219.298 141.773L219.598 143.268L219.685 144.79L219.678 145.323L219.283 147.982L218.197 150.439L216.495 152.52L214.302 154.074L212.836 154.695L211.289 155.077L209.704 155.211L208.116 155.092L202.871 154.271L202.423 154.196L201.975 154.115L201.529 154.025L201.086 153.928L192.734 152.019L192.541 151.973L192.283 151.912L186.045 150.407L184.572 149.966L183.149 149.375L181.8 148.635L180.536 147.758L180.173 147.476L178.107 145.491L176.504 143.117L175.437 140.461L174.953 137.639L174.95 135.95L175.157 134.274L175.574 132.638L176.188 131.065L178.546 125.991L178.677 125.714L178.811 125.436L178.945 125.159L179.084 124.884L181.232 120.652L182.153 118.682L182.937 116.654L183.585 114.577L184.094 112.464L184.155 112.157L184.557 109.703L184.757 107.224L184.754 104.741L184.55 102.262L184.177 99.9712L183.634 97.7141L182.92 95.5034L182.041 93.3559L181.875 92.9883L180.855 90.9358L179.695 88.9563L178.402 87.0621L176.982 85.2628L175.822 83.892L174.738 82.6576L173.611 81.4621L172.441 80.3056L171.231 79.1929L168.62 76.875L167.526 75.889L166.447 74.8858L165.385 73.8657L164.338 72.8309L163.724 72.2125L161.666 70.0894L159.668 67.9127L157.73 65.68L155.854 63.3962L154.675 61.8964L153.525 60.3771L152.4 58.8359L151.304 57.2777L150.02 55.42L148.988 53.908L147.972 52.3838L146.971 50.8499L145.987 49.3063L143.914 46.0169L143.324 45.0966L142.72 44.186L142.099 43.2851L141.464 42.3964L139.763 40.0591L138.348 38.2233L136.831 36.4727L135.213 34.8097L133.506 33.2442L131.565 31.6641L129.531 30.2105L127.412 28.8811L125.212 27.6857L123.01 26.5754L122.026 26.0933L121.032 25.6283L120.029 25.1851L119.016 24.7615L117.803 24.2697L114.975 23.006L112.244 21.5476L109.618 19.9042L107.115 18.0829L105.804 17.0141L104.533 15.899L103.307 14.7352L102.126 13.5251L100.265 11.5456L98.9937 10.2601L97.6638 9.03541L96.2754 7.87889L94.831 6.78815L94.3609 6.44966L92.1006 4.96448L89.7305 3.66191L87.2607 2.5541L84.7129 1.64836L82.7058 1.09324L80.6695 0.662283L78.6113 0.355493L76.5361 0.177746L74.5363 0.0682077L72.785 0.00487613L71.0361 0L69.2848 0.0584555L67.5384 0.177746L65.1221 0.38713L63.2344 0.569752L61.3516 0.796202L59.4736 1.06398L57.6005 1.37565L55.6909 1.71407L53.7276 2.08663L51.7742 2.50296L49.8305 2.96312L47.8989 3.46954L46.3619 3.89074L44.3768 4.47025L42.4111 5.11546L40.4698 5.82395L38.5505 6.59821L37.7053 6.95371L35.5837 7.90565L33.5085 8.95019L31.4795 10.0848L29.5041 11.3095L27.4288 12.729L25.4266 14.2482L23.4975 15.86L21.5976 17.613L19.9583 19.2614L18.4433 20.9243L16.9965 22.6481L15.6227 24.4328L15.1502 25.0732L13.8763 26.8651L12.6657 28.7009L11.5185 30.5757L10.437 32.4918L9.93523 33.4146L8.95362 35.304L8.04263 37.225L7.19744 39.1801L6.4253 41.162L5.99417 42.3234L5.31216 44.3102L4.72028 46.3237L4.22091 48.364L3.81417 50.4239L3.61445 51.5657L3.30998 53.6937L3.13216 55.8363L3.07856 57.9862L3.15405 60.1361L3.21497 61.0589L3.43663 63.2404L3.81417 65.3976L4.35001 67.5232L5.03933 69.6049L5.31704 70.3475L6.16467 72.3586L7.1828 74.2893L8.36174 76.1275L9.69405 77.8563L10.1155 78.3602L11.6305 79.9867L13.299 81.4548L15.1039 82.7501L17.0306 83.858L17.4617 84.077L19.4882 84.9755L21.6049 85.6451L23.78 86.0784L25.9893 86.2683L26.2937 86.2756L28.5736 86.2075L30.8267 85.8666L33.0237 85.2555L35.1307 84.3814L37.1499 83.2395L39.0157 81.859L40.6964 80.2594L42.1676 78.465L42.3673 78.1898L43.534 76.3783L44.501 74.4525L45.2585 72.4365L45.7944 70.3499L46.1281 68.6942L46.4228 66.9583L46.6055 65.2077L46.6786 63.4474L46.6421 61.687L46.3839 56.8053L46.3473 56.1577L46.3035 55.5101L46.2523 54.8624L46.1963 54.2148L45.6921 48.7414L45.5825 47.2806L45.5216 45.8149L45.507 44.3491L45.5411 42.8858L45.6629 39.9081L45.8066 38.0504L46.0915 36.2097L46.5154 34.3959L47.0707 32.6184L47.4994 31.4157L48.3592 29.3778L49.4456 27.4495L50.7487 25.6599L52.2443 24.0286L54.1003 22.4436L56.1391 21.107L58.3337 20.0357L60.6647 19.2468L62.8569 18.7817L65.0661 18.5748L67.2826 18.6211L69.4821 18.9181L71.2456 19.259L72.8751 19.6266L74.4803 20.0941L76.0513 20.6565L77.5859 21.3163L80.5599 22.7041L81.9702 23.3371L83.3952 23.9288L84.8371 24.4791L86.2961 24.9904L88.6052 25.7598L90.6074 26.4025L92.6218 27.0015L94.6508 27.5566L96.6919 28.0679L100.677 29.0199L101.373 29.1879L102.068 29.3656L102.762 29.5482L103.454 29.7382L109.928 31.5447L110.673 31.776L111.409 32.0488L112.125 32.3579L112.824 32.7085L114.056 33.3659L116.456 35.063L118.36 37.303L119.649 39.9422L120.246 42.8201L120.263 44.393L120.073 45.956L119.673 47.4802L119.077 48.9362L116.85 53.4673L116.521 54.1173L116.176 54.7601L115.815 55.3956L115.438 56.0214L113.913 58.4902L112.556 60.8008L111.302 63.1698L110.154 65.5924L109.114 68.0637L108.352 70.104L107.663 72.1687L107.049 74.2552L106.51 76.3662L106.23 77.5568L105.78 79.5801L105.385 81.6155L105.047 83.6583L104.762 85.7108L104.24 89.8596L104.155 90.5584L104.072 91.2547L103.992 91.9535L103.916 92.6498L103.68 94.8679L103.337 97.8992L102.954 100.926L102.538 103.95L102.08 106.966L101.792 108.758L101.49 110.55L101.174 112.337L100.845 114.124L100.214 117.492L99.9705 118.809L99.7415 120.128L99.5247 121.451L99.3201 122.775L98.8305 126.05L98.5748 127.903L98.3653 129.763L98.2021 131.625L98.0828 133.493L97.9926 135.239L97.9244 137.352L97.9391 139.465L98.0365 141.579L98.2143 143.687L98.3604 145.092L98.6211 147.101L98.9816 149.095L99.4419 151.069L99.9997 153.017L100.579 154.868L101.191 156.599L101.919 158.284L102.762 159.915L103.714 161.485L104.698 162.983L105.916 164.633L107.312 166.141L108.863 167.482L110.554 168.648L110.934 168.88L113.05 169.978L115.301 170.769L117.639 171.236L120.019 171.375L122.204 171.21L124.35 170.764L126.42 170.046L128.381 169.07L129.713 168.295L131.158 167.382L132.532 166.365L133.825 165.245L135.031 164.032L138.818 159.932L139.045 159.688L139.271 159.447L139.498 159.206L139.729 158.968L143.624 154.933L144.857 153.748L146.172 152.657L147.563 151.666L149.024 150.78L150.257 150.093L152.347 149.1L154.546 148.386L156.821 147.963L159.133 147.836L161.383 147.999L163.595 148.447L165.731 149.168L167.762 150.154L168.427 150.529L170.145 151.615L171.747 152.864L173.223 154.261L174.553 155.795L175.213 156.635L176.492 158.41L177.617 160.285L178.584 162.247L179.383 164.283L180.156 166.523L180.594 167.869L180.986 169.233L181.33 170.608L181.622 171.994L182.701 177.555L182.818 178.159L182.93 178.767L183.039 179.373L183.147 179.982L184.33 186.821L184.457 187.593L184.572 188.363L184.676 189.137L184.769 189.911L185.246 194.225L185.383 196.12L185.368 198.019L185.207 199.911L184.896 201.783L184.744 202.523L184.109 204.892L183.2 207.173L182.033 209.331L180.621 211.339L179.152 213.002L177.518 214.5L175.735 215.817L173.82 216.939L172.327 217.711L170.802 218.446L169.236 219.089L167.636 219.639L166.006 220.095L161.505 221.212L160.691 221.41L159.878 221.595L159.059 221.772L158.241 221.938L154.461 222.683L152.407 223.138L150.381 223.686L148.381 224.331L146.413 225.069L143.924 226.16L141.503 227.399L139.164 228.784L136.914 230.306L135.545 231.295L134.527 232.047L133.525 232.821L132.539 233.617L131.572 234.435L127.046 238.341L126.581 238.743L126.121 239.144L125.66 239.548L125.202 239.955L121.617 243.14L120.243 244.391L118.901 245.677L117.593 246.996L116.317 248.348L115.722 248.99L114.027 250.907L112.412 252.888L110.875 254.936L109.426 257.042L108.201 258.975L107.044 260.95L105.962 262.966L104.952 265.018L104.635 265.695L103.734 267.694L102.893 269.718L102.114 271.768L101.395 273.837L100.616 276.206L100.146 277.545L99.6294 278.867L99.0644 280.168L98.4506 281.448L97.8757 282.595L96.536 284.998L94.9918 287.277L93.2527 289.41L91.3357 291.384L89.8329 292.716L88.2472 293.948L86.586 295.076L84.8566 296.096L81.3857 298L80.6379 298.404L79.8804 298.798L79.1204 299.181L78.3556 299.555L74.0881 301.598L72.5926 302.299L71.0849 302.976L69.5674 303.626L68.0377 304.252L65.0393 305.394L62.0019 306.439L58.9353 307.383L55.8322 308.231L54.2343 308.625L52.6364 308.99L51.0337 309.329L49.4237 309.643L45.0271 310.461L44.0504 310.641L43.0712 310.816L42.0921 310.987L41.1104 311.155L35.4351 312.112L34.4511 312.282L33.4695 312.46L32.4879 312.645L31.5087 312.84L27.2315 313.709L25.585 314.072L23.9505 314.488L22.3308 314.955L20.7256 315.476L18.4238 316.265L16.6068 316.949L14.8335 317.741L13.1138 318.642L11.4502 319.642L9.94011 320.614L8.33979 321.748L6.84668 323.022L5.4729 324.419L4.22823 325.936L3.33187 327.132L2.22361 328.821L1.33457 330.633L0.679332 332.544L0.265272 334.521L0.136176 335.417L-0.000237479 337.53L0.197036 339.639L0.723177 341.691L1.56837 343.634L2.82768 345.582L4.40361 347.282L6.24992 348.684L8.31058 349.748L10.2957 350.391L12.3563 350.717L14.4413 350.719L16.5044 350.401L17.7467 350.108L19.5151 349.59L21.2201 348.889L22.8398 348.01L24.3573 346.965L27.4921 344.555L28.2472 343.958L28.9853 343.34L29.7087 342.704L30.4126 342.047L32.9117 339.656L34.4998 338.171L36.1196 336.72L37.7686 335.303L39.4517 333.925L40.3018 333.24L41.9825 331.916L43.685 330.621L45.4095 329.354L47.156 328.118L49.2288 326.676L50.4369 325.844L51.6499 325.023L52.8703 324.212L54.1003 323.414L56.3217 321.98L58.0804 320.869L59.8633 319.796L61.6682 318.758L63.4926 317.758L65.96 316.479L68.4615 315.267L70.9947 314.125L73.5571 313.051L75.4619 312.284L76.4411 311.895L77.4276 311.515L78.4189 311.15L79.4127 310.794L83.4268 309.382L85.0028 308.793L86.5543 308.138L88.0767 307.422L89.5674 306.643L90.3639 306.207L92.6608 304.834L94.8456 303.29L96.9087 301.586L98.8354 299.731L100.248 298.173L101.563 296.534L102.781 294.82L103.894 293.035L104.589 291.845L105.578 290.06L106.491 288.231L107.322 286.366L108.069 284.467L109.959 279.342L110.047 279.106L111.747 274.443L112.59 272.274L113.528 270.144L114.556 268.057L115.671 266.014L116.967 263.877L118.363 261.8L119.851 259.791L121.432 257.853L122.319 256.816L123.412 255.564L124.538 254.342L125.692 253.147L126.876 251.978L131.28 247.734L131.438 247.581L131.65 247.379L136.799 242.475L137.688 241.669L138.616 240.91L139.581 240.194L140.577 239.527L143.814 237.476L145.249 236.705L146.781 236.145L148.376 235.806L150.003 235.702L151.984 235.711L153.696 235.921L155.316 236.52L156.753 237.472L157.937 238.728L158.918 240.517L159.379 242.507L159.284 244.547L158.638 246.483L158.499 246.768L157.637 248.138L156.517 249.309L155.184 250.23L153.691 250.863L148.106 252.587L147.843 252.672L144.915 253.641L141.992 254.758L139.186 256.139L136.514 257.768L134.003 259.633L132.758 260.699L131.565 261.824L130.427 263.005L129.348 264.237L128.471 265.289L126.903 267.271L125.441 269.33L124.087 271.466L122.823 273.713L121.797 275.751L120.891 277.786L120.075 279.861L119.352 281.967L117.956 286.366L117.859 286.671L117.761 286.975L117.661 287.279L117.559 287.581L115.927 292.434L115.243 294.287L114.449 296.093L113.547 297.851L112.544 299.553L110.951 301.856L109.168 304.016L107.21 306.017L105.088 307.848L104.737 308.123L103.344 309.173L101.9 310.154L100.409 311.06L98.8768 311.895L95.8954 313.424L94.6118 314.067L93.3136 314.683L92.0031 315.272L90.6805 315.834L86.2572 317.663L85.3048 318.069L84.3622 318.503L83.4292 318.958L82.5085 319.438L79.8268 320.877L77.8831 322.038L76.0538 323.372L74.3536 324.867L72.7996 326.513L71.3089 328.42L70.0131 330.465L68.9243 332.627L68.0523 334.886L67.7113 335.919L67.1974 337.635L66.7882 339.378L66.4837 341.141L66.284 342.921L65.8066 348.703L65.7871 348.932L65.7603 349.237L65.5557 351.503L65.183 355.088L64.7105 358.661L64.1429 362.219L63.4755 365.76L63.3879 366.199L63.1881 367.212L62.9981 368.226L62.8179 369.242L62.6474 370.26L62.2163 372.904L61.8606 375.361L61.5927 377.829L61.41 380.304L61.3126 382.905L61.3029 385.27L61.3711 387.516L61.5148 389.758L61.7315 391.994L61.8899 393.37L62.1456 395.266L62.4744 397.15L62.8763 399.021L63.3513 400.874L63.7946 402.475L64.4133 404.474L65.1489 406.432L65.999 408.344L66.9611 410.201L67.2388 410.698L68.4932 412.761L69.9011 414.722L71.4575 416.569L73.1479 418.292L74.9163 419.839L76.7942 421.25L78.7697 422.517L80.8376 423.633L82.0433 424.228L83.6582 424.981L85.3048 425.662L86.9781 426.269L88.6783 426.803L92.1298 427.803L93.3647 428.151L94.6045 428.479L95.8492 428.787L97.0987 429.075L99.4955 429.609L101.805 430.087L104.123 430.497L106.454 430.84L108.795 431.115L109.411 431.178L111.579 431.367L113.75 431.489L115.925 431.544L118.1 431.532L120.777 431.476L122.126 431.474L123.475 431.523L124.822 431.623L126.165 431.774L127.726 431.98L130.303 432.445L132.821 433.155L135.262 434.102L137.6 435.278L139.388 436.378L141.086 437.613L142.684 438.974L144.175 440.453L146.795 443.265L147.339 443.869L147.857 444.492L148.352 445.135L148.822 445.795L152.052 450.514L152.605 451.502L152.973 452.573L153.145 453.693L153.114 454.824L153.019 455.619L152.493 457.385L151.397 458.868L149.864 459.892L148.077 460.336L146.605 460.238L145.217 459.742L144.016 458.887L143.096 457.738L140.477 453.354L140.304 453.053L140.082 452.646L137.856 448.27L136.887 446.758L135.637 445.469L134.156 444.452L132.502 443.75L131.414 443.411L129.755 443.11L128.072 443.222L126.469 443.739L125.039 444.63L123.739 446.021L122.869 447.714L122.496 449.581L122.652 451.478L123.32 454.465L123.58 455.433L123.921 456.376L124.34 457.286L124.837 458.158L126.328 460.537L127.185 462.336L127.609 464.284L127.58 466.277L127.059 468.31L126.006 470.314L124.533 471.893L122.706 473.041L120.643 473.681L118.419 473.762L116.256 473.253L114.302 472.189L112.702 470.646L110.274 467.583L110.011 467.232L109.765 466.867L109.538 466.49L109.331 466.103L108.544 464.536L106.856 462.384L104.462 461.059L101.744 460.769L99.1253 461.56L98.7526 461.775L98.397 462.012L98.056 462.27L97.732 462.55L91.2821 468.462L91.1628 468.571L85.4899 473.808L84.7567 474.479L84.0187 475.143L83.2758 475.802L82.5256 476.454L79.6611 478.931L78.1826 480.249L76.7504 481.614L75.3596 483.023L74.015 484.476L73.3404 485.228L71.801 487.028L70.3444 488.898L68.9755 490.833L67.6943 492.836L66.4618 494.981L65.3365 497.174L64.3183 499.419L63.4122 501.71L62.6425 503.959L61.9775 506.24L61.4198 508.551L60.9692 510.884L60.8888 511.362L60.5672 513.563L60.3432 515.776L60.2165 517.996L60.1897 520.22L60.197 521.134L60.275 523.294L60.4625 525.447L60.7621 527.588L61.1713 529.71L61.3759 530.633L61.9142 532.76L62.5914 534.847L63.3976 536.888L64.3329 538.873L64.6544 539.501L65.7579 541.472L67.0098 543.353L68.3982 545.134L69.9206 546.804L70.6148 547.51L72.0957 548.896L73.6911 550.152L75.3864 551.268L77.1718 552.237L78.1924 552.736L80.1751 553.572L82.2406 554.177L84.3622 554.546L86.5105 554.673L88.9974 554.516L91.4404 554.036L93.8007 553.24L96.0465 552.137L97.8221 550.984L99.4492 549.649L100.92 548.143L102.216 546.485L102.957 545.421L104.021 543.756L104.949 542.012L105.738 540.199L106.379 538.33L106.545 537.77L107.158 535.332L107.555 532.85L107.731 530.343L107.687 527.83L107.575 526.027L107.468 524.696L107.317 523.37L107.119 522.05L106.876 520.737L106.177 517.286L105.87 515.548L105.653 513.797L105.524 512.037L105.487 510.273L105.495 508.801L105.604 506.517L105.914 504.253L106.42 502.023L107.119 499.847L108.077 497.588L109.243 495.429L110.605 493.388L112.154 491.484L112.446 491.158L113.881 489.666L115.42 488.283L117.057 487.015L118.782 485.869L121.907 483.951L122.694 483.478L123.488 483.018L124.291 482.573L125.1 482.141L126.878 481.211L129.506 479.881L132.169 478.62L134.865 477.43L137.591 476.311L138.119 476.102L139.627 475.517L141.144 474.952L142.667 474.407L144.196 473.882L148.873 472.313L149.618 472.064L150.364 471.817L151.112 471.571L151.859 471.327L156.914 469.688L158.273 469.252L159.634 468.825L160.998 468.407L162.365 467.997L165.67 467.018L167.314 466.517L168.951 465.991L170.581 465.439L172.2 464.862L172.456 464.769L175.262 463.699L178.039 462.551L180.782 461.324L183.49 460.02L185.568 458.983L186.191 458.679L186.817 458.385L187.451 458.103L188.089 457.832L192.281 456.094L194.032 455.47L195.842 455.031L197.686 454.779L199.544 454.719L200.207 454.732L202.586 454.957L204.903 455.535L207.11 456.454L209.151 457.692L210.763 459.01L212.188 460.527L213.404 462.217L214.388 464.051L215.165 465.757L215.805 467.318L216.331 468.922L216.736 470.56L217.021 472.224L217.627 476.801L217.751 477.628L217.898 478.451L218.07 479.269L218.268 480.082L219.203 483.713L219.841 485.622L220.733 487.425L221.868 489.087L223.22 490.578L225.095 492.1L227.197 493.291L229.467 494.118L231.898 494.565L233.944 494.637L235.927 494.437L237.863 493.974L239.724 493.256L241.826 492.277L243.207 491.577L244.54 490.787L245.819 489.911L247.034 488.952L250.639 485.908L251.355 485.291L252.064 484.664L252.763 484.025L253.45 483.374L258.794 478.235L259.028 478.012L259.342 477.717L263.685 473.699L265.007 472.595L266.437 471.632L267.957 470.821L269.55 470.169L269.813 470.077L272.337 469.419L274.933 469.179L277.535 469.364L280.072 469.969L281.817 470.654L283.47 471.539L285.008 472.611L286.411 473.856L288.926 476.367L289.705 477.174L290.455 478.009L291.173 478.87L291.86 479.756L295.539 484.69L295.937 485.228L296.33 485.768L296.718 486.313L297.102 486.86L300.064 491.123L300.941 492.458L301.746 493.837L302.478 495.257L303.135 496.713L303.997 498.769L304.694 500.706L305.187 502.706L305.47 504.745L305.539 506.803L305.529 507.389L305.339 509.671L304.855 511.908L304.085 514.065L303.042 516.103L301.748 517.984L300.223 519.682L298.49 521.169L296.58 522.42L295.683 522.928L294.035 523.77L292.321 524.467L290.553 525.014L288.745 525.408L283.003 526.403L282.848 526.429L278.257 527.203L275.811 527.695L273.402 528.341L271.037 529.137L268.729 530.082L266.664 531.076L264.662 532.188L262.728 533.414L260.869 534.75L257.476 537.34L257.142 537.596L256.811 537.854L256.48 538.113L256.151 538.375L252.661 541.164L250.904 542.495L249.085 543.736L247.205 544.883L245.268 545.934L242.92 547.045L240.511 548.014L238.049 548.838L235.54 549.513L235.148 549.607L233.162 550.034L231.16 550.374L229.143 550.628L227.119 550.794L222.45 551.076L221.97 551.106L221.49 551.139L221.013 551.173L220.533 551.21L218.794 551.349L215.318 551.697L211.857 552.19L208.42 552.825L205.012 553.602L203.704 553.94L202.404 554.298L201.108 554.677L199.819 555.077L194.414 556.8L193.764 557.011L193.116 557.226L192.468 557.447L191.825 557.674L188.142 558.984L186.067 559.781L184.038 560.682L182.055 561.685L180.126 562.787L177.966 564.183L175.891 565.703L173.908 567.342L172.025 569.094L170.008 571.082L169.407 571.684L168.812 572.293L168.225 572.91L167.645 573.534L164.391 577.084L163.278 578.234L162.099 579.32L160.864 580.34L159.573 581.289L158.107 582.306L156.193 583.486L154.161 584.451L152.035 585.191L149.843 585.695L147.48 585.967L145.103 585.967L142.74 585.694L140.426 585.153L140.146 585.07L138.097 584.354L136.129 583.439L134.261 582.334L132.512 581.051L132.042 580.67L130.361 579.173L128.82 577.53L127.434 575.755L126.213 573.863L125.87 573.276L124.852 571.363L123.977 569.379L123.256 567.334L122.691 565.242L122.538 564.572L122.107 562.331L121.836 560.066L121.724 557.787L121.773 555.505L121.841 554.332L122.024 552.428L122.353 550.544L122.828 548.691L123.441 546.88L124.153 545.03L124.913 543.34L125.863 541.747L126.988 540.274L128.274 538.937L128.812 538.439L130.603 537.031L132.597 535.93L134.743 535.165L136.987 534.757L139.14 534.709L141.278 534.991L143.346 535.596L145.3 536.509L147.224 537.597L148.432 538.335L149.589 539.153L150.688 540.046L151.725 541.012L154.488 543.766L155.567 544.788L156.692 545.756L157.863 546.668L159.079 547.521L160.022 548.148L162.321 549.506L164.752 550.612L167.285 551.452L169.894 552.018L171.925 552.261L173.971 552.338L176.015 552.247L178.044 551.99L180.46 551.582L182.002 551.291L183.531 550.939L185.047 550.527L186.544 550.056L189.036 549.218L190.87 548.565L192.683 547.851L194.468 547.075L196.227 546.238L197.581 545.565L199.525 544.66L201.51 543.855L203.536 543.153L205.592 542.553L208.181 541.957L210.802 541.525L213.447 541.258L216.102 541.159L220.492 541.132L226.98 541.114L228.566 541.048L230.14 540.859L231.694 540.549L233.218 540.118L234.814 539.6L236.855 538.766L238.75 537.639L240.46 536.245L241.941 534.614L243.232 532.667L244.201 530.541L244.827 528.291L245.09 525.97L245.105 525.609L245.037 523.495L244.693 521.408L244.075 519.385L243.198 517.461L242.808 516.742L241.666 514.885L240.316 513.172L238.779 511.624L237.074 510.262L235.908 509.435L234.327 508.402L232.673 507.49L230.956 506.705L229.185 506.051L224.07 504.378L223.807 504.29L223.546 504.199L223.288 504.105L223.03 504.007L219.288 502.102L216.012 499.483L213.331 496.255L211.343 492.527L211.189 492.139L211.053 491.775L210.922 491.409L210.797 491.04L209.17 486.023L208.666 484.275L208.274 482.499L207.999 480.701L207.84 478.889L207.628 475.008L207.514 473.957L207.29 472.924L206.959 471.921L206.523 470.958L204.645 468.415L202.068 466.584L199.047 465.648L195.888 465.7L194.821 465.888L194.198 466.016L193.581 466.179L192.977 466.375L192.383 466.604L184.576 469.871L182.754 470.648L181.052 472L180.28 474.032L180.655 476.173Z" fill="#190B2F"/>
</svg>
