<svg width="380" height="404" viewBox="0 0 380 404" fill="none" xmlns="http://www.w3.org/2000/svg">
<path d="M241.092 61.7881L240.175 60.2728L239.917 59.3897L239.575 58.3159L238.654 55.6032L237.639 52.9215L236.531 50.2791L235.33 47.6764L235.024 47.0407L234.933 46.8534L234.844 46.6662L234.755 46.4789L234.665 46.2917L233.04 42.8437L232.495 41.6428L231.989 40.4247L231.52 39.1912L231.088 37.9439L230.721 36.8255L230.284 35.3755L229.918 33.9049L229.625 32.4189L229.406 30.919L229.334 30.3263L229.19 28.7372L229.144 27.1428L229.195 25.5468L229.346 23.9594L229.379 23.6896L229.643 22.0456L230.02 20.4237L230.508 18.8329L231.138 17.2008L231.863 15.6409L232.662 14.2097L233.559 12.8405L234.605 11.4747L235.76 10.169L236.952 9.01454L238.228 7.95449L239.627 6.96497L241.094 6.08358L242.58 5.34654L244.118 4.72641L245.719 4.22472L247.384 3.8433L249.053 3.60106L250.739 3.49457L252.424 3.52553L254.091 3.69044L255.736 3.98765L257.353 4.41544L258.932 4.97037L259.224 5.08718L260.631 5.70216L261.993 6.41176L263.304 7.21057L264.558 8.09539L265.386 8.72241L266.438 9.55571L267.453 10.4353L268.427 11.3579L269.362 12.3234L270.673 13.7424L271.42 14.5671L272.15 15.4089L272.863 16.2662L273.556 17.1372L275.902 20.1506L276.153 20.4736L276.404 20.7983L276.653 21.1247L276.901 21.4494L278.07 22.987L279.323 24.6208L280.592 26.2409L281.879 27.8489L283.216 29.4862L284.094 30.5445L284.942 31.553L285.796 32.5545L286.659 33.551L287.623 34.6591L288.524 35.7071L289.414 36.7654L290.294 37.8323L291.162 38.9077L292.426 40.5192L293.666 42.1496L294.879 43.7989L296.067 45.4687L297.133 46.9926L297.393 47.3654L297.652 47.7383L297.912 48.1127L298.168 48.4873L300.325 51.6347L300.939 52.5142L301.566 53.3819L302.207 54.2409L302.861 55.0896L304.086 56.6529L304.945 57.7095L305.842 58.7351L306.773 59.7282L307.74 60.6885L308.821 61.7245L309.785 62.6006L310.793 63.4236L311.843 64.1915L312.932 64.9028L314.296 65.7429L315.422 66.3717L316.595 66.9008L317.81 67.3303L319.055 67.655L320.113 67.8835L321.558 68.0965L323.019 68.1189L324.468 67.9505L325.884 67.5931L326.137 67.5124L327.609 66.9077L328.971 66.0831L330.191 65.0574L331.239 63.8582L332.076 62.5319L332.705 61.0939L333.107 59.5787L333.275 58.0187L333.299 57.2027L333.275 55.9107L333.122 54.6257L332.84 53.3647L332.433 52.1363L330.937 48.276L330.875 48.1196L329.595 44.8932L329.028 43.3487L328.542 41.7767L328.14 40.1808L327.82 38.5624L327.573 36.8221L327.423 35.0732L327.372 33.3191L327.417 31.565L327.551 29.9174L327.769 28.2801L328.073 26.6566L328.478 24.9919L328.98 23.3083L329.549 21.7088L330.201 20.142L330.94 18.5993L331.758 17.096L332.648 15.6443L333.612 14.2424L334.649 12.8886L335.759 11.5881L336.933 10.3494L338.168 9.17085L339.482 8.04558L340.832 7.00101L342.215 6.04066L343.645 5.15247L345.117 4.3381L345.77 3.99797L346.997 3.39839L348.254 2.86574L349.538 2.39847L350.843 1.9982L352.386 1.57041L353.594 1.28353L354.82 1.09454L356.059 1L357.299 1.00172L358.811 1.06357L360.172 1.20963L361.502 1.53265L362.778 2.02909L363.976 2.69051L365.489 3.87083L366.759 5.3105L367.74 6.95809L368.401 8.76026L368.693 9.86488L368.884 10.6861L369.021 11.5193L369.106 12.3577L369.136 13.2013L369.14 14.1547L369.3 16.1958L369.753 18.192L370.49 20.1008L371.497 21.8823L371.846 22.4046L372.425 23.1948L373.076 23.9284L373.789 24.5985L374.562 25.2015L376.268 26.7082L377.617 28.5413L378.548 30.6183L379.017 32.8466L379.128 33.9495L379.158 34.2726L379.178 34.5955L379.19 34.9202L379.195 35.2432L379.207 41.2098V41.4006V41.653L379.197 47.7451V48.0389L379.195 48.3327V48.6264L379.194 48.9202L379.163 54.0879L379.159 54.6446L379.158 55.2012V55.7579V56.3144L379.17 61.5956V61.8327L379.166 62.0698L379.161 62.3069L379.154 62.5439L379.036 66.071L378.905 67.4695L378.611 68.8422L378.156 70.1719L377.548 71.4363L376.522 72.9842L375.268 74.3517L373.815 75.5062L372.2 76.422L371.382 76.8034L370.497 77.1814L369.592 77.5008L368.666 77.7603L367.726 77.9579L363.58 78.6898L363.235 78.7636L362.897 78.8615L362.565 78.9835L362.242 79.1278L359.217 80.6174L358.457 81.2289L358.031 82.1068L358.023 83.0809L358.43 83.9674L358.816 84.3609L359.287 84.6478L359.815 84.8092L360.364 84.8385L364.876 84.5034L365.297 84.4811L365.719 84.476L366.14 84.4862L366.563 84.5137L368.58 84.6872L370.387 85.0206L372.097 85.6957L373.645 86.687L374.974 87.9566L375.71 88.9307L376.314 89.9924L376.78 91.1229L377.096 92.3032L377.383 93.7428L377.592 95.1121L377.675 96.4933L377.63 97.8763L377.46 99.2508L377.333 99.9981L376.979 101.543L376.455 103.039L375.77 104.468L374.931 105.814L373.863 107.15L372.643 108.349L371.289 109.396L369.82 110.272L369.626 110.371L368.288 110.983L366.895 111.462L365.462 111.806L364.003 112.007L362.383 112.151L361.306 112.223L360.225 112.244L359.146 112.215L358.071 112.137L354.544 111.801L353.97 111.749L353.396 111.708L352.821 111.675L352.245 111.651L349.113 111.546L347.842 111.553L346.574 111.655L345.316 111.852L344.079 112.146L342.922 112.467L341.54 112.942L340.229 113.581L339.006 114.376L337.888 115.314L336.709 116.609L335.733 118.063L334.981 119.645L334.466 121.322L334.232 122.731L334.168 124.155L334.273 125.577L334.548 126.976L334.682 127.493L335.184 129.032L335.876 130.496L336.744 131.862L337.778 133.109L338.9 134.167L340.14 135.085L341.482 135.848L342.906 136.445L345.76 137.449L346.072 137.557L346.383 137.66L346.698 137.758L347.012 137.853L350.417 138.854L351.659 139.263L352.874 139.751L354.056 140.316L355.198 140.955L356.215 141.569L357.415 142.374L358.528 143.293L359.545 144.321L360.455 145.443L361.198 146.458L361.864 147.504L362.393 148.626L362.775 149.808L363.002 151.028L363.072 151.596L363.11 153.205L362.84 154.79L362.268 156.295L361.419 157.661L360.45 158.723L359.313 159.602L358.042 160.274L356.674 160.716L352.92 161.581L352.161 161.762L349.376 162.595L346.701 163.732L344.169 165.16L341.76 166.899L341.405 167.192L341.102 167.45L340.805 167.713L340.511 167.981L338.259 170.084L337.166 170.977L335.967 171.723L334.68 172.305L333.33 172.718L331.648 172.977L329.945 172.972L328.265 172.7L326.649 172.171L323.561 170.886L317.469 168.366L317.286 168.29L317.042 168.191L315.162 167.442L313.087 166.519L311.089 165.44L309.178 164.21L307.369 162.837L306.819 162.387L306.244 161.896L305.687 161.384L305.151 160.851L304.634 160.298L302.631 158.075L301.846 157.307L300.97 156.644L300.014 156.099L298.999 155.68L297.845 155.287L296.481 154.99L295.086 155.008L293.73 155.342L292.485 155.972L291.313 156.979L290.428 158.245L289.887 159.693L289.727 161.272L289.906 162.674L290.375 163.963L291.11 165.121L292.081 166.09L293.637 167.34L294.385 167.888L295.175 168.368L296.006 168.776L296.869 169.112L301.3 170.611L301.526 170.689L301.829 170.795L307.227 172.726L307.649 172.874L308.072 173.018L308.496 173.161L308.922 173.297L312.977 174.583L313.777 174.863L314.561 175.193L315.324 175.57L316.061 175.99L316.89 176.499L318.478 177.672L319.837 179.102L320.928 180.748L321.716 182.555L322.068 183.852L322.264 185.18L322.302 186.522L322.18 187.858L321.953 189.367L321.715 190.636L321.381 191.887L320.96 193.109L320.448 194.296L319.814 195.634L319.189 196.873L318.504 198.077L317.756 199.247L316.954 200.377L316.177 201.413L315.324 202.513L314.432 203.581L313.506 204.621L312.544 205.626L312.097 206.076L310.864 207.273L309.582 208.418L308.254 209.509L306.881 210.543L305.479 211.514L304.038 212.426L302.562 213.28L301.052 214.072L300.02 214.587L298.991 215.087L297.951 215.566L296.901 216.023L295.843 216.46L292.191 217.92L291.892 218.038L291.593 218.157L291.294 218.276L290.993 218.392L285.645 220.481L285.42 220.569L285.195 220.657L284.97 220.743L284.745 220.83L280.189 222.589L279.488 222.859L278.785 223.127L278.082 223.393L277.38 223.656L273.001 225.294L272.676 225.414L272.353 225.536L272.028 225.654L271.704 225.775L267.269 227.407L266.589 227.659L265.909 227.914L265.23 228.173L264.553 228.434L261.734 229.532L260.624 229.975L259.523 230.439L258.429 230.92L257.343 231.42L255.602 232.241L254.46 232.803L253.335 233.403L252.232 234.038L251.149 234.708L249.964 235.469L248.77 236.284L247.622 237.161L246.525 238.101L245.48 239.099L244.975 239.608L243.891 240.788L242.896 242.044L241.998 243.372L241.2 244.762L240.438 246.372L239.811 248.04L239.323 249.754L238.974 251.527L238.787 253.111L238.715 254.683L238.756 256.255L238.91 257.82L239.079 259.057L239.263 260.246L239.495 261.427L239.771 262.596L240.096 263.754L241.144 267.24L241.259 267.629L241.371 268.017L241.479 268.405L241.585 268.795L242.492 272.192L242.784 273.423L243.004 274.669L243.152 275.925L243.228 277.186L243.271 278.591L243.247 280.008L243.085 281.417L242.79 282.802L242.364 284.154L242.025 285.07L241.45 286.363L240.714 287.571L239.829 288.676L238.811 289.658L238.259 290.126L237.082 290.969L235.784 291.608L234.399 292.029L232.878 292.225L231.238 292.163L229.719 291.813L228.291 291.191L227.003 290.316L225.97 289.305L225.123 288.133L224.489 286.832L224.087 285.444L223.866 284.331L223.696 283.175L223.644 282.008L223.708 280.84L223.89 279.685L224.648 276.069L224.725 275.684L224.799 275.298L224.866 274.911L224.928 274.523L225.287 272.204L225.503 270.393L225.591 268.57L225.549 266.745L225.379 264.928L225.134 263.395L224.799 261.882L224.373 260.389L223.859 258.925L223.452 257.872L222.964 256.673L222.433 255.491L221.857 254.331L221.241 253.192L220.66 252.163L219.882 250.835L219.066 249.531L218.208 248.253L217.315 247L216.997 246.568L216.016 245.284L214.992 244.033L213.927 242.821L212.819 241.644L212.664 241.486L211.46 240.297L210.211 239.154L208.919 238.062L207.584 237.019L206.186 236.01L204.75 235.059L203.276 234.162L201.741 233.311L200.231 232.545L198.721 231.849L197.187 231.21L195.629 230.628L195.393 230.545L193.844 230.028L192.277 229.566L190.696 229.161L189.102 228.809L188.587 228.706L187.087 228.432L185.577 228.216L184.061 228.058L182.539 227.958L181.622 227.915L180.191 227.883L178.76 227.919L177.33 228.022L175.908 228.192L174.855 228.343L173.441 228.594L172.047 228.936L170.678 229.367L169.34 229.886L168.488 230.25L167.159 230.886L165.891 231.635L164.694 232.492L163.575 233.451L163.207 233.796L162.1 234.952L161.127 236.223L160.299 237.593L159.625 239.044L159.093 240.642L158.748 242.291L158.596 243.968L158.637 245.652L158.708 246.507L158.852 247.741L159.08 248.961L159.39 250.162L159.781 251.34L161.115 254.941L161.207 255.188L161.3 255.434L161.396 255.682L161.492 255.925L162.695 258.961L163.236 260.394L163.729 261.844L164.174 263.309L164.57 264.787L164.992 266.627L165.338 268.482L165.608 270.35L165.809 272.303L165.914 273.834L165.969 275.293L165.979 276.753L165.946 278.211L165.865 280.321L165.825 281.237L165.775 282.151L165.715 283.066L165.645 283.979L165.355 287.501L165.294 288.25L165.236 288.999L165.18 289.748L165.127 290.499L164.796 295.22L164.774 295.536L164.751 295.85L164.727 296.166L164.703 296.482L164.4 300.324L164.294 301.507L164.162 302.689L164.005 303.868L163.822 305.043L163.6 306.376L163.313 307.909L162.964 309.429L162.554 310.934L162.083 312.422L161.961 312.781L161.387 314.346L160.738 315.884L160.016 317.387L159.222 318.856L158.971 319.294L158.196 320.572L157.357 321.809L156.457 323.001L155.497 324.149L154.782 324.96L153.841 325.961L152.836 326.901L151.773 327.772L150.656 328.575L149.8 329.148L148.52 329.92L147.173 330.569L145.772 331.088L144.328 331.473L144.095 331.523L142.376 331.791L140.637 331.856L138.903 331.719L137.197 331.378L135.659 330.887L134.183 330.232L132.787 329.42L131.488 328.461L130.734 327.841L129.765 326.985L128.856 326.068L128.01 325.092L127.232 324.061L126.353 322.812L125.592 321.679L124.882 320.51L124.224 319.311L123.621 318.086L123.464 317.748L122.723 316.031L122.074 314.279L121.521 312.494L121.065 310.682L120.953 310.183L120.691 308.909L120.47 307.627L120.292 306.338L120.156 305.045L119.816 301.202L119.799 300.999L119.783 300.798L119.768 300.595L119.754 300.394L119.507 296.649L119.478 295.309L119.567 293.971L119.774 292.646L120.097 291.344L120.799 289.444L121.747 287.655L122.925 286.008L124.311 284.532L124.703 284.166L125.501 283.467L126.341 282.817L127.22 282.223L128.134 281.683L130.563 280.347L131.406 279.861L132.227 279.338L133.025 278.78L133.799 278.191L135.43 276.89L136.469 275.969L137.406 274.942L138.229 273.824L138.929 272.623L139.417 271.674L139.972 270.37L140.329 268.998L140.481 267.587L140.425 266.17L140.329 265.325L140.044 263.964L139.511 262.681L138.75 261.516L137.728 260.464L136.36 259.518L134.884 258.932L133.316 258.686L131.731 258.793L130.491 259.133L129.332 259.691L128.292 260.449L127.404 261.38L125.58 263.675L125.322 264.009L125.073 264.352L124.834 264.701L124.605 265.057L123.132 267.415L122.233 268.656L121.172 269.762L119.969 270.712L118.647 271.489L117.18 272.094L115.643 272.482L114.065 272.65L112.48 272.592L110.288 272.355L109.671 272.277L109.057 272.18L108.447 272.063L107.841 271.923L103.649 270.894L103.022 270.736L102.396 270.571L101.773 270.4L101.151 270.219L99.6735 269.785L97.7756 269.176L95.9094 268.477L94.079 267.689L92.2887 266.814L90.9303 266.108L90.3443 265.818L89.7486 265.546L89.1439 265.295L88.5311 265.065L85.8561 264.113L84.662 263.778L83.4331 263.612L82.193 263.615L80.965 263.787L79.18 264.165L78.209 264.479L77.3242 264.988L76.5637 265.668L75.9603 266.491L75.4312 267.802L75.298 269.209L75.5719 270.595L76.2702 271.901L77.1359 272.846L78.1483 273.516L79.2901 273.928L80.4969 274.061L84.6164 274.018L84.7795 274.016L86.9644 274.037L89.1429 274.15L91.3043 274.446L93.433 274.921L95.5823 275.6L96.711 275.98L97.7871 276.287L98.8764 276.543L99.976 276.751L102.69 277.196L103.587 277.387L104.464 277.66L105.31 278.016L106.12 278.447L107.75 279.663L109.095 281.189L110.095 282.958L110.709 284.898L111.052 286.563L111.127 286.954L111.19 287.348L111.242 287.743L111.282 288.14L111.761 293.68L111.782 293.917L111.806 294.154L111.831 294.392L111.858 294.627L112.118 296.812L112.251 298.809L112.176 300.807L111.894 302.786L111.409 304.725L110.969 306L110.44 307.242L109.826 308.445L109.13 309.599L107.236 312.504L107.049 312.79L106.859 313.073L106.668 313.357L106.474 313.637L103.969 317.229L103.454 317.971L102.941 318.715L102.431 319.461L101.923 320.208L99.083 324.398L95.7881 329.257L95.5093 329.671L95.233 330.086L94.9593 330.504L94.688 330.923L92.9762 333.588L92.2696 334.734L91.6051 335.904L90.9837 337.096L90.4059 338.31L89.6086 340.209L88.918 342.148L88.3363 344.122L87.8653 346.126L87.7891 346.495L87.5702 347.643L87.3845 348.795L87.2323 349.952L87.1136 351.113L86.855 354.065L86.7832 354.846L86.7045 355.626L86.6193 356.406L86.5275 357.184L85.9828 361.639L85.9347 362.041L85.8893 362.445L85.8462 362.847L85.7996 363.314L85.5756 366.309L85.4919 369.25L85.543 372.189L85.73 375.146L85.773 375.625L85.8178 376.084L85.8659 376.543L85.9175 377L86.2829 380.14L86.4093 381.513L86.4696 382.893L86.4638 384.272L86.3916 385.65L86.2982 386.87L86.1413 388.27L85.8869 389.655L85.5357 391.019L85.0897 392.354L84.7578 393.242L84.1725 394.604L83.4575 395.903L82.6198 397.124L81.6673 398.26L81.4591 398.485L80.2453 399.648L78.9008 400.657L77.445 401.497L75.899 402.157L74.3404 402.613L72.7396 402.887L71.1179 402.971L69.4972 402.868L68.5473 402.753L67.2968 402.555L66.0632 402.27L64.8527 401.899L63.6713 401.444L60.2021 399.966L59.9492 399.86L59.6955 399.755L59.4412 399.652L59.1864 399.549L57.5914 398.915L55.446 398.114L53.2691 397.405L51.0646 396.784L48.836 396.257L47.7227 396.028L46.605 395.824L45.4831 395.644L44.358 395.486L41.7908 395.152L40.7976 395.015L39.8067 394.864L38.8182 394.699L37.832 394.518L36.1815 394.202L34.63 393.877L33.0912 393.498L31.567 393.061L29.9796 392.544L28.2549 391.91L26.6369 391.237L25.0482 390.496L23.4917 389.691L22.0416 388.863L20.6254 387.98L19.2455 387.04L17.9037 386.045L17.6158 385.823L16.386 384.841L15.19 383.819L14.0291 382.755L12.9047 381.654L12.5232 381.267L11.4309 380.123L10.3769 378.945L9.36225 377.73L8.38814 376.484L7.87375 375.804L7.04075 374.656L6.25239 373.478L5.50982 372.27L4.81418 371.035L4.36472 370.198L3.67769 368.834L3.0655 367.436L2.52995 366.005L2.07263 364.546L1.85976 363.797L1.49914 362.347L1.23605 360.875L1.07168 359.389L1.00672 357.896L1 357.227L1.05079 355.657L1.23454 354.097L1.54997 352.558L1.99472 351.049L2.14992 350.596L2.73291 349.13L3.45664 347.727L4.31418 346.402L5.29723 345.169L5.60934 344.813L6.70831 343.696L7.92495 342.709L9.24412 341.863L10.6494 341.171L10.8184 341.099L12.4304 340.532L14.1016 340.176L15.8046 340.037L17.5114 340.118L19.1352 340.401L20.7118 340.882L22.2166 341.556L23.6269 342.41L24.3071 342.88L25.3552 343.669L26.3378 344.54L27.2483 345.485L28.0815 346.498L29.5698 348.462L30.0847 349.161L30.5805 349.873L31.0569 350.599L31.5134 351.338L33.5001 354.652L33.827 355.193L34.1572 355.733L34.4909 356.27L34.8276 356.805L36.1182 358.842L36.9835 360.182L37.8719 361.507L38.7833 362.818L39.7172 364.11L40.2805 364.876L41.0983 365.965L41.9377 367.037L42.7983 368.092L43.6799 369.13L44.7173 370.327L45.5687 371.279L46.4487 372.205L47.3563 373.105L48.2909 373.976L49.599 375.158L50.56 375.983L51.5618 376.758L52.6017 377.481L53.6773 378.149L54.9833 378.917L56.2066 379.565L57.4808 380.108L58.797 380.537L60.1451 380.852L60.6399 380.946L62.3524 381.161L64.0786 381.166L65.7923 380.96L67.4679 380.546L68.9606 379.982L70.3801 379.256L71.7082 378.371L72.9278 377.343L73.597 376.711L74.4887 375.782L75.2855 374.772L75.9799 373.688L76.5654 372.54L77.0286 371.513L77.5314 370.119L77.815 368.666L77.8728 367.185L77.703 365.714L77.2266 364.063L76.465 362.524L75.4421 361.143L74.1904 359.966L73.4128 359.356L72.6109 358.777L71.7649 358.265L70.8803 357.822L69.9633 357.451L67.6694 356.631L66.5616 356.185L65.4927 355.652L64.4693 355.037L63.4976 354.343L62.6266 353.666L61.4432 352.608L60.4203 351.391L59.5781 350.044L58.9332 348.593L58.4845 346.998L58.2742 345.353L58.307 343.696L58.582 342.061L58.7162 341.513L59.0971 340.24L59.6044 339.013L60.233 337.841L60.9766 336.74L62.8545 334.242L63.1483 333.857L63.4488 333.479L63.7556 333.105L64.0688 332.736L66.1469 330.33L67.0044 329.281L67.8027 328.186L68.5392 327.047L69.2118 325.87L69.341 325.63L70.1655 323.924L70.8462 322.156L71.3784 320.337L71.7586 318.481L71.9476 317.018L72.0419 315.545L72.0412 314.069L71.9453 312.595L71.8302 311.417L71.6729 310.089L71.4602 308.769L71.1925 307.459L70.8707 306.162L70.589 305.12L70.1602 303.636L69.6805 302.167L69.1507 300.715L68.5391 299.207L67.7742 297.493L66.98 295.883L66.1254 294.306L65.2116 292.761L64.9538 292.344L64.2131 291.177L63.4429 290.031L62.6434 288.906L61.8155 287.8L60.1897 285.688L59.7609 285.114L59.3484 284.528L58.9526 283.931L58.5738 283.322L57.1637 280.988L56.5412 279.823L56.0442 278.6L55.6778 277.33L55.446 276.031L55.3817 275.516L55.3025 273.829L55.4828 272.152L55.9183 270.52L56.5988 268.975L57.387 267.718L58.3381 266.577L59.4345 265.576L60.656 264.73L62.2671 263.772L63.0375 263.337L63.8285 262.944L64.6382 262.59L65.4643 262.275L68.8316 261.093L69.5475 260.834L70.2586 260.562L70.9644 260.275L71.6646 259.978L74.1554 258.887L75.3624 258.405L76.5985 258.003L77.8582 257.681L79.136 257.443L81.1643 257.238L83.2029 257.24L85.2306 257.449L87.2879 257.882L88.5416 258.248L89.7103 258.671L90.8514 259.164L91.9607 259.724L94.0539 260.863L94.9232 261.32L95.8041 261.756L96.6957 262.17L97.5977 262.56L100.736 263.87L101.421 264.131L102.121 264.347L102.833 264.521L103.555 264.648L107.444 265.204L108.102 265.227L108.749 265.108L109.356 264.854L109.894 264.476L110.746 263.236L110.902 261.737L110.325 260.348L109.154 259.401L107.996 258.868L107.822 258.795L107.645 258.728L107.464 258.671L107.281 258.621L105.189 258.119L103.126 257.532L101.118 256.776L99.1796 255.855L97.3243 254.778L96.7089 254.384L95.9583 253.922L95.1938 253.482L94.4163 253.067L93.6261 252.675L92.3612 252.072L90.6787 251.359L88.9403 250.796L87.1591 250.387L85.349 250.134L83.7909 250.047L82.2307 250.074L80.6769 250.22L79.1382 250.481L78.3774 250.639L76.9583 250.976L75.5602 251.393L74.1878 251.886L72.8452 252.457L70.9219 253.34L70.0899 253.696L69.2409 254.01L68.3769 254.28L67.4653 254.513L65.0386 254.902L62.6174 254.951L60.2126 254.666L57.8696 254.053L57.002 253.735L56.1523 253.373L55.3228 252.965L54.516 252.517L52.9956 251.615L51.6308 250.753L50.3176 249.815L49.0602 248.803L47.8626 247.72L47.6018 247.469L46.4674 246.313L45.4091 245.087L44.431 243.795L43.5227 242.419L42.6378 240.865L41.8771 239.278L41.2296 237.642L40.6985 235.964L40.3102 234.366L40.0275 232.746L39.8517 231.111L39.7835 229.468L39.7794 228.984L39.8067 227.46L39.9149 225.94L40.1037 224.428L40.3724 222.928L40.5856 221.895L40.8863 220.56L41.234 219.238L41.6285 217.927L42.0691 216.631L42.7673 214.693L43.1285 213.73L43.5143 212.776L43.9249 211.831L44.3596 210.898L45.2881 208.973L45.8994 207.796L46.5801 206.657L47.3278 205.562L48.1397 204.514L49.1119 203.334L49.986 202.369L50.9462 201.489L51.9841 200.702L53.0906 200.015L54.5054 199.226L55.6106 198.709L56.7783 198.357L57.9845 198.175L59.2043 198.166L60.0817 198.225L61.542 198.486L62.908 199.065L64.1123 199.931L65.0951 201.042L65.7583 202.226L66.1677 203.521L66.306 204.872L66.1677 206.222L65.8746 207.638L65.6327 208.576L65.3015 209.484L64.884 210.357L64.3841 211.187L62.8234 213.512L62.2684 214.398L61.7722 215.321L61.337 216.274L60.9651 217.253L60.6998 218.026L60.2361 219.751L60.0107 221.524L60.0277 223.311L60.2868 225.077L60.6735 226.481L61.2128 227.831L61.8981 229.114L62.721 230.315L63.3534 231.135L64.2344 232.191L65.1946 233.176L66.228 234.083L67.3285 234.907L67.9797 235.356L69.336 236.223L70.7501 236.993L72.2149 237.66L73.7231 238.223L74.7768 238.574L75.9404 238.936L77.1174 239.252L78.3061 239.52L79.5044 239.742L81.3706 240.048L82.6153 240.275L83.8511 240.544L85.0765 240.859L86.2899 241.218L88.2935 241.913L90.2518 242.726L92.1585 243.656L94.0063 244.697L95.9589 245.873L96.1533 245.992L96.4121 246.15L99.7914 248.239L100.922 248.914L102.075 249.552L103.247 250.151L104.439 250.713L106.221 251.517L107.265 251.957L108.33 252.342L109.414 252.67L110.513 252.941L110.95 253.038L112.891 253.364L114.854 253.495L116.821 253.429L118.771 253.165L120.115 252.866L121.435 252.472L122.724 251.988L123.977 251.414L125.377 250.711L126.476 250.12L127.538 249.466L128.561 248.751L129.54 247.978L130.558 247.124L131.618 246.145L132.578 245.064L133.427 243.896L134.159 242.652L134.519 241.962L135.117 240.622L135.542 239.218L135.789 237.771L135.853 236.303L135.69 234.564L135.272 232.872L134.607 231.262L133.71 229.767L132.767 228.599L131.682 227.561L130.473 226.671L129.16 225.945L127.438 225.129L126.596 224.756L125.738 224.424L124.864 224.134L123.976 223.887L122.292 223.46L120.722 223.026L119.173 222.522L117.648 221.952L116.15 221.315L115.5 221.019L114.201 220.408L112.923 219.753L111.667 219.059L110.433 218.324L107.241 216.355L107.086 216.259L106.879 216.131L101.551 212.878L101.362 212.762L101.173 212.646L100.985 212.529L100.796 212.412L97.5559 210.388L96.4691 209.682L95.4084 208.936L94.3752 208.155L93.3707 207.335L92.5911 206.676L91.3962 205.604L90.2664 204.465L89.2052 203.26L88.2165 201.996L87.2015 200.517L86.2855 198.975L85.4722 197.378L84.7652 195.73L84.5881 195.277L84.116 193.985L83.7016 192.674L83.3455 191.346L83.0484 190.002L82.5337 187.403L82.3961 186.687L82.2672 185.969L82.147 185.249L82.0353 184.527L81.5623 181.349L81.3906 180.267L81.1976 179.188L80.9837 178.112L80.749 177.042L80.473 175.839L80.0557 174.18L79.57 172.537L79.0168 170.917L78.3971 169.323L77.7132 167.756L76.965 166.22L76.1541 164.715L75.2819 163.245L74.7414 162.377L74.0925 161.358L73.4207 160.355L72.7268 159.369L72.0108 158.396L69.988 155.715L69.66 155.276L69.3347 154.837L69.0122 154.395L68.6923 153.952L66.8668 151.402L66.118 150.32L65.4049 149.215L64.7282 148.087L64.0886 146.936L63.6264 146.073L62.9013 144.628L62.252 143.149L61.6808 141.637L61.1888 140.098L61.0754 139.708L60.6734 138.162L60.3615 136.597L60.1409 135.014L60.0123 133.422L59.9795 132.788L59.9513 131.288L60.0219 129.792L60.1906 128.302L60.4571 126.826L60.5899 126.208L60.9893 124.665L61.5162 123.162L62.167 121.708L62.937 120.313L63.1706 119.929L64.0552 118.618L65.0598 117.398L66.1754 116.276L67.3921 115.266L67.891 114.891L69.1306 114.058L70.4524 113.364L71.8416 112.816L73.2814 112.421L73.701 112.33L75.33 112.088L76.9763 112.067L78.6108 112.266L80.2041 112.682L81.7457 113.316L83.1871 114.154L84.502 115.178L85.666 116.372L85.861 116.601L86.7674 117.797L87.5343 119.085L88.1519 120.451L88.6125 121.879L88.8973 122.968L89.1812 124.234L89.3746 125.517L89.4765 126.809L89.4865 128.108L89.4136 130.726L89.3825 131.529L89.3339 132.329L89.2678 133.128L89.1841 133.927L88.8628 136.698L88.7319 137.926L88.624 139.156L88.5388 140.39L88.4766 141.623L88.4421 142.46L88.3984 144.233L88.4134 146.008L88.4867 147.781L88.6185 149.55L88.7934 151.191L89.0185 152.827L89.2935 154.454L89.6182 156.07L89.739 156.628L90.0725 158.082L90.4401 159.528L90.842 160.967L91.2776 162.394L91.5228 163.164L92.0023 164.621L92.5103 166.067L93.0468 167.505L93.6114 168.931L94.1216 170.184L94.5958 171.309L95.0974 172.42L95.6259 173.522L96.181 174.609L96.9063 175.989L97.5977 177.236L98.3433 178.452L99.1414 179.634L99.9908 180.78L100.345 181.235L101.424 182.543L102.58 183.78L103.81 184.945L105.108 186.034L106.476 187.044L107.903 187.968L109.384 188.803L110.913 189.547L111.145 189.652L112.595 190.257L114.076 190.786L115.582 191.236L117.109 191.605L117.625 191.715L119.171 192.011L120.728 192.236L122.294 192.39L123.866 192.473L124.853 192.504L126.199 192.509L127.544 192.445L128.884 192.313L130.215 192.11L131.509 191.88L132.871 191.581L134.206 191.176L135.504 190.667L136.759 190.059L137.747 189.53L138.939 188.805L140.043 187.956L141.048 186.989L141.942 185.919L142.301 185.436L143.144 184.113L143.785 182.682L144.21 181.172L144.41 179.615L144.378 178.031L144.114 176.468L143.621 174.961L142.912 173.544L142.503 172.857L141.816 171.821L141.036 170.852L140.169 169.96L139.222 169.153L136.428 166.986L136.118 166.749L135.805 166.516L135.49 166.287L135.172 166.06L132.817 164.413L131.517 163.476L130.242 162.506L128.993 161.501L127.772 160.461L127.377 160.118L126.218 159.073L125.092 157.996L124 156.884L122.941 155.74L122.18 154.892L121.333 153.911L120.522 152.9L119.748 151.863L119.013 150.796L118.696 150.318L117.732 148.765L116.861 147.159L116.087 145.501L115.413 143.802L114.921 142.331L114.503 140.837L114.162 139.323L113.897 137.794L113.538 135.356L113.44 134.722L113.332 134.09L113.216 133.458L113.09 132.829L112.878 131.809L112.357 129.634L111.702 127.498L110.916 125.406L110.001 123.366L109.478 122.336L108.923 121.322L108.336 120.325L107.717 119.35L106.304 117.2L105.766 116.371L105.239 115.532L104.722 114.687L104.217 113.835L103.014 111.78L102.395 110.693L101.801 109.593L101.232 108.478L100.689 107.353L100.12 106.138L99.5094 104.766L98.9538 103.37L98.4539 101.953L98.0101 100.519L97.9605 100.345L97.5023 98.5876L97.1328 96.8095L96.8529 95.0159L96.6634 93.2085L96.5718 91.6211L96.5502 90.0303L96.5985 88.4411L96.7163 86.8554L96.8172 85.8092L96.9601 84.5103L97.1382 83.2166L97.3515 81.9282L97.5995 80.6465L97.9258 79.0745L98.2058 77.7827L98.5082 76.4958L98.8329 75.2142L99.1799 73.9377L99.6551 72.2489L100.005 71.0687L100.388 69.8987L100.803 68.739L101.25 67.5915L101.622 66.6723L102.294 65.1261L103.042 63.6142L103.862 62.1402L104.754 60.7092L105.734 59.2969L106.784 57.9363L107.9 56.6289L109.081 55.3799L109.285 55.1754L110.402 54.0965L111.563 53.0657L112.767 52.0848L114.048 51.1261L115.584 50.0799L117.129 49.1349L118.717 48.2639L120.346 47.4719L121.818 46.8363L123.316 46.2642L124.837 45.7556L126.378 45.3141L127.204 45.0959L128.554 44.7695L129.917 44.4981L131.289 44.2816L132.67 44.1219L134.578 43.9415L135.644 43.8728L136.712 43.8676L137.779 43.926L138.84 44.0463L140.418 44.2765L141.862 44.5788L143.256 45.0599L144.578 45.7127L145.822 46.5357L147.177 47.7331L148.319 49.1092L149.237 50.6468L149.907 52.3064L150.272 53.789L150.44 55.306L150.407 56.8333L150.174 58.3417L150.039 58.9465L149.625 60.4188L149.052 61.8379L148.327 63.1848L147.459 64.4441L147.137 64.8598L146.1 66.071L144.95 67.1757L143.697 68.1618L142.353 69.0208L141.437 69.5448L140.305 70.1495L139.139 70.6838L137.944 71.1495L136.722 71.5428L133.111 72.5891L132.858 72.6612L132.605 72.7334L132.351 72.8021L132.098 72.8709L128.311 73.8879L127.15 74.223L126.003 74.6043L124.871 75.0286L123.757 75.4976L122.483 76.0629L121.123 76.726L119.813 77.4837L118.56 78.3323L117.371 79.2687L117.084 79.5109L115.84 80.6603L114.703 81.9161L113.681 83.2665L112.782 84.701L112.017 86.2008L111.386 87.7625L110.895 89.3739L110.547 91.0215L110.495 91.3376L110.299 92.8633L110.216 94.3974L110.245 95.9333L110.386 97.464L110.528 98.5653L110.726 99.8607L110.984 101.144L111.3 102.417L111.674 103.673L112.539 106.35L112.761 107.021L112.99 107.69L113.227 108.354L113.473 109.018L115.064 113.24L115.23 113.682L115.394 114.123L115.558 114.565L115.72 115.008L116.952 118.391L117.34 119.487L117.71 120.588L118.06 121.698L118.39 122.811L118.979 125L119.494 127.208L119.933 129.431L120.296 131.668L120.511 133.147L120.573 133.554L120.64 133.958L120.712 134.363L120.789 134.765L121.461 138.145L121.771 139.388L122.196 140.598L122.734 141.761L123.38 142.869L123.754 143.445L124.768 144.779L125.97 145.949L127.331 146.929L128.822 147.697L130.267 148.195L131.765 148.495L133.29 148.59L134.814 148.478L135.356 148.401L136.798 148.114L138.199 147.669L139.542 147.071L140.811 146.329L141.571 145.826L142.709 145.005L143.777 144.092L144.768 143.096L145.675 142.024L146.463 141.01L147.257 139.933L147.991 138.815L148.666 137.658L149.277 136.468L149.786 135.409L150.403 134.056L150.963 132.676L151.467 131.276L151.912 129.857L152.12 129.142L152.529 127.639L152.887 126.122L153.192 124.593L153.444 123.055L153.644 121.683L153.804 120.521L153.942 119.356L154.059 118.188L154.155 117.02L154.395 113.745L154.443 113.129L154.496 112.512L154.555 111.897L154.619 111.282L154.96 108.14L155.117 106.92L155.322 105.705L155.576 104.501L155.877 103.309L156.283 101.823L156.7 100.483L157.211 99.1752L157.811 97.9056L158.499 96.6823L158.92 95.99L159.789 94.7084L160.779 93.5144L161.88 92.4234L163.081 91.4459L163.299 91.2844L164.652 90.3979L166.094 89.6643L167.608 89.0939L169.182 88.6902L170.833 88.4583L172.493 88.4153L174.147 88.5596L175.774 88.8895L177.318 89.3877L178.798 90.0526L180.196 90.8772L181.493 91.8513L181.801 92.109L182.892 93.1157L183.888 94.2136L184.783 95.399L185.566 96.6583L186.58 98.4674L186.992 99.2301L187.381 100.007L187.745 100.794L188.085 101.592L189.195 104.319L189.623 105.322L190.088 106.308L190.588 107.277L191.122 108.227L191.834 109.44L192.691 110.785L193.648 112.062L194.699 113.263L195.837 114.381L197.185 115.51L198.625 116.523L200.142 117.413L201.798 118.204L203.296 118.788L204.762 119.243L206.255 119.594L207.77 119.841L208.653 119.953L210.063 120.097L211.481 120.169L212.898 120.171L214.314 120.102L215.814 119.99L217.057 119.882L218.3 119.736L219.535 119.554L220.765 119.338L223.861 118.745L224.457 118.63L225.051 118.509L225.644 118.386L226.237 118.26L229.978 117.448L230.872 117.262L231.77 117.092L232.671 116.941L233.574 116.804L235.991 116.462L237.27 116.314L238.555 116.231L239.842 116.213L241.128 116.259L242.023 116.312L243.659 116.481L245.276 116.779L246.863 117.211L248.409 117.769L249.952 118.475L251.429 119.31L252.831 120.265L254.147 121.336L255.163 122.234L255.912 122.921L256.635 123.634L257.331 124.375L258.001 125.138L259.767 127.228L260.452 128.02L261.157 128.795L261.878 129.553L262.619 130.295L263.51 131.166L264.787 132.348L266.125 133.461L267.52 134.502L268.97 135.466L270.398 136.31L271.865 137.081L273.372 137.777L274.909 138.394L276.179 138.864L277.199 139.23L278.229 139.572L279.266 139.89L280.311 140.182L283.417 141.012L284.133 141.206L284.846 141.405L285.559 141.61L286.269 141.819L288.842 142.591L290.126 142.993L291.399 143.431L292.658 143.903L293.905 144.408L295.132 144.926L296.422 145.501L297.687 146.13L298.925 146.81L300.135 147.542L301.777 148.652L303.353 149.858L304.856 151.152L306.28 152.533L308.19 154.495L308.331 154.641L311.539 158.029L312.264 158.697L313.075 159.26L313.954 159.705L314.937 160.04L316.762 160.295L318.538 160.077L320.201 159.415L321.642 158.353L322.409 157.488L323.022 156.508L323.467 155.44L323.728 154.314L324.106 151.736L324.262 150.866L324.468 150.007L324.728 149.162L325.037 148.334L326.171 145.563L326.551 144.587L326.893 143.598L327.198 142.598L327.468 141.586L327.623 140.959L328.021 139.002L328.262 137.019L328.339 135.023L328.253 133.028L328.1 131.651L327.87 130.285L327.563 128.933L327.179 127.601L326.36 125.031L326.149 124.38L325.927 123.731L325.695 123.086L325.456 122.444L324.321 119.473L323.936 118.386L323.604 117.283L323.324 116.163L323.101 115.032L322.957 114.211L322.733 112.436L322.671 110.651L322.776 108.866L323.043 107.099L323.405 105.592L323.888 104.118L324.486 102.687L325.195 101.307L325.91 100.045L326.482 99.079L327.092 98.1392L327.738 97.2218L328.418 96.3319L329.834 94.5555L330.574 93.6467L331.334 92.7515L332.11 91.8737L332.906 91.0112L333.653 90.2175L334.845 88.9909L336.075 87.8054L337.345 86.6612L338.651 85.5583L339.991 84.5L341.365 83.4864L342.772 82.5174L344.21 81.5948L344.911 81.1602L346.033 80.4868L347.168 79.8407L348.321 79.2223L349.488 78.633L350.283 78.2448L351.8 77.5404L353.346 76.8944L354.917 76.3137L356.507 75.7949L359.186 74.9806L359.505 74.8758L359.82 74.759L360.129 74.6284L360.433 74.4858L363.393 73.0169L364.226 72.431L364.847 71.6236L365.197 70.6667L365.245 69.6479L364.929 68.5364L364.254 67.5966L363.302 66.9403L362.184 66.6448L360.54 66.504L359.791 66.4919L359.047 66.5864L358.323 66.7823L357.635 67.076L353.008 69.4486L352.821 69.5431L349.374 71.2491L348.05 71.8727L346.701 72.4448L345.332 72.9653L343.944 73.4309L342.076 73.9669L340.183 74.4051L338.269 74.7469L336.342 74.9874L335.565 75.0648L334.493 75.1592L333.419 75.228L332.344 75.2709L331.268 75.2881L328.399 75.3001L327.477 75.2967L326.554 75.2778L325.633 75.2417L324.712 75.1885L322.52 75.0458L321.12 74.9221L319.727 74.7314L318.346 74.4772L316.976 74.1577L315.068 73.5959L313.202 72.9069L311.384 72.096L309.597 71.1511L308.4 70.4313L307.263 69.6737L306.161 68.8679L305.096 68.0107L304.108 67.1808L303.043 66.2549L302.007 65.2962L301.002 64.3032L300.03 63.281L299.563 62.7759L298.451 61.5321L297.377 60.2556L296.341 58.9482L295.347 57.6099L294.699 56.7114L294.003 55.7286L293.323 54.734L292.658 53.7289L292.01 52.7135L290.468 50.2482L290.052 49.5937L289.629 48.946L289.198 48.3017L288.76 47.6644L287.348 45.6388L286.513 44.4929L285.631 43.3848L284.702 42.3128L283.73 41.282L283.166 40.7099L282.022 39.6155L280.814 38.5881L279.55 37.6347L278.23 36.7585L277.713 36.4372L276.413 35.6864L275.066 35.025L273.676 34.4564L272.253 33.9822L271.527 33.7657L270.078 33.4032L268.604 33.161L267.116 33.0424L265.622 33.0493L265.118 33.0734L263.543 33.228L261.992 33.5441L260.48 34.0166L259.025 34.6419L257.542 35.4769L256.159 36.4698L254.895 37.6089L253.764 38.8802L253.613 39.0675L252.739 40.2752L251.976 41.5569L251.333 42.9021L250.814 44.3005L250.261 46.0219L249.974 46.9771L249.725 47.9427L249.51 48.9168L249.333 49.8978L248.84 52.9661L248.684 53.8286L248.495 54.6841L248.272 55.531L248.014 56.3695L246.695 60.3879L246.557 60.74L246.382 61.0734L246.171 61.386L245.927 61.6747L244.415 62.5972L242.645 62.6402L241.092 61.7881Z" stroke="#6A5FDB" stroke-width="1.42848"/>
</svg>
