<svg width="519" height="514" viewBox="0 0 519 514" fill="none" xmlns="http://www.w3.org/2000/svg">
<path d="M394.749 237.94L394.425 237.365L392.661 234.507L392.232 233.75L391.862 232.963L391.55 232.151L391.302 231.317L390.566 229.277L389.463 227.408L388.029 225.779L386.317 224.447L385.639 224.015L385.179 223.733L384.708 223.471L384.226 223.228L383.736 223.003L382.025 222.263L380.44 221.531L378.891 220.724L377.383 219.848L375.917 218.899L374.592 217.998L374.042 217.612L373.505 217.211L372.979 216.795L372.466 216.36L371.704 215.699L370.137 214.479L368.443 213.438L366.647 212.588L364.767 211.939L363.61 211.651L362.436 211.439L361.252 211.304L360.06 211.248L357.399 211.21L356.724 211.233L356.054 211.318L355.396 211.47L354.754 211.681L354.318 211.851L352.641 212.809L351.328 214.221L350.494 215.963L350.219 217.874L350.153 218.848L349.939 219.801L349.583 220.71L349.091 221.553L348.093 223.006L347.433 224.127L346.938 225.334L346.619 226.597L346.482 227.894L346.594 229.671L347.047 231.396L347.824 233L348.897 234.422L350.058 235.686L350.361 236.005L350.676 236.315L350.999 236.615L351.332 236.902L354.123 239.234L354.818 239.885L355.434 240.61L355.964 241.401L356.399 242.247L356.994 244.199L357.099 246.236L356.706 248.239L355.838 250.087L355.237 251.043L355.066 251.305L354.889 251.561L354.702 251.812L354.509 252.059L352.977 253.949L351.863 255.21L350.646 256.375L349.336 257.431L347.941 258.371L346.63 259.111L345.266 259.748L343.858 260.282L342.415 260.705L340.632 261.158L339.867 261.343L339.097 261.506L338.324 261.654L337.547 261.781L334.155 262.293L333.438 262.376L332.717 262.409L331.996 262.392L331.277 262.325L330.104 262.174L328.381 261.753L326.794 260.96L325.422 259.836L324.335 258.435L323.799 257.393L323.422 256.283L323.214 255.131L323.176 253.959L323.316 250.608L323.328 250.284L323.333 249.961L323.333 249.638L323.328 249.314L323.246 246.241L323.166 244.881L322.997 243.532L322.741 242.196L322.398 240.879L321.799 239.142L321.051 237.465L320.157 235.859L319.125 234.338L317.496 232.151L315.652 229.696L314.873 228.346L314.439 226.849L314.374 225.294L314.685 223.767L315.223 222.567L315.993 221.5L316.962 220.611L318.092 219.936L319.821 219.129L320.542 218.822L321.284 218.57L322.042 218.37L322.813 218.225L324.908 217.911L326.254 217.669L327.584 217.351L328.893 216.956L330.177 216.486L331.853 215.745L333.467 214.876L335.008 213.885L336.469 212.779L337.501 211.934L338.051 211.494L338.612 211.064L339.183 210.648L339.762 210.245L340.31 209.87L342.152 208.719L344.077 207.714L346.075 206.861L348.134 206.168L349.126 205.897L350.13 205.662L351.14 205.464L352.157 205.304L353.913 205.061L355.211 204.903L356.516 204.789L357.823 204.719L359.131 204.692L360.623 204.687L361.791 204.712L362.956 204.794L364.116 204.932L365.267 205.129L366.086 205.289L367.663 205.667L369.202 206.178L370.691 206.82L372.12 207.585L372.404 207.752L373.581 208.517L374.693 209.375L375.729 210.325L376.684 211.354L377.987 212.882L378.529 213.455L379.127 213.968L379.778 214.415L380.521 214.817L382.571 215.47L384.665 215.508L386.686 214.956L388.47 213.858L389.056 213.314L389.579 212.71L390.035 212.052L390.415 211.35L391.583 208.884L392.055 207.951L392.577 207.044L393.145 206.166L393.76 205.319L394.596 204.23L395.534 203.089L396.55 202.015L397.635 201.013L398.788 200.087L399.096 199.857L400.355 198.991L401.679 198.228L403.059 197.573L404.488 197.03L404.656 196.973L406.165 196.539L407.706 196.236L409.268 196.066L410.838 196.035L412.44 196.14L414.026 196.388L415.584 196.774L417.103 197.297L419.246 198.142L419.668 198.312L420.086 198.487L420.503 198.67L420.915 198.858L424.299 200.426L425.129 200.798L425.97 201.145L426.82 201.468L427.701 201.774L429.902 202.422L432.119 202.904L434.364 203.226L436.628 203.39L437.569 203.41L438.51 203.402L439.449 203.366L440.388 203.303L441.27 203.23L443.096 203.135L444.925 203.152L446.75 203.277L448.564 203.513L449.924 203.765L451.271 204.078L452.602 204.452L453.914 204.886L455.489 205.449L456.439 205.776L457.397 206.084L458.361 206.373L459.331 206.641L461.773 207.29L462.698 207.545L463.617 207.819L464.529 208.11L465.436 208.422L465.784 208.545L467.723 209.283L469.626 210.112L471.487 211.029L473.302 212.033L474.284 212.624L475.251 213.242L476.2 213.884L477.133 214.55L478.528 215.576L479.502 216.304L480.461 217.049L481.408 217.812L482.342 218.59L482.725 218.918L484.049 220.076L485.338 221.272L486.591 222.506L487.807 223.777L488.816 224.862L489.305 225.401L489.78 225.951L490.243 226.513L490.689 227.086L492.399 229.329L493.014 230.209L493.552 231.136L494.014 232.104L494.392 233.108L494.68 233.983L495.059 235.529L495.191 237.115L495.072 238.704L494.705 240.253L494.14 241.639L493.38 242.928L492.435 244.089L491.33 245.098L489.715 246.367L489.193 246.761L488.654 247.136L488.103 247.489L487.537 247.82L484.462 249.542L483.75 249.932L483.034 250.31L482.31 250.675L481.581 251.028L480.78 251.406L478.985 252.201L477.153 252.906L475.286 253.516L473.391 254.03L472.176 254.348L470.972 254.705L469.782 255.101L468.604 255.536L467.34 256.024L466.138 256.505L464.947 257.01L463.767 257.542L462.6 258.099L461.312 258.729L460.222 259.274L459.14 259.831L458.065 260.402L456.998 260.987L454.607 262.319L454.044 262.631L453.48 262.942L452.914 263.252L452.347 263.558L448.782 265.482L448.29 265.748L447.795 266.012L447.3 266.273L446.803 266.533L443.051 268.492L442.558 268.742L442.061 268.987L441.56 269.22L441.055 269.447L438.088 270.745L437.119 271.122L436.122 271.419L435.104 271.635L434.072 271.765L433.883 271.781L431.891 271.787L429.925 271.469L428.036 270.833L426.277 269.897L425.346 269.237L424.481 268.49L423.69 267.668L422.979 266.774L422.309 265.843L421.499 264.605L420.803 263.299L420.227 261.936L419.776 260.527L419.416 258.86L419.232 257.163L419.224 255.457L419.393 253.758L419.537 252.806L419.715 251.808L419.938 250.821L420.21 249.845L420.529 248.884L421.884 245.1L421.951 244.908L422.014 244.713L422.074 244.516L422.128 244.319L423.094 240.736L423.229 239.693L423.084 238.652L422.666 237.686L422.007 236.864L420.696 236.04L419.168 235.786L417.659 236.142L416.406 237.054L416.237 237.237L415.802 237.8L415.469 238.428L415.247 239.103L415.143 239.806L414.926 243.316L414.875 243.916L414.8 244.513L414.698 245.105L414.572 245.694L413.773 249.069L413.562 249.891L413.324 250.705L413.056 251.509L412.761 252.304L412.304 253.465L411.75 255.107L411.361 256.796L411.136 258.514L411.082 260.246L411.163 261.644L411.353 263.032L411.652 264.4L412.058 265.74L412.349 266.577L412.833 267.833L413.401 269.052L414.052 270.231L414.782 271.362L414.994 271.667L415.997 272.976L417.118 274.187L418.345 275.289L419.671 276.272L420.951 277.055L422.294 277.729L423.689 278.287L425.126 278.723L425.678 278.866L427.032 279.163L428.406 279.357L429.79 279.45L431.176 279.439L432.951 279.271L434.702 278.936L436.412 278.435L438.067 277.771L439.159 277.271L439.846 276.937L440.518 276.571L441.169 276.175L441.804 275.748L443.73 274.385L444.793 273.742L445.941 273.261L447.145 272.954L448.382 272.823L449.969 272.922L451.509 273.314L452.951 273.986L454.241 274.913L455.893 276.352L456.097 276.535L456.3 276.721L456.499 276.911L456.692 277.106L457.881 278.318L459.366 279.757L460.917 281.122L462.535 282.41L464.212 283.617L465.172 284.272L465.636 284.599L466.091 284.939L466.538 285.29L466.974 285.653L468.743 287.165L469.779 288.17L470.683 289.294L471.443 290.522L472.046 291.833L472.501 293.294L472.764 294.8L472.828 296.33L472.69 297.854L472.506 299.029L472.323 300.003L472.079 300.967L471.777 301.911L471.418 302.836L470.561 304.856L470.096 305.884L469.584 306.89L469.025 307.871L468.424 308.825L467.661 309.974L466.861 311.078L465.97 312.109L464.998 313.065L463.949 313.933L463.633 314.175L462.335 315.055L460.948 315.79L459.491 316.373L457.978 316.793L456.5 317.04L455.004 317.134L453.506 317.072L452.023 316.855L450.629 316.578L449.681 316.367L448.743 316.113L447.818 315.815L446.907 315.477L443.922 314.288L443.321 314.051L442.715 313.822L442.106 313.601L441.496 313.384L438.984 312.515L437.823 312.139L436.647 311.814L435.459 311.538L434.26 311.311L432.116 310.952L431.225 310.771L430.346 310.529L429.488 310.228L428.61 309.85L426.796 308.824L425.203 307.553L423.824 306.048L422.698 304.35L422.223 303.409L421.826 302.431L421.508 301.426L421.273 300.396L420.644 297.029L420.558 296.585L420.465 296.141L420.369 295.698L420.265 295.257L419.664 292.778L419.275 291.349L418.806 289.941L418.261 288.562L417.639 287.216L416.831 285.712L415.93 284.263L414.938 282.877L413.858 281.555L413.116 280.703L412.491 280.007L411.849 279.326L411.188 278.663L410.513 278.018L409.814 277.37L408.508 276.116L407.244 274.818L406.027 273.479L404.854 272.099L404.058 271.128L403.571 270.525L403.094 269.912L402.627 269.292L402.171 268.664L400.713 266.731L399.155 264.877L397.502 263.107L395.759 261.426L394.645 260.409L394.538 260.31L392.192 258.182L391.034 257.079L389.934 255.919L388.893 254.707L387.913 253.444L386.994 252.128L386.141 250.764L385.358 249.362L384.644 247.921L383.453 245.352L383.37 245.17L383.286 244.988L383.203 244.806L383.121 244.622L381.864 241.81L381.228 240.479L380.522 239.184L379.75 237.926L378.913 236.712L377.349 234.562L377.099 234.24L376.829 233.933L376.543 233.644L376.236 233.373L374.158 231.633L373.189 231.067L372.085 230.86L370.976 231.031L369.988 231.561L369.145 232.536L368.738 233.759L368.826 235.044L369.398 236.199L371.111 238.427L371.217 238.561L371.326 238.693L371.44 238.821L371.557 238.945L372.338 239.755L373.937 241.577L375.362 243.54L376.601 245.624L377.643 247.813L377.903 248.434L378.077 248.838L378.256 249.239L378.442 249.639L378.633 250.034L379.311 251.414L380.24 253.186L381.263 254.906L382.375 256.569L383.574 258.17L384.343 259.112L385.142 260.027L385.969 260.916L386.825 261.777L389.314 264.205L389.51 264.396L389.708 264.586L389.905 264.776L390.104 264.964L391.505 266.285L392.914 267.676L394.26 269.126L395.54 270.634L396.752 272.199L397.476 273.205L398.173 274.232L398.84 275.276L399.478 276.34L400.893 278.774L401.182 279.278L401.466 279.784L401.747 280.293L402.022 280.804L403.652 283.869L404.06 284.679L404.435 285.506L404.773 286.349L405.074 287.205L405.593 288.793L405.965 290.168L406.188 291.573L406.261 292.996L406.181 294.417L405.898 296.058L405.413 297.651L404.734 299.171L403.872 300.595L402.602 302.424L402.37 302.768L402.145 303.113L401.926 303.463L401.712 303.816L399.476 307.615L399.155 308.131L398.809 308.632L398.441 309.116L398.049 309.581L397.32 310.403L395.939 311.692L394.34 312.697L392.579 313.379L390.721 313.715L389.528 313.743L388.34 313.627L387.176 313.371L386.049 312.977L384.893 312.491L383.666 311.909L382.498 311.218L381.396 310.427L380.371 309.537L380.009 309.194L378.913 308.056L377.922 306.827L377.045 305.513L376.287 304.128L375.871 303.279L375.391 302.231L374.963 301.16L374.589 300.071L374.271 298.964L373.501 296.008L373.359 295.479L373.213 294.952L373.062 294.427L372.905 293.903L372.219 291.651L371.751 290.227L371.224 288.821L370.639 287.439L369.997 286.084L369.448 284.987L368.93 284.009L368.366 283.056L367.756 282.132L367.102 281.238L365.96 279.751L365.212 278.865L364.388 278.05L363.495 277.311L362.536 276.658L360.777 275.748L358.899 275.12L356.946 274.788L354.965 274.761L353.068 274.88L352.836 274.896L352.606 274.916L352.377 274.938L352.147 274.962L350.312 275.17L348.252 275.352L346.184 275.438L344.115 275.422L342.048 275.311L340.904 275.206L339.763 275.071L338.626 274.905L337.493 274.711L335.127 274.27L334.269 274.105L333.413 273.924L332.559 273.735L331.708 273.531L328.48 272.736L327.805 272.584L327.127 272.458L326.444 272.358L325.756 272.283L324.292 272.157L322.55 272.125L320.819 272.332L319.132 272.774L317.522 273.445L316.402 274.077L315.35 274.82L314.381 275.667L313.499 276.607L312.776 277.464L311.963 278.499L311.229 279.591L310.575 280.733L310.006 281.919L309.695 282.631L309.155 284.007L308.719 285.419L308.388 286.86L308.164 288.321L308.097 288.9L307.997 290.296L308.015 291.694L308.149 293.086L308.402 294.462L308.542 295.073L308.934 296.449L309.468 297.776L310.136 299.04L310.937 300.226L312.007 301.482L313.222 302.599L314.564 303.559L316.026 304.358L317.336 304.893L318.677 305.288L320.053 305.544L321.449 305.659L323.48 305.722L324.229 305.733L324.981 305.72L325.731 305.684L326.479 305.623L329.221 305.356L330.312 305.273L331.408 305.235L332.502 305.243L333.597 305.297L335.202 305.406L336.479 305.547L337.741 305.787L338.981 306.124L340.191 306.56L341.32 307.015L342.446 307.548L343.504 308.203L344.481 308.974L345.365 309.85L345.84 310.378L346.7 311.5L347.371 312.744L347.834 314.081L348.08 315.472L348.093 316.989L347.846 318.485L347.35 319.916L346.617 321.243L345.974 322.2L345.383 323.006L344.729 323.761L344.014 324.458L343.243 325.094L341.481 326.432L340.614 327.12L339.778 327.845L338.976 328.606L338.206 329.401L337.911 329.718L336.681 331.132L335.542 332.617L334.496 334.171L333.547 335.785L332.255 338.15L330.5 341.38L329.805 342.564L329.037 343.698L328.195 344.782L327.285 345.807L325.985 347.065L324.58 348.207L323.085 349.223L321.506 350.108L321.291 350.218L320.143 350.757L318.967 351.231L317.767 351.638L316.544 351.977L315.913 352.132L314.339 352.458L312.746 352.669L311.142 352.758L309.535 352.729L307.951 352.584L306.383 352.322L304.839 351.945L303.325 351.456L302.935 351.315L301.597 350.87L300.236 350.504L298.854 350.217L297.458 350.01L295.423 349.768L294.641 349.688L293.856 349.629L293.07 349.592L292.284 349.58L289.832 349.577L288.632 349.629L287.443 349.788L286.272 350.053L285.129 350.421L283.357 351.234L281.721 352.294L280.257 353.582L278.995 355.067L278.781 355.361L278.201 356.214L277.686 357.107L277.231 358.035L276.846 358.991L275.538 362.586L275.443 362.848L275.351 363.111L275.26 363.374L275.17 363.639L273.459 368.775L273.383 369.007L273.308 369.24L273.237 369.473L273.168 369.707L272.825 370.894L272.048 373.08L271.009 375.155L269.727 377.089L268.22 378.854L267.612 379.455L266.977 380.03L266.316 380.576L265.634 381.092L263.003 382.984L262.412 383.435L261.848 383.917L261.312 384.433L260.807 384.978L260.244 385.617L259.099 387.189L258.253 388.939L257.735 390.81L257.559 392.746L257.613 393.809L257.768 394.861L258.027 395.891L258.385 396.893L259.984 400.743L260.042 400.885L261.687 404.94L262.025 405.883L262.284 406.852L262.463 407.835L262.561 408.833L262.645 410.32L262.603 411.712L262.321 413.077L261.809 414.372L261.08 415.559L260.886 415.822L259.911 416.898L258.741 417.76L257.425 418.371L256.012 418.708L254.52 418.757L253.051 418.499L251.665 417.946L250.42 417.125L250.198 416.942L249.261 416.033L248.483 414.982L247.888 413.82L247.494 412.574L247.082 410.774L246.914 409.901L246.802 409.018L246.75 408.129L246.758 407.239L246.862 404.773L246.927 403.68L247.031 402.592L247.17 401.507L247.349 400.427L247.937 397.202L248.022 396.714L248.105 396.228L248.183 395.739L248.256 395.251L248.685 392.309L248.895 391.083L249.164 389.868L249.494 388.668L249.879 387.485L250.605 385.662L251.468 383.901L252.465 382.211L253.588 380.604L254.462 379.449L254.785 379.03L255.112 378.617L255.447 378.208L255.789 377.805L259.113 373.927L259.258 373.762L259.454 373.545L261.1 371.765L262.157 370.386L262.939 368.834L263.419 367.164L263.58 365.434L263.669 364.132L263.94 362.858L264.387 361.632L265 360.481L265.932 358.995L266.494 358.16L267.11 357.364L267.778 356.61L268.492 355.901L270.334 354.186L271.015 353.522L271.661 352.823L272.271 352.092L272.843 351.334L273.357 350.616L274.479 349.227L275.755 347.979L277.168 346.887L278.7 345.971L279.949 345.39L281.243 344.923L282.576 344.576L283.934 344.349L287.372 343.937L287.531 343.918L287.741 343.895L290.869 343.557L292.429 343.43L293.995 343.385L295.559 343.42L297.121 343.539L297.732 343.601L299.058 343.772L300.373 344.016L301.673 344.33L302.954 344.716L304.408 345.198L305.469 345.505L306.549 345.731L307.645 345.872L308.748 345.931L309.748 345.946L311.3 345.86L312.822 345.556L314.288 345.044L315.667 344.329L315.907 344.182L317.086 343.34L318.134 342.335L319.025 341.192L319.744 339.934L320.171 339.038L320.596 337.925L320.832 336.756L320.87 335.564L320.71 334.383L320.533 333.579L320.061 332.248L319.276 331.075L318.224 330.131L316.973 329.476L315.6 329.149L314.187 329.171L312.823 329.539L311.593 330.234L309.359 331.891L309.155 332.038L308.948 332.181L308.738 332.319L308.525 332.452L307.876 332.846L305.619 334.07L303.26 335.076L300.815 335.854L298.306 336.399L297.253 336.574L297.123 336.596L296.951 336.624L291.132 337.534L290.915 337.567L290.697 337.598L290.479 337.626L290.261 337.654L287.571 337.968L285.957 338.05L284.343 337.923L282.759 337.587L281.234 337.05L279.87 336.363L278.601 335.517L277.443 334.52L276.418 333.389L275.7 332.492L275.055 331.633L274.466 330.735L273.933 329.802L273.461 328.835L272.752 327.263L272.251 326.084L271.801 324.886L271.4 323.669L271.05 322.437L270.873 321.761L270.506 320.213L270.207 318.649L269.979 317.074L269.821 315.491L269.733 313.865L269.72 312.236L269.783 310.609L269.918 308.987L269.991 308.306L270.141 307.062L270.328 305.822L270.551 304.589L270.812 303.363L271.25 301.426L271.476 300.471L271.72 299.52L271.982 298.574L272.262 297.633L272.988 295.279L273.309 294.317L273.67 293.37L274.071 292.44L274.515 291.528L275.267 290.059L275.949 288.868L276.739 287.748L277.63 286.707L278.615 285.753L280.041 284.649L281.591 283.728L283.243 283.004L284.972 282.491L285.675 282.329L286.673 282.128L287.68 281.987L288.694 281.904L289.713 281.882L291.768 281.895L292.937 281.862L294.103 281.752L295.258 281.563L296.399 281.299L297.13 281.103L298.686 280.587L300.175 279.894L301.571 279.036L302.861 278.022L303.946 276.953L304.91 275.775L305.743 274.501L306.434 273.144L306.763 272.403L307.233 271.235L307.62 270.037L307.923 268.815L308.139 267.576L308.674 263.696L309.538 257.406L309.56 257.221L310.021 253.069L310.004 252.066L309.735 251.096L309.229 250.229L308.523 249.515L307.174 248.828L305.665 248.699L304.219 249.146L303.046 250.104L302.841 250.35L302.317 251.147L301.981 252.041L301.852 252.987L301.935 253.939L302.574 257.105L302.653 257.666L302.661 258.231L302.6 258.795L302.471 259.346L301.71 260.831L300.472 261.948L298.917 262.554L297.249 262.567L295.438 262.249L295.259 262.214L295.02 262.161L292.48 261.521L290.825 261.162L289.15 260.912L287.461 260.774L285.768 260.746L284.251 260.727L282.737 260.617L281.233 260.421L279.744 260.134L276.522 259.416L272.195 258.421L271.291 258.316L270.386 258.412L269.526 258.703L268.749 259.177L267.832 260.167L267.283 261.401L267.163 262.747L267.485 264.058L268.248 265.838L268.391 266.15L268.551 266.454L268.726 266.749L268.914 267.034L270.477 269.261L271.27 270.532L271.921 271.882L272.421 273.295L272.774 274.798L272.969 276.382L272.975 277.935L272.801 279.48L272.453 280.994L272.365 281.291L271.889 282.626L271.261 283.893L270.49 285.08L269.585 286.169L268.349 287.319L266.965 288.286L265.46 289.053L263.866 289.603L263.595 289.675L262.362 289.944L261.109 290.092L259.847 290.119L258.589 290.025L254.995 289.581L254.829 289.562L254.608 289.536L251.944 289.245L250.153 289.093L248.355 289.027L246.557 289.048L244.761 289.155L243.358 289.3L241.96 289.498L240.57 289.748L239.191 290.052L237.259 290.513L236.466 290.709L235.675 290.915L234.887 291.133L234.102 291.361L231.371 292.177L230.422 292.44L229.462 292.663L228.494 292.848L227.52 292.993L227.276 293.024L225.198 293.197L223.113 293.18L221.038 292.974L218.989 292.581L217.949 292.305L216.923 291.983L215.912 291.611L214.921 291.192L212.41 290.064L211.705 289.753L210.998 289.453L210.284 289.164L209.569 288.885L205.502 287.337L205.237 287.237L204.974 287.138L204.71 287.04L204.445 286.943L202.593 286.266L200.765 285.561L198.962 284.796L197.185 283.97L195.436 283.086L194.328 282.486L193.234 281.864L192.153 281.217L191.086 280.547L190.469 280.15L189.113 279.299L187.74 278.475L186.35 277.682L184.943 276.918L182.601 275.68L182.336 275.539L182.074 275.396L181.812 275.251L181.552 275.106L179.257 273.81L177.891 272.973L176.584 272.047L175.343 271.034L174.173 269.938L173.1 268.786L172.106 267.564L171.195 266.277L170.373 264.935L169.031 262.57L168.9 262.339L168.766 262.11L168.628 261.882L168.491 261.654L167.194 259.548L166.233 258.148L165.138 256.849L163.919 255.667L162.589 254.609L161.4 253.83L160.15 253.151L158.848 252.579L157.503 252.118L154.666 251.274L154.387 251.191L154.109 251.112L153.829 251.035L153.549 250.962L150.86 250.257L149.365 249.851L147.879 249.417L146.401 248.953L144.934 248.462L143.4 247.932L142.583 247.639L141.774 247.331L140.971 247.007L140.174 246.665L138.845 246.077L137.376 245.378L135.948 244.597L134.567 243.737L133.236 242.799L132.011 241.832L130.84 240.798L129.726 239.702L128.674 238.549L128.045 237.82L127.295 236.924L126.574 236.007L125.882 235.067L125.219 234.106L125.006 233.787L124.013 232.214L123.099 230.594L122.267 228.931L121.52 227.229L120.884 225.674L120.685 225.212L120.471 224.759L120.24 224.314L119.993 223.878L118.64 221.581L117.883 220.533L116.946 219.64L115.863 218.934L114.669 218.439L113.225 218.151L111.751 218.173L110.315 218.499L108.977 219.12L108.755 219.254L107.762 219.96L106.898 220.815L106.179 221.798L105.627 222.883L105.129 224.091L104.762 225.211L104.562 226.371L104.537 227.549L104.683 228.718L105.213 230.383L106.094 231.893L107.281 233.177L108.718 234.17L109.426 234.554L109.969 234.825L110.528 235.062L111.101 235.265L111.686 235.432L112.524 235.641L114.554 236.29L116.484 237.195L118.281 238.338L119.918 239.704L120.09 239.868L120.651 240.425L121.185 241.007L121.693 241.613L122.174 242.239L123.207 243.656L124.165 244.874L125.206 246.024L126.326 247.095L127.518 248.087L128.833 249.029L130.216 249.871L131.654 250.61L133.144 251.24L135.191 252.019L135.646 252.189L136.103 252.352L136.562 252.509L137.024 252.662L139.231 253.37L140.744 253.846L142.261 254.301L143.785 254.738L145.314 255.156L148 255.869L148.245 255.934L148.491 255.995L148.74 256.057L148.986 256.116L152.396 256.915L153.564 257.243L154.698 257.668L155.794 258.188L156.842 258.799L158.37 259.93L159.733 261.257L160.908 262.751L161.874 264.39L162.694 266.024L162.821 266.281L162.945 266.537L163.063 266.796L163.179 267.056L163.889 268.684L164.799 270.489L165.904 272.18L167.19 273.736L168.644 275.139L169.495 275.831L170.387 276.469L171.316 277.051L172.28 277.578L175.845 279.387L176.006 279.47L176.222 279.58L177.633 280.313L179.7 281.415L181.742 282.561L183.759 283.752L185.749 284.987L186.19 285.267L186.718 285.598L187.247 285.926L187.78 286.249L188.316 286.569L189.165 287.069L190.999 288.11L192.868 289.088L194.771 290L196.702 290.846L197.73 291.267L198.766 291.666L199.809 292.049L200.857 292.413L202.697 293.029L203.784 293.4L204.867 293.782L205.948 294.176L207.024 294.58L210.798 296.018L210.984 296.088L214.517 297.451L215.734 297.891L216.969 298.277L218.22 298.609L219.482 298.886L219.91 298.97L221.581 299.243L223.265 299.407L224.956 299.463L226.646 299.411L228.141 299.273L229.624 299.05L231.094 298.744L232.542 298.353L234.96 297.629L235.388 297.504L235.821 297.385L236.254 297.274L236.689 297.17L239.204 296.588L240.647 296.329L242.108 296.212L243.571 296.238L245.028 296.409L246.634 296.77L248.193 297.306L249.682 298.01L251.085 298.873L251.463 299.137L252.46 299.885L253.399 300.704L254.276 301.59L255.085 302.539L256.163 303.9L256.819 304.762L257.444 305.648L258.033 306.559L258.589 307.49L259.547 309.169L260.108 310.196L260.629 311.244L261.109 312.312L261.547 313.397L262.064 314.754L262.491 315.994L262.833 317.258L263.09 318.543L263.262 319.842L263.365 320.918L263.431 322.229L263.372 323.539L263.191 324.841L262.888 326.118L262.638 326.983L262.185 328.248L261.572 329.446L260.812 330.553L259.916 331.557L259.789 331.682L258.595 332.684L257.257 333.489L255.813 334.074L254.256 334.431L252.852 334.544L251.484 334.456L250.143 334.177L248.855 333.711L248.587 333.593L247.299 332.886L246.146 331.977L245.159 330.889L244.365 329.651L243.802 328.337L243.458 326.952L243.342 325.529L243.456 324.105L243.718 322.495L243.88 321.663L244.092 320.845L244.355 320.039L244.668 319.252L245.718 316.827L246.068 315.883L246.316 314.906L246.458 313.91L246.493 312.903L246.478 312.062L246.299 310.564L245.822 309.133L245.068 307.825L244.067 306.698L242.968 305.86L241.735 305.239L240.41 304.856L239.036 304.723L236.639 304.712L236.07 304.723L235.501 304.755L234.934 304.812L234.371 304.893L231.183 305.417L230.152 305.573L229.119 305.704L228.082 305.81L227.041 305.891L226.162 305.949L224.433 306.018L222.704 306L220.978 305.893L219.26 305.7L217.797 305.465L216.346 305.167L214.908 304.807L213.488 304.384L212.086 303.934L211.132 303.616L210.185 303.28L209.244 302.926L208.311 302.554L205.448 301.378L204.821 301.122L204.192 300.87L203.563 300.621L202.933 300.375L199.643 299.105L198.907 298.816L198.174 298.522L197.444 298.224L196.716 297.919L194.485 296.94L192.28 295.906L190.1 294.819L187.948 293.679L187.755 293.573L187.157 293.245L186.563 292.911L185.969 292.575L185.378 292.233L181.055 289.722L180.95 289.661L176.352 286.994L175.865 286.716L175.375 286.447L174.879 286.185L174.381 285.931L173.252 285.365L171.433 284.534L169.559 283.835L167.638 283.273L165.684 282.85L164.497 282.663L163.302 282.528L162.104 282.445L160.903 282.413L158.812 282.403L157.832 282.407L156.853 282.43L155.875 282.472L154.897 282.531L153.214 282.649L151.831 282.773L150.452 282.951L149.081 283.18L147.721 283.462L145.935 283.821L144.135 284.09L142.323 284.268L140.503 284.356L140.339 284.359L139.03 284.365L137.722 284.327L136.415 284.245L135.112 284.115L133.386 283.916L132.345 283.814L131.303 283.751L130.258 283.727L129.212 283.741L127.936 283.781L126.429 283.885L124.935 284.105L123.461 284.435L122.016 284.877L120.471 285.487L118.979 286.223L117.556 287.081L116.163 288.09L115.003 289.069L113.956 290.09L112.986 291.181L112.094 292.339L111.443 293.249L110.772 294.229L110.142 295.237L109.555 296.268L109.011 297.325L107.788 299.827L107.507 300.408L107.233 300.993L106.963 301.582L106.702 302.173L105.337 305.289L104.977 306.093L104.604 306.893L104.219 307.688L103.823 308.477L102.768 310.533L102.207 311.575L101.603 312.595L100.959 313.589L100.276 314.555L99.5362 315.558L98.6705 316.652L97.7317 317.683L96.7242 318.648L95.6521 319.541L95.4542 319.695L94.1076 320.651L92.6807 321.486L91.1877 322.191L89.6377 322.766L88.1754 323.171L86.6846 323.458L85.1744 323.624L83.6572 323.668L82.7641 323.66L81.5295 323.615L80.2965 323.507L79.0719 323.338L77.857 323.106L76.27 322.762L75.1257 322.497L73.9923 322.199L72.8675 321.868L71.7538 321.504L70.1328 320.949L69.0118 320.541L67.9076 320.088L66.8217 319.593L65.7561 319.054L64.7063 318.499L63.4763 317.794L62.2958 317.01L61.1696 316.15L60.1025 315.216L59.8332 314.964L58.7244 313.837L57.7115 312.623L56.8019 311.33L55.9898 309.944L55.2973 308.506L54.7378 307.041L54.3021 305.534L53.9803 303.924L53.7951 302.329L53.7481 300.795L53.8332 299.262L54.049 297.742L54.0898 297.52L54.4337 296.037L54.9115 294.59L55.5196 293.191L56.2731 291.816L57.1885 290.457L58.2035 289.23L59.3341 288.108L60.5674 287.101L61.8709 286.232L63.253 285.49L64.6982 284.884L66.1946 284.421L66.492 284.344L67.9147 284.038L69.3574 283.846L70.8113 283.774L72.2661 283.819L73.0925 283.879L74.4138 284.012L75.7254 284.221L77.0228 284.505L78.3014 284.865L80.9892 285.703L81.4567 285.846L81.9246 285.981L82.3955 286.109L82.8683 286.233L84.0873 286.54L86.1173 286.968L88.1741 287.239L90.2448 287.35L92.3178 287.301L93.4443 287.209L94.5656 287.067L95.6794 286.879L96.7846 286.644L98.6311 286.212L99.7393 285.93L100.836 285.607L101.92 285.242L102.989 284.837L103.973 284.444L105.374 283.827L106.731 283.115L108.036 282.315L109.284 281.426L110.558 280.377L111.752 279.239L112.858 278.015L113.874 276.715L114.959 275.213L115.345 274.703L115.753 274.212L116.183 273.74L116.632 273.287L117.392 272.554L118.852 271.366L120.489 270.437L122.258 269.793L124.111 269.45L125.315 269.395L126.516 269.469L127.705 269.671L128.865 269.997L132.585 271.262L132.682 271.295L134.478 271.918L136.627 272.626L138.797 273.265L140.986 273.838L143.191 274.341L144.536 274.627L144.808 274.683L145.081 274.736L145.354 274.785L145.629 274.83L149.731 275.476L150.542 275.547L151.355 275.51L152.156 275.363L152.929 275.107L153.586 274.843L154.893 274.064L155.907 272.927L156.533 271.537L156.713 270.025L156.548 268.909L156.137 267.857L155.501 266.926L154.673 266.158L152.805 264.786L152.146 264.341L151.454 263.951L150.731 263.619L149.987 263.347L145.469 261.902L145.287 261.843L140.916 260.405L140.066 260.139L139.209 259.899L138.347 259.681L137.477 259.489L136.496 259.286L134.734 258.991L132.955 258.825L131.169 258.789L129.345 258.889L127.948 259.054L126.603 259.296L125.273 259.614L123.964 260.008L123.533 260.151L122.042 260.713L120.598 261.385L119.212 262.168L117.889 263.054L116.668 264.014L115.523 265.064L114.457 266.195L113.482 267.402L112.009 269.372L111.748 269.714L111.483 270.054L111.211 270.392L110.934 270.723L109.55 272.362L108.423 273.578L107.187 274.684L105.853 275.669L104.434 276.527L103.105 277.179L101.727 277.717L100.311 278.14L98.8631 278.444L97.7072 278.636L96.5865 278.797L95.458 278.907L94.3274 278.964L93.1935 278.97L91.853 278.948L90.4449 278.885L89.0417 278.747L87.6483 278.534L86.2682 278.248L84.5666 277.784L82.9013 277.206L81.2794 276.52L79.7058 275.726L78.9105 275.29L78.0462 274.798L77.1971 274.283L76.3652 273.74L75.5485 273.175L73.6647 271.823L72.7964 271.191L71.9373 270.545L71.0887 269.886L70.2492 269.214L68.8198 268.054L67.8665 267.271L66.9205 266.48L65.9818 265.68L65.0504 264.872L63.2653 263.306L62.6566 262.771L62.0512 262.236L61.4467 261.697L60.8445 261.157L59.083 259.575L58.1671 258.744L57.2566 257.906L56.3539 257.061L55.4577 256.208L54.2885 255.085L53.4405 254.262L52.6047 253.426L51.7795 252.581L50.9649 251.725L49.8859 250.576L49.0364 249.649L48.2067 248.704L47.4003 247.739L46.6145 246.757L45.9016 245.846L45.0696 244.738L44.2755 243.604L43.5232 242.441L42.8113 241.253L42.4083 240.552L41.7284 239.3L41.1066 238.019L40.5451 236.711L40.0459 235.377L39.8204 234.73L39.3884 233.359L39.0359 231.967L38.765 230.557L38.5774 229.133L38.5201 228.573L38.4223 227.104L38.4287 225.631L38.5401 224.163L38.7553 222.706L38.8172 222.369L39.1556 220.877L39.6155 219.417L40.1934 217.999L40.8846 216.635L40.9956 216.437L41.7965 215.142L42.7083 213.921L43.7243 212.784L44.8868 211.697L46.1746 210.688L47.4966 209.842L48.8924 209.125L50.3496 208.542L50.5344 208.478L51.97 208.056L53.4386 207.774L54.9282 207.632L56.4245 207.634L56.7977 207.653L58.2675 207.803L59.714 208.107L61.1187 208.564L62.5119 209.189L63.9526 210.038L65.2413 211.025L66.4029 212.158L67.4198 213.424L68.235 214.724L68.8982 216.107L69.3999 217.558L69.7345 219.055L69.805 219.489L69.972 220.909L70.0057 222.339L69.9073 223.765L69.6764 225.177L69.2898 227.01L69.1011 227.834L68.8849 228.651L68.6428 229.46L68.3737 230.26L67.4365 232.899L67.1182 233.829L66.8209 234.767L66.5445 235.711L66.291 236.66L65.8978 238.198L65.5758 239.609L65.3272 241.035L65.1532 242.472L65.0535 243.916L65.0297 244.474L65.013 245.963L65.0899 247.45L65.2606 248.93L65.5247 250.396L65.9437 252.062L66.483 253.694L67.1401 255.282L67.9287 256.851L68.6826 258.134L69.4915 259.336L70.3697 260.488L71.3164 261.584L71.7578 262.066L72.7556 263.102L73.8031 264.089L74.8977 265.022L76.0359 265.901L76.2366 266.049L77.5935 266.992L78.9973 267.865L80.4428 268.663L81.9291 269.387L82.3384 269.574L83.5671 270.102L84.8191 270.581L86.0884 271.006L87.3749 271.378L88.929 271.794L89.9754 272.04L91.0339 272.226L92.1008 272.35L93.1751 272.412L95.3539 272.473L96.3861 272.445L97.4093 272.297L98.4078 272.035L99.3704 271.661L100.313 271.232L101.617 270.453L102.717 269.408L103.563 268.147L104.111 266.732L104.332 265.334L104.261 263.922L103.902 262.552L103.271 261.286L101.752 258.89L101.633 258.696L101.515 258.499L101.401 258.302L101.289 258.1L100.379 256.419L99.4729 254.603L98.6928 252.729L98.0416 250.806L97.5234 248.843L97.2843 247.692L97.0914 246.532L96.9439 245.365L96.8417 244.193L96.7562 242.92L96.6833 241.512L96.6551 240.103L96.6683 238.696L96.725 237.287L96.7765 236.344L96.8675 235.002L96.9863 233.662L97.134 232.326L97.3107 230.993L97.8045 227.566L97.8368 227.34L97.8762 227.035L97.9634 226.334L98.1587 223.618L98.0784 220.897L97.72 218.198L97.093 215.549L96.9619 215.115L96.8242 214.684L96.6791 214.255L96.5271 213.829L95.611 211.329L95.1268 209.968L94.6706 208.596L94.2417 207.215L93.8406 205.826L93.4319 204.359L93.171 203.372L92.9339 202.379L92.7209 201.382L92.5335 200.378L92.4332 199.805L92.1555 197.916L91.9776 196.016L91.9013 194.108L91.9264 192.199L91.9469 191.681L92.0081 190.636L92.1065 189.594L92.2425 188.557L92.4157 187.525L92.4686 187.244L92.9144 185.274L93.5067 183.342L94.2416 181.46L95.1154 179.639L95.6857 178.613L96.2985 177.614L96.9552 176.641L97.653 175.699L97.9591 175.303L99.0172 173.857L99.9943 172.356L100.889 170.801L101.695 169.202L102.222 168.082L102.554 167.358L102.873 166.629L103.179 165.895L103.471 165.155L104.383 162.786L104.821 161.71L105.301 160.651L105.824 159.612L106.387 158.594L106.508 158.384L107.529 156.754L108.658 155.199L109.894 153.725L111.229 152.339L112.163 151.475L113.136 150.655L114.145 149.88L115.188 149.152L116.903 148.013L117.673 147.512L118.451 147.025L119.238 146.553L120.034 146.095L121.275 145.395L122.681 144.646L124.121 143.959L125.59 143.341L127.086 142.791L128.625 142.304L130.186 141.889L131.764 141.547L133.358 141.278L134.943 141.086L136.536 140.966L138.132 140.921L139.729 140.948L141.963 141.036L142.464 141.054L142.966 141.066L143.467 141.072L143.969 141.072L145.526 141.065L147.462 140.998L149.39 140.814L151.304 140.514L153.197 140.099L154.412 139.769L155.613 139.39L156.798 138.966L157.965 138.496L159.44 137.868L160.515 137.426L161.6 137.011L162.696 136.624L163.801 136.264L164.18 136.146L165.963 135.635L167.768 135.202L169.589 134.852L171.425 134.582L172.776 134.438L174.13 134.336L175.485 134.28L176.845 134.268L177.882 134.276L179.229 134.301L180.574 134.357L181.916 134.446L183.257 134.566L184.316 134.673L185.653 134.83L186.985 135.028L188.309 135.27L189.625 135.552L190.238 135.695L191.746 136.08L193.237 136.532L194.704 137.048L196.148 137.629L197.651 138.314L199.121 139.07L200.554 139.893L201.946 140.783L202.089 140.878L203.293 141.724L204.463 142.616L205.596 143.554L206.692 144.537L207.488 145.277L208.357 146.11L209.207 146.959L210.036 147.832L210.845 148.723L212.949 151.095L213.239 151.424L213.528 151.754L213.816 152.086L214.104 152.417L214.877 153.316L216.319 154.976L217.779 156.619L219.257 158.246L220.752 159.855L221.321 160.461L221.744 160.908L222.167 161.354L222.593 161.796L223.022 162.238L225.509 164.78L226.088 165.384L226.652 166.002L227.204 166.63L227.742 167.272L229.411 169.304L230.061 170.146L230.656 171.026L231.198 171.941L231.682 172.889L232.583 174.792L232.971 175.758L233.243 176.765L233.39 177.796L233.414 178.839L233.362 180.273L233.187 181.466L232.761 182.593L232.104 183.603L231.244 184.449L230.168 185.119L228.969 185.529L227.708 185.658L226.45 185.5L224.331 184.984L223.68 184.803L223.042 184.578L222.421 184.311L221.819 184.002L219.039 182.457L218.194 182.003L217.338 181.573L216.47 181.169L215.59 180.788L214.609 180.382L213.013 179.778L211.381 179.276L209.722 178.877L208.04 178.583L206.57 178.416L205.092 178.329L203.613 178.323L202.136 178.397L201.211 178.469L199.946 178.59L198.688 178.756L197.436 178.967L196.193 179.223L195.059 179.477L193.732 179.804L192.42 180.188L191.126 180.63L189.797 181.148L188.126 181.893L186.553 182.709L185.03 183.615L183.561 184.605L182.422 185.462L181.323 186.373L180.267 187.331L179.257 188.339L178.28 189.359L177.538 190.154L176.814 190.966L176.109 191.795L175.423 192.641L174.292 194.073L173.543 195.044L172.816 196.031L172.113 197.034L171.434 198.055L170.967 198.772L170.138 200.101L169.361 201.46L168.636 202.846L167.963 204.26L167.314 205.774L166.723 207.314L166.196 208.875L165.729 210.456L165.608 210.902L165.274 212.2L164.976 213.506L164.715 214.821L164.492 216.142L163.962 219.569L163.929 219.796L163.884 220.101L163.294 224.25L163.123 225.241L162.893 226.218L162.602 227.18L162.256 228.123L161.731 229.422L161.117 230.702L160.347 231.894L159.43 232.979L158.384 233.939L157.028 234.878L155.548 235.606L153.978 236.109L152.336 236.376L150.883 236.413L149.449 236.263L148.045 235.932L146.696 235.424L145.296 234.792L144.419 234.365L143.567 233.89L142.743 233.364L141.95 232.795L141.129 232.169L139.802 231.084L138.548 229.915L137.374 228.665L136.284 227.34L135.408 226.134L134.604 224.879L133.871 223.581L133.215 222.244L131.904 219.371L131.808 219.161L131.677 218.882L130.333 216.055L129.732 214.652L129.244 213.207L128.868 211.727L128.609 210.224L128.461 208.567L128.456 206.903L128.59 205.244L128.866 203.602L129.145 202.289L129.341 201.436L129.564 200.588L129.814 199.75L130.09 198.918L130.765 196.992L131.231 195.747L131.746 194.521L132.311 193.319L132.924 192.141L133.278 191.494L134.047 190.18L134.89 188.912L135.806 187.695L136.789 186.533L137.959 185.312L139.204 184.167L140.52 183.108L141.902 182.133L142.296 181.874L143.388 181.188L144.509 180.551L145.656 179.962L146.827 179.423L148.682 178.617L149.533 178.257L150.39 177.91L151.252 177.579L152.121 177.263L155.127 176.198L155.796 175.956L156.46 175.706L157.122 175.446L157.78 175.178L160.069 174.228L161.236 173.711L162.378 173.141L163.491 172.518L164.575 171.844L165.595 171.176L166.678 170.41L167.703 169.57L168.667 168.66L169.566 167.684L170.18 166.965L171.03 165.868L171.767 164.692L172.385 163.45L172.877 162.152L173.087 161.501L173.437 160.136L173.616 158.738L173.619 157.33L173.448 155.93L173.395 155.647L173.008 154.177L172.412 152.781L171.618 151.486L170.645 150.321L169.532 149.326L168.289 148.499L166.939 147.86L165.513 147.421L164.576 147.206L163.506 147.004L162.422 146.887L161.332 146.858L160.244 146.915L156.841 147.233L156.437 147.268L156.033 147.299L155.629 147.325L155.224 147.345L152.996 147.45L151.303 147.506L149.608 147.519L147.913 147.487L146.22 147.411L145.69 147.381L144.425 147.323L143.159 147.294L141.892 147.295L140.626 147.327L138.828 147.392L137.781 147.449L136.738 147.543L135.697 147.677L134.663 147.847L132.756 148.197L131.589 148.456L130.444 148.801L129.329 149.231L128.248 149.743L126.6 150.729L125.08 151.907L123.713 153.257L122.517 154.761L122.286 155.09L121.756 155.891L121.272 156.717L120.832 157.57L120.438 158.445L119.674 160.279L119.157 161.437L118.583 162.57L117.953 163.673L117.269 164.743L116.154 166.272L114.929 167.715L113.601 169.063L112.177 170.31L111.039 171.234L110.605 171.593L110.176 171.959L109.753 172.331L109.336 172.71L107.873 174.062L106.714 175.192L105.616 176.385L104.584 177.635L103.623 178.939L102.747 180.268L101.944 181.642L101.216 183.055L100.563 184.507L100.058 185.713L99.7184 186.589L99.425 187.481L99.1776 188.389L98.9783 189.307L98.5882 191.365L98.4366 192.563L98.4343 193.77L98.5825 194.967L98.876 196.138L99.513 197.673L100.402 199.076L101.517 200.309L102.825 201.334L103.733 201.928L104.43 202.353L105.152 202.733L105.897 203.065L106.661 203.35L109.356 204.257L110.282 204.589L111.194 204.958L112.09 205.362L112.97 205.802L113.486 206.074L115.133 207.036L116.69 208.141L118.141 209.379L119.475 210.743L120.255 211.665L120.982 212.629L121.652 213.631L122.266 214.671L123.499 216.9L123.853 217.554L124.196 218.215L124.528 218.879L124.849 219.552L126.547 223.187L126.747 223.609L126.952 224.028L127.159 224.447L127.373 224.863L128.295 226.643L129.13 228.145L130.05 229.596L131.057 230.99L132.142 232.323L133.142 233.422L134.196 234.467L135.303 235.459L136.458 236.393L136.948 236.768L138.08 237.602L139.243 238.388L140.437 239.128L141.661 239.819L143.214 240.657L144.045 241.085L144.896 241.477L145.762 241.835L146.64 242.155L148.299 242.72L149.613 243.097L150.96 243.342L152.324 243.452L153.691 243.427L155.36 243.211L156.992 242.792L158.56 242.179L160.042 241.378L160.277 241.233L161.34 240.506L162.338 239.688L163.261 238.789L164.104 237.814L164.805 236.925L165.598 235.856L166.321 234.74L166.975 233.581L167.554 232.385L167.849 231.724L168.424 230.338L168.92 228.921L169.339 227.479L169.675 226.017L170.008 224.371L170.171 223.515L170.317 222.658L170.445 221.797L170.555 220.934L170.833 218.57L170.987 217.415L171.175 216.263L171.399 215.12L171.657 213.982L171.806 213.374L172.258 211.709L172.799 210.07L173.424 208.462L174.136 206.891L174.811 205.577L175.545 204.293L176.336 203.045L177.184 201.834L177.743 201.073L178.511 200.062L179.305 199.075L180.129 198.112L180.982 197.173L181.941 196.149L182.81 195.243L183.703 194.36L184.617 193.501L185.554 192.663L186.587 191.764L187.568 190.943L188.581 190.162L189.625 189.423L190.698 188.725L191.611 188.159L192.811 187.46L194.05 186.837L195.325 186.288L196.63 185.818L197.128 185.654L198.603 185.234L200.107 184.929L201.63 184.742L203.163 184.674L204.794 184.733L206.416 184.925L208.015 185.25L209.583 185.707L210.297 185.947L211.414 186.354L212.511 186.816L213.582 187.33L214.63 187.896L216.178 188.785L217.16 189.365L218.126 189.972L219.075 190.605L220.006 191.263L220.813 191.85L222.07 192.807L223.283 193.815L224.451 194.877L225.571 195.989L226.68 197.19L227.733 198.441L228.729 199.74L229.665 201.082L229.764 201.233L230.565 202.492L231.314 203.781L232.012 205.099L232.656 206.445L233.333 208.031L233.938 209.646L234.467 211.287L234.933 213.007L235.265 214.463L235.533 215.876L235.748 217.296L235.908 218.723L235.992 219.616L236.101 220.951L236.174 222.289L236.211 223.629L236.213 224.969L236.195 226.545L236.168 227.643L236.111 228.741L236.025 229.836L235.912 230.928L235.687 232.829L235.523 233.982L235.299 235.125L235.016 236.256L234.677 237.37L234.315 238.462L233.791 239.831L233.147 241.148L232.391 242.402L231.501 243.616L230.354 244.903L229.11 246.035L227.753 247.031L226.3 247.879L224.94 248.505L223.526 249L222.073 249.362L220.593 249.588L219.879 249.663L218.552 249.757L217.221 249.764L215.893 249.682L214.574 249.511L212.75 249.212L211.812 249.046L210.878 248.852L209.95 248.632L209.028 248.386L206.999 247.812L205.83 247.471L204.665 247.109L203.509 246.728L202.359 246.327L200.084 245.513L199.33 245.239L198.578 244.962L197.826 244.68L197.078 244.393L193.886 243.161L193.215 242.908L192.539 242.668L191.859 242.442L191.175 242.228L188.695 241.476L187.531 241.165L186.347 240.929L185.152 240.77L183.947 240.689L182.39 240.635L181.213 240.657L180.046 240.799L178.901 241.064L177.788 241.447L176.939 241.79L175.663 242.433L174.512 243.279L173.517 244.302L172.704 245.477L172.105 246.746L171.721 248.097L171.562 249.492L171.631 250.894L171.828 252.383L171.98 253.287L172.195 254.177L172.47 255.05L172.808 255.901L173.713 257.97L174.21 259.032L174.762 260.068L175.367 261.072L176.022 262.045L177.242 263.611L178.593 265.062L180.065 266.392L181.648 267.587L182.362 268.079L182.981 268.493L183.611 268.891L184.252 269.273L184.902 269.635L187.402 270.988L188.329 271.497L189.249 272.019L190.162 272.551L191.068 273.096L192.374 273.894L193.58 274.617L194.799 275.321L196.029 276.003L197.27 276.667L198.889 277.49L200.523 278.28L202.175 279.034L203.843 279.753L204.717 280.118L205.58 280.484L206.442 280.858L207.299 281.238L208.154 281.626L211.757 283.285L212.031 283.413L212.304 283.544L212.576 283.678L212.845 283.814L216.644 285.759L217.358 286.08L218.1 286.329L218.863 286.503L219.641 286.599L220.331 286.65L222.012 286.56L223.616 286.047L225.038 285.147L226.188 283.916L226.673 283.13L227.045 282.285L227.294 281.396L227.419 280.48L227.583 277.913L227.682 276.945L227.849 275.987L228.088 275.042L228.394 274.119L228.649 273.436L229.356 271.908L230.285 270.508L231.417 269.264L232.727 268.208L233.865 267.522L235.078 266.979L236.347 266.586L237.655 266.348L239.802 266.092L240.526 266.018L241.251 265.972L241.98 265.953L242.708 265.959L245.687 266.044L246.69 266.033L247.689 265.949L248.678 265.792L249.654 265.559L250.932 265.204L252.263 264.721L253.504 264.042L254.625 263.18L255.602 262.158L256.459 260.912L257.101 259.544L257.512 258.091L257.68 256.587L257.715 255.365L257.71 254.471L257.642 253.579L257.512 252.693L257.32 251.819L256.902 250.181L256.578 248.739L256.342 247.282L256.191 245.813L256.128 244.339L256.123 243.865L256.141 242.43L256.229 240.997L256.389 239.57L256.621 238.154L256.923 236.555L257.09 235.595L257.226 234.631L257.332 233.662L257.408 232.692L257.441 232.184L257.495 230.222L257.412 228.262L257.191 226.312L256.835 224.382L256.546 223.205L256.207 222.042L255.818 220.894L255.379 219.762L254.489 217.608L254.176 216.821L253.884 216.026L253.611 215.224L253.36 214.416L252.93 212.963L252.537 211.428L252.254 209.87L252.082 208.296L252.025 206.714L252.083 205.133L252.254 203.558L252.537 202.002L252.932 200.47L253.003 200.23L253.465 198.827L254.016 197.454L254.65 196.12L255.366 194.827L255.64 194.367L256.418 193.15L257.272 191.987L258.198 190.879L259.191 189.833L259.728 189.305L260.734 188.387L261.807 187.548L262.941 186.794L264.13 186.129L264.793 185.791L266.081 185.213L267.422 184.767L268.801 184.458L270.202 184.288L270.734 184.25L272.157 184.235L273.57 184.39L274.956 184.712L276.293 185.197L276.779 185.406L278.006 186.041L279.136 186.839L280.146 187.783L281.015 188.859L281.182 189.097L281.93 190.372L282.465 191.751L282.769 193.198L282.836 194.675L282.663 196.157L282.253 197.591L281.615 198.94L280.766 200.165L279.941 201.174L279.285 201.915L278.576 202.602L277.814 203.235L277.01 203.808L274.473 205.471L273.88 205.871L273.297 206.287L272.723 206.716L272.162 207.161L270.467 208.541L269.436 209.46L268.489 210.465L267.635 211.551L266.88 212.707L266.08 214.25L265.457 215.872L265.017 217.555L264.768 219.275L264.62 220.938L264.574 221.554L264.544 222.172L264.531 222.791L264.534 223.409L264.555 224.47L264.545 226.534L264.434 228.593L264.225 230.644L263.917 232.685L263.608 234.437L263.561 234.702L263.511 234.964L263.457 235.227L263.401 235.488L262.663 238.828L262.473 240.006L262.423 241.2L262.508 242.39L262.733 243.563L263.342 245.311L264.254 246.921L265.44 248.341L266.86 249.528L267.329 249.854L268.16 250.381L269.032 250.835L269.939 251.217L270.873 251.523L274.939 252.665L275.12 252.716L275.361 252.786L278.565 253.745L279.949 254.083L281.36 254.272L282.784 254.313L284.203 254.205L285.885 253.877L287.512 253.341L289.06 252.604L290.499 251.678L291.838 250.695L292.352 250.303L292.852 249.896L293.34 249.473L293.813 249.034L296.195 246.755L296.85 246.099L297.471 245.409L298.06 244.691L298.611 243.945L299.367 242.87L300.202 241.523L300.871 240.09L301.369 238.586L301.689 237.036L301.826 235.462L301.779 233.883L301.547 232.32L301.136 230.794L300.837 229.897L300.441 228.827L299.976 227.786L299.445 226.776L298.849 225.805L297.006 223.006L296.785 222.665L296.566 222.322L296.352 221.977L296.141 221.63L294.739 219.294L294.037 218.023L293.428 216.706L292.915 215.348L292.489 213.911L292.122 212.204L291.911 210.519L291.848 208.823L291.93 207.127L292.121 205.648L292.427 204.187L292.841 202.754L293.364 201.355L293.589 200.812L294.174 199.525L294.832 198.275L295.566 197.066L296.369 195.905L296.796 195.326L297.677 194.191L298.614 193.099L299.602 192.055L300.639 191.061L301.09 190.648L302.199 189.681L303.354 188.768L304.548 187.911L305.783 187.11L306.26 186.817L307.525 186.087L308.829 185.428L310.169 184.842L311.537 184.332L311.955 184.19L313.411 183.747L314.893 183.4L316.395 183.156L317.911 183.008L318.165 182.992L319.707 182.951L321.245 183.022L322.776 183.205L324.29 183.498L324.875 183.634L326.168 183.989L327.431 184.441L328.655 184.99L329.833 185.632L330.862 186.244L331.883 186.929L332.827 187.717L333.685 188.598L334.444 189.566L335.109 190.512L335.765 191.62L336.239 192.817L336.52 194.075L336.598 195.361L336.595 195.601L336.42 197.092L335.955 198.52L335.219 199.83L334.24 200.969L333.229 201.782L332.092 202.411L330.867 202.837L329.586 203.049L327.51 203.212L326.826 203.248L326.144 203.25L325.46 203.217L324.781 203.15L322.18 202.824L320.967 202.716L319.75 202.701L318.536 202.774L317.329 202.937L316.622 203.058L315.134 203.403L313.697 203.915L312.326 204.588L311.041 205.413L309.832 206.403L308.748 207.526L307.801 208.768L306.981 210.161L306.354 211.544L305.898 212.933L305.59 214.364L305.435 215.819L305.379 216.873L305.355 218.038L305.401 219.204L305.52 220.364L305.711 221.514L305.923 222.587L306.255 224.049L306.665 225.491L307.154 226.908L307.72 228.3L308.432 229.799L309.231 231.249L310.117 232.648L311.083 233.992L311.828 234.964L312.391 235.731L312.921 236.522L313.416 237.334L313.876 238.167L314.189 238.758L314.97 240.435L315.585 242.18L316.029 243.976L316.296 245.808L316.376 247.115L316.369 248.425L316.269 249.732L316.081 251.028L315.403 254.776L314.888 257.737L314.791 259.251L315.02 260.75L315.566 262.166L316.402 263.431L317.234 264.278L318.195 264.973L319.26 265.496L320.398 265.834L324.206 266.619L324.323 266.644L326.776 267.124L328.707 267.467L330.647 267.743L332.596 267.955L334.551 268.098L335.802 268.153L337.054 268.183L338.308 268.185L339.56 268.159L341.98 268.082L342.743 268.047L343.504 267.989L344.262 267.907L345.018 267.804L345.929 267.665L347.81 267.287L349.648 266.737L351.426 266.017L353.129 265.136L354.184 264.481L355.196 263.767L356.165 262.991L357.084 262.159L358.832 260.479L359.382 259.94L359.919 259.389L360.442 258.826L360.953 258.25L362.857 256.057L363.481 255.283L364.05 254.466L364.557 253.611L365.002 252.722L365.393 251.867L365.943 250.382L366.271 248.832L366.367 247.251L366.231 245.672L365.909 244.276L365.407 242.935L364.73 241.673L363.892 240.51L362.328 238.619L362.008 238.243L361.68 237.876L361.343 237.518L360.996 237.168L358.779 234.988L358.046 234.161L357.434 233.245L356.951 232.253L356.609 231.205L356.495 230.758L356.285 229.285L356.386 227.8L356.798 226.369L357.499 225.056L358.357 224.02L359.395 223.166L360.577 222.524L361.858 222.118L362.743 221.928L363.936 221.751L365.143 221.729L366.342 221.864L367.513 222.152L369.414 222.753L370.325 223.07L371.217 223.438L372.087 223.858L372.93 224.326L374.453 225.229L375.616 225.951L376.745 226.724L377.841 227.542L378.903 228.406L379.073 228.551L380.35 229.694L381.571 230.898L382.731 232.161L383.826 233.48L383.991 233.688L384.821 234.779L385.61 235.899L386.359 237.048L387.066 238.223L387.755 239.422L388.315 240.422L388.846 241.437L389.352 242.465L389.83 243.507L390.866 245.847L391.207 246.571L391.581 247.275L391.99 247.962L392.431 248.63L393.859 250.679L394.543 251.528L395.338 252.275L396.228 252.905L397.196 253.406L397.564 253.564L399.018 254.014L400.535 254.138L402.043 253.931L403.469 253.405L404.556 252.736L405.503 251.878L406.279 250.865L406.859 249.726L407.484 248.158L407.808 247.235L408.051 246.288L408.212 245.322L408.291 244.346L408.348 242.775L408.352 241.349L408.256 239.928L408.063 238.518L407.772 237.123L407.559 236.256L407.218 235.001L406.818 233.765L406.359 232.549L405.841 231.356L405.031 229.606L404.653 228.728L404.32 227.831L404.037 226.918L403.804 225.992L403.466 224.496L403.241 223.113L403.183 221.716L403.291 220.321L403.565 218.95L403.674 218.538L404.137 217.176L404.786 215.892L405.608 214.711L406.59 213.657L407.81 212.681L409.165 211.901L410.624 211.339L412.166 211.001L413.621 210.898L415.06 210.999L416.471 211.299L417.827 211.792L418.446 212.069L419.625 212.67L420.739 213.391L421.767 214.224L422.706 215.16L423.773 216.342L424.468 217.154L425.12 218.002L425.726 218.883L426.284 219.795L427.242 221.457L427.815 222.5L428.342 223.566L428.823 224.652L429.258 225.759L429.534 226.505L430.035 228.031L430.427 229.59L430.708 231.173L430.874 232.771L430.925 234.348L430.868 235.923L430.7 237.491L430.423 239.044L430.207 240.044L429.951 241.133L429.656 242.213L429.319 243.28L428.942 244.334L427.841 247.239L427.653 247.761L427.481 248.288L427.325 248.82L427.186 249.356L426.643 251.59L426.406 252.986L426.367 254.402L426.53 255.809L426.907 257.235L427.552 258.741L428.407 260.072L429.468 261.245L430.705 262.231L432.01 262.967L433.412 263.493L434.879 263.797L436.375 263.87L438.209 263.818L438.934 263.751L439.645 263.589L440.327 263.337L440.973 262.998L441.412 262.73L442.684 261.614L443.508 260.136L443.788 258.467L443.49 256.802L443.101 255.975L442.566 255.232L441.907 254.6L441.139 254.101L439.419 253.192L438.436 252.566L437.565 251.789L436.831 250.881L436.237 249.838L435.706 248.252L435.559 246.617L435.793 244.994L436.393 243.466L437.082 242.417L437.944 241.504L438.953 240.758L440.079 240.202L442.037 239.443L442.819 239.167L443.617 238.946L444.427 238.775L445.246 238.658L447.844 238.37L448.913 238.223L449.975 238.021L451.023 237.763L452.057 237.451L453.246 237.06L454.605 236.534L455.904 235.875L457.132 235.087L458.276 234.183L458.482 234.001L459.574 232.926L460.536 231.733L461.354 230.438L462.019 229.058L462.535 227.563L462.871 226.016L463.022 224.441L462.986 222.858L462.968 222.647L462.768 221.218L462.411 219.821L461.901 218.473L461.242 217.19L460.794 216.423L460.101 215.4L459.281 214.472L458.348 213.66L457.318 212.973L456.313 212.395L455.189 211.88L453.988 211.584L452.755 211.517L451.529 211.68L450.037 212.222L448.716 213.101L447.642 214.272L446.879 215.664L445.882 218.153L445.791 218.372L445.662 218.663L444.358 221.403L443.683 222.449L442.762 223.288L441.66 223.864L440.446 224.14L439.086 224.076L437.798 223.635L436.683 222.854L435.83 221.792L434.607 219.727L434.378 219.317L434.172 218.894L433.99 218.461L433.83 218.018L433.605 217.329L432.745 215.245L431.588 213.31L430.157 211.567L428.485 210.053L428.046 209.713L427.549 209.34L427.038 208.986L426.515 208.65L425.979 208.334L422.325 206.264L421.882 206.019L421.433 205.784L420.979 205.558L420.52 205.343L418.78 204.546L417.182 203.918L415.525 203.476L413.828 203.221L412.113 203.158L410.663 203.256L409.228 203.491L407.823 203.862L406.458 204.362L405.924 204.589L404.611 205.206L403.353 205.926L402.154 206.744L401.025 207.655L399.767 208.863L398.632 210.187L397.629 211.613L396.765 213.128L396.042 214.55L395.757 215.149L395.506 215.764L395.284 216.391L395.096 217.027L394.7 219.425L394.77 221.855L395.302 224.225L396.277 226.451L396.58 226.992L396.749 227.304L396.91 227.619L397.062 227.94L397.208 228.263L398.935 232.241L399.209 232.891L399.471 233.548L399.72 234.208L399.957 234.872L401.41 239.087L401.496 239.366L401.562 239.652L401.609 239.941L401.636 240.233L401.751 242.246L401.52 243.53L400.731 244.569L399.557 245.137L398.254 245.11L397.561 244.826L396.969 244.367L396.52 243.769L396.245 243.072L395.442 239.792L395.259 239.159L395.029 238.539L394.749 237.94Z" stroke="#FF5053" stroke-width="1.42848"/>
</svg>
