<svg width="383" height="318" viewBox="0 0 383 318" fill="none" xmlns="http://www.w3.org/2000/svg">
<path d="M129.299 303.109L129.757 301.693L130.043 301.257L130.171 301.075L130.312 300.904L130.464 300.744L130.629 300.595L133.895 297.828L134.428 297.361L134.948 296.877L135.452 296.38L135.941 295.865L138.527 293.058L138.807 292.724L139.051 292.362L139.257 291.979L139.423 291.575L139.952 290.091L140.112 288.951L139.807 287.841L139.09 286.942L138.075 286.402L137.238 286.286L136.405 286.423L135.647 286.799L135.035 287.382L132.834 290.207L132.645 290.44L132.448 290.666L132.242 290.883L132.03 291.094L129.487 293.516L128.756 294.225L128.04 294.946L127.336 295.682L126.645 296.429L124.718 298.555L124.295 299.006L123.86 299.446L123.411 299.869L122.948 300.281L121.993 301.106L120.636 302.146L119.169 303.024L117.611 303.727L115.982 304.244L114.766 304.502L113.531 304.656L112.287 304.705L111.045 304.649L108.064 304.392L107.747 304.363L107.431 304.332L107.115 304.297L106.8 304.258L103.469 303.838L102.402 303.716L101.332 303.619L100.262 303.545L99.1884 303.497L97.2082 303.473L95.2295 303.53L93.2555 303.671L91.2875 303.898L90.3466 304.026L89.7439 304.11L89.1428 304.206L88.5432 304.307L87.9451 304.418L84.0247 305.17L83.5665 305.244L83.1053 305.295L82.6409 305.318H82.1767L79.9674 304.954L77.9287 304.024L76.2037 302.591L74.9153 300.755L74.777 300.49L74.697 300.347L74.1205 299.396L73.6516 297.902L73.9299 296.358L74.8923 295.123L76.319 294.477L76.6312 294.436L76.9448 294.423L77.2599 294.442L77.572 294.491L81.6924 295.343L82.2874 295.459L82.8854 295.56L83.485 295.647L84.0877 295.719L86.6829 295.995L87.816 296.107L88.9521 296.203L90.0883 296.283L91.226 296.344L91.8979 296.377L93.4906 296.466L95.0819 296.58L96.6701 296.719L98.2567 296.882L100.114 297.089L100.652 297.15L101.189 297.212L101.725 297.276L102.26 297.343L106.62 297.891L106.952 297.93L107.286 297.964L107.618 297.991L107.952 298.014L110.699 298.176L112.026 298.167L113.341 297.985L114.62 297.631L115.842 297.113L116.534 296.765L117.482 296.195L118.339 295.494L119.083 294.674L119.699 293.756L119.778 293.618L120.417 292.134L120.711 290.546L120.645 288.931L120.224 287.371L119.855 286.579L119.393 285.836L118.846 285.157L118.22 284.547L116.395 282.969L115.637 282.369L114.832 281.831L113.986 281.363L113.038 280.939L111.214 280.367L109.391 280.116L107.554 280.164L105.747 280.511L104.828 280.81L103.938 281.186L103.083 281.635L102.269 282.158L100.171 283.635L99.5005 284.093L98.8148 284.528L98.1168 284.943L97.4065 285.336L95.9429 286.115L94.6883 286.721L93.3907 287.224L92.0562 287.623L90.6618 287.922L89.0751 288.126L87.5085 288.183L85.9434 288.095L84.3937 287.867L83.0115 287.537L81.6631 287.097L80.3533 286.545L79.0941 285.889L78.3761 285.476L77.3645 284.857L76.3867 284.183L75.4457 283.461L74.5463 282.688L73.4902 281.731L72.6414 280.937L71.8205 280.116L71.0256 279.269L70.2585 278.397L69.8234 277.884L68.8394 276.667L67.9154 275.404L67.0513 274.098L66.2534 272.753L66.1412 272.554L65.5032 271.354L64.9204 270.126L64.3931 268.873L63.9227 267.598L63.2416 265.614L63.0448 264.982L62.8833 264.341L62.7603 263.691L62.6727 263.035L62.4667 261.052L62.4559 259.781L62.6866 258.532L63.1478 257.349L63.8258 256.275L64.6622 255.377L65.6492 254.648L66.7531 254.114L67.9354 253.792L70.8765 253.274L71.1409 253.229L71.4069 253.191L71.6729 253.157L71.9388 253.128L76.4974 252.672L77.0017 252.619L77.5044 252.564L78.0071 252.504L78.5099 252.439L81.0528 252.156L83.6034 251.972L86.1602 251.889L88.7185 251.904L89.2734 251.918L89.4841 251.925L89.6948 251.931L89.9038 251.938L90.1145 251.946L95.1557 252.136L95.4816 252.146L95.8076 252.154L96.1335 252.16L96.4594 252.163L99.4713 252.183L100.698 252.231L101.92 252.359L103.13 252.565L104.326 252.85L105.998 253.393L107.612 254.087L109.154 254.929L110.612 255.911L111.173 256.327L111.883 256.879L112.572 257.457L113.236 258.062L113.877 258.692L115.744 260.609L116.337 261.197L116.946 261.769L117.573 262.32L118.217 262.855L119.201 263.643L120.465 264.58L121.801 265.41L123.199 266.133L124.65 266.74L125.995 267.187L127.368 267.536L128.764 267.784L130.174 267.932L130.471 267.952L131.942 268.003L133.412 267.954L134.875 267.804L136.327 267.556L137.271 267.362L138.308 267.116L139.331 266.806L140.33 266.435L141.306 266.003L143.322 265.039L144.115 264.713L144.938 264.475L145.784 264.334L146.666 264.284L148.408 264.481L150.035 265.061L151.489 265.993L152.694 267.231L153.195 267.963L153.608 268.747L153.926 269.574L154.146 270.434L154.585 272.693L154.75 273.695L154.856 274.706L154.902 275.721L154.89 276.738L154.718 280.78L154.595 284.111L154.638 285.474L154.865 286.818L155.274 288.118L155.857 289.349L156.65 290.552L157.606 291.626L158.709 292.552L159.933 293.308L162.297 294.54L162.466 294.631L162.635 294.722L162.803 294.816L162.971 294.91L166.57 296.979L167.252 297.367L167.936 297.753L168.625 298.133L169.314 298.509L170.017 298.889L171.665 299.8L173.294 300.743L174.906 301.715L176.5 302.718L177.655 303.459L178.073 303.731L178.488 304.009L178.9 304.291L179.309 304.577L181.245 305.956L182.391 306.72L183.583 307.415L184.814 308.034L186.081 308.578L187.637 309.125L189.227 309.558L190.844 309.875L192.48 310.072L195.08 310.289L195.203 310.3L195.366 310.316L200.51 310.789L200.931 310.83L201.353 310.875L201.772 310.924L202.194 310.976L205.942 311.468L206.692 311.543L207.445 311.573L208.2 311.559L208.952 311.5L211.165 311.258L212.23 311.049L213.245 310.662L214.18 310.108L215.007 309.404L215.316 309.091L216.107 308.077L216.644 306.906L216.895 305.645L216.847 304.358L216.541 303.212L215.997 302.158L215.242 301.245L214.309 300.515L213.116 299.772L212.318 299.333L211.477 298.98L210.603 298.72L209.707 298.554L206.646 298.153L206.053 298.067L205.461 297.967L204.872 297.85L204.286 297.717L202.038 297.178L200.77 296.861L199.509 296.518L198.255 296.152L197.006 295.761L194.408 294.916L194.03 294.795L193.65 294.673L193.27 294.554L192.891 294.436L189.374 293.348L188.581 293.092L187.794 292.818L187.013 292.527L186.24 292.216L184.573 291.526L183.375 290.986L182.213 290.373L181.091 289.689L180.013 288.939L179.581 288.617L178.465 287.716L177.422 286.728L176.462 285.661L175.59 284.521L175.324 284.143L174.598 283.008L173.974 281.816L173.454 280.571L173.047 279.288L172.925 278.836L172.63 277.462L172.483 276.065V274.658L172.632 273.261L172.682 272.948L172.985 271.579L173.447 270.255L174.06 268.995L174.815 267.815L175.007 267.552L175.893 266.484L176.91 265.541L178.039 264.739L179.307 264.069L180.751 263.536L182.21 263.229L183.698 263.135L185.185 263.257L186.598 263.579L187.952 264.093L189.221 264.794L190.381 265.665L191.309 266.467L192.011 267.117L192.669 267.812L193.281 268.547L193.844 269.322L195.804 272.213L196.01 272.517L196.221 272.817L196.433 273.116L196.648 273.412L198.353 275.746L199.116 276.75L199.914 277.727L200.747 278.674L201.612 279.593L202.553 280.552L203.368 281.343L204.223 282.09L205.115 282.792L206.042 283.449L207.353 284.327L208.322 284.915L209.337 285.417L210.391 285.83L211.478 286.149L213.32 286.465L215.188 286.516L217.044 286.297L218.85 285.815L219.016 285.758L219.968 285.388L220.889 284.949L221.774 284.441L222.622 283.869L225.243 281.947L225.58 281.723L225.938 281.535L226.313 281.381L226.7 281.264L229.849 280.482L230.549 280.469L231.185 280.76L231.634 281.301L231.803 281.982L231.779 282.298L231.691 282.603L231.543 282.883L231.343 283.13L228.93 285.558L228.258 286.306L227.669 287.121L227.168 287.993L226.76 288.913L226.653 289.196L226.178 290.783L225.944 292.422L225.958 294.08L226.218 295.714L226.631 297.46L226.717 297.848L226.796 298.238L226.863 298.629L226.923 299.022L227.185 300.906L227.317 302.565L227.254 304.229L226.997 305.874L226.524 307.549L226.053 308.747L225.506 309.829L224.863 310.856L224.13 311.822L222.904 313.107L221.519 314.216L219.999 315.131L218.371 315.835L217.308 316.163L216.221 316.401L215.119 316.547L214.007 316.601L210.507 316.623L210.321 316.624L210.134 316.627L209.948 316.63L209.762 316.635L204.355 316.787L204.178 316.792L204.002 316.798L203.825 316.803L203.648 316.809L198.533 316.968L198.198 316.977L197.863 316.983L197.526 316.988L197.191 316.989L194.608 316.994L193.17 316.955L191.737 316.832L190.314 316.624L188.906 316.334L187.382 315.922L185.888 315.412L184.43 314.806L183.013 314.108L181.549 313.327L180.991 313.018L180.442 312.691L179.905 312.346L179.38 311.984L177.67 310.77L176.52 310.051L175.292 309.474L174.003 309.049L172.673 308.781L171.259 308.673L169.84 308.741L168.442 308.988L167.085 309.407L164.961 310.211L164.542 310.374L164.127 310.548L163.715 310.732L163.307 310.923L161.213 311.936L159.894 312.552L158.558 313.13L157.205 313.669L155.837 314.17L155.635 314.241L154.215 314.712L152.779 315.137L151.331 315.518L149.872 315.854L148.334 316.154L146.787 316.404L145.233 316.601L143.674 316.747L143.393 316.769L142.043 316.857L140.692 316.908L139.339 316.923L137.986 316.903L135.124 316.823L134.84 316.815L134.556 316.809L134.27 316.803L133.985 316.797L133.306 316.786L130.861 316.757L128.417 316.753L125.972 316.775L123.529 316.823L123.323 316.829L122.799 316.841L122.275 316.852L121.75 316.863L121.226 316.872L118.432 316.917L117.282 316.932L116.133 316.943L114.981 316.949H113.831L111.064 316.941H110.525H109.987L109.451 316.943L108.913 316.946L105.226 316.969L104.534 316.972L103.844 316.974H103.153L102.463 316.971L98.7241 316.952L98.2121 316.949H97.7017H97.1898L96.6778 316.951L94.9651 316.955H93.2615L91.5581 316.941L89.8546 316.917L88.1419 316.878L86.7752 316.846L85.4207 316.823L84.0662 316.807L82.7102 316.8L80.9975 316.801L79.2847 316.817L77.572 316.844L75.8593 316.884L75.621 316.891L74.3818 316.923L73.1427 316.948L71.9035 316.966L70.6643 316.977L69.1161 316.989L68.0583 316.994L66.9991 316.995L65.9414 316.991L64.8836 316.983L61.6411 316.951L61.249 316.946L60.8555 316.941L60.4634 316.935L60.0714 316.929L54.7134 316.841L50.8437 316.781L49.7967 316.646L48.8081 316.276L47.9287 315.694L47.2031 314.926L46.6711 314.019L46.3559 313.016L46.2729 311.967L46.4282 310.926L46.8295 309.424L47.0355 308.362L47.0954 307.284L47.0062 306.207L46.771 305.153L46.3436 303.721L46.01 302.738L45.5995 301.786L45.1152 300.869L44.5587 299.994L43.361 298.261L42.8352 297.451L42.3555 296.613L41.9234 295.75L41.5407 294.862L41.1502 293.88L40.6689 292.427L40.366 290.928L40.2431 289.403L40.303 287.873L40.5259 286.446L40.9087 285.054L41.4453 283.712L42.1295 282.441L43.3948 280.377L43.5839 280.073L43.7792 279.771L43.979 279.472L44.182 279.177L45.9884 276.601L46.6173 275.652L47.1969 274.669L47.7227 273.658L48.1962 272.62L48.8681 271.035L49.2371 270.049L49.5169 269.034L49.7075 267.999L49.8059 266.951L49.8274 266.524L49.7752 264.811L49.4508 263.127L48.8619 261.517L48.0225 260.023L47.2876 259.053L46.4451 258.171L45.5088 257.392L44.491 256.725L43.2472 256.008L42.2894 255.497L41.3008 255.047L40.2846 254.664L39.2468 254.346L37.1497 253.778L36.2903 253.558L35.4247 253.359L34.5545 253.185L33.6813 253.032L30.056 252.453L29.7132 252.396L29.3703 252.339L29.0274 252.28L28.6846 252.222L25.6897 251.693L24.5089 251.465L23.3359 251.202L22.172 250.902L21.019 250.564L19.3308 250.044L18.3991 249.731L17.4844 249.375L16.5881 248.974L15.7102 248.531L14.7447 248.013L13.4471 247.231L12.234 246.32L11.1178 245.292L10.1124 244.157L9.22524 242.928L8.46728 241.617L7.84312 240.233L7.3619 238.796L7.12049 237.932L6.8576 236.881L6.65314 235.817L6.50864 234.743L6.42404 233.663L6.3118 231.44L6.27647 230.567L6.26261 229.693L6.26569 228.82L6.29032 227.946L6.41172 224.719L6.43636 224.13L6.46246 223.543L6.49325 222.955L6.5255 222.368L6.68077 219.74L6.75306 218.569L6.82996 217.398L6.91295 216.227L7.0021 215.058L7.21118 212.377L7.25582 211.818L7.30348 211.26L7.35421 210.701L7.40648 210.144L7.70317 207.039L7.78623 206.086L7.84927 205.129L7.89231 204.172L7.91687 203.214L7.92456 202.717L7.91379 200.851L7.82002 198.99L7.6432 197.134L7.38492 195.288L7.17584 194.102L6.93296 192.923L6.65622 191.751L6.34567 190.588L5.55384 187.776L5.4416 187.382L5.32629 186.988L5.21104 186.593L5.09418 186.201L3.66279 181.443L3.60898 181.268L3.55671 181.092L3.50598 180.916L3.45371 180.741L2.33294 176.913L2.0946 176.047L1.8809 175.173L1.69491 174.294L1.53656 173.409L1.20754 171.414L1.06297 170.268L1 169.116L1.02302 167.962L1.1291 166.811L1.27514 165.688L1.51809 164.413L1.90707 163.176L2.43902 161.991L3.10629 160.877L3.50444 160.292L4.30851 159.281L5.25254 158.4L6.31642 157.668L7.47568 157.103L8.02141 156.886L9.24218 156.52L10.509 156.377L11.7805 156.464L13.0166 156.775L14.3449 157.399L15.5196 158.281L16.4897 159.387L17.2168 160.677L17.6074 161.825L17.7995 163.011L17.7934 164.212L17.5874 165.397L17.0047 167.626L16.874 168.17L16.7649 168.72L16.6787 169.273L16.6142 169.829L16.5757 170.244L16.5158 172.405L16.7464 174.556L17.263 176.655L18.0548 178.666L18.393 179.341L18.7635 179.997L19.1632 180.636L19.5922 181.255L21.0097 183.201L21.6308 184.121L22.1889 185.079L22.6778 186.074L23.0991 187.102L23.2467 187.502L23.7309 189.086L24.0292 190.714L24.1369 192.367L24.0538 194.02L23.857 195.299L23.545 196.554L23.1222 197.776L22.5902 198.955L21.5247 201.054L21.2772 201.557L21.0389 202.065L20.8114 202.576L20.5946 203.094L19.7536 205.157L19.2478 206.431L18.7635 207.713L18.3007 209.002L17.8595 210.301L17.6228 211.014L17.1954 212.271L16.7479 213.522L16.2791 214.764L15.7901 215.999L15.0122 217.914L14.7508 218.576L14.5048 219.247L14.2727 219.921L14.0559 220.601L13.507 222.382L13.1442 223.734L12.8767 225.11L12.7076 226.501L12.6368 227.9L12.6322 228.257L12.6691 229.682L12.8214 231.1L13.0889 232.5L13.4686 233.874L13.5962 234.27L14.0743 235.561L14.6678 236.803L15.3704 237.986L16.1914 239.118L17.2338 240.301L18.3776 241.355L19.623 242.284L20.9575 243.077L22.8946 244.099L23.2329 244.256L23.5834 244.379L23.9462 244.47L24.3152 244.524L25.1654 244.605L26.5107 244.441L27.6607 243.721L28.4002 242.583L28.5892 241.238L28.4571 240.549L28.1772 239.908L27.7606 239.344L27.2302 238.888L25.7388 237.869L24.8088 237.106L24.0231 236.194L23.4096 235.159L22.9838 234.033L22.6225 232.746L22.3888 231.716L22.2566 230.668L22.2304 229.611L22.3104 228.556L22.6609 225.769L22.727 225.178L22.7808 224.585L22.8177 223.991L22.8423 223.395L22.8869 221.792L22.9577 220.12L23.0776 218.452L23.2451 216.786L23.4619 215.127L23.7571 213.089L23.814 212.721L23.874 212.353L23.9401 211.986L24.0092 211.619L24.7149 208.067L24.9209 207.227L25.2038 206.411L25.5606 205.624L25.988 204.872L27.2409 203.294L28.7999 202.019L30.5941 201.107L32.5405 200.598L32.9449 200.538L33.6475 200.458L34.3532 200.427L35.0604 200.444L35.763 200.511L38.1552 200.819L39.2991 200.942L40.446 201.017L41.596 201.045L42.746 201.025L43.4071 200.999L44.9845 200.903L46.5573 200.737L48.1224 200.501L49.6737 200.196L51.7416 199.742L52.1597 199.651L52.5779 199.565L52.9961 199.481L53.4158 199.401L55.6497 198.982L57.1303 198.742L58.62 198.573L60.1175 198.477L61.6165 198.452L63.1724 198.503L64.7237 198.631L66.2673 198.838L67.7985 199.119L68.5488 199.278L69.6404 199.532L70.7181 199.833L71.7836 200.178L72.8337 200.568L73.9575 201.013L75.1706 201.544L76.3436 202.164L77.4675 202.866L78.5375 203.649L79.8228 204.764L81.0005 205.993L82.0583 207.326L82.9869 208.752L83.1376 209.011L83.711 210.057L84.2199 211.136L84.6627 212.243L85.0394 213.374L85.4037 214.588L85.7358 215.783L86.0187 216.991L86.2508 218.21L86.4354 219.438L86.6675 221.245L86.7675 222.158L86.832 223.076L86.8612 223.996L86.8535 224.916L86.7982 226.957L86.8167 228.072L86.9366 229.183L87.1564 230.278L87.4731 231.349L88.2219 233.081L89.2227 234.677L90.4542 236.103L91.8887 237.326L92.5282 237.793L93.1217 238.204L93.7351 238.587L94.3655 238.938L95.0112 239.26L95.517 239.494L97.4065 240.264L99.3621 240.842L101.365 241.224L103.398 241.407L104.616 241.455L105 241.467L105.383 241.474H105.767L106.151 241.467L108.47 241.41L109.972 241.457L111.459 241.669L112.915 242.042L114.32 242.575L115.648 243.253L116.894 244.071L118.044 245.021L119.083 246.091L120.279 247.465L120.679 247.939L121.063 248.429L121.429 248.93L121.778 249.444L122.796 250.999L123.691 252.186L124.733 253.246L125.906 254.158L127.188 254.91L128.535 255.477L129.942 255.865L131.388 256.067L132.849 256.081L134.111 256.01L135.014 255.935L135.912 255.807L136.8 255.629L137.678 255.401L138.986 255.023L140.383 254.568L141.748 254.027L143.076 253.4L144.361 252.692L145.747 251.931L147.181 251.267L148.657 250.701L150.168 250.239L151.131 249.98L152.07 249.745L153.017 249.537L153.97 249.361L154.928 249.216L158.184 248.774L158.638 248.712L159.09 248.655L159.544 248.6L159.997 248.548L164.858 247.998L165.026 247.979L165.195 247.959L165.364 247.941L165.532 247.921L170.295 247.369L170.796 247.311L171.297 247.249L171.799 247.186L172.3 247.121L173.574 246.952L175.478 246.681L177.375 246.369L179.266 246.021L181.149 245.633L182.659 245.306L183.025 245.229L183.392 245.157L183.76 245.089L184.129 245.024L188.341 244.325L188.884 244.211L189.416 244.049L189.933 243.843L190.428 243.592L191.807 242.815L192.915 241.928L193.678 240.729L194.016 239.349L193.893 237.933L193.682 237.306L193.378 236.719L192.989 236.185L192.523 235.716L191.261 234.623L190.217 233.569L189.347 232.367L188.669 231.047L188.2 229.639L187.84 228.197L187.702 227.681L187.543 227.171L187.367 226.667L187.171 226.17L186.636 224.88L185.886 223.394L184.924 222.035L183.771 220.836L182.453 219.821L181.411 219.214L180.31 218.724L179.163 218.356L177.982 218.113L177.481 218.039L175.982 217.926L174.483 218.039L173.016 218.372L171.616 218.918L170.515 219.533L169.498 220.279L168.582 221.146L167.78 222.12L165.716 224.968L164.902 226.087L163.479 227.974L161.999 229.815L160.461 231.609L158.87 233.355L158.381 233.868L157.889 234.378L157.391 234.883L156.888 235.382L156.078 236.182L154.787 237.428L153.468 238.647L152.122 239.836L150.752 240.996L150.368 241.313L149.576 241.959L148.774 242.592L147.962 243.211L147.141 243.82L144.534 245.719L144.175 245.972L143.809 246.212L143.436 246.443L143.056 246.66L140.762 247.93L139.625 248.434L138.416 248.729L137.175 248.808L135.939 248.666L134.799 248.33L133.73 247.805L132.765 247.107L131.93 246.257L130.2 244.168L129.891 243.806L129.571 243.455L129.239 243.114L128.898 242.785L127.363 241.355L126.227 240.369L125.023 239.469L123.758 238.659L122.438 237.943L121.054 237.317L119.627 236.795L118.167 236.377L116.678 236.069L116.325 236.009L115.019 235.827L113.705 235.72L112.387 235.686L111.07 235.727L108.93 235.857L108.265 235.875L107.603 235.854L106.942 235.789L106.287 235.684L105.492 235.53L103.836 235.036L102.311 234.222L100.976 233.121L99.8864 231.777L99.4067 230.955L99.0208 230.084L98.7318 229.177L98.5427 228.242L97.9923 224.458L97.9646 224.264L97.9385 224.069L97.9138 223.873L97.8908 223.677L97.4465 219.806L97.345 218.878L97.2497 217.951L97.1636 217.024L97.0852 216.095L96.9222 214.041L96.8223 212.932L96.7008 211.823L96.5563 210.717L96.3918 209.615L96.049 207.694L95.64 205.787L95.1649 203.895L94.6253 202.02L94.5069 201.634L94.2317 200.76L93.9427 199.891L93.6428 199.027L93.3292 198.166L91.8502 194.202L91.8102 194.094L90.3496 190.197L90.0161 189.271L89.7024 188.339L89.4103 187.399L89.1397 186.453L88.8323 185.335L88.4709 183.877L88.1804 182.405L87.9605 180.918L87.8113 179.417L87.7345 177.872L87.733 176.33L87.8083 174.791L87.9605 173.258L88.0235 172.742L88.2096 171.501L88.454 170.27L88.7584 169.051L89.1228 167.85L89.4533 166.844L89.8915 165.657L90.4096 164.504L91.0077 163.388L91.6811 162.319L91.9625 161.905L92.8588 160.709L93.8673 159.606L94.9758 158.605L96.175 157.714L97.4357 156.952L98.7641 156.314L100.146 155.803L101.57 155.425L102.22 155.286L103.393 155.072L104.577 154.932L105.769 154.867L106.96 154.877L109.013 154.958L109.846 155.002L110.679 155.065L111.509 155.146L112.338 155.248L114.986 155.605L115.876 155.738L116.761 155.892L117.644 156.071L118.522 156.271L119.662 156.548L121.171 156.963L122.65 157.471L124.095 158.069L125.5 158.756L126.767 159.471L127.991 160.258L129.168 161.114L130.294 162.036L131.282 162.894L131.985 163.53L132.662 164.195L133.307 164.889L133.925 165.608L135.023 166.945L135.759 167.93L136.401 168.979L136.943 170.08L137.381 171.23L137.804 172.849L138.023 174.508L138.03 176.181L137.829 177.843L137.753 178.245L137.517 179.308L137.202 180.351L136.813 181.369L136.348 182.355L134.679 185.6L134.576 185.798L134.437 186.062L132.617 189.469L132.165 190.386L131.771 191.329L131.439 192.295L131.167 193.279L130.857 194.57L130.629 195.847L130.557 197.143L130.643 198.439L130.889 199.739L131.382 201.232L132.077 202.612L132.966 203.875L134.03 204.995L135.061 205.819L136.187 206.508L137.389 207.05L138.648 207.438L140.158 207.8L141.036 207.985L141.921 208.124L142.815 208.213L143.711 208.255L146.326 208.303L147.189 208.329L148.05 208.372L148.911 208.434L149.77 208.514L150.116 208.551L152.116 208.8L154.104 209.133L156.078 209.547L158.032 210.043L159.611 210.479L159.831 210.539L160.051 210.598L160.272 210.655L160.492 210.711L163.708 211.502L164.839 211.73L165.982 211.861L167.134 211.897L168.284 211.832L169.306 211.732L170.567 211.524L171.792 211.154L172.958 210.626L174.043 209.949L174.538 209.595L175.525 208.76L176.365 207.774L177.033 206.667L177.515 205.465L177.821 204.008L177.853 202.519L177.607 201.051L177.095 199.654L176.974 199.398L176.422 198.412L175.748 197.505L174.964 196.695L174.08 195.992L171.897 194.475L171.419 194.133L170.953 193.774L170.498 193.401L170.054 193.014L168.825 191.908L167.654 190.797L166.542 189.628L165.493 188.4L164.508 187.122L164.351 186.906L163.552 185.86L162.705 184.854L161.811 183.888L160.873 182.965L159.613 181.848L158.286 180.81L156.901 179.852L155.46 178.98L154.996 178.717L154.04 178.154L153.105 177.56L152.188 176.934L151.295 176.276L150.946 176.011L149.616 174.952L148.334 173.835L147.103 172.662L145.922 171.439L144.404 169.795L144.235 169.61L144.066 169.426L143.899 169.239L143.731 169.053L140.953 165.935L140.478 165.376L140.03 164.793L139.611 164.189L139.223 163.565L138.398 162.167L137.77 160.899L137.334 159.552L137.098 158.157L137.069 156.741L137.238 155.376L137.6 154.048L138.146 152.785L138.865 151.614L139.855 150.232L140.306 149.633L140.785 149.058L141.291 148.507L141.825 147.98L144.214 145.729L144.7 145.253L145.169 144.758L145.619 144.249L146.05 143.72L146.895 142.643L147.825 141.291L148.577 139.832L149.138 138.288L149.5 136.688L149.632 135.52L149.659 134.344L149.579 133.174L149.393 132.012L148.972 129.977L148.815 129.145L148.688 128.307L148.589 127.466L148.52 126.622L148.417 125.044L148.368 123.632L148.403 122.217L148.523 120.808L148.726 119.407L148.775 119.124L149.081 117.679L149.484 116.257L149.984 114.867L150.576 113.515L151.295 112.145L152.109 110.831L153.016 109.577L154.055 108.342L155.077 107.274L156.115 106.32L157.211 105.433L158.36 104.617L159.055 104.154L160.085 103.501L161.141 102.891L162.222 102.327L163.324 101.808L164.256 101.392L165.483 100.87L166.727 100.388L167.986 99.9457L169.257 99.5436L171.514 98.872L172.043 98.721L172.575 98.5792L173.11 98.4514L173.648 98.3328L177.324 97.5702L177.941 97.41L178.539 97.1928L179.114 96.9201L179.659 96.5935L180.983 95.4303L181.958 93.9607L182.513 92.2862L182.611 90.5237L182.567 89.9646L182.479 89.2575L182.327 88.5627L182.11 87.8848L181.83 87.2301L180.511 84.4957L180.162 83.7378L179.839 82.9659L179.543 82.1849L179.275 81.393L179.08 80.7844L178.559 78.9697L178.142 77.1272L177.831 75.2631L177.628 73.3853L177.601 73.0171L177.536 72.0358L177.499 71.0513L177.489 70.067L177.505 69.0825L177.578 66.7333L177.616 65.8181L177.678 64.9031L177.761 63.9896L177.864 63.079L178.19 60.9747L178.631 58.8919L179.187 56.8353L179.856 54.814L179.921 54.637L180.213 53.8558L180.52 53.0825L180.843 52.3153L181.183 51.5558L182.147 49.453L182.594 48.464L183.031 47.4688L183.455 46.469L183.869 45.4661L185.331 41.8567L185.386 41.7194L187.37 36.8375L187.525 36.4555L187.68 36.0734L187.837 35.6914L187.995 35.3109L189.218 32.3637L189.62 31.3732L190.012 30.3796L190.394 29.3797L190.763 28.3769L191.422 26.4835L192.04 24.5779L192.615 22.6584L193.15 20.7266L193.363 19.9209L193.527 19.2877L193.685 18.6546L193.838 18.0198L193.984 17.382L194.68 14.2794L194.877 13.4722L195.101 12.6711L195.354 11.8792L195.633 11.0966L196.307 9.31581L196.8 8.17265L197.397 7.08208L198.09 6.04984L198.877 5.08709L199.451 4.44771L200.376 3.53873L201.408 2.75772L202.533 2.11378L203.73 1.61926L204.195 1.46059L205.527 1.12165L206.895 1L208.265 1.0955L209.603 1.40828L210.979 1.98288L212.235 2.78549L213.335 3.7929L214.247 4.97455L214.455 5.29968L215.06 6.39025L215.522 7.54884L215.831 8.75811L215.984 9.99677L216.092 11.8407L216.12 12.7065L216.103 13.5723L216.043 14.4366L215.937 15.2977L215.511 18.1601L215.391 18.9102L215.259 19.6589L215.114 20.4062L214.954 21.1487L214.502 23.1776L214.192 24.4054L213.817 25.6147L213.375 26.8009L212.862 27.9825L212.05 29.5647L211.131 31.0574L210.101 32.4778L208.964 33.815L208.064 34.744L207.11 35.6205L206.111 36.4416L205.066 37.2042L203.454 38.3149L202.795 38.7586L202.128 39.1883L201.453 39.6059L200.768 40.0111L198.159 41.5177L197.497 41.9106L196.843 42.3187L196.198 42.7424L195.564 43.1799L194.328 44.0534L193.112 44.9747L191.962 45.9775L190.881 47.0544L189.876 48.202L188.953 49.4098L188.115 50.6746L187.362 51.9934L186.699 53.3613L186.338 54.1779L185.921 55.1869L185.56 56.2175L185.256 57.2667L185.007 58.3296L184.948 58.613L184.671 60.3847L184.565 62.1733L184.63 63.9649L184.864 65.7411L185.127 66.9582L185.468 68.1551L185.889 69.3275L186.386 70.4691L187.294 72.3778L187.616 73.0726L187.922 73.7766L188.212 74.4868L188.501 75.2417L189.233 77.4137L189.819 79.5844L190.269 81.7889L190.584 84.0273L190.664 84.8376L190.726 85.6402L190.769 86.4444L190.795 87.2487L190.863 90.3897L190.861 91.0845L190.823 91.7809L190.749 92.4726L190.641 93.1596L190.44 94.2519L189.989 95.9172L189.271 97.487L188.306 98.9151L187.119 100.164L186.141 100.938L185.079 101.586L183.947 102.106L182.762 102.485L179.269 103.378L176.889 103.999L175.256 104.589L173.756 105.466L172.44 106.599L171.348 107.952L170.741 109.006L170.27 110.129L169.946 111.303L169.772 112.507L169.601 114.658L169.558 115.408L169.546 116.158L169.565 116.91L169.617 117.659L169.849 120.289L169.911 121.285L169.912 122.285L169.858 123.282L169.746 124.285L169.348 126.278L168.722 128.201L167.88 130.039L166.828 131.766L166.228 132.58L165.583 133.36L164.894 134.099L164.162 134.797L162.602 136.202L161.844 136.865L161.067 137.507L160.272 138.126L159.461 138.721L156.848 140.582L156.478 140.856L156.117 141.143L155.766 141.443L155.425 141.756L152.582 144.464L152.179 144.929L151.872 145.462L151.67 146.045L151.583 146.653L151.878 148.16L152.836 149.36L154.236 149.981L155.766 149.882L156.318 149.71L156.727 149.553L157.116 149.346L157.476 149.095L157.803 148.802L160.242 146.342L160.88 145.731L161.547 145.151L162.242 144.606L162.964 144.098L165.058 142.697L165.818 142.169L166.557 141.616L167.278 141.037L167.979 140.434L168.751 139.744L169.9 138.635L170.956 137.438L171.914 136.162L172.769 134.813L173.444 133.543L174.028 132.229L174.517 130.877L174.907 129.492L175.027 128.999L175.312 127.674L175.519 126.334L175.65 124.984L175.704 123.628L175.741 120.207L175.803 116.477L175.91 115.396L176.186 114.345L176.629 113.353L177.224 112.444L177.848 111.64L178.651 110.831L179.623 110.233L180.706 109.885L181.843 109.804L183.215 110.075L184.45 110.734L185.442 111.725L186.103 112.96L186.292 113.487L186.549 114.475L186.622 115.493L186.512 116.506L186.22 117.483L184.862 120.868L184.794 121.04L184.728 121.214L184.665 121.388L184.604 121.563L183.351 125.192L183.043 126.109L182.754 127.03L182.484 127.959L182.23 128.891L181.813 130.482L181.464 131.713L181.065 132.927L180.614 134.124L180.115 135.301L179.898 135.783L179.238 137.142L178.502 138.461L177.691 139.735L176.807 140.959L175.842 142.146L174.809 143.273L173.713 144.339L172.555 145.338L171.44 146.244L170.805 146.749L170.158 147.242L169.502 147.719L168.834 148.183L166.499 149.773L165.815 150.266L165.157 150.794L164.528 151.357L163.93 151.951L163.112 152.808L162.142 153.966L161.332 155.242L160.695 156.611L160.24 158.053L159.991 159.431L159.909 160.826L159.996 162.224L160.251 163.599L160.71 165.452L160.887 166.113L161.087 166.768L161.31 167.415L161.555 168.054L163.08 171.82L163.217 172.154L163.355 172.487L163.495 172.818L163.638 173.148L165.355 177.093L165.592 177.603L165.853 178.102L166.138 178.587L166.447 179.057L167.85 181.094L168.556 181.929L169.409 182.611L170.379 183.115L171.428 183.42L172.89 183.501L174.321 183.2L175.627 182.537L176.717 181.56L177.788 180.309L178.15 179.857L178.48 179.379L178.778 178.88L179.041 178.362L180.314 175.62L180.739 174.742L181.192 173.878L181.672 173.029L182.179 172.197L182.631 171.479L183.548 170.088L184.515 168.734L185.532 167.418L186.601 166.141L186.812 165.898L187.639 164.975L188.492 164.075L189.37 163.202L190.274 162.355L192.065 160.722L192.514 160.295L192.944 159.85L193.355 159.386L193.745 158.904L194.259 158.243L195.263 156.721L196.022 155.062L196.519 153.307L196.74 151.495L196.739 150.403L196.637 149.315L196.436 148.242L196.136 147.191L195.086 144.064L194.986 143.757L194.888 143.449L194.794 143.141L194.703 142.831L194.217 141.143L193.75 139.35L193.373 137.535L193.087 135.702L192.894 133.858L192.817 132.653L192.78 131.447L192.783 130.239L192.824 129.031L192.883 127.891L192.964 126.599L193.077 125.309L193.22 124.023L193.393 122.741L193.558 121.627L193.744 120.427L193.948 119.229L194.171 118.036L194.414 116.845L194.651 115.725L194.903 114.462L195.126 113.193L195.318 111.917L195.483 110.639L195.66 108.875L195.779 107.106L195.844 105.333L195.852 103.56L195.832 101.802L195.829 101.378L195.827 100.955V100.531L195.83 100.109L195.832 99.9288L195.89 97.3685L196.024 94.8127L196.23 92.26L196.51 89.715L196.593 89.0541L196.613 88.8893L196.634 88.7275L196.657 88.5642L196.68 88.4009L196.859 87.1931L197.075 84.9979L197.083 82.7934L196.88 80.5982L196.468 78.4305L196.259 77.6218L196.019 76.8191L195.752 76.0273L195.455 75.2448L194.119 71.8986L193.956 71.4981L193.787 71.0976L193.615 70.7002L193.436 70.3042L192.154 67.4958L191.744 66.5006L191.405 65.4777L191.141 64.4331L190.953 63.3718L190.754 61.936L190.664 60.7512L190.726 59.565L190.938 58.3959L191.298 57.265L191.655 56.3484L192.203 55.247L192.941 54.2656L193.845 53.4337L194.899 52.7744L196.331 52.2414L197.835 52.0504L199.342 52.2029L200.776 52.6912L201.863 53.3413L202.809 54.1855L203.579 55.1931L204.145 56.3285L204.64 57.6147L204.953 58.5684L205.172 59.5498L205.292 60.5464L205.313 61.5509L205.204 65.3683L205.196 65.5932L205.184 65.8936L204.923 71.1793L204.907 71.4981L204.89 71.8171L204.873 72.1375L204.856 72.4563L204.667 75.8424L204.6 76.9023L204.518 77.9607L204.421 79.0191L204.309 80.0742L204.077 82.1324L203.954 83.0984L203.806 84.0613L203.631 85.0179L203.431 85.9715L202.907 88.3147L202.738 89.1912L202.62 90.0755L202.552 90.966L202.535 91.9164L202.69 93.9745L203.108 95.9372L203.783 97.8274L204.704 99.6098L205.247 100.445L205.845 101.243L206.494 102.001L207.19 102.711L208.503 103.967L209.353 104.746L210.234 105.492L211.145 106.2L212.082 106.872L213.7 107.981L214.478 108.5L215.268 108.999L216.071 109.479L216.885 109.938L218.065 110.582L219.355 111.239L220.678 111.822L222.034 112.327L223.416 112.754L224.958 113.13L226.52 113.408L228.096 113.589L229.681 113.67L231.303 113.701L231.968 113.709L232.632 113.704L233.294 113.687L233.959 113.66L236 113.558L237.383 113.478L238.763 113.379L240.142 113.259L241.518 113.12L241.764 113.094L243.317 112.916L244.867 112.712L246.412 112.487L247.955 112.239L250.421 111.823L250.677 111.78L250.93 111.737L251.186 111.692L251.439 111.648L255.155 110.987L256.067 110.836L256.983 110.708L257.903 110.603L258.824 110.522L260.464 110.395L261.769 110.334L263.076 110.346L264.38 110.434L265.676 110.597L265.965 110.64L267.516 110.941L269.041 111.358L270.53 111.888L271.975 112.53L273.255 113.214L274.487 113.988L275.662 114.843L276.773 115.778L277.543 116.473L278.335 117.215L279.099 117.989L279.833 118.79L280.535 119.62L282.202 121.667L282.62 122.185L283.032 122.709L283.44 123.236L283.841 123.769L286.065 126.75L286.39 127.193L286.705 127.641L287.012 128.096L287.309 128.557L288.874 131.026L289.392 131.927L289.831 132.872L290.186 133.85L290.455 134.856L290.718 136.039L290.902 137.358L290.875 138.689L290.636 140L290.193 141.255L289.409 142.643L288.375 143.857L287.129 144.852L285.718 145.592L283.693 146.415L283.416 146.518L283.134 146.601L282.845 146.666L282.552 146.71L280.743 146.931L279.541 147.356L278.632 148.251L278.189 149.449L278.294 150.722L278.543 151.3L278.91 151.813L279.378 152.233L279.925 152.546L281.798 153.362L282.808 153.946L283.659 154.744L284.311 155.713L284.728 156.804L284.891 158.024L284.759 159.25L284.342 160.409L283.662 161.435L281.973 163.424L281.75 163.676L281.519 163.921L281.281 164.158L281.035 164.388L279.473 165.798L278.315 166.938L277.259 168.173L276.315 169.496L275.489 170.897L274.888 172.132L274.379 173.409L273.966 174.719L273.648 176.058L273.443 177.084L273.245 178.216L273.096 179.357L272.999 180.504L272.951 181.653L272.93 182.821V184.152L272.976 185.481L273.068 186.809L273.206 188.132L273.354 189.337L273.517 190.452L273.732 191.559L273.997 192.655L274.31 193.738L274.662 194.855L275.11 196.106L275.652 197.317L276.289 198.482L277.011 199.594L278.026 200.893L279.162 202.088L280.408 203.166L281.75 204.122L282.282 204.462L283.18 205.006L284.105 205.5L285.054 205.949L286.024 206.346L289.097 207.512L289.448 207.648L289.798 207.785L290.149 207.925L290.498 208.067L294.996 209.926L295.238 210.025L295.481 210.12L295.725 210.214L295.97 210.305L299.706 211.675L300.454 211.906L301.223 212.055L302.004 212.122L302.788 212.106L304.568 211.749L306.209 210.968L307.61 209.809L308.695 208.326L309.125 207.424L309.427 206.493L309.604 205.528L309.654 204.55L309.63 202.928L309.558 201.715L309.378 200.514L309.089 199.334L308.697 198.184L307.915 196.196L307.622 195.479L307.307 194.772L306.97 194.076L306.612 193.39L305.708 191.722L305.084 190.526L304.498 189.311L303.95 188.078L303.442 186.829L302.851 185.219L302.325 183.585L301.866 181.932L301.471 180.262L301.349 179.698L301.137 178.653L300.946 177.603L300.777 176.551L300.631 175.494L300.347 173.272L300.241 172.388L300.145 171.502L300.061 170.616L299.988 169.729L299.807 167.297L299.75 166.334L299.724 165.371L299.73 164.408L299.766 163.445L299.856 161.737L299.965 160.506L300.159 159.286L300.436 158.083L300.796 156.901L301.451 155.262L302.265 153.697L303.229 152.219L304.335 150.844L304.858 150.258L305.454 149.614L306.075 148.995L306.721 148.402L307.391 147.836L308.36 147.049L309.536 146.037L310.651 144.956L311.701 143.811L312.68 142.606L313.553 141.399L314.357 140.143L315.089 138.844L315.747 137.506L316.285 136.33L316.682 135.489L317.099 134.659L317.537 133.838L317.995 133.029L319.168 131.012L319.669 130.173L320.19 129.347L320.733 128.534L321.294 127.734L322.503 126.056L323.142 125.217L323.823 124.413L324.546 123.644L325.307 122.914L325.864 122.407L327.098 121.388L328.428 120.495L329.836 119.736L331.312 119.118L332.677 118.688L334.075 118.38L335.494 118.195L336.925 118.135L338.029 118.136L339.098 118.169L340.162 118.264L341.218 118.423L342.263 118.642L344.104 119.085L345.094 119.381L346.047 119.782L346.951 120.284L347.795 120.88L348.873 121.731L349.771 122.596L350.479 123.621L350.975 124.765L351.234 125.985L351.259 126.209L351.25 127.589L350.921 128.928L350.287 130.153L349.388 131.196L348.508 131.859L347.521 132.346L346.462 132.641L345.364 132.73L341.944 132.687L341.818 132.684L339.304 132.617L337.616 132.682L335.951 132.966L334.336 133.463L332.799 134.166L331.784 134.773L330.829 135.469L329.941 136.25L329.126 137.108L327.07 139.481L326.871 139.709L326.669 139.935L326.465 140.16L326.257 140.382L325.375 141.323L323.905 142.824L322.374 144.262L320.784 145.637L319.14 146.945L318.756 147.237L318.175 147.67L317.588 148.092L316.991 148.502L316.388 148.901L313.412 150.828L312.94 151.153L312.491 151.508L312.063 151.89L311.659 152.296L310.216 153.846L309.537 154.764L309.085 155.812L308.881 156.935L308.936 158.075L309.288 159.267L309.922 160.335L310.798 161.215L311.864 161.851L313.868 162.73L314.365 162.931L314.872 163.102L315.389 163.242L315.913 163.351L319.3 163.952L320.095 164.103L320.884 164.269L321.671 164.453L322.454 164.653L326.651 165.774L326.783 165.81L326.961 165.858L331.816 167.17L332.287 167.3L332.757 167.432L333.225 167.571L333.692 167.714L336.083 168.453L337.336 168.876L338.567 169.358L339.776 169.899L340.955 170.498L342.434 171.354L343.858 172.302L345.218 173.335L346.513 174.452L346.848 174.76L347.651 175.525L348.425 176.316L349.171 177.136L349.888 177.98L351.82 180.343L352.098 180.682L352.38 181.02L352.663 181.354L352.947 181.688L354.524 183.52L355.471 184.578L356.457 185.6L357.481 186.583L358.54 187.527L359.804 188.561L361.112 189.54L362.461 190.46L363.849 191.321L364.642 191.79L365.48 192.272L366.329 192.739L367.185 193.187L368.051 193.618L370.568 194.841L371.2 195.157L371.824 195.487L372.44 195.83L373.049 196.188L375.161 197.46L376.09 198.069L376.969 198.744L377.797 199.481L378.567 200.28L379.431 201.244L380.181 202.193L380.807 203.228L381.302 204.333L381.657 205.488L381.794 206.06L382 207.408L381.978 208.771L381.728 210.111L381.257 211.391L380.559 212.602L379.665 213.676L378.598 214.579L377.392 215.284L375.803 216.039L375.189 216.312L374.562 216.552L373.922 216.76L373.273 216.934L371.258 217.418L370.003 217.788L368.792 218.282L367.637 218.897L366.549 219.626L365.328 220.658L364.243 221.835L363.309 223.136L362.545 224.541L361.969 225.775L361.672 226.446L361.401 227.126L361.16 227.818L360.945 228.519L360.285 230.831L359.952 231.913L359.57 232.981L359.143 234.028L358.669 235.057L358.27 235.878L357.59 237.155L356.817 238.38L355.957 239.543L355.013 240.642L354.821 240.848L353.806 241.86L352.715 242.786L351.553 243.624L350.327 244.365L350.155 244.459L348.833 245.114L347.457 245.651L346.041 246.064L344.593 246.351L343.084 246.513L341.567 246.537L340.054 246.425L338.557 246.175L338.141 246.086L336.892 245.775L335.663 245.38L334.465 244.903L333.302 244.345L332.039 243.687L331.114 243.183L330.205 242.646L329.317 242.077L328.45 241.477L326.923 240.381L326.056 239.745L325.202 239.093L324.36 238.425L323.531 237.741L321.988 236.441L321.236 235.797L320.495 235.14L319.765 234.472L319.047 233.792L318.015 232.8L317.056 231.842L316.13 230.853L315.238 229.832L314.383 228.781L313.601 227.784L312.918 226.951L312.199 226.148L311.444 225.378L310.657 224.642L309.164 223.408L307.579 222.295L305.911 221.312L304.169 220.464L303.053 219.972L302.584 219.77L302.113 219.576L301.638 219.391L301.162 219.213L297.819 217.993L297.092 217.76L296.348 217.586L295.593 217.472L294.761 217.416L292.756 217.561L290.894 218.108L289.186 219.032L287.709 220.294L287.092 221.015L286.551 221.795L286.095 222.625L285.724 223.498L284.986 225.517L284.606 226.472L284.17 227.402L283.679 228.305L283.138 229.178L282.503 230.137L281.648 231.28L280.668 232.32L279.576 233.239L278.348 234.053L276.932 234.768L275.482 235.279L273.978 235.602L272.445 235.732L272.224 235.737L270.868 235.684L269.526 235.468L268.22 235.091L266.97 234.56L265.579 233.737L264.321 232.723L263.219 231.54L262.297 230.208L261.688 229.023L261.222 227.777L260.907 226.486L260.744 225.165L260.641 223.545L260.607 222.685L260.615 221.822L260.662 220.963L260.75 220.106L261.084 217.501L261.179 216.612L261.24 215.72L261.268 214.827L261.262 213.933L261.227 212.59L261.121 211.117L260.879 209.661L260.504 208.232L260.001 206.844L259.356 205.479L258.587 204.18L257.698 202.96L256.7 201.829L255.512 200.605L255.055 200.145L254.586 199.697L254.105 199.263L253.615 198.841L251.158 196.786L250.529 196.253L249.903 195.715L249.284 195.171L248.67 194.621L245.795 192.022L245.563 191.813L245.331 191.605L245.099 191.398L244.865 191.192L241.552 188.266L241.143 187.895L240.745 187.515L240.354 187.123L239.976 186.723L238.145 184.739L237.426 183.862L236.812 182.91L236.309 181.895L235.925 180.827L235.828 180.504L235.525 179.037L235.468 177.543L235.661 176.058L236.097 174.626L236.677 173.439L237.424 172.35L238.322 171.382L239.353 170.558L239.967 170.137L241.008 169.503L242.112 168.983L243.265 168.586L244.453 168.313L246.616 167.94L247.305 167.833L247.998 167.746L248.693 167.685L249.39 167.645L252.302 167.525L253.203 167.454L254.097 167.317L254.978 167.112L255.841 166.842L257.833 166.135L258.694 165.75L259.482 165.229L260.175 164.587L260.755 163.843L261.722 162.37L262.077 161.618L262.212 160.799L262.118 159.973L261.8 159.206L261.024 158.331L259.97 157.822L258.804 157.758L257.701 158.144L256.697 158.739L256.104 159.03L255.474 159.223L254.82 159.312L254.162 159.298L253.22 159.201L251.859 158.924L250.578 158.385L249.428 157.602L248.454 156.608L247.079 154.897L246.818 154.581L246.546 154.274L246.263 153.977L245.971 153.689L243.981 151.796L243.057 150.945L242.102 150.126L241.122 149.342L240.113 148.59L239.034 147.815L238.12 147.123L237.243 146.388L236.403 145.61L235.602 144.791L234.377 143.363L233.271 141.839L232.294 140.229L231.45 138.545L231.322 138.262L230.934 137.361L230.584 136.444L230.27 135.514L229.992 134.572L229.237 131.819L229.054 131.182L228.853 130.549L228.636 129.922L228.402 129.299L227.79 127.732L227.163 126.326L226.408 124.986L225.53 123.721L224.539 122.544L223.713 121.653L223.137 121.082L222.512 120.563L221.847 120.099L221.144 119.695L218.332 118.237L217.774 118.021L217.182 117.933L216.586 117.978L216.014 118.152L215.208 118.685L214.639 119.467L214.381 120.399L214.464 121.364L215.277 124.366L215.329 124.551L215.388 124.733L215.452 124.913L215.522 125.092L215.949 126.144L216.596 128.124L216.964 130.176L217.041 132.257L216.828 134.331L216.65 135.199L216.421 136.056L216.141 136.899L215.812 137.723L214.842 139.958L214.445 140.836L214.026 141.704L213.583 142.56L213.116 143.403L212.387 144.68L211.697 145.862L210.979 147.026L210.236 148.175L209.469 149.308L208.187 151.153L207.853 151.632L207.516 152.108L207.178 152.583L206.837 153.056L205.352 155.055L203.822 157.021L202.249 158.953L200.633 160.848L200.077 161.486L199.929 161.655L199.734 161.883L198.413 163.434L197.212 164.933L196.104 166.502L195.089 168.135L194.173 169.823L193.69 170.824L193.241 171.841L192.828 172.873L192.449 173.919L191.433 176.891L191.304 177.262L191.175 177.634L191.043 178.005L190.909 178.375L189.442 182.392L189.255 182.904L189.067 183.417L188.876 183.928L188.686 184.44L187.122 188.611L187.016 188.896L186.913 189.181L186.812 189.469L186.713 189.756L185.483 193.387L185.239 194.201L185.056 195.029L184.931 195.869L184.868 196.715L184.814 198.12L184.881 199.481L185.18 200.809L185.703 202.068L186.436 203.216L187.317 204.183L188.346 204.992L189.494 205.617L190.73 206.044L192.3 206.442L193.11 206.619L193.931 206.742L194.759 206.81L195.589 206.822L200.053 206.745L203.899 206.674L205.038 206.693L206.174 206.79L207.299 206.967L208.409 207.221L208.815 207.329L210.356 207.831L211.83 208.501L213.22 209.332L214.512 210.31L215.486 211.22L216.375 212.217L217.17 213.289L217.862 214.431L218.123 214.908L218.747 216.172L219.27 217.48L219.685 218.828L219.991 220.203L220.031 220.424L220.237 221.895L220.328 223.377L220.303 224.86L220.154 226.393L219.893 227.906L219.53 229.34L219.061 230.744L218.486 232.107L217.862 233.45L217.511 234.176L217.139 234.891L216.749 235.595L216.337 236.288L215.037 238.408L214.542 239.295L214.118 240.216L213.769 241.17L213.495 242.148L213.372 242.672L213.117 244.263L213.096 245.876L213.309 247.474L213.754 249.024L214.252 250.171L214.876 251.254L215.619 252.259L216.47 253.172L217.508 254.168L218.289 254.87L219.11 255.525L219.969 256.127L220.864 256.676L222.143 257.407L223.252 258.01L224.383 258.564L225.54 259.068L226.716 259.522L228.122 260.031L229.119 260.377L230.121 260.702L231.13 261.003L232.146 261.282L235.09 262.052L235.57 262.177L236.051 262.299L236.531 262.419L237.012 262.537L239.318 263.098L240.668 263.432L242.013 263.781L243.355 264.141L244.693 264.514L247.493 265.31L247.711 265.37L247.929 265.429L248.149 265.484L248.367 265.537L252.691 266.55L253.276 266.646L253.868 266.657L254.457 266.584L255.029 266.43L256.122 266.051L257.037 265.532L257.709 264.723L258.049 263.727L258.015 262.673L257.714 261.876L257.195 261.2L256.505 260.702L255.701 260.427L251.578 259.661L250.202 259.408L247.9 258.939L245.62 258.381L243.362 257.735L241.131 257.002L240.451 256.77L239.769 256.543L239.084 256.326L238.397 256.118L234.564 254.976L234.235 254.879L233.903 254.787L233.573 254.696L233.239 254.61L229.912 253.758L228.957 253.474L228.029 253.12L227.128 252.695L226.262 252.203L225.284 251.596L224.193 250.806L223.229 249.863L222.411 248.791L221.756 247.613L221.252 246.255L220.964 244.838L220.9 243.393L221.061 241.956L221.25 240.968L221.482 239.978L221.794 239.009L222.186 238.069L222.652 237.165L224.503 233.913L224.583 233.771L224.662 233.629L224.74 233.486L224.819 233.341L225.967 231.197L226.645 229.739L227.16 228.216L227.501 226.646L227.667 225.045L227.671 223.713L227.551 222.385L227.311 221.074L226.951 219.79L226.316 217.868L226.082 217.196L225.83 216.531L225.561 215.871L225.272 215.221L224.224 212.943L223.738 211.954L223.203 210.991L222.622 210.056L221.993 209.151L221.409 208.353L220.52 207.246L219.539 206.218L218.472 205.28L217.327 204.439L215.988 203.632L214.578 202.957L213.108 202.421L211.595 202.028L210.825 201.866L209.801 201.688L208.769 201.575L207.731 201.532L206.692 201.557L203.264 201.751L202.962 201.749L202.663 201.709L202.37 201.634L202.091 201.52L201.233 200.834L200.767 199.837L200.79 198.736L201.299 197.761L202.961 195.826L203.082 195.678L203.198 195.524L203.305 195.365L203.407 195.203L203.865 194.429L204.826 192.486L205.488 190.423L205.837 188.285L205.867 186.117L205.847 185.778L205.799 185.178L205.727 184.578L205.633 183.982L205.516 183.391L205.061 181.297L204.818 179.944L204.678 178.576L204.64 177.202L204.704 175.83L204.909 174.235L205.253 172.664L205.731 171.129L206.343 169.641L206.503 169.296L207.055 168.193L207.67 167.127L208.35 166.098L209.089 165.114L209.93 164.058L210.67 163.197L211.467 162.391L212.322 161.643L213.226 160.959L214.556 160.025L215.443 159.475L216.389 159.033L217.379 158.702L218.4 158.488L220.088 158.235L221.043 158.186L221.988 158.324L222.891 158.645L223.712 159.135L224.051 159.386L224.977 160.318L225.578 161.486L225.799 162.781L225.62 164.083L225.223 165.004L224.623 165.81L223.855 166.452L222.957 166.899L219.573 168.118L219.391 168.181L219.148 168.261L216.167 169.185L215.082 169.64L214.103 170.296L213.268 171.126L212.607 172.101L212.359 172.556L211.91 173.674L211.737 174.867L211.844 176.067L212.23 177.208L212.902 178.264L213.81 179.123L214.899 179.738L216.104 180.068L218.889 180.473L219.138 180.505L219.388 180.531L219.637 180.553L219.888 180.568L220.803 180.611L222.957 180.87L225.052 181.44L227.042 182.309L228.885 183.455L229.505 183.931L230.098 184.44L230.664 184.977L231.202 185.544L233.267 187.841L233.766 188.386L234.274 188.923L234.79 189.451L235.315 189.972L237.115 191.723L237.874 192.487L238.606 193.278L239.31 194.093L239.987 194.932L241.137 196.508L242.187 198.154L243.131 199.862L243.969 201.626L244.109 201.948L244.472 202.809L244.81 203.681L245.125 204.561L245.416 205.45L246.071 207.549L246.35 208.54L246.573 209.544L246.741 210.559L246.85 211.582L246.918 212.42L246.958 213.972L246.833 215.52L246.546 217.045L246.097 218.532L245.542 219.863L244.857 221.131L244.052 222.325L243.132 223.434L242.002 224.665L241.471 225.227L240.919 225.769L240.35 226.295L239.762 226.798L238.654 227.721L237.462 228.747L236.309 229.815L235.195 230.924L234.118 232.07L232.252 234.134L232.051 234.336L231.848 234.515L230.65 236.125L230.333 238.05L230.925 239.911L232.295 241.301L232.407 241.367L232.558 241.45L235.006 242.704L236.302 243.51L237.449 244.515L238.416 245.696L239.177 247.018L239.873 248.249L240.749 249.358L241.783 250.321L242.95 251.116L244.645 252.091L245.199 252.379L245.777 252.618L246.372 252.806L246.981 252.94L247.548 253.04L249.371 253.095L251.133 252.625L252.689 251.672L253.908 250.313L254.499 249.557L255.195 248.899L255.984 248.354L256.846 247.935L257.921 247.508L259.299 247.073L260.724 246.842L262.168 246.819L263.6 247.004L266.134 247.519L266.422 247.576L266.709 247.626L266.997 247.673L267.286 247.716L269.615 248.038L271.149 248.138L272.682 248.015L274.181 247.673L275.615 247.118L276.868 246.419L278.017 245.556L279.038 244.548L279.916 243.411L280.812 242.073L281.27 241.424L281.758 240.799L282.276 240.196L282.869 239.572L284.528 238.087L286.298 236.856L288.202 235.847L290.215 235.076L291.079 234.803L291.48 234.68L291.885 234.564L292.291 234.458L292.699 234.359L296.947 233.372L297.407 233.272L297.868 233.182L298.334 233.105L298.84 233.036L301.366 232.891L303.847 233.098L306.278 233.645L308.609 234.523L309.073 234.743L309.53 234.977L309.98 235.223L310.423 235.482L313.117 237.111L313.932 237.65L314.697 238.255L315.412 238.922L316.067 239.646L316.302 239.928L317.348 241.426L318.124 243.079L318.61 244.841L318.79 246.659L318.745 247.797L318.581 248.924L318.298 250.025L317.9 251.093L317.274 252.533L316.797 253.542L316.259 254.52L315.663 255.463L315.008 256.366L312.794 259.233L312.669 259.399L312.505 259.623L310.714 262.158L310.062 263.32L309.668 264.594L309.548 265.922L309.708 267.245L310.166 268.564L310.901 269.75L311.877 270.745L313.047 271.503L313.779 271.871L314.683 272.258L315.629 272.531L316.599 272.688L317.581 272.725L320.244 272.662L320.942 272.632L321.639 272.577L322.334 272.495L323.024 272.389L326.19 271.836L326.941 271.7L327.69 271.556L328.439 271.402L329.184 271.238L330.908 270.849L332.295 270.528L333.68 270.192L335.06 269.841L336.437 269.476L339.069 268.763L339.344 268.689L339.617 268.616L339.893 268.544L340.166 268.473L343.705 267.575L344.642 267.356L345.584 267.174L346.534 267.029L347.489 266.922L349.249 266.758L350.455 266.698L351.662 266.74L352.861 266.883L354.043 267.128L354.847 267.33L356.163 267.749L357.416 268.331L358.588 269.065L359.678 269.957L360.743 271.092L361.623 272.343L362.316 273.705L362.813 275.153L363.083 276.507L363.18 277.886L363.102 279.266L362.848 280.625L362.613 281.558L362.302 282.614L361.915 283.641L361.452 284.636L360.914 285.595L358.972 288.77L358.902 288.885L358.806 289.039L358.473 289.572L357.08 291.872L355.75 294.209L354.484 296.582L353.284 298.988L353.155 299.253L353.053 299.464L352.95 299.674L352.847 299.883L352.743 300.091L351.351 302.867L350.749 304.002L350.094 305.109L349.388 306.182L348.631 307.222L348.292 307.669L347.355 308.817L346.348 309.901L345.274 310.921L344.121 311.881L342.865 312.794L341.567 313.611L340.217 314.338L338.823 314.973L337.42 315.501L335.989 315.935L334.532 316.274L333.054 316.516L331.903 316.667L330.948 316.777L329.988 316.857L329.028 316.909L328.067 316.931L324.904 316.955L324.377 316.957H323.851L323.325 316.952L322.798 316.945L320.516 316.904L319.113 316.884L317.707 316.875L316.304 316.877L314.9 316.889L312.024 316.926L311.794 316.928H311.567L311.338 316.924L311.11 316.92L308.375 316.857L306.93 316.743L305.506 316.472L304.12 316.046L302.79 315.47L301.535 314.757L300.367 313.911L299.297 312.942L298.339 311.862L296.761 309.876L296.578 309.649L296.392 309.422L296.205 309.199L296.013 308.977L294.28 306.996L293.296 305.982L292.212 305.076L291.041 304.287L289.792 303.627L288.379 303.061L286.911 302.659L285.409 302.425L283.888 302.36L281.698 302.39H281.329L280.96 302.382L280.591 302.363L280.222 302.336L277.313 302.078L276.192 301.88L275.122 301.49L274.136 300.918L273.265 300.185L272.765 299.684L272.038 298.766L271.538 297.705L271.292 296.559L271.315 295.374L271.663 294.081L272.327 292.935L273.266 291.999L274.415 291.339L275.512 291.026L276.65 290.968L277.774 291.165L278.824 291.61L281.392 293.057L281.567 293.152L281.742 293.246L281.921 293.336L282.1 293.424L286.488 295.497L286.853 295.667L287.22 295.831L287.589 295.992L287.96 296.147L290.359 297.255L292.658 298.561L294.836 300.059L296.881 301.735L297.167 301.99L297.301 302.109L297.435 302.226L297.57 302.343L297.705 302.46L300.347 304.72L301.238 305.452L302.158 306.145L303.106 306.802L304.081 307.416L305.958 308.55L306.666 308.945L307.397 309.291L308.151 309.585L308.922 309.829L311.238 310.474L312.21 310.653L313.198 310.654L314.171 310.48L315.098 310.135L315.763 309.816L316.851 309.08L317.675 308.057L318.164 306.837L318.276 305.528L318.115 304.591L317.758 303.711L317.223 302.927L316.534 302.274L313.822 300.21L313.626 300.063L313.426 299.92L313.223 299.781L313.017 299.647L310.715 298.178L309.514 297.358L308.369 296.468L307.279 295.506L306.249 294.48L305.202 293.293L304.238 292.037L303.359 290.718L302.57 289.344L302.421 289.062L301.846 287.896L301.338 286.699L300.903 285.473L300.54 284.223L300.168 282.52L299.932 280.791L299.832 279.049L299.867 277.305L299.878 277.131L299.981 275.934L300.144 274.743L300.368 273.563L300.654 272.397L301.349 269.836L301.494 269.317L301.643 268.801L301.798 268.287L301.958 267.774L302.459 266.208L303.017 264.589L303.651 262.998L304.358 261.437L305.136 259.911L305.619 259.019L306.029 258.29L306.467 257.575L306.93 256.877L307.419 256.196L309.039 254.027L309.522 253.308L309.936 252.547L310.274 251.747L310.535 250.922L311.133 248.643L311.259 247.807L311.204 246.964L310.969 246.152L310.564 245.41L310.005 244.601L309.295 243.892L308.381 243.479L307.382 243.416L306.424 243.712L305.984 243.994L305.606 244.354L305.3 244.78L305.079 245.254L303.677 249.181L303.541 249.544L303.394 249.905L303.237 250.262L303.07 250.614L302.209 252.356L301.423 253.875L300.583 255.365L299.69 256.822L298.745 258.245L297.344 260.27L297.186 260.504L297.05 260.702L295.524 263.172L294.197 265.722L293.062 268.362L292.111 271.123L292.06 271.295L292.008 271.469L291.082 274.672L290.649 275.906L290.08 277.083L289.383 278.189L288.567 279.211L287.441 280.309L286.178 281.246L284.8 282.002L283.333 282.566L283.034 282.658L281.877 282.957L280.698 283.145L279.508 283.222L278.315 283.188L275.08 282.943L274.871 282.925L274.664 282.903L274.456 282.877L274.249 282.848L270.459 282.273L269.589 282.245L268.735 282.423L267.948 282.792L267.267 283.338L266.832 283.871L266.503 284.476L266.291 285.132L266.203 285.815L266.12 288.192L266.05 289.084L265.897 289.967L265.665 290.831L265.355 291.67L264.449 293.819L264.106 294.744L263.848 295.696L263.676 296.668L263.591 297.651L263.56 298.378L263.623 299.875L263.934 301.342L264.486 302.736L265.264 304.018L266.076 304.984L267.015 305.826L268.064 306.527L269.2 307.073L270.694 307.664L271.59 307.986L272.505 308.247L273.434 308.448L274.375 308.587L276.383 308.815L277.425 308.904L278.472 308.934L279.519 308.904L280.561 308.814L283.709 308.453L284.122 308.427L284.536 308.447L284.945 308.51L285.346 308.618L285.93 308.809L287.102 309.482L287.904 310.57L288.204 311.888L287.952 313.218L287.544 313.931L286.974 314.521L286.276 314.953L285.493 315.198L281.845 315.855L281.545 315.905L281.244 315.945L280.943 315.976L280.64 315.999L276.475 316.239L275.797 316.281L275.119 316.33L274.442 316.384L273.766 316.442L273.003 316.513L271.003 316.68L269.001 316.812L266.997 316.909L264.99 316.972L263.926 316.991L262.864 317L261.802 316.998L260.739 316.988L257.168 316.935L256.943 316.932L256.72 316.929L256.497 316.926L256.275 316.924L252.291 316.88L251.435 316.872L250.578 316.867L249.72 316.864L248.864 316.866L244.787 316.878H244.61L244.433 316.877L244.258 316.874L244.081 316.871L239.427 316.764L238.872 316.723L238.326 316.624L237.791 316.469L237.276 316.259L235.891 315.321L234.861 314.001L234.288 312.428L234.226 310.753L234.409 309.219L234.443 308.875L234.46 308.532L234.461 308.187L234.448 307.841L234.249 304.759L234.139 303.637L233.952 302.525L233.691 301.428L233.356 300.351L232.838 298.871L232.529 297.791L232.344 296.683L232.287 295.56L232.358 294.44L232.689 292.84L233.281 291.318L234.115 289.914L235.172 288.669L235.847 287.995L236.422 287.456L237.032 286.953L237.67 286.49L238.337 286.068L239.979 285.1L241.132 284.456L242.315 283.869L243.523 283.339L244.756 282.868L246.676 282.185L247.347 281.953L248.02 281.731L248.696 281.517L249.376 281.315L251.158 280.796L252.531 280.381L253.896 279.941L255.251 279.474L256.597 278.981L258.43 278.291L259.045 278.066L259.665 277.855L260.29 277.658L260.918 277.476L263.235 276.928L265.588 276.567L267.964 276.397L270.344 276.419L271.149 276.458L271.345 276.47L271.54 276.484L271.735 276.501L271.93 276.522L275.743 276.954L276.615 276.957L277.468 276.773L278.263 276.408L278.959 275.883L279.73 274.889L280.157 273.706L280.203 272.449L279.86 271.238L279.765 271.035L279.252 270.188L278.56 269.48L277.726 268.947L276.793 268.616L275.001 268.203L274.144 268.054L273.276 267.997L272.407 268.034L271.547 268.163L268.709 268.75L268.001 268.909L267.298 269.092L266.601 269.299L265.913 269.53L262.506 270.735L262 270.907L261.491 271.069L260.979 271.221L260.462 271.361L259.469 271.622L257.528 272.032L255.555 272.249L253.572 272.274L251.595 272.106L250.635 271.953L249.684 271.756L248.743 271.513L247.814 271.224L246.117 270.654L244.971 270.312L243.807 270.052L242.627 269.873L241.437 269.776L239.649 269.786L237.871 269.98L236.123 270.359L234.423 270.916L234.042 271.064L233.124 271.448L232.229 271.876L231.356 272.352L230.51 272.871L227.397 274.897L227.215 275.014L227.034 275.13L226.851 275.244L226.668 275.356L223.848 277.085L222.809 277.661L221.722 278.143L220.598 278.528L219.371 278.827L217.653 279.063L215.991 279.07L214.341 278.865L212.731 278.449L211.558 278.001L210.434 277.44L209.37 276.773L208.376 276.008L207.739 275.467L206.754 274.558L205.84 273.577L205.006 272.526L204.257 271.415L204.062 271.101L203.327 269.809L202.693 268.464L202.163 267.074L201.739 265.649L201.685 265.438L201.377 264.044L201.164 262.634L201.048 261.211L201.03 259.726L201.116 258.121L201.31 256.586L201.612 255.069L202.02 253.576L202.243 252.861L202.593 251.814L202.985 250.78L203.421 249.765L203.896 248.766L205.516 245.536L205.588 245.391L205.661 245.246L205.733 245.101L205.804 244.955L207.898 240.686L208.136 240.206L208.38 239.727L208.628 239.25L208.88 238.776L210.926 234.983L211.097 234.647L211.252 234.305L211.392 233.957L211.517 233.601L212.498 230.568L212.644 229.752L212.562 228.926L212.262 228.154L211.766 227.49L210.869 226.866L209.812 226.598L208.726 226.724L207.758 227.227L206.984 227.826L206.486 228.282L206.068 228.812L205.742 229.402L205.516 230.038L204.48 233.928L204.383 234.278L204.278 234.624L204.165 234.969L204.045 235.311L202.985 238.209L202.552 239.286L202.052 240.33L201.486 241.343L200.848 242.328L199.735 243.777L198.493 245.092L197.126 246.275L195.647 247.317L194.636 247.908L193.589 248.432L192.509 248.888L191.402 249.272L188.989 250.022L188.39 250.202L187.789 250.372L187.187 250.532L186.579 250.683L184.372 251.208L183.094 251.505L181.812 251.786L180.527 252.049L179.238 252.297L179.006 252.34L177.393 252.629L175.776 252.894L174.155 253.135L172.532 253.353L170.936 253.556L170.312 253.635L169.689 253.71L169.065 253.784L168.439 253.855L164.531 254.292L164.057 254.346L163.584 254.402L163.11 254.457L162.637 254.514L158.938 254.962L158.212 255.055L157.487 255.157L156.762 255.266L156.04 255.386L154.87 255.586L153.16 255.915L151.466 256.307L149.787 256.768L148.128 257.293L147.965 257.349L146.814 257.757L145.676 258.198L144.552 258.672L143.442 259.18L142.021 259.855L141.053 260.29L140.066 260.679L139.062 261.026L138.044 261.328L136.859 261.651L135.558 261.949L134.239 262.14L132.907 262.225L131.575 262.2L131.339 262.186L129.796 262.015L128.277 261.688L126.799 261.208L125.377 260.581L124.17 259.903L123.029 259.119L121.964 258.235L120.983 257.258L119.12 255.226L118.932 255.024L118.741 254.822L118.551 254.624L118.357 254.425L116.807 252.853L115.599 251.73L114.298 250.715L112.915 249.817L111.459 249.041L110.236 248.508L108.98 248.061L107.697 247.702L106.391 247.435L104.342 247.09L103.669 246.982L102.994 246.89L102.317 246.811L101.639 246.745L98.1721 246.445L97.5264 246.38L96.8822 246.298L96.2396 246.201L95.6 246.086L93.5214 245.685L92.23 245.373L90.9739 244.938L89.7639 244.385L88.6109 243.721L87.3317 242.795L86.1632 241.729L85.1224 240.54L84.2215 239.24L84.06 238.976L83.4496 237.881L82.9285 236.739L82.5026 235.561L82.1751 234.35L81.7585 232.523L81.5863 231.702L81.4448 230.875L81.3326 230.043L81.2527 229.206L81.0343 226.432L80.9283 225.604L80.7453 224.791L80.4839 223.998L80.1472 223.235L79.6568 222.249L78.9404 221.129L78.0056 220.186L76.8925 219.464L75.6518 218.992L74.4111 218.798L73.155 218.858L71.9373 219.168L70.8057 219.716L69.6035 220.457L68.844 220.977L68.1383 221.568L67.4926 222.224L66.913 222.941L65.208 225.264L64.8067 225.829L64.4208 226.406L64.0518 226.992L63.6982 227.589L62.6158 229.487L61.9886 230.611L61.3844 231.75L60.8048 232.899L60.2466 234.06L59.8808 234.846L59.3257 236.077L58.8046 237.32L58.3141 238.579L57.8575 239.848L57.5792 240.659L57.1779 241.888L56.8197 243.128L56.5014 244.38L56.2155 245.699L55.9049 247.44L55.6836 249.138L55.539 250.843L55.4729 252.555L55.476 253.896L55.5282 255.238L55.6267 256.577L55.7743 257.911L55.9311 259.14L56.0495 260.243L56.1217 261.35L56.1478 262.459L56.1263 263.566L55.9849 265.437L55.7112 267.293L55.3054 269.125L54.7718 270.922L54.3875 272.067L54.2076 272.62L54.0354 273.178L53.874 273.737L53.7202 274.299L53.425 275.425L52.9945 277.257L52.6625 279.11L52.4288 280.979L52.295 282.857L52.2627 284.032L52.2689 285.208L52.3135 286.382L52.398 287.554L52.5287 289.035L52.6517 290.181L52.8162 291.321L53.0222 292.455L53.2713 293.581L53.4988 294.523L53.8709 295.888L54.326 297.227L54.861 298.537L55.4744 299.811L55.6221 300.093L56.3369 301.36L57.1395 302.574L58.0235 303.73L59.0121 304.848L60.1313 305.948L61.3028 306.937L62.5451 307.834L63.8504 308.635L65.1634 309.313L66.5209 309.893L67.9169 310.376L69.3452 310.755L69.8602 310.872L71.1286 311.123L72.4078 311.306L73.6962 311.42L74.9876 311.465L76.7479 311.479L77.6274 311.476L78.5083 311.452L79.3877 311.411L80.2656 311.351L82.6256 311.161L83.6295 311.087L84.635 311.023L85.6405 310.969L86.646 310.926L88.5109 310.856L89.6409 310.818L90.771 310.787L91.901 310.762L93.0325 310.744L95.989 310.708L96.4517 310.702L96.913 310.695L97.3757 310.687L97.8386 310.678L100.973 310.616L102.016 310.597L103.057 310.585L104.097 310.579H105.14L106.634 310.582L107.916 310.591L109.199 310.614L110.479 310.651L111.76 310.701L113.547 310.795L115.332 310.913L117.115 311.06L118.895 311.232L121.032 311.456L121.237 311.476L121.44 311.497L121.644 311.516L121.847 311.534L124.819 311.802L126.172 311.89L127.528 311.912L128.884 311.867L130.234 311.754L131.033 311.668L132.312 311.491L133.579 311.234L134.828 310.901L136.053 310.49L137.634 309.833L139.156 309.048L140.608 308.143L142.011 307.1L143.013 306.241L143.937 305.347L144.806 304.4L145.616 303.4L145.782 303.183L146.707 301.864L147.525 300.473L148.228 299.022L148.812 297.518L149.209 296.215L149.518 294.886L149.736 293.541L149.862 292.182L150.054 288.894L150.065 288.706L150.339 284.595L150.365 283.636L150.314 282.68L150.187 281.729L149.985 280.793L149.758 279.911L149.27 278.5L148.562 277.186L147.653 276.003L146.566 274.98L145.455 274.219L144.246 273.628L142.965 273.218L141.639 272.998L139.984 272.847L139.173 272.796L138.359 272.788L137.546 272.827L136.736 272.91L133.701 273.304L132.981 273.389L132.262 273.457L131.539 273.507L130.817 273.54L129.155 273.595L127.677 273.589L126.204 273.469L124.745 273.238L123.308 272.896L121.853 272.429L120.442 271.848L119.078 271.158L117.774 270.363L117.107 269.92L116.196 269.283L115.315 268.607L114.464 267.891L113.648 267.136L111.028 264.603L110.882 264.461L110.69 264.272L107.664 261.268L107.057 260.707L106.411 260.191L105.73 259.724L105.017 259.308L102.723 258.079L102.003 257.772L101.242 257.598L100.463 257.561L99.688 257.663L98.5703 257.914L97.6064 258.315L96.8346 259.022L96.3503 259.949L96.2089 260.987L96.481 262.134L97.1697 263.089L98.1707 263.708L99.3298 263.899L100.444 263.862L101.31 263.925L102.143 264.167L102.909 264.579L103.573 265.139L106.344 268.039L106.496 268.193L106.7 268.396L107.526 269.188L109.28 270.804L111.096 272.352L112.968 273.828L114.896 275.231L115.534 275.678L115.777 275.846L116.022 276.011L116.268 276.174L116.515 276.334L118.798 277.798L120.001 278.493L121.263 279.075L122.573 279.539L123.918 279.879L125.511 280.116L127.119 280.184L128.724 280.079L130.309 279.804L132.113 279.391L132.612 279.283L133.115 279.189L133.619 279.109L134.125 279.043L137.051 278.701L138.086 278.647L139.119 278.731L140.133 278.949L141.11 279.298L142.638 280.176L143.934 281.373L144.935 282.828L145.587 284.468L145.637 284.653L145.847 285.652L145.931 286.67L145.89 287.69L145.725 288.697L145.248 290.797L145.012 291.714L144.726 292.618L144.389 293.502L144.003 294.368L143.637 295.129L142.855 296.614L141.966 298.036L140.973 299.389L139.883 300.664L139.2 301.404L138.59 302.027L137.943 302.613L137.261 303.157L136.548 303.659L133.636 305.578L133.276 305.779L132.894 305.923L132.492 306.011L132.082 306.041L130.652 305.637L129.63 304.56L129.299 303.109Z" stroke="#6A5FDB" stroke-width="1.42848"/>
</svg>
