<svg width="433" height="670" viewBox="0 0 433 670" fill="none" xmlns="http://www.w3.org/2000/svg">
<path d="M247.447 414.889L247.164 412.237L247.027 411.845L246.908 411.38L245.613 404.138L245.383 403.183L245.041 402.263L244.59 401.391L244.038 400.577L243.358 399.695L241.423 397.973L238.993 397.074L236.403 397.123L234.01 398.114L233.426 398.458L232.811 398.743L232.172 398.967L231.514 399.128L227.719 399.861L225.866 400.073L224.003 399.995L222.174 399.632L220.422 398.991L218.111 397.939L216.876 397.203L215.829 396.217L215.019 395.028L214.485 393.694L214.274 391.28L214.946 388.954L216.409 387.024L218.469 385.753L219.652 385.295L220.137 385.125L220.633 384.986L221.136 384.879L221.645 384.805L224.15 384.523L227.066 383.948L229.847 382.901L232.419 381.41L234.711 379.517L235.812 378.343L236.804 377.074L237.68 375.723L238.431 374.3L240.026 370.914L240.619 369.713L241.252 368.532L241.926 367.375L242.639 366.243L245.155 362.392L245.778 361.359L246.323 360.282L246.788 359.169L247.171 358.024L247.588 356.604L248.08 353.937L248.012 351.229L247.389 348.588L246.236 346.133L245.23 344.693L244.04 343.4L242.688 342.277L241.198 341.347L239.376 340.37L237.633 339.539L235.819 338.877L233.952 338.385L232.047 338.071L228.699 337.678L227.52 337.52L226.346 337.323L225.179 337.089L224.021 336.819L220.477 336.11L216.88 335.754H213.266L209.67 336.11L209.362 336.156L208.385 336.314L207.413 336.5L206.445 336.709L205.483 336.943L204.298 337.247L201.173 338.141L198.099 339.196L195.085 340.414L192.139 341.785L191.92 341.895L190.602 342.533L189.268 343.142L187.922 343.719L186.563 344.267L185.767 344.577L183.04 345.719L180.379 347.007L177.788 348.43L175.261 350.001L173.712 351.056L172.217 352.152L170.757 353.297L169.337 354.488L169.05 354.738L166.983 356.634L165.023 358.638L163.172 360.745L161.436 362.947L160.533 364.16L159.751 365.171L158.931 366.148L158.071 367.093L157.176 368.004L154.967 370.167L153.467 371.484L151.839 372.632L150.093 373.599L148.255 374.371L145.664 375.092L142.998 375.433L140.31 375.384L137.656 374.946L137.276 374.853L135.562 374.358L133.897 373.711L132.297 372.917L130.775 371.981L129.95 371.421L127.954 369.916L126.115 368.223L124.45 366.357L122.979 364.338L121.945 362.757L121.229 361.619L120.559 360.455L119.933 359.264L119.354 358.051L118.1 355.287L117.253 353.479L116.354 351.696L115.41 349.938L114.419 348.206L111.504 343.273L108.152 337.481L107.314 336.29L106.282 335.262L105.086 334.429L103.764 333.818L102.167 333.245L100.268 332.89L98.3518 333.15L96.6158 334.003L95.2377 335.357L94.3928 336.967L94.0642 338.757L94.2809 340.562L95.0259 342.224L96.2725 344.16L97.0321 345.185L97.9257 346.096L98.9337 346.878L100.039 347.516L103.584 349.256L104.719 350.018L105.607 351.056L106.187 352.293L106.413 353.64L106.08 355.61L105.011 357.298L103.37 358.438L101.417 358.857L97.0029 358.909L96.8276 358.911L93.9643 359.03L90.9379 359.418L88.0235 360.316L85.3064 361.7L82.8643 363.529L81.7346 364.63L80.7071 365.826L79.7916 367.11L78.9906 368.469L76.8309 372.544L76.3878 373.399L75.9666 374.266L75.5624 375.14L75.1777 376.022L74.0359 378.731L73.118 380.979L72.2487 383.247L71.4282 385.531L70.6613 387.836L69.2735 392.154L69.1955 392.393L69.0909 392.712L67.3597 397.9L66.6634 399.737L65.8234 401.512L64.8471 403.217L63.7368 404.84L62.0033 406.922L60.053 408.802L57.9104 410.459L55.5974 411.872L53.2041 413.158L52.5515 413.501L51.8942 413.83L51.2295 414.147L50.5599 414.449L45.968 416.465L44.529 417.157L43.1388 417.946L41.807 418.826L40.536 419.795L39.5305 420.618L37.7628 422.267L36.2216 424.133L34.9361 426.184L33.8989 428.454L33.2172 430.599L32.8178 432.736L32.6791 434.906L32.8032 437.077L33.2537 439.484L34.0255 441.807L35.1065 444.005L36.4748 446.035L36.6696 446.288L38.0209 447.845L39.5305 449.248L41.1837 450.48L42.9562 451.529L46.4866 453.364L47.1756 453.714L47.8744 454.05L48.578 454.371L49.289 454.678L53.1115 456.28L54.9279 457.104L56.6906 458.033L58.3974 459.063L60.0409 460.191L62.2297 461.931L64.2676 463.845L66.1448 465.92L67.8418 468.142L68.2022 468.654L69.1542 470.079L70.0404 471.545L70.8609 473.049L71.6108 474.589L73.5221 478.745L73.8849 479.526L74.2574 480.304L74.6372 481.079L75.0219 481.849L76.8163 485.383L77.7659 487.158L78.7885 488.893L79.8817 490.584L81.0431 492.228L81.8027 493.258L83.154 494.98L84.6027 496.62L86.1439 498.174L87.7752 499.634L88.6687 500.39L90.2854 501.662L91.9873 502.817L93.7671 503.85L95.6151 504.755L96.6815 505.231L98.7097 506.026L100.801 506.626L102.941 507.026L105.111 507.224L105.417 507.237L107.881 507.206L110.326 506.896L112.719 506.313L115.03 505.463L117.107 504.43L119.059 503.183L120.868 501.735L122.517 500.104L122.816 499.773L124.241 498.045L125.497 496.191L126.575 494.227L127.464 492.171L127.678 491.603L128.385 489.473L128.91 487.292L129.254 485.075L129.414 482.838L129.453 481.525L129.456 479.622L129.351 477.722L129.142 475.831L128.825 473.955L128.66 473.118L128.073 470.698L127.279 468.338L126.288 466.055L125.102 463.865L123.795 461.678L123.308 460.789L122.894 459.864L122.553 458.91L122.29 457.931L121.835 455.944L121.609 453.492L122.025 451.065L123.06 448.83L124.637 446.941L125.55 446.203L126.549 445.585L127.615 445.096L128.733 444.744L132.782 443.745L134.291 443.323L135.774 442.81L137.22 442.207L138.63 441.517L139.92 440.835L142.043 439.623L144.084 438.275L146.034 436.797L147.882 435.195L150.967 432.342L151.179 432.145L151.388 431.946L151.597 431.746L151.804 431.544L156.021 427.402L157.219 426.355L158.532 425.453L159.939 424.713L161.424 424.138L163.092 423.605L164.979 423.203L166.91 423.188L168.804 423.561L170.586 424.309L172.22 425.431L173.591 426.867L174.635 428.555L175.307 430.422L175.943 432.985L176.193 434.205L176.344 435.442L176.398 436.687L176.352 437.931L176.011 442.34L175.926 443.734L175.884 445.13L175.889 446.527L175.94 447.922L175.979 448.671L176.225 451.698L176.637 454.707L177.216 457.689L177.961 460.634L178.265 461.715L178.618 462.913L178.993 464.104L179.39 465.287L179.809 466.462L181.732 471.683L182.025 472.467L182.319 473.25L182.619 474.032L182.923 474.812L184.812 479.635L185.353 480.967L185.928 482.285L186.534 483.588L187.172 484.876L188.423 487.33L189.395 489.103L190.469 490.818L191.64 492.467L192.94 494.086L194.808 496.116L196.793 497.954L198.917 499.628L201.167 501.128L202.976 502.158L204.845 503.076L206.766 503.879L208.732 504.562L211.315 505.371L212.673 505.771L214.045 506.122L215.429 506.424L216.822 506.677L220.141 507.076L223.481 507.196L226.82 507.036L230.133 506.596L233.069 506.08L242.108 504.467L242.375 504.424L242.643 504.391L242.912 504.367L243.182 504.352L244.898 504.292L247.482 504.762L249.635 506.266L250.966 508.531L251.232 511.145L251.037 512.132L250.684 513.075L250.182 513.948L249.544 514.727L245.557 518.86L244.893 519.52L244.204 520.153L243.489 520.757L242.75 521.332L239.948 523.423L238.189 524.691L236.39 525.9L234.551 527.05L232.676 528.138L231.343 528.884L229.648 529.799L227.927 530.664L226.182 531.478L224.414 532.241L221.702 533.295L218.946 534.228L216.152 535.039L213.325 535.726L210.847 536.27L210.185 536.413L209.522 536.551L208.858 536.684L208.193 536.813L204.09 537.591L202.039 538.012L200.001 538.492L197.979 539.031L195.877 539.659L193.268 540.533L190.787 541.473L188.345 542.507L185.945 543.634L185.674 543.768L183.853 544.702L182.061 545.695L180.303 546.743L178.579 547.847L176.486 549.237L175.215 550.121L173.983 551.059L172.792 552.05L171.648 553.092L169.914 554.739L168.497 556.215L167.216 557.815L166.089 559.525L165.12 561.329L164.124 563.755L163.418 566.28L163.012 568.871L162.907 571.49L162.912 571.803L163.029 573.764L163.306 575.709L163.742 577.625L164.334 579.498L164.942 581.174L165.656 582.985L166.471 584.752L167.384 586.471L168.392 588.135L170.737 591.774L171.136 592.405L171.528 593.042L171.911 593.684L172.281 594.332L174.112 597.902L175.653 601.606L176.895 605.421L177.83 609.323L178.032 610.342L178.092 610.637L178.153 610.931L178.214 611.226L178.278 611.52L179.29 616.119L179.814 618.247L180.442 620.346L181.172 622.412L182.003 624.439L183.128 626.815L184.394 629.122L185.791 631.349L187.318 633.49L187.62 633.886L188.832 635.421L190.108 636.906L191.441 638.339L192.831 639.717L195.352 642.119L196.199 642.916L197.055 643.701L197.922 644.476L198.798 645.24L202.928 648.795L203.672 649.432L204.419 650.065L205.169 650.695L205.922 651.321L209.293 654.109L210.612 655.178L211.951 656.222L213.311 657.239L214.69 658.23L216.421 659.448L218.159 660.624L219.937 661.736L221.755 662.784L223.61 663.764L224.628 664.28L226.591 665.215L228.596 666.057L230.639 666.803L232.715 667.451L233.571 667.697L235.712 668.244L237.882 668.667L240.071 668.964L242.275 669.133L243.222 669.179L245.355 669.209L247.484 669.094L249.601 668.834L251.694 668.432L252.595 668.226L254.716 667.647L256.78 666.891L258.773 665.963L260.68 664.869L261.027 664.65L262.956 663.294L264.743 661.755L266.369 660.048L267.819 658.188L269.098 656.162L270.167 654.018L271.016 651.777L271.637 649.463L271.714 649.108L272.085 646.935L272.269 644.738L272.264 642.533L272.07 640.337L271.897 639.029L271.584 637.093L271.158 635.18L270.619 633.295L269.971 631.444L269.296 629.683L268.56 627.883L267.748 626.116L266.861 624.386L265.9 622.695L264.724 620.726L263.778 619.251L262.74 617.84L261.613 616.498L260.404 615.231L259.158 614.007L257.531 612.576L255.755 611.333L253.854 610.294L251.85 609.471L249.364 608.787L246.81 608.435L244.232 608.42L241.675 608.745L241.352 608.807L239.381 609.291L237.466 609.965L235.626 610.821L233.878 611.853L229.655 614.631L229.419 614.785L229.182 614.938L228.943 615.089L228.704 615.239L224.612 617.774L222.734 618.799L220.757 619.615L218.702 620.21L216.595 620.579L213.974 620.714L211.358 620.499L208.794 619.936L206.279 619.015L204.374 618.054L202.626 616.927L201.004 615.624L199.525 614.161L197.863 612.334L196.88 611.202L195.951 610.024L195.08 608.804L194.267 607.544L191.79 603.499L191.269 602.66L190.738 601.827L190.197 601.001L189.646 600.181L186.999 596.293L186.122 595.043L185.214 593.818L184.272 592.618L183.298 591.444L180.537 588.205L179.782 587.266L179.086 586.284L178.448 585.262L177.869 584.205L176.834 582.169L175.933 579.942L175.422 577.594L175.319 575.193L175.629 572.81L176.264 570.698L177.223 568.711L178.482 566.899L180.006 565.306L180.583 564.791L182.205 563.519L183.972 562.459L185.859 561.629L187.836 561.042L189.168 560.736L191.117 560.38L193.09 560.204L195.071 560.207L197.043 560.391L198.132 560.543L200.356 560.946L202.539 561.529L204.668 562.287L206.728 563.217L207.608 563.659L209.415 564.635L211.159 565.719L212.834 566.907L214.433 568.195L218.388 571.584L218.598 571.763L218.879 572.001L222.995 575.458L224.589 576.715L226.259 577.87L227.996 578.919L229.797 579.857L230.376 580.136L232.635 581.11L234.97 581.887L237.362 582.463L239.795 582.832L242.115 582.99L244.441 582.96L246.757 582.743L249.048 582.34L249.987 582.135L251.929 581.653L253.839 581.06L255.713 580.359L257.542 579.55L258.743 578.978L260.665 577.983L262.517 576.863L264.291 575.623L265.98 574.269L266.304 573.991L268.083 572.336L269.723 570.542L271.214 568.623L272.545 566.589L273.676 564.521L274.642 562.371L275.437 560.152L276.056 557.877L276.578 555.615L276.851 554.352L277.087 553.081L277.286 551.804L277.448 550.522L277.846 546.975L278.091 545.211L278.429 543.462L278.86 541.734L279.381 540.031L280.466 537.217L281.799 534.512L283.368 531.937L285.162 529.514L285.408 529.21L286.416 528.023L287.475 526.88L288.582 525.785L289.736 524.738L292.258 522.549L293.476 521.468L294.67 520.36L295.84 519.227L296.984 518.067L297.61 517.42L299.492 515.387L301.287 513.276L302.99 511.092L304.601 508.838L305.787 507.102L306.377 506.266L306.994 505.448L307.637 504.65L308.304 503.874L309.183 502.882L311.37 500.687L313.795 498.759L316.426 497.124L319.229 495.804L320.695 495.264L322.189 494.81L323.708 494.444L325.246 494.167L331.105 493.287L331.428 493.239L331.752 493.193L332.076 493.148L332.4 493.104L338.6 492.28L339.999 492.09L341.396 491.889L342.791 491.679L344.186 491.46L348.143 490.822L349.572 490.58L350.997 490.313L352.417 490.022L353.832 489.707L356.917 488.994L358.687 488.547L360.438 488.031L362.166 487.445L363.871 486.791L365.685 486.054L367.536 485.23L369.33 484.287L371.058 483.229L372.713 482.061L373.9 481.164L375.452 479.88L376.885 478.463L378.186 476.925L379.347 475.278L380.168 473.996L381.117 472.3L381.86 470.504L382.386 468.633L382.688 466.712L382.838 465.164L382.87 463.294L382.604 461.442L382.048 459.656L381.215 457.981L379.751 456.035L377.918 454.434L375.793 453.245L373.41 452.508L371.762 452.286L370.16 452.289L368.572 452.506L367.027 452.932L363.069 454.314L362.003 454.662L360.923 454.965L359.832 455.225L358.732 455.439L358.059 455.556L354.86 455.934L351.639 455.966L348.433 455.65L345.279 454.991L343.852 454.573L342.447 454.084L341.068 453.526L339.719 452.9L336.148 451.134L334.908 450.545L333.65 449.995L332.376 449.486L331.086 449.017L327.611 447.816L326.055 447.347L324.466 447.003L322.856 446.786L321.233 446.698L318.331 446.864L315.482 447.439L312.743 448.414L310.17 449.767L309.719 450.047L308.45 450.896L307.242 451.831L306.1 452.846L305.031 453.937L301.625 457.663L301.074 458.248L300.506 458.818L299.923 459.371L299.323 459.907L295.512 463.219L294.4 464.059L293.184 464.739L291.886 465.246L290.531 465.57L287.865 465.662L285.267 465.056L282.917 463.795L280.975 461.964L280.354 461.201L279.584 460.14L278.936 459L278.418 457.796L278.035 456.542L276.721 451.183L276.562 450.434L276.45 449.677L276.385 448.914L276.367 448.148L276.382 446.385L276.751 443.856L277.787 441.52L279.414 439.55L281.511 438.091L283.256 437.412L285.101 437.092L286.972 437.144L288.796 437.567L291.627 438.529L292.943 438.915L294.286 439.191L295.647 439.355L297.017 439.404L299.402 439.391L301.667 439.295L303.919 439.032L306.145 438.603L308.333 438.01L309.433 437.668L311.353 437.132L313.3 436.706L315.269 436.392L317.252 436.191L320.082 436.103L322.91 436.244L325.717 436.616L328.485 437.214L328.929 437.329L330.633 437.814L332.312 438.379L333.963 439.022L335.581 439.742L339.605 441.648L340.389 442.007L341.182 442.346L341.983 442.665L342.792 442.963L345.466 443.911L347.902 444.619L350.403 445.041L352.937 445.171L355.468 445.007L357.681 444.619L359.843 444.006L361.93 443.175L363.921 442.136L364.623 441.722L366.426 440.556L368.127 439.244L369.713 437.795L371.173 436.22L371.905 435.361L373.194 433.706L374.332 431.945L375.311 430.09L376.123 428.157L376.55 427.001L377.156 425.022L377.537 422.986L377.687 420.923L377.605 418.855L377.521 417.99L377.154 415.815L376.482 413.715L375.517 411.733L374.281 409.908L372.658 408.145L370.783 406.657L368.7 405.473L366.46 404.628L364.673 404.106L363.432 403.785L362.173 403.539L360.902 403.371L359.623 403.278L358.049 403.21L355.308 403.234L352.583 403.532L349.902 404.101L347.291 404.937L345.492 405.69L343.752 406.569L342.079 407.57L340.481 408.688L336.007 412.064L335.848 412.183L331.206 415.652L329.626 416.775L327.994 417.822L326.316 418.792L324.593 419.681L323.474 420.226L321.413 421.142L319.293 421.912L317.125 422.53L314.896 423.001L312.396 423.342L309.9 423.48L307.4 423.427L304.912 423.176L302.676 422.781L300.474 422.231L298.317 421.522L296.215 420.665L295.374 420.285L293.51 419.386L291.698 418.385L289.941 417.291L288.247 416.102L287.323 415.416L285.597 414.073L283.932 412.656L282.332 411.165L280.799 409.606L280.087 408.849L278.666 407.261L277.323 405.609L276.061 403.894L274.882 402.121L274.38 401.325L273.25 399.408L272.238 397.428L271.348 395.389L270.576 393.282L269.85 390.817L269.302 388.325L268.929 385.802L268.733 383.259L268.708 381.023L268.819 378.789L269.066 376.568L269.449 374.363L269.892 372.21L270.212 370.751L270.572 369.304L270.972 367.865L271.411 366.44L272.688 362.484L273.067 361.247L273.409 360L273.714 358.74L273.982 357.476L274.322 355.737L274.722 353.148L274.913 350.532L274.893 347.911L274.662 345.3L274.324 343.213L273.851 341.152L273.246 339.125L272.51 337.143L271.585 334.877L270.993 333.489L270.36 332.118L269.684 330.768L268.967 329.441L267.45 326.727L266.531 325.207L265.512 323.753L264.398 322.372L263.193 321.067L262.554 320.421L260.726 318.765L258.727 317.32L256.581 316.107L254.314 315.136L252.207 314.485L250.045 314.047L247.851 313.823L245.645 313.815L240.897 314.037L240.571 314.054L240.137 314.081L236.046 314.378L233.564 314.395L231.101 314.093L228.697 313.474L226.394 312.551L224.572 311.557L222.869 310.369L221.304 309.007L219.895 307.482L217.574 304.679L216.951 303.992L216.27 303.364L215.535 302.798L214.753 302.299L212.091 301.22L209.236 300.908L206.405 301.391L203.812 302.623L202.718 303.344L202.074 303.8L201.459 304.292L200.877 304.823L200.329 305.39L196.24 309.896L195.554 310.639L194.855 311.372L194.144 312.091L193.421 312.8L189.117 316.948L188.494 317.547L187.866 318.139L187.233 318.726L186.595 319.308L185.416 320.377L183.016 322.482L180.542 324.501L178 326.433L175.39 328.274L174.017 329.19L172.624 330.081L171.217 330.948L169.795 331.791L166.649 333.613L165.446 334.32L164.253 335.043L163.068 335.779L161.894 336.531L157.672 339.274L156.869 339.778L156.051 340.255L155.218 340.709L154.371 341.132L151.461 342.535L149.448 343.356L147.346 343.916L145.194 344.211L143.02 344.233L140.702 343.953L138.445 343.364L136.285 342.477L134.267 341.31L133.305 340.662L131.874 339.612L130.534 338.451L129.295 337.179L128.165 335.813L126.885 334.122L125.799 332.507L124.908 330.776L124.224 328.954L123.754 327.063L123.476 324.591L123.569 322.104L124.026 319.659L124.839 317.308L125.193 316.49L125.942 314.938L126.826 313.46L127.837 312.064L128.964 310.761L131.299 308.289L132.273 307.295L133.281 306.338L134.323 305.414L135.397 304.533L139.881 300.972L140.356 300.592L140.824 300.202L141.286 299.805L141.744 299.403L145.221 296.295L146.56 294.972L147.76 293.523L148.81 291.959L149.696 290.298L150.65 287.836L151.249 285.266L151.483 282.635L151.344 280L151.023 277.379L150.93 276.69L150.818 276.005L150.692 275.323L150.546 274.644L149.445 269.767L149.204 268.206L149.177 266.628L149.367 265.059L149.767 263.532L150.344 261.822L151.074 260.256L152.133 258.892L153.465 257.793L155.009 257.016L157.025 256.563L159.087 256.658L161.054 257.291L162.783 258.421L163.306 258.874L164.49 260.109L165.412 261.549L166.048 263.137L166.369 264.815L166.89 270.413L166.912 270.664L166.932 270.914L166.949 271.165L166.961 271.416L167.151 275.25L167.141 277.832L166.863 280.399L166.323 282.925L165.519 285.378L164.679 287.305L163.681 289.153L162.53 290.91L161.232 292.563L158.495 295.759L158.076 296.244L157.648 296.724L157.217 297.196L156.779 297.664L155.34 299.176L153.126 301.432L150.84 303.614L148.486 305.719L146.063 307.748L144.476 309.034L143.95 309.468L143.434 309.911L142.922 310.361L142.421 310.822L137.5 315.413L136.962 315.973L136.485 316.585L136.073 317.245L135.735 317.944L134.8 320.156L134.435 321.797L134.676 323.461L135.489 324.935L136.77 326.021L138.576 326.618L140.471 326.442L142.138 325.526L143.302 324.021L144.88 320.782L145.141 320.292L145.433 319.822L145.759 319.371L146.112 318.948L148.914 315.81L150.419 314.22L152.011 312.719L153.686 311.311L155.437 310.003L157.672 308.43L158.729 307.67L159.769 306.888L160.791 306.084L161.797 305.259L165.274 302.35L166.25 301.503L167.199 300.623L168.12 299.712L169.008 298.772L170.61 297.021L172.101 295.233L173.423 293.321L174.569 291.297L175.529 289.178L176.327 286.866L176.904 284.491L177.255 282.07L177.374 279.63L177.377 277.252L177.36 276.054L177.306 274.858L177.214 273.664L177.085 272.473L176.425 267.163L176.318 266.179L176.245 265.193L176.201 264.204L176.191 263.215L176.196 262.428L176.422 259.086L177.053 255.796L178.083 252.607L179.492 249.57L180.206 248.328L180.983 247.127L181.823 245.97L182.721 244.857L184.109 243.225L185.669 241.478L187.313 239.812L189.037 238.229L190.835 236.731L192.72 235.24L193.743 234.415L194.752 233.569L195.745 232.707L196.722 231.825L201.375 227.556L201.657 227.288L201.929 227.01L202.192 226.723L202.444 226.425L205.332 222.903L206.703 221.715L208.393 221.05L210.207 220.989L211.938 221.537L213.578 222.845L214.591 224.684L214.822 226.769L214.236 228.783L213.304 230.571L212.799 231.404L212.19 232.159L211.486 232.831L210.7 233.401L205.287 236.819L204.767 237.152L204.254 237.498L203.748 237.856L203.248 238.222L200.044 240.621L198.295 242.009L196.628 243.498L195.049 245.076L193.563 246.744L192.593 247.897L191.447 249.356L190.4 250.89L189.458 252.488L188.623 254.147L187.53 256.884L186.733 259.722L186.239 262.628L186.057 265.573L186.044 266.856L186.057 268.082L186.11 269.307L186.21 270.53L186.356 271.747L187.04 276.763L187.172 277.861L187.264 278.962L187.318 280.068L187.335 281.171L187.33 282.475L187.147 285.509L186.614 288.505L185.74 291.419L184.537 294.212L183.7 295.752L182.762 297.233L181.728 298.648L180.603 299.99L177.688 303.244L177.07 303.924L176.439 304.594L175.799 305.254L175.149 305.904L173.851 307.183L171.645 309.258L169.349 311.229L166.963 313.094L164.497 314.851L161.802 316.677L161.556 316.853L161.237 317.101L158.305 319.598L157.144 321.154L156.771 323.061L157.263 324.942L158.519 326.423L159.659 327.037L160.925 327.288L162.211 327.158L163.404 326.659L168.616 323.493L168.904 323.312L169.189 323.125L169.466 322.93L169.741 322.73L172.29 320.801L174.577 319.004L176.79 317.121L178.932 315.155L180.997 313.111L182.723 311.333L183.22 310.819L183.712 310.303L184.204 309.782L184.691 309.258L189.012 304.569L189.655 303.853L190.279 303.12L190.882 302.37L191.465 301.605L192.91 299.654L194.326 297.515L195.509 295.24L196.448 292.853L197.131 290.383L197.5 288.272L197.683 286.138L197.677 283.994L197.485 281.861L196.797 276.755L196.772 276.573L196.741 276.329L196.039 270.734L195.872 268.834L195.846 266.927L195.962 265.022L196.22 263.132L196.524 261.381L196.962 259.486L197.605 257.652L198.446 255.898L199.473 254.247L201.761 250.983L202.268 250.366L202.864 249.835L203.534 249.402L204.263 249.075L204.712 248.915L206.812 248.659L208.817 249.331L210.339 250.8L211.082 252.783L211.122 253.66L211 254.532L210.723 255.365L210.298 256.134L208.331 259.03L207.289 260.847L206.53 262.801L206.073 264.845L205.929 266.934L205.931 267.261L206.084 269.307L206.516 271.314L207.218 273.243L208.177 275.058L210.49 278.787L210.763 279.235L211.028 279.69L211.286 280.148L211.535 280.611L214.261 285.765L214.926 286.986L215.623 288.189L216.35 289.373L217.108 290.539L219.297 293.808L220.151 295.002L221.079 296.137L222.078 297.211L223.143 298.219L223.539 298.57L225.927 300.402L228.55 301.88L231.356 302.969L234.288 303.649L235.821 303.834L237.363 303.907L238.907 303.868L240.444 303.717L243.764 303.266L245.372 303.093L246.986 303.01L248.603 303.02L250.216 303.12L251.264 303.213L253.851 303.588L256.383 304.243L258.829 305.166L261.16 306.352L262.92 307.475L264.577 308.747L266.117 310.157L267.528 311.694L270.471 315.194L270.745 315.518L271.021 315.839L271.3 316.156L271.582 316.473L273.913 319.062L275.734 321.035L277.605 322.962L279.524 324.84L281.489 326.669L281.796 326.947L283.24 328.284L284.657 329.65L286.045 331.046L287.404 332.471L289.341 334.605L291.214 336.797L293.02 339.042L294.758 341.344L295.491 342.343L296.284 343.441L297.065 344.547L297.834 345.663L298.589 346.788L302.052 352.008L302.262 352.325L302.472 352.641L302.681 352.96L302.89 353.277L306.807 359.232L307.316 360.002L307.826 360.772L308.339 361.539L308.854 362.306L311.569 366.333L312.424 367.585L313.294 368.824L314.179 370.055L315.079 371.272L317.39 374.361L318.255 375.486L319.151 376.587L320.076 377.666L321.03 378.716L322.573 380.37L324.19 381.995L325.909 383.512L327.724 384.913L329.626 386.191L331.774 387.434L334.005 388.522L336.307 389.45L338.668 390.213L340.444 390.719L341.799 391.085L343.163 391.409L344.537 391.694L345.919 391.94L350.5 392.683L351.627 392.853L352.757 393.002L353.889 393.128L355.024 393.233L357.331 393.421L359.874 393.543L362.421 393.501L364.959 393.296L367.479 392.926L369.651 392.471L371.794 391.893L373.9 391.197L375.964 390.383L377.837 389.582L379.305 388.929L380.754 388.237L382.184 387.504L383.592 386.73L385.408 385.699L387.314 384.586L389.194 383.432L391.047 382.231L392.871 380.989L393.574 380.497L395.379 379.201L397.151 377.861L398.888 376.475L400.589 375.045L401.123 374.585L402.828 373.072L404.486 371.506L406.097 369.891L407.658 368.228L407.825 368.045L409.442 366.211L410.995 364.321L412.484 362.379L413.906 360.389L415.235 358.39L416.497 356.346L417.691 354.264L418.815 352.142L419.036 351.706L420.008 349.726L420.925 347.719L421.787 345.687L422.591 343.631L423.037 342.445L423.727 340.548L424.38 338.641L424.996 336.719L425.573 334.785L426.075 333.041L426.599 331.175L427.099 329.302L427.574 327.421L428.025 325.534L428.349 324.138L428.836 321.982L429.3 319.822L429.741 317.657L430.158 315.486L430.369 314.356L430.737 312.308L431.079 310.254L431.394 308.199L431.682 306.138L431.859 304.813L432.121 302.713L432.346 300.611L432.534 298.504L432.686 296.392L432.796 294.665L432.894 292.787L432.95 290.907L432.963 289.027L432.934 287.144L432.866 284.606L432.791 282.901L432.655 281.201L432.458 279.508L432.201 277.82L431.785 275.377L431.408 273.528L430.911 271.708L430.298 269.923L429.57 268.184L428.886 266.688L427.947 264.874L426.833 263.161L425.557 261.566L424.131 260.105L423.472 259.493L421.794 258.119L419.956 256.967L417.989 256.054L415.923 255.396L413.571 254.977L411.184 254.887L408.807 255.126L406.486 255.691L406.067 255.825L404.167 256.546L402.355 257.467L400.653 258.58L399.081 259.868L396.943 261.824L395.988 262.733L395.071 263.683L394.193 264.669L393.357 265.692L390.76 269.002L389.864 270.125L388.948 271.233L388.014 272.325L387.06 273.399L382.877 278.032L382.671 278.261L382.467 278.49L382.263 278.721L382.06 278.952L379.209 282.211L377.705 284.036L376.308 285.943L375.025 287.928L373.858 289.986L372.78 292.179L371.834 294.432L371.025 296.736L370.355 299.086L369.239 303.493L369.188 303.695L369.119 303.96L367.667 309.497L367.129 311.277L366.461 313.014L365.667 314.697L364.751 316.317L364.125 317.335L362.819 319.211L361.307 320.925L359.61 322.457L357.751 323.787L355.623 324.959L353.368 325.865L351.021 326.491L348.583 326.834L346.27 326.888L343.999 326.686L341.765 326.23L339.596 325.529L338.348 325.044L336.641 324.313L334.991 323.463L333.405 322.499L331.891 321.425L328.685 318.974L327.913 318.373L327.151 317.756L326.401 317.128L325.662 316.485L322.871 314.015L321.345 312.688L319.795 311.387L318.224 310.113L316.63 308.868L315.403 307.926L313.748 306.686L312.063 305.488L310.349 304.331L308.607 303.217L307.283 302.394L305.556 301.356L303.796 300.38L302.004 299.459L300.183 298.599L299.81 298.431L297.384 297.403L294.914 296.487L292.403 295.691L289.858 295.009L287.697 294.529L285.518 294.137L283.326 293.828L281.123 293.606L276.976 293.267L276.415 293.224L275.854 293.182L275.292 293.146L274.73 293.109L267.15 292.651L266.645 292.619L266.141 292.583L265.637 292.546L265.133 292.505L263.056 292.327L259.756 292.132L256.451 292.113L253.149 292.269L249.86 292.598L248.087 292.822L247.458 292.909L246.831 293.012L246.207 293.131L245.585 293.262L241.755 294.134L239.591 294.451L237.404 294.424L235.247 294.057L233.175 293.357L232.608 293.116L230.858 292.191L229.28 290.995L227.918 289.558L226.808 287.918L226.321 287.056L225.513 285.205L225.099 283.227L225.096 281.208L225.504 279.23L226.407 277.201L227.74 275.425L229.436 273.993L231.409 272.975L234.238 271.901L234.84 271.687L235.451 271.494L236.068 271.329L236.692 271.187L244.193 269.633L244.578 269.55L244.962 269.465L245.344 269.373L245.726 269.278L246.492 269.08L250.402 268.345L254.375 268.13L258.342 268.44L262.233 269.268L262.827 269.441L263.417 269.628L264.003 269.826L264.585 270.038L267.052 270.958L269.807 271.94L272.591 272.834L275.401 273.642L278.236 274.363L281.62 275.167L281.899 275.235L282.27 275.326L284.068 275.771L287.705 276.792L291.274 278.027L294.763 279.471L298.16 281.123L298.525 281.315L299.258 281.705L299.985 282.109L300.704 282.526L301.417 282.952L304.129 284.606L306.248 285.787L308.453 286.798L310.732 287.631L313.069 288.281L315.359 288.732L317.677 289.007L320.009 289.105L322.342 289.024L323.171 288.966L325.216 288.759L327.247 288.437L329.255 287.999L331.236 287.448L332.048 287.197L334.269 286.442L336.444 285.561L338.565 284.557L340.625 283.437L341.372 283.003L343.108 281.922L344.777 280.738L346.371 279.457L347.887 278.083L349.797 276.088L351.54 273.947L353.104 271.67L354.479 269.275L354.83 268.603L355.558 267.132L356.223 265.631L356.824 264.104L357.36 262.552L358.847 257.934L359.094 257.184L359.349 256.434L359.612 255.689L359.884 254.946L361.107 251.662L361.974 249.521L362.963 247.434L364.069 245.407L365.29 243.449L366.734 241.41L368.302 239.469L369.987 237.625L371.783 235.891L372.847 234.926L374.054 233.864L375.294 232.841L376.565 231.857L377.865 230.912L382.708 227.507L382.949 227.339L383.191 227.171L383.433 227.003L383.675 226.835L388.346 223.607L389.762 222.609L391.159 221.586L392.537 220.536L393.896 219.462L395.48 218.185L397.099 216.833L398.672 215.43L400.197 213.976L401.673 212.471L402.491 211.609L403.933 210.023L405.305 208.376L406.604 206.669L407.829 204.91L408.328 204.16L409.516 202.26L410.599 200.299L411.575 198.285L412.44 196.22L412.683 195.591L413.426 193.479L414.037 191.324L414.512 189.136L414.85 186.922L414.962 185.994L415.14 183.907L415.169 181.812L415.048 179.72L414.779 177.642L414.589 176.495L414.153 174.441L413.532 172.437L412.732 170.498L411.76 168.64L411.367 167.965L410.146 166.114L408.724 164.413L407.121 162.884L405.356 161.542L403.283 160.321L401.077 159.364L398.77 158.68L396.398 158.285L396.074 158.251L394.008 158.137L391.941 158.227L389.893 158.519L387.884 159.011L385.504 159.722L384.11 160.17L382.737 160.682L381.387 161.252L380.064 161.878L376.265 163.785L375.124 164.345L373.971 164.881L372.808 165.395L371.635 165.887L369.658 166.691L367.325 167.568L364.948 168.316L362.533 168.932L360.088 169.417L357.792 169.745L355.484 169.957L353.167 170.05L350.848 170.028L349.805 169.989L347.808 169.882L345.817 169.702L343.833 169.453L341.86 169.132L340.557 168.895L338.41 168.471L336.276 167.987L334.157 167.439L332.056 166.827L327.737 165.505L327.344 165.385L326.95 165.268L326.555 165.156L326.159 165.047L320.835 163.595L319.222 163.227L317.586 162.996L315.935 162.901L314.282 162.945L312.091 163.093L310.224 163.361L308.417 163.904L306.712 164.708L305.144 165.758L304.561 166.216L303.048 167.658L301.84 169.363L300.981 171.27L300.504 173.306L300.431 175.46L300.785 177.589L301.552 179.603L302.704 181.425L303.16 182.009L304.419 183.395L305.869 184.579L307.478 185.536L309.212 186.243L314.263 187.88L314.529 187.967L314.794 188.055L315.058 188.147L315.321 188.242L318.001 189.222L320.889 190.379L323.701 191.706L326.429 193.202L329.061 194.86L330.477 195.847L331.858 196.882L333.205 197.964L334.514 199.086L336.462 200.818L337.818 202.048L339.15 203.308L340.456 204.591L341.735 205.902L343.684 207.94L344.783 209.127L345.842 210.349L346.861 211.606L347.838 212.895L349.356 214.968L350.444 216.561L351.427 218.219L352.301 219.939L353.061 221.712L353.153 221.946L354.013 224.501L354.629 227.124L354.992 229.794L355.102 232.488L355.013 234.551L354.774 236.602L354.387 238.628L353.854 240.623L352.9 243.734L352.548 244.837L352.171 245.931L351.769 247.015L351.343 248.091L349.913 251.579L349.2 253.253L348.439 254.904L347.631 256.534L346.777 258.139L345.763 259.985L344.771 261.693L343.699 263.351L342.549 264.959L341.325 266.511L340.085 268.009L338.839 269.412L337.5 270.727L336.076 271.95L334.571 273.072L333.129 274.074L331.415 275.133L329.6 276.01L327.703 276.694L325.746 277.174L324.331 277.445L322.348 277.681L320.352 277.64L318.381 277.318L316.474 276.726L315.434 276.322L313.515 275.36L311.81 274.057L310.378 272.459L309.268 270.622L308.453 268.34L308.135 265.938L308.329 263.524L309.025 261.205L309.635 259.754L310.188 258.585L310.839 257.464L311.585 256.407L312.42 255.418L315.159 252.442L316.155 251.316L317.107 250.152L318.011 248.949L318.868 247.714L319.996 246.014L321.184 244.055L322.208 242.007L323.061 239.88L323.738 237.691L323.87 237.194L324.343 235.028L324.624 232.829L324.71 230.612L324.601 228.398L324.516 227.495L324.218 225.436L323.716 223.42L323.014 221.464L322.119 219.586L321.551 218.534L320.481 216.821L319.205 215.255L317.742 213.862L316.116 212.666L313.872 211.463L311.467 210.627L308.96 210.186L306.378 210.147L304.464 210.381L302.627 210.827L300.853 211.484L299.168 212.342L295.003 214.778L294.611 215.009L294.223 215.245L293.838 215.486L293.455 215.732L291.915 216.741L288.966 218.565L285.931 220.241L282.818 221.768L279.633 223.137L278.369 223.632L277.097 224.099L275.816 224.545L274.526 224.964L270.977 226.079L269.412 226.596L267.862 227.151L266.327 227.75L264.809 228.391L260.136 230.435L259.541 230.676L258.935 230.888L258.319 231.065L257.694 231.212L252.906 232.205L251.549 232.288L250.223 231.984L249.037 231.319L248.088 230.347L247.358 228.856L247.183 227.207L247.582 225.6L248.508 224.223L249.693 222.996L250.592 222.214L251.613 221.6L252.726 221.176L253.896 220.952L259.28 220.402L260.125 220.299L260.966 220.163L261.801 219.993L262.628 219.79L264.7 219.24L267.362 218.392L269.927 217.286L272.372 215.932L274.672 214.346L276.176 213.112L277.592 211.779L278.914 210.349L280.135 208.834L280.853 207.88L282.161 206.021L283.353 204.087L284.425 202.082L285.396 199.961L286.307 197.598L287.042 195.24L287.622 192.841L288.047 190.408L288.327 188.43L288.499 187.093L288.637 185.751L288.741 184.406L288.812 183.062L288.977 178.894L289.065 177.467L289.217 176.047L289.431 174.631L289.708 173.228L290.14 171.273L290.762 169.012L291.614 166.827L292.687 164.745L293.969 162.782L295.43 160.982L297.067 159.34L298.862 157.874L300.877 156.553L303.006 155.433L305.151 154.568L307.371 153.915L309.645 153.484L310.043 153.431L312.225 153.221L314.417 153.202L316.603 153.37L318.766 153.723L322.842 154.571L323.353 154.68L323.863 154.795L324.371 154.914L324.879 155.038L328.877 156.049L331.08 156.522L333.311 156.831L335.559 156.982L337.812 156.967L340.28 156.765L342.724 156.366L345.128 155.774L347.478 154.994L348.89 154.463L350.351 153.879L351.789 153.238L353.2 152.544L354.584 151.794L357.616 150.077L358.951 149.302L360.272 148.506L361.578 147.685L362.869 146.84L365.351 145.186L366.86 144.155L368.344 143.086L369.803 141.985L371.236 140.85L372.874 139.523L374.38 138.251L375.835 136.921L377.238 135.538L378.586 134.1L379.606 132.97L380.969 131.372L382.241 129.699L383.416 127.958L384.492 126.153L384.876 125.466L385.927 123.415L386.828 121.291L387.574 119.108L388.161 116.88L388.609 114.456L388.869 112.008L388.941 109.546L388.815 107.003L388.54 104.703L388.124 102.514L387.561 100.356L386.854 98.2389L386.474 97.2183L385.716 95.3282L384.865 93.477L383.924 91.6697L382.894 89.9111L382.017 88.4959L380.95 86.8371L379.827 85.2149L378.65 83.6341L377.42 82.0947L376.462 80.9353L375.082 79.3131L373.659 77.725L372.193 76.1758L370.687 74.6681L369.909 73.9106L368.327 72.4077L366.705 70.9487L365.043 69.5359L363.344 68.167L362.438 67.4583L360.767 66.1941L359.054 64.986L357.302 63.8339L355.513 62.7426L354.424 62.102L352.577 61.0693L350.686 60.1169L348.756 59.2498L346.79 58.4654L345.691 58.0563L343.681 57.3694L341.636 56.7945L339.563 56.3342L337.467 55.9907L336.291 55.8324L334.214 55.6254L332.126 55.5645L330.04 55.6497L327.965 55.8811L326.75 56.0613L324.724 56.4535L322.741 57.0259L320.818 57.7737L318.969 58.692L317.976 59.2425L316.223 60.3483L314.608 61.649L313.152 63.1226L311.873 64.7546L311.469 65.3367L310.357 67.2025L309.514 69.2047L308.956 71.3019L308.693 73.46L308.748 75.8032L309.153 78.1123L309.899 80.3361L310.968 82.4235L311.12 82.672L312.314 84.377L313.711 85.9164L315.29 87.2707L317.027 88.4155L319.353 89.7479L320.534 90.386L321.745 90.9657L322.983 91.4821L324.245 91.9376L327.911 93.1603L329.398 93.6913L330.861 94.2832L332.297 94.9384L333.704 95.6546L335.56 96.6483L337.413 97.7469L339.166 99.0013L340.803 100.399L342.315 101.934L342.782 102.453L344.188 104.18L345.41 106.041L346.434 108.018L347.25 110.091L347.371 110.452L347.971 112.646L348.32 114.897L348.41 117.172L348.24 119.464L347.789 121.815L347.066 124.075L346.079 126.233L344.842 128.257L343.423 130.064L341.804 131.694L340.009 133.129L338.06 134.344L337.238 134.795L335.465 135.669L333.626 136.395L331.733 136.967L329.8 137.379L325.681 138.081L324.914 138.205L324.147 138.317L323.377 138.417L322.606 138.504L318.422 138.945L316.461 139.186L314.51 139.501L312.572 139.885L310.649 140.338L309.671 140.587L307.403 141.23L305.171 141.992L302.982 142.869L300.842 143.861L300.405 144.075L298.434 145.12L296.523 146.272L294.679 147.526L292.906 148.878L292.174 149.47L290.565 150.859L289.049 152.347L287.63 153.928L286.315 155.596L286.024 155.991L284.659 158.005L283.461 160.124L282.437 162.333L281.594 164.618L280.955 166.888L280.495 169.205L280.216 171.548L280.121 173.906L280.117 177.479L280.112 178.18L280.097 178.879L280.073 179.581L280.04 180.28L279.822 184.306L279.632 186.423L279.292 188.52L278.805 190.591L278.173 192.62L277.17 195.114L275.949 197.506L274.518 199.781L272.89 201.917L271.376 203.731L270.739 204.45L270.061 205.13L269.345 205.768L268.592 206.364L264.37 209.514L263.373 210.099L262.272 210.449L261.121 210.554L259.975 210.401L257.795 209.27L256.366 207.273L256.002 204.845L256.783 202.514L256.926 202.287L257.222 201.858L257.557 201.464L257.929 201.101L258.334 200.774L261.286 198.624L263.171 197.087L264.881 195.36L266.397 193.457L267.702 191.407L267.98 190.914L268.85 189.175L269.545 187.358L270.061 185.485L270.391 183.568L270.433 183.22L270.568 180.611L270.336 178.007L269.744 175.462L268.802 173.024L267.854 171.258L266.722 169.604L265.418 168.079L263.959 166.706L260.432 163.722L260.081 163.42L259.737 163.108L259.4 162.789L259.07 162.462L258.022 161.398L255.867 158.724L254.292 155.669L253.359 152.361L253.107 148.934L253.155 148.043L253.25 147.154L253.391 146.272L253.577 145.398L254.378 142.08L254.857 139.873L255.235 137.649L255.511 135.409L255.686 133.158L255.719 132.551L255.797 130.279L255.784 128.006L255.678 125.734L255.482 123.471L255.412 122.821L255.126 120.589L254.751 118.37L254.285 116.168L253.726 113.969L252.979 111.487L252.121 109.056L251.151 106.669L250.07 104.328L249.031 102.316L247.91 100.351L246.71 98.4289L245.431 96.5606L244.511 95.2721L243.449 93.8253L242.353 92.4028L241.223 91.0071L240.059 89.6382L237.988 87.2634L237.001 86.1454L236.003 85.0371L234.993 83.9386L233.972 82.8522L231.598 80.3531L230.457 79.1596L229.309 77.971L228.155 76.7896L226.994 75.6156L225.123 73.7303L223.788 72.3955L222.445 71.0705L221.092 69.7576L219.729 68.4521L218.542 67.3218L216.968 65.8434L215.377 64.3819L213.77 62.9375L212.146 61.5126L211.712 61.135L209.875 59.564L208.016 58.0197L206.136 56.4998L204.234 55.0091L202.286 53.5282L200.318 52.074L198.33 50.6467L196.321 49.251L195.645 48.7882L193.982 47.6629L192.308 46.5522L190.623 45.4609L188.927 44.3843L185.436 42.1971L184.759 41.7756L184.082 41.3518L183.405 40.9329L182.726 40.5139L178.801 38.0977L177.301 37.1696L175.806 36.2294L174.319 35.2819L172.836 34.3247L172.003 33.7839L169.827 32.3542L167.667 30.9L165.522 29.4215L163.391 27.9211L161.558 26.5984L159.737 25.2613L157.925 23.9069L156.129 22.5332L152.927 20.0633L152.467 19.7077L152.004 19.3497L151.544 18.9916L151.084 18.6336L146.56 15.0968L145.442 14.2346L144.315 13.3845L143.178 12.549L142.029 11.7257L139.287 9.78204L137.829 8.77848L136.344 7.81638L134.829 6.89808L133.291 6.02367L131.401 4.98359L129.624 4.06284L127.805 3.23228L125.945 2.49179L124.053 1.84387L122.712 1.4225L120.671 0.859828L118.597 0.438451L116.498 0.160804L114.385 0.0341469L113.123 0L111.088 0.0365859L109.065 0.250933L107.068 0.640602L105.113 1.20327L104.098 1.54428L102.094 2.34812L100.195 3.37839L98.4273 4.62063L96.7521 6.11862L95.1282 7.96493L93.8134 9.94034L92.7664 12.0692L92.0068 14.315L91.571 16.4901L91.403 18.7017L91.5052 20.9183L91.8802 23.1032L92.2016 24.4745L92.6642 26.1576L93.2485 27.8017L93.9522 29.3996L94.7727 30.9414L97.5094 35.6619L97.6919 35.9786L97.8721 36.2952L98.0499 36.6143L98.2276 36.9334L100.273 40.6674L101.329 42.7524L102.25 44.9007L103.031 47.1027L103.669 49.3508L104.178 51.7355L104.529 54.1468L104.716 56.5777L104.738 59.0159L104.692 61.0376L104.641 62.4114L104.553 63.7827L104.429 65.1516L104.268 66.5181L103.72 70.6832L103.557 72.0643L103.433 73.4478L103.348 74.8337L103.302 76.2221L103.248 78.955L103.277 81.0206L103.448 83.0788L103.757 85.1199L104.205 87.1367L104.531 88.4057L105.133 90.3616L105.902 92.2567L106.839 94.0762L107.933 95.8056L108.67 96.8627L109.917 98.4484L111.339 99.8782L112.916 101.137L114.626 102.207L115.256 102.55L117.258 103.464L119.369 104.075L121.545 104.372L123.741 104.353L126.003 103.992L128.182 103.293L130.23 102.273L132.1 100.955L132.762 100.409L134.172 99.1158L135.436 97.6762L136.536 96.1125L137.464 94.4391L139.531 90.1814L139.767 89.6869L139.996 89.1901L140.217 88.6883L140.434 88.1841L142.289 83.7559L143.071 82.0314L143.945 80.3531L144.916 78.7285L145.976 77.1599L146.932 75.8275L148.216 74.1907L149.635 72.6732L151.179 71.2848L152.837 70.0329L153.436 69.6212L155.381 68.4301L157.448 67.4583L159.608 66.7202L161.836 66.2209L164.231 65.9627L166.639 65.9822L169.03 66.2818L171.373 66.8517L171.726 66.9614L173.737 67.6848L175.67 68.5957L177.508 69.687L179.232 70.9462L180.79 72.2031L182.068 73.2919L183.291 74.4416L184.452 75.6521L185.548 76.9212L189.01 81.1399L189.297 81.4931L189.584 81.8462L189.867 82.2019L190.149 82.5575L193.532 86.8615L194.571 88.1768L195.619 89.4824L196.675 90.783L197.74 92.0764L199.915 94.6997L200.857 95.8519L201.784 97.0137L202.697 98.1877L203.596 99.3715L204.505 100.587L206.042 102.701L207.52 104.859L208.936 107.056L210.29 109.292L211.403 111.243L212.468 113.219L213.485 115.221L214.454 117.245L215.496 119.493L216.071 120.75L216.634 122.012L217.185 123.278L217.725 124.55L220.036 130.079L220.225 130.532L220.414 130.983L220.605 131.433L220.795 131.884L223.739 138.826L223.978 139.386L224.221 139.941L224.469 140.497L224.721 141.05L226.562 145.049L227.464 146.881L228.462 148.661L229.553 150.386L230.733 152.052L232.479 154.215L234.376 156.246L236.415 158.134L238.584 159.871L240.721 161.459L241.314 161.895L241.913 162.324L242.517 162.743L243.127 163.154L249.899 167.663L250.029 167.75L254.896 170.932L256.357 172.059L257.622 173.406L258.659 174.936L259.442 176.609L259.567 176.943L260.17 179.364L260.209 181.861L259.681 184.301L258.615 186.559L257.411 188.155L255.938 189.504L254.244 190.561L252.386 191.294L250.675 191.794L248.922 192.198L247.134 192.398L245.335 192.391L243.549 192.176L237.579 191.107L234.989 190.644L231.541 190.159L228.066 189.943L224.585 189.991L221.118 190.306L219.274 190.544L218.851 190.591L218.426 190.627L218 190.651L217.574 190.661L214.51 190.69L212.147 190.401L209.94 189.504L208.043 188.065L206.587 186.179L205.835 184.521L205.43 182.745L205.387 180.923L205.71 179.13L206.802 175.311L207.075 174.437L207.391 173.579L207.75 172.736L208.15 171.916L210.036 168.267L210.872 166.576L211.645 164.854L212.355 163.108L213 161.335L213.506 159.861L214.151 157.791L214.676 155.686L215.081 153.555L215.363 151.404L215.492 150.135L215.626 148.13L215.62 146.121L215.475 144.116L215.189 142.126L214.883 140.419L214.458 138.563L213.857 136.755L213.085 135.014L212.151 133.355L211.264 131.942L210.114 130.367L208.757 128.966L207.219 127.768L205.529 126.793L205.001 126.535L202.871 125.729L200.63 125.322L198.352 125.329L196.114 125.751L194.056 126.537L192.169 127.675L190.51 129.127L189.132 130.846L187.362 133.509L186.86 134.295L186.395 135.106L185.969 135.935L185.577 136.782L184.209 139.922L183.254 141.797L182.083 143.549L180.71 145.144L179.159 146.567L177.102 148.006L174.862 149.141L172.485 149.945L170.016 150.401L166.927 150.749L166.216 150.82L165.505 150.873L164.791 150.907L164.078 150.924L160 150.968L157.959 151.087L155.939 151.392L153.954 151.884L152.024 152.556L149.63 153.691L147.388 155.104L145.333 156.777L143.495 158.682L142.703 159.605L141.749 160.789L140.863 162.022L140.047 163.305L139.304 164.63L137.651 167.789L136.904 169.149L136.105 170.476L135.253 171.769L134.35 173.031L133.963 173.55L132.119 175.815L130.091 177.92L127.898 179.851L125.55 181.59L123.963 182.606L122.322 183.537L120.635 184.377L118.904 185.127L116.009 186.287L114.708 186.83L113.42 187.409L112.152 188.023L110.898 188.671L110.026 189.139L107.502 190.6L105.081 192.225L102.773 194.008L100.589 195.939L100.044 196.453L98.9434 197.542L97.8892 198.677L96.8885 199.856L95.9389 201.081L94.6217 202.857L93.4214 204.638L92.3915 206.52L91.5393 208.488L90.8673 210.527L90.3098 213.073L90.0371 215.664L90.0541 218.27L90.3585 220.86L90.5898 222.175L90.8941 223.68L91.2764 225.166L91.7365 226.63L92.2698 228.067L93.9059 232.13L94.3393 233.182L94.7873 234.227L95.2548 235.262L95.7368 236.293L96.5987 238.093L97.821 240.531L99.1309 242.923L100.526 245.268L102.004 247.56L103.55 249.862L103.957 250.488L104.346 251.126L104.716 251.772L105.069 252.429L106.148 254.514L107.265 257.138L107.976 259.902L108.264 262.742L108.12 265.592L107.796 267.426L107.292 269.219L106.615 270.953L105.773 272.615L105.415 273.238L104.017 275.374L102.379 277.328L100.519 279.074L98.4638 280.587L96.5598 281.685L94.556 282.584L92.4694 283.273L90.3244 283.746L88.6712 284.021L86.9279 284.257L85.1724 284.389L83.4121 284.418L81.6542 284.34L77.2935 284.019L76.3976 283.946L75.5016 283.863L74.608 283.765L73.7145 283.656L68.7792 283.02L67.3135 282.84L65.8453 282.674L64.3747 282.523L62.9041 282.389L60.2697 282.16L58.2124 282.007L56.1501 281.905L54.0854 281.851L52.0208 281.849L50.2726 281.866L48.354 281.917L46.4379 282.029L44.5266 282.207L42.6226 282.443L41.0352 282.667L38.9339 283.018L36.8547 283.473L34.7973 284.031L32.7716 284.691L32.0265 284.954L29.8791 285.79L27.7852 286.759L25.7595 287.858L23.7752 289.105L21.7397 290.573L19.843 292.152L18.0559 293.859L16.3905 295.686L14.9321 297.513L13.5979 299.432L12.3878 301.434L11.3116 303.51L10.8661 304.44L10.0577 306.235L9.32973 308.065L8.6821 309.923L8.1221 311.811L7.39167 314.475L7.00942 315.927L6.65636 317.384L6.335 318.85L6.04037 320.319L5.09571 325.307L4.94476 326.121L4.79624 326.934L4.65013 327.75L4.50892 328.566L3.18198 336.261L3.1479 336.461L3.10164 336.729L1.86722 343.843L1.67244 344.983L1.48982 346.123L1.31695 347.268L1.15383 348.413L0.647407 352.081L0.418519 353.923L0.240802 355.771L0.114197 357.625L0.0387037 359.481L0.009476 360.631L-0.000247229 363.049L0.0995683 365.466L0.304104 367.872L0.618179 370.269L1.03938 372.651L1.56531 375.009L2.19833 377.342L2.93364 379.647L3.32077 380.769L3.9392 382.494L4.6063 384.201L5.31969 385.889L6.07933 387.558L7.85914 391.338L8.26575 392.186L8.67967 393.029L9.10331 393.866L9.5367 394.702L12.0981 399.566L12.6702 400.592L13.2887 401.593L13.9533 402.562L14.6594 403.5L16.4733 405.787L17.9074 407.361L19.5508 408.72L21.3647 409.835L23.3174 410.688L25.5379 411.294L27.8266 411.557L30.1274 411.475L32.3893 411.046L34.9409 410.359L35.871 410.086L36.7889 409.779L37.6922 409.433L38.5809 409.051L44.473 406.374L45.0598 406.099L45.6369 405.807L46.2041 405.497L46.7641 405.171L50.9203 402.677L52.2691 401.693L53.4256 400.489L54.3508 399.101L55.0204 397.571L55.4806 395.333L55.3905 393.05L54.7574 390.856L53.6155 388.878L53.0702 388.15L52.2886 387.219L51.4145 386.379L50.4528 385.638L49.4156 385.008L46.6521 383.522L45.0111 382.491L43.5259 381.244L42.2209 379.81L41.1228 378.212L40.088 376.071L39.4258 373.789L39.1482 371.426L39.2675 369.051L39.4428 367.755L39.7252 366.184L40.144 364.645L40.6992 363.149L41.3833 361.707L43.7596 357.223L44.0956 356.604L44.4389 355.99L44.7895 355.382L45.1523 354.78L46.3916 352.751L47.9085 350.198L49.3644 347.609L50.7571 344.988L52.089 342.333L53.6813 339.057L53.7811 338.855L56.2037 333.81L57.1289 332.04L58.1685 330.332L59.3178 328.7L60.5741 327.146L62.4464 325.171L64.4867 323.373L66.6829 321.766L69.0129 320.363L70.5931 319.508L71.6327 318.965L72.6919 318.451L73.7632 317.968L74.8491 317.518L77.6904 316.385L79.6674 315.545L81.6006 314.612L83.49 313.589L85.3258 312.478L87.5122 310.995L89.6061 309.387L91.6051 307.66L93.4993 305.821L94.6193 304.669L95.5859 303.651L96.5281 302.611L97.4436 301.549L98.3347 300.465L101.069 297.062L101.885 296.083L102.739 295.14L103.63 294.232L104.558 293.357L107.141 291.253L109.927 289.426L112.887 287.897L115.989 286.681L117.187 286.284L117.991 286.001L118.782 285.69L119.563 285.349L120.333 284.981L123.169 283.561L125.029 282.44L126.695 281.047L128.122 279.413L129.28 277.576L130.191 275.425L130.734 273.153L130.89 270.822L130.654 268.498L130.556 267.974L130.052 265.999L129.295 264.109L128.294 262.331L127.07 260.701L125.317 258.665L124.37 257.623L123.366 256.636L122.31 255.706L121.204 254.834L120.289 254.152L118.085 252.373L116.031 250.427L114.136 248.323L112.412 246.077L110.952 244.007L110.528 243.395L110.112 242.779L109.705 242.155L109.306 241.527L106.292 236.687L105.646 235.598L105.05 234.483L104.504 233.343L104.008 232.179L103.803 231.672L102.785 228.6L102.145 225.427L101.897 222.199L102.043 218.965L102.25 217.425L102.549 215.903L102.936 214.398L103.409 212.919L104.371 210.191L105.067 208.493L105.929 206.871L106.946 205.344L108.11 203.926L109.958 201.888L111.105 200.809L112.408 199.924L113.83 199.252L115.341 198.814L118.173 198.641L120.941 199.269L123.42 200.648L125.426 202.689L126.11 203.741L126.649 204.847L127.048 206.011L127.303 207.215L128.019 212.008L128.209 213.126L128.445 214.234L128.725 215.333L129.049 216.419L130.157 219.866L130.836 221.586L131.735 223.203L132.833 224.691L134.116 226.023L136.268 227.641L138.686 228.822L141.284 229.529L143.967 229.731L144.227 229.726L145.82 229.609L147.39 229.321L148.922 228.868L150.395 228.252L152.725 227.129L154.4 226.248L156.007 225.251L157.541 224.141L158.989 222.925L162.792 219.505L163.07 219.257L163.35 219.011L163.63 218.767L163.91 218.524L166.929 215.935L168.855 214.351L170.847 212.844L172.897 211.421L175 210.084L175.502 209.779L177.279 208.747L179.093 207.782L180.944 206.891L182.828 206.067L185.428 205.069L188.08 204.209L190.772 203.485L193.497 202.903L193.824 202.842L195.674 202.531L197.533 202.277L199.4 202.087L201.272 201.961L205.197 201.756L206.212 201.7L207.227 201.632L208.241 201.559L209.255 201.473L216.785 200.818L216.951 200.804L222.973 200.321L224.762 200.292L226.54 200.485L228.28 200.899L230.028 201.559L232.369 202.879L234.356 204.567L235.992 206.596L237.22 208.895L237.805 210.595L238.166 212.356L238.296 214.149L238.193 215.944L237.878 218.514L237.623 220.131L237.256 221.729L236.779 223.298L236.195 224.828L234.853 228.009L234.37 229.368L234.05 230.773L233.895 232.208L233.908 233.65L233.968 234.546L234.423 236.982L235.431 239.245L236.936 241.21L238.858 242.774L240.423 243.595L242.103 244.141L243.851 244.401L245.617 244.367L248.515 244.07L249.917 243.87L251.299 243.571L252.655 243.166L253.978 242.662L259.182 240.455L259.727 240.219L260.269 239.975L260.809 239.725L261.344 239.469L266.722 236.838L267.882 236.339L269.084 235.952L270.317 235.679L271.571 235.523L274.3 235.318L276.248 235.408L278.117 235.959L279.801 236.943L281.201 238.3L282.282 240.051L282.887 242.019L282.976 244.075L282.545 246.087L282.343 246.659L281.589 248.277L280.536 249.721L279.224 250.931L277.702 251.864L275.232 253.068L274.053 253.582L272.836 254.001L271.589 254.32L270.32 254.536L263.772 255.382L263.518 255.416L263.263 255.45L263.01 255.486L262.756 255.523L256.055 256.512L254.855 256.709L253.662 256.948L252.478 257.225L251.304 257.542L248.008 258.49L246.163 258.926L244.285 259.174L242.391 259.24L240.439 259.111L237.84 258.633L235.389 257.82L233.073 256.68L230.935 255.233L229.39 253.881L228.001 252.371L226.785 250.717L225.756 248.941L225.632 248.698L224.641 246.403L223.942 244.004L223.547 241.537L223.462 239.038L223.475 238.604L223.612 236.704L223.915 234.826L224.38 232.982L225.005 231.185L226.287 227.957L226.673 226.859L226.966 225.731L227.165 224.581L227.269 223.42L227.35 221.702L227.197 219.342L226.522 217.077L225.358 215.019L223.765 213.272L222.472 212.305L221.046 211.548L219.522 211.019L217.934 210.727L215.477 210.469L213.592 210.369L211.707 210.464L209.841 210.751L208.016 211.231L207.37 211.436L205.139 212.283L203.015 213.375L201.025 214.692L199.192 216.222L196.797 218.458L196.266 218.967L195.745 219.486L195.236 220.014L194.738 220.558L192.858 222.65L190.963 224.518L188.859 226.145L186.573 227.509L184.14 228.588L182.504 229.129L180.832 229.541L179.13 229.818L177.413 229.964L175.709 230.045L173.484 230.223L171.273 230.552L169.091 231.029L166.946 231.652L165.181 232.232L163.652 232.763L162.142 233.348L160.652 233.983L159.187 234.67L155.53 236.463L154.458 237.009L153.404 237.591L152.367 238.205L151.352 238.853L148.973 240.419L147.247 241.676L145.644 243.088L144.184 244.645L142.854 246.355L141.496 248.525L140.405 250.805L139.575 253.194L139.015 255.659L138.761 257.764L138.705 259.88L138.847 261.995L139.188 264.085L140.183 268.808L140.242 269.088L140.305 269.368L140.368 269.648L140.437 269.925L141.647 274.938L141.992 276.838L142.121 278.767L142.029 280.699L141.72 282.606L141.026 284.942L140.003 287.154L138.676 289.197L137.072 291.031L134.559 293.516L134.135 293.927L133.704 294.329L133.264 294.721L132.816 295.104L129.675 297.742L127.944 299.111L126.135 300.372L124.255 301.525L122.312 302.565L120.786 303.322L119.271 304.014L117.711 304.601L116.118 305.081L114.494 305.451L111.229 306.084L109.841 306.442L108.507 306.971L107.248 307.663L106.085 308.503L104.862 309.509L103.462 310.97L102.449 312.719L101.877 314.661L101.78 316.68L102.165 318.67L103.009 320.514L104.266 322.104L105.863 323.351L107.945 324.608L109.06 325.363L110.095 326.228L111.032 327.193L111.87 328.247L114.799 332.361L115.349 333.155L115.88 333.964L116.388 334.785L116.875 335.62L120.476 341.97L120.601 342.185L120.722 342.401L120.847 342.616L120.968 342.83L125.312 350.391L125.436 350.605L125.565 350.817L125.694 351.026L125.826 351.233L127.457 353.764L129.11 355.825L131.155 357.496L133.505 358.706L136.052 359.401L137.87 359.566L139.694 359.466L141.483 359.106L143.205 358.49L147.38 356.646L148.016 356.356L148.642 356.051L149.263 355.73L149.874 355.394L154.393 352.834L155.754 352.052L157.105 351.255L158.449 350.439L159.781 349.611L164.592 346.574L164.974 346.333L165.356 346.094L165.739 345.853L166.123 345.614L171.847 342.041L172.731 341.495L173.617 340.959L174.511 340.431L175.409 339.91L176.498 339.288L179.239 337.654L181.925 335.925L184.547 334.1L187.104 332.188L188.874 330.815L189.275 330.498L189.672 330.174L190.063 329.843L190.447 329.504L192.957 327.253L194.893 325.751L197.023 324.54L199.303 323.644L201.687 323.079L203.815 322.869L205.953 322.923L208.069 323.242L210.128 323.821L212.412 324.62L213.791 325.061L215.193 325.427L216.612 325.714L218.045 325.926L219.699 326.126L222.228 326.352L224.766 326.428L227.304 326.347L229.833 326.116L233.003 325.726L233.693 325.636L234.381 325.534L235.067 325.419L235.751 325.295L240.339 324.411L242.082 324.165L243.841 324.094L245.599 324.199L247.337 324.477L247.85 324.586L250.276 325.302L252.559 326.394L254.644 327.828L256.477 329.572L257.752 331.19L258.81 332.958L259.633 334.848L260.207 336.828L260.488 338.097L260.827 340.061L260.979 342.048L260.942 344.041L260.716 346.021L260.319 348.469L260.029 350.028L259.666 351.572L259.232 353.097L258.726 354.6L256.548 360.614L256.49 360.774L255.63 363.183L254.597 366.498L253.837 369.886L253.355 373.326L253.155 376.792L253.154 378.122L253.193 379.449L253.274 380.777L253.397 382.102L253.858 386.359L253.99 387.728L254.091 389.1L254.159 390.473L254.195 391.85L254.237 394.665L254.328 396.728L254.54 398.779L254.871 400.818L255.321 402.832L256.074 405.385L257.017 407.874L258.145 410.283L259.451 412.602L259.807 413.182L260.73 414.765L261.578 416.392L262.348 418.056L263.04 419.754L263.979 422.53L264.707 425.37L265.22 428.257L265.516 431.173L265.679 433.748L265.716 434.368L265.745 434.99L265.767 435.611L265.782 436.232L265.916 443.121L265.933 443.922L265.956 444.723L265.984 445.523L266.017 446.324L266.275 452.191L266.342 453.317L266.444 454.44L266.582 455.56L266.754 456.674L267.357 460.21L267.763 462.031L268.349 463.801L269.111 465.504L270.04 467.122L271.667 469.284L273.59 471.187L275.771 472.79L278.193 474.071L280.036 474.772L281.907 475.268L283.82 475.569L285.753 475.671L286.983 475.673L289.195 475.571L291.387 475.261L293.541 474.745L295.636 474.03L297.878 473.004L300 471.749L301.98 470.279L303.793 468.608L306.59 465.748L306.844 465.491L307.1 465.237L307.359 464.985L307.62 464.736L311.401 461.165L312.775 460.014L314.278 459.036L315.886 458.244L317.578 457.651L318.908 457.272L320.935 456.889L322.997 456.88L325.027 457.245L326.957 457.972L328.029 458.491L329.554 459.437L330.851 460.677L331.864 462.158L332.55 463.817L332.904 466.106L332.639 468.407L331.773 470.554L330.367 472.395L329.115 473.645L328.169 474.491L327.137 475.229L326.031 475.85L324.863 476.346L321.528 477.552L319.882 478.209L318.281 478.97L316.732 479.832L315.242 480.791L314.734 481.143L312.583 482.764L310.575 484.559L308.723 486.514L307.04 488.617L304.671 491.842L304.541 492.019L304.37 492.256L301.967 495.6L300.357 497.746L298.659 499.824L296.877 501.829L295.013 503.759L293.453 505.258L291.845 506.703L290.189 508.094L288.489 509.429L286.21 511.157L285.209 511.937L284.231 512.744L283.275 513.577L282.341 514.436L281.411 515.315L279.382 517.386L277.516 519.605L275.823 521.959L274.313 524.434L273.417 526.137L272.607 527.882L271.887 529.666L271.257 531.483L270.692 533.256L270.119 535.169L269.614 537.101L269.178 539.049L268.81 541.012L268.024 545.66L267.942 546.162L267.864 546.665L267.792 547.168L267.725 547.672L267.051 552.936L266.77 554.578L266.35 556.19L265.796 557.76L265.11 559.278L264.481 560.526L263.263 562.539L261.75 564.341L259.978 565.888L257.989 567.144L255.831 568.079L253.554 568.671L251.213 568.905L248.865 568.777L248.613 568.743L246.42 568.29L244.314 567.529L242.338 566.476L240.532 565.151L238.81 563.441L237.373 561.485L236.255 559.331L235.465 556.961L235.067 554.809L234.963 552.695L235.136 550.586L235.584 548.517L235.88 547.485L236.535 545.567L237.381 543.724L238.408 541.976L239.605 540.34L242.146 537.212L242.608 536.654L243.08 536.105L243.561 535.564L244.053 535.032L248.29 530.528L249.013 529.767L249.741 529.01L250.475 528.259L251.215 527.515L253.949 524.859L256.757 522.281L259.635 519.783L262.582 517.367L264.103 516.155L264.285 516.011L266.697 514.081L269.262 512.047L271.846 510.037L274.448 508.051L277.068 506.088L279.344 504.4L279.552 504.247L279.832 504.044L285.631 499.899L286.526 499.176L287.329 498.352L288.028 497.439L288.615 496.45L290.303 493.177L290.736 491.885L290.759 490.522L290.37 489.216L289.606 488.087L288.24 487.087L286.599 486.667L284.92 486.888L283.444 487.719L280.603 490.127L280.383 490.32L280.171 490.521L279.965 490.729L279.767 490.944L278.397 492.481L275.933 494.762L273.078 496.529L269.937 497.717L266.627 498.281L265.416 498.326L264.204 498.288L262.997 498.165L261.803 497.959L255.95 496.74L255.307 496.609L254.663 496.486L254.017 496.37L253.371 496.26L251.087 495.888L248.077 495.486L245.05 495.263L242.015 495.217L238.982 495.35L237.839 495.434L236.603 495.546L235.372 495.702L234.147 495.9L232.93 496.142L230.226 496.728L228.047 497.086L225.844 497.223L223.637 497.137L221.451 496.828L218.955 496.193L216.551 495.267L214.273 494.066L212.152 492.605L211.476 492.079L210.104 490.93L208.815 489.687L207.618 488.357L206.517 486.946L205.107 485.002L204.053 483.479L203.066 481.912L202.148 480.303L201.302 478.656L200.928 477.888L199.861 475.549L198.91 473.16L198.078 470.727L197.355 468.212L196.825 465.998L196.398 463.808L196.063 461.602L195.821 459.384L195.682 457.792L195.545 455.972L195.455 454.149L195.41 452.324L195.413 450.499L195.473 446.067L195.493 445.245L195.528 444.422L195.579 443.601L195.645 442.781L195.948 439.455L196.051 437.112L195.935 434.77L195.601 432.449L195.053 430.169L194.264 427.874L193.257 425.665L192.041 423.566L190.629 421.59L189.01 419.547L188.333 418.721L187.625 417.922L186.884 417.15L186.12 416.407L184.345 414.748L182.397 413.15L180.259 411.818L177.966 410.775L175.558 410.037L173.413 409.655L171.239 409.516L169.062 409.621L166.912 409.969L165.904 410.191L163.903 410.722L161.955 411.426L160.075 412.295L158.278 413.323L156.304 414.57L154.984 415.442L153.704 416.368L152.462 417.35L151.264 418.382L149.367 420.087L147.846 421.366L146.239 422.54L144.556 423.602L142.808 424.547L140.234 425.674L137.566 426.55L134.827 427.167L132.042 427.519L128.599 427.788L128.343 427.807L128.087 427.824L127.829 427.84L127.574 427.854L121.869 428.146L120.16 428.335L118.485 428.721L116.863 429.301L115.31 430.073L112.955 431.741L110.983 433.826L109.457 436.255L108.434 438.936L108.091 440.528L107.928 442.148L107.947 443.776L108.144 445.392L108.675 448.349L109.016 449.968L109.452 451.564L109.983 453.131L110.603 454.665L112.897 459.874L113.033 460.19L113.167 460.508L113.294 460.827L113.418 461.149L115.042 465.437L115.631 467.496L115.87 469.624L115.753 471.762L115.266 473.904L114.38 476.045L113.148 477.944L111.597 479.591L109.776 480.933L107.847 481.886L105.788 482.496L103.655 482.745L101.507 482.628L100.716 482.516L98.846 482.127L97.0419 481.5L95.3302 480.645L93.7452 479.578L91.8777 478.136L90.6433 477.115L89.4795 476.013L88.3936 474.834L87.3905 473.585L85.3623 470.881L84.4518 469.629L83.585 468.348L82.7572 467.041L81.9731 465.707L80.9286 463.867L79.8452 461.894L78.8153 459.892L77.8414 457.863L76.9235 455.807L76.6995 455.29L75.8108 453.144L74.9781 450.976L74.2014 448.786L73.4832 446.576L73.1155 445.386L72.575 443.553L72.0856 441.705L71.6522 439.844L71.27 437.971L71.0606 436.859L70.6734 434.518L70.3886 432.162L70.2084 429.796L70.1329 427.424L70.1646 424.971L70.3082 422.521L70.5614 420.08L70.9267 417.652L71.6912 413.27L71.735 413.021L71.7959 412.69L73.3273 404.628L73.4759 404.024L73.6901 403.437L73.9628 402.876L74.2939 402.348L75.4675 400.682L76.9332 399.379L78.825 398.86L80.7509 399.235L82.3092 400.426L82.5575 400.762L82.7742 401.118L82.9519 401.495L83.0956 401.887L84.4079 406.123L85.1822 408.15L86.2121 410.062L87.4781 411.823L88.9609 413.409L90.7553 414.875L92.7348 416.081L94.8603 417.001L97.093 417.622L99.1699 418.049L100.453 418.275L101.748 418.433L103.051 418.524L104.356 418.541L111.285 418.453L111.575 418.451L119.037 418.397L120.114 418.377L121.187 418.334L122.259 418.27L123.33 418.183L124.674 418.058L127.732 417.661L130.751 417.038L133.717 416.193L136.612 415.131L138.17 414.458L139.696 413.72L141.194 412.921L142.657 412.062L146.2 409.882L147.118 409.309L148.028 408.727L148.934 408.133L149.832 407.529L154.47 404.367L155.284 403.826L156.112 403.31L156.951 402.813L157.804 402.338L160.655 400.799L162.666 399.839L164.762 399.089L166.927 398.553L169.133 398.236L171.577 398.148L174.019 398.334L176.425 398.787L178.765 399.503L179.237 399.676L181.095 400.448L182.879 401.371L184.584 402.438L186.195 403.641L188.752 405.724L189.631 406.459L190.491 407.217L191.331 407.996L192.151 408.8L195.659 412.322L196.513 413.209L197.339 414.122L198.134 415.062L198.899 416.029L200.019 417.491L201.537 419.681L202.841 422.002L203.922 424.435L204.769 426.961L205.254 428.937L205.595 430.943L205.791 432.969L205.841 435.003L205.784 440.079L205.782 440.338L205.78 440.598L205.781 440.857L205.782 441.117L205.814 445.645L205.925 447.956L206.223 450.25L206.706 452.513L207.371 454.729L208.25 456.963L209.313 459.116L210.554 461.172L211.965 463.115L212.84 464.221L213.917 465.518L215.051 466.764L216.242 467.957L217.486 469.093L219.834 471.142L221.059 472.186L222.307 473.202L223.577 474.189L224.871 475.147L227.045 476.72L228.607 477.818L230.198 478.874L231.817 479.886L233.463 480.854L236.403 482.53L237.501 483.126L238.624 483.677L239.768 484.18L240.932 484.635L244.706 486.021L246.191 486.469L247.719 486.741L249.268 486.832L250.817 486.741L252.347 486.561L254.416 486.088L256.336 485.185L258.019 483.892L259.387 482.269L260.299 480.585L260.87 478.756L261.077 476.851L260.913 474.943L260.175 470.949L260.058 470.363L259.923 469.78L259.77 469.202L259.6 468.629L258.986 466.666L258.122 463.588L257.442 460.464L256.949 457.305L256.644 454.122L256.459 451.323L256.435 450.993L256.4 450.553L255.935 445.271L255.647 443.292L255.138 441.359L254.414 439.495L253.485 437.725L252.015 435.632L250.258 433.773L248.251 432.187L246.037 430.907L244.401 430.114L243.374 429.645L242.326 429.226L241.259 428.857L240.176 428.539L234.681 427.067L233.824 426.832L232.97 426.589L232.119 426.336L231.27 426.074L227.139 424.776L225.424 424.204L223.731 423.566L222.063 422.867L220.423 422.107L217.754 420.704L215.178 419.14L212.703 417.42L210.339 415.55L209.98 415.248L208.803 414.227L207.657 413.17L206.543 412.081L205.462 410.958L203.41 408.764L202.189 407.436L200.992 406.087L199.819 404.718L198.669 403.327L195.549 399.483L195.185 399.03L194.826 398.572L194.472 398.11L194.123 397.644L191.138 393.606L190.036 392.237L188.825 390.965L187.51 389.799L186.105 388.746L185.779 388.522L183.498 387.173L181.056 386.145L178.497 385.453L175.87 385.112L173.936 385.088L172.01 385.254L170.111 385.609L168.254 386.148L165.188 387.202L164.022 387.628L162.87 388.094L161.733 388.598L160.618 389.141L158.108 390.415L156.153 391.448L154.225 392.534L152.33 393.674L150.47 394.87L147.249 397.009L146.667 397.396L146.09 397.788L145.513 398.185L144.941 398.585L141.235 401.196L139.667 402.25L138.058 403.242L136.409 404.165L134.725 405.017L132.767 405.958L131.077 406.705L129.344 407.343L127.571 407.867L125.77 408.276L123.352 408.746L121.669 408.985L119.97 409.053L118.273 408.951L116.595 408.676L114.404 408.203L112.7 407.68L111.107 406.876L109.676 405.814L108.444 404.523L107.738 403.646L106.754 402.094L106.143 400.363L105.934 398.536L106.138 396.711L106.834 394.797L107.981 393.116L109.508 391.769L111.322 390.844L111.855 390.651L113.494 390.225L115.181 390.106L116.863 390.298L118.482 390.795L121.879 392.196L123.045 392.629L124.238 392.987L125.451 393.262L126.736 393.465L129.906 393.613L132.998 393.258L135.996 392.417L138.822 391.114L140.955 389.916L141.301 389.718L141.642 389.516L141.983 389.309L142.319 389.097L146.438 386.452L148.126 385.41L149.849 384.428L151.605 383.51L153.392 382.65L155.099 381.87L156.83 381.023L158.515 380.09L160.148 379.072L161.731 377.971L163.951 376.21L166.033 374.288L167.966 372.215L169.739 370.006L171.58 367.526L171.86 367.154L172.144 366.781L172.432 366.413L172.721 366.048L176.734 361.062L177.503 360.187L178.351 359.386L179.266 358.662L180.242 358.027L183.176 356.292L184.601 355.671L186.132 355.406L187.683 355.515L189.161 355.993L190.779 357.065L192.007 358.568L192.732 360.368L192.889 362.304L192.565 366.922L192.537 367.253L192.488 367.692L192.42 368.189L192.193 372.149L192.601 376.095L193.633 379.927L195.301 383.614L195.66 384.248L195.994 384.803L196.342 385.349L196.705 385.887L200.653 391.587L201.079 392.193L201.511 392.795L201.949 393.391L202.395 393.981L203.244 395.094L205.345 397.683L207.603 400.136L210.008 402.445L212.551 404.601L213.746 405.526L214.967 406.418L216.212 407.273L217.48 408.094L218.155 408.518L220.663 410.018L223.234 411.409L225.861 412.69L228.541 413.857L230.968 414.85L231.547 415.087L232.127 415.318L232.709 415.545L233.292 415.769L240.867 418.653L241.125 418.74L241.505 418.845L244.173 418.716L246.339 417.255L247.447 414.889Z" fill="#190B2F"/>
</svg>
