<svg width="516" height="600" viewBox="0 0 516 600" fill="none" xmlns="http://www.w3.org/2000/svg">
<path d="M181.655 477.173L183.073 478.821L183.855 479.231L184.705 479.465L185.584 479.513L186.546 479.346L188.816 479.285L190.738 480.311L191.922 482.14L192.07 484.314L192.012 485.508L192.282 486.673L192.862 487.72L193.702 488.57L198.001 491.854L198.64 492.374L199.241 492.932L199.809 493.527L200.34 494.156L203.389 498.024L204.191 499.281L204.722 500.673L204.963 502.143L204.904 503.632L205.012 506.282L206.047 508.724L207.881 510.643L210.273 511.791L212.94 512.521L213.108 512.569L221.76 515.185L222.079 515.278L222.4 515.363L222.724 515.44L223.048 515.509L228.059 516.519L229.708 517.107L231.125 518.14L232.19 519.531L232.816 521.167L232.928 523.2L232.365 525.156L231.193 526.82L229.537 528.006L227.798 528.857L227.023 529.19L226.22 529.445L225.396 529.62L224.558 529.713L218.523 530.084L217.558 530.155L216.594 530.25L215.634 530.37L214.674 530.513L211.593 531.013L209.323 531.439L207.08 531.977L204.863 532.626L202.681 533.384L200.518 534.196L199.246 534.713L198.004 535.298L196.793 535.951L195.622 536.667L191.849 539.117L190.814 539.694L189.713 540.128L188.565 540.412L187.386 540.541L184.96 540.645L183.207 540.44L181.602 539.697L180.311 538.491L179.46 536.942L179.146 535.43L179.258 533.889L179.789 532.439L180.695 531.189L183.328 528.455L183.799 527.994L184.293 527.56L184.812 527.154L185.355 526.778L188.49 524.725L190.261 523.375L191.817 521.782L193.125 519.982L194.16 518.011L194.886 515.957L195.312 513.821L195.434 511.647L195.244 509.477L195.161 508.959L194.679 506.82L193.929 504.76L192.92 502.813L191.671 501.01L190.645 499.715L189.601 498.485L188.473 497.33L187.267 496.254L185.991 495.265L183.694 493.607L182.242 492.511L180.834 491.356L179.478 490.144L178.172 488.876L174.874 485.541L174.421 485.102L173.951 484.681L173.461 484.281L172.957 483.902L169.286 481.263L167.825 480.466L166.21 480.054L164.546 480.051L162.931 480.458L161.351 481.333L160.06 482.599L159.156 484.162L158.701 485.91L158.43 488.145L158.357 489.191L158.389 490.238L158.525 491.277L158.766 492.297L159.726 495.62L160.128 497.512L160.255 499.442L160.108 501.37L159.687 503.258L158.825 505.433L157.604 507.426L156.055 509.181L154.231 510.643L152.504 511.796L151.427 512.464L150.309 513.061L149.157 513.583L147.971 514.028L143.808 515.439L142.493 515.907L141.19 516.414L139.906 516.961L138.637 517.546L137.115 518.276L134.845 519.469L132.667 520.825L130.594 522.337L128.641 523.998L127.053 525.543L125.569 527.185L124.191 528.918L122.927 530.735L121.857 532.376L120.983 533.772L120.152 535.195L119.37 536.644L118.637 538.118L117.904 539.653L116.925 541.8L116.024 543.982L115.203 546.194L114.462 548.435L113.775 550.809L113.179 553.207L112.672 555.625L112.258 558.061L111.973 559.953L111.778 561.373L111.62 562.799L111.498 564.227L111.413 565.659L111.274 568.64L111.242 570.551L111.328 572.46L111.527 574.361L111.841 576.246L112.058 577.332L112.609 579.564L113.357 581.737L114.299 583.834L115.427 585.837L116.806 587.832L118.372 589.686L120.106 591.383L121.994 592.907L122.235 593.084L124.045 594.298L125.947 595.362L127.927 596.269L129.976 597.014L130.962 597.329L132.991 597.905L135.049 598.352L137.134 598.668L139.234 598.852L140.423 598.918L142.544 598.974L144.666 598.904L146.78 598.71L148.88 598.391L149.303 598.313L151.71 597.781L154.07 597.072L156.372 596.189L158.601 595.137L160.62 593.997L162.556 592.72L164.398 591.309L166.134 589.773L169.44 586.639L169.625 586.465L169.812 586.292L169.998 586.12L170.188 585.949L172.901 583.509L174.976 581.852L177.229 580.446L179.631 579.312L182.15 578.465L184.157 578.013L186.195 577.744L188.251 577.659L190.307 577.76L192.83 577.998L194.338 578.109L195.851 578.156L197.366 578.141L198.876 578.062L199.319 578.03L202.347 577.671L205.328 577.041L208.244 576.145L211.064 574.99L212.645 574.209L214.18 573.346L215.67 572.405L217.108 571.387L221.022 568.461L221.55 568.07L222.084 567.684L222.62 567.305L223.16 566.931L226.341 564.755L228.244 563.546L230.222 562.466L232.265 561.52L234.37 560.711L235.434 560.343L237.351 559.759L239.307 559.322L241.29 559.035L243.404 558.895L246.176 558.95L248.814 559.286L251.401 559.896L253.909 560.774L255.843 561.663L257.699 562.712L259.458 563.913L261.109 565.256L262.639 566.61L263.876 567.758L265.063 568.96L266.193 570.216L267.265 571.52L270.387 575.501L270.789 576.007L271.196 576.51L271.605 577.009L272.019 577.505L275.341 581.444L276.432 582.664L277.591 583.821L278.815 584.908L280.1 585.924L281.868 587.241L283.608 588.393L285.465 589.344L287.416 590.083L289.438 590.601L290.563 590.823L292.659 591.085L294.771 591.046L296.856 590.708L298.895 590.068L301.179 588.938L303.214 587.448L304.963 585.632L306.377 583.543L307.251 581.682L307.856 579.717L308.181 577.687L308.22 575.632L307.984 571.055L307.964 570.694L307.939 570.334L307.91 569.974L307.876 569.615L307.417 564.968L307.313 562.828L307.424 560.69L307.75 558.573L308.285 556.499L309.195 554.105L310.384 551.837L311.837 549.727L313.532 547.807L313.99 547.347L315.325 546.104L316.751 544.966L318.26 543.939L319.841 543.03L325.157 540.238L330.311 537.526L332.01 536.572L333.655 535.528L335.24 534.397L336.763 533.181L337.969 532.163L339.5 530.762L340.915 529.245L342.206 527.62L343.363 525.898L343.887 525.047L344.938 523.125L345.786 521.105L346.422 519.009L346.843 516.84L347.049 514.346L346.961 511.865L346.582 509.412L345.918 507.02L345.108 504.997L344.094 503.067L342.887 501.253L341.499 499.572L340.294 498.257L339.127 497.054L337.894 495.918L336.599 494.854L335.246 493.864L331.579 491.339L330.794 490.807L330.003 490.285L329.204 489.775L328.399 489.275L323.094 486.036L322.399 485.611L321.706 485.184L321.014 484.754L320.323 484.323L315.318 481.191L314.385 480.602L313.457 480.005L312.534 479.401L311.616 478.789L308.9 476.964L307.151 475.753L305.436 474.494L303.757 473.187L302.114 471.834L301.055 470.937L299.531 469.599L298.055 468.207L296.63 466.763L295.256 465.27L292.96 462.683L292.214 461.883L291.43 461.121L290.609 460.399L289.753 459.718L287.846 458.275L285.836 456.994L283.649 456.048L281.339 455.462L278.966 455.251L276.946 455.37L274.961 455.76L273.047 456.415L271.24 457.323L269.527 458.333L268.105 459.248L266.756 460.27L265.486 461.392L264.31 462.608L261.419 465.83L260.751 466.508L260.023 467.12L259.241 467.662L258.411 468.128L255.51 469.072L252.455 469.111L249.53 468.242L246.994 466.544L246.587 466.172L246.21 465.81L245.849 465.43L245.508 465.033L245.187 464.621L243.825 462.789L241.828 460.341L239.614 458.083L237.205 456.036L234.591 454.196L233.227 453.365L231.858 452.615L230.458 451.926L229.031 451.299L226.819 450.388L224.861 449.62L222.88 448.918L220.873 448.284L218.849 447.718L215.79 446.918L214.647 446.637L213.5 446.387L212.343 446.168L211.184 445.982L208.763 445.626L206.332 445.375L203.891 445.332L201.453 445.497L199.039 445.869L196.767 446.417L194.545 447.149L192.392 448.059L190.319 449.142L186.154 451.541L185.993 451.633L180.561 454.704L179.039 455.439L177.434 455.972L175.775 456.294L174.09 456.401L171.269 456.089L168.582 455.178L166.154 453.71L164.098 451.754L162.466 449.821L162.223 449.528L161.989 449.231L161.757 448.929L161.533 448.622L157.692 443.237L157.017 442.267L156.367 441.281L155.741 440.279L155.139 439.262L153.532 436.469L152.441 434.726L151.22 433.071L149.878 431.513L148.422 430.06L147.937 429.61L146.088 428.065L144.096 426.712L141.977 425.567L139.753 424.639L137.497 423.951L135.186 423.487L132.838 423.253L130.48 423.25L128.076 423.365L126.841 423.404L125.603 423.399L124.369 423.352L123.134 423.264L121.738 423.139L118.871 422.763L116.046 422.151L113.279 421.309L110.592 420.242L108.872 419.42L107.204 418.506L105.584 417.502L104.023 416.412L102.59 415.353L100.966 414.102L99.3948 412.786L97.8773 411.41L96.4134 409.973L95.7046 409.248L94.1287 407.578L92.6161 405.852L91.1668 404.072L89.7833 402.24L89.4667 401.803L88.1611 399.926L86.931 397.998L85.7813 396.022L84.7145 394L83.6159 391.688L82.627 389.328L81.7429 386.926L80.939 384.373L80.3374 382.17L79.8478 380.06L79.4338 377.933L79.1001 375.792L78.457 371.098L78.4132 370.779L78.3718 370.46L78.3304 370.142L78.2889 369.823L77.395 362.759L77.2781 361.779L77.1782 360.797L77.0954 359.814L77.0248 358.829L76.7764 354.799L76.7203 352.951L76.7812 351.103L76.9566 349.263L77.2489 347.437L77.4389 346.443L78.0137 344.087L78.82 341.795L79.8478 339.597L81.0901 337.51L82.4444 335.665L83.9643 333.955L85.6376 332.397L87.4498 331L88.9283 329.965L90.2485 329.088L91.6101 328.27L93.0082 327.52L94.4405 326.834L99.7017 324.462L100.055 324.302L100.403 324.141L100.754 323.978L101.1 323.812L104.929 321.986L107.014 320.905L109.023 319.693L110.952 318.356L112.791 316.895L114.601 315.257L116.294 313.499L117.868 311.634L119.312 309.666L119.802 308.951L120.861 307.324L121.845 305.651L122.754 303.937L123.584 302.182L124.354 300.453L125.124 298.649L125.84 296.823L126.497 294.975L127.099 293.108L128.656 288.002L128.758 287.673L128.899 287.235L131.062 280.8L131.547 279.634L132.187 278.545L132.972 277.557L133.888 276.688L135.666 275.215L137.181 274.309L138.898 273.902L140.659 274.026L142.301 274.676L143.699 275.821L144.675 277.338L145.141 279.083L145.046 280.888L144.471 283.595L144.23 284.503L143.903 285.385L143.492 286.229L143.002 287.03L140.822 290.22L139.777 291.866L138.842 293.58L138.026 295.35L137.329 297.171L135.948 301.176L135.719 301.853L135.5 302.535L135.29 303.219L135.088 303.903L134.114 307.302L133.376 309.549L132.47 311.736L131.401 313.844L130.173 315.868L128.77 317.825L127.218 319.666L125.53 321.385L123.713 322.965L123.18 323.396L121.543 324.635L119.836 325.78L118.067 326.824L116.24 327.764L111.941 329.821L111.574 329.994L111.206 330.165L110.836 330.328L110.463 330.488L106.792 332.056L104.622 333.135L102.593 334.457L100.73 336.008L99.0586 337.763L97.7044 339.548L96.5498 341.467L95.6072 343.497L94.8886 345.618L93.7462 349.696L93.6367 350.095L93.5319 350.497L93.4296 350.899L93.3322 351.301L91.5906 358.678L91.442 359.325L91.2983 359.973L91.1644 360.622L91.0353 361.272L90.4239 364.451L90.0244 366.99L89.793 369.549L89.7346 372.119L89.8442 374.686L90.0805 376.909L90.4434 379.115L90.933 381.296L91.5492 383.446L92.3092 385.833L92.7549 387.103L93.2786 388.344L93.8753 389.55L94.5452 390.719L95.4294 392.158L96.9347 394.233L98.7371 396.055L100.795 397.582L103.061 398.778L104.917 399.457L106.836 399.913L108.799 400.141L110.775 400.138L114.419 399.917L115.373 399.873L116.331 399.858L117.288 399.871L118.243 399.913L119.972 400.015L122.919 400.342L125.818 400.969L128.636 401.891L131.345 403.097L132.879 403.937L134.36 404.869L135.783 405.888L137.139 406.992L140.927 410.27L141.377 410.657L141.831 411.04L142.288 411.419L142.749 411.794L147.886 415.944L148.634 416.556L149.374 417.179L150.105 417.812L150.826 418.455L152.058 419.568L154.265 421.674L156.35 423.898L158.311 426.234L160.138 428.675L161.141 430.094L161.648 430.836L162.13 431.594L162.588 432.367L163.022 433.155L165.211 437.288L166.049 438.635L167.062 439.855L168.234 440.923L169.542 441.821L171.474 442.96L172.955 443.617L174.548 443.917L176.167 443.844L177.729 443.403L178.469 443.097L180.14 442.059L181.382 440.538L182.067 438.696L182.12 436.731L181.879 435.694L181.46 434.717L180.873 433.828L180.14 433.058L176.971 430.273L175.814 429.157L174.767 427.94L173.834 426.631L173.018 425.224L171.949 422.713L171.284 420.086L171.033 417.388L171.198 414.683L171.398 413.252L171.603 412.039L171.873 410.839L172.209 409.657L172.614 408.494L174.803 402.703L174.991 402.199L175.176 401.695L175.356 401.189L175.534 400.682L178.367 392.505L180.525 386.268L181.078 384.813L181.716 383.394L182.437 382.015L183.238 380.682L184.563 378.626L185.706 377.065L187.026 375.653L188.509 374.409L190.129 373.353L190.509 373.135L192.667 372.127L194.959 371.478L197.324 371.205L199.704 371.315L201.65 371.698L203.528 372.337L205.304 373.223L206.946 374.338L209.532 376.363L210.485 377.074L211.466 377.743L212.48 378.367L213.602 378.99L216.747 380.431L219.95 381.461L223.251 382.112L226.605 382.374L229.113 382.424L229.386 382.431L229.749 382.444L236.637 382.751L237.76 382.887L238.852 383.19L239.884 383.654L240.837 384.268L242.21 385.311L243.521 386.733L244.259 388.521L244.327 390.454L243.721 392.291L242.681 393.654L241.268 394.629L239.621 395.12L237.906 395.079L232.428 394.078L232.18 394.028L228.241 393.182L225.625 392.777L222.98 392.68L220.34 392.893L217.743 393.412L215.768 394.026L213.856 394.818L212.022 395.782L210.287 396.908L208.439 398.232L207.14 399.206L205.891 400.24L204.69 401.33L203.54 402.475L201.553 404.55L200.374 405.87L199.292 407.268L198.308 408.739L197.431 410.275L196.37 412.294L195.607 413.974L195.047 415.731L194.699 417.541L194.56 419.38L194.555 419.766L194.728 422.25L195.32 424.667L196.311 426.951L197.675 429.034L199.071 430.576L200.671 431.905L202.442 432.994L204.351 433.822L205.45 434.208L207.401 434.777L209.403 435.131L211.432 435.264L213.464 435.176L214.691 435.055L216.757 434.763L218.791 434.293L220.776 433.651L222.698 432.84L225.258 431.627L226.48 431.076L227.723 430.57L228.982 430.11L230.258 429.697L230.94 429.491L233.909 428.741L236.937 428.273L239.996 428.091L243.058 428.198L244.785 428.386L246.497 428.666L248.193 429.037L249.866 429.497L254.336 430.856L255.091 431.09L255.846 431.332L256.596 431.581L257.344 431.839L262.761 433.735L263.901 434.139L265.038 434.553L266.171 434.977L267.301 435.41L269.885 436.414L271.989 437.262L274.07 438.163L276.126 439.116L278.158 440.122L279.058 440.582L280.904 441.56L282.72 442.591L284.506 443.674L286.259 444.809L288.526 446.389L290.731 448.055L292.869 449.804L294.939 451.635L297.201 453.716L297.607 454.094L298.009 454.475L298.406 454.861L298.8 455.251L301.403 457.863L303.169 459.493L305.063 460.972L307.073 462.29L309.185 463.437L311.342 464.389L313.568 465.162L315.85 465.754L318.173 466.158L320.714 466.495L321.91 466.637L323.109 466.747L324.311 466.825L325.515 466.87L329.044 466.955L330.935 466.969L332.826 466.919L334.714 466.805L336.598 466.629L338.013 466.472L340.23 466.167L342.429 465.746L344.603 465.21L346.745 464.562L349.171 463.675L351.539 462.643L353.841 461.47L356.126 460.122L357.997 458.879L359.747 457.586L361.43 456.207L363.043 454.746L364.501 453.358L365.697 452.189L366.862 450.989L367.995 449.76L369.096 448.501L371.86 445.255L372.547 444.443L373.228 443.625L373.903 442.803L374.572 441.976L377.938 437.781L378.634 436.908L379.325 436.032L380.011 435.151L380.691 434.267L383.38 430.751L384.302 429.52L385.2 428.271L386.074 427.005L386.923 425.721L388.425 423.399L389.442 421.754L390.387 420.066L391.261 418.341L392.061 416.58L392.341 415.928L393.268 413.564L394.043 411.147L394.664 408.685L395.129 406.19L395.411 403.923L395.565 401.643L395.588 399.358L395.481 397.076L395.278 394.378L395.175 393.165L395.048 391.955L394.899 390.747L394.727 389.542L394.273 386.563L393.965 384.443L393.69 382.318L393.446 380.189L393.234 378.056L392.934 374.782L392.84 373.706L392.754 372.629L392.677 371.552L392.609 370.474L392.372 366.456L392.242 364.69L392.062 362.928L391.833 361.171L391.554 359.422L391.318 358.066L390.85 355.723L390.268 353.404L389.573 351.118L388.76 348.854L387.818 346.589L386.77 344.388L385.613 342.246L384.321 340.12L382.97 338.126L381.552 336.244L380.041 334.433L378.442 332.702L378.086 332.334L376.49 330.773L374.814 329.298L373.064 327.915L371.242 326.624L370.641 326.223L368.737 325.03L366.763 323.956L364.727 323.006L362.637 322.183L362.092 321.989L359.904 321.29L357.673 320.747L355.408 320.362L353.123 320.138L352.58 320.107L350.323 320.053L348.069 320.177L345.832 320.474L343.625 320.944L342.581 321.21L340.639 321.796L338.757 322.551L336.948 323.467L335.227 324.54L334.602 324.969L332.715 326.439L331.017 328.127L329.534 330.004L328.287 332.044L327.301 334.206L326.579 336.468L326.131 338.798L325.965 341.167L325.956 342.024L326.018 343.989L326.245 345.944L326.635 347.873L327.186 349.762L328.432 353.448L328.732 354.31L329.05 355.165L329.384 356.014L329.734 356.857L331.389 360.721L332.101 362.432L332.778 364.157L333.42 365.895L334.026 367.646L334.718 369.712L335.298 371.542L335.818 373.391L336.276 375.256L336.672 377.135L337.105 379.368L337.403 381.14L337.611 382.925L337.729 384.718L337.757 386.515L337.738 388.504L337.632 390.54L337.355 392.56L336.907 394.549L336.294 396.493L336.169 396.836L335.169 399.172L333.912 401.381L332.414 403.434L330.694 405.306L329.063 406.744L327.301 408.019L325.424 409.118L323.45 410.031L321.167 410.956L319.882 411.447L318.578 411.888L317.258 412.278L315.924 412.616L311.648 413.609L310.392 413.91L309.141 414.229L307.895 414.566L306.653 414.92L302.812 416.045L301.307 416.498L299.808 416.972L298.317 417.469L296.832 417.987L293.087 419.325L291.85 419.746L290.599 420.129L289.338 420.474L288.067 420.781L285.138 421.439L283.147 421.803L281.134 422.002L279.11 422.036L277.09 421.905L276.721 421.866L274.239 421.464L271.815 420.795L269.479 419.867L267.257 418.69L265.46 417.489L263.781 416.126L262.24 414.611L260.822 412.931L259.368 410.807L258.169 408.568L257.222 406.212L256.533 403.768L256.321 402.819L256.011 401.214L255.797 399.593L255.678 397.962L255.653 396.327L255.707 392.819L255.683 391.356L255.568 389.897L255.363 388.448L255.071 387.014L254.625 385.135L253.973 383.02L253.042 381.011L251.854 379.144L250.429 377.451L248.709 375.901L246.79 374.605L244.709 373.588L242.51 372.871L240.968 372.486L239.492 372.169L237.994 371.955L236.486 371.842L234.976 371.833L231.79 371.923L230.066 371.913L228.344 371.789L226.636 371.549L224.948 371.195L223.231 370.775L221.212 370.155L219.278 369.305L217.453 368.238L215.768 366.968L215.437 366.686L213.805 365.098L212.404 363.302L211.262 361.332L210.399 359.225L209.827 356.998L209.566 354.714L209.622 352.416L209.995 350.147L210.066 349.857L210.701 347.768L211.6 345.779L212.748 343.919L214.124 342.224L214.355 341.976L215.99 340.437L217.828 339.146L219.828 338.129L221.955 337.403L224.235 336.977L226.553 336.889L228.86 337.14L231.106 337.724L231.651 337.91L233.539 338.674L235.329 339.65L236.993 340.826L238.513 342.185L241.609 345.292L242.028 345.718L242.437 346.151L242.841 346.589L243.236 347.035L246.215 350.441L247.552 351.929L248.928 353.38L250.346 354.795L251.798 356.171L253.783 358L254.874 359.044L255.921 360.128L256.927 361.252L257.889 362.414L258.888 363.668L260.364 365.688L261.662 367.823L262.778 370.06L263.701 372.383L264.378 374.583L264.88 376.828L265.209 379.105L265.362 381.401L265.46 384.986L265.474 385.74L265.479 386.495L265.472 387.249L265.455 388.004L265.265 394.417L265.262 395.312L265.309 396.205L265.401 397.095L265.545 397.978L266.12 401.018L266.773 403.14L267.876 405.067L269.376 406.703L271.201 407.969L273.34 408.823L275.617 409.167L277.912 408.983L280.214 408.229L282.118 407.141L283.674 405.77L284.93 404.121L285.837 402.256L286.334 400.912L286.839 399.225L287.127 397.488L287.193 395.727L287.036 393.973L286.129 388.062L285.979 387.114L285.42 382.782L285.105 378.426L285.034 374.06L285.209 369.696L285.241 369.234L285.277 368.772L285.315 368.311L285.356 367.85L285.478 366.525L285.761 362.801L285.927 359.069L285.974 355.335L285.903 351.6L285.888 351.177L285.852 350.268L285.808 349.358L285.754 348.45L285.693 347.544L285.355 342.925L285.27 341.287L285.252 339.648L285.302 338.009L285.419 336.373L285.569 334.747L285.882 332.392L286.383 330.072L287.067 327.798L287.931 325.587L288.987 323.42L290.215 321.348L291.607 319.381L293.154 317.533L294.272 316.303L295.347 315.166L296.465 314.073L297.626 313.026L298.828 312.023L301.879 309.576L302.919 308.731L303.947 307.87L304.961 306.991L305.961 306.099L306.311 305.783L308.711 303.543L311.04 301.225L313.295 298.839L315.475 296.382L317.234 294.337L317.455 294.081L317.751 293.741L321.751 289.192L322.885 287.975L324.085 286.823L325.35 285.742L326.673 284.734L328.24 283.61L330.068 282.438L332.01 281.469L334.044 280.712L336.147 280.174L338.637 279.836L341.149 279.804L343.646 280.084L346.09 280.666L346.584 280.817L348.379 281.448L350.114 282.229L351.777 283.152L353.356 284.216L356.22 286.324L357.122 287.006L358.005 287.712L358.869 288.44L359.714 289.19L362.789 291.992L364.021 293.1L365.268 294.193L366.53 295.267L367.807 296.326L368.295 296.726L370.551 298.532L372.843 300.295L375.169 302.011L377.528 303.679L378.668 304.471L379.724 305.196L380.785 305.917L381.851 306.628L382.922 307.331L386.529 309.683L387.73 310.47L388.929 311.259L390.124 312.055L391.317 312.856L393.742 314.487L395.375 315.593L397.003 316.705L398.624 317.828L400.24 318.957L404.382 321.869L404.682 322.081L404.982 322.293L405.282 322.505L405.581 322.717L410.961 326.529L411.946 327.226L412.933 327.917L413.922 328.606L414.914 329.293L418.099 331.492L419.525 332.47L420.957 333.439L422.395 334.399L423.84 335.348L426.548 337.118L427.828 337.944L429.117 338.754L430.415 339.551L431.723 340.332L434.391 341.905L435.949 342.796L437.528 343.648L439.129 344.459L440.75 345.231L442.488 346.029L444.416 346.867L446.38 347.622L448.373 348.291L450.394 348.873L451.249 349.1L453.475 349.623L455.726 350.02L457.996 350.293L460.277 350.436L461.077 350.466L463.205 350.475L465.33 350.354L467.443 350.1L469.537 349.716L470.574 349.494L472.648 348.963L474.676 348.274L476.644 347.429L478.54 346.434L479.332 345.981L481.142 344.824L482.835 343.502L484.396 342.029L485.812 340.417L486.357 339.733L487.585 338.004L488.612 336.149L489.427 334.192L490.017 332.156L490.097 331.81L490.468 329.522L490.537 327.206L490.302 324.901L489.767 322.646L488.967 320.535L487.904 318.543L486.596 316.703L485.063 315.045L484.127 314.154L482.799 312.982L481.383 311.921L479.888 310.971L478.324 310.144L473.341 307.748L473.055 307.609L472.769 307.468L472.485 307.327L472.201 307.183L471.572 306.864L467.892 304.902L464.293 302.791L460.781 300.541L457.271 298.084L456.72 297.68L456.262 297.342L455.807 296.998L455.354 296.65L451.388 293.597L449.951 292.548L448.463 291.566L446.93 290.661L445.354 289.833L444.44 289.38L442.161 288.367L439.805 287.544L437.39 286.918L434.931 286.495L432.668 286.288L430.395 286.249L428.126 286.383L425.873 286.687L423.739 287.057L422.287 287.335L420.845 287.661L419.415 288.034L417.998 288.452L413.732 289.794L412.629 290.132L411.52 290.454L410.407 290.76L409.29 291.048L405.916 291.895L404.006 292.326L402.078 292.664L400.136 292.913L398.184 293.069L396.68 293.154L394.57 293.2L392.461 293.1L390.365 292.854L388.29 292.465L387.472 292.28L385.295 291.693L383.179 290.916L381.139 289.959L379.19 288.825L378.936 288.664L377.017 287.298L375.24 285.752L373.621 284.041L372.176 282.183L371.91 281.803L370.751 279.965L369.779 278.019L369.005 275.989L368.436 273.892L368.213 272.875L367.893 270.854L367.81 268.809L367.966 266.768L368.358 264.76L368.467 264.338L369.237 262.06L370.337 259.919L371.743 257.969L373.424 256.248L375.236 254.865L377.224 253.75L379.35 252.927L381.57 252.411L383.531 252.099L385.034 251.911L386.546 251.821L388.061 251.834L389.572 251.943L392.898 252.299L394.547 252.415L396.201 252.42L397.85 252.311L399.488 252.087L402.51 251.361L405.413 250.251L408.147 248.775L410.666 246.957L411.469 246.295L412.351 245.535L413.199 244.739L414.014 243.908L414.794 243.047L416.056 241.588L417.895 239.575L419.839 237.663L421.883 235.859L424.021 234.167L425.495 233.062L426.471 232.346L427.459 231.647L428.459 230.965L429.471 230.301L433.905 227.449L434.773 226.911L435.66 226.405L436.563 225.928L437.483 225.485L438.664 224.939L441.578 223.814L444.613 223.069L447.717 222.721L450.841 222.77L452.491 222.96L454.125 223.259L455.734 223.671L457.311 224.189L461.609 225.769L462.465 226.076L463.326 226.368L464.191 226.648L465.06 226.914L468.774 228.019L470.719 228.555L472.684 229.01L474.666 229.385L476.662 229.675L477.92 229.833L480.111 230.045L482.31 230.128L484.51 230.084L486.703 229.913L487.491 229.828L489.712 229.514L491.905 229.047L494.06 228.428L496.168 227.661L496.632 227.474L498.762 226.515L500.808 225.39L502.758 224.104L504.6 222.668L506.426 220.985L508.102 219.152L509.618 217.185L510.972 215.078L512.073 213.016L512.999 210.891L513.757 208.702L514.34 206.459L514.492 205.761L514.886 203.635L515.144 201.49L515.266 199.33L515.25 197.168L515.207 196.07L515.07 193.937L514.826 191.812L514.476 189.703L514.021 187.614L513.847 186.901L513.236 184.634L512.519 182.397L511.697 180.196L510.736 177.956L509.646 175.699L508.492 173.576L507.241 171.509L505.894 169.502L505.719 169.254L504.362 167.413L502.93 165.629L501.425 163.905L499.849 162.247L498.811 161.2L497.503 159.909L496.163 158.655L494.791 157.433L493.389 156.247L491.147 154.399L489.922 153.404L488.682 152.427L487.428 151.47L486.159 150.533L483.194 148.376L482.004 147.536L480.787 146.735L479.546 145.973L478.282 145.252L475.554 143.747L473.91 142.92L472.211 142.213L470.464 141.634L468.68 141.181L466.79 140.777L464.806 140.47L462.799 140.4L460.798 140.565L458.83 140.964L457.539 141.305L455.587 141.99L453.769 142.973L452.129 144.232L450.708 145.734L449.314 147.86L448.359 150.217L447.879 152.715L447.894 155.269L448.249 157.236L448.895 159.116L449.817 160.876L450.995 162.476L453.883 165.833L454.21 166.22L454.529 166.612L454.841 167.011L455.145 167.416L457.179 170.169L458.605 172.344L459.783 174.661L460.698 177.096L461.339 179.614L461.656 181.737L461.778 183.879L461.705 186.022L461.436 188.15L461.259 189.178L460.82 191.264L460.229 193.312L459.491 195.311L458.557 197.353L457.266 199.701L455.844 201.831L454.251 203.837L452.496 205.705L452.298 205.897L450.746 207.319L449.106 208.639L447.383 209.849L445.585 210.944L442.773 212.537L441.792 213.077L440.8 213.601L439.798 214.105L438.786 214.589L435.462 216.14L433.723 216.939L431.974 217.713L430.216 218.465L428.448 219.198L425.973 220.201L424.466 220.798L422.948 221.363L421.418 221.898L419.879 222.402L417.848 223.047L415.785 223.749L413.752 224.528L411.75 225.387L409.784 226.322L407.425 227.574L405.128 228.94L402.9 230.41L400.745 231.988L399.968 232.584L398.613 233.592L397.225 234.554L395.805 235.47L394.355 236.336L393.137 237.038L390.974 238.194L388.744 239.214L386.454 240.096L384.114 240.831L381.813 241.403L379.482 241.836L377.128 242.129L374.762 242.277L373.97 242.304L371.904 242.326L369.838 242.255L367.779 242.092L365.728 241.836L363.96 241.576L362.096 241.264L360.244 240.882L358.409 240.432L356.591 239.911L354.687 239.326L352.83 238.693L351.013 237.955L349.243 237.111L347.527 236.161L345.999 235.258L344.359 234.189L342.817 232.986L341.382 231.654L340.067 230.206L338.955 228.871L337.825 227.333L336.888 225.672L336.158 223.909L335.646 222.074L335.343 220.666L335.094 218.726L335.171 216.773L335.573 214.859L336.289 213.038L337.536 211.047L339.157 209.345L341.085 208.001L343.244 207.068L344.268 206.744L345.575 206.399L346.909 206.177L348.258 206.084L349.61 206.121L354.458 206.479L355.522 206.574L356.584 206.696L357.642 206.847L358.695 207.027L362.307 207.876L365.822 209.065L369.208 210.579L372.436 212.408L373.278 212.941L373.667 213.189L374.052 213.445L374.434 213.705L374.812 213.971L377.504 215.892L379.694 217.25L382.041 218.319L384.506 219.076L387.048 219.51L389.028 219.622L391.01 219.537L392.973 219.254L394.9 218.782L399.912 217.282L400.244 217.185L400.687 217.058L407.347 215.212L408.515 214.896L409.687 214.599L410.863 214.316L412.043 214.051L412.793 213.888L415.956 213.131L419.084 212.237L422.172 211.215L425.214 210.06L426.681 209.449L428.136 208.809L429.577 208.139L431.004 207.438L435.039 205.405L435.943 204.935L436.835 204.441L437.714 203.927L438.58 203.392L441.595 201.471L443.217 200.329L444.726 199.041L446.111 197.621L447.358 196.078L448.021 195.177L449.167 193.395L450.083 191.486L450.755 189.477L451.173 187.4L451.368 185.981L451.482 184.201L451.337 182.426L450.935 180.69L450.287 179.029L449.471 177.32L448.608 175.911L447.474 174.71L446.116 173.768L444.593 173.125L442.35 172.782L440.1 173.084L438.027 174.007L436.297 175.475L436.08 175.721L435.068 177.135L434.366 178.728L434.004 180.429L433.996 182.17L434.269 184.924L434.339 186.497L434.241 188.067L433.975 189.618L433.545 191.133L432.372 193.711L430.726 196.014L428.668 197.962L426.275 199.477L424.707 200.268L423.808 200.694L422.888 201.071L421.949 201.4L420.995 201.68L419.821 201.989L416.757 202.634L413.644 202.963L410.513 202.97L407.397 202.659L404.572 202.23L404.313 202.191L404.054 202.155L403.795 202.118L403.535 202.084L399.056 201.51L396.797 201.3L394.529 201.247L392.262 201.349L390.008 201.609L387.197 202.031L386.052 202.157L384.9 202.194L383.749 202.14L382.606 201.999L380.962 201.729L378.696 201.103L376.614 200.015L374.808 198.512L373.359 196.662L372.505 194.994L371.944 193.205L371.693 191.349L371.759 189.475L372.056 187.008L372.152 185.438L372.063 183.867L371.79 182.319L371.337 180.812L370.131 178.34L368.446 176.166L366.351 174.384L363.937 173.067L361.702 172.132L361.036 171.866L360.359 171.628L359.674 171.414L358.982 171.226L354.902 170.206L352.939 169.67L351 169.052L349.089 168.353L347.209 167.571L346.211 167.133L344.172 166.164L342.194 165.076L340.281 163.878L338.443 162.568L336.451 160.951L334.57 159.208L332.809 157.345L331.157 155.344L329.823 153.513L328.614 151.636L327.513 149.691L326.526 147.687L326.297 147.185L325.384 145.043L324.586 142.854L323.905 140.626L323.32 138.257L322.84 135.791L322.508 133.412L322.301 131.018L322.219 128.615L322.201 126.422L322.217 125.07L322.289 123.717L322.415 122.37L322.596 121.029L323.3 117.657L324.349 114.377L325.73 111.221L327.437 108.215L328.197 107.075L328.995 105.977L329.837 104.913L330.721 103.883L333.293 101.008L334.335 99.8195L335.353 98.6119L336.348 97.3847L337.319 96.1382L339.519 93.2554L340.422 92.0891L341.343 90.9375L342.281 89.8005L343.235 88.6756L343.695 88.1449L345.719 85.8781L347.819 83.6844L349.995 81.5637L352.242 79.5209L353.624 78.3328L355.029 77.1714L356.459 76.0417L357.911 74.9412L360.915 72.7134L361.862 72.017L362.813 71.328L363.77 70.6462L364.732 69.9718L369.081 66.943L369.931 66.3367L370.767 65.7085L371.587 65.0634L372.393 64.3987L375.125 62.0905L376.605 60.727L377.964 59.2467L379.193 57.6544L380.284 55.9646L380.506 55.5848L381.651 53.3498L382.532 50.9978L383.138 48.5606L383.461 46.0698L383.508 43.8907L383.339 41.7165L382.953 39.5714L382.357 37.4751L382.02 36.4793L381.284 34.5705L380.397 32.7249L379.364 30.9597L378.192 29.2822L377.165 27.9309L375.949 26.4992L374.587 25.2039L373.095 24.0645L371.489 23.0882L370.601 22.6134L368.524 21.7028L366.33 21.1281L364.073 20.9017L361.809 21.0332L359.649 21.5007L357.585 22.292L355.666 23.3876L353.937 24.7632L352.809 25.8126L351.668 26.9643L350.628 28.2084L349.696 29.5354L348.879 30.9378L346.684 35.0891L346.29 35.8511L345.91 36.6205L345.545 37.3948L345.193 38.1788L342.854 43.5133L342.41 44.5164L341.961 45.5196L341.506 46.5202L341.047 47.5185L340.375 48.9647L339.109 51.6551L337.813 54.3285L336.487 56.9873L335.131 59.6314L334.632 60.5907L334.003 61.791L333.365 62.9865L332.719 64.1771L332.065 65.3628L329.979 69.1075L329.302 70.3005L328.602 71.4789L327.881 72.6427L327.138 73.7944L325.398 76.4385L324.314 78.0017L323.157 79.516L321.931 80.972L320.637 82.3672L319.616 83.419L318.042 84.9261L316.365 86.3188L314.591 87.5849L312.732 88.7194L312.24 88.997L310.182 90.0415L308.042 90.9059L305.837 91.5851L303.505 92.0867L301.095 92.3959L298.743 92.4787L296.394 92.3521L294.065 92.0161L291.75 91.4634L289.495 90.7038L287.318 89.7396L285.22 88.5758L283.273 87.2537L281.466 85.7758L279.796 84.1445L278.277 82.3745L277.971 81.9849L276.696 80.2246L275.555 78.3766L274.555 76.4458L273.701 74.4493L273.116 72.9252L272.502 71.2111L271.968 69.4727L271.513 67.7099L271.137 65.9301L270.331 61.6133L270.18 60.7831L270.039 59.9528L269.903 59.1226L269.776 58.2898L268.938 52.6023L268.75 51.4677L268.521 50.3428L268.254 49.2252L267.947 48.1174L266.524 43.3112L266.139 42.2302L265.635 41.1979L265.019 40.2288L264.3 39.3352L261.806 36.5596L260.754 35.6856L259.492 35.1523L258.13 35.0038L256.786 35.2546L255.429 35.9851L254.382 37.1147L253.756 38.5221L253.619 40.056L253.968 44.6893L253.999 45.0545L254.046 45.4173L254.107 45.7801L254.177 46.1404L254.511 47.6889L255.076 51.2169L255.268 54.7838L255.081 58.3507L254.518 61.8787L254.275 63.0181L254.158 63.5441L254.029 64.0675L253.892 64.5886L253.746 65.1072L252.567 69.144L252.114 71.2428L251.963 73.3854L252.117 75.5279L252.575 77.6267L253.378 79.7547L254.494 81.7366L255.897 83.531L257.551 85.0917L260.352 87.3633L260.798 87.7163L261.251 88.0597L261.714 88.3956L262.181 88.7194L265.862 91.2126L267.501 92.4349L269.028 93.7959L270.429 95.286L271.691 96.8929L271.953 97.2581L273.252 99.3106L274.307 101.497L275.106 103.791L275.637 106.16L275.885 108.4L275.893 110.652L275.662 112.894L275.195 115.1L274.733 116.819L274.277 118.353L273.738 119.858L273.119 121.331L272.421 122.767L270.75 125.981L270.131 127.276L269.598 128.611L269.155 129.974L268.804 131.367L268.507 132.725L268.149 135.262L268.171 137.824L268.575 140.356L269.35 142.798L270.19 144.59L271.232 146.272L272.462 147.826L273.861 149.228L277.324 152.318L277.666 152.62L278.011 152.917L278.36 153.209L278.712 153.496L282.389 156.467L283.919 157.801L285.342 159.249L286.651 160.803L287.837 162.451L288.214 163.018L289.422 165.056L290.416 167.209L291.186 169.451L291.724 171.759L292.022 174.077L292.086 176.415L291.914 178.747L291.51 181.05L291.351 181.747L290.824 183.712L290.149 185.63L289.33 187.493L288.372 189.287L287.643 190.536L286.561 192.275L285.381 193.952L284.109 195.557L282.748 197.09L282.229 197.641L280.539 199.34L278.756 200.942L276.887 202.445L274.872 203.881L272.829 205.181L270.787 206.333L268.685 207.372L266.531 208.3L266.11 208.471L263.993 209.259L261.843 209.951L259.663 210.54L257.456 211.029L257.117 211.095L254.747 211.504L252.36 211.799L249.961 211.979L247.557 212.045L245.133 211.994L242.712 211.828L240.303 211.546L237.909 211.146L236.844 210.942L235.013 210.562L233.193 210.126L231.388 209.634L229.598 209.089L225.187 207.672L224.541 207.465L223.898 207.251L223.255 207.036L222.615 206.817L215.972 204.538L215.329 204.314L214.689 204.083L214.051 203.842L213.415 203.599L208.48 201.658L207.082 201.054L205.73 200.358L204.427 199.572L203.18 198.702L201.061 197.115L199.66 195.905L198.44 194.515L197.424 192.968L196.633 191.296L196.328 190.519L195.739 188.457L195.554 186.322L195.773 184.189L196.394 182.136L197.339 180.322L198.596 178.708L200.123 177.347L201.872 176.285L204.953 174.778L205.733 174.418L206.524 174.089L207.328 173.797L208.144 173.539L211.342 172.597L213.49 171.864L215.566 170.953L217.558 169.87L219.495 168.587L221.421 167.058L223.158 165.395L224.736 163.576L226.139 161.623L226.31 161.358L227.418 159.476L228.353 157.499L229.108 155.449L229.676 153.338L230.093 150.842L230.251 148.317L230.146 145.79L229.778 143.287L229.63 142.542L229.223 140.799L228.707 139.085L228.081 137.407L227.347 135.774L226.035 133.076L225.387 131.659L224.812 130.208L224.312 128.73L223.889 127.23L223.752 126.689L223.185 123.868L222.909 120.999L222.931 118.122L223.248 115.258L223.606 113.444L224.084 111.657L224.678 109.907L225.387 108.197L227.805 102.873L227.92 102.617L228.994 100.211L230.404 97.0147L231.785 93.8056L233.14 90.5821L234.462 87.3487L235.493 84.7995L238.623 77.0448L238.881 76.4093L239.144 75.7738L239.412 75.1408L239.685 74.5102L242.327 68.4476L242.659 67.6417L242.958 66.8212L243.221 65.9886L243.45 65.1461L244.456 61.1117L244.717 59.4731L244.688 57.8151L244.373 56.1886L243.781 54.6401L242.498 52.6631L240.766 51.061L238.696 49.9338L236.411 49.347L233.685 48.9988L232.838 48.916L231.985 48.8819L231.135 48.899L230.285 48.9647L227.333 49.2788L224.851 49.4663L222.364 49.498L219.882 49.3738L217.41 49.0962L215.483 48.8211L214.121 48.6044L212.765 48.3512L211.418 48.059L210.078 47.7279L206.792 46.8684L205.08 46.4837L203.343 46.2207L201.594 46.082L199.838 46.0674L198.662 46.099L196.282 46.306L193.943 46.7929L191.681 47.5574L189.523 48.5873L189.199 48.7675L187.379 49.9167L185.706 51.2704L184.203 52.8092L182.89 54.5135L181.604 56.7146L180.632 59.0739L179.996 61.5427L179.706 64.1552L179.726 66.3416L179.984 68.4331L180.474 70.4831L181.187 72.465L181.477 73.1492L182.486 75.2236L183.706 77.1836L185.121 79.0047L186.719 80.6726L188.673 82.5108L189.547 83.307L190.451 84.0715L191.379 84.8068L192.329 85.5104L194.91 87.3511L196.572 88.6172L198.152 89.9831L199.646 91.4439L201.044 92.9949L202.732 95.157L204.239 97.4505L205.552 99.8609L206.665 102.369L206.948 103.085L207.542 104.687L208.064 106.313L208.512 107.961L208.887 109.627L209.966 114.981L210.046 115.395L210.127 115.811L210.205 116.227L210.283 116.646L210.804 119.561L211.405 122.451L212.17 125.302L213.091 128.104L214.172 130.85L214.891 132.54L215.29 133.434L215.722 134.313L216.184 135.175L216.679 136.019L219.093 139.981L219.794 141.335L220.298 142.773L220.598 144.268L220.686 145.79L220.678 146.323L220.284 148.982L219.197 151.439L217.495 153.52L215.303 155.074L213.836 155.695L212.29 156.077L210.704 156.211L209.116 156.092L203.872 155.271L203.423 155.196L202.975 155.115L202.53 155.025L202.086 154.928L193.734 153.019L193.542 152.973L193.283 152.912L187.045 151.407L185.572 150.966L184.149 150.375L182.8 149.635L181.536 148.758L181.173 148.476L179.107 146.491L177.505 144.117L176.438 141.461L175.953 138.639L175.951 136.95L176.158 135.274L176.574 133.638L177.188 132.065L179.546 126.991L179.677 126.714L179.811 126.436L179.945 126.159L180.084 125.884L182.232 121.652L183.153 119.682L183.937 117.654L184.585 115.577L185.094 113.464L185.155 113.157L185.557 110.703L185.757 108.224L185.754 105.741L185.55 103.262L185.177 100.971L184.634 98.7141L183.92 96.5034L183.041 94.3559L182.875 93.9883L181.855 91.9358L180.695 89.9563L179.402 88.0621L177.982 86.2628L176.823 84.892L175.739 83.6576L174.611 82.4621L173.442 81.3056L172.231 80.1929L169.62 77.875L168.526 76.889L167.447 75.8858L166.385 74.8657L165.338 73.8309L164.724 73.2125L162.666 71.0894L160.669 68.9127L158.73 66.68L156.854 64.3962L155.675 62.8964L154.526 61.3771L153.4 59.8359L152.304 58.2777L151.021 56.42L149.988 54.908L148.972 53.3838L147.971 51.8499L146.987 50.3063L144.914 47.0169L144.325 46.0966L143.721 45.186L143.1 44.2851L142.464 43.3964L140.764 41.0591L139.348 39.2233L137.831 37.4727L136.214 35.8097L134.506 34.2442L132.565 32.6641L130.531 31.2105L128.412 29.8811L126.212 28.6857L124.011 27.5754L123.026 27.0933L122.033 26.6283L121.029 26.1851L120.016 25.7615L118.803 25.2697L115.975 24.006L113.244 22.5476L110.619 20.9042L108.115 19.0829L106.804 18.0141L105.533 16.899L104.308 15.7352L103.126 14.5251L101.265 12.5456L99.994 11.2601L98.664 10.0354L97.2757 8.87889L95.8313 7.78815L95.3612 7.44966L93.1008 5.96448L90.7308 4.66191L88.2609 3.5541L85.7131 2.64836L83.7061 2.09324L81.6698 1.66228L79.6116 1.35549L77.5363 1.17775L75.5366 1.06821L73.7852 1.00488L72.0364 1L70.2851 1.05846L68.5386 1.17775L66.1223 1.38713L64.2347 1.56975L62.3518 1.7962L60.4739 2.06398L58.6007 2.37565L56.6911 2.71407L54.7279 3.08663L52.7744 3.50296L50.8307 3.96312L48.8991 4.46954L47.3622 4.89074L45.377 5.47025L43.4114 6.11546L41.4701 6.82395L39.5507 7.59821L38.7055 7.95371L36.584 8.90565L34.5087 9.95019L32.4797 11.0848L30.5043 12.3095L28.429 13.729L26.4268 15.2482L24.4978 16.86L22.5979 18.613L20.9586 20.2614L19.4436 21.9243L17.9967 23.6481L16.623 25.4328L16.1504 26.0732L14.8765 27.8651L13.6659 29.7009L12.5187 31.5757L11.4372 33.4918L10.9355 34.4146L9.95386 36.304L9.04287 38.225L8.19768 40.1801L7.42554 42.162L6.99441 43.3234L6.3124 45.3102L5.72052 47.3237L5.22115 49.364L4.81441 51.4239L4.6147 52.5657L4.31022 54.6937L4.1324 56.8363L4.0788 58.9862L4.1543 61.1361L4.21521 62.0589L4.43688 64.2404L4.81441 66.3976L5.35025 68.5232L6.03958 70.6049L6.31728 71.3475L7.16491 73.3586L8.18305 75.2893L9.36199 77.1275L10.6943 78.8563L11.1157 79.3602L12.6307 80.9867L14.2992 82.4548L16.1041 83.7501L18.0308 84.858L18.462 85.077L20.4885 85.9755L22.6052 86.6451L24.7803 87.0784L26.9895 87.2683L27.294 87.2756L29.5739 87.2075L31.8269 86.8666L34.024 86.2555L36.1309 85.3814L38.1502 84.2395L40.0159 82.859L41.6966 81.2594L43.1678 79.465L43.3675 79.1898L44.5343 77.3783L45.5013 75.4525L46.2588 73.4365L46.7946 71.3499L47.1283 69.6942L47.4231 67.9583L47.6057 66.2077L47.6788 64.4474L47.6423 62.687L47.3841 57.8053L47.3475 57.1577L47.3037 56.5101L47.2526 55.8624L47.1966 55.2148L46.6923 49.7414L46.5827 48.2806L46.5218 46.8149L46.5072 45.3491L46.5413 43.8858L46.6631 40.9081L46.8068 39.0504L47.0918 37.2097L47.5156 35.3959L48.071 33.6184L48.4997 32.4157L49.3595 30.3778L50.4459 28.4495L51.749 26.6599L53.2445 25.0286L55.1006 23.4436L57.1393 22.107L59.3339 21.0357L61.6649 20.2468L63.8571 19.7817L66.0663 19.5748L68.2829 19.6211L70.4823 19.9181L72.2458 20.259L73.8754 20.6266L75.4805 21.0941L77.0516 21.6565L78.5861 22.3163L81.5602 23.7041L82.9705 24.3371L84.3954 24.9288L85.8374 25.4791L87.2964 25.9904L89.6055 26.7598L91.6077 27.4025L93.622 28.0015L95.651 28.5566L97.6922 29.0679L101.677 30.0199L102.374 30.1879L103.068 30.3656L103.762 30.5482L104.454 30.7382L110.928 32.5447L111.673 32.776L112.409 33.0488L113.125 33.3579L113.824 33.7085L115.057 34.3659L117.456 36.063L119.361 38.303L120.649 40.9422L121.246 43.8201L121.263 45.393L121.073 46.956L120.674 48.4802L120.077 49.9362L117.85 54.4673L117.522 55.1173L117.176 55.7601L116.815 56.3956L116.438 57.0214L114.913 59.4902L113.556 61.8008L112.302 64.1698L111.155 66.5924L110.115 69.0637L109.352 71.104L108.663 73.1687L108.049 75.2552L107.511 77.3662L107.231 78.5568L106.78 80.5801L106.385 82.6155L106.047 84.6583L105.762 86.7108L105.241 90.8596L105.155 91.5584L105.073 92.2547L104.992 92.9535L104.917 93.6498L104.68 95.8679L104.337 98.8992L103.955 101.926L103.538 104.95L103.08 107.966L102.793 109.758L102.491 111.55L102.174 113.337L101.845 115.124L101.214 118.492L100.971 119.809L100.742 121.128L100.525 122.451L100.32 123.775L99.8308 127.05L99.575 128.903L99.3656 130.763L99.2023 132.625L99.083 134.493L98.9929 136.239L98.9247 138.352L98.9393 140.465L99.0367 142.579L99.2145 144.687L99.3607 146.092L99.6213 148.101L99.9818 150.095L100.442 152.069L101 154.017L101.58 155.868L102.191 157.599L102.919 159.284L103.762 160.915L104.714 162.485L105.698 163.983L106.916 165.633L108.312 167.141L109.864 168.482L111.554 169.648L111.934 169.88L114.051 170.978L116.301 171.769L118.64 172.236L121.019 172.375L123.204 172.21L125.35 171.764L127.421 171.046L129.381 170.07L130.714 169.295L132.158 168.382L133.532 167.365L134.825 166.245L136.031 165.032L139.819 160.932L140.045 160.688L140.272 160.447L140.498 160.206L140.73 159.968L144.624 155.933L145.857 154.748L147.172 153.657L148.563 152.666L150.024 151.78L151.257 151.093L153.347 150.1L155.546 149.386L157.821 148.963L160.133 148.836L162.383 148.999L164.595 149.447L166.731 150.168L168.763 151.154L169.428 151.529L171.145 152.615L172.748 153.864L174.224 155.261L175.554 156.795L176.214 157.635L177.492 159.41L178.618 161.285L179.585 163.247L180.384 165.283L181.156 167.523L181.594 168.869L181.986 170.233L182.33 171.608L182.622 172.994L183.701 178.555L183.818 179.159L183.93 179.767L184.04 180.373L184.147 180.982L185.331 187.821L185.457 188.593L185.572 189.363L185.677 190.137L185.769 190.911L186.246 195.225L186.383 197.12L186.368 199.019L186.208 200.911L185.896 202.783L185.745 203.523L185.109 205.892L184.2 208.173L183.034 210.331L181.621 212.339L180.152 214.002L178.518 215.5L176.735 216.817L174.82 217.939L173.327 218.711L171.802 219.446L170.236 220.089L168.636 220.639L167.006 221.095L162.505 222.212L161.692 222.41L160.878 222.595L160.06 222.772L159.241 222.938L155.461 223.683L153.408 224.138L151.381 224.686L149.381 225.331L147.413 226.069L144.924 227.16L142.503 228.399L140.164 229.784L137.914 231.306L136.545 232.295L135.527 233.047L134.526 233.821L133.539 234.617L132.572 235.435L128.047 239.341L127.581 239.743L127.121 240.144L126.661 240.548L126.203 240.955L122.617 244.14L121.243 245.391L119.901 246.677L118.593 247.996L117.317 249.348L116.723 249.99L115.027 251.907L113.413 253.888L111.876 255.936L110.426 258.042L109.201 259.975L108.044 261.95L106.963 263.966L105.952 266.018L105.635 266.695L104.734 268.694L103.894 270.718L103.114 272.768L102.396 274.837L101.616 277.206L101.146 278.545L100.63 279.867L100.065 281.168L99.4508 282.448L98.876 283.595L97.5363 285.998L95.992 288.277L94.2529 290.41L92.3359 292.384L90.8331 293.716L89.2474 294.948L87.5862 296.076L85.8568 297.096L82.3859 299L81.6381 299.404L80.8806 299.798L80.1207 300.181L79.3558 300.555L75.0884 302.598L73.5928 303.299L72.0851 303.976L70.5676 304.626L69.038 305.252L66.0395 306.394L63.0021 307.439L59.9356 308.383L56.8324 309.231L55.2345 309.625L53.6367 309.99L52.0339 310.329L50.4239 310.643L46.0274 311.461L45.0506 311.641L44.0715 311.816L43.0923 311.987L42.1107 312.155L36.4354 313.112L35.4513 313.282L34.4697 313.46L33.4881 313.645L32.5089 313.84L28.2318 314.709L26.5852 315.072L24.9508 315.488L23.331 315.955L21.7258 316.476L19.424 317.265L17.607 317.949L15.8337 318.741L14.1141 319.642L12.4505 320.642L10.9403 321.614L9.34003 322.748L7.84692 324.022L6.47315 325.419L5.22847 326.936L4.33212 328.132L3.22385 329.821L2.33481 331.633L1.67958 333.544L1.26552 335.521L1.13642 336.417L1.00001 338.53L1.19728 340.639L1.72342 342.691L2.56861 344.634L3.82793 346.582L5.40385 348.282L7.25016 349.684L9.31082 350.748L11.2959 351.391L13.3566 351.717L15.4416 351.719L17.5047 351.401L18.7469 351.108L20.5153 350.59L22.2203 349.889L23.8401 349.01L25.3575 347.965L28.4924 345.555L29.2475 344.958L29.9855 344.34L30.7089 343.704L31.4129 343.047L33.9119 340.656L35.5001 339.171L37.1198 337.72L38.7688 336.303L40.4519 334.925L41.302 334.24L42.9827 332.916L44.6853 331.621L46.4098 330.354L48.1562 329.118L50.2291 327.676L51.4372 326.844L52.6502 326.023L53.8705 325.212L55.1006 324.414L57.322 322.98L59.0806 321.869L60.8636 320.796L62.6685 319.758L64.4929 318.758L66.9603 317.479L69.4618 316.267L71.995 315.125L74.5574 314.051L76.4621 313.284L77.4413 312.895L78.4278 312.515L79.4192 312.15L80.4129 311.794L84.4271 310.382L86.003 309.793L87.5546 309.138L89.0769 308.422L90.5676 307.643L91.3641 307.207L93.661 305.834L95.8459 304.29L97.909 302.586L99.8357 300.731L101.248 299.173L102.564 297.534L103.782 295.82L104.895 294.035L105.589 292.845L106.578 291.06L107.491 289.231L108.322 287.366L109.07 285.467L110.96 280.342L111.047 280.106L112.748 275.443L113.59 273.274L114.528 271.144L115.556 269.057L116.672 267.014L117.967 264.877L119.363 262.8L120.851 260.791L122.432 258.853L123.319 257.816L124.412 256.564L125.538 255.342L126.692 254.147L127.876 252.978L132.28 248.734L132.438 248.581L132.65 248.379L137.799 243.475L138.688 242.669L139.616 241.91L140.581 241.194L141.577 240.527L144.814 238.476L146.249 237.705L147.781 237.145L149.376 236.806L151.004 236.702L152.984 236.711L154.696 236.921L156.316 237.52L157.753 238.472L158.937 239.728L159.918 241.517L160.379 243.507L160.284 245.547L159.638 247.483L159.499 247.768L158.637 249.138L157.517 250.309L156.184 251.23L154.691 251.863L149.106 253.587L148.843 253.672L145.915 254.641L142.992 255.758L140.186 257.139L137.514 258.768L135.003 260.633L133.758 261.699L132.565 262.824L131.427 264.005L130.348 265.237L129.471 266.289L127.903 268.271L126.441 270.33L125.087 272.466L123.823 274.713L122.798 276.751L121.891 278.786L121.075 280.861L120.352 282.967L118.956 287.366L118.859 287.671L118.761 287.975L118.662 288.279L118.559 288.581L116.927 293.434L116.243 295.287L115.449 297.093L114.548 298.851L113.544 300.553L111.951 302.856L110.168 305.016L108.21 307.017L106.088 308.848L105.737 309.123L104.344 310.173L102.9 311.154L101.409 312.06L99.8771 312.895L96.8957 314.424L95.612 315.067L94.3138 315.683L93.0034 316.272L91.6807 316.834L87.2574 318.663L86.305 319.069L85.3624 319.503L84.4295 319.958L83.5088 320.438L80.827 321.877L78.8833 323.038L77.054 324.372L75.3539 325.867L73.7999 327.513L72.3092 329.42L71.0134 331.465L69.9246 333.627L69.0526 335.886L68.7116 336.919L68.1976 338.635L67.7884 340.378L67.484 342.141L67.2842 343.921L66.8068 349.703L66.7873 349.932L66.7605 350.237L66.5559 352.503L66.1833 356.088L65.7107 359.661L65.1432 363.219L64.4758 366.76L64.3881 367.199L64.1884 368.212L63.9984 369.226L63.8181 370.242L63.6476 371.26L63.2165 373.904L62.8609 376.361L62.5929 378.829L62.4103 381.304L62.3129 383.905L62.3031 386.27L62.3713 388.516L62.515 390.758L62.7318 392.994L62.8901 394.37L63.1459 396.266L63.4747 398.15L63.8766 400.021L64.3516 401.874L64.7949 403.475L65.4136 405.474L66.1492 407.432L66.9992 409.344L67.9613 411.201L68.239 411.698L69.4935 413.761L70.9013 415.722L72.4578 417.569L74.1482 419.292L75.9165 420.839L77.7945 422.25L79.7699 423.517L81.8378 424.633L83.0436 425.228L84.6584 425.981L86.305 426.662L87.9784 427.269L89.6786 427.803L93.13 428.803L94.3649 429.151L95.6048 429.479L96.8494 429.787L98.099 430.075L100.496 430.609L102.805 431.087L105.124 431.497L107.455 431.84L109.795 432.115L110.412 432.178L112.58 432.367L114.75 432.489L116.925 432.544L119.1 432.532L121.777 432.476L123.126 432.474L124.476 432.523L125.823 432.623L127.165 432.774L128.726 432.98L131.303 433.445L133.822 434.155L136.262 435.102L138.601 436.278L140.389 437.378L142.086 438.613L143.684 439.974L145.175 441.453L147.796 444.265L148.339 444.869L148.858 445.492L149.352 446.135L149.822 446.795L153.052 451.514L153.605 452.502L153.973 453.573L154.146 454.693L154.114 455.824L154.019 456.619L153.493 458.385L152.397 459.868L150.865 460.892L149.077 461.336L147.606 461.238L146.217 460.742L145.016 459.887L144.096 458.738L141.477 454.354L141.304 454.053L141.083 453.646L138.856 449.27L137.887 447.758L136.637 446.469L135.157 445.452L133.503 444.75L132.414 444.411L130.755 444.11L129.072 444.222L127.469 444.739L126.04 445.63L124.739 447.021L123.869 448.714L123.497 450.581L123.652 452.478L124.32 455.465L124.58 456.433L124.921 457.376L125.34 458.286L125.837 459.158L127.328 461.537L128.185 463.336L128.609 465.284L128.58 467.277L128.059 469.31L127.007 471.314L125.533 472.893L123.706 474.041L121.643 474.681L119.419 474.762L117.256 474.253L115.303 473.189L113.702 471.646L111.274 468.583L111.011 468.232L110.765 467.867L110.538 467.49L110.331 467.103L109.545 465.536L107.857 463.384L105.462 462.059L102.744 461.769L100.126 462.56L99.7528 462.775L99.3972 463.012L99.0562 463.27L98.7322 463.55L92.2824 469.462L92.163 469.571L86.4902 474.808L85.757 475.479L85.019 476.143L84.276 476.802L83.5258 477.454L80.6614 479.931L79.1829 481.249L77.7507 482.614L76.3599 484.023L75.0153 485.476L74.3406 486.228L72.8012 488.028L71.3446 489.898L69.9757 491.833L68.6945 493.836L67.462 495.981L66.3367 498.174L65.3186 500.419L64.4125 502.71L63.6428 504.959L62.9778 507.24L62.42 509.551L61.9694 511.884L61.889 512.362L61.5675 514.563L61.3434 516.776L61.2168 518.996L61.19 521.22L61.1973 522.134L61.2752 524.294L61.4628 526.447L61.7624 528.588L62.1716 530.71L62.3762 531.633L62.9145 533.76L63.5916 535.847L64.3978 537.888L65.3332 539.873L65.6547 540.501L66.7581 542.472L68.0101 544.353L69.3984 546.134L70.9208 547.804L71.615 548.51L73.0959 549.896L74.6914 551.152L76.3866 552.268L78.172 553.237L79.1926 553.736L81.1753 554.572L83.2409 555.177L85.3624 555.546L87.5107 555.673L89.9976 555.516L92.4407 555.036L94.8009 554.24L97.0467 553.137L98.8224 551.984L100.449 550.649L101.921 549.143L103.216 547.485L103.957 546.421L105.021 544.756L105.949 543.012L106.739 541.199L107.379 539.33L107.545 538.77L108.159 536.332L108.556 533.85L108.731 531.343L108.687 528.83L108.575 527.027L108.468 525.696L108.317 524.37L108.12 523.05L107.876 521.737L107.177 518.286L106.87 516.548L106.653 514.797L106.524 513.037L106.488 511.273L106.495 509.801L106.605 507.517L106.914 505.253L107.421 503.023L108.12 500.847L109.077 498.588L110.244 496.429L111.605 494.388L113.154 492.484L113.447 492.158L114.881 490.666L116.421 489.283L118.058 488.015L119.782 486.869L122.907 484.951L123.694 484.478L124.488 484.018L125.292 483.573L126.1 483.141L127.878 482.211L130.507 480.881L133.169 479.62L135.865 478.43L138.591 477.311L139.119 477.102L140.627 476.517L142.145 475.952L143.667 475.407L145.197 474.882L149.873 473.313L150.619 473.064L151.364 472.817L152.112 472.571L152.86 472.327L157.914 470.688L159.273 470.252L160.635 469.825L161.999 469.407L163.365 468.997L166.67 468.018L168.314 467.517L169.951 466.991L171.581 466.439L173.201 465.862L173.456 465.769L176.262 464.699L179.039 463.551L181.782 462.324L184.49 461.02L186.568 459.983L187.192 459.679L187.818 459.385L188.451 459.103L189.089 458.832L193.281 457.094L195.032 456.47L196.842 456.031L198.686 455.779L200.544 455.719L201.207 455.732L203.587 455.957L205.903 456.535L208.11 457.454L210.151 458.692L211.763 460.01L213.188 461.527L214.404 463.217L215.388 465.051L216.165 466.757L216.805 468.318L217.332 469.922L217.736 471.56L218.021 473.224L218.627 477.801L218.752 478.628L218.898 479.451L219.071 480.269L219.268 481.082L220.203 484.713L220.842 486.622L221.733 488.425L222.868 490.087L224.22 491.578L226.095 493.1L228.198 494.291L230.468 495.118L232.899 495.565L234.945 495.637L236.927 495.437L238.864 494.974L240.725 494.256L242.827 493.277L244.208 492.577L245.54 491.787L246.819 490.911L248.034 489.952L251.639 486.908L252.355 486.291L253.064 485.664L253.763 485.025L254.45 484.374L259.794 479.235L260.028 479.012L260.342 478.717L264.685 474.699L266.008 473.595L267.438 472.632L268.957 471.821L270.55 471.169L270.813 471.077L273.337 470.419L275.934 470.179L278.535 470.364L281.072 470.969L282.817 471.654L284.471 472.539L286.009 473.611L287.411 474.856L289.926 477.367L290.706 478.174L291.455 479.009L292.173 479.87L292.86 480.756L296.54 485.69L296.937 486.228L297.33 486.768L297.719 487.313L298.102 487.86L301.065 492.123L301.941 493.458L302.746 494.837L303.478 496.257L304.135 497.713L304.998 499.769L305.695 501.706L306.187 503.706L306.47 505.745L306.539 507.803L306.529 508.389L306.339 510.671L305.855 512.908L305.085 515.065L304.043 517.103L302.749 518.984L301.223 520.682L299.491 522.169L297.58 523.42L296.683 523.928L295.035 524.77L293.321 525.467L291.553 526.014L289.745 526.408L284.003 527.403L283.849 527.429L279.257 528.203L276.812 528.695L274.402 529.341L272.038 530.137L269.73 531.082L267.664 532.076L265.662 533.188L263.728 534.414L261.869 535.75L258.476 538.34L258.143 538.596L257.811 538.854L257.48 539.113L257.151 539.375L253.661 542.164L251.905 543.495L250.085 544.736L248.205 545.883L246.268 546.934L243.92 548.045L241.511 549.014L239.049 549.838L236.54 550.513L236.148 550.607L234.163 551.034L232.16 551.374L230.144 551.628L228.12 551.794L223.45 552.076L222.97 552.106L222.491 552.139L222.013 552.173L221.533 552.21L219.794 552.349L216.318 552.697L212.857 553.19L209.42 553.825L206.013 554.602L204.705 554.94L203.404 555.298L202.108 555.677L200.82 556.077L195.415 557.8L194.764 558.011L194.116 558.226L193.468 558.447L192.825 558.674L189.143 559.984L187.067 560.781L185.038 561.682L183.056 562.685L181.127 563.787L178.966 565.183L176.891 566.703L174.908 568.342L173.025 570.094L171.008 572.082L170.407 572.684L169.812 573.293L169.225 573.91L168.646 574.534L165.392 578.084L164.278 579.234L163.1 580.32L161.865 581.34L160.574 582.289L159.107 583.306L157.193 584.486L155.161 585.451L153.035 586.191L150.843 586.695L148.48 586.967L146.103 586.967L143.74 586.694L141.426 586.153L141.146 586.07L139.098 585.354L137.129 584.439L135.261 583.334L133.512 582.051L133.042 581.67L131.362 580.173L129.82 578.53L128.434 576.755L127.214 574.863L126.87 574.276L125.852 572.363L124.978 570.379L124.257 568.334L123.691 566.242L123.538 565.572L123.107 563.331L122.836 561.066L122.724 558.787L122.773 556.505L122.841 555.332L123.024 553.428L123.353 551.544L123.828 549.691L124.442 547.88L125.153 546.03L125.913 544.34L126.863 542.747L127.988 541.274L129.274 539.937L129.812 539.439L131.603 538.031L133.598 536.93L135.744 536.165L137.987 535.757L140.14 535.709L142.279 535.991L144.347 536.596L146.3 537.509L148.224 538.597L149.432 539.335L150.589 540.153L151.688 541.046L152.726 542.012L155.488 544.766L156.567 545.788L157.692 546.756L158.864 547.668L160.079 548.521L161.022 549.148L163.321 550.506L165.752 551.612L168.285 552.452L170.894 553.018L172.925 553.261L174.971 553.338L177.015 553.247L179.044 552.99L181.46 552.582L183.002 552.291L184.532 551.939L186.047 551.527L187.545 551.056L190.037 550.218L191.871 549.565L193.683 548.851L195.468 548.075L197.227 547.238L198.581 546.565L200.525 545.66L202.51 544.855L204.537 544.153L206.592 543.553L209.182 542.957L211.802 542.525L214.448 542.258L217.103 542.159L221.492 542.132L227.981 542.114L229.566 542.048L231.14 541.859L232.694 541.549L234.219 541.118L235.814 540.6L237.855 539.766L239.75 538.639L241.46 537.245L242.941 535.614L244.232 533.667L245.202 531.541L245.828 529.291L246.091 526.97L246.105 526.609L246.037 524.495L245.694 522.408L245.075 520.385L244.198 518.461L243.808 517.742L242.666 515.885L241.316 514.172L239.78 512.624L238.074 511.262L236.908 510.435L235.327 509.402L233.673 508.49L231.956 507.705L230.185 507.051L225.07 505.378L224.807 505.29L224.546 505.199L224.288 505.105L224.03 505.007L220.289 503.102L217.013 500.483L214.331 497.255L212.343 493.527L212.19 493.139L212.053 492.775L211.922 492.409L211.798 492.04L210.17 487.023L209.666 485.275L209.274 483.499L208.999 481.701L208.841 479.889L208.629 476.008L208.514 474.957L208.29 473.924L207.959 472.921L207.523 471.958L205.645 469.415L203.068 467.584L200.047 466.648L196.888 466.7L195.821 466.888L195.198 467.016L194.582 467.179L193.978 467.375L193.383 467.604L185.577 470.871L183.755 471.648L182.052 473L181.28 475.032L181.655 477.173Z" stroke="#6A5FDB"/>
</svg>
