<svg width="406" height="516" viewBox="0 0 406 516" fill="none" xmlns="http://www.w3.org/2000/svg">
<path d="M144.349 450.762L144.497 452.402L144.697 453.66L144.349 454.885L143.519 455.851L142.36 456.378L140.709 456.731L139.47 456.816L138.257 456.551L137.166 455.958L136.285 455.082L133.568 451.487L133.147 450.89L132.762 450.267L132.421 449.621L132.119 448.954L130.218 444.355L129.57 442.858L128.876 441.383L128.131 439.931L127.342 438.504L124.713 433.931L124.433 433.428L124.17 432.916L123.921 432.397L123.688 431.87L122.421 428.883L121.216 426.71L119.585 424.836L117.598 423.343L115.344 422.297L113.656 421.856L111.92 421.667L110.177 421.735L108.463 422.059L105.967 422.722L104.377 423.215L102.834 423.837L101.346 424.582L99.9243 425.447L98.3393 426.501L96.5643 427.772L94.8819 429.16L93.2969 430.66L91.819 432.266L91.3174 432.849L89.9101 434.59L88.6075 436.412L87.4169 438.309L86.3408 440.273L85.7564 441.422L84.9116 443.167L84.1373 444.945L83.4361 446.753L82.8055 448.587L82.2285 450.387L81.6758 452.264L81.2132 454.164L80.8382 456.084L80.5558 458.02L80.4048 459.245L80.2076 461.486L80.1662 463.736L80.2807 465.983L80.5485 468.217L81.0354 470.71L81.7147 473.158L82.5815 475.545L83.6577 477.908L84.729 479.884L85.9001 481.736L87.1905 483.507L88.5929 485.19L89.6326 486.357L90.8864 487.708L92.1964 489.007L93.5574 490.252L94.9671 491.44L99.3448 494.979L99.5639 495.155L99.8561 495.389L106.199 500.446L106.715 500.858L107.236 501.267L107.757 501.674L108.28 502.079L112.799 505.56L113.875 506.365L114.971 507.142L116.086 507.889L117.221 508.606L119.215 509.828L121.236 510.973L123.332 511.976L125.489 512.832L127.702 513.536L130.093 514.115L132.518 514.517L134.968 514.741L137.427 514.785L138.133 514.772L140.117 514.684L142.092 514.494L144.054 514.202L146.002 513.809L148.878 513.151L150.214 512.83L151.546 512.482L152.868 512.107L154.183 511.704L156.769 510.883L158.802 510.284L160.859 509.767L162.933 509.335L165.023 508.987L167.703 508.667L170.396 508.487L173.095 508.447L175.792 508.546L176.938 508.618L178.489 508.734L180.038 508.889L181.581 509.082L183.12 509.313L188.676 510.217L189.154 510.294L189.633 510.37L190.112 510.444L190.591 510.517L195.536 511.266L197.389 511.523L199.248 511.734L201.111 511.898L202.978 512.017L204.114 512.074L206.517 512.149L208.922 512.129L211.324 512.014L213.719 511.804L216.128 511.496L218.523 511.093L220.9 510.594L223.255 510.001L223.704 509.879L225.794 509.271L227.863 508.596L229.909 507.853L231.93 507.044L232.972 506.607L234.902 505.769L236.81 504.883L238.696 503.95L240.558 502.969L241.704 502.347L243.536 501.33L245.347 500.279L247.139 499.193L248.91 498.073L250.82 496.84L252.173 495.945L253.506 495.022L254.819 494.071L256.112 493.091L258.566 491.189L259.868 490.136L261.122 489.028L262.329 487.867L263.485 486.657L264.884 485.127L266.24 483.52L267.463 481.812L268.546 480.011L269.482 478.129L269.614 477.837L270.511 475.537L271.174 473.159L271.598 470.728L271.777 468.266L271.728 466.035L271.478 463.817L271.029 461.631L270.386 459.494L269.87 458.026L269.247 456.389L268.538 454.788L267.746 453.225L266.873 451.707L263.844 446.745L263.701 446.511L263.508 446.199L262.673 444.856L260.632 441.503L258.653 438.113L256.739 434.686L254.89 431.223L254.371 430.229L254.201 429.904L254.029 429.58L253.855 429.257L253.68 428.934L251.447 424.836L250.37 422.98L249.194 421.186L247.923 419.458L246.56 417.801L244.767 415.871L242.849 414.064L240.815 412.388L238.675 410.851L237.883 410.322L236.459 409.406L235.002 408.543L233.516 407.733L232 406.977L229.159 405.623L227.717 404.978L226.246 404.402L224.749 403.895L223.23 403.461L221.589 403.033L219.293 402.551L216.961 402.29L214.615 402.253L212.276 402.44L209.987 402.845L207.746 403.464L205.573 404.293L203.489 405.323L202.669 405.779L200.984 406.788L199.37 407.908L197.835 409.133L196.385 410.458L194.63 412.171L193.489 413.324L192.387 414.516L191.327 415.743L190.309 417.007L188.006 419.965L187.149 421.011L186.24 422.011L185.281 422.964L184.274 423.866L182.522 425.357L180.764 426.674L178.854 427.76L176.824 428.598L174.704 429.176L172.377 429.495L170.027 429.5L167.698 429.19L165.432 428.571L165.079 428.449L163.162 427.664L161.341 426.674L159.642 425.49L158.081 424.127L156.513 422.598L155.422 421.475L154.397 420.294L153.435 419.059L152.542 417.774L150.236 414.251L149.576 413.275L148.89 412.318L148.176 411.381L147.439 410.464L145.905 408.617L144.288 406.833L142.523 405.195L140.621 403.716L138.603 402.406L136.572 401.322L134.461 400.41L132.28 399.674L130.047 399.122L127.444 398.591L126.298 398.373L125.146 398.185L123.989 398.029L122.83 397.903L119.368 397.575L117.433 397.357L115.507 397.072L113.588 396.721L111.601 396.283L108.833 395.552L106.189 394.706L103.589 393.725L101.044 392.614L99.206 391.712L97.4019 390.741L95.6342 389.702L93.908 388.599L91.7946 387.191L90.5334 386.335L89.2868 385.457L88.0573 384.558L86.8399 383.637L85.1404 382.326L83.3606 380.933L81.6052 379.514L79.8692 378.069L78.1551 376.598L77.824 376.308L76.0466 374.737L74.2936 373.141L72.5649 371.52L70.8582 369.875L69.3194 368.369L68.3162 367.378L67.3229 366.377L66.3392 365.367L65.3653 364.347L63.4979 362.368L62.0857 360.837L60.7101 359.272L59.3734 357.675L58.0757 356.046L57.4889 355.291L56.1181 353.466L54.8058 351.598L53.5519 349.689L52.3613 347.741L51.8476 346.871L50.8371 345.085L49.89 343.264L49.0086 341.411L48.1954 339.527L47.7012 338.326L46.9391 336.335L46.2744 334.31L45.7071 332.255L45.2396 330.175L45.1568 329.761L44.7502 327.334L44.4922 324.887L44.3826 322.43L44.4191 319.969L44.5944 317.639L44.9036 315.323L45.3443 313.029L45.9165 310.764L46.0821 310.178L46.7248 308.102L47.465 306.058L48.3001 304.052L49.2302 302.088L49.6319 301.289L50.6643 299.334L51.7745 297.423L52.9602 295.557L54.219 293.74L55.1467 292.456L56.2399 290.982L57.3696 289.534L58.5334 288.115L59.7337 286.724L63.2203 282.777L63.4784 282.487L63.7341 282.198L63.9921 281.909L64.2502 281.621L67.4933 278.014L68.869 276.499L70.2592 274.998L71.6616 273.511L73.0811 272.037L75.0508 270.038L77.0473 268.064L79.0706 266.118L81.1182 264.197L82.8323 262.612L83.4799 262.013L84.1251 261.409L84.7704 260.806L85.4107 260.199L90.2339 255.632L90.7087 255.181L91.1835 254.731L91.6558 254.28L92.1282 253.828L97.8815 248.306L98.1177 248.082L98.4342 247.785L103.873 242.708L104.604 242.077L105.381 241.5L106.199 240.987L107.051 240.534L110.856 238.696L112.086 238.282L113.384 238.189L114.659 238.42L115.84 238.963L117.211 240.205L118.058 241.851L118.27 243.689L117.825 245.484L117.204 246.862L116.612 247.918L115.845 248.853L114.927 249.64L113.885 250.256L109.525 252.34L108.504 252.863L107.513 253.445L106.559 254.081L105.644 254.772L102.223 257.504L101.071 258.446L99.9438 259.42L98.8432 260.421L97.7671 261.451L95.7316 263.447L94.3365 264.794L92.9195 266.116L91.4806 267.414L90.0172 268.687L86.7742 271.465L86.1849 271.978L85.603 272.501L85.0333 273.034L84.4709 273.577L81.8535 276.149L80.3634 277.749L79.0195 279.473L77.8313 281.309L76.8087 283.243L75.864 285.519L75.1506 287.878L74.6758 290.296L74.4397 292.749L74.3252 295.255L74.2912 296.323L74.2887 297.392L74.3155 298.46L74.3715 299.527L74.6101 302.998L74.7148 305.039L74.7513 307.083L74.7172 309.126L74.6125 311.168L74.3618 313.923L73.9844 316.663L73.4804 319.383L72.8522 322.078L71.9806 325.459L71.8978 325.781L71.8175 326.103L71.7371 326.426L71.6592 326.749L70.5319 331.494L70.118 333.507L69.8355 335.541L69.6797 337.59L69.6529 339.645L69.8161 342.333L70.2008 345L70.8046 347.625L71.6495 350.258L72.4164 352.186L73.2734 353.999L74.2352 355.758L75.3016 357.456L76.799 359.688L77.6438 360.915L78.5252 362.119L79.4358 363.298L80.378 364.453L83.1074 367.709L83.9158 368.643L84.7533 369.552L85.6152 370.436L86.5063 371.293L89.7226 374.297L90.7769 375.199L91.9042 376.004L93.0997 376.708L94.3511 377.304L95.028 377.59L97.5601 378.389L100.197 378.694L102.846 378.496L105.407 377.8L107.063 377.051L108.607 376.094L110.014 374.944L111.258 373.622L114.467 369.738L114.776 369.371L115.088 369.008L115.407 368.651L115.731 368.297L116.761 367.189L119.261 364.612L121.866 362.141L124.576 359.784L127.381 357.543L128.703 356.533L129.042 356.273L129.38 356.012L129.716 355.749L130.05 355.485L133.168 353.019L135.065 351.486L136.928 349.911L138.754 348.295L140.543 346.64L142.277 344.963L143.976 343.25L145.634 341.499L147.256 339.713L149.087 337.65L149.791 336.852L150.484 336.048L151.173 335.238L151.855 334.423L155.298 330.27L156.009 329.436L156.747 328.625L157.509 327.836L158.293 327.07L160.898 324.607L162.339 323.375L163.898 322.295L165.558 321.378L167.302 320.634L169.846 319.897L172.47 319.525L175.119 319.528L177.742 319.904L178.216 320.007L179.905 320.449L181.55 321.033L183.14 321.757L184.661 322.613L187.287 324.243L188.575 325.088L189.819 325.997L191.016 326.967L192.163 327.995L192.673 328.477L194.622 330.516L196.349 332.744L197.838 335.139L199.072 337.675L199.751 339.443L200.305 341.253L200.733 343.098L201.032 344.968L201.714 350.439L201.749 350.727L201.794 351.112L202.456 356.98L202.672 358.724L202.928 360.462L203.223 362.195L203.557 363.92L204.011 366.135L204.441 368.041L204.947 369.929L205.526 371.795L206.178 373.637L206.797 375.279L207.552 377.123L208.414 378.92L209.378 380.665L210.441 382.35L210.584 382.562L212.15 384.701L213.884 386.707L215.774 388.567L217.808 390.268L219.511 391.495L221.289 392.61L223.135 393.61L225.041 394.49L227.348 395.467L228.73 396.022L230.132 396.525L231.552 396.974L232.988 397.369L234.146 397.665L236.771 398.221L239.434 398.557L242.115 398.673L244.797 398.566L246.862 398.331L248.909 397.964L250.927 397.466L252.91 396.841L256.399 395.615L257.259 395.306L258.115 394.983L258.965 394.649L259.81 394.301L265.857 391.761L266.47 391.505L267.084 391.249L267.699 390.995L268.314 390.743L275.12 387.96L275.598 387.763L276.075 387.566L276.551 387.366L277.027 387.165L281.793 385.141L283.391 384.436L284.969 383.686L286.526 382.891L288.059 382.054L289.647 381.157L291.513 380.041L293.321 378.834L295.067 377.539L296.747 376.159L297.284 375.695L298.967 374.149L300.554 372.505L302.039 370.768L303.417 368.945L303.731 368.504L304.97 366.628L306.083 364.674L307.063 362.65L307.908 360.566L308.027 360.241L308.76 357.986L309.321 355.682L309.708 353.343L309.919 350.981L309.95 348.565L309.797 346.154L309.461 343.761L308.942 341.402L308.809 340.892L308.21 338.848L307.488 336.844L306.646 334.888L305.686 332.986L305.084 331.88L304.052 330.081L302.939 328.332L301.748 326.636L300.48 324.996L299.52 323.812L298.224 322.281L296.862 320.807L295.437 319.394L293.953 318.044L292.943 317.164L291.275 315.799L289.526 314.537L287.704 313.385L285.815 312.346L285.39 312.128L283.191 311.107L280.921 310.253L278.594 309.573L276.222 309.069L273.849 308.749L271.459 308.605L269.065 308.64L266.68 308.852L265.959 308.943L263.91 309.261L261.882 309.693L259.882 310.237L257.914 310.892L256.176 311.526L254.454 312.188L252.755 312.909L251.082 313.688L249.437 314.524L246.696 315.977L245.414 316.669L244.143 317.38L242.882 318.11L241.632 318.858L236.473 321.997L236.147 322.195L235.82 322.39L235.492 322.584L235.164 322.777L229.512 326.075L228.459 326.652L227.377 327.171L226.267 327.63L225.135 328.029L224.197 328.331L221.239 329.031L218.207 329.255L215.178 328.997L212.228 328.264L210.749 327.7L209.321 327.016L207.955 326.217L206.659 325.308L202.771 322.333L202.144 321.868L201.501 321.424L200.845 321L200.176 320.596L196.434 318.421L194.932 317.381L193.614 316.116L192.512 314.659L191.655 313.045L191.469 312.615L190.799 310.46L190.606 308.212L190.897 305.975L191.661 303.851L192.63 302.242L193.872 300.831L195.345 299.665L197.002 298.78L198.261 298.246L200.078 297.617L201.963 297.241L203.882 297.124L205.799 297.268L209.216 297.761L210.217 297.924L211.211 298.126L212.197 298.366L213.172 298.643L217.064 299.83L218.795 300.29L220.555 300.621L222.334 300.823L224.123 300.895L225.058 300.898L227.469 300.764L229.847 300.348L232.16 299.657L234.375 298.699L236.302 297.595L238.098 296.289L239.743 294.796L241.217 293.136L242.028 292.116L243.124 290.635L244.114 289.081L244.995 287.463L245.76 285.786L247.452 281.714L247.746 280.993L248.03 280.267L248.304 279.538L248.569 278.805L250.1 274.475L250.719 272.809L251.389 271.163L252.109 269.537L252.879 267.935L253.679 266.337L254.694 264.436L255.808 262.59L257.019 260.808L258.322 259.092L258.819 258.473L260.283 256.766L261.854 255.157L263.527 253.655L265.387 252.194L267.476 250.77L269.566 249.56L271.738 248.508L273.982 247.617L276.225 246.908L278.514 246.363L280.835 245.98L283.178 245.766L283.877 245.727L285.965 245.669L288.054 245.725L290.136 245.898L292.206 246.182L294.041 246.489L295.82 246.816L297.587 247.2L299.341 247.643L301.079 248.145L304.474 249.187L305.684 249.567L306.889 249.959L308.089 250.365L309.285 250.787L315.069 252.861L315.557 253.036L316.045 253.209L316.533 253.382L317.022 253.553L322.766 255.554L323.995 255.968L325.233 256.36L326.477 256.727L327.728 257.073L331.219 257.996L332.907 258.398L334.614 258.709L336.335 258.933L338.065 259.065L339.971 259.162L342.05 259.172L344.121 258.997L346.167 258.631L348.172 258.084L349.124 257.777L351.099 257.012L352.975 256.031L354.726 254.84L356.332 253.46L356.794 253.012L358.267 251.386L359.509 249.577L360.496 247.617L361.21 245.54L361.661 243.207L361.769 240.833L361.529 238.469L360.949 236.166L360.8 235.715L360.052 233.826L359.094 232.034L357.939 230.361L356.602 228.83L353.62 225.787L353.159 225.326L352.691 224.871L352.214 224.428L351.729 223.99L348.355 221.01L346.955 219.69L345.644 218.28L344.427 216.79L343.31 215.225L342.706 214.316L341.525 212.339L340.538 210.263L339.755 208.098L339.183 205.868L339.129 205.605L338.779 203.321L338.662 201.013L338.782 198.705L339.135 196.423L339.753 194.079L340.618 191.812L341.721 189.652L343.094 187.556L344.553 185.747L346.125 184.145L347.844 182.701L349.693 181.43L351.213 180.488L352.657 179.643L354.143 178.874L355.666 178.18L357.223 177.566L363.062 175.438L363.229 175.377L368.723 173.354L370.503 172.667L372.26 171.922L373.993 171.124L375.699 170.272L376.806 169.697L378.829 168.582L380.796 167.369L382.701 166.064L384.541 164.667L386.471 163.04L388.312 161.314L390.058 159.493L391.737 157.543L393.158 155.719L394.464 153.869L395.681 151.96L396.808 149.997L397.308 149.079L398.259 147.253L399.148 145.393L399.971 143.506L400.729 141.593L401.481 139.591L402.062 137.97L402.59 136.329L403.067 134.673L403.49 133.003L404.082 130.502L404.453 128.705L404.72 126.889L404.883 125.061L404.94 123.225L404.943 121.954L404.84 119.612L404.52 117.291L403.985 115.01L403.236 112.775L402.241 110.535L401.039 108.417L399.637 106.423L398.049 104.577L396.346 102.943L394.498 101.475L392.52 100.19L390.341 99.055L388.084 98.1273L385.841 97.448L383.544 96.9854L381.213 96.7371L380.9 96.72L378.604 96.7006L376.316 96.9051L374.06 97.3336L371.771 98.0153L369.468 98.9551L367.362 100.095L365.389 101.453L363.571 103.014L361.943 104.743L360.507 106.634L359.278 108.667L358.271 110.82L357.488 112.755L356.998 114.043L356.564 115.353L356.186 116.678L355.865 118.019L355.046 121.803L354.705 123.3L354.332 124.79L353.929 126.271L353.494 127.744L352.801 130.006L352.131 132.029L351.369 134.018L350.519 135.971L349.581 137.884L348.897 139.204L347.944 140.918L346.894 142.576L345.75 144.171L344.517 145.698L343.54 146.84L342.108 148.376L340.554 149.788L338.887 151.066L337.12 152.203L336.063 152.822L334.242 153.764L332.332 154.507L330.354 155.047L328.33 155.378L326.75 155.551L324.897 155.629L323.05 155.456L321.244 155.035L319.51 154.378L317.938 153.654L316.358 152.734L314.984 151.529L313.865 150.083L313.045 148.449L312.481 146.211L312.473 143.903L313.023 141.661L314.097 139.618L314.642 138.832L315.303 137.967L316.043 137.174L316.857 136.453L317.736 135.815L321.601 133.28L322.711 132.443L323.699 131.464L324.549 130.364L325.245 129.161L325.533 128.576L326.27 126.468L326.478 124.245L326.145 122.037L325.291 119.974L324.234 118.472L322.9 117.213L321.343 116.242L319.624 115.597L316.036 114.65L315.116 114.43L314.186 114.262L313.249 114.143L312.306 114.073L308.648 113.892L306.74 113.676L304.878 113.208L303.092 112.5L301.415 111.565L299.425 110.016L297.73 108.149L296.382 106.018L295.42 103.686L295.008 102.378L294.628 100.983L294.359 99.5638L294.202 98.1249L294.158 96.6811L294.179 94.39L294.124 92.1816L293.921 89.9806L293.571 87.7991L293.076 85.6468L292.394 83.083L292.045 81.8339L291.666 80.5946L291.256 79.3627L290.816 78.1428L290.365 76.9376L289.397 74.2034L288.531 71.4326L287.768 68.6327L287.11 65.8059L286.729 63.9019L286.395 61.9907L286.108 60.0721L285.869 58.1462L285.502 54.8471L285.353 53.6005L285.187 52.3563L285.001 51.1122L284.798 49.8753L284.363 47.3505L283.925 45.0861L283.391 42.8462L282.763 40.6281L282.041 38.4393L281.145 36.08L280.141 33.7621L279.031 31.4953L277.817 29.2821L277.538 28.8001L276.487 27.0543L275.378 25.3451L274.212 23.6749L272.991 22.046L272.14 20.9479L270.817 19.2996L269.441 17.6927L268.014 16.132L266.537 14.6176L265.561 13.6486L264.083 12.2437L262.549 10.8997L260.96 9.62146L259.318 8.41137L258.152 7.58846L256.423 6.43926L254.633 5.39229L252.785 4.45003L250.887 3.6125L250.252 3.35442L248.012 2.53633L245.717 1.89111L243.38 1.41633L241.014 1.11929L238.609 1L236.201 1.06327L233.805 1.30679L231.434 1.73043L231.122 1.79858L228.952 2.34639L226.823 3.03787L224.744 3.86815L222.725 4.83229L221.346 5.54565L219.747 6.41488L218.185 7.34738L216.661 8.34322L215.177 9.39745L211.2 12.3435L210.752 12.6771L210.305 13.0155L209.86 13.354L209.416 13.6948L207.977 14.8075L205.285 16.8649L202.569 18.8906L199.829 20.8822L197.065 22.8398L195.268 24.0985L194.962 24.3128L194.658 24.527L194.354 24.7437L194.051 24.9629L189.245 28.4275L188.034 29.3381L186.864 30.2999L185.734 31.3103L184.649 32.367L182.729 34.3148L181.433 35.7561L180.274 37.3095L179.262 38.9603L178.361 40.7985L177.395 43.4573L176.821 46.1136L176.605 48.8235L176.75 51.5382L177.096 53.5518L177.641 55.5191L178.38 57.4231L179.306 59.2442L180.264 60.9169L181.207 62.4533L182.242 63.9312L183.363 65.3433L184.568 66.6849L188.055 70.3443L188.408 70.712L188.764 71.0772L189.123 71.44L189.484 71.8003L193.273 75.5547L194.441 76.7599L195.561 78.0089L196.63 79.2993L197.648 80.6336L198.679 82.0385L199.959 83.9278L201.096 85.9048L202.083 87.9622L202.917 90.0853L203.65 92.4884L204.186 94.9427L204.521 97.431L204.653 99.9388L204.657 100.348L204.617 102.422L204.448 104.492L204.15 106.547L203.725 108.58L203.352 110.123L202.852 112.013L202.273 113.878L201.616 115.718L200.88 117.527L200.159 119.203L199.35 121.007L198.489 122.784L197.575 124.537L196.611 126.263L195.307 128.52L194.511 129.874L193.696 131.218L192.863 132.55L192.011 133.87L189.672 137.436L189.035 138.398L188.387 139.35L187.729 140.297L187.062 141.24L184.278 145.113L183.491 146.17L182.67 147.197L181.812 148.198L180.922 149.167L178.389 151.833L177.185 152.99L175.881 154.034L174.488 154.955L173.018 155.746L172.276 156.101L169.866 157.029L167.339 157.557L164.76 157.669L162.197 157.365L160.357 156.878L158.59 156.174L156.92 155.269L155.366 154.168L153.06 152.318L152.026 151.449L151.035 150.528L150.088 149.562L149.189 148.549L147.945 147.081L146.453 145.094L145.201 142.944L144.208 140.665L143.485 138.286L143.09 136.2L142.905 134.084L142.932 131.961L143.168 129.852L143.567 127.396L143.821 126.015L144.132 124.647L144.502 123.293L144.926 121.954L146.696 116.753L146.922 116.091L147.156 115.431L147.392 114.774L147.633 114.119L149.313 109.605L149.917 107.961L150.506 106.313L151.086 104.66L151.651 103.002L152.384 100.82L152.995 98.9625L153.579 97.0999L154.137 95.2251L154.67 93.3455L155.293 91.0763L155.734 89.4085L156.14 87.7333L156.51 86.0509L156.846 84.3612L157.314 81.8631L157.623 80.0347L157.862 78.194L158.032 76.3484L158.132 74.4956L158.198 72.5867L158.208 70.5707L158.098 68.5572L157.864 66.5534L157.514 64.5691L157.2 63.0595L156.71 61.1214L156.065 59.2296L155.264 57.3987L154.317 55.6384L153.472 54.2165L152.41 52.6363L151.178 51.1852L149.793 49.8802L148.269 48.7383L147.115 47.9713L145.367 46.9974L143.489 46.3108L141.527 45.9237L139.484 45.8531L137.135 46.1696L134.926 46.9049L132.893 48.0371L131.104 49.5247L129.823 51.0318L128.796 52.724L128.048 54.5549L127.598 56.4808L127.162 59.3733L127.016 60.5517L126.935 61.7326L126.921 62.9183L126.974 64.104L127.279 68.4087L127.34 69.9085L127.306 71.4107L127.177 72.9057L126.953 74.3909L126.597 76.3484L126.069 78.4569L125.27 80.4753L124.211 82.372L122.916 84.1153L121.272 85.7855L119.412 87.2074L117.369 88.3518L115.185 89.1966L114.947 89.2697L112.906 89.7664L110.825 90.0099L108.726 90.0025L106.644 89.7445L105.437 89.518L103.508 89.07L101.626 88.4516L99.8074 87.67L98.0617 86.7302L96.5473 85.8245L94.933 84.7946L93.3821 83.6697L91.9018 82.4548L90.4945 81.1546L88.7268 79.4186L87.5508 78.2281L86.4114 76.9985L85.3133 75.7349L84.2542 74.4371L81.2326 70.6097L80.7749 70.0278L80.3221 69.441L79.8716 68.8542L79.4236 68.265L77.2396 65.3652L75.8445 63.5343L74.4275 61.7204L72.991 59.9236L71.5326 58.1413L69.8916 56.1862L68.2237 54.253L66.534 52.3393L64.8175 50.4499L63.605 49.1327L62.6482 48.0979L61.6864 47.068L60.7198 46.043L59.7459 45.0228L56.3299 41.4608L55.6482 40.7547L54.964 40.0535L54.275 39.3572L53.5835 38.6632L50.1238 35.2205L49.0963 34.2198L48.0445 33.241L46.9707 32.2891L45.8751 31.3614L43.3503 29.2724L41.9649 28.1865L40.5235 27.176L39.0261 26.2484L37.4849 25.4011L35.4178 24.3371L33.7305 23.5653L31.98 22.9542L30.1807 22.5062L28.3497 22.2262L26.7404 22.0558L24.7633 21.9827L22.796 22.1799L20.8726 22.6498L19.0343 23.3754L18.097 23.8234L16.378 24.8363L14.8587 26.1291L13.5878 27.6679L12.5506 29.5061L11.7617 31.8094L11.4988 34.1151L11.7276 36.4257L12.4361 38.6365L13.5318 40.5648L14.9902 42.2326L16.7554 43.5742L18.7543 44.5335L20.3369 45.1056L21.9074 45.5755L23.5191 45.8726L25.1529 45.9894L26.7915 45.9261L29.4867 45.6753L31.2787 45.6072L33.0658 45.7314L34.831 46.0479L36.55 46.5543L37.2074 46.7856L39.5253 47.8423L41.624 49.2861L43.4428 51.0708L44.9231 53.1428L45.8361 54.9688L46.4862 56.9045L46.8587 58.9107L46.9488 60.9486L46.866 64.2891L46.8222 65.2897L46.7394 66.288L46.6177 67.2814L46.4594 68.2699L45.9311 71.2184L45.5732 73.5363L45.3273 75.8712L45.1958 78.2159L45.1788 80.563L45.2835 83.0343L45.5172 85.4982L45.8751 87.9452L46.3572 90.3726L46.5081 91.0398L46.9878 92.9997L47.5405 94.9378L48.1638 96.8564L48.8577 98.7506L49.3519 100.031L50.1652 102.013L51.0538 103.959L52.0229 105.867L53.0649 107.735L53.3376 108.2L54.6159 110.265L55.9964 112.261L57.4743 114.187L59.0496 116.035L60.6955 117.781L62.429 119.444L64.2405 121.019L66.1299 122.502L66.5145 122.789L68.2992 124.062L70.135 125.26L72.0195 126.383L73.9479 127.425L74.5809 127.751L76.6383 128.761L78.7321 129.694L80.8601 130.549L83.0198 131.323L83.6601 131.54L85.7686 132.214L87.8941 132.823L90.0416 133.366L92.2037 133.84L94.3243 134.271L95.8485 134.571L97.38 134.846L98.9139 135.099L100.45 135.33L106.182 136.146L106.586 136.202L106.99 136.263L107.394 136.326L107.796 136.39L113.208 137.249L114.886 137.556L116.546 137.936L118.192 138.391L119.814 138.917L122.701 140.061L125.484 141.439L128.148 143.036L130.673 144.845L131.174 145.237L132.236 146.094L133.271 146.986L134.274 147.908L135.248 148.865L138.795 152.466L139.462 153.158L140.107 153.869L140.736 154.597L141.347 155.344L143.57 158.465L145.447 161.799L146.964 165.314L148.098 168.971L148.325 169.821L148.571 170.666L148.839 171.504L149.126 172.336L151.475 178.861L151.651 179.319L151.843 179.77L152.052 180.215L152.276 180.649L152.763 181.542L153.915 184.71L154.085 188.075L153.255 191.342L151.502 194.22L151.027 194.751L150.521 195.252L149.983 195.72L149.418 196.153L148.137 197.071L145.371 198.78L142.396 200.097L139.27 200.993L136.049 201.454L133.444 201.648L133.168 201.67L132.562 201.721L128.141 202.284L123.778 203.187L119.5 204.429L115.331 206.002L115.02 206.133L114.706 206.262L114.392 206.389L114.078 206.513L108.407 208.751L107.031 209.262L105.636 209.715L104.224 210.112L102.795 210.448L99.4982 210.993L96.165 211.227L92.827 211.149L89.5084 210.754L87.6166 210.44L87.1321 210.357L86.65 210.27L86.1679 210.177L85.6883 210.077L80.1005 208.899L78.6201 208.595L77.135 208.305L75.6473 208.027L74.1597 207.764L70.9068 207.207L69.2342 206.939L67.5542 206.705L65.8718 206.506L64.1845 206.343L61.6864 206.126L59.7873 205.999L57.8857 205.946L55.9818 205.968L54.0802 206.063L52.7022 206.16L50.4695 206.382L48.2539 206.739L46.0626 207.229L43.8518 207.864L41.4292 208.731L39.1211 209.741L36.8884 210.908L34.7409 212.225L32.8711 213.549L31.0864 214.986L29.3967 216.534L27.8043 218.185L27.0496 219.018L25.7616 220.506L24.5369 222.049L23.3804 223.641L22.2945 225.285L20.8215 227.615L20.0374 228.888L19.2754 230.176L18.5377 231.479L17.8267 232.796L15.5405 237.13L15.1144 237.934L14.6834 238.735L14.25 239.536L13.8142 240.332L10.8341 245.744L10.4177 246.497L9.99651 247.244L9.56799 247.989L9.13704 248.732L6.33466 253.521L5.73327 254.585L5.16352 255.668L4.62787 256.766L4.12632 257.881L2.75799 261.052L2.0933 262.802L1.58688 264.606L1.24357 266.449L1.06827 268.314L1.00009 269.641L1.0366 271.794L1.36043 273.922L1.96425 275.988L2.83589 277.955L4.10197 279.977L5.65049 281.791L7.44975 283.357L9.51444 284.668L11.4501 285.561L13.4247 286.184L15.4601 286.554L17.5272 286.667L18.8785 286.656L20.7995 286.555L22.706 286.285L24.5807 285.848L26.4068 285.247L28.245 284.552L29.9737 283.841L31.6586 283.034L33.2947 282.131L34.8773 281.137L36.5232 280.036L38.1375 278.909L39.7079 277.72L41.2272 276.47L42.6977 275.161L44.7089 273.301L45.8021 272.271L46.8782 271.222L47.9325 270.153L48.9697 269.067L52.1811 265.641L52.8726 264.908L53.5665 264.178L54.2653 263.45L54.9665 262.727L55.6141 262.06L57.988 259.647L60.3863 257.258L62.8088 254.899L65.2582 252.562L65.7159 252.131L66.5584 251.337L67.4057 250.548L68.2529 249.759L69.1051 248.975L69.5483 248.566L72.039 246.256L74.5079 243.921L76.9523 241.559L79.3725 239.175L80.5874 237.968L81.0135 237.542L81.4372 237.115L81.8608 236.687L82.2796 236.256L85.7004 232.738L86.9738 231.467L88.2861 230.232L89.635 229.039L91.0179 227.885L91.6631 227.364L93.723 225.784L95.8558 224.309L98.0593 222.94L100.331 221.684L102.174 220.725L103.25 220.194L104.351 219.707L105.468 219.271L106.605 218.882L112.249 217.087L112.875 216.931L113.515 216.856L114.16 216.861L114.842 216.958L116.892 217.869L118.319 219.544L118.893 221.669L118.499 223.834L118.022 224.706L117.384 225.465L116.607 226.084L115.723 226.539L109.464 229.008L109.081 229.161L108.704 229.322L108.331 229.492L107.961 229.668L106.788 230.24L103.535 231.964L100.406 233.902L97.414 236.049L94.5751 238.391L94.2123 238.713L93.5428 239.312L92.8854 239.92L92.2353 240.541L91.5974 241.169L87.5801 245.189L86.7863 245.978L85.9902 246.764L85.1891 247.546L84.3857 248.325L81.1523 251.442L80.0761 252.476L78.9927 253.506L77.9068 254.534L76.8184 255.554L72.4456 259.642L72.1729 259.895L71.9027 260.148L71.63 260.401L71.3597 260.655L67.4592 264.27L66.125 265.519L64.8029 266.783L63.493 268.056L62.1928 269.342L59.9918 271.543L58.9595 272.591L57.9442 273.655L56.9435 274.734L55.9623 275.828L53.9244 278.133L52.6802 279.493L51.3874 280.807L50.0483 282.075L48.6653 283.294L46.3645 285.142L43.9614 286.856L41.4658 288.431L38.8825 289.861L36.0363 291.334L35.7952 291.459L35.5566 291.584L35.3204 291.711L35.0818 291.839L30.3535 294.403L28.7515 295.36L27.2322 296.444L25.8078 297.649L24.4858 298.967L23.7626 299.75L22.3286 301.508L21.1185 303.428L20.1543 305.481L19.4482 307.638L19.0051 309.91L18.8493 312.22L18.9832 314.532L19.4044 316.808L19.6406 317.753L20.1616 319.516L20.8239 321.231L21.6274 322.885L22.5623 324.467L25.5887 329.136L25.7567 329.393L25.9831 329.733L27.4099 331.865L29.2506 334.726L30.9866 337.652L32.6179 340.639L34.1371 343.683L34.7483 344.985L35.3375 346.297L35.9072 347.617L36.455 348.946L37.9524 352.647L38.4978 353.962L39.0651 355.267L39.6543 356.562L40.2654 357.847L41.5583 360.51L42.4421 362.238L43.3941 363.928L44.4167 365.578L45.505 367.185L46.0845 368.007L47.5113 369.9L49.05 371.704L50.6935 373.411L52.4368 375.016L54.3115 376.542L56.2764 377.949L58.3265 379.233L60.4496 380.388L62.8649 381.608L63.8047 382.073L64.7542 382.521L65.7111 382.954L66.6752 383.37L71.3841 385.354L72.5089 385.867L73.6046 386.443L74.6637 387.082L75.6863 387.78L78.9634 390.161L80.0664 391.104L81.0062 392.209L81.761 393.449L82.3113 394.792L82.7446 397.265L82.4914 399.762L81.5711 402.098L80.0518 404.097L79.5186 404.63L78.7467 405.327L77.9117 405.943L77.0181 406.473L76.0758 406.911L72.5113 408.358L70.9263 409.132L69.463 410.117L68.1507 411.293L67.0112 412.639L65.7646 414.724L64.9344 417.007L64.5521 419.405L64.6276 421.833L64.798 423.166L65.0902 424.57L65.6015 425.909L66.3149 427.152L67.2182 428.267L69.1246 429.797L71.3695 430.764L73.7896 431.096L76.2146 430.77L77.1715 430.506L78.5447 430.025L79.84 429.364L81.033 428.534L82.1018 427.55L86.2604 423.175L86.499 422.922L86.7328 422.666L86.9665 422.408L87.1954 422.148L90.4555 418.407L91.8214 416.942L93.2798 415.568L94.8259 414.294L96.4499 413.124L97.4092 412.479L99.3058 411.329L101.3 410.356L103.372 409.57L105.51 408.976L106.734 408.695L108.641 408.363L110.574 408.232L112.51 408.306L114.428 408.583L117.116 409.334L119.663 410.484L122.005 412.006L124.155 413.933L125.438 415.398L126.517 416.907L127.442 418.513L128.204 420.203L128.521 421.002L129.56 423.274L130.836 425.421L132.336 427.42L134.04 429.247L134.245 429.445L135.854 430.863L137.578 432.137L139.406 433.256L141.325 434.211L145.208 435.938L145.715 436.168L146.219 436.402L146.72 436.643L147.219 436.889L151.132 438.848L153.041 439.721L155.008 440.459L157.019 441.059L159.069 441.516L161.746 441.892L164.447 442.027L167.149 441.918L169.83 441.566L170.301 441.483L172.116 441.108L173.906 440.631L175.667 440.053L177.392 439.376L178.864 438.75L180.843 437.843L182.769 436.828L184.637 435.709L186.439 434.488L188.532 432.877L190.512 431.128L192.371 429.251L194.1 427.254L196.839 423.869L200.153 419.802L201.631 418.171L203.27 416.702L205.053 415.412L206.961 414.314L209.249 413.318L211.638 412.598L214.094 412.166L216.67 412.026L218.867 412.135L220.959 412.447L223.011 412.961L225.003 413.671L226.242 414.181L228.043 414.997L229.783 415.935L231.454 416.99L233.049 418.159L233.834 418.777L235.597 420.285L237.231 421.932L238.725 423.706L240.069 425.597L241.312 427.695L242.37 429.892L243.235 432.172L243.919 434.591L244.374 436.868L244.641 439.099L244.736 441.343L244.659 443.589L244.613 444.225L244.378 446.432L243.998 448.618L243.473 450.774L242.806 452.891L242.52 453.704L241.751 455.715L240.874 457.681L239.892 459.597L238.809 461.458L238.125 462.562L237.027 464.26L235.864 465.913L234.637 467.521L233.349 469.079L232.407 470.173L231.015 471.743L229.577 473.271L228.094 474.755L226.567 476.194L225.828 476.87L224.145 478.359L222.413 479.79L220.634 481.162L218.787 482.488L216.63 483.924L214.441 485.261L212.202 486.512L209.917 487.675L207.856 488.631L205.764 489.515L203.642 490.326L201.495 491.065L200.579 491.362L198.582 491.982L196.569 492.549L194.543 493.064L192.503 493.526L190.541 493.943L188.82 494.296L187.094 494.623L185.363 494.925L183.628 495.2L179.333 495.851L178.416 495.992L177.5 496.138L176.584 496.29L175.669 496.446L174.781 496.601L171.364 497.235L167.963 497.948L164.579 498.739L161.214 499.607L160.725 499.74L159.646 500.037L158.568 500.344L157.494 500.661L156.425 500.987L152.206 502.294L150.74 502.725L149.26 503.111L147.77 503.451L146.27 503.747L143.957 504.165L141.863 504.475L139.75 504.647L137.634 504.681L135.518 504.577L134.415 504.487L132.331 504.23L130.276 503.805L128.262 503.214L126.302 502.46L125.185 501.978L123.369 501.081L121.652 500.003L120.055 498.756L118.592 497.353L117.803 496.513L116.5 494.935L115.419 493.2L114.572 491.339L113.975 489.382L113.846 488.826L113.518 486.686L113.53 484.52L113.878 482.383L114.557 480.327L115.592 478.331L116.936 476.53L118.553 474.97L120.403 473.693L120.909 473.4L122.641 472.541L124.467 471.902L126.356 471.495L128.282 471.325L133.87 471.18L134.03 471.176L139.864 471.064L141.654 470.926L143.414 470.58L145.126 470.033L146.759 469.29L147.996 468.64L149.693 467.547L151.176 466.177L152.401 464.571L153.326 462.776L153.455 462.461L154.085 460.318L154.261 458.091L153.976 455.875L153.243 453.765L151.928 450.961L151.534 450.305L151.015 449.743L150.392 449.3L149.691 448.993L148.159 448.502L146.513 448.455L145.096 449.295L144.349 450.762Z" stroke="#FF5053"/>
</svg>
