<svg width="456" height="475" viewBox="0 0 456 475" fill="none" xmlns="http://www.w3.org/2000/svg">
<path d="M385.7 23.992L385.667 22.1847L385.638 20.5612L385.622 18.9377L385.621 17.3159L385.634 15.6923L385.679 12.1636V12.0536L385.691 7.79642L385.806 6.56978L386.143 5.38263L386.688 4.27625L387.425 3.28669L387.547 3.15095L388.878 2.01881L390.464 1.28521L392.187 1L393.924 1.18727L394.991 1.55149L395.978 2.09782L396.858 2.80565L397.6 3.65603L398.494 4.87755L399.215 6.00969L399.789 7.22433L400.205 8.50254L400.456 9.82195L400.621 11.1328L400.73 12.4367V13.7441L400.624 15.0481L400.408 16.34L399.801 19.228L399.67 19.8224L399.53 20.4117L399.378 21.001L399.215 21.5851L398.753 23.1932L398.233 25.1087L397.765 27.0397L397.355 28.9828L396.999 30.9379L396.777 32.3535L396.587 33.7726L396.423 35.1968L396.289 36.6227L395.977 40.392L395.963 40.5518L395.946 40.7631L395.446 46.9875L395.427 47.2159L395.408 47.4462L395.389 47.6764L395.37 47.9066L395.003 52.2995L394.92 53.2925L394.843 54.2872L394.769 55.282L394.699 56.275L394.482 59.3863L394.424 60.2607L394.369 61.1335L394.316 62.0079L394.266 62.8807L394.139 65.2257L394.056 66.6053L393.958 67.9849L393.846 69.3627L393.719 70.7388L393.456 73.424L393.384 74.1181L393.3 74.8104L393.204 75.5028L393.097 76.1917L392.536 79.6501L392.408 80.6173L392.341 81.5914L392.336 82.5655L392.391 83.5396L392.53 85.1288L392.773 86.6286L393.23 88.0768L393.895 89.4427L394.75 90.6985L395.839 91.8719L397.095 92.8632L398.488 93.6518L399.987 94.217L400.249 94.2926L401.672 94.6104L403.124 94.741L404.581 94.6825L406.019 94.4369L406.907 94.2256L408.23 93.8442L409.511 93.3408L410.74 92.7206L411.904 91.9887L413.614 90.7999L414.394 90.2347L415.151 89.642L415.887 89.0217L416.598 88.3741L418.797 86.2936L419.5 85.6493L420.218 85.0223L420.953 84.4158L421.706 83.8299L423.241 82.6669L424.453 81.813L425.721 81.0468L427.04 80.3699L428.402 79.7858L428.791 79.6363L430.366 79.1037L431.984 78.7103L433.63 78.4629L435.291 78.3599L436.963 78.4028L438.626 78.5952L440.265 78.932L441.921 79.4319L443.483 80.0469L444.936 80.7668L446.324 81.6051L447.639 82.5569L447.879 82.7459L449.078 83.7767L450.181 84.9089L451.183 86.1321L452.076 87.436L452.928 88.9685L453.629 90.5731L454.174 92.2395L454.566 94.0194L454.777 95.5948L454.853 97.1153L454.808 98.6357L454.64 100.148L454.389 101.804L454.214 102.834L454.002 103.857L453.755 104.872L453.47 105.877L452.427 109.332L452.257 109.887L452.083 110.442L451.905 110.995L451.722 111.546L450.597 114.915L450.243 115.927L449.86 116.929L449.451 117.919L449.015 118.898L448.35 120.334L447.659 121.714L446.888 123.05L446.038 124.335L445.072 125.615L443.871 127.012L442.615 128.275L441.27 129.443L439.844 130.511L438.499 131.382L437.101 132.166L435.652 132.857L434.164 133.451L433.137 133.824L431.947 134.231L430.741 134.592L429.521 134.906L428.291 135.174L424.683 135.889L424.358 135.952L424.033 136.016L423.707 136.076L423.382 136.136L420.149 136.722L418.714 136.987L417.283 137.258L415.851 137.536L414.421 137.823L412.281 138.26L411.416 138.437L410.554 138.615L409.693 138.799L408.831 138.983L405.087 139.796L404.467 139.931L403.847 140.069L403.227 140.208L402.608 140.35L398.765 141.239L397.961 141.417L397.154 141.586L396.343 141.74L395.53 141.883L394.085 142.127L392.247 142.393L390.398 142.57L388.543 142.661L386.686 142.665L385.134 142.599L383.587 142.474L382.047 142.287L380.515 142.039L377.194 141.436L377.008 141.402L376.823 141.367L376.637 141.333L376.452 141.297L372.664 140.572L371.372 140.333L370.076 140.11L368.779 139.902L367.479 139.71L365.381 139.433L363.28 139.198L361.174 139.002L359.066 138.847L358.497 138.811L357.469 138.751L356.442 138.699L355.413 138.655L354.386 138.62L350.211 138.495L349.902 138.483L349.592 138.469L349.283 138.45L348.974 138.43L343.945 138.055L343.365 138.045L342.788 138.096L342.219 138.212L341.666 138.387L340.061 139.347L338.888 140.802L338.29 142.574L338.341 144.441L338.657 145.968L338.7 146.161L338.748 146.353L338.802 146.542L338.86 146.731L339.628 149.09L340.063 150.823L340.255 152.601L340.202 154.388L339.903 156.151L339.48 157.548L338.903 158.889L338.18 160.157L337.317 161.336L336.804 161.963L335.819 163.045L334.732 164.024L333.552 164.89L332.291 165.634L331.56 166.016L330.265 166.595L328.908 167.009L327.509 167.249L326.092 167.314L325.4 167.302L323.958 167.167L322.555 166.806L321.225 166.23L320 165.456L318.76 164.337L317.741 163.014L316.976 161.528L316.492 159.93L316.452 159.745L316.268 158.367L316.282 156.977L316.492 155.605L316.896 154.275L317.772 151.985L318.019 151.268L318.217 150.535L318.363 149.791L318.459 149.037L318.629 147.202L318.605 145.681L318.256 144.2L317.598 142.828L316.664 141.629L315.408 140.6L313.951 139.885L312.37 139.521L310.749 139.526L307.41 139.923L307.093 139.959L303.851 140.381L300.626 140.902L297.417 141.52L294.228 142.237L293.996 142.292L293.689 142.364L291.969 142.768L289.598 143.299L287.219 143.78L284.829 144.213L282.432 144.594L281.443 144.747L280.455 144.907L279.467 145.075L278.483 145.252L274.351 146.013L274.026 146.077L273.705 146.144L273.384 146.217L273.064 146.296L269.836 147.126L268.525 147.575L267.3 148.226L266.194 149.059L265.206 150.088L264.206 151.588L263.552 153.225L263.244 154.96L263.297 156.723L263.579 158.036L264.06 159.29L264.732 160.454L265.575 161.499L266.17 162.128L267.249 163.128L268.446 163.978L269.745 164.667L271.121 165.181L272.363 165.554L273.523 165.856L274.701 166.071L275.894 166.198L277.091 166.237L281.127 166.217L281.316 166.215L281.506 166.213L281.695 166.21L281.886 166.206L284.678 166.143L286.521 166.127L288.365 166.16L290.206 166.244L292.045 166.378L293.618 166.533L295.187 166.723L296.752 166.952L298.31 167.217L299.241 167.385L300.592 167.641L301.939 167.919L303.28 168.216L304.617 168.536L305.498 168.754L307.05 169.151L308.594 169.577L310.13 170.029L311.657 170.51L312.506 170.785L313.817 171.223L315.117 171.688L316.409 172.18L317.691 172.697L318.425 173.003L319.936 173.657L321.428 174.358L322.898 175.104L324.347 175.892L325.001 176.264L326.209 176.97L327.392 177.715L328.55 178.5L329.684 179.32L330.526 179.952L331.701 180.876L332.833 181.854L333.917 182.885L334.953 183.964L335.63 184.704L336.551 185.773L337.408 186.894L338.197 188.066L338.913 189.283L339.412 190.186L340.063 191.497L340.604 192.858L341.028 194.258L341.336 195.689L341.401 196.069L341.599 197.749L341.614 199.441L341.449 201.125L341.106 202.783L340.613 204.322L339.967 205.803L339.173 207.212L338.238 208.531L337.654 209.271L336.847 210.234L335.981 211.144L335.062 212L334.091 212.799L331.258 214.982L330.968 215.204L330.674 215.425L330.378 215.644L330.083 215.86L328.258 217.181L326.707 218.339L325.187 219.538L323.7 220.779L322.249 222.06L321.16 223.069L320.091 224.101L319.045 225.156L318.021 226.233L316.153 228.238L315.76 228.656L315.361 229.07L314.961 229.48L314.556 229.886L312.291 232.124L311.374 232.985L310.415 233.799L309.415 234.564L308.378 235.277L307.22 236.029L305.985 236.759L304.693 237.38L303.351 237.888L301.971 238.28L301.322 238.435L299.788 238.709L298.233 238.811L296.676 238.737L295.11 238.481L293.472 238.015L291.935 237.362L290.488 236.528L289.155 235.519L288.014 234.42L287.008 233.195L286.152 231.861L285.458 230.437L285.274 229.997L284.771 228.614L284.401 227.188L284.166 225.735L284.071 224.264L284.047 222.936L284.058 221.708L284.137 220.481L284.281 219.262L284.492 218.052L285.307 214.034L285.35 213.821L285.41 213.539L286.279 209.447L286.509 208.244L286.69 207.033L286.82 205.815L286.899 204.592L286.965 203.159L286.977 201.709L286.882 200.262L286.684 198.824L286.38 197.407L286.193 196.658L285.753 195.21L285.18 193.808L284.475 192.468L283.645 191.202L283.384 190.841L282.393 189.624L281.273 188.525L280.036 187.559L278.646 186.711L277.102 185.993L275.536 185.487L273.923 185.178L272.283 185.067L270.662 185.154L269.065 185.434L267.512 185.905L266.027 186.558L265.746 186.702L264.435 187.463L263.208 188.355L262.078 189.368L261.059 190.492L260.246 191.485L259.507 192.445L258.824 193.447L258.2 194.486L257.637 195.56L255.939 199.042L255.819 199.29L255.7 199.539L255.582 199.788L255.467 200.037L254.048 203.106L253.415 204.423L252.747 205.725L252.046 207.009L251.309 208.272L250.273 209.931L249.177 211.551L248.023 213.13L246.813 214.668L246.679 214.833L245.806 215.875L244.91 216.898L243.989 217.898L243.044 218.877L240.417 221.535L240.276 221.679L240.134 221.821L239.991 221.964L239.848 222.108L236.93 225.026L236.115 225.859L235.323 226.711L234.552 227.582L233.801 228.472L232.854 229.621L231.923 230.808L231.05 232.037L230.234 233.305L229.48 234.61L229.267 234.997L228.508 236.486L227.838 238.017L227.259 239.584L226.771 241.183L226.369 242.858L226.07 244.554L225.872 246.265L225.78 247.992L225.79 249.663L225.897 251.326L226.101 252.981L226.4 254.62L226.477 254.981L226.838 256.489L227.273 257.98L227.779 259.447L228.358 260.887L228.85 262.03L229.358 263.167L229.898 264.289L230.468 265.395L231.071 266.486L232.669 269.286L232.954 269.783L233.243 270.276L233.533 270.771L233.827 271.262L235.577 274.174L236.168 275.172L236.746 276.177L237.311 277.191L237.861 278.211L238.563 279.538L239.257 280.888L239.915 282.254L240.536 283.639L241.121 285.039L241.336 285.573L241.915 287.083L242.446 288.612L242.924 290.158L243.351 291.718L243.449 292.098L243.819 293.661L244.133 295.237L244.387 296.822L244.583 298.417L244.623 298.795L244.758 300.41L244.827 302.03L244.829 303.651L244.764 305.272L244.736 305.703L244.604 307.275L244.399 308.839L244.124 310.392L243.779 311.93L243.618 312.577L243.217 314.023L242.74 315.445L242.188 316.839L241.563 318.203L241.233 318.876L240.515 320.222L239.708 321.517L238.816 322.754L237.842 323.929L237.484 324.332L236.381 325.479L235.187 326.531L233.911 327.483L232.561 328.326L232.234 328.513L230.812 329.239L229.329 329.831L227.798 330.286L226.233 330.598L225.639 330.688L224.172 330.836L222.698 330.833L221.23 330.681L219.787 330.38L219.483 330.301L217.848 329.757L216.298 329.008L214.857 328.064L213.549 326.942L212.453 325.731L211.513 324.394L210.745 322.952L210.16 321.426L209.814 320.331L209.496 319.194L209.254 318.038L209.089 316.869L209.002 315.692L208.859 312.274L208.833 311.745L208.802 311.216L208.765 310.688L208.72 310.16L208.5 307.724L208.314 306.06L208.057 304.405L207.729 302.763L207.332 301.136L206.846 299.461L206.284 297.81L205.65 296.185L204.942 294.584L204.198 293.084L203.394 291.622L202.53 290.196L201.606 288.806L201.257 288.305L200.41 287.129L199.529 285.982L198.611 284.862L197.659 283.771L196.696 282.7L195.845 281.773L194.978 280.861L194.093 279.964L193.194 279.082L191.591 277.543L190.824 276.811L190.05 276.086L189.272 275.368L188.487 274.655L186.518 272.88L185.743 272.176L184.979 271.463L184.221 270.741L183.472 270.01L182.904 269.45L181.51 268.039L180.151 266.593L178.832 265.11L177.55 263.596L176.645 262.474L175.758 261.335L174.894 260.181L174.052 259.009L172.733 257.138L172.25 256.448L171.769 255.754L171.295 255.058L170.824 254.359L168.766 251.285L168.35 250.674L167.924 250.071L167.488 249.474L167.041 248.885L165.342 246.681L164.521 245.681L163.643 244.734L162.708 243.843L161.721 243.01L160.954 242.401L159.656 241.47L158.271 240.671L156.816 240.012L155.302 239.498L155.02 239.417L153.478 239.063L151.906 238.874L150.323 238.852L148.746 238.998L147.049 239.348L145.405 239.891L143.835 240.622L142.357 241.529L142.142 241.678L140.996 242.556L139.933 243.534L138.962 244.604L138.091 245.757L137.17 247.095L136.557 248.033L135.985 248.997L135.458 249.986L134.977 250.998L134.178 252.775L133.695 253.996L133.324 255.255L133.071 256.542L132.932 257.92L132.949 259.887L133.226 261.758L133.757 263.576L134.53 265.304L135.222 266.464L136.023 267.549L136.925 268.554L137.919 269.465L139.405 270.697L140.239 271.357L141.099 271.978L141.989 272.561L142.903 273.102L145.891 274.786L146.456 275.098L147.023 275.408L147.595 275.708L148.169 276.005L151.61 277.756L152.371 278.148L153.129 278.545L153.883 278.947L154.636 279.356L157.055 280.68L158.096 281.268L159.125 281.878L160.138 282.512L161.136 283.168L162.504 284.089L163.652 284.898L164.761 285.753L165.835 286.657L166.868 287.605L167.445 288.157L168.569 289.299L169.62 290.509L170.597 291.78L171.525 293.158L172.427 294.694L173.197 296.233L173.858 297.822L174.411 299.451L174.841 301.054L175.164 302.68L175.38 304.325L175.492 306.059L175.499 307.786L175.401 309.431L175.203 311.066L174.905 312.686L174.862 312.881L174.468 314.476L173.982 316.045L173.405 317.583L172.742 319.085L172.644 319.289L171.898 320.749L171.073 322.166L170.173 323.537L169.201 324.857L168.989 325.127L167.983 326.357L166.918 327.538L165.797 328.667L164.626 329.741L164.047 330.248L162.947 331.174L161.819 332.062L160.659 332.91L159.47 333.717L157.62 334.928L156.879 335.407L156.132 335.877L155.378 336.338L154.62 336.79L152.249 338.183L151.241 338.785L150.241 339.4L149.251 340.03L148.269 340.673L147.898 340.92L146.224 342.065L144.58 343.253L142.97 344.485L141.393 345.76L140.326 346.662L139.277 347.583L138.244 348.524L137.227 349.483L134.992 351.634L134.643 351.968L134.291 352.298L133.937 352.626L133.58 352.951L130.913 355.358L130.048 356.103L129.146 356.806L128.213 357.465L127.247 358.079L125.655 359.039L124.51 359.658L123.313 360.168L122.073 360.565L120.803 360.844L119.719 361.029L118.3 361.171L116.876 361.112L115.472 360.854L114.12 360.402L112.596 359.614L111.225 358.58L110.05 357.329L109.1 355.899L108.859 355.459L108.327 354.348L107.915 353.187L107.628 351.989L107.47 350.767L107.233 347.616L107.183 347.029L107.119 346.442L107.042 345.857L106.951 345.274L106.398 341.952L106.241 340.817L106.152 339.674L106.128 338.529L106.171 337.383L106.428 335.252L106.916 333.161L107.626 331.134L108.552 329.197L109.248 327.922L109.493 327.461L109.73 326.996L109.957 326.527L110.175 326.053L110.789 324.681L111.634 322.706L112.412 320.704L113.124 318.678L113.768 316.629L114.142 315.359L114.316 314.765L114.484 314.17L114.649 313.574L114.809 312.977L116.044 308.305L116.146 307.921L116.247 307.537L116.35 307.153L116.455 306.769L117.516 302.848L117.772 301.879L118.016 300.906L118.25 299.93L118.472 298.953L118.745 297.719L119.106 295.963L119.417 294.199L119.678 292.426L119.887 290.646L120.033 289.021L120.138 287.391L120.202 285.76L120.221 284.128L120.219 281.292V280.912L120.224 280.532L120.229 280.153L120.239 279.771L120.315 276.959L120.406 275.334L120.586 273.717L120.858 272.111L121.219 270.523L121.71 268.828L122.303 267.163L122.997 265.538L123.787 263.957L124.354 262.907L124.842 261.973L125.302 261.026L125.739 260.066L126.149 259.095L127.471 255.845L127.709 255.273L127.96 254.704L128.221 254.142L128.493 253.584L130.048 250.476L130.479 249.509L130.826 248.509L131.083 247.481L131.252 246.435L131.436 244.851L131.47 243.363L131.231 241.895L130.726 240.494L129.972 239.211L128.805 237.912L127.386 236.897L125.782 236.208L124.067 235.882L123.315 235.823L122.167 235.799L121.025 235.912L119.903 236.16L118.819 236.538L115.324 237.993L115.02 238.122L114.718 238.256L114.419 238.392L114.12 238.532L110.909 240.072L109.712 240.627L108.499 241.152L107.274 241.645L106.037 242.108L104.81 242.549L103.453 243.068L102.118 243.64L100.807 244.269L99.5239 244.947L98.6065 245.458L97.3695 246.191L96.172 246.992L95.0227 247.856L93.9214 248.782L93.3494 249.291L92.2069 250.385L91.1486 251.563L90.1831 252.816L89.3121 254.137L88.4445 255.718L87.716 257.365L87.1285 259.068L86.6886 260.815L86.3674 262.363L86.2179 263.144L86.0873 263.928L85.9774 264.716L85.8881 265.507L85.6476 267.919L85.474 269.326L85.2335 270.724L84.926 272.111L84.5532 273.478L83.9227 275.359L83.1702 277.194L82.2957 278.974L81.3045 280.692L80.8045 281.494L80.296 282.292L79.7668 283.073L79.2171 283.841L78.6485 284.595L76.6263 287.207L76.1075 287.858L75.5664 288.492L75.008 289.11L74.4308 289.71L73.2333 290.916L71.9637 292.079L70.5893 293.117L69.1239 294.022L67.5793 294.783L66.0709 295.362L64.5179 295.805L62.9322 296.109L61.3241 296.273L59.7813 296.359L58.7918 296.396L57.8022 296.398L56.811 296.362L55.8231 296.29L53.7924 296.104L52.3922 295.936L51.0024 295.689L49.6297 295.362L48.2776 294.958L47.886 294.828L46.2315 294.208L44.6304 293.459L43.0961 292.586L41.6341 291.591L41.4056 291.423L40.2649 290.514L39.1929 289.524L38.1947 288.463L37.2738 287.331L35.9304 285.547L35.4132 284.925L34.8394 284.353L34.2158 283.84L33.5458 283.388L31.4876 282.134L30.4619 281.678L29.3539 281.501L28.2371 281.613L27.1875 282.008L26.1618 282.764L25.399 283.786L24.9678 284.985L24.9026 286.279L25.1362 287.344L25.6103 288.303L26.3027 289.119L27.1703 289.744L31.0358 291.868L33.7914 293.376L35.2054 294.29L36.4698 295.4L37.559 296.685L38.4472 298.114L39.0502 299.47L39.4729 300.891L39.71 302.355L39.7546 303.838L39.6756 306.133L39.6378 306.863L39.5725 307.591L39.4815 308.317L39.3647 309.038L38.8097 312.095L38.6311 313.219L38.5005 314.35L38.4181 315.485L38.3837 316.623L38.3699 318.267L38.4181 319.687L38.5864 321.097L38.8716 322.488L39.2718 323.851L39.5364 324.627L40.0983 326.015L40.8112 327.33L41.6685 328.557L42.6563 329.68L42.78 329.805L44.0393 330.924L45.4378 331.865L46.9479 332.613L48.5439 333.154L50.0729 333.461L51.6278 333.579L53.186 333.504L54.7235 333.239L57.7593 332.519L58.029 332.454L58.2987 332.385L58.5684 332.313L58.8365 332.239L63.5249 330.905L64.2121 330.704L64.8959 330.491L65.5761 330.266L66.2513 330.031L67.2581 329.67L69.2561 328.885L71.1992 327.977L73.0821 326.95L74.8998 325.807L75.5955 325.338L76.3102 324.876L77.0404 324.44L77.7877 324.032L78.5488 323.651L80.5399 322.701L81.8508 322.161L83.2114 321.766L84.6065 321.52L86.0203 321.427L86.5083 321.421L88.149 321.521L89.7587 321.855L91.305 322.416L92.7532 323.193L94.083 324.177L95.258 325.343L96.2511 326.666L97.0431 328.119L97.3712 328.84L97.8557 330.056L98.2268 331.311L98.4793 332.595L98.6116 333.897L98.7405 336.227L98.8074 337.162L98.9088 338.094L99.0429 339.022L99.2095 339.945L99.9448 343.64L100.036 344.227L100.075 344.821L100.063 345.415L99.9998 346.006L99.7162 347.883L99.2181 349.367L98.2491 350.597L96.9194 351.425L95.3903 351.755L94.2925 351.666L93.2498 351.318L92.3203 350.729L91.5592 349.935L89.0457 346.583L88.9186 346.417L88.7451 346.199L86.7024 343.714L85.584 342.48L84.3522 341.361L83.0156 340.366L81.5914 339.506L80.0692 338.78L78.4835 338.206L76.8497 337.791L75.1832 337.539L74.4479 337.464L73.1216 337.372L71.7919 337.364L70.4639 337.441L69.1444 337.602L66.3699 338.031L65.6947 338.152L65.0264 338.305L64.3667 338.489L63.7156 338.705L61.0595 339.654L59.9652 340.158L58.9774 340.847L58.1269 341.699L57.438 342.688L56.7766 344.293L56.5412 346.013L56.7474 347.737L57.3847 349.353L57.6115 349.764L58.2248 350.706L58.9688 351.549L59.8295 352.273L60.7864 352.863L63.4132 354.226L64.1073 354.567L64.8151 354.877L65.5367 355.155L66.2703 355.401L69.3043 356.342L70.3144 356.676L71.3108 357.046L72.2953 357.453L73.2625 357.894L74.6953 358.58L76.0508 359.295L77.3445 360.115L78.5694 361.034L79.717 362.048L80.0468 362.362L81.1515 363.523L82.1412 364.783L83.0087 366.131L83.7457 367.554L84.39 369.168L84.8642 370.84L85.1648 372.551L85.2903 374.285L85.2953 374.561L85.2662 376.046L85.1167 377.524L84.847 378.985L84.4604 380.42L83.8196 382.46L83.5516 383.275L83.2613 384.083L82.9486 384.882L82.6153 385.673L81.5003 388.212L81.0382 389.302L80.6018 390.402L80.1912 391.513L79.8081 392.632L79.5177 393.513L79.0024 395.208L78.5643 396.926L78.2035 398.661L77.9217 400.411L77.731 402.045L77.6073 403.684L77.5541 405.328L77.5696 406.972L77.6056 408.12L77.6554 409.325L77.7328 410.529L77.8393 411.731L77.9716 412.93L78.2996 415.624L78.3993 416.485L78.4852 417.348L78.5591 418.212L78.6209 419.077L78.736 420.912L78.8048 422.548L78.803 424.185L78.7326 425.82L78.5901 427.451L78.3563 429.218L78.042 430.971L77.6451 432.708L77.1675 434.424L77.049 434.816L76.6074 436.184L76.1213 437.536L75.5904 438.871L75.0149 440.187L74.4101 441.507L73.8707 442.652L73.3106 443.788L72.7265 444.911L72.12 446.023L71.4088 447.301L70.7009 448.548L69.9759 449.784L69.2304 451.008L68.4693 452.222L67.9144 453.091L67.1035 454.332L66.2685 455.556L65.4061 456.762L64.5196 457.951L63.9304 458.724L63.0301 459.874L62.0972 460.998L61.1351 462.097L60.1421 463.17L59.3965 463.955L58.3966 464.969L57.359 465.946L56.2869 466.884L55.1823 467.782L54.1119 468.619L53.0537 469.405L51.9559 470.135L50.822 470.809L49.6537 471.423L48.5474 471.969L47.2039 472.566L45.8157 473.052L44.3932 473.425L42.9449 473.68L42.0808 473.797L40.6188 473.917L39.1533 473.884L37.6981 473.698L36.2705 473.362L35.5043 473.138L34.1334 472.638L32.8414 471.962L31.6474 471.122L30.5754 470.132L30.4293 469.98L29.3779 468.677L28.5481 467.224L27.9606 465.656L27.6307 464.014L27.5603 462.537L27.7011 461.064L28.0464 459.626L28.5928 458.251L29.1408 457.116L29.6802 456.098L30.297 455.126L30.9894 454.205L31.7505 453.34L34.1368 450.834L34.4959 450.451L34.8498 450.063L35.1968 449.669L35.5386 449.271L37.5092 446.933L38.3321 445.869L39.0674 444.741L39.7065 443.557L40.2442 442.324L40.5759 441.474L41.0397 440.031L41.3266 438.543L41.4332 437.031L41.3593 435.517L41.0552 433.827L40.526 432.195L39.7787 430.649L38.8063 429.188L37.827 428.047L36.7516 427.052L35.5679 426.185L34.2948 425.458L32.6851 424.657L31.7986 424.241L30.8914 423.868L29.9689 423.538L29.0326 423.252L26.167 422.453L25.2444 422.183L24.3304 421.889L23.4216 421.573L22.5231 421.234L20.9047 420.6L19.4616 419.981L18.0597 419.27L16.7076 418.471L15.4089 417.588L15.1546 417.402L13.861 416.385L12.6446 415.276L11.5142 414.081L10.4731 412.806L10.272 412.538L9.3804 411.261L8.59183 409.92L7.90632 408.522L7.33255 407.075L7.15732 406.583L6.7106 405.111L6.39447 403.606L6.21408 402.078L6.16944 400.54L6.1746 400.186L6.2811 398.581L6.5543 396.996L6.98725 395.447L7.57651 393.95L8.35991 392.451L9.29962 391.045L10.3854 389.749L11.6052 388.577L11.7427 388.46L12.9453 387.518L14.2303 386.691L15.5858 385.987L17.0015 385.412L18.4308 384.908L19.4702 384.567L20.525 384.272L21.5902 384.025L22.6657 383.826L25.7272 383.329L26.5003 383.196L27.2699 383.05L28.0379 382.89L28.8024 382.716L31.3502 382.113L32.6215 381.772L33.8705 381.355L35.092 380.865L36.2826 380.302L37.5487 379.657L38.717 378.991L39.8182 378.221L40.8421 377.352L41.7819 376.391L42.3815 375.719L43.2989 374.54L44.0513 373.249L44.6235 371.869L45.0083 370.426L45.2076 368.729L45.1457 367.021L44.8261 365.342L44.2524 363.732L44.1682 363.542L43.5102 362.273L42.7028 361.092L41.7595 360.017L40.6944 359.064L38.6843 357.473L38.1483 357.061L37.5985 356.666L37.0367 356.287L36.4647 355.926L34.6968 354.848L33.2537 353.931L31.8449 352.962L30.474 351.942L29.1391 350.873L27.8472 349.757L26.5948 348.594L25.387 347.385L24.2222 346.134L23.6845 345.534L22.8255 344.543L22.0008 343.525L21.2088 342.479L20.4512 341.409L19.6884 340.292L18.9153 339.094L18.2058 337.856L17.5632 336.583L16.9877 335.277L16.3108 333.438L15.7696 331.554L15.3659 329.636L15.0962 327.658L14.9897 326.229L14.957 324.831L14.9965 323.434L15.1048 322.041L15.4071 319.128L15.4621 318.566L15.5119 318.003L15.5549 317.439L15.591 316.875L15.6785 315.373L15.7438 313.283L15.6923 311.193L15.524 309.109L15.2405 307.038L15.0017 305.74L14.7165 304.451L14.3866 303.174L14.0121 301.909L13.3026 299.655L13.0397 298.769L12.8078 297.872L12.6068 296.968L12.4367 296.058L12.155 294.39L11.9591 292.792L11.9093 291.184L12.0072 289.576L12.2494 287.985L12.6738 286.298L13.2614 284.661L14.0069 283.089L14.9037 281.598L15.2474 281.087L16.0325 280.012L16.8983 279L17.8398 278.06L18.8535 277.196L19.3173 276.832L20.7347 275.847L22.2568 275.036L23.8649 274.413L25.5347 273.983L26.0793 273.877L27.4211 273.693L28.7731 273.659L30.1218 273.775L31.4481 274.043L33.2984 274.688L35.0198 275.622L36.5694 276.821L37.9043 278.254L39.3371 280.067L39.4935 280.251L39.6619 280.424L39.8423 280.586L40.033 280.733L40.8593 281.331L42.3127 281.874L43.8418 281.603L45.0169 280.589L45.5134 279.118L45.5375 278.868L45.5855 278.619L45.6543 278.375L45.7419 278.137L46.1834 277.102L47.355 275.09L48.9837 273.425L50.9697 272.214L53.1946 271.527L54.6669 271.265L54.825 271.24L57.5858 270.81L59.5065 270.394L61.3653 269.759L63.1384 268.912L64.7996 267.864L65.8974 267.008L66.9196 266.065L67.8611 265.041L68.7149 263.943L70.5601 261.356L70.8058 261.006L71.048 260.653L71.2868 260.298L71.5187 259.94L72.9257 257.755L73.8759 256.345L74.886 254.975L75.9529 253.651L77.0765 252.373L78.2636 251.131L79.504 249.942L80.7959 248.806L82.1325 247.727L83.4296 246.729L84.1358 246.191L84.8504 245.666L85.5737 245.15L86.3039 244.647L88.4479 243.19L89.4856 242.498L90.5353 241.824L91.5953 241.166L92.7188 240.498L94.619 239.426L96.495 238.438L98.4003 237.508L100.331 236.634L101.536 236.126L102.749 235.638L103.97 235.172L105.198 234.73L106.083 234.421L107.641 233.861L109.189 233.275L110.725 232.664L112.253 232.025L114.577 231.03L115.046 230.825L115.513 230.619L115.981 230.408L116.446 230.195L119.372 228.833L120.54 228.257L121.683 227.632L122.798 226.955L123.882 226.232L125.138 225.352L126.211 224.543L127.223 223.66L128.172 222.706L129.051 221.689L129.685 220.897L130.58 219.652L131.336 218.318L131.946 216.911L132.401 215.448L132.609 214.626L132.865 213.264L132.946 211.881L132.855 210.498L132.59 209.137L132.396 208.397L131.891 206.971L131.15 205.652L130.195 204.477L129.055 203.482L127.642 202.635L126.096 202.064L124.471 201.79L122.825 201.82L122.392 201.869L121.138 202.09L119.923 202.47L118.767 203.001L117.687 203.676L114.561 205.914L114.386 206.042L114.154 206.213L111.294 208.364L110.047 209.23L108.738 209.998L107.375 210.665L105.965 211.225L105.628 211.345L104.04 211.826L102.417 212.159L100.769 212.343L99.1115 212.374L98.9157 212.367L97.33 212.25L95.7632 211.984L94.2272 211.574L92.736 211.022L91.1692 210.258L89.6866 209.338L88.3071 208.272L87.0013 207.023L85.9636 205.834L85.072 204.611L84.2886 203.313L83.6203 201.954L82.9967 200.539L82.5792 199.534L82.203 198.513L81.8679 197.477L81.5776 196.428L80.7427 193.169L80.5761 192.535L80.4008 191.902L80.2153 191.274L80.0228 190.648L79.1673 187.946L78.724 186.676L78.2069 185.432L77.6177 184.223L76.9562 183.051L76.4408 182.192L75.5955 180.919L74.6403 179.725L73.5838 178.622L72.4224 177.607L70.9655 176.559L69.4176 175.676L67.7873 174.96L66.0916 174.415L64.602 174.09L63.0885 173.9L61.5647 173.845L60.0408 173.925L58.5977 174.068L57.4826 174.202L56.3763 174.386L55.2768 174.618L54.191 174.899L49.8582 176.126L49.6916 176.172L45.9806 177.208L44.5616 177.585L43.1339 177.925L41.6977 178.229L40.2546 178.495L39.6138 178.605L38.004 178.853L36.3891 179.045L34.7673 179.184L33.1403 179.267L32.7555 179.279L31.1595 179.303L29.5634 179.268L27.9692 179.172L26.38 179.017L25.7358 178.942L24.2565 178.739L22.786 178.471L21.3291 178.143L19.8877 177.751L19.1884 177.545L17.7161 177.069L16.2713 176.513L14.8591 175.879L13.483 175.167L13.1462 174.982L11.7306 174.14L10.3716 173.209L9.07631 172.192L7.84963 171.094L7.47853 170.738L6.44436 169.682L5.48393 168.557L4.60434 167.369L3.80545 166.124L3.27633 165.232L2.62522 164.019L2.08234 162.753L1.65111 161.444L1.33497 160.104L1.21127 159.451L1.01032 157.876L1 156.288L1.18211 154.711L1.55321 153.167L2.1373 151.61L2.91555 150.14L3.87246 148.781L4.99265 147.552L5.24857 147.305L6.33606 146.355L7.51466 145.518L8.76878 144.802L10.0899 144.214L12.5054 143.28L13.1222 143.049L13.7459 142.835L14.3746 142.634L15.0069 142.45L16.4946 142.034L18.4016 141.465L20.288 140.835L22.1537 140.141L23.9937 139.385L25.0125 138.945L25.8199 138.593L26.6205 138.229L27.4177 137.856L28.2097 137.471L29.9809 136.6L31.3897 135.939L32.8225 135.329L34.2759 134.772L35.7483 134.269L37.5264 133.74L39.3268 133.289L41.1445 132.918L42.9759 132.626L43.7851 132.515L44.9361 132.37L46.0889 132.25L47.2451 132.157L48.4048 132.09L50.6313 131.985L51.7858 131.939L52.9403 131.905L54.0948 131.882L55.251 131.876L59.0203 131.87H59.412H59.8037H60.1954L60.5871 131.872L66.2273 131.898L66.4472 131.9H66.6671L66.887 131.901L67.1069 131.903L73.4257 131.951L73.6009 131.953L79.7102 131.994L80.052 131.996H80.3939H80.7358L81.0777 131.994L85.6149 131.961L86.4327 131.97L87.2522 132.001L88.0699 132.059L88.8843 132.142L90.628 132.345L92.291 132.621L93.9197 133.056L95.5003 133.643L97.0173 134.38L98.402 135.224L99.7043 136.193L100.91 137.275L102.011 138.466L104.238 141.108L104.374 141.27L108.695 146.494L112.204 150.741L112.634 151.263L113.065 151.787L113.493 152.313L113.921 152.839L117.065 156.721L117.226 156.921L117.386 157.12L117.547 157.319L117.707 157.518L120.552 161.058L121.121 161.762L121.691 162.466L122.265 163.167L122.841 163.868L124.426 165.787L125.246 166.772L126.074 167.747L126.911 168.718L127.754 169.68L128.702 170.752L129.661 171.819L130.635 172.872L131.625 173.912L132.628 174.937L133.162 175.473L134.312 176.609L135.485 177.72L136.679 178.808L137.895 179.871L138.206 180.138L139.438 181.17L140.694 182.173L141.97 183.151L143.269 184.098L143.754 184.443L145.004 185.309L146.278 186.144L147.571 186.946L148.884 187.716L149.208 187.9L150.712 188.724L152.242 189.501L153.795 190.227L155.371 190.904L156.96 191.53L158.568 192.102L160.192 192.626L161.832 193.096L162.36 193.239L163.76 193.6L165.169 193.928L166.584 194.223L168.007 194.488L169.168 194.689L170.543 194.916L171.922 195.12L173.303 195.304L174.686 195.466L176.197 195.631L177.468 195.759L178.741 195.869L180.016 195.962L181.29 196.038L183.476 196.149L184.532 196.191L185.591 196.206L186.647 196.197L187.704 196.161L189.992 196.058L191.205 195.971L192.411 195.82L193.608 195.603L194.792 195.323L196.222 194.943L197.579 194.512L198.89 193.955L200.142 193.277L201.324 192.483L201.846 192.095L203.061 191.066L204.135 189.891L205.05 188.59L205.792 187.181L206.394 185.551L206.761 183.852L206.889 182.118L206.765 180.308L206.459 178.722L205.987 177.257L205.344 175.858L204.542 174.544L203.882 173.595L203.119 172.577L202.284 171.615L201.384 170.716L200.422 169.883L199.109 168.826L198.079 168.033L197.015 167.287L195.921 166.588L194.796 165.938L193.15 165.035L192.103 164.476L191.043 163.942L189.971 163.432L188.889 162.949L185.376 161.427L185.073 161.295L184.771 161.162L184.47 161.028L184.171 160.894L180.698 159.324L179.619 158.81L178.559 158.259L177.521 157.666L176.507 157.037L175.214 156.201L174.023 155.369L172.893 154.459L171.829 153.473L170.836 152.414L170.156 151.636L169.269 150.523L168.49 149.334L167.823 148.076L167.277 146.762L166.801 145.456L166.452 144.269L166.253 143.048L166.208 141.811L166.316 140.577L166.356 140.32L166.816 138.519L167.624 136.846L168.749 135.367L170.146 134.14L171.152 133.513L172.23 133.018L173.362 132.666L174.53 132.46L177.698 132.107L178.26 132.052L178.822 132.011L179.385 131.985L179.95 131.975L185.683 131.939L191.772 131.906L192.16 131.903H192.548L192.935 131.901H193.323H199.158H199.348H199.603L205.997 131.889H206.206H206.485L212.513 131.865H212.826L213.14 131.869L213.453 131.874L213.766 131.881L218.58 132.011L219.282 132.058L219.98 132.157L220.669 132.31L221.344 132.515L223.149 133.14L224.526 133.829L225.678 134.851L226.527 136.134L227.015 137.595L227.121 138.627L227.046 139.663L226.792 140.668L226.364 141.615L224.259 145.355L224.166 145.523L224.044 145.747L222.689 148.327L221.9 149.973L221.23 151.67L220.684 153.412L220.249 155.261L219.992 156.793L219.837 158.266L219.774 159.747L219.799 161.226L219.853 162.315L219.973 163.674L220.2 165.021L220.531 166.345L220.966 167.639L221.325 168.582L221.918 169.912L222.658 171.168L223.533 172.331L224.534 173.389L225.125 173.949L226.199 174.831L227.384 175.557L228.657 176.112L229.994 176.489L230.746 176.645L232.122 176.808L233.505 176.729L234.854 176.413L236.129 175.867L237.445 174.98L238.56 173.851L239.427 172.523L240.025 171.017L240.304 169.603L240.331 168.196L240.115 166.804L239.663 165.471L238.787 163.483L238.438 162.75L238.05 162.038L237.62 161.35L237.151 160.688L235.254 158.163L234.734 157.362L234.327 156.496L234.042 155.584L233.882 154.642L233.798 153.785L233.853 152.28L234.308 150.846L235.131 149.585L236.259 148.588L237.445 147.99L238.735 147.69L240.061 147.702L241.348 148.026L243.922 149.013L244.496 149.215L245.081 149.385L245.676 149.523L246.277 149.626L246.65 149.679L249.016 149.822L251.373 149.569L253.654 148.932L255.8 147.925L256.096 147.757L256.748 147.358L257.381 146.929L257.99 146.468L258.576 145.977L259.348 145.298L260.978 143.977L262.711 142.795L264.536 141.759L266.446 140.874L267.654 140.409L268.874 140.009L270.113 139.668L271.365 139.392L274.976 138.691L275.275 138.632L275.574 138.577L275.871 138.522L276.172 138.469L278.139 138.127L280.235 137.753L282.328 137.363L284.417 136.956L286.514 136.53L287.793 136.267L289.057 136.014L290.323 135.769L291.591 135.528L292.268 135.401L294.036 135.076L295.805 134.762L297.577 134.459L299.35 134.169L302.488 133.666L302.638 133.642L306.969 132.951L308.163 132.771L309.36 132.607L310.56 132.461L311.76 132.333L313.966 132.142L316.177 132.011L318.39 131.941L320.603 131.931L322.649 131.948L322.842 131.949H323.036L323.228 131.951H323.42L328.068 131.96L328.983 131.963L329.899 131.97L330.815 131.979L331.729 131.992L335.489 132.049L336.125 132.058L336.762 132.066L337.398 132.071L338.034 132.077L340.066 132.089L341.846 132.094L343.624 132.087L345.404 132.07L347.184 132.039L350.065 131.982L350.276 131.979L350.488 131.973L350.699 131.97L350.91 131.967L354.851 131.906L356.1 131.898L357.349 131.912L358.598 131.948L359.846 132.004L362.008 132.154L364.165 132.369L366.314 132.649L368.453 132.994L370.454 133.348L370.695 133.389L370.935 133.43L371.177 133.47L371.42 133.508L376.249 134.265L376.977 134.356L377.711 134.401H378.445L379.178 134.355L380.113 134.267L381.741 133.965L383.289 133.375L384.708 132.522L385.952 131.429L387.119 130.393L388.442 129.568L389.885 128.976L391.407 128.635L391.84 128.575L393.092 128.481L394.346 128.534L395.585 128.738L396.789 129.087L399.055 129.895L399.952 130.188L400.864 130.432L401.787 130.628L402.718 130.776L404.203 130.97L405.787 131.073L407.372 130.968L408.929 130.659L410.489 130.127L411.959 129.405L413.267 128.524L414.444 127.474L415.471 126.277L415.67 126.01L416.472 124.763L417.093 123.416L417.519 121.995L417.742 120.53L417.766 120.233L417.768 118.688L417.524 117.163L417.041 115.695L416.332 114.323L415.395 113.062L414.268 111.967L412.978 111.071L411.561 110.394L410.896 110.139L409.668 109.746L408.403 109.488L407.118 109.37L405.83 109.394L402.373 109.645L401.991 109.669L401.61 109.688L401.227 109.701L400.846 109.71L397.648 109.751L396.284 109.691L394.936 109.476L393.621 109.11L392.357 108.595L392.132 108.488L390.639 107.635L389.295 106.563L388.132 105.296L387.175 103.867L386.547 102.558L386.091 101.177L385.82 99.7472L385.736 98.2955L385.762 94.4111L385.765 90.1247L385.774 88.8379L385.798 87.5529L385.837 86.2661L385.892 84.981L385.975 82.8421L386.014 80.6998L386.012 78.5591L385.968 76.4168L385.911 74.6198L385.899 74.2298L385.885 73.8398L385.87 73.4515L385.854 73.0615L385.835 72.6183L385.736 69.8008L385.669 66.9833L385.636 64.164V61.3465V61.1111L385.64 60.6163L385.641 60.1198V59.6251V59.1285L385.629 54.3645V53.8114V53.2564L385.631 52.7015L385.634 52.1466L385.662 47.4582L385.664 46.9256L385.665 46.393V45.8587V45.3261L385.655 39.6344V39.5021L385.643 34.9133L385.641 33.788L385.646 32.6645L385.658 31.5392L385.674 30.4156L385.691 29.4192L385.712 27.6101L385.715 25.8011L385.7 23.992Z" stroke="#6A5FDB" stroke-width="1.42848"/>
</svg>
