<svg width="666" height="377" viewBox="0 0 666 377" fill="none" xmlns="http://www.w3.org/2000/svg">
<path d="M469.046 146.349L469.382 148.148L469.335 148.907L469.32 149.077L469.045 151.124L468.545 152.329L467.511 153.125L466.219 153.301L465.011 152.811L464.336 152.447L463.584 152.303L462.822 152.391L462.122 152.701L461.592 153.04L460.608 153.993L460.074 155.253L460.074 156.622L460.608 157.884L460.924 158.345L461.294 159.016L461.529 159.745L461.62 160.505L461.565 161.267L461.432 162.046L460.938 163.602L460.036 164.966L458.799 166.031L457.316 166.719L456.107 167.088L455.665 167.209L455.217 167.305L454.764 167.374L454.308 167.417L452.494 167.538L450.659 167.732L448.845 168.068L447.061 168.545L445.253 169.184L444.047 169.695L442.935 170.237L441.852 170.833L440.8 171.482L437.965 173.332L437.719 173.491L437.474 173.649L437.227 173.805L436.979 173.961L432.397 176.821L432.198 176.947L431.999 177.072L431.799 177.199L431.602 177.326L428.95 179.033L427.777 179.822L426.641 180.664L425.543 181.555L424.483 182.491L423.204 183.74L421.997 185.058L420.863 186.44L419.806 187.882L418.913 189.178L418.562 189.703L418.225 190.236L417.904 190.78L417.599 191.333L416.275 193.807L415.664 194.808L414.942 195.733L414.12 196.57L413.207 197.306L412.531 197.792L411.342 198.496L410.049 198.985L408.692 199.243L407.31 199.264L407.09 199.247L405.733 199.02L404.442 198.544L403.262 197.84L402.191 196.884L401.303 195.739L400.687 194.491L400.327 193.149L400.233 191.763L400.402 190.424L400.822 189.143L401.476 187.963L402.341 186.929L403.404 185.878L404.104 185.244L404.857 184.673L405.657 184.169L406.497 183.737L409.807 182.215L410.219 182.022L410.626 181.825L411.033 181.619L411.434 181.411L412.637 180.77L414.461 179.761L416.248 178.692L417.999 177.563L419.711 176.377L420.631 175.702L421.539 175.01L422.434 174.302L423.316 173.578L424.313 172.743L425.408 171.812L426.487 170.864L427.551 169.898L428.601 168.916L428.818 168.709L429.995 167.567L431.149 166.401L432.279 165.213L433.387 164.004L433.53 163.843L434.507 162.732L435.464 161.603L436.397 160.456L437.309 159.291L437.542 158.985L438.476 157.741L439.379 156.476L440.255 155.191L441.102 153.886L441.976 152.467L442.816 151.024L443.62 149.564L444.39 148.083L445.39 146.098L445.594 145.7L445.803 145.301L446.015 144.905L446.232 144.512L447.656 141.95L448.32 140.841L449.051 139.776L449.847 138.759L450.706 137.793L450.99 137.492L452.188 136.336L453.487 135.291L454.875 134.369L456.339 133.575L457.684 132.989L459.071 132.512L460.492 132.147L461.937 131.895L463.885 131.636L464.644 131.526L465.401 131.395L466.154 131.243L466.903 131.073L467.931 130.824L469.74 130.309L471.501 129.647L473.204 128.843L474.835 127.904L475.918 127.174L476.958 126.384L477.953 125.536L478.897 124.634L480.232 123.283L480.886 122.582L481.498 121.845L482.066 121.072L482.588 120.269L483.046 119.516L483.839 118.005L484.428 116.403L484.806 114.738L484.964 113.039L484.932 111.664L484.756 110.299L484.439 108.96L483.983 107.661L483.082 105.465L482.845 104.864L482.624 104.258L482.419 103.644L482.23 103.027L481.983 102.177L481.504 100.169L481.231 98.125L481.161 96.0622L481.298 94.0033L481.459 92.8976L481.678 91.8012L481.957 90.7204L482.294 89.6538L483.323 86.6777L483.501 86.1748L483.683 85.6733L483.87 85.1748L484.064 84.6777L485.729 80.4625L485.886 80.0622L486.043 79.6602L486.197 79.2568L486.35 78.855L487.319 76.292L487.805 74.9546L488.26 73.6071L488.681 72.2478L489.07 70.8784L489.567 69.1509L490.114 67.4393L490.716 65.7452L491.386 64.0259L491.911 62.6969L492.386 61.4036L492.832 60.0984L493.249 58.783L493.732 57.1951L494.02 56.2175L494.288 55.2341L494.537 54.2466L494.766 53.2533L494.993 52.231L495.32 50.5857L495.58 48.9282L495.768 47.2603L495.887 45.587L495.935 44.0487L495.923 42.5079L495.851 40.9707L495.721 39.4357L495.498 37.2944L495.432 36.6871L495.362 36.0799L495.285 35.4745L495.201 34.8694L494.729 31.5064L494.61 30.5936L494.509 29.6786L494.427 28.7613L494.363 27.8434L494.249 25.8922L494.204 24.5692L494.226 23.247L494.315 21.9257L494.47 20.6117L494.609 19.6443L494.857 18.2687L495.204 16.9137L495.646 15.5876L496.183 14.2953L496.557 13.4812L497.178 12.2765L497.908 11.134L498.741 10.0639L499.667 9.07444L500.406 8.35551L501.404 7.49773L502.5 6.77064L503.677 6.18459L504.916 5.74831L505.571 5.5644L507.025 5.28215L508.505 5.25273L509.969 5.47302L511.373 5.93968L512.736 6.67309L513.946 7.6385L514.967 8.80152L515.765 10.128L516.014 10.6365L516.469 11.7311L516.796 12.8708L516.988 14.0397L517.043 15.2232L517.001 19.0853L516.998 19.239L516.925 22.7642L516.956 24.1847L517.106 25.5977L517.373 26.9936L517.757 28.3608L518.38 29.9798L519.164 31.5251L520.103 32.9822L521.187 34.3355L521.646 34.8542L522.386 35.6409L523.165 36.389L523.983 37.0937L524.839 37.7549L526.962 39.305L527.62 39.8004L528.265 40.3139L528.895 40.8442L529.51 41.3912L530.844 42.6158L531.894 43.6581L532.858 44.7811L533.728 45.9788L534.519 47.2748L535.274 48.7838L535.873 50.3197L536.328 51.9044L536.639 53.5233L536.792 55.0284L536.818 56.5413L536.719 58.0506L536.493 59.5467L536.331 60.3775L536.061 61.5954L535.725 62.7963L535.324 63.9769L534.86 65.1356L533.947 67.2486L533.615 67.9948L533.271 68.7351L532.911 69.4695L532.54 70.1978L530.905 73.3251L530.606 73.9004L530.309 74.4756L530.015 75.054L529.724 75.6338L528.581 77.9201L528.009 79.0907L527.456 80.272L526.922 81.4607L526.409 82.6584L525.97 83.7061L525.462 84.9634L524.986 86.2341L524.541 87.5149L524.128 88.806L523.957 89.3588L523.52 90.8756L523.136 92.4065L522.804 93.9502L522.524 95.5033L522.29 97.1274L522.113 98.7577L521.994 100.394L521.932 102.033L521.913 102.989L521.903 104.093L521.911 105.196L521.941 106.299L521.991 107.4L522.141 110.165L522.178 110.906L522.211 111.648L522.239 112.387L522.263 113.129L522.318 115.089L522.343 116.595L522.336 118.103L522.296 119.61L522.222 121.115L522.099 122.829L521.932 124.538L521.723 126.244L521.47 127.943L521.371 128.561L521.168 129.738L520.942 130.911L520.69 132.078L520.414 133.241L519.828 135.599L519.645 136.395L519.49 137.198L519.364 138.005L519.267 138.817L519.113 140.338L519.034 141.942L519.12 143.548L519.37 145.136L519.783 146.689L520.31 148.094L520.97 149.44L521.755 150.718L522.659 151.913L523.022 152.346L523.949 153.357L524.964 154.278L526.061 155.099L527.23 155.816L527.762 156.109L529.078 156.734L530.459 157.2L531.884 157.498L533.337 157.625L534.945 157.563L536.532 157.292L538.069 156.815L539.531 156.141L540.173 155.791L541.126 155.226L542.033 154.593L542.891 153.895L543.696 153.135L545.353 151.451L546.009 150.803L546.685 150.175L547.378 149.568L548.089 148.981L550.579 146.992L551.118 146.568L551.664 146.152L552.217 145.746L552.775 145.347L554.218 144.334L555.544 143.345L556.813 142.281L558.017 141.148L559.154 139.945L560.139 138.781L561.062 137.566L561.919 136.305L562.708 135L563.825 133.035L564.1 132.546L564.369 132.054L564.632 131.558L564.891 131.06L566.504 127.903L566.918 127.107L567.341 126.317L567.775 125.533L568.219 124.753L569.374 122.761L569.983 121.751L570.625 120.764L571.3 119.798L572.01 118.857L572.659 118.023L573.618 116.864L574.644 115.764L575.733 114.725L576.88 113.754L578.23 112.749L579.645 111.836L581.114 111.017L582.65 110.291L584.047 109.732L585.459 109.261L586.896 108.872L588.353 108.565L588.954 108.458L590.346 108.241L591.744 108.087L593.148 107.995L594.554 107.969L595.579 107.972L596.874 107.996L598.167 108.061L599.458 108.165L600.744 108.307L602.393 108.516L603.482 108.663L604.57 108.827L605.654 109.008L606.735 109.206L610.65 109.955L610.852 109.995L611.123 110.047L614.453 110.673L615.863 110.925L617.276 111.152L618.694 111.351L620.115 111.524L621.899 111.705L623.685 111.846L625.474 111.945L627.267 112.003L630.047 112.06L630.157 112.063L634.27 112.139L635.426 112.182L636.581 112.272L637.731 112.405L638.874 112.583L639.958 112.774L641.414 113.08L642.844 113.484L644.244 113.985L645.645 114.599L647.133 115.38L648.522 116.253L649.838 117.23L651.082 118.309L652.16 119.398L653.153 120.555L654.061 121.779L654.878 123.068L655.116 123.475L655.785 124.728L656.355 126.029L656.821 127.37L657.181 128.745L657.472 130.436L657.602 132.147L657.57 133.863L657.378 135.57L657.342 135.789L657.086 137.099L656.738 138.386L656.303 139.647L655.783 140.876L654.56 143.508L654.376 143.898L654.189 144.286L653.996 144.672L653.8 145.056L653.136 146.338L652.23 148.189L651.407 150.078L650.67 152.002L650.019 153.958L649.694 155.064L649.396 156.177L649.126 157.298L648.884 158.425L648.681 159.431L648.351 160.952L647.972 162.464L647.55 163.962L647.079 165.446L647.001 165.682L646.489 167.133L645.929 168.569L645.322 169.983L644.671 171.378L644.492 171.742L643.82 173.059L643.101 174.35L642.335 175.613L641.526 176.849L641.254 177.247L640.385 178.467L639.465 179.647L638.496 180.789L637.478 181.888L636.918 182.468L635.983 183.391L635.004 184.268L633.984 185.096L632.925 185.872L632.283 186.32L631.029 187.131L629.72 187.854L628.365 188.484L626.971 189.016L625.355 189.502L623.705 189.858L622.033 190.083L620.35 190.178L619.071 190.199L618.187 190.2L617.303 190.175L616.421 190.123L615.54 190.045L611.816 189.659L611.349 189.623L610.881 189.606L610.413 189.611L609.945 189.638L606.133 189.944L605.42 190.092L604.764 190.405L604.201 190.868L603.768 191.452L603.395 192.622L603.521 193.841L604.126 194.91L605.109 195.644L606.844 196.453L607.328 196.647L607.83 196.786L608.346 196.871L608.866 196.897L610.994 196.893L612.504 196.996L613.984 197.315L615.402 197.839L616.731 198.561L617.933 199.452L618.997 200.505L619.902 201.697L620.63 203.005L621.607 205.09L621.825 205.574L622.028 206.064L622.218 206.56L622.394 207.06L623.189 209.432L623.665 210.796L624.177 212.148L624.722 213.487L625.303 214.81L626.062 216.416L626.87 217.996L627.728 219.55L628.634 221.076L629.485 222.458L629.823 223.003L630.164 223.544L630.512 224.083L630.862 224.62L632.474 227.064L633.084 228.009L633.675 228.964L634.247 229.933L634.8 230.911L635.376 231.955L636.079 233.283L636.732 234.636L637.335 236.011L637.888 237.408L637.987 237.671L638.508 239.156L638.968 240.662L639.363 242.185L639.696 243.724L639.765 244.082L640.013 245.521L640.198 246.97L640.319 248.424L640.376 249.883L640.388 250.528L640.377 251.958L640.291 253.386L640.131 254.805L639.896 256.216L639.809 256.67L639.467 258.175L639.031 259.655L638.498 261.102L637.873 262.513L637.787 262.69L637.062 264.07L636.243 265.396L635.333 266.661L634.34 267.86L633.204 269.044L631.986 270.145L630.689 271.151L629.279 272.088L627.921 272.865L626.561 273.527L625.16 274.099L623.725 274.578L622.976 274.801L621.708 275.128L620.421 275.362L619.12 275.503L617.811 275.547L616.69 275.546L615.361 275.473L614.047 275.262L612.763 274.914L611.522 274.435L610.88 274.146L609.584 273.449L608.397 272.573L607.349 271.537L606.461 270.363L605.691 268.951L605.151 267.436L604.855 265.857L604.808 264.21L604.968 262.783L605.309 261.428L605.825 260.13L606.508 258.913L607.236 257.797L607.833 256.944L608.487 256.133L609.194 255.368L609.951 254.652L612.414 252.474L612.806 252.122L613.193 251.767L613.576 251.405L613.952 251.039L615.669 249.353L616.7 248.281L617.67 247.152L618.577 245.973L619.416 244.745L619.624 244.422L620.402 243.123L621.097 241.778L621.703 240.389L622.221 238.967L622.365 238.527L622.766 237.142L623.069 235.731L623.273 234.303L623.375 232.865L623.396 232.264L623.387 230.833L623.257 229.406L623.009 227.995L622.642 226.611L622.501 226.16L621.991 224.773L621.346 223.445L620.571 222.189L619.648 220.986L618.525 219.801L617.307 218.776L615.983 217.891L614.567 217.159L613.169 216.617L611.72 216.224L610.24 215.985L608.741 215.904L608.432 215.902L606.963 215.966L605.506 216.166L604.076 216.501L602.682 216.969L602.287 217.122L600.941 217.708L599.648 218.4L598.415 219.195L597.253 220.088L596.975 220.32L595.844 221.338L594.794 222.437L593.827 223.61L592.953 224.855L592.583 225.426L591.897 226.549L591.271 227.707L590.708 228.897L590.21 230.115L589.355 232.37L589.101 233.018L588.83 233.662L588.544 234.297L588.243 234.925L587.636 236.154L586.776 237.722L585.786 239.21L584.671 240.609L583.442 241.907L582.435 242.821L581.369 243.669L580.252 244.445L579.086 245.147L577.21 246.194L576.525 246.568L575.833 246.926L575.134 247.27L574.426 247.6L571.005 249.15L570.483 249.386L569.961 249.617L569.435 249.844L568.91 250.069L567.44 250.691L565.718 251.391L563.977 252.039L562.218 252.637L560.441 253.183L559.049 253.59L558.448 253.757L557.843 253.913L557.235 254.056L556.623 254.185L553.552 254.804L552.558 255.051L551.59 255.382L550.655 255.797L549.76 256.292L549.508 256.445L548.065 257.5L546.812 258.78L545.788 260.245L545.019 261.861L544.65 263.024L544.417 264.223L544.319 265.441L544.357 266.661L544.512 268.409L544.667 269.467L544.939 270.502L545.328 271.499L545.826 272.446L546.887 273.886L548.203 275.102L549.723 276.046L551.421 276.696L552.557 276.943L553.688 277.049L554.824 277.023L555.949 276.86L559.993 276.033L563.356 275.332L564.82 275.074L566.297 274.907L567.782 274.832L569.331 274.854L571.016 274.985L572.626 275.229L574.212 275.586L575.771 276.053L576.059 276.151L577.376 276.649L578.655 277.235L579.891 277.906L581.079 278.659L581.761 279.124L582.845 279.934L583.854 280.832L584.786 281.813L585.629 282.869L586.254 283.723L586.938 284.779L587.501 285.903L587.935 287.084L588.233 288.308L588.433 289.374L588.564 290.618L588.498 291.867L588.238 293.09L587.787 294.258L587.503 294.849L586.811 295.978L585.902 296.941L584.815 297.697L583.596 298.215L582.163 298.484L580.707 298.422L579.302 298.034L578.022 297.34L577.254 296.803L576.461 296.175L575.752 295.457L575.133 294.656L574.616 293.789L573.402 291.434L572.983 290.706L572.5 290.016L571.958 289.374L571.359 288.783L570.155 287.696L569.089 286.931L567.88 286.418L566.589 286.184L565.278 286.241L563.848 286.65L562.564 287.404L561.509 288.454L560.748 289.734L559.957 291.554L559.739 292.104L559.56 292.668L559.421 293.244L559.323 293.829L559.325 296.128L559.941 298.346L561.127 300.318L562.793 301.904L563.79 302.624L563.939 302.728L564.981 303.438L566.803 304.994L568.247 306.905L569.245 309.083L569.748 311.424L569.796 312.057L569.807 312.69L569.782 313.323L569.72 313.955L569.537 315.401L569.222 317.214L568.75 318.994L568.12 320.725L567.341 322.391L566.679 323.562L565.941 324.687L565.133 325.763L564.258 326.783L563.277 327.85L562.491 328.676L561.672 329.472L560.825 330.237L559.949 330.971L559.086 331.665L557.936 332.658L556.856 333.727L555.851 334.867L554.927 336.074L554.011 337.468L553.2 338.925L552.503 340.44L551.92 342.002L551.565 343.076L551.245 343.987L550.89 344.885L550.499 345.767L550.076 346.635L549.422 347.91L548.669 349.23L547.802 350.476L546.827 351.64L545.752 352.713L544.488 353.758L543.129 354.679L541.687 355.462L540.177 356.104L539.995 356.172L538.641 356.611L537.259 356.942L535.853 357.163L534.436 357.271L532.751 357.334L531.823 357.354L530.895 357.343L529.968 357.302L529.042 357.232L526.642 357.008L525.556 356.893L524.472 356.751L523.392 356.581L522.317 356.386L520.242 355.925L518.19 355.364L516.168 354.703L514.181 353.945L512.549 353.275L512.363 353.199L512.18 353.125L511.994 353.051L511.81 352.977L508.419 351.638L507.309 351.173L506.216 350.668L505.145 350.12L504.095 349.53L502.407 348.466L500.789 347.297L499.251 346.026L497.795 344.659L497.451 344.314L496.785 343.628L496.136 342.922L495.507 342.201L494.898 341.461L493.292 339.457L492.663 338.699L492.007 337.964L491.326 337.251L490.62 336.564L488.954 335.113L487.177 333.8L485.304 332.629L483.344 331.61L482.599 331.257L482.1 331.032L481.595 330.822L481.083 330.631L480.566 330.454L479.212 330.018L477.446 329.294L475.811 328.312L474.342 327.092L473.077 325.663L472.493 324.822L471.979 323.938L471.54 323.014L471.177 322.057L470.458 319.898L470.207 318.906L470.106 317.889L470.154 316.867L470.354 315.863L471.045 314.224L472.133 312.813L473.544 311.727L475.185 311.037L476.583 310.651L476.818 310.589L477.054 310.534L477.292 310.485L477.531 310.441L480.317 309.971L481.851 309.671L483.365 309.29L484.859 308.828L486.324 308.286L487.415 307.852L488.389 307.431L489.339 306.956L490.26 306.429L491.151 305.851L493.62 304.147L494.169 303.81L494.753 303.538L495.363 303.333L495.992 303.197L496.504 303.117L498.344 303.159L500.054 303.844L501.414 305.086L502.253 306.726L502.384 307.265L502.458 307.814L502.471 308.368L502.425 308.921L501.879 312.905L501.799 313.551L501.736 314.197L501.694 314.848L501.667 315.497L501.625 317.119L501.55 318.882L501.415 320.641L501.223 322.397L500.971 324.143L500.587 326.534L500.549 326.781L500.513 327.03L500.48 327.28L500.448 327.53L500.118 330.337L500.033 331.869L500.135 333.397L500.423 334.903L500.893 336.361L501.582 337.836L502.456 339.206L503.501 340.452L504.697 341.553L505.56 342.249L506.36 342.854L507.196 343.411L508.063 343.916L508.958 344.369L512.768 346.154L512.926 346.229L513.137 346.332L514.395 346.959L516.578 347.839L518.874 348.359L521.223 348.508L523.566 348.281L524.332 348.124L525.088 347.927L525.833 347.688L526.566 347.411L530.646 345.743L530.866 345.65L531.087 345.56L531.307 345.466L531.527 345.373L533.925 344.343L535.452 343.641L536.939 342.859L538.385 342.003L539.783 341.071L541.017 340.156L542.208 339.184L543.35 338.156L544.441 337.075L546.285 335.161L546.533 334.905L546.784 334.648L547.037 334.395L547.29 334.143L549.179 332.273L550.285 331.196L551.41 330.138L552.551 329.101L553.709 328.08L556.01 326.092L556.136 325.984L556.258 325.871L556.376 325.756L556.495 325.641L559.501 322.629L559.987 321.97L560.256 321.197L560.285 320.38L560.073 319.588L559.324 318.588L558.21 318.022L556.959 318.009L555.834 318.551L554.031 320.004L553.926 320.091L550.589 323.06L549.858 323.699L549.121 324.326L548.373 324.945L547.617 325.551L546.597 326.358L545.353 327.377L544.143 328.436L542.97 329.535L541.834 330.674L541.007 331.532L540.285 332.256L539.539 332.956L538.769 333.629L537.976 334.277L536.545 335.406L535.508 336.165L534.42 336.846L533.285 337.449L532.109 337.967L531.194 338.33L529.853 338.783L528.472 339.088L527.064 339.246L525.649 339.252L524.657 339.202L523.425 339.061L522.222 338.76L521.067 338.304L519.982 337.703L519.159 337.173L518.104 336.343L517.224 335.326L516.553 334.162L516.108 332.865L515.909 331.345L516.043 329.846L516.495 328.411L517.247 327.108L518.098 326.144L519.113 325.355L520.256 324.765L521.49 324.397L523.182 324.059L523.996 323.926L524.818 323.853L525.642 323.839L526.466 323.887L529.119 324.132L530.179 324.207L531.241 324.233L532.303 324.211L533.363 324.14L535.888 323.916L536.736 323.801L537.571 323.611L538.385 323.347L539.172 323.009L541.366 321.953L542.221 321.412L542.936 320.696L543.469 319.836L543.798 318.879L543.886 317.501L543.549 316.163L542.824 314.989L541.775 314.092L541.09 313.669L540.469 313.337L539.813 313.086L539.131 312.919L538.433 312.837L535.783 312.697L534.614 312.592L533.455 312.401L532.313 312.126L531.195 311.768L530.717 311.595L529.156 310.93L527.679 310.096L526.303 309.102L525.049 307.961L524.102 306.903L523.258 305.763L522.525 304.547L521.908 303.269L521.533 302.392L521.073 301.21L520.688 300L520.378 298.769L520.147 297.52L520.026 296.729L519.839 295.209L519.738 293.679L519.726 292.148L519.806 290.572L519.986 288.917L520.255 287.322L520.618 285.745L521.075 284.194L521.839 281.849L521.948 281.511L522.052 281.174L522.155 280.838L522.254 280.498L522.613 279.244L523.145 277.108L523.524 274.94L523.746 272.75L523.812 270.548L523.791 269.578L523.74 268.608L523.658 267.641L523.545 266.678L523.225 264.253L523.058 263.236L522.834 262.23L522.549 261.237L522.208 260.265L521.76 259.102L521.142 257.743L520.364 256.468L519.44 255.293L518.382 254.24L517.157 253.286L515.823 252.493L514.401 251.872L512.914 251.434L511.947 251.214L510.911 251.012L509.864 250.877L508.811 250.812L507.755 250.813L504.319 250.929L503.874 250.94L503.43 250.943L502.985 250.939L502.539 250.926L499.558 250.807L498.313 250.687L497.087 250.429L495.9 250.036L494.696 249.474L493.231 248.551L491.99 247.459L490.932 246.185L490.083 244.765L489.568 243.543L489.208 242.267L489.01 240.956L488.976 239.631L489.042 237.827L489.099 236.91L489.204 235.996L489.357 235.089L489.554 234.192L490.558 230.153L490.613 229.933L490.669 229.712L490.726 229.494L490.785 229.273L492.186 223.986L492.256 223.726L492.327 223.468L492.401 223.21L492.475 222.951L493.588 219.17L493.899 218.239L494.28 217.332L494.726 216.455L495.236 215.615L496.072 214.341L496.873 213.305L497.823 212.405L498.899 211.661L500.077 211.089L500.503 210.923L501.819 210.543L503.184 210.414L504.549 210.541L505.866 210.918L507.174 211.586L508.322 212.502L509.267 213.625L509.977 214.936L510.385 216.202L510.56 217.497L510.507 218.805L510.227 220.081L509.147 223.525L508.232 226.484L507.918 227.928L507.856 229.405L508.046 230.872L508.484 232.284L509.103 233.513L509.91 234.629L510.883 235.602L511.999 236.407L514.787 238.1L514.961 238.205L515.197 238.342L517.362 239.57L518.88 240.534L520.295 241.646L521.592 242.891L522.759 244.259L523.531 245.344L524.222 246.482L524.828 247.666L525.345 248.893L526.074 250.822L526.366 251.625L526.636 252.437L526.884 253.254L527.111 254.077L528.159 258.102L528.232 258.381L528.306 258.661L528.381 258.94L528.455 259.218L529.859 264.385L529.922 264.609L529.987 264.833L530.053 265.057L530.121 265.28L530.61 266.85L531.109 268.839L531.381 270.872L531.423 272.921L531.235 274.963L531.04 276.049L530.779 277.119L530.454 278.171L530.067 279.202L528.731 282.453L528.594 282.791L528.461 283.132L528.335 283.475L528.211 283.819L527.205 286.681L526.837 287.927L526.595 289.203L526.48 290.496L526.496 291.796L526.717 293.512L527.164 295.183L527.829 296.781L528.699 298.276L529.274 299.127L529.819 299.887L530.405 300.615L531.032 301.308L531.696 301.967L532.342 302.569L533.671 303.66L535.127 304.569L536.691 305.284L538.333 305.791L538.927 305.933L540.019 306.134L541.127 306.217L542.237 306.183L543.336 306.03L545.143 305.51L546.826 304.676L548.333 303.552L549.616 302.178L550.105 301.546L550.58 300.867L550.981 300.142L551.308 299.382L551.554 298.59L551.805 296.554L551.538 294.52L550.765 292.618L549.538 290.973L549.084 290.502L548.635 290.067L548.156 289.663L547.653 289.291L547.125 288.956L546.86 288.801L545.059 287.49L543.546 285.854L542.376 283.957L541.594 281.872L541.267 280.655L541.2 280.416L541.13 280.179L541.056 279.942L540.978 279.708L539.868 276.466L539.501 275.273L539.21 274.061L538.997 272.831L538.86 271.592L538.616 269.68L538.187 267.8L537.579 265.972L536.796 264.21L535.963 262.561L535.814 262.246L535.683 261.923L535.569 261.595L535.473 261.261L535.291 258.971L535.909 256.758L537.254 254.895L539.158 253.61L539.888 253.284L539.993 253.237L541.851 252.358L543.843 251.465L545.874 250.657L547.936 249.937L550.027 249.307L550.946 249.05L551.489 248.906L552.036 248.772L552.585 248.648L553.135 248.536L555.872 248.01L557.083 247.717L558.26 247.31L559.394 246.794L560.473 246.173L561.973 245.056L563.296 243.736L564.421 242.245L565.323 240.606L566.342 238.396L566.399 238.274L566.484 238.098L567.997 235.512L569.883 233.223L572.105 231.258L574.609 229.67L574.889 229.522L577.442 228.168L578.974 227.293L580.449 226.321L581.86 225.257L583.201 224.107L584.238 223.159L584.774 222.641L585.283 222.099L585.762 221.528L586.211 220.936L587.422 218.918L588.287 216.73L588.783 214.43L588.897 212.079L588.849 210.671L588.845 210.548L588.837 210.383L588.726 208.202L588.662 206.131L588.685 204.059L588.795 201.991L588.99 199.928L589.089 199.072L589.181 198.356L589.289 197.64L589.414 196.929L589.556 196.219L590.129 193.507L590.402 192.429L590.759 191.378L591.201 190.359L591.72 189.378L592.158 188.626L593.075 187.29L594.177 186.101L595.443 185.087L596.843 184.268L598.216 183.705L599.654 183.333L601.127 183.157L602.611 183.179L605.518 183.418L605.722 183.435L605.927 183.449L606.131 183.459L606.335 183.469L607.618 183.52L609.923 183.44L612.191 183.016L614.368 182.256L616.409 181.18L617.031 180.766L617.635 180.322L618.216 179.85L618.772 179.351L621.578 176.705L621.98 176.33L622.385 175.959L622.794 175.593L623.206 175.231L626.129 172.689L626.687 172.198L627.24 171.7L627.786 171.195L628.327 170.683L629.032 170.008L630.443 168.601L631.797 167.138L633.093 165.625L634.325 164.058L635.053 163.073L635.754 162.069L636.432 161.048L637.085 160.01L638.036 158.455L638.599 157.521L639.152 156.579L639.692 155.631L640.22 154.676L640.468 154.219L641.381 152.578L642.323 150.954L643.292 149.345L644.289 147.755L645.4 146.016L645.573 145.748L645.748 145.483L645.924 145.218L646.104 144.956L648.06 142.116L648.69 141.12L649.24 140.078L649.707 138.995L650.088 137.88L650.388 136.872L650.71 135.473L650.845 134.043L650.797 132.609L650.549 131.128L650.078 129.598L649.416 128.21L648.561 126.931L647.532 125.789L646.404 124.85L645.16 124.071L643.82 123.475L642.411 123.065L641.956 122.966L640.629 122.756L639.286 122.69L637.945 122.771L636.62 122.996L635.517 123.248L634.326 123.565L633.16 123.964L632.026 124.445L630.929 125.006L629.429 125.841L628.469 126.399L627.53 126.994L626.613 127.624L625.722 128.287L623.297 130.165L622.84 130.521L622.385 130.884L621.934 131.248L621.485 131.617L619.138 133.564L618.266 134.273L617.38 134.965L616.481 135.641L615.569 136.3L614.877 136.789L613.496 137.73L612.082 138.623L610.637 139.464L609.164 140.254L607.78 140.936L606.371 141.573L604.945 142.163L603.5 142.707L600.333 143.837L596.012 145.372L595.158 145.715L594.335 146.126L593.547 146.605L592.802 147.146L592.001 147.778L590.874 148.851L589.959 150.108L589.288 151.511L588.88 153.013L588.755 154.321L588.83 155.634L589.104 156.919L589.573 158.148L590.89 160.933L591.021 161.218L591.148 161.505L591.27 161.793L591.386 162.083L592.076 163.847L592.647 165.605L593.006 167.42L593.147 169.265L593.07 171.113L592.896 172.345L592.623 173.56L592.256 174.749L591.793 175.906L590.563 178.66L590.373 179.081L590.176 179.499L589.973 179.914L589.766 180.326L587.291 185.156L587.206 185.319L585.82 188.041L585.045 189.513L584.228 190.965L583.37 192.391L582.473 193.795L581.607 195.074L580.708 196.329L579.778 197.559L578.816 198.767L578.168 199.559L577.433 200.475L576.718 201.403L576.021 202.347L575.343 203.305L574.207 205.004L573.132 206.743L572.117 208.518L571.15 210.355L570.629 211.41L570.144 212.445L569.677 213.491L569.232 214.544L567.714 218.229L567.661 218.358L567.589 218.53L565.445 223.77L565.32 224.076L565.197 224.382L565.073 224.688L564.951 224.993L563.216 229.329L563.002 229.853L562.778 230.372L562.544 230.886L562.303 231.398L561.213 233.653L560.562 234.871L559.815 236.033L558.975 237.129L558.031 238.174L556.768 239.344L555.414 240.362L553.963 241.239L552.422 241.97L551.049 242.471L549.646 242.845L548.216 243.097L546.77 243.226L545.102 243.215L543.444 243.039L541.811 242.697L540.221 242.195L540.06 242.134L538.768 241.594L537.523 240.952L536.332 240.212L535.205 239.38L534.479 238.796L533.497 237.938L532.594 236.997L531.776 235.981L531.048 234.9L530.532 234.055L529.909 232.886L529.433 231.649L529.106 230.366L528.936 229.051L528.911 228.683L528.924 227.16L529.17 225.657L529.645 224.21L530.338 222.852L531.199 221.653L532.231 220.597L533.407 219.705L534.705 218.998L536.131 218.355L536.945 218.016L537.775 217.726L538.622 217.485L539.482 217.295L541.756 216.86L542.891 216.603L544.005 216.261L545.092 215.84L546.187 215.32L547.861 214.326L549.361 213.164L550.712 211.828L551.891 210.341L552.563 209.293L553.149 208.196L553.648 207.055L554.053 205.88L555.195 202.099L556.26 198.577L556.698 197.281L557.223 196.019L557.832 194.795L558.521 193.614L559.549 192.132L560.702 190.746L561.975 189.468L563.355 188.308L563.583 188.132L564.59 187.403L565.638 186.733L566.721 186.121L567.836 185.573L570.907 184.169L571.174 184.046L571.44 183.922L571.705 183.794L571.969 183.666L574.966 182.198L576.067 181.611L577.129 180.953L578.144 180.226L579.108 179.432L579.771 178.849L580.832 177.816L581.782 176.678L582.611 175.451L583.311 174.145L583.933 172.602L584.374 170.998L584.63 169.354L584.693 167.621L584.599 166.125L584.371 164.713L584.011 163.329L583.522 161.985L583.076 160.922L582.584 159.832L582.029 158.773L581.418 157.746L580.748 156.756L579.949 155.645L579.141 154.581L578.277 153.559L577.362 152.586L576.397 151.662L575.245 150.616L574.408 149.91L573.519 149.266L572.587 148.69L571.597 148.176L569.674 147.421L567.684 146.945L565.645 146.747L563.601 146.834L562.657 146.941L562.017 147.037L561.385 147.183L560.766 147.375L560.165 147.614L557.684 148.706L556.751 149.279L556.004 150.082L555.5 151.054L555.275 152.127L555.455 153.639L556.179 154.978L557.345 155.956L558.791 156.434L560.166 156.614L560.545 156.65L560.927 156.661L561.309 156.645L561.687 156.602L564.99 156.117L566.133 156.016L567.279 156.046L568.415 156.207L569.524 156.496L570.725 156.885L571.907 157.393L572.969 158.115L573.879 159.023L574.603 160.086L574.716 160.292L575.277 161.671L575.5 163.142L575.376 164.627L574.911 166.041L574.273 167.12L573.436 168.053L572.432 168.803L571.3 169.342L569.297 170.063L568.695 170.261L568.085 170.425L567.465 170.556L566.839 170.652L565.598 170.808L563.676 171.133L561.79 171.622L559.95 172.271L558.174 173.075L556.051 174.148L553.249 175.55L551.766 176.155L550.209 176.53L548.615 176.665L547.016 176.557L545.675 176.274L544.382 175.819L543.158 175.2L542.026 174.43L540.488 173.23L539.856 172.763L539.199 172.332L538.518 171.938L537.816 171.583L536.834 171.118L535.174 170.49L533.434 170.139L531.661 170.071L529.901 170.29L528.731 170.599L527.604 171.035L526.531 171.593L525.526 172.265L522.388 174.62L519.543 176.747L518.363 177.572L517.134 178.322L515.857 178.991L514.543 179.58L514.331 179.667L512.805 180.225L511.242 180.665L509.65 180.987L508.038 181.184L506.491 181.258L504.942 181.219L503.4 181.068L501.872 180.804L501.34 180.694L500.02 180.368L498.726 179.953L497.462 179.449L496.238 178.861L495.793 178.626L494.443 177.837L493.169 176.927L491.985 175.905L490.901 174.776L489.927 173.556L489.068 172.253L488.332 170.876L487.725 169.437L487.408 168.571L487.04 167.492L486.732 166.394L486.478 165.282L486.284 164.159L485.869 161.327L485.793 160.685L485.748 160.04L485.736 159.392L485.758 158.745L485.988 154.91L485.966 154.313L485.83 153.729L485.586 153.183L485.243 152.694L484.348 151.976L483.255 151.629L482.111 151.701L481.069 152.184L480.827 152.358L480.216 152.912L479.754 153.597L479.47 154.372L479.378 155.192L479.407 158.982L479.419 159.405L479.447 159.828L479.494 160.25L479.556 160.668L480.408 165.763L480.443 165.98L480.479 166.197L480.513 166.414L480.545 166.631L481.033 169.937L481.181 171.247L481.243 172.561L481.216 173.878L481.102 175.189L481.023 175.849L480.774 177.334L480.388 178.791L479.869 180.206L479.213 181.58L478.378 182.975L477.414 184.265L476.326 185.455L475.126 186.528L473.908 187.422L472.613 188.195L471.251 188.846L469.834 189.364L469.258 189.545L467.953 189.906L466.625 190.173L465.282 190.348L463.93 190.426L461.609 190.481L460.926 190.489L460.241 190.485L459.558 190.469L458.875 190.439L456.932 190.335L455.379 190.304L453.829 190.374L452.288 190.548L450.76 190.825L449.21 191.215L447.691 191.71L446.209 192.307L444.771 193.004L442.336 194.288L442.12 194.4L441.904 194.513L441.687 194.623L441.469 194.733L437.714 196.608L436.927 196.992L436.133 197.359L435.331 197.713L434.523 198.05L432.905 198.708L431.557 199.297L430.24 199.955L428.958 200.68L427.717 201.469L426.344 202.452L425.032 203.514L423.784 204.652L422.605 205.861L421.447 207.123L420.985 207.617L420.512 208.101L420.033 208.578L419.542 209.044L417.063 211.365L416.425 211.921L415.749 212.43L415.038 212.891L414.298 213.3L414.09 213.404L412.242 214.144L410.293 214.548L408.304 214.605L406.335 214.311L405.381 214.037L404.452 213.679L403.56 213.241L402.71 212.726L401.503 211.923L400.346 211.287L399.098 210.855L397.795 210.642L396.474 210.652L395.021 210.931L393.645 211.48L392.399 212.278L391.328 213.3L390.591 214.15L389.858 214.913L389.052 215.599L388.178 216.196L387.248 216.702L386.774 216.93L385.188 217.516L383.521 217.793L381.829 217.756L380.177 217.403L378.928 216.905L377.766 216.228L376.718 215.384L375.808 214.393L374.043 212.161L373.788 211.83L373.542 211.495L373.301 211.152L373.07 210.805L371.609 208.561L370.777 207.361L369.88 206.211L368.916 205.114L367.892 204.074L366.597 202.912L365.223 201.841L363.781 200.868L362.276 199.994L361.752 199.714L360.705 199.18L359.639 198.688L358.554 198.239L357.452 197.83L354.045 196.649L353.808 196.567L353.572 196.483L353.336 196.398L353.1 196.314L350.16 195.25L348.84 194.748L347.535 194.208L346.247 193.627L344.978 193.008L344.2 192.614L342.986 191.969L341.8 191.276L340.64 190.539L339.51 189.757L338.048 188.642L336.645 187.452L335.307 186.192L333.989 184.81L333.079 183.774L332.255 182.761L331.465 181.717L330.715 180.648L329.964 179.538L329.254 178.511L328.521 177.501L327.763 176.506L326.986 175.528L324.819 172.875L324.65 172.668L324.479 172.462L324.307 172.256L324.134 172.051L321.468 168.908L320.909 168.212L320.385 167.487L319.9 166.738L319.455 165.963L318.512 163.907L317.846 161.746L317.47 159.518L317.388 157.259L317.403 156.733L317.433 156.085L317.484 155.437L317.557 154.793L317.666 154.075L317.94 151.56L317.922 149.104L317.622 146.666L317.044 144.279L316.88 143.737L316.747 143.311L316.605 142.89L316.456 142.468L316.298 142.052L314.409 137.176L314.348 137.018L314.286 136.858L314.225 136.699L314.166 136.539L312.572 132.316L312.275 131.571L311.947 130.841L311.59 130.123L311.204 129.422L310.013 127.359L309.346 126.35L308.562 125.427L307.673 124.607L306.692 123.899L305.614 123.218L304.494 122.646L303.287 122.293L302.036 122.169L300.782 122.279L300.133 122.396L298.875 122.786L297.747 123.465L296.812 124.391L296.123 125.513L295.73 126.721L295.625 127.986L295.813 129.241L296.284 130.42L296.692 131.174L297.205 131.988L297.822 132.726L298.533 133.376L299.323 133.925L301.703 135.356L302.42 135.81L303.114 136.299L303.783 136.822L304.426 137.377L305.697 138.53L306.705 139.525L307.624 140.601L308.448 141.754L309.17 142.971L310.025 144.564L310.393 145.348L310.677 146.166L310.872 147.01L310.978 147.869L311.138 150.188L311.085 151.137L310.802 152.047L310.306 152.859L309.625 153.524L308.596 154.086L307.446 154.312L306.282 154.182L305.209 153.71L304.273 153.115L303.571 152.582L302.964 151.944L302.467 151.217L302.094 150.418L301.089 147.712L300.76 146.909L300.384 146.126L299.959 145.369L299.489 144.639L298.841 143.698L297.83 142.402L296.67 141.238L295.38 140.219L293.977 139.362L292.641 138.742L291.248 138.269L289.811 137.947L288.348 137.78L287.528 137.733L286.304 137.702L285.08 137.76L283.863 137.901L282.659 138.127L278.763 139.003L273.934 140.043L273.263 140.268L272.656 140.634L272.147 141.125L271.756 141.715L271.412 142.939L271.573 144.201L272.211 145.3L273.227 146.066L274.894 146.862L275.045 146.931L275.2 146.995L275.356 147.054L275.513 147.109L277.971 147.902L279.623 148.473L281.251 149.11L282.851 149.809L284.422 150.573L284.773 150.752L285.902 151.348L287.017 151.974L288.113 152.628L289.192 153.312L292.374 155.385L292.515 155.477L294.277 156.616L296.099 157.745L297.963 158.804L299.868 159.787L301.81 160.696L302.684 161.086L303.225 161.332L303.76 161.59L304.291 161.857L304.828 162.142L307.063 163.478L309.166 164.993L311.131 166.682L312.944 168.531L313.322 168.959L313.692 169.395L314.054 169.838L314.408 170.286L316.805 173.389L317.235 173.939L317.674 174.483L318.12 175.02L318.573 175.552L320.494 177.772L321.167 178.59L321.797 179.441L322.385 180.322L322.927 181.232L323.401 182.076L324.13 183.542L324.71 185.074L325.133 186.655L325.395 188.271L325.491 189.752L325.452 191.235L325.279 192.708L324.973 194.158L324.842 194.661L324.437 196.018L323.932 197.344L323.329 198.627L322.634 199.862L322.265 200.462L321.493 201.643L320.651 202.777L319.744 203.858L318.775 204.884L318.19 205.467L317.189 206.412L316.139 207.299L315.042 208.13L313.901 208.897L312.919 209.52L311.851 210.144L310.741 210.689L309.594 211.153L308.418 211.532L307.35 211.834L306.028 212.131L304.681 212.278L303.326 212.277L301.98 212.124L301.583 212.057L300.145 211.71L298.769 211.17L297.479 210.446L296.273 209.528L295.188 208.44L294.293 207.237L293.577 205.917L293.059 204.511L292.746 203.054L292.642 201.566L292.75 200.078L293.066 198.622L293.336 197.7L293.708 196.608L294.167 195.551L294.713 194.537L295.343 193.571L297.568 190.45L297.697 190.266L297.868 190.02L299.827 187.174L300.544 186.028L301.162 184.827L301.675 183.578L302.081 182.289L302.199 181.844L302.517 180.316L302.661 178.759L302.631 177.198L302.424 175.65L302.041 174.122L301.486 172.648L300.769 171.246L299.896 169.935L299.497 169.405L298.695 168.415L297.82 167.491L296.877 166.635L295.872 165.853L293.482 164.14L293.094 163.864L292.701 163.594L292.305 163.329L291.905 163.07L287.978 160.555L287.622 160.328L287.264 160.102L286.907 159.877L286.548 159.654L284.101 158.13L282.933 157.422L281.752 156.738L280.554 156.08L279.344 155.448L278.884 155.215L277.445 154.509L275.985 153.845L274.507 153.226L273.011 152.65L271.137 151.959L270.546 151.751L269.95 151.56L269.349 151.388L268.742 151.234L266.81 150.772L265.256 150.5L263.679 150.416L262.104 150.523L260.553 150.821L259.047 151.302L257.61 151.964L256.264 152.795L255.028 153.781L254.477 154.28L253.602 155.133L252.793 156.052L252.057 157.03L251.399 158.06L250.134 160.211L249.738 160.835L249.299 161.432L248.819 161.994L248.302 162.523L247.007 163.757L245.83 164.657L244.484 165.279L243.037 165.597L241.555 165.593L240.115 165.268L238.778 164.642L237.608 163.741L236.662 162.611L235.974 161.583L235.483 160.76L235.078 159.893L234.763 158.989L234.541 158.058L233.858 154.387L233.785 154.006L233.706 153.629L233.623 153.25L233.533 152.875L232.586 149L232.362 148.185L232.092 147.383L231.778 146.597L231.42 145.83L230.496 143.993L229.823 142.874L228.986 141.872L228.006 141.01L226.905 140.309L225.299 139.651L223.591 139.331L221.855 139.366L220.161 139.753L219.791 139.879L218.763 140.297L217.791 140.833L216.889 141.479L216.069 142.227L214.506 143.831L213.859 144.532L213.246 145.265L212.672 146.028L212.138 146.819L210.816 148.89L210.267 149.773L209.742 150.669L209.236 151.577L208.753 152.497L207.482 154.993L207.132 155.7L206.801 156.415L206.488 157.138L206.192 157.87L205.207 160.4L204.855 161.414L204.582 162.452L204.389 163.509L204.278 164.577L204.201 165.718L204.212 167.23L204.444 168.723L204.891 170.165L205.545 171.528L206.413 172.808L207.464 173.942L208.671 174.906L210.009 175.679L210.32 175.828L211.57 176.341L212.87 176.703L214.205 176.907L215.554 176.954L217.167 176.913L218.161 176.861L219.15 176.754L220.133 176.592L221.105 176.377L223.557 175.764L224.491 175.541L225.429 175.341L226.374 175.162L227.321 175.007L228.342 174.852L230.071 174.629L231.808 174.489L233.549 174.43L235.292 174.453L236.562 174.501L237.398 174.514L238.236 174.495L239.072 174.444L239.905 174.358L241.061 174.216L242.801 173.904L244.494 173.4L246.122 172.712L247.663 171.847L248.776 171.069L249.819 170.2L250.784 169.245L251.663 168.21L253.442 165.929L253.677 165.621L253.906 165.312L254.133 164.996L254.353 164.679L256.008 162.253L256.831 161.183L257.771 160.213L258.818 159.357L259.952 158.627L261.506 157.891L263.15 157.39L264.849 157.131L266.568 157.122L267.046 157.155L268.155 157.276L269.251 157.491L270.323 157.793L271.369 158.185L272.317 158.586L273.684 159.276L274.95 160.14L276.09 161.165L277.083 162.332L277.906 163.606L278.554 164.977L279.017 166.422L279.288 167.913L279.422 169.107L279.503 170.095L279.522 171.087L279.481 172.079L279.377 173.066L279.031 175.614L278.894 176.541L278.731 177.466L278.545 178.386L278.335 179.301L277.919 181.021L277.575 182.382L277.204 183.737L276.808 185.082L276.384 186.42L275.388 189.458L275.316 189.673L275.246 189.887L275.173 190.102L275.102 190.314L273.838 194.014L273.52 195.013L273.243 196.023L273.005 197.046L272.811 198.075L272.601 199.318L272.41 200.824L272.345 202.34L272.403 203.857L272.587 205.364L272.923 206.958L273.397 208.516L274.008 210.026L274.749 211.475L274.95 211.826L275.642 212.96L276.408 214.047L277.243 215.082L278.14 216.061L279.513 217.462L280.147 218.094L280.797 218.711L281.46 219.309L282.14 219.893L284.458 221.829L285.084 222.364L285.699 222.913L286.303 223.473L286.893 224.047L288.358 225.496L289.293 226.481L290.167 227.522L290.974 228.614L291.714 229.754L291.879 230.023L292.677 231.471L293.356 232.98L293.911 234.538L294.336 236.135L294.608 237.613L294.77 239.107L294.821 240.609L294.761 242.109L294.702 242.884L294.569 244.173L294.371 245.455L294.108 246.724L293.782 247.98L293.496 248.97L293.082 250.308L292.615 251.63L292.098 252.932L291.528 254.211L291.222 254.867L290.577 256.166L289.876 257.436L289.117 258.671L288.301 259.872L287.989 260.312L287.097 261.495L286.142 262.63L285.125 263.71L284.052 264.734L283.794 264.966L282.622 265.96L281.389 266.876L280.102 267.715L278.763 268.471L278.52 268.599L277.161 269.253L275.76 269.817L274.325 270.283L272.861 270.653L272.324 270.769L270.948 271.013L269.559 271.156L268.163 271.193L266.767 271.127L265.936 271.056L264.605 270.879L263.295 270.58L262.019 270.159L260.788 269.62L259.991 269.225L258.841 268.565L257.78 267.769L256.825 266.849L255.989 265.818L255.721 265.443L254.969 264.193L254.419 262.84L254.086 261.419L253.978 259.962L254.106 258.46L254.472 256.999L255.069 255.614L255.879 254.344L256.448 253.591L257.171 252.725L257.97 251.928L258.838 251.209L259.769 250.574L262.446 248.923L262.882 248.646L263.315 248.362L263.741 248.07L264.162 247.77L266.101 246.361L267.238 245.445L268.282 244.424L269.221 243.306L270.048 242.102L270.847 240.632L271.478 239.081L271.931 237.47L272.204 235.818L272.24 235.479L272.33 234.159L272.313 232.837L272.191 231.518L271.964 230.215L271.604 228.547L271.366 227.538L271.09 226.541L270.776 225.553L270.424 224.579L269.331 221.724L269.091 221.105L268.844 220.488L268.592 219.874L268.334 219.262L267.108 216.405L266.712 215.474L266.322 214.54L265.937 213.603L265.559 212.664L265.228 211.835L264.583 210.186L263.96 208.528L263.361 206.861L262.784 205.187L262.327 203.802L261.885 202.412L261.459 201.017L261.049 199.619L260.305 197.021L260.185 196.616L260.062 196.214L259.935 195.813L259.801 195.415L258.8 192.484L258.356 191.335L257.817 190.226L257.192 189.165L256.481 188.159L255.239 186.738L253.83 185.484L252.276 184.416L250.602 183.55L250.005 183.287L249.114 182.923L248.204 182.609L247.279 182.345L246.342 182.131L242.155 181.298L241.964 181.261L241.707 181.212L237.823 180.504L236.713 180.355L235.592 180.311L234.473 180.373L233.365 180.538L232.737 180.662L231.165 181.111L229.686 181.808L228.34 182.736L227.163 183.871L226.29 185.022L225.588 186.284L225.078 187.637L224.766 189.047L224.633 189.953L224.511 191.198L224.508 192.45L224.624 193.696L224.86 194.925L225.079 195.834L225.481 197.246L225.998 198.621L226.625 199.949L227.359 201.221L227.648 201.679L228.468 202.884L229.37 204.029L230.348 205.109L231.397 206.119L232.518 207.128L233.277 207.79L234.055 208.426L234.853 209.038L235.67 209.624L238.26 211.426L238.788 211.798L239.311 212.177L239.827 212.566L240.338 212.96L242.312 214.509L243.326 215.35L244.288 216.25L245.198 217.204L246.053 218.208L246.527 218.801L247.418 220.007L248.205 221.284L248.888 222.619L249.459 224.007L249.962 225.615L250.314 227.263L250.515 228.934L250.562 230.662L250.477 232.169L250.281 233.62L249.972 235.053L249.552 236.458L249.295 237.209L248.815 238.467L248.249 239.688L247.601 240.866L246.871 241.997L246.405 242.667L245.522 243.817L244.531 244.875L243.445 245.835L242.273 246.687L241.712 247.054L240.5 247.753L239.215 248.309L237.876 248.715L236.501 248.965L235.903 249.038L234.454 249.114L233.006 248.982L231.593 248.646L230.243 248.113L228.824 247.286L227.555 246.244L226.472 245.01L225.6 243.618L225.52 243.464L224.971 242.223L224.584 240.92L224.364 239.579L224.316 238.223L224.376 236.084L224.411 235.353L224.474 234.623L224.564 233.897L224.683 233.175L225.154 230.623L225.35 229.443L225.511 228.259L225.633 227.069L225.717 225.877L225.773 224.898L225.814 223.366L225.775 221.836L225.653 220.311L225.45 218.793L225.347 218.161L225.09 216.83L224.758 215.517L224.348 214.225L223.862 212.96L223.469 212.017L222.906 210.81L222.249 209.651L221.502 208.548L220.669 207.507L220.093 206.844L219.124 205.844L218.052 204.955L216.889 204.19L215.648 203.554L215.332 203.413L213.89 202.885L212.39 202.553L210.858 202.424L209.325 202.5L207.834 202.777L206.394 203.247L205.026 203.901L203.758 204.73L203.328 205.055L202.333 205.882L201.421 206.799L200.602 207.801L199.882 208.877L198.217 211.646L198.083 211.872L197.948 212.101L197.818 212.33L197.689 212.56L195.431 216.631L195.116 217.178L194.783 217.716L194.435 218.243L194.069 218.757L192.096 221.444L191.607 222.206L191.221 223.022L190.942 223.881L190.774 224.769L190.764 226.436L191.147 228.059L191.896 229.549L192.974 230.822L193.291 231.118L194.001 231.707L194.774 232.209L195.603 232.617L196.471 232.929L199.759 233.892L200.31 234.061L200.857 234.245L201.399 234.442L201.936 234.654L203.736 235.389L205.239 236.058L206.699 236.817L208.111 237.663L209.533 238.64L210.761 239.59L211.873 240.559L212.926 241.59L213.918 242.68L214.186 242.99L215.132 244.168L215.995 245.404L216.776 246.696L217.468 248.036L217.645 248.406L218.226 249.755L218.705 251.143L219.081 252.562L219.35 254.005L219.393 254.295L219.557 255.832L219.589 257.377L219.488 258.92L219.253 260.473L218.878 262.034L218.374 263.534L217.739 264.982L216.979 266.368L216.109 267.669L215.128 268.89L214.043 270.021L212.865 271.052L212.552 271.303L211.426 272.141L210.245 272.899L209.014 273.572L207.74 274.159L206.531 274.664L205.464 275.087L204.381 275.468L203.284 275.805L202.176 276.101L198.941 276.895L198.538 276.993L198.134 277.088L197.73 277.182L197.326 277.273L194.903 277.808L193.366 278.154L191.833 278.51L190.3 278.874L188.771 279.25L186.712 279.763L186.135 279.904L185.555 280.043L184.974 280.175L184.393 280.306L181.85 280.866L180.55 281.131L179.24 281.357L177.925 281.543L176.606 281.691L175.741 281.775L174.289 281.882L172.835 281.927L171.379 281.91L169.926 281.832L169.444 281.794L167.938 281.64L166.443 281.41L164.962 281.099L163.498 280.716L162.901 280.542L161.586 280.117L160.297 279.617L159.04 279.043L157.817 278.398L157.117 278.003L155.919 277.264L154.78 276.437L153.707 275.526L152.706 274.537L152.124 273.918L151.254 272.898L150.484 271.8L149.821 270.635L149.272 269.412L149.048 268.844L148.592 267.431L148.317 265.974L148.227 264.492L148.324 263.012L148.641 261.422L149.173 259.891L149.911 258.447L150.839 257.118L150.969 256.956L151.916 255.906L152.976 254.972L154.135 254.162L155.377 253.486L156.718 252.854L157.671 252.436L158.645 252.071L159.638 251.758L160.647 251.501L163.326 250.898L164.112 250.705L164.89 250.481L165.659 250.228L166.417 249.945L167.674 249.45L169.214 248.742L170.666 247.865L172.01 246.833L173.23 245.657L174.179 244.526L175.015 243.31L175.728 242.018L176.311 240.661L177.236 238.19L177.379 237.8L177.516 237.407L177.648 237.014L177.773 236.618L178.283 234.962L178.896 233.118L179.582 231.297L180.344 229.509L181.178 227.753L181.766 226.615L182.383 225.493L183.031 224.389L183.709 223.304L185.513 220.499L185.666 220.263L185.824 220.028L185.984 219.797L186.149 219.567L187.795 217.295L188.588 216.017L189.195 214.643L189.602 213.195L189.802 211.707L189.78 210.08L189.512 208.478L189.003 206.932L188.267 205.484L187.938 204.944L187.268 203.954L186.509 203.031L185.666 202.183L184.746 201.419L183.349 200.365L182.431 199.708L181.479 199.1L180.498 198.542L179.488 198.035L178.295 197.475L176.987 196.892L175.656 196.364L174.304 195.893L172.934 195.478L172.266 195.29L170.868 194.934L169.456 194.645L168.031 194.423L166.597 194.27L166.305 194.247L164.68 194.16L163.053 194.17L161.429 194.274L159.814 194.475L158.257 194.76L156.718 195.134L155.203 195.595L153.717 196.142L153.149 196.37L151.929 196.888L150.73 197.455L149.554 198.069L148.405 198.73L146.619 199.805L145.889 200.252L145.165 200.71L144.448 201.178L143.737 201.656L140.482 203.885L140.151 204.111L139.818 204.338L139.486 204.562L139.153 204.786L135.496 207.245L134.976 207.593L134.455 207.941L133.934 208.287L133.411 208.633L130.629 210.464L129.846 210.982L129.068 211.507L128.293 212.038L127.522 212.574L125.817 213.766L124.798 214.492L123.793 215.237L122.801 215.997L121.822 216.775L120.823 217.585L119.797 218.438L118.794 219.319L117.817 220.229L116.864 221.165L116.295 221.74L115.271 222.816L114.289 223.93L113.352 225.081L112.46 226.269L112.126 226.73L111.305 227.926L110.539 229.157L109.829 230.422L109.178 231.718L109.023 232.042L108.384 233.494L107.825 234.976L107.35 236.488L106.941 238.102L106.626 239.695L106.415 241.225L106.291 242.766L106.255 244.31L106.313 245.97L106.473 247.624L106.733 249.266L107.103 250.928L107.521 252.412L108.006 253.834L108.567 255.226L109.202 256.587L109.853 257.89L110.304 258.766L110.775 259.631L111.267 260.483L111.779 261.325L113.378 263.884L113.762 264.51L114.134 265.144L114.495 265.784L114.843 266.431L115.977 268.582L116.535 269.723L117.021 270.897L117.434 272.098L117.772 273.323L118.021 274.348L118.286 275.711L118.424 277.094L118.433 278.483L118.313 279.867L118.219 280.572L117.953 281.944L117.53 283.276L116.954 284.55L116.234 285.747L115.954 286.156L115.06 287.287L114.015 288.281L112.842 289.119L111.54 289.794L110.05 290.31L108.523 290.586L106.973 290.626L105.434 290.426L104.047 290.033L102.73 289.445L101.51 288.676L100.412 287.742L99.4523 286.798L98.7954 286.109L98.1844 285.379L97.6221 284.611L97.1106 283.808L95.7648 281.538L95.2652 280.733L94.7335 279.947L94.1707 279.184L93.5778 278.444L92.7076 277.401L91.6667 276.267L90.5241 275.234L89.2902 274.313L87.9754 273.512L86.5529 272.819L85.0706 272.268L83.5422 271.861L81.9816 271.602L81.6119 271.559L80.2409 271.452L78.8657 271.447L77.494 271.545L76.1335 271.746L74.9074 271.973L73.7387 272.218L72.5818 272.514L71.4397 272.862L70.3143 273.262L68.5252 273.942L67.5295 274.332L66.5427 274.746L65.5654 275.181L64.598 275.638L63.0074 276.411L61.8658 276.978L60.7333 277.56L59.6101 278.162L58.4963 278.782L57.4292 279.385L56.271 280.059L55.1294 280.76L54.0047 281.489L52.898 282.245L51.3763 283.348L49.8926 284.502L48.4486 285.706L47.03 286.972L46.056 287.892L45.1191 288.818L44.2039 289.767L43.3112 290.737L41.5646 292.678L41.1569 293.127L40.7441 293.57L40.3262 294.007L39.9031 294.442L38.0565 296.31L37.1227 297.209L36.1447 298.06L35.1252 298.862L34.0666 299.61L33.3683 300.077L32.1169 300.85L30.8122 301.53L29.4613 302.112L28.0712 302.593L27.5654 302.747L26.1765 303.11L24.7619 303.352L23.3319 303.473L21.8967 303.475L21.1034 303.442L19.7882 303.32L18.4919 303.066L17.2278 302.683L16.0087 302.175L14.9649 301.677L13.909 301.081L12.9434 300.348L12.0859 299.491L11.3523 298.526L11.0229 298.026L10.3324 296.708L9.91526 295.281L9.78781 293.799L9.95506 292.321L10.4268 290.868L11.1832 289.54L12.1928 288.394L13.4137 287.475L14.2831 286.95L15.2398 286.443L16.2465 286.043L17.2909 285.756L18.3606 285.584L21.5369 285.256L22.0644 285.196L22.5902 285.124L23.1145 285.04L23.6367 284.945L26.2785 284.434L27.5725 284.112L28.8258 283.656L30.0242 283.071L31.1546 282.363L31.6076 282.046L32.8121 281.066L33.8638 279.922L34.7409 278.64L35.4251 277.245L35.9066 275.751L36.1667 274.202L36.2001 272.632L36.0056 271.073L35.8068 270.076L35.5604 269.043L35.2375 268.031L34.84 267.046L34.3701 266.093L32.5974 262.814L32.4609 262.563L32.3226 262.315L32.1826 262.066L32.0407 261.818L29.9174 258.151L29.5103 257.432L29.1175 256.705L28.7391 255.97L28.3753 255.228L27.2796 252.936L26.8224 251.906L26.4246 250.849L26.0877 249.773L25.8126 248.68L25.5243 247.377L25.293 245.995L25.2066 244.596L25.2662 243.196L25.4824 241.754L25.9313 240.073L26.5742 238.52L27.412 237.061L28.4305 235.724L29.4274 234.697L30.5309 233.785L31.7277 232.999L33.0036 232.35L34.0983 231.867L35.143 231.442L36.2117 231.085L37.3002 230.792L38.4046 230.567L40.9811 230.123L41.7504 230L42.5217 229.889L43.2953 229.795L44.0704 229.717L46.9756 229.45L47.9636 229.367L48.953 229.304L49.9434 229.26L50.9345 229.234L52.3894 229.21L53.8953 229.215L55.3997 229.285L56.8999 229.419L58.393 229.614L60.0737 229.912L61.7382 230.288L63.3827 230.744L65.0037 231.279L66.3796 231.77L67.1114 232.036L67.8391 232.315L68.5623 232.604L69.2811 232.903L71.8446 233.998L72.824 234.389L73.8205 234.735L74.832 235.033L75.856 235.285L77.2166 235.587L78.64 235.833L80.0805 235.946L81.5249 235.922L82.9608 235.764L83.188 235.728L84.738 235.395L86.2423 234.894L87.6822 234.231L89.0405 233.413L90.2658 232.481L91.3847 231.425L92.3843 230.253L93.2532 228.983L93.6121 228.392L94.229 227.291L94.7652 226.148L95.2181 224.969L95.5853 223.762L96.3303 220.951L96.452 220.479L96.5678 220.006L96.6774 219.532L96.7808 219.056L97.448 215.884L97.7036 214.794L98.0083 213.716L98.3617 212.654L98.7631 211.607L99.1574 210.647L99.8083 209.231L100.576 207.875L101.455 206.59L102.439 205.381L103.552 204.23L104.761 203.18L106.056 202.237L107.427 201.41L108.06 201.065L109.14 200.513L110.248 200.018L111.381 199.586L112.535 199.213L115.48 198.349L115.931 198.219L116.383 198.093L116.836 197.972L117.29 197.855L119.521 197.287L121.077 196.877L122.626 196.436L124.166 195.966L125.696 195.464L127.222 194.933L128.738 194.372L130.242 193.782L131.734 193.162L134.529 191.972L134.658 191.916L134.83 191.843L138.421 190.303L139.534 189.839L140.657 189.397L141.788 188.978L142.927 188.582L143.794 188.29L145.282 187.818L146.784 187.396L148.3 187.024L149.828 186.705L151.462 186.423L153.104 186.2L154.754 186.035L156.408 185.93L156.817 185.912L158.174 185.867L159.531 185.859L160.889 185.885L162.245 185.948L164.357 186.074L165.166 186.125L165.975 186.183L166.784 186.249L167.592 186.322L170.797 186.626L171.603 186.696L172.411 186.755L173.218 186.802L174.028 186.837L176.632 186.931L177.746 186.947L178.857 186.915L179.965 186.836L181.07 186.707L182.684 186.483L183.939 186.258L185.171 185.931L186.372 185.506L187.535 184.985L187.875 184.815L189.328 183.98L190.671 182.979L191.886 181.827L192.957 180.538L193.736 179.36L194.393 178.11L194.923 176.8L195.318 175.443L195.87 173.122L195.994 172.577L196.107 172.028L196.207 171.478L196.295 170.925L196.583 168.977L196.85 167.314L197.157 165.658L197.502 164.009L197.885 162.37L198.565 159.615L198.607 159.439L198.667 159.204L199.569 155.597L199.872 154.353L200.157 153.106L200.424 151.854L200.672 150.6L201.086 148.438L201.255 147.606L201.441 146.779L201.646 145.953L201.867 145.135L202.413 143.197L202.819 141.903L203.302 140.635L203.859 139.399L204.488 138.199L204.863 137.532L205.62 136.306L206.47 135.143L207.411 134.053L208.433 133.04L208.775 132.731L209.912 131.787L211.133 130.953L212.427 130.24L213.782 129.652L213.959 129.585L215.432 129.114L216.945 128.799L218.483 128.643L220.029 128.65L221.575 128.819L223.096 129.15L224.573 129.638L225.99 130.281L226.244 130.412L227.479 131.123L228.646 131.939L229.737 132.856L230.744 133.866L231.564 134.767L232.313 135.63L233.019 136.531L233.679 137.465L234.289 138.431L235.639 140.682L236.055 141.322L236.519 141.931L237.026 142.503L237.574 143.034L239.196 144.232L241.023 145.091L242.98 145.577L245.043 145.67L246.057 145.573L247.008 145.392L247.938 145.124L248.841 144.771L251.303 143.675L252.109 143.299L252.902 142.895L253.68 142.462L254.441 142.001L257.361 140.168L257.883 139.845L258.408 139.528L258.937 139.218L259.471 138.914L261.761 137.707L264.112 136.622L266.518 135.662L268.969 134.829L269.661 134.615L269.904 134.538L270.146 134.46L270.387 134.378L270.627 134.295L272.316 133.705L274.183 132.944L275.962 131.996L277.635 130.874L279.187 129.589L279.958 128.84L280.69 128.05L281.378 127.221L282.02 126.357L282.991 124.971L283.758 123.931L284.572 122.928L285.433 121.963L286.338 121.043L287.078 120.324L288.104 119.394L289.192 118.538L290.336 117.757L291.532 117.059L292.138 116.734L293.434 116.108L294.777 115.602L296.162 115.217L297.637 114.947L299.312 114.799L300.934 114.827L302.544 115.024L304.122 115.388L305.539 115.867L306.902 116.479L308.201 117.218L309.423 118.079L309.992 118.523L310.996 119.36L311.943 120.265L312.824 121.231L313.639 122.255L314.482 123.393L315.171 124.363L315.821 125.359L316.431 126.38L316.998 127.425L317.897 129.159L318.372 130.104L318.832 131.056L319.271 132.018L319.693 132.99L320.942 135.948L321.158 136.47L321.37 136.996L321.577 137.523L321.777 138.052L322.739 140.628L323.156 141.842L323.515 143.074L323.811 144.323L324.044 145.585L324.111 146.006L324.311 147.637L324.394 149.276L324.359 150.919L324.206 152.553L323.963 154.426L323.903 155.046L323.887 155.668L323.913 156.29L323.982 156.908L324.258 158.815L324.598 160.075L325.231 161.218L326.119 162.178L327.209 162.898L328.501 163.351L329.866 163.467L331.214 163.238L332.465 162.679L334.791 161.262L335.107 161.077L335.427 160.906L335.753 160.743L336.084 160.594L337.535 159.97L339.378 159.333L341.294 158.974L343.244 158.9L345.183 159.113L346.331 159.378L347.452 159.745L348.536 160.211L349.574 160.772L352.599 162.582L352.834 162.725L353.067 162.869L353.301 163.016L353.533 163.163L355.069 164.155L356.798 165.229L358.562 166.242L360.36 167.196L362.204 168.095L363.289 168.586L364.365 169.05L365.452 169.493L366.546 169.912L368.321 170.573L369.352 170.977L370.367 171.417L371.366 171.892L372.347 172.402L372.868 172.684L374.426 173.594L375.922 174.609L377.345 175.719L378.692 176.922L379.681 177.915L380.618 178.959L381.498 180.048L382.324 181.183L383.09 182.299L383.725 183.249L384.333 184.219L384.912 185.204L385.462 186.206L387.422 189.89L389.04 192.942L389.776 194.238L390.588 195.491L391.471 196.693L392.421 197.843L393.597 199.092L394.852 200.26L396.185 201.342L397.586 202.331L399.922 203.866L400.056 203.953L400.239 204.068L402.153 205.257L403.879 206.126L405.732 206.676L407.653 206.891L409.581 206.762L410.743 206.514L411.871 206.142L412.951 205.648L413.973 205.039L415.297 204.148L416.273 203.443L417.199 202.675L418.072 201.846L418.889 200.963L419.618 200.118L420.533 198.996L421.387 197.825L422.174 196.61L422.895 195.353L423.618 194.008L424.115 193.136L424.656 192.29L425.237 191.473L425.861 190.686L426.079 190.424L427.451 188.951L428.975 187.636L430.634 186.497L432.409 185.545L433.471 185.089L434.56 184.7L435.671 184.382L436.801 184.132L438.974 183.725L439.914 183.563L440.859 183.424L441.806 183.312L442.757 183.224L444.831 183.062L446.06 182.977L447.292 182.919L448.525 182.888L449.759 182.882L450.678 182.886L452.21 182.921L453.742 183.007L455.269 183.146L456.79 183.335L459.018 183.652L459.579 183.723L460.142 183.77L460.704 183.797L461.269 183.804L463.141 183.788L464.787 183.634L466.382 183.208L467.884 182.516L469.248 181.584L470.224 180.667L471.066 179.625L471.758 178.48L472.286 177.249L472.716 176.025L473.049 174.944L473.295 173.84L473.455 172.72L473.526 171.592L473.574 169.496L473.578 168.473L473.545 167.451L473.475 166.43L473.365 165.413L473.338 165.194L473.149 163.123L473.101 161.045L473.194 158.968L473.429 156.902L473.621 155.604L473.685 155.148L473.743 154.691L473.794 154.233L473.839 153.774L474.116 150.688L474.273 149.493L474.534 148.318L474.894 147.167L475.35 146.053L475.93 144.791L476.52 143.711L477.251 142.72L478.108 141.837L479.077 141.077L479.663 140.681L480.927 139.991L482.302 139.56L483.736 139.406L485.172 139.533L486.52 139.924L487.771 140.563L488.878 141.427L489.801 142.487L490.149 142.974L490.781 143.994L491.267 145.091L491.601 146.244L491.779 147.432L491.993 150.137L492.03 150.724L492.049 151.312L492.049 151.899L492.03 152.489L491.853 156.27L491.83 157.016L491.833 157.764L491.863 158.511L491.917 159.257L492.076 160.991L492.305 162.543L492.706 164.061L493.273 165.521L494.001 166.912L494.829 168.143L495.782 169.281L496.848 170.312L498.02 171.225L498.511 171.568L499.661 172.29L500.877 172.896L502.146 173.38L503.456 173.739L504.28 173.923L505.592 174.127L506.92 174.168L508.242 174.043L509.538 173.753L510.048 173.604L511.386 173.097L512.623 172.386L513.734 171.487L514.688 170.424L515.484 169.181L516.066 167.824L516.418 166.389L516.53 164.918L516.526 163.95L516.473 162.907L516.329 161.872L516.095 160.855L515.771 159.862L514.738 157.107L514.499 156.446L514.277 155.778L514.072 155.106L513.882 154.429L513.431 152.727L513.054 151.156L512.755 149.566L512.535 147.964L512.393 146.354L512.33 144.76L512.345 143.163L512.438 141.57L512.607 139.982L512.991 137.062L513.015 136.868L513.046 136.61L513.361 133.749L513.44 132.134L513.322 130.52L513.01 128.934L512.508 127.396L511.935 126.138L511.234 124.947L510.414 123.835L509.483 122.814L507.686 121.037L507.293 120.64L506.91 120.235L506.534 119.82L506.17 119.398L504.899 117.9L503.908 116.616L503.04 115.245L502.3 113.802L501.697 112.295L501.262 110.849L500.953 109.371L500.769 107.87L500.716 106.36L500.721 105.562L500.767 104.293L500.885 103.028L501.075 101.771L501.336 100.529L501.651 99.2161L501.968 97.9899L502.334 96.7766L502.741 95.5779L503.195 94.3954L503.599 93.3974L504.148 92.0934L504.736 90.8041L505.361 89.5345L506.022 88.283L506.45 87.5041L507.117 86.3155L507.811 85.1404L508.529 83.9806L509.272 82.8377L511.216 79.9127L511.307 79.7768L511.428 79.5944L513.668 76.2543L514.287 75.3036L514.878 74.3344L515.439 73.3502L515.974 72.3491L516.627 71.0817L517.219 69.852L517.746 68.5941L518.206 67.3094L518.597 66.003L518.84 65.1111L519.151 63.7818L519.367 62.4347L519.487 61.0751L519.512 59.7107L519.495 58.6391L519.415 57.374L519.217 56.1212L518.906 54.892L518.481 53.6977L518.084 52.7271L517.509 51.5495L516.782 50.4583L515.915 49.474L514.926 48.6137L514.331 48.1631L513.209 47.4533L511.981 46.9463L510.684 46.6569L509.357 46.5934L508.973 46.6073L507.597 46.801L506.288 47.2674L505.101 47.9881L504.082 48.9339L503.242 50.1255L502.673 51.4676L502.402 52.9007L502.438 54.3581L502.616 55.686L502.778 56.5843L503.023 57.4633L503.348 58.3152L503.752 59.1351L505.057 61.4976L505.427 62.2945L505.679 63.1361L505.809 64.0047L505.815 64.8828L505.448 66.6217L504.6 68.1824L503.344 69.4394L501.783 70.2868L500.5 70.7587L500.198 70.8553L499.888 70.9231L499.574 70.962L499.257 70.9735L497.836 71.2579L496.655 72.0964L495.918 73.3426L495.75 74.7816L495.951 76.8979L495.973 77.096L496.003 77.2922L496.039 77.4867L496.083 77.6808L496.411 79.0096L496.847 81.2306L497.073 83.4819L497.084 85.7457L496.882 87.9995L496.826 88.4059L496.718 89.1231L496.588 89.8377L496.439 90.5483L496.271 91.2547L495.665 93.6461L495.367 94.8796L495.098 96.1185L494.859 97.3645L494.648 98.6158L494.38 100.544L494.182 102.48L494.052 104.423L493.991 106.369L493.973 107.788L493.961 108.358L493.945 108.929L493.92 109.499L493.891 110.07L493.705 113.201L493.611 114.278L493.463 115.35L493.255 116.413L492.993 117.466L492.342 119.413L491.501 121.28L490.476 123.054L489.277 124.717L488.546 125.58L487.769 126.4L486.946 127.176L486.083 127.904L484.673 129.029L483.735 129.752L482.776 130.443L481.792 131.105L480.789 131.733L478.964 132.836L478.119 133.326L477.257 133.787L476.38 134.217L475.489 134.618L474.388 135.09L472.919 135.652L471.41 136.102L469.871 136.434L468.312 136.646L466.884 136.785L465.991 136.908L465.11 137.101L464.246 137.362L463.407 137.69L460.345 139.031L459.893 139.28L459.494 139.608L459.163 140.003L458.91 140.452L458.67 141.768L459.066 143.044L460.008 143.992L461.28 144.397L462.952 144.509L463.319 144.517L463.687 144.488L464.049 144.424L464.403 144.324L466.228 144.185L467.906 144.915L469.046 146.349Z" fill="#190B2F"/>
</svg>
