<svg width="454" height="473" viewBox="0 0 454 473" fill="none" xmlns="http://www.w3.org/2000/svg">
<path d="M384.7 22.992L384.667 21.1847L384.638 19.5612L384.622 17.9377L384.621 16.3159L384.634 14.6923L384.679 11.1636V11.0536L384.691 6.79642L384.806 5.56978L385.143 4.38263L385.688 3.27625L386.425 2.28669L386.547 2.15095L387.878 1.01881L389.464 0.285207L391.187 0L392.924 0.187271L393.991 0.55149L394.978 1.09782L395.858 1.80565L396.6 2.65603L397.494 3.87755L398.215 5.00969L398.789 6.22433L399.205 7.50254L399.456 8.82195L399.621 10.1328L399.73 11.4367V12.7441L399.624 14.0481L399.408 15.34L398.801 18.228L398.67 18.8224L398.53 19.4117L398.378 20.001L398.215 20.5851L397.753 22.1932L397.233 24.1087L396.765 26.0397L396.355 27.9828L395.999 29.9379L395.777 31.3535L395.587 32.7726L395.423 34.1968L395.289 35.6227L394.977 39.392L394.963 39.5518L394.946 39.7631L394.446 45.9875L394.427 46.2159L394.408 46.4462L394.389 46.6764L394.37 46.9066L394.003 51.2995L393.92 52.2925L393.843 53.2872L393.769 54.282L393.699 55.275L393.482 58.3863L393.424 59.2607L393.369 60.1335L393.316 61.0079L393.266 61.8807L393.139 64.2257L393.056 65.6053L392.958 66.9849L392.846 68.3627L392.719 69.7388L392.456 72.424L392.384 73.1181L392.3 73.8104L392.204 74.5028L392.097 75.1917L391.536 78.6501L391.408 79.6173L391.341 80.5914L391.336 81.5655L391.391 82.5396L391.53 84.1288L391.773 85.6286L392.23 87.0768L392.895 88.4427L393.75 89.6985L394.839 90.8719L396.095 91.8632L397.488 92.6518L398.987 93.217L399.249 93.2926L400.672 93.6104L402.124 93.741L403.581 93.6825L405.019 93.4369L405.907 93.2256L407.23 92.8442L408.511 92.3408L409.74 91.7206L410.904 90.9887L412.614 89.7999L413.394 89.2347L414.151 88.642L414.887 88.0217L415.598 87.3741L417.797 85.2936L418.5 84.6493L419.218 84.0223L419.953 83.4158L420.706 82.8299L422.241 81.6669L423.453 80.813L424.721 80.0468L426.04 79.3699L427.402 78.7858L427.791 78.6363L429.366 78.1037L430.984 77.7103L432.63 77.4629L434.291 77.3599L435.963 77.4028L437.626 77.5952L439.265 77.932L440.921 78.4319L442.483 79.0469L443.936 79.7668L445.324 80.6051L446.639 81.5569L446.879 81.7459L448.078 82.7767L449.181 83.9089L450.183 85.1321L451.076 86.436L451.928 87.9685L452.629 89.5731L453.174 91.2395L453.566 93.0194L453.777 94.5948L453.853 96.1153L453.808 97.6357L453.64 99.1475L453.389 100.804L453.214 101.834L453.002 102.857L452.755 103.872L452.47 104.877L451.427 108.332L451.257 108.887L451.083 109.442L450.905 109.995L450.722 110.546L449.597 113.915L449.243 114.927L448.86 115.929L448.451 116.919L448.015 117.898L447.35 119.334L446.659 120.714L445.888 122.05L445.038 123.335L444.072 124.615L442.871 126.012L441.615 127.275L440.27 128.443L438.844 129.511L437.499 130.382L436.101 131.166L434.652 131.857L433.164 132.451L432.137 132.824L430.947 133.231L429.741 133.592L428.521 133.906L427.291 134.174L423.683 134.889L423.358 134.952L423.033 135.016L422.707 135.076L422.382 135.136L419.149 135.722L417.714 135.987L416.283 136.258L414.851 136.536L413.421 136.823L411.281 137.26L410.416 137.437L409.554 137.615L408.693 137.799L407.831 137.983L404.087 138.796L403.467 138.931L402.847 139.069L402.227 139.208L401.608 139.35L397.765 140.239L396.961 140.417L396.154 140.586L395.343 140.74L394.53 140.883L393.085 141.127L391.247 141.393L389.398 141.57L387.543 141.661L385.686 141.665L384.134 141.599L382.587 141.474L381.047 141.287L379.515 141.039L376.194 140.436L376.008 140.402L375.823 140.367L375.637 140.333L375.452 140.297L371.664 139.572L370.372 139.333L369.076 139.11L367.779 138.902L366.479 138.71L364.381 138.433L362.28 138.198L360.174 138.002L358.066 137.847L357.497 137.811L356.469 137.751L355.442 137.699L354.413 137.655L353.386 137.62L349.211 137.495L348.902 137.483L348.592 137.469L348.283 137.45L347.974 137.43L342.945 137.055L342.365 137.045L341.788 137.096L341.219 137.212L340.666 137.387L339.061 138.347L337.888 139.802L337.29 141.574L337.341 143.441L337.657 144.968L337.7 145.161L337.748 145.353L337.802 145.542L337.86 145.731L338.628 148.09L339.063 149.823L339.255 151.601L339.202 153.388L338.903 155.151L338.48 156.548L337.903 157.889L337.18 159.157L336.317 160.336L335.804 160.963L334.819 162.045L333.732 163.024L332.552 163.89L331.291 164.634L330.56 165.016L329.265 165.595L327.908 166.009L326.509 166.249L325.092 166.314L324.4 166.302L322.958 166.167L321.555 165.806L320.225 165.23L319 164.456L317.76 163.337L316.741 162.014L315.976 160.528L315.492 158.93L315.452 158.745L315.268 157.367L315.282 155.977L315.492 154.605L315.896 153.275L316.772 150.985L317.019 150.268L317.217 149.535L317.363 148.791L317.459 148.037L317.629 146.202L317.605 144.681L317.256 143.2L316.598 141.828L315.664 140.629L314.408 139.6L312.951 138.885L311.37 138.521L309.749 138.526L306.41 138.923L306.093 138.959L302.851 139.381L299.626 139.902L296.417 140.52L293.228 141.237L292.996 141.292L292.689 141.364L290.969 141.768L288.598 142.299L286.219 142.78L283.829 143.213L281.432 143.594L280.443 143.747L279.455 143.907L278.467 144.075L277.483 144.252L273.351 145.013L273.026 145.077L272.705 145.144L272.384 145.217L272.064 145.296L268.836 146.126L267.525 146.575L266.3 147.226L265.194 148.059L264.206 149.088L263.206 150.588L262.552 152.225L262.244 153.96L262.297 155.723L262.579 157.036L263.06 158.29L263.732 159.454L264.575 160.499L265.17 161.128L266.249 162.128L267.446 162.978L268.745 163.667L270.121 164.181L271.363 164.554L272.523 164.856L273.701 165.071L274.894 165.198L276.091 165.237L280.127 165.217L280.316 165.215L280.506 165.213L280.695 165.21L280.886 165.206L283.678 165.143L285.521 165.127L287.365 165.16L289.206 165.244L291.045 165.378L292.618 165.533L294.187 165.723L295.752 165.952L297.31 166.217L298.241 166.385L299.592 166.641L300.939 166.919L302.28 167.216L303.617 167.536L304.498 167.754L306.05 168.151L307.594 168.577L309.13 169.029L310.657 169.51L311.506 169.785L312.817 170.223L314.117 170.688L315.409 171.18L316.691 171.697L317.425 172.003L318.936 172.657L320.428 173.358L321.898 174.104L323.347 174.892L324.001 175.264L325.209 175.97L326.392 176.715L327.55 177.5L328.684 178.32L329.526 178.952L330.701 179.876L331.833 180.854L332.917 181.885L333.953 182.964L334.63 183.704L335.551 184.773L336.408 185.894L337.197 187.066L337.913 188.283L338.412 189.186L339.063 190.497L339.604 191.858L340.028 193.258L340.336 194.689L340.401 195.069L340.599 196.749L340.614 198.441L340.449 200.125L340.106 201.783L339.613 203.322L338.967 204.803L338.173 206.212L337.238 207.531L336.654 208.271L335.847 209.234L334.981 210.144L334.062 211L333.091 211.799L330.258 213.982L329.968 214.204L329.674 214.425L329.378 214.644L329.083 214.86L327.258 216.181L325.707 217.339L324.187 218.538L322.7 219.779L321.249 221.06L320.16 222.069L319.091 223.101L318.045 224.156L317.021 225.233L315.153 227.238L314.76 227.656L314.361 228.07L313.961 228.48L313.556 228.886L311.291 231.124L310.374 231.985L309.415 232.799L308.415 233.564L307.378 234.277L306.22 235.029L304.985 235.759L303.693 236.38L302.351 236.888L300.971 237.28L300.322 237.435L298.788 237.709L297.233 237.811L295.676 237.737L294.11 237.481L292.472 237.015L290.935 236.362L289.488 235.528L288.155 234.519L287.014 233.42L286.008 232.195L285.152 230.861L284.458 229.437L284.274 228.997L283.771 227.614L283.401 226.188L283.166 224.735L283.071 223.264L283.047 221.936L283.058 220.708L283.137 219.481L283.281 218.262L283.492 217.052L284.307 213.034L284.35 212.821L284.41 212.539L285.279 208.447L285.509 207.244L285.69 206.033L285.82 204.815L285.899 203.592L285.965 202.159L285.977 200.709L285.882 199.262L285.684 197.824L285.38 196.407L285.193 195.658L284.753 194.21L284.18 192.808L283.475 191.468L282.645 190.202L282.384 189.841L281.393 188.624L280.273 187.525L279.036 186.559L277.646 185.711L276.102 184.993L274.536 184.487L272.923 184.178L271.283 184.067L269.662 184.154L268.065 184.434L266.512 184.905L265.027 185.558L264.746 185.702L263.435 186.463L262.208 187.355L261.078 188.368L260.059 189.492L259.246 190.485L258.507 191.445L257.824 192.447L257.2 193.486L256.637 194.56L254.939 198.042L254.819 198.29L254.7 198.539L254.582 198.788L254.467 199.037L253.048 202.106L252.415 203.423L251.747 204.725L251.046 206.009L250.309 207.272L249.273 208.931L248.177 210.551L247.023 212.13L245.813 213.668L245.679 213.833L244.806 214.875L243.91 215.898L242.989 216.898L242.044 217.877L239.417 220.535L239.276 220.679L239.134 220.821L238.991 220.964L238.848 221.108L235.93 224.026L235.115 224.859L234.323 225.711L233.552 226.582L232.801 227.472L231.854 228.621L230.923 229.808L230.05 231.037L229.234 232.305L228.48 233.61L228.267 233.997L227.508 235.486L226.838 237.017L226.259 238.584L225.771 240.183L225.369 241.858L225.07 243.554L224.872 245.265L224.78 246.992L224.79 248.663L224.897 250.326L225.101 251.981L225.4 253.62L225.477 253.981L225.838 255.489L226.273 256.98L226.779 258.447L227.358 259.887L227.85 261.03L228.358 262.167L228.898 263.289L229.468 264.395L230.071 265.486L231.669 268.286L231.954 268.783L232.243 269.276L232.533 269.771L232.827 270.262L234.577 273.174L235.168 274.172L235.746 275.177L236.311 276.191L236.861 277.211L237.563 278.538L238.257 279.888L238.915 281.254L239.536 282.639L240.121 284.039L240.336 284.573L240.915 286.083L241.446 287.612L241.924 289.158L242.351 290.718L242.449 291.098L242.819 292.661L243.133 294.237L243.387 295.822L243.583 297.417L243.623 297.795L243.758 299.41L243.827 301.03L243.829 302.651L243.764 304.272L243.736 304.703L243.604 306.275L243.399 307.839L243.124 309.392L242.779 310.93L242.618 311.577L242.217 313.023L241.74 314.445L241.188 315.839L240.563 317.203L240.233 317.876L239.515 319.222L238.708 320.517L237.816 321.754L236.842 322.929L236.484 323.332L235.381 324.479L234.187 325.531L232.911 326.483L231.561 327.326L231.234 327.513L229.812 328.239L228.329 328.831L226.798 329.286L225.233 329.598L224.639 329.688L223.172 329.836L221.698 329.833L220.23 329.681L218.787 329.38L218.483 329.301L216.848 328.757L215.298 328.008L213.857 327.064L212.549 325.942L211.453 324.731L210.513 323.394L209.745 321.952L209.16 320.426L208.814 319.331L208.496 318.194L208.254 317.038L208.089 315.869L208.002 314.692L207.859 311.274L207.833 310.745L207.802 310.216L207.765 309.688L207.72 309.16L207.5 306.724L207.314 305.06L207.057 303.405L206.729 301.763L206.332 300.136L205.846 298.461L205.284 296.81L204.65 295.185L203.942 293.584L203.198 292.084L202.394 290.622L201.53 289.196L200.606 287.806L200.257 287.305L199.41 286.129L198.529 284.982L197.611 283.862L196.659 282.771L195.696 281.7L194.845 280.773L193.978 279.861L193.093 278.964L192.194 278.082L190.591 276.543L189.824 275.811L189.05 275.086L188.272 274.368L187.487 273.655L185.518 271.88L184.743 271.176L183.979 270.463L183.221 269.741L182.472 269.01L181.904 268.45L180.51 267.039L179.151 265.593L177.832 264.11L176.55 262.596L175.645 261.474L174.758 260.335L173.894 259.181L173.052 258.009L171.733 256.138L171.25 255.448L170.769 254.754L170.295 254.058L169.824 253.359L167.766 250.285L167.35 249.674L166.924 249.071L166.488 248.474L166.041 247.885L164.342 245.681L163.521 244.681L162.643 243.734L161.708 242.843L160.721 242.01L159.954 241.401L158.656 240.47L157.271 239.671L155.816 239.012L154.302 238.498L154.02 238.417L152.478 238.063L150.906 237.874L149.323 237.852L147.746 237.998L146.049 238.348L144.405 238.891L142.835 239.622L141.357 240.529L141.142 240.678L139.996 241.556L138.933 242.534L137.962 243.604L137.091 244.757L136.17 246.095L135.557 247.033L134.985 247.997L134.458 248.986L133.977 249.998L133.178 251.775L132.695 252.996L132.324 254.255L132.071 255.542L131.932 256.92L131.949 258.887L132.226 260.758L132.757 262.576L133.53 264.304L134.222 265.464L135.023 266.549L135.925 267.554L136.919 268.465L138.405 269.697L139.239 270.357L140.099 270.978L140.989 271.561L141.903 272.102L144.891 273.786L145.456 274.098L146.023 274.408L146.595 274.708L147.169 275.005L150.61 276.756L151.371 277.148L152.129 277.545L152.883 277.947L153.636 278.356L156.055 279.68L157.096 280.268L158.125 280.878L159.138 281.512L160.136 282.168L161.504 283.089L162.652 283.898L163.761 284.753L164.835 285.657L165.868 286.605L166.445 287.157L167.569 288.299L168.62 289.509L169.597 290.78L170.525 292.158L171.427 293.694L172.197 295.233L172.858 296.822L173.411 298.451L173.841 300.054L174.164 301.68L174.38 303.325L174.492 305.059L174.499 306.786L174.401 308.431L174.203 310.066L173.905 311.686L173.862 311.881L173.468 313.476L172.982 315.045L172.405 316.583L171.742 318.085L171.644 318.289L170.898 319.749L170.073 321.166L169.173 322.537L168.201 323.857L167.989 324.127L166.983 325.357L165.918 326.538L164.797 327.667L163.626 328.741L163.047 329.248L161.947 330.174L160.819 331.062L159.659 331.91L158.47 332.717L156.62 333.928L155.879 334.407L155.132 334.877L154.378 335.338L153.62 335.79L151.249 337.183L150.241 337.785L149.241 338.4L148.251 339.03L147.269 339.673L146.898 339.92L145.224 341.065L143.58 342.253L141.97 343.485L140.393 344.76L139.326 345.662L138.277 346.583L137.244 347.524L136.227 348.483L133.992 350.634L133.643 350.968L133.291 351.298L132.937 351.626L132.58 351.951L129.913 354.358L129.048 355.103L128.146 355.806L127.213 356.465L126.247 357.079L124.655 358.039L123.51 358.658L122.313 359.168L121.073 359.565L119.803 359.844L118.719 360.029L117.3 360.171L115.876 360.112L114.472 359.854L113.12 359.402L111.596 358.614L110.225 357.58L109.05 356.329L108.1 354.899L107.859 354.459L107.327 353.348L106.915 352.187L106.628 350.989L106.47 349.767L106.233 346.616L106.183 346.029L106.119 345.442L106.042 344.857L105.951 344.274L105.398 340.952L105.241 339.817L105.152 338.674L105.128 337.529L105.171 336.383L105.428 334.252L105.916 332.161L106.626 330.134L107.552 328.197L108.248 326.922L108.493 326.461L108.73 325.996L108.957 325.527L109.175 325.053L109.789 323.681L110.634 321.706L111.412 319.704L112.124 317.678L112.768 315.629L113.142 314.359L113.316 313.765L113.484 313.17L113.649 312.574L113.809 311.977L115.044 307.305L115.146 306.921L115.247 306.537L115.35 306.153L115.455 305.769L116.516 301.848L116.772 300.879L117.016 299.906L117.25 298.93L117.472 297.953L117.745 296.719L118.106 294.963L118.417 293.199L118.678 291.426L118.887 289.646L119.033 288.021L119.138 286.391L119.202 284.76L119.221 283.128L119.219 280.292V279.912L119.224 279.532L119.229 279.153L119.239 278.771L119.315 275.959L119.406 274.334L119.586 272.717L119.858 271.111L120.219 269.523L120.71 267.828L121.303 266.163L121.997 264.538L122.787 262.957L123.354 261.907L123.842 260.973L124.302 260.026L124.739 259.066L125.149 258.095L126.471 254.845L126.709 254.273L126.96 253.704L127.221 253.142L127.493 252.584L129.048 249.476L129.479 248.509L129.826 247.509L130.083 246.481L130.252 245.435L130.436 243.851L130.47 242.363L130.231 240.895L129.726 239.494L128.972 238.211L127.805 236.912L126.386 235.897L124.782 235.208L123.067 234.882L122.315 234.823L121.167 234.799L120.025 234.912L118.903 235.16L117.819 235.538L114.324 236.993L114.02 237.122L113.718 237.256L113.419 237.392L113.12 237.532L109.909 239.072L108.712 239.627L107.499 240.152L106.274 240.645L105.037 241.108L103.81 241.549L102.453 242.068L101.118 242.64L99.8072 243.269L98.5239 243.947L97.6065 244.458L96.3695 245.191L95.172 245.992L94.0227 246.856L92.9214 247.782L92.3494 248.291L91.2069 249.385L90.1486 250.563L89.1831 251.816L88.3121 253.137L87.4445 254.718L86.716 256.365L86.1285 258.068L85.6886 259.815L85.3674 261.363L85.2179 262.144L85.0873 262.928L84.9774 263.716L84.8881 264.507L84.6476 266.919L84.474 268.326L84.2335 269.724L83.926 271.111L83.5532 272.478L82.9227 274.359L82.1702 276.194L81.2957 277.974L80.3045 279.692L79.8045 280.494L79.296 281.292L78.7668 282.073L78.2171 282.841L77.6485 283.595L75.6263 286.207L75.1075 286.858L74.5664 287.492L74.008 288.11L73.4308 288.71L72.2333 289.916L70.9637 291.079L69.5893 292.117L68.1239 293.022L66.5793 293.783L65.0709 294.362L63.5179 294.805L61.9322 295.109L60.3241 295.273L58.7813 295.359L57.7918 295.396L56.8022 295.398L55.811 295.362L54.8231 295.29L52.7924 295.104L51.3922 294.936L50.0024 294.689L48.6297 294.362L47.2776 293.958L46.886 293.828L45.2315 293.208L43.6304 292.459L42.0961 291.586L40.6341 290.591L40.4056 290.423L39.2649 289.514L38.1929 288.524L37.1947 287.463L36.2738 286.331L34.9304 284.547L34.4132 283.925L33.8394 283.353L33.2158 282.84L32.5458 282.388L30.4876 281.134L29.4619 280.678L28.3539 280.501L27.2371 280.613L26.1875 281.008L25.1618 281.764L24.399 282.786L23.9678 283.985L23.9026 285.279L24.1362 286.344L24.6103 287.303L25.3027 288.119L26.1703 288.744L30.0358 290.868L32.7914 292.376L34.2054 293.29L35.4698 294.4L36.559 295.685L37.4472 297.114L38.0502 298.47L38.4729 299.891L38.71 301.355L38.7546 302.838L38.6756 305.133L38.6378 305.863L38.5725 306.591L38.4815 307.317L38.3647 308.038L37.8097 311.095L37.6311 312.219L37.5005 313.35L37.4181 314.485L37.3837 315.623L37.3699 317.267L37.4181 318.687L37.5864 320.097L37.8716 321.488L38.2718 322.851L38.5364 323.627L39.0983 325.015L39.8112 326.33L40.6685 327.557L41.6563 328.68L41.78 328.805L43.0393 329.924L44.4378 330.865L45.9479 331.613L47.5439 332.154L49.0729 332.461L50.6278 332.579L52.186 332.504L53.7235 332.239L56.7593 331.519L57.029 331.454L57.2987 331.385L57.5684 331.313L57.8365 331.239L62.5249 329.905L63.2121 329.704L63.8959 329.491L64.5761 329.266L65.2513 329.031L66.2581 328.67L68.2561 327.885L70.1992 326.977L72.0821 325.95L73.8998 324.807L74.5955 324.338L75.3102 323.876L76.0404 323.44L76.7877 323.032L77.5488 322.651L79.5399 321.701L80.8508 321.161L82.2114 320.766L83.6065 320.52L85.0203 320.427L85.5083 320.421L87.149 320.521L88.7587 320.855L90.305 321.416L91.7532 322.193L93.083 323.177L94.258 324.343L95.2511 325.666L96.0431 327.119L96.3712 327.84L96.8557 329.056L97.2268 330.311L97.4793 331.595L97.6116 332.897L97.7405 335.227L97.8074 336.162L97.9088 337.094L98.0429 338.022L98.2095 338.945L98.9448 342.64L99.0358 343.227L99.0753 343.821L99.0633 344.415L98.9998 345.006L98.7162 346.883L98.2181 348.367L97.2491 349.597L95.9194 350.425L94.3903 350.755L93.2925 350.666L92.2498 350.318L91.3203 349.729L90.5592 348.935L88.0457 345.583L87.9186 345.417L87.7451 345.199L85.7024 342.714L84.584 341.48L83.3522 340.361L82.0156 339.366L80.5914 338.506L79.0692 337.78L77.4835 337.206L75.8497 336.791L74.1832 336.539L73.4479 336.464L72.1216 336.372L70.7919 336.364L69.4639 336.441L68.1444 336.602L65.3699 337.031L64.6947 337.152L64.0264 337.305L63.3667 337.489L62.7156 337.705L60.0595 338.654L58.9652 339.158L57.9774 339.847L57.1269 340.699L56.438 341.688L55.7766 343.293L55.5412 345.013L55.7474 346.737L56.3847 348.353L56.6115 348.764L57.2248 349.706L57.9688 350.549L58.8295 351.273L59.7864 351.863L62.4132 353.226L63.1073 353.567L63.8151 353.877L64.5367 354.155L65.2703 354.401L68.3043 355.342L69.3144 355.676L70.3108 356.046L71.2953 356.453L72.2625 356.894L73.6953 357.58L75.0508 358.295L76.3445 359.115L77.5694 360.034L78.717 361.048L79.0468 361.362L80.1515 362.523L81.1412 363.783L82.0087 365.131L82.7457 366.554L83.39 368.168L83.8642 369.84L84.1648 371.551L84.2903 373.285L84.2953 373.561L84.2662 375.046L84.1167 376.524L83.847 377.985L83.4604 379.42L82.8196 381.46L82.5516 382.275L82.2613 383.083L81.9486 383.882L81.6153 384.673L80.5003 387.212L80.0382 388.302L79.6018 389.402L79.1912 390.513L78.8081 391.632L78.5177 392.513L78.0024 394.208L77.5643 395.926L77.2035 397.661L76.9217 399.411L76.731 401.045L76.6073 402.684L76.5541 404.328L76.5696 405.972L76.6056 407.12L76.6554 408.325L76.7328 409.529L76.8393 410.731L76.9716 411.93L77.2996 414.624L77.3993 415.485L77.4852 416.348L77.5591 417.212L77.6209 418.077L77.736 419.912L77.8048 421.548L77.803 423.185L77.7326 424.82L77.5901 426.451L77.3563 428.218L77.042 429.971L76.6451 431.708L76.1675 433.424L76.049 433.816L75.6074 435.184L75.1213 436.536L74.5904 437.871L74.0149 439.187L73.4101 440.507L72.8707 441.652L72.3106 442.788L71.7265 443.911L71.12 445.023L70.4088 446.301L69.7009 447.548L68.9759 448.784L68.2304 450.008L67.4693 451.222L66.9144 452.091L66.1035 453.332L65.2685 454.556L64.4061 455.762L63.5196 456.951L62.9304 457.724L62.0301 458.874L61.0972 459.998L60.1351 461.097L59.1421 462.17L58.3965 462.955L57.3966 463.969L56.359 464.946L55.2869 465.884L54.1823 466.782L53.1119 467.619L52.0537 468.405L50.9559 469.135L49.822 469.809L48.6537 470.423L47.5474 470.969L46.2039 471.566L44.8157 472.052L43.3932 472.425L41.9449 472.68L41.0808 472.797L39.6188 472.917L38.1533 472.884L36.6981 472.698L35.2705 472.362L34.5043 472.138L33.1334 471.638L31.8414 470.962L30.6474 470.122L29.5754 469.132L29.4293 468.98L28.3779 467.677L27.5481 466.224L26.9606 464.656L26.6307 463.014L26.5603 461.537L26.7011 460.064L27.0464 458.626L27.5928 457.251L28.1408 456.116L28.6802 455.098L29.297 454.126L29.9894 453.205L30.7505 452.34L33.1368 449.834L33.4959 449.451L33.8498 449.063L34.1968 448.669L34.5386 448.271L36.5092 445.933L37.3321 444.869L38.0674 443.741L38.7065 442.557L39.2442 441.324L39.5759 440.474L40.0397 439.031L40.3266 437.543L40.4332 436.031L40.3593 434.517L40.0552 432.827L39.526 431.195L38.7787 429.649L37.8063 428.188L36.827 427.047L35.7516 426.052L34.5679 425.185L33.2948 424.458L31.6851 423.657L30.7986 423.241L29.8914 422.868L28.9689 422.538L28.0326 422.252L25.167 421.453L24.2444 421.183L23.3304 420.889L22.4216 420.573L21.5231 420.234L19.9047 419.6L18.4616 418.981L17.0597 418.27L15.7076 417.471L14.4089 416.588L14.1546 416.402L12.861 415.385L11.6446 414.276L10.5142 413.081L9.47306 411.806L9.27202 411.538L8.3804 410.261L7.59183 408.92L6.90632 407.522L6.33255 406.075L6.15732 405.583L5.7106 404.111L5.39447 402.606L5.21408 401.078L5.16944 399.54L5.1746 399.186L5.2811 397.581L5.5543 395.996L5.98725 394.447L6.57651 392.95L7.35991 391.451L8.29962 390.045L9.3854 388.749L10.6052 387.577L10.7427 387.46L11.9453 386.518L13.2303 385.691L14.5858 384.987L16.0015 384.412L17.4308 383.908L18.4702 383.567L19.525 383.272L20.5902 383.025L21.6657 382.826L24.7272 382.329L25.5003 382.196L26.2699 382.05L27.0379 381.89L27.8024 381.716L30.3502 381.113L31.6215 380.772L32.8705 380.355L34.092 379.865L35.2826 379.302L36.5487 378.657L37.717 377.991L38.8182 377.221L39.8421 376.352L40.7819 375.391L41.3815 374.719L42.2989 373.54L43.0513 372.249L43.6235 370.869L44.0083 369.426L44.2076 367.729L44.1457 366.021L43.8261 364.342L43.2524 362.732L43.1682 362.542L42.5102 361.273L41.7028 360.092L40.7595 359.017L39.6944 358.064L37.6843 356.473L37.1483 356.061L36.5985 355.666L36.0367 355.287L35.4647 354.926L33.6968 353.848L32.2537 352.931L30.8449 351.962L29.474 350.942L28.1391 349.873L26.8472 348.757L25.5948 347.594L24.387 346.385L23.2222 345.134L22.6845 344.534L21.8255 343.543L21.0008 342.525L20.2088 341.479L19.4512 340.409L18.6884 339.292L17.9153 338.094L17.2058 336.856L16.5632 335.583L15.9877 334.277L15.3108 332.438L14.7696 330.554L14.3659 328.636L14.0962 326.658L13.9897 325.229L13.957 323.831L13.9965 322.434L14.1048 321.041L14.4071 318.128L14.4621 317.566L14.5119 317.003L14.5549 316.439L14.591 315.875L14.6785 314.373L14.7438 312.283L14.6923 310.193L14.524 308.109L14.2405 306.038L14.0017 304.74L13.7165 303.451L13.3866 302.174L13.0121 300.909L12.3026 298.655L12.0397 297.769L11.8078 296.872L11.6068 295.968L11.4367 295.058L11.155 293.39L10.9591 291.792L10.9093 290.184L11.0072 288.576L11.2494 286.985L11.6738 285.298L12.2614 283.661L13.0069 282.089L13.9037 280.598L14.2474 280.087L15.0325 279.012L15.8983 278L16.8398 277.06L17.8535 276.196L18.3173 275.832L19.7347 274.847L21.2568 274.036L22.8649 273.413L24.5347 272.983L25.0793 272.877L26.4211 272.693L27.7731 272.659L29.1218 272.775L30.4481 273.043L32.2984 273.688L34.0198 274.622L35.5694 275.821L36.9043 277.254L38.3371 279.067L38.4935 279.251L38.6619 279.424L38.8423 279.586L39.033 279.733L39.8593 280.331L41.3127 280.874L42.8418 280.603L44.0169 279.589L44.5134 278.118L44.5375 277.868L44.5855 277.619L44.6543 277.375L44.7419 277.137L45.1834 276.102L46.355 274.09L47.9837 272.425L49.9697 271.214L52.1946 270.527L53.6669 270.265L53.825 270.24L56.5858 269.81L58.5065 269.394L60.3653 268.759L62.1384 267.912L63.7996 266.864L64.8974 266.008L65.9196 265.065L66.8611 264.041L67.7149 262.943L69.5601 260.356L69.8058 260.006L70.048 259.653L70.2868 259.298L70.5187 258.94L71.9257 256.755L72.8759 255.345L73.886 253.975L74.9529 252.651L76.0765 251.373L77.2636 250.131L78.504 248.942L79.7959 247.806L81.1325 246.727L82.4296 245.729L83.1358 245.191L83.8504 244.666L84.5737 244.15L85.3039 243.647L87.4479 242.19L88.4856 241.498L89.5353 240.824L90.5953 240.166L91.7188 239.498L93.619 238.426L95.495 237.438L97.4003 236.508L99.3313 235.634L100.536 235.126L101.749 234.638L102.97 234.172L104.198 233.73L105.083 233.421L106.641 232.861L108.189 232.275L109.725 231.664L111.253 231.025L113.577 230.03L114.046 229.825L114.513 229.619L114.981 229.408L115.446 229.195L118.372 227.833L119.54 227.257L120.683 226.632L121.798 225.955L122.882 225.232L124.138 224.352L125.211 223.543L126.223 222.66L127.172 221.706L128.051 220.689L128.685 219.897L129.58 218.652L130.336 217.318L130.946 215.911L131.401 214.448L131.609 213.626L131.865 212.264L131.946 210.881L131.855 209.498L131.59 208.137L131.396 207.397L130.891 205.971L130.15 204.652L129.195 203.477L128.055 202.482L126.642 201.635L125.096 201.064L123.471 200.79L121.825 200.82L121.392 200.869L120.138 201.09L118.923 201.47L117.767 202.001L116.687 202.676L113.561 204.914L113.386 205.042L113.154 205.213L110.294 207.364L109.047 208.23L107.738 208.998L106.375 209.665L104.965 210.225L104.628 210.345L103.04 210.826L101.417 211.159L99.7694 211.343L98.1115 211.374L97.9157 211.367L96.33 211.25L94.7632 210.984L93.2272 210.574L91.736 210.022L90.1692 209.258L88.6866 208.338L87.3071 207.272L86.0013 206.023L84.9636 204.834L84.072 203.611L83.2886 202.313L82.6203 200.954L81.9967 199.539L81.5792 198.534L81.203 197.513L80.8679 196.477L80.5776 195.428L79.7427 192.169L79.5761 191.535L79.4008 190.902L79.2153 190.274L79.0228 189.648L78.1673 186.946L77.724 185.676L77.2069 184.432L76.6177 183.223L75.9562 182.051L75.4408 181.192L74.5955 179.919L73.6403 178.725L72.5838 177.622L71.4224 176.607L69.9655 175.559L68.4176 174.676L66.7873 173.96L65.0916 173.415L63.602 173.09L62.0885 172.9L60.5647 172.845L59.0408 172.925L57.5977 173.068L56.4826 173.202L55.3763 173.386L54.2768 173.618L53.191 173.899L48.8582 175.126L48.6916 175.172L44.9806 176.208L43.5616 176.585L42.1339 176.925L40.6977 177.229L39.2546 177.495L38.6138 177.605L37.004 177.853L35.3891 178.045L33.7673 178.184L32.1403 178.267L31.7555 178.279L30.1595 178.303L28.5634 178.268L26.9692 178.172L25.38 178.017L24.7358 177.942L23.2565 177.739L21.786 177.471L20.3291 177.143L18.8877 176.751L18.1884 176.545L16.7161 176.069L15.2713 175.513L13.8591 174.879L12.483 174.167L12.1462 173.982L10.7306 173.14L9.37164 172.209L8.07631 171.192L6.84963 170.094L6.47853 169.738L5.44436 168.682L4.48393 167.557L3.60434 166.369L2.80545 165.124L2.27633 164.232L1.62522 163.019L1.08234 161.753L0.651105 160.444L0.334973 159.104L0.211273 158.451L0.010322 156.876L0 155.288L0.18211 153.711L0.55321 152.167L1.1373 150.61L1.91555 149.14L2.87246 147.781L3.99265 146.552L4.24857 146.305L5.33606 145.355L6.51466 144.518L7.76878 143.802L9.08991 143.214L11.5054 142.28L12.1222 142.049L12.7459 141.835L13.3746 141.634L14.0069 141.45L15.4946 141.034L17.4016 140.465L19.288 139.835L21.1537 139.141L22.9937 138.385L24.0125 137.945L24.8199 137.593L25.6205 137.229L26.4177 136.856L27.2097 136.471L28.9809 135.6L30.3897 134.939L31.8225 134.329L33.2759 133.772L34.7483 133.269L36.5264 132.74L38.3268 132.289L40.1445 131.918L41.9759 131.626L42.7851 131.515L43.9361 131.37L45.0889 131.25L46.2451 131.157L47.4048 131.09L49.6313 130.985L50.7858 130.939L51.9403 130.905L53.0948 130.882L54.251 130.876L58.0203 130.87H58.412H58.8037H59.1954L59.5871 130.872L65.2273 130.898L65.4472 130.9H65.6671L65.887 130.901L66.1069 130.903L72.4257 130.951L72.6009 130.953L78.7102 130.994L79.052 130.996H79.3939H79.7358L80.0777 130.994L84.6149 130.961L85.4327 130.97L86.2522 131.001L87.0699 131.059L87.8843 131.142L89.628 131.345L91.291 131.621L92.9197 132.056L94.5003 132.643L96.0173 133.38L97.402 134.224L98.7043 135.193L99.9103 136.275L101.011 137.466L103.238 140.108L103.374 140.27L107.695 145.494L111.204 149.741L111.634 150.263L112.065 150.787L112.493 151.313L112.921 151.839L116.065 155.721L116.226 155.921L116.386 156.12L116.547 156.319L116.707 156.518L119.552 160.058L120.121 160.762L120.691 161.466L121.265 162.167L121.841 162.868L123.426 164.787L124.246 165.772L125.074 166.747L125.911 167.718L126.754 168.68L127.702 169.752L128.661 170.819L129.635 171.872L130.625 172.912L131.628 173.937L132.162 174.473L133.312 175.609L134.485 176.72L135.679 177.808L136.895 178.871L137.206 179.138L138.438 180.17L139.694 181.173L140.97 182.151L142.269 183.098L142.754 183.443L144.004 184.309L145.278 185.144L146.571 185.946L147.884 186.716L148.208 186.9L149.712 187.724L151.242 188.501L152.795 189.227L154.371 189.904L155.96 190.53L157.568 191.102L159.192 191.626L160.832 192.096L161.36 192.239L162.76 192.6L164.169 192.928L165.584 193.223L167.007 193.488L168.168 193.689L169.543 193.916L170.922 194.12L172.303 194.304L173.686 194.466L175.197 194.631L176.468 194.759L177.741 194.869L179.016 194.962L180.29 195.038L182.476 195.149L183.532 195.191L184.591 195.206L185.647 195.197L186.704 195.161L188.992 195.058L190.205 194.971L191.411 194.82L192.608 194.603L193.792 194.323L195.222 193.943L196.579 193.512L197.89 192.955L199.142 192.277L200.324 191.483L200.846 191.095L202.061 190.066L203.135 188.891L204.05 187.59L204.792 186.181L205.394 184.551L205.761 182.852L205.889 181.118L205.765 179.308L205.459 177.722L204.987 176.257L204.344 174.858L203.542 173.544L202.882 172.595L202.119 171.577L201.284 170.615L200.384 169.716L199.422 168.883L198.109 167.826L197.079 167.033L196.015 166.287L194.921 165.588L193.796 164.938L192.15 164.035L191.103 163.476L190.043 162.942L188.971 162.432L187.889 161.949L184.376 160.427L184.073 160.295L183.771 160.162L183.47 160.028L183.171 159.894L179.698 158.324L178.619 157.81L177.559 157.259L176.521 156.666L175.507 156.037L174.214 155.201L173.023 154.369L171.893 153.459L170.829 152.473L169.836 151.414L169.156 150.636L168.269 149.523L167.49 148.334L166.823 147.076L166.277 145.762L165.801 144.456L165.452 143.269L165.253 142.048L165.208 140.811L165.316 139.577L165.356 139.32L165.816 137.519L166.624 135.846L167.749 134.367L169.146 133.14L170.152 132.513L171.23 132.018L172.362 131.666L173.53 131.46L176.698 131.107L177.26 131.052L177.822 131.011L178.385 130.985L178.95 130.975L184.683 130.939L190.772 130.906L191.16 130.903H191.548L191.935 130.901H192.323H198.158H198.348H198.603L204.997 130.889H205.206H205.485L211.513 130.865H211.826L212.14 130.869L212.453 130.874L212.766 130.881L217.58 131.011L218.282 131.058L218.98 131.157L219.669 131.31L220.344 131.515L222.149 132.14L223.526 132.829L224.678 133.851L225.527 135.134L226.015 136.595L226.121 137.627L226.046 138.663L225.792 139.668L225.364 140.615L223.259 144.355L223.166 144.523L223.044 144.747L221.689 147.327L220.9 148.973L220.23 150.67L219.684 152.412L219.249 154.261L218.992 155.793L218.837 157.266L218.774 158.747L218.799 160.226L218.853 161.315L218.973 162.674L219.2 164.021L219.531 165.345L219.966 166.639L220.325 167.582L220.918 168.912L221.658 170.168L222.533 171.331L223.534 172.389L224.125 172.949L225.199 173.831L226.384 174.557L227.657 175.112L228.994 175.489L229.746 175.645L231.122 175.808L232.505 175.729L233.854 175.413L235.129 174.867L236.445 173.98L237.56 172.851L238.427 171.523L239.025 170.017L239.304 168.603L239.331 167.196L239.115 165.804L238.663 164.471L237.787 162.483L237.438 161.75L237.05 161.038L236.62 160.35L236.151 159.688L234.254 157.163L233.734 156.362L233.327 155.496L233.042 154.584L232.882 153.642L232.798 152.785L232.853 151.28L233.308 149.846L234.131 148.585L235.259 147.588L236.445 146.99L237.735 146.69L239.061 146.702L240.348 147.026L242.922 148.013L243.496 148.215L244.081 148.385L244.676 148.523L245.277 148.626L245.65 148.679L248.016 148.822L250.373 148.569L252.654 147.932L254.8 146.925L255.096 146.757L255.748 146.358L256.381 145.929L256.99 145.468L257.576 144.977L258.348 144.298L259.978 142.977L261.711 141.795L263.536 140.759L265.446 139.874L266.654 139.409L267.874 139.009L269.113 138.668L270.365 138.392L273.976 137.691L274.275 137.632L274.574 137.577L274.871 137.522L275.172 137.469L277.139 137.127L279.235 136.753L281.328 136.363L283.417 135.956L285.514 135.53L286.793 135.267L288.057 135.014L289.323 134.769L290.591 134.528L291.268 134.401L293.036 134.076L294.805 133.762L296.577 133.459L298.35 133.169L301.488 132.666L301.638 132.642L305.969 131.951L307.163 131.771L308.36 131.607L309.56 131.461L310.76 131.333L312.966 131.142L315.177 131.011L317.39 130.941L319.603 130.931L321.649 130.948L321.842 130.949H322.036L322.228 130.951H322.42L327.068 130.96L327.983 130.963L328.899 130.97L329.815 130.979L330.729 130.992L334.489 131.049L335.125 131.058L335.762 131.066L336.398 131.071L337.034 131.077L339.066 131.089L340.846 131.094L342.624 131.087L344.404 131.07L346.184 131.039L349.065 130.982L349.276 130.979L349.488 130.973L349.699 130.97L349.91 130.967L353.851 130.906L355.1 130.898L356.349 130.912L357.598 130.948L358.846 131.004L361.008 131.154L363.165 131.369L365.314 131.649L367.453 131.994L369.454 132.348L369.695 132.389L369.935 132.43L370.177 132.47L370.42 132.508L375.249 133.265L375.977 133.356L376.711 133.401H377.445L378.178 133.355L379.113 133.267L380.741 132.965L382.289 132.375L383.708 131.522L384.952 130.429L386.119 129.393L387.442 128.568L388.885 127.976L390.407 127.635L390.84 127.575L392.092 127.481L393.346 127.534L394.585 127.738L395.789 128.087L398.055 128.895L398.952 129.188L399.864 129.432L400.787 129.628L401.718 129.776L403.203 129.97L404.787 130.073L406.372 129.968L407.929 129.659L409.489 129.127L410.959 128.405L412.267 127.524L413.444 126.474L414.471 125.277L414.67 125.01L415.472 123.763L416.093 122.416L416.519 120.995L416.742 119.53L416.766 119.233L416.768 117.688L416.524 116.163L416.041 114.695L415.332 113.323L414.395 112.062L413.268 110.967L411.978 110.071L410.561 109.394L409.896 109.139L408.668 108.746L407.403 108.488L406.118 108.37L404.83 108.394L401.373 108.645L400.991 108.669L400.61 108.688L400.227 108.701L399.846 108.71L396.648 108.751L395.284 108.691L393.936 108.476L392.621 108.11L391.357 107.595L391.132 107.488L389.639 106.635L388.295 105.563L387.132 104.296L386.175 102.867L385.547 101.558L385.091 100.177L384.82 98.7472L384.736 97.2955L384.762 93.4111L384.765 89.1247L384.774 87.8379L384.798 86.5529L384.837 85.2661L384.892 83.981L384.975 81.8421L385.014 79.6998L385.012 77.5591L384.968 75.4168L384.911 73.6198L384.899 73.2298L384.885 72.8398L384.87 72.4515L384.854 72.0615L384.835 71.6183L384.736 68.8008L384.669 65.9833L384.636 63.164V60.3465V60.1111L384.64 59.6163L384.641 59.1198V58.6251V58.1285L384.629 53.3645V52.8114V52.2564L384.631 51.7015L384.634 51.1466L384.662 46.4582L384.664 45.9256L384.665 45.393V44.8587V44.3261L384.655 38.6344V38.5021L384.643 33.9133L384.641 32.788L384.646 31.6645L384.658 30.5392L384.674 29.4156L384.691 28.4192L384.712 26.6101L384.715 24.8011L384.7 22.992Z" fill="#190B2F"/>
</svg>
