<svg width="312" height="537" viewBox="0 0 312 537" fill="none" xmlns="http://www.w3.org/2000/svg">
<path d="M193.595 324.465L193.057 322.038L192.339 320.237L191.939 319.357L191.459 318.518L190.903 317.728L190.276 316.994L189.975 316.674L187.415 314.579L184.398 313.22L181.133 312.69L177.829 313.028L176.832 313.307L175.872 313.661L174.944 314.092L174.053 314.596L172.081 315.821L169.793 317.09L167.394 318.133L164.904 318.937L162.348 319.497L160.476 319.812L159.289 320.032L158.11 320.292L156.94 320.59L155.78 320.926L153.518 321.623L151.161 322.306L148.782 322.908L146.384 323.43L143.969 323.87L140.224 324.487L139.734 324.57L139.246 324.657L138.758 324.749L138.271 324.845L133.592 325.791L131.657 326.104L129.704 326.263L127.743 326.268L125.789 326.119L123.038 325.641L120.358 324.859L117.782 323.781L115.343 322.422L112.71 320.754L112.377 320.549L112.039 320.353L111.696 320.166L111.348 319.988L109.751 319.195L106.716 318.165L103.516 317.974L100.38 318.634L97.5291 320.099L96.9275 320.546L96.3549 321.03L95.8136 321.549L95.3058 322.101L93.6668 323.996L91.7082 325.859L89.4259 327.309L86.9063 328.29L84.2443 328.765L82.5154 328.795L80.796 328.611L79.1129 328.214L77.4919 327.612L74.4438 326.259L73.1925 325.773L71.9009 325.405L70.5807 325.16L69.2432 325.039L66.7775 324.933L64.7656 325.069L62.8315 325.643L61.0705 326.628L59.5701 327.975L58.3254 329.757L57.5362 331.783L57.2512 333.937L57.4827 336.098L57.5947 336.585L58.1598 338.314L59.0269 339.914L60.1668 341.332L61.5431 342.523L66.0394 345.753L69.5284 348.256L71.4729 349.942L73.0761 351.955L74.2837 354.227L75.0554 356.682L75.3245 358.501L75.3528 360.34L75.1397 362.166L74.6891 363.95L72.9027 369.464L71.1034 375.084L70.5648 376.904L70.1077 378.747L69.7323 380.608L69.44 382.483L69.1981 384.3L69.0006 386.302L68.9402 388.313L69.0172 390.323L69.2313 392.323L69.3998 393.514L69.8046 395.646L70.4077 397.732L71.2035 399.752L72.1851 401.688L72.4611 402.175L73.6897 404.087L75.1209 405.852L76.7375 407.449L78.52 408.86L80.5604 410.128L82.7346 411.151L85.0128 411.914L87.3642 412.408L87.6889 412.457L89.7847 412.67L91.8913 412.681L93.9893 412.492L96.0596 412.103L99.7464 411.226L100.491 411.042L101.231 410.844L101.968 410.633L102.7 410.408L106.545 409.189L108.532 408.616L110.547 408.151L112.584 407.793L114.637 407.544L117.352 407.384L120.072 407.415L122.783 407.636L125.472 408.046L126.574 408.254L128.059 408.559L129.534 408.912L130.995 409.313L132.444 409.761L136.833 411.196L137.813 411.521L138.79 411.855L139.764 412.198L140.735 412.549L144.655 413.985L146.285 414.596L147.904 415.231L149.514 415.892L151.114 416.577L153.097 417.444L154.948 418.283L156.775 419.173L158.577 420.112L160.353 421.1L161.648 421.844L163.42 422.907L165.151 424.036L166.837 425.229L168.478 426.486L169.493 427.294L171.116 428.655L172.668 430.096L174.144 431.613L175.543 433.203L176.139 433.916L177.511 435.67L178.768 437.508L179.904 439.422L180.916 441.406L181.02 441.627L181.973 443.867L182.758 446.17L183.372 448.525L183.811 450.919L184.065 453.238L184.155 455.57L184.079 457.902L183.839 460.223L183.722 461.069L183.389 463.073L182.953 465.058L182.414 467.017L181.774 468.946L180.86 471.477L180.349 472.842L179.808 474.196L179.236 475.537L178.635 476.865L176.6 481.226L176.184 482.129L175.777 483.037L175.379 483.948L174.99 484.864L173.481 488.466L172.781 490.234L172.149 492.027L171.587 493.844L171.095 495.681L170.734 497.144L170.278 499.258L169.948 501.395L169.744 503.547L169.669 505.708L169.665 506.472L169.733 508.715L169.962 510.947L170.351 513.157L170.898 515.333L171.017 515.746L171.746 517.93L172.649 520.049L173.718 522.088L174.949 524.035L175.147 524.323L176.515 526.135L178.033 527.825L179.69 529.379L181.473 530.785L181.929 531.114L183.758 532.31L185.689 533.332L187.707 534.17L189.794 534.818L190.371 534.969L192.547 535.413L194.758 535.624L196.979 535.599L199.185 535.337L199.482 535.286L201.721 534.761L203.884 533.978L205.94 532.946L207.861 531.681L209.657 530.165L211.258 528.444L212.641 526.544L213.787 524.492L214.148 523.743L214.923 521.943L215.542 520.083L216 518.177L216.294 516.239L216.781 511.735L216.843 511.128L216.897 510.52L216.944 509.912L216.983 509.302L217.25 504.716L217.411 502.789L217.669 500.873L218.023 498.973L218.472 497.092L218.697 496.247L219.409 493.919L220.293 491.651L221.344 489.456L222.556 487.345L223.88 485.388L225.342 483.532L226.934 481.787L228.649 480.162L229.255 479.628L230.832 478.312L232.477 477.084L234.186 475.945L235.953 474.9L237.961 473.785L239.41 473.007L240.88 472.269L242.369 471.572L243.878 470.916L249.006 468.771L249.407 468.603L249.808 468.433L250.208 468.261L250.608 468.088L255.481 465.967L257.083 465.235L258.656 464.446L260.2 463.6L261.713 462.699L263.288 461.72L265.072 460.533L266.777 459.235L268.397 457.833L269.925 456.331L270.304 455.933L271.884 454.143L273.318 452.235L274.598 450.22L275.717 448.11L276.674 445.901L277.453 443.622L278.049 441.289L278.458 438.916L278.62 437.693L278.814 435.903L278.923 434.107L278.947 432.307L278.886 430.508L278.655 426.489L278.602 425.45L278.562 424.41L278.536 423.371L278.523 422.33L278.498 418.097L278.474 416.396L278.42 414.696L278.338 412.998L278.227 411.3L278.093 409.482L277.892 407.25L277.622 405.024L277.281 402.809L276.871 400.605L276.692 399.722L276.225 397.614L275.682 395.526L275.062 393.459L274.367 391.415L274.24 391.065L273.338 388.732L272.331 386.443L271.22 384.202L270.008 382.013L269.783 381.628L268.675 379.82L267.49 378.06L266.231 376.353L264.901 374.702L263.093 372.669L261.177 370.738L259.159 368.915L257.043 367.205L254.692 365.409L254.172 365.02L253.646 364.64L253.112 364.27L252.572 363.91L248.63 361.335L247.166 360.251L245.839 359.003L244.667 357.609L243.665 356.087L242.47 353.488L241.771 350.714L241.592 347.86L241.939 345.021L242.513 342.378L242.611 341.944L242.719 341.512L242.835 341.082L242.959 340.654L244.471 335.64L244.919 333.917L245.232 332.164L245.409 330.393L245.45 328.613L245.438 327.849L245.229 325.261L244.69 322.721L243.828 320.271L242.659 317.952L241.499 316.194L240.161 314.567L238.661 313.088L237.015 311.773L232.664 308.655L229.6 306.463L227.265 304.656L225.071 302.679L223.032 300.543L221.159 298.261L219.919 296.628L219.443 295.97L218.998 295.292L218.585 294.593L218.206 293.876L216.848 291.157L215.574 289.18L213.905 287.522L211.917 286.261L209.705 285.46L207.995 285.182H206.262L204.551 285.455L202.905 285.998L199.03 287.627L198.195 287.961L197.348 288.26L196.49 288.53L195.622 288.764L190.755 289.986L189.357 290.325L187.954 290.639L186.546 290.933L185.133 291.204L181.855 291.805L180.132 292.141L178.418 292.511L176.711 292.917L175.013 293.36L173.32 293.82L171.164 294.363L168.99 294.826L166.8 295.208L164.597 295.509L163.505 295.637L161.451 295.924L159.412 296.301L157.391 296.766L155.392 297.32L152.774 298.191L150.21 299.213L147.71 300.382L145.283 301.696L143.058 302.985L142.37 303.37L141.673 303.735L140.964 304.081L140.247 304.406L138.114 305.335L135.455 306.274L132.689 306.824L129.872 306.974L127.063 306.72L125.265 306.34L123.509 305.795L121.812 305.088L120.188 304.226L116.947 302.307L116.009 301.733L115.087 301.135L114.182 300.51L113.295 299.861L113.046 299.674L110.11 297.64L107.022 295.843L103.802 294.295L100.47 293.006L100.228 292.923L99.1733 292.548L98.1274 292.148L97.0914 291.722L96.066 291.272L95.7793 291.143L92.5863 289.565L89.5055 287.78L86.5505 285.794L83.734 283.617L82.0212 282.197L81.8322 282.042L81.5779 281.84L77.8202 278.884L76.1802 277.345L74.832 275.546L73.8156 273.539L73.1623 271.387L72.8878 269.018L73.0532 266.639L73.6531 264.331L74.6671 262.172L75.8731 260.119L76.4893 259.14L77.1635 258.2L77.8938 257.304L78.6769 256.452L82.4075 252.637L83.1324 251.907L83.8689 251.188L84.6172 250.485L85.3769 249.791L90.3273 245.347L90.7032 245.009L91.0776 244.668L91.4502 244.327L91.8214 243.982L96.8863 239.268L97.5496 238.674L98.2358 238.106L98.9436 237.566L99.6721 237.055L103.222 234.666L104.725 233.829L106.347 233.252L108.042 232.955L109.764 232.942L110.081 232.967L112.592 233.497L114.878 234.664L116.781 236.385L118.168 238.542L118.463 239.17L118.98 240.612L119.213 242.124L119.155 243.653L118.808 245.143L117.66 247.349L115.893 249.097L113.674 250.222L111.218 250.614L107.56 250.624L107.331 250.628L107.024 250.638L104.23 250.774L101.18 251.188L98.2438 252.114L95.507 253.523L93.0491 255.376L92.5047 255.863L91.6156 256.735L90.8074 257.682L90.0867 258.7L89.4588 259.773L88.9743 260.696L88.0029 263.197L87.618 265.85L87.8392 268.524L88.6554 271.078L89.5311 272.682L90.6428 274.134L91.9642 275.397L93.4641 276.442L97.2088 278.645L97.8977 279.035L98.5984 279.405L99.3102 279.751L100.033 280.077L101.689 280.79L104.525 282.127L107.269 283.641L109.909 285.329L112.435 287.184L114.106 288.499L114.597 288.898L115.073 289.314L115.535 289.748L115.982 290.196L120.273 294.665L121.021 295.294L121.887 295.749L122.829 296.01L123.805 296.064L125.648 295.57L127.129 294.367L127.989 292.664L128.078 290.758L127.335 286.259L127.288 285.952L126.819 281.462L126.771 276.948L127.146 272.449L127.939 268.005L128.028 267.616L128.09 267.348L129.105 263.055L129.628 260.535L130.01 257.994L130.25 255.432L130.348 252.861L130.319 250.648L130.183 248.437L129.942 246.236L129.597 244.05L129.161 241.659L128.94 240.256L128.787 238.847L128.703 237.43L128.688 236.013L128.697 235.314L128.896 232.431L129.412 229.587L130.239 226.819L131.366 224.158L132.235 222.534L133.215 220.978L134.302 219.493L135.492 218.088L138.036 215.288L138.783 214.482L139.547 213.693L140.328 212.919L141.124 212.162L143.656 209.802L145.124 208.405L146.558 206.973L147.96 205.51L149.328 204.015L152.07 200.945L152.588 200.385L153.123 199.842L153.675 199.313L154.244 198.805L157.491 195.99L158.878 194.967L160.409 194.179L162.045 193.64L163.747 193.368L165.284 193.244L167.063 193.307L168.782 193.772L170.349 194.617L171.682 195.795L172.843 197.5L173.514 199.447L173.649 201.505L173.237 203.523L173.044 204.078L172.347 205.598L171.375 206.956L170.163 208.105L168.754 209.004L164.574 211.137L163.973 211.431L163.364 211.704L162.746 211.96L162.12 212.193L158.294 213.552L156.34 214.321L154.445 215.227L152.616 216.259L150.864 217.416L149.781 218.185L148.185 219.432L146.705 220.812L145.353 222.319L144.139 223.939L142.784 226.196L141.696 228.591L140.89 231.097L140.378 233.678L140.247 234.62L140.075 236.185L139.995 237.761L140.007 239.336L140.112 240.909L140.427 244.193L140.558 245.812L140.642 247.434L140.677 249.056L140.665 250.68L140.63 252.23L140.522 254.651L140.309 257.066L139.988 259.469L139.563 261.857L139.009 264.611L138.832 265.607L138.698 266.61L138.608 267.616L138.562 268.626L138.494 271.541L138.609 273.678L139.05 275.772L139.807 277.771L140.862 279.634L142.257 281.384L143.916 282.889L145.794 284.109L147.843 285.012L149.334 285.531L150.864 285.988L152.428 286.317L154.014 286.507L155.611 286.563L159.612 286.531L160.829 286.461L162.033 286.268L163.211 285.957L164.352 285.528L166.973 284.394L168.443 283.527L169.655 282.327L170.534 280.863L171.028 279.232L171.097 277.44L170.702 275.692L169.869 274.104L168.655 272.785L165.067 269.785L164.78 269.551L164.488 269.325L164.19 269.103L163.887 268.892L160.242 266.41L158.519 265.093L156.951 263.596L155.556 261.935L154.352 260.131L153.245 257.967L152.412 255.681L151.866 253.312L151.612 250.801L151.63 248.586L151.871 246.475L152.33 244.403L153 242.387L153.479 241.162L154.257 239.37L155.163 237.641L156.192 235.981L157.34 234.403L158.972 232.321L159.947 231.121L160.964 229.955L162.019 228.823L163.114 227.73L166.405 224.555L167.145 223.851L167.896 223.159L168.657 222.478L169.428 221.808L173.08 218.689L174.193 217.793L175.356 216.961L176.564 216.196L177.813 215.5L180.012 214.358L181.854 213.545L183.784 212.975L185.772 212.656L187.784 212.595L188.351 212.615L190.559 212.865L192.699 213.464L194.718 214.394L196.564 215.631L198.194 217.15L199.562 218.908L200.633 220.863L201.38 222.962L201.584 223.727L201.966 225.567L202.134 227.44L202.085 229.319L201.822 231.182L200.694 236.794L200.66 236.967L199.595 242.462L199.285 244.437L199.113 246.426L199.081 248.425L199.19 250.419L199.234 250.901L199.577 253.38L200.158 255.814L200.971 258.181L202.007 260.46L203.09 262.362L204.329 264.168L205.716 265.863L207.241 267.433L210.941 270.939L211.136 271.122L213.48 273.311L215.732 275.519L217.871 277.839L219.891 280.262L221.787 282.784L222.991 284.472L223.374 284.993L223.77 285.504L224.18 286.005L224.603 286.492L227.03 289.224L228.571 290.7L230.329 291.91L232.258 292.822L234.308 293.413L236.492 293.67L238.688 293.563L240.837 293.096L242.878 292.28L246.22 290.61L246.809 290.305L247.389 289.986L247.96 289.65L248.522 289.297L251.788 287.189L253.685 286.054L255.656 285.053L257.691 284.192L259.781 283.471L262.233 282.821L264.729 282.368L267.253 282.115L269.79 282.061L272.037 282.1L273.195 282.137L274.35 282.2L275.504 282.295L276.655 282.417L280.86 282.916L282.429 283.072L284.003 283.162L285.579 283.193L287.156 283.159L289.487 283.064L291.53 282.896L293.553 282.565L295.542 282.071L297.485 281.418L298.569 281.004L300.49 280.152L302.31 279.1L304.01 277.866L305.57 276.456L306.245 275.779L307.621 274.209L308.785 272.473L309.716 270.603L310.4 268.631L310.58 267.978L310.996 265.838L311.079 263.662L310.825 261.497L310.242 259.396L309.236 257.219L307.877 255.245L306.203 253.528L304.263 252.118L303.937 251.921L302.083 250.967L300.116 250.275L298.073 249.859L295.992 249.728L290.82 249.749H290.618H290.348L285.386 249.691L283.135 249.564L280.906 249.238L278.714 248.712L276.578 247.994L275.834 247.707L273.876 246.833L272.016 245.766L270.273 244.52L268.665 243.103L267.997 242.452L266.554 240.865L265.316 239.112L264.302 237.22L263.526 235.221L263.415 234.873L262.863 232.587L262.646 230.245L262.768 227.895L263.226 225.589L263.973 223.461L265.005 221.458L266.303 219.617L267.843 217.971L268.76 217.116L270.1 215.972L271.532 214.945L273.046 214.044L274.631 213.274L278.768 211.478L279.49 211.171L280.217 210.879L280.949 210.596L281.685 210.326L286.192 208.716L287.765 208.125L289.316 207.477L290.844 206.778L292.347 206.026L294.204 205.055L296.03 204.025L297.786 202.878L299.464 201.619L301.057 200.256L301.765 199.608L303.327 198.057L304.756 196.382L306.042 194.597L307.175 192.71L307.547 192.029L308.487 190.095L309.238 188.082L309.795 186.007L310.152 183.887L310.257 183.013L310.389 180.909L310.285 178.803L309.945 176.724L309.374 174.696L309.172 174.104L308.323 172.083L307.213 170.191L305.862 168.463L304.293 166.929L302.42 165.546L300.371 164.44L298.187 163.635L295.853 163.135L293.646 162.96L291.492 163.067L289.37 163.449L287.314 164.1L286.049 164.589L284.361 165.327L282.741 166.201L281.199 167.209L279.746 168.341L276.657 170.963L275.936 171.589L275.227 172.229L274.532 172.884L273.851 173.554L270.327 177.087L269.312 178.056L268.251 178.976L267.147 179.843L266.003 180.656L264.052 181.971L262.201 183.071L260.236 183.953L258.183 184.605L256.069 185.021L253.662 185.197L251.253 185.065L248.88 184.629L246.582 183.892L245.303 183.39L243.848 182.762L242.437 182.041L241.076 181.231L239.772 180.33L235.422 177.116L234.972 176.777L234.528 176.434L234.089 176.086L233.655 175.73L229.253 172.073L228.229 171.126L227.312 170.077L226.512 168.935L225.838 167.713L225.294 166.593L224.535 164.465L224.252 162.225L224.459 159.978L225.146 157.828L226.073 156.167L227.285 154.704L228.744 153.486L230.399 152.552L233.681 151.078L234.611 150.689L235.56 150.348L236.525 150.056L237.503 149.812L242.681 148.661L243.847 148.393L245.008 148.103L246.164 147.796L247.315 147.47L248.668 147.073L251.486 146.207L254.28 145.269L257.049 144.259L259.792 143.178L260.952 142.703L262.136 142.211L263.315 141.71L264.49 141.196L265.659 140.672L270.605 138.43L271.392 138.072L272.176 137.709L272.96 137.346L273.741 136.976L278.137 134.897L279.543 134.213L280.936 133.504L282.316 132.767L283.681 132.005L285.861 130.758L287.6 129.718L289.295 128.608L290.944 127.432L292.544 126.188L293.393 125.501L295.102 124.038L296.726 122.482L298.261 120.839L299.703 119.113L300.024 118.703L301.388 116.858L302.632 114.93L303.753 112.928L304.745 110.859L304.938 110.42L305.778 108.324L306.472 106.177L307.016 103.985L307.409 101.762L307.491 101.185L307.719 98.9674L307.776 96.7371L307.663 94.5093L307.379 92.2961L307.279 91.6996L306.817 89.5229L306.168 87.3925L305.336 85.3278L304.329 83.3435L304.028 82.8103L302.856 80.9453L301.507 79.2069L299.995 77.6048L298.334 76.161L297.928 75.8396L296.092 74.5516L294.124 73.473L292.049 72.6184L289.893 71.9976L289.544 71.9172L287.313 71.5471L285.054 71.4473L282.799 71.6177L280.581 72.0584L278.301 72.8132L276.136 73.8528L274.121 75.1603L272.289 76.7137L272.018 76.9742L270.566 78.5276L269.286 80.2246L268.19 82.0458L267.292 83.9717L266.325 86.365L265.83 87.6725L265.391 88.9995L265.01 90.3434L264.688 91.702L263.384 97.7841L263.311 98.1249L263.236 98.4658L263.159 98.8067L263.082 99.1475L261.947 104.117L261.485 106.018L260.972 107.908L260.409 109.783L259.795 111.643L259.295 113.091L258.562 115.085L257.75 117.05L256.861 118.979L255.896 120.873L255.328 121.934L254.283 123.773L253.146 125.557L251.919 127.281L250.607 128.942L249.909 129.779L248.465 131.403L246.917 132.93L245.274 134.354L243.541 135.666L242.493 136.407L240.805 137.505L239.036 138.464L237.196 139.28L235.297 139.947L234.472 140.2L232.182 140.77L229.843 141.084L227.485 141.14L225.134 140.938L222.767 140.463L220.467 139.73L218.265 138.742L216.187 137.512L215.826 137.271L214.116 135.988L212.552 134.529L211.152 132.913L209.933 131.157L208.711 128.859L207.798 126.422L207.208 123.89L206.951 121.299L206.826 117.603L206.815 117.308L206.802 117.016L206.785 116.722L206.766 116.427L206.694 115.373L206.323 111.368L205.763 107.384L205.014 103.433L204.079 99.5225L203.875 98.7361L203.678 97.9448L203.489 97.1559L203.308 96.3622L202.166 91.2589L201.857 89.8638L201.553 88.4662L201.256 87.0687L200.965 85.6687L200.446 83.1512L200.002 81.0524L199.538 78.9585L199.052 76.8719L198.545 74.7878L198.4 74.2034L197.802 71.8661L197.175 69.536L196.517 67.2132L195.83 64.9002L195.104 62.5677L194.347 60.2425L193.561 57.9295L192.744 55.6238L192.598 55.2221L191.837 53.1574L191.05 51.1049L190.238 49.0621L189.4 47.0291L188.87 45.763L188.093 43.9492L187.29 42.1474L186.459 40.3579L185.601 38.5829L184.778 36.9078L183.897 35.167L182.979 33.4456L182.022 31.7461L181.029 30.0686L180.223 28.7392L179.092 26.9423L177.902 25.1821L176.656 23.4607L175.353 21.7831L174.853 21.1598L173.364 19.3824L171.802 17.6683L170.169 16.02L168.469 14.4423L168.284 14.2768L166.461 12.7282L164.571 11.2625L162.616 9.88686L160.593 8.59649L158.479 7.37664L156.317 6.26152L154.106 5.24867L151.801 4.32105L149.538 3.52485L147.291 2.84799L145.015 2.2758L142.715 1.80833L142.342 1.74262L140.074 1.39201L137.792 1.15099L135.501 1.0195L133.206 1L132.559 1.00975L130.354 1.10228L128.156 1.31167L125.973 1.64034L123.811 2.08105L122.859 2.30262L120.81 2.84799L118.799 3.51997L116.835 4.31861L114.925 5.23892L113.942 5.75022L112.102 6.80207L110.352 7.99753L108.702 9.32686L107.162 10.7828L106.504 11.4549L105.072 13.0716L103.807 14.8197L102.718 16.6823L101.817 18.6447L101.598 19.1901L100.886 21.3108L100.421 23.4972L100.21 25.725L100.256 27.9601L100.587 30.3267L101.205 32.6348L102.101 34.848L103.31 37.0125L104.606 38.8337L106.031 40.4334L107.618 41.8747L109.348 43.1408L110.642 43.9857L112.191 44.9255L113.799 45.7606L115.458 46.4886L117.162 47.1046L120.921 48.3244L121.917 48.6385L122.919 48.9331L123.926 49.2107L124.938 49.4687L129.202 50.5181L130.774 50.9101L132.342 51.3191L133.907 51.7428L135.468 52.1786L136.913 52.5901L139.3 53.2864L141.678 54.012L144.047 54.7668L146.407 55.5508L147.476 55.9135L149.185 56.5052L150.887 57.1163L152.582 57.7469L154.269 58.397L156.509 59.2759L158.221 59.9674L159.919 60.693L161.603 61.4526L163.271 62.2463L165.088 63.1326L166.865 64.0334L168.612 64.9927L170.327 66.008L172.009 67.0769L173.235 67.8852L174.97 69.0856L176.648 70.3663L178.264 71.7224L179.857 73.1906L181.749 75.1213L183.485 77.1203L185.1 79.2166L186.589 81.4054L187.703 83.2486L188.726 85.1404L189.658 87.0809L190.496 89.0652L191.441 91.461L191.94 92.7709L192.406 94.093L192.841 95.4248L193.243 96.7688L194.284 100.401L194.668 101.911L194.962 103.44L195.165 104.984L195.276 106.535L195.347 108.227L195.306 110.52L194.994 112.792L194.414 115.01L193.575 117.143L192.488 119.161L191.17 121.036L189.638 122.743L187.915 124.255L186.829 125.1L185.426 126.112L183.955 127.028L182.425 127.839L180.842 128.542L177.086 130.057L176.076 130.451L175.058 130.826L174.033 131.182L173.001 131.515L168.108 133.044L166.949 133.397L165.785 133.733L164.616 134.05L163.442 134.352L159.633 135.296L157.996 135.666L156.344 135.961L154.681 136.183L153.009 136.329L151.888 136.404L149.346 136.465L146.808 136.319L144.291 135.966L141.811 135.406L139.718 134.763L137.675 133.972L135.694 133.039L133.783 131.968L129.815 129.558L129.54 129.39L129.266 129.219L128.993 129.049L128.72 128.876L125.004 126.514L123.022 125.309L120.994 124.187L118.922 123.147L116.785 122.18L114.456 121.243L112.112 120.418L109.734 119.694L107.307 119.071L105.01 118.584L102.715 118.197L100.406 117.905L98.0862 117.71L97.4263 117.669L95.2524 117.579L93.0766 117.584L90.9034 117.688L88.7368 117.888L88.001 117.973L85.7471 118.294L83.514 118.738L81.3082 119.3L79.1348 119.982L76.7699 120.875L74.4645 121.91L72.2253 123.079L70.0606 124.381L68.1793 125.667L66.3707 127.05L64.6389 128.53L62.9899 130.103L62.1447 130.955L60.7977 132.362L59.5019 133.821L58.2621 135.323L57.0759 136.872L55.2661 139.328L54.4574 140.441L53.6658 141.568L52.8912 142.703L52.1337 143.852L49.1475 148.442L48.7407 149.067L48.3315 149.691L47.9199 150.314L47.5082 150.935L46.4024 152.598L44.6657 155.183L42.9095 157.755L41.1338 160.313L39.3363 162.858L38.2304 164.409L37.7701 165.054L37.3073 165.697L36.8445 166.34L36.3793 166.982L33.7584 170.6L32.6866 172.088L31.6271 173.585L30.5773 175.088L29.5421 176.6L29.0355 177.342L27.5984 179.48L26.1881 181.635L24.8046 183.806L23.4454 185.995L22.2641 187.948L21.1046 189.913L19.9671 191.89L18.8516 193.882L18.2402 194.98L17.3024 196.686L16.3768 198.403L15.461 200.124L14.5598 201.85L13.337 204.217L12.616 205.622L11.9072 207.032L11.2082 208.446L10.5188 209.868L9.05009 212.926L8.37537 214.36L7.72504 215.802L7.09417 217.253L6.48768 218.714L5.51824 221.1L4.80215 222.948L4.14447 224.815L3.54527 226.702L3.00941 228.608L2.73661 229.636L2.19345 231.893L1.755 234.172L1.42131 236.468L1.19233 238.778L1.09979 239.989L1.00479 241.888L0.999908 243.787L1.09248 245.683L1.27514 247.573L1.60154 250.244L1.85242 251.797L2.22022 253.326L2.70008 254.821L3.29196 256.277L4.37101 258.666L5.22108 260.229L6.29038 261.653L7.55698 262.904L9.05009 263.995L11.3275 265.115L13.7219 265.717L16.1893 265.809L18.6226 265.388L20.4324 264.711L22.1082 263.752L23.6037 262.532L24.8825 261.086L28.295 256.518L31.0474 252.793L32.5965 250.899L34.3259 249.168L36.2161 247.614L38.2524 246.256L40.274 245.172L42.3883 244.279L44.5756 243.585L46.8189 243.095L49.4227 242.655L50.6065 242.477L51.7952 242.348L52.9887 242.265L54.1846 242.231L58.0258 242.194L59.687 242.082L61.3263 241.773L62.9168 241.274L64.4367 240.592L66.7872 239.051L68.7853 237.077L70.3537 234.746L71.4303 232.151L72.1008 229.933L72.2969 229.239L72.4672 228.54L72.6116 227.834L72.73 227.123L73.4517 222.246L73.6802 220.593L73.8767 218.933L74.0411 217.272L74.1739 215.607L74.409 212.247L74.5074 210.747L74.5929 209.245L74.6652 207.743L74.7249 206.24L74.9156 200.835L74.9395 200.185L74.9653 199.535L74.9931 198.885L75.0225 198.235L75.2868 192.586L75.364 191.208L75.467 189.832L75.5954 188.457L75.7493 187.086L76.1834 183.517L76.4231 181.866L76.7395 180.227L77.1316 178.606L77.5986 177.006L78.0774 175.497L78.8815 173.298L79.8736 171.177L81.0464 169.154L82.3912 167.238L83.9593 165.38L85.6889 163.671L87.5662 162.125L89.5754 160.754L91.1314 159.792L92.4026 159.043L93.7026 158.344L95.0298 157.699L96.3817 157.107L101.947 154.799L102.288 154.655L102.628 154.514L102.968 154.368L103.307 154.224L106.685 152.771L109.132 151.767L111.613 150.854L114.125 150.027L116.665 149.289L118.802 148.744L120.955 148.259L123.121 147.84L125.298 147.485L128.145 147.064L129.346 146.896L130.549 146.752L131.756 146.63L132.964 146.53L133.684 146.479L136.942 146.333L140.203 146.37L143.458 146.586L146.695 146.986L148.254 147.244L149.806 147.546L151.349 147.887L152.882 148.271L158.098 149.649L158.66 149.795L159.223 149.939L159.788 150.078L160.353 150.212L163.008 150.833L165.809 151.568L168.568 152.447L171.278 153.467L173.931 154.628L175.224 155.237L176.327 155.778L177.411 156.357L178.473 156.973L179.513 157.628L180.224 158.093L182.922 159.666L185.764 160.961L188.723 161.964L191.767 162.663L193.47 162.963L194.271 163.084L195.078 163.16L195.887 163.191L196.697 163.182L200.288 163.467L203.707 164.601L206.758 166.517L209.264 169.103L210.244 170.396L210.365 170.552L210.528 170.759L210.864 171.177L213.803 174.511L217.025 177.574L220.505 180.342L224.215 182.791L224.605 183.025L224.774 183.125L225.001 183.254L228.107 185L230.339 186.619L232.139 188.708L233.409 191.155L234.082 193.828L234.183 195.408L234.073 196.988L233.755 198.539L233.233 200.034L232.403 201.984L231.487 203.815L230.352 205.517L229.016 207.066L227.489 208.446L225.362 209.89L223.049 210.981L220.594 211.701L218.058 212.033L216.09 212.018L214.138 211.767L212.229 211.288L210.392 210.584L209.261 210.07L207.387 209.108L205.617 207.967L203.966 206.659L202.45 205.198L200.442 203.061L199.646 202.184L198.879 201.286L198.142 200.36L197.435 199.411L195.56 196.811L194.31 195.167L192.977 193.589L191.564 192.085L190.074 190.655L189.444 190.081L187.696 188.596L185.851 187.23L183.917 185.995L181.903 184.895L181.174 184.53L179.27 183.66L177.306 182.932L175.295 182.355L173.245 181.927L172.582 181.815L170.27 181.532L167.941 181.472L165.618 181.63L163.319 182.005L161.02 182.613L158.79 183.436L156.65 184.474L154.62 185.71L153.993 186.137L152.394 187.303L150.879 188.579L149.457 189.954L148.133 191.427L146.1 193.855L145.279 194.802L144.428 195.722L143.547 196.616L142.637 197.478L139.958 199.723L137.086 201.712L134.044 203.433L130.859 204.87L130.264 205.106L129.4 205.439L128.528 205.751L127.65 206.046L126.765 206.321L124.974 206.854L122.149 207.796L119.39 208.919L116.709 210.214L114.116 211.68L112.606 212.641L111.133 213.659L109.701 214.733L108.312 215.862L105.144 218.538L104.389 219.184L103.641 219.836L102.899 220.493L102.164 221.161L97.3508 225.567L96.9051 225.974L96.4589 226.383L96.0119 226.787L95.5642 227.194L92.9716 229.539L91.117 231.226L89.2731 232.925L87.4402 234.637L85.6183 236.361L82.5617 239.273L82.302 239.521L81.9581 239.855L78.0409 243.702L76.6216 244.997L75.1109 246.183L73.5172 247.256L71.8492 248.211L69.3526 249.357L66.7507 250.236L64.0689 250.84L61.3409 251.157L58.284 251.352L57.8334 251.386L57.3852 251.432L56.9395 251.49L56.4937 251.558L51.7878 252.34L50.1169 252.812L48.5921 253.643L47.289 254.789L46.2709 256.194L45.5133 258.047L45.2527 260.029L45.5036 262.013L46.2489 263.869L46.9553 265.13L47.7177 266.298L48.6311 267.355L49.6785 268.28L50.8403 269.055L54.6621 271.251L55.6899 271.874L56.6886 272.544L57.6556 273.257L58.5909 274.014L59.4654 274.757L61.6307 276.741L63.6378 278.881L65.4792 281.168L67.1429 283.585L67.7771 284.586L68.4842 285.662L69.2264 286.714L70.0034 287.741L70.8138 288.74L71.9035 290.042L73.679 291.978L75.6198 293.747L77.7106 295.337L79.9352 296.734L81.8122 297.712L83.7545 298.553L85.7523 299.251L87.7951 299.805L92.3714 300.87L92.7098 300.95L93.0478 301.031L93.3854 301.115L93.7225 301.2L96.2216 301.841L99.2817 302.734L102.277 303.825L105.194 305.111L108.02 306.585L108.294 306.739L109.543 307.471L110.767 308.243L111.965 309.056L113.135 309.907L115.674 311.819L117.157 312.849L118.715 313.762L120.339 314.552L122.019 315.214L124.728 315.983L127.508 316.422L130.322 316.523L133.127 316.287L134.241 316.125L135.551 315.903L136.85 315.619L138.133 315.274L139.399 314.868L145.064 312.901L145.561 312.727L146.057 312.55L146.552 312.37L147.046 312.187L153.704 309.702L154.436 309.429L155.169 309.159L155.902 308.889L156.635 308.621L163.915 305.97L164.206 305.865L164.595 305.725L170.65 303.578L172.065 303.113L173.5 302.716L174.953 302.386L176.42 302.126L178.624 301.788L180.777 301.571L182.941 301.577L185.093 301.807L187.209 302.257L189.548 303.033L191.78 304.078L193.874 305.379L195.89 306.997L197.451 308.533L198.779 310.12L199.951 311.824L200.958 313.632L202.66 317.062L203.006 317.775L203.338 318.495L203.657 319.221L203.962 319.953L204.785 321.983L205.956 324.687L207.253 327.334L208.672 329.917L210.212 332.431L211.249 333.988L212.333 335.514L213.462 337.007L214.635 338.466L217.967 342.487L218.206 342.776L218.444 343.065L218.682 343.355L218.918 343.646L223.821 349.684L224.198 350.146L224.576 350.606L224.956 351.066L225.338 351.523L227.806 354.47L229.331 356.242L230.903 357.971L232.521 359.657L234.185 361.299L236.014 363.007L237.893 364.661L239.819 366.26L241.79 367.802L244.435 369.811L244.984 370.232L245.53 370.656L246.072 371.086L246.611 371.519L249.564 373.916L251.273 375.373L252.91 376.91L254.47 378.525L255.951 380.212L257.538 382.222L259.013 384.315L260.369 386.487L261.605 388.73L261.804 389.117L262.705 390.955L263.53 392.827L264.278 394.732L264.949 396.665L265.327 397.832L265.964 399.918L266.527 402.025L267.016 404.15L267.43 406.291L267.611 407.322L267.935 409.431L268.168 411.551L268.311 413.679L268.363 415.812L268.365 416.438L268.309 418.812L268.125 421.18L267.815 423.534L267.379 425.868L266.803 428.231L266.098 430.56L265.266 432.846L264.309 435.083L264.182 435.36L263.198 437.368L262.121 439.328L260.951 441.234L259.692 443.082L259.469 443.393L258.026 445.308L256.493 447.151L254.874 448.92L253.089 450.687L251.288 452.313L249.497 453.777L247.638 455.151L245.714 456.434L245.118 456.811L243.264 457.917L241.354 458.924L239.394 459.829L237.389 460.63L236.591 460.924L234.482 461.627L232.333 462.192L230.151 462.618L227.947 462.903L227.426 462.953L225.128 463.089L222.826 463.055L220.533 462.85L218.261 462.475L215.868 461.889L213.529 461.114L211.259 460.157L209.013 458.989L207.046 457.776L205.226 456.466L203.502 455.031L201.884 453.479L200.931 452.498L199.645 451.112L198.424 449.67L197.27 448.173L196.185 446.626L194.37 443.908L193.644 442.799L192.936 441.678L192.248 440.545L191.579 439.4L188.681 434.34L188.374 433.804L188.065 433.269L187.754 432.734L187.443 432.201L185.137 428.266L184.14 426.577L183.134 424.893L182.117 423.215L181.091 421.544L179.311 418.662L178.673 417.641L178.027 416.624L177.371 415.614L176.707 414.609L174.27 410.954L173.447 409.754L172.593 408.576L171.708 407.421L170.793 406.29L168.981 404.108L167.686 402.642L166.304 401.257L164.841 399.958L163.301 398.751L163.088 398.594L160.859 397.098L158.507 395.803L156.051 394.717L153.509 393.85L151.47 393.327L149.4 392.946L147.309 392.707L145.206 392.611L142.717 392.584L141.226 392.59L139.736 392.641L138.248 392.739L136.764 392.881L132.251 393.385L131.161 393.511L130.072 393.648L128.984 393.794L127.897 393.949L123.494 394.6L121.975 394.834L120.458 395.087L118.945 395.359L117.435 395.649L114.189 396.339L110.963 397.115L107.758 397.977L104.578 398.923L102.228 399.656L101.934 399.75L101.64 399.846L101.348 399.946L101.057 400.048L95.4042 402.071L93.9544 402.472L92.4613 402.657L90.9572 402.622L89.4748 402.366L86.766 401.262L84.4798 399.439L82.8018 397.044L81.8692 394.272L81.5818 392.706L81.4848 392.094L81.4181 391.478L81.3811 390.859L81.3745 390.24L81.4877 381.905L81.4895 381.689L81.4946 376.619L81.6809 374.436L82.2307 372.314L83.1285 370.315L84.3488 368.495L85.8969 366.868L87.7016 365.532L89.7089 364.525L91.8594 363.878L93.2741 363.582L94.8471 363.329L96.4369 363.224L98.0297 363.267L99.6115 363.459L103.625 364.137L104.778 364.35L105.923 364.597L107.06 364.879L108.188 365.196L114.327 367.02L114.791 367.157L115.256 367.293L115.722 367.427L116.187 367.559L123.037 369.494L123.823 369.719L124.607 369.95L125.39 370.185L126.171 370.426L126.571 370.55L130.243 371.629L133.949 372.585L137.685 373.417L141.446 374.125L142.441 374.291L143.437 374.448L144.434 374.597L145.433 374.736L152.459 375.688L152.763 375.728L153.068 375.769L153.373 375.809L153.678 375.848L159.512 376.593L161.113 376.775L162.718 376.912L164.327 377.005L165.938 377.053L168.776 377.097L170.585 377.076L172.391 376.953L174.186 376.731L175.967 376.409L177.779 376.028L179.773 375.514L181.712 374.819L183.578 373.951L185.358 372.915L186.114 372.427L187.879 371.137L189.481 369.65L190.899 367.987L192.114 366.169L192.399 365.684L193.363 363.766L194.072 361.74L194.512 359.639L194.678 357.499L194.683 357.129L194.55 354.909L194.097 352.732L193.334 350.642L192.277 348.685L190.933 346.883L189.339 345.297L187.531 343.96L185.528 342.893L183.389 342.124L181.181 341.68L178.931 341.56L176.689 341.767L176.417 341.812L174.34 342.298L172.344 343.05L170.461 344.053L168.726 345.292L166.955 346.738L165.879 347.67L164.858 348.661L163.894 349.708L162.992 350.809L160.69 353.787L159.717 354.98L158.682 356.121L157.59 357.206L156.442 358.232L155.179 359.303L153.311 360.721L151.302 361.931L149.175 362.919L146.954 363.672L144.699 364.178L142.402 364.442L140.091 364.463L137.79 364.238L136.514 364.045L134.757 363.692L133.043 363.169L131.388 362.484L129.807 361.64L128.971 361.14L127.09 359.815L125.429 358.224L124.026 356.401L122.912 354.389L122.641 353.8L121.957 351.959L121.553 350.037L121.44 348.076L121.628 346.069L122.273 343.638L123.348 341.423L124.825 339.451L126.648 337.796L128.393 336.697L130.29 335.889L132.292 335.393L134.347 335.221L137.662 335.209L138.716 335.181L139.768 335.105L140.815 334.98L141.856 334.808L144.595 334.289L146.957 333.912L149.336 333.676L151.726 333.579L154.117 333.622L156.559 333.666L158.999 333.562L161.428 333.313L163.838 332.918L166.928 332.316L167.747 332.166L168.568 332.03L169.392 331.912L170.217 331.809L175.557 331.196L176.876 331.107L178.197 331.141L179.509 331.298L180.802 331.577L183.873 332.391L185.632 332.646L187.403 332.494L189.092 331.943L190.612 331.021L192.306 329.201L193.335 326.938L193.595 324.465Z" stroke="#FF5053"/>
</svg>
