<svg width="311" height="535" viewBox="0 0 311 535" fill="none" xmlns="http://www.w3.org/2000/svg">
<path d="M192.595 323.465L192.057 321.038L191.339 319.237L190.939 318.357L190.46 317.518L189.903 316.728L189.276 315.994L188.976 315.674L186.415 313.579L183.399 312.22L180.133 311.69L176.83 312.028L175.833 312.307L174.873 312.661L173.944 313.092L173.054 313.596L171.081 314.821L168.794 316.09L166.394 317.133L163.904 317.937L161.348 318.497L159.476 318.812L158.289 319.032L157.11 319.292L155.94 319.59L154.78 319.926L152.519 320.623L150.161 321.306L147.782 321.908L145.384 322.43L142.97 322.87L139.224 323.487L138.735 323.57L138.246 323.657L137.758 323.749L137.271 323.845L132.593 324.791L130.657 325.104L128.704 325.263L126.743 325.268L124.789 325.119L122.038 324.641L119.358 323.859L116.782 322.781L114.343 321.422L111.71 319.754L111.377 319.549L111.039 319.353L110.696 319.166L110.348 318.988L108.751 318.195L105.716 317.165L102.516 316.974L99.3802 317.634L96.5294 319.099L95.9277 319.546L95.3551 320.03L94.8139 320.549L94.306 321.101L92.667 322.996L90.7084 324.859L88.4261 326.309L85.9066 327.29L83.2445 327.765L81.5156 327.795L79.7962 327.611L78.1131 327.214L76.4921 326.612L73.444 325.259L72.1928 324.773L70.9011 324.405L69.5809 324.16L68.2435 324.039L65.7777 323.933L63.7658 324.069L61.8318 324.643L60.0708 325.628L58.5703 326.975L57.3257 328.757L56.5365 330.783L56.2515 332.937L56.4829 335.098L56.5949 335.585L57.16 337.314L58.0271 338.914L59.1671 340.332L60.5433 341.523L65.0397 344.753L68.5287 347.256L70.4731 348.942L72.0764 350.955L73.284 353.227L74.0557 355.682L74.3248 357.501L74.3531 359.34L74.1399 361.166L73.6893 362.95L71.9029 368.464L70.1036 374.084L69.5651 375.904L69.1079 377.747L68.7325 379.608L68.4403 381.483L68.1984 383.3L68.0009 385.302L67.9404 387.313L68.0174 389.323L68.2315 391.323L68.4001 392.514L68.8049 394.646L69.408 396.732L70.2037 398.752L71.1854 400.688L71.4613 401.175L72.6899 403.087L74.1212 404.852L75.7378 406.449L77.5203 407.86L79.5607 409.128L81.7349 410.151L84.013 410.914L86.3645 411.408L86.6892 411.457L88.7849 411.67L90.8916 411.681L92.9895 411.492L95.0599 411.103L98.7466 410.226L99.4908 410.042L100.231 409.844L100.968 409.633L101.7 409.408L105.545 408.189L107.532 407.616L109.547 407.151L111.584 406.793L113.637 406.544L116.352 406.384L119.072 406.415L121.783 406.636L124.472 407.046L125.575 407.254L127.06 407.559L128.534 407.912L129.996 408.313L131.444 408.761L135.833 410.196L136.813 410.521L137.79 410.855L138.765 411.198L139.736 411.549L143.656 412.985L145.285 413.596L146.905 414.231L148.514 414.892L150.114 415.577L152.097 416.444L153.948 417.283L155.775 418.173L157.577 419.112L159.353 420.1L160.648 420.844L162.42 421.907L164.151 423.036L165.838 424.229L167.478 425.486L168.494 426.294L170.116 427.655L171.668 429.096L173.145 430.613L174.543 432.203L175.139 432.916L176.512 434.67L177.768 436.508L178.905 438.422L179.916 440.406L180.02 440.627L180.973 442.867L181.759 445.17L182.372 447.525L182.811 449.919L183.065 452.238L183.155 454.57L183.08 456.902L182.84 459.223L182.722 460.069L182.39 462.073L181.953 464.058L181.414 466.017L180.774 467.946L179.86 470.477L179.349 471.842L178.808 473.196L178.237 474.537L177.635 475.865L175.6 480.226L175.184 481.129L174.777 482.037L174.379 482.948L173.991 483.864L172.482 487.466L171.781 489.234L171.149 491.027L170.587 492.844L170.096 494.681L169.734 496.144L169.278 498.258L168.948 500.395L168.744 502.547L168.669 504.708L168.665 505.472L168.733 507.715L168.963 509.947L169.351 512.157L169.898 514.333L170.017 514.746L170.746 516.93L171.649 519.049L172.719 521.088L173.949 523.035L174.147 523.323L175.516 525.135L177.033 526.825L178.69 528.379L180.473 529.785L180.929 530.114L182.758 531.31L184.69 532.332L186.708 533.17L188.795 533.818L189.372 533.969L191.547 534.413L193.758 534.624L195.979 534.599L198.185 534.337L198.482 534.286L200.722 533.761L202.884 532.978L204.94 531.946L206.861 530.681L208.657 529.165L210.258 527.444L211.642 525.544L212.787 523.492L213.148 522.743L213.924 520.943L214.542 519.083L215 517.177L215.294 515.239L215.781 510.735L215.843 510.128L215.897 509.52L215.944 508.912L215.983 508.302L216.251 503.716L216.412 501.789L216.669 499.873L217.023 497.973L217.472 496.092L217.697 495.247L218.409 492.919L219.293 490.651L220.344 488.456L221.556 486.345L222.88 484.388L224.342 482.532L225.935 480.787L227.649 479.162L228.255 478.628L229.832 477.312L231.477 476.084L233.186 474.945L234.954 473.9L236.961 472.785L238.41 472.007L239.88 471.269L241.37 470.572L242.878 469.916L248.006 467.771L248.407 467.603L248.808 467.433L249.208 467.261L249.608 467.088L254.482 464.967L256.083 464.235L257.657 463.446L259.201 462.6L260.713 461.699L262.289 460.72L264.073 459.533L265.778 458.235L267.397 456.833L268.925 455.331L269.304 454.933L270.884 453.143L272.318 451.235L273.599 449.22L274.717 447.11L275.674 444.901L276.453 442.622L277.049 440.289L277.459 437.916L277.62 436.693L277.814 434.903L277.923 433.107L277.947 431.307L277.886 429.508L277.655 425.489L277.602 424.45L277.562 423.41L277.536 422.371L277.523 421.33L277.498 417.097L277.474 415.396L277.421 413.696L277.339 411.998L277.228 410.3L277.093 408.482L276.893 406.25L276.622 404.024L276.282 401.809L275.871 399.605L275.693 398.722L275.226 396.614L274.682 394.526L274.062 392.459L273.367 390.415L273.241 390.065L272.339 387.732L271.331 385.443L270.22 383.202L269.008 381.013L268.783 380.628L267.675 378.82L266.49 377.06L265.231 375.353L263.901 373.702L262.094 371.669L260.178 369.738L258.159 367.915L256.043 366.205L253.692 364.409L253.173 364.02L252.646 363.64L252.112 363.27L251.572 362.91L247.63 360.335L246.166 359.251L244.839 358.003L243.667 356.609L242.665 355.087L241.47 352.488L240.771 349.714L240.592 346.86L240.939 344.021L241.513 341.378L241.612 340.944L241.719 340.512L241.835 340.082L241.959 339.654L243.471 334.64L243.919 332.917L244.232 331.164L244.41 329.393L244.45 327.613L244.438 326.849L244.229 324.261L243.69 321.721L242.829 319.271L241.659 316.952L240.499 315.194L239.161 313.567L237.661 312.088L236.015 310.773L231.664 307.655L228.6 305.463L226.265 303.656L224.072 301.679L222.033 299.543L220.159 297.261L218.919 295.628L218.443 294.97L217.998 294.292L217.586 293.593L217.206 292.876L215.848 290.157L214.574 288.18L212.905 286.522L210.917 285.261L208.705 284.46L206.995 284.182H205.262L203.551 284.455L201.906 284.998L198.03 286.627L197.195 286.961L196.348 287.26L195.49 287.53L194.623 287.764L189.755 288.986L188.357 289.325L186.954 289.639L185.546 289.933L184.134 290.204L180.855 290.805L179.133 291.141L177.418 291.511L175.711 291.917L174.013 292.36L172.32 292.82L170.165 293.363L167.99 293.826L165.8 294.208L163.597 294.509L162.506 294.637L160.452 294.924L158.412 295.301L156.391 295.766L154.392 296.32L151.774 297.191L149.21 298.213L146.711 299.382L144.284 300.696L142.058 301.985L141.371 302.37L140.673 302.735L139.965 303.081L139.247 303.406L137.114 304.335L134.455 305.274L131.689 305.824L128.873 305.974L126.064 305.72L124.265 305.34L122.509 304.795L120.812 304.088L119.188 303.226L115.947 301.307L115.009 300.733L114.087 300.135L113.182 299.51L112.295 298.861L112.047 298.674L109.11 296.64L106.022 294.843L102.802 293.295L99.4703 292.006L99.2287 291.923L98.1735 291.548L97.1276 291.148L96.0917 290.722L95.0662 290.272L94.7795 290.143L91.5865 288.565L88.5058 286.78L85.5507 284.794L82.7342 282.617L81.0214 281.197L80.8324 281.042L80.5781 280.84L76.8205 277.884L75.1805 276.345L73.8323 274.546L72.8159 272.539L72.1626 270.387L71.8881 268.018L72.0535 265.639L72.6534 263.331L73.6674 261.172L74.8733 259.119L75.4896 258.14L76.1638 257.2L76.894 256.304L77.6771 255.452L81.4077 251.637L82.1326 250.907L82.8692 250.188L83.6174 249.485L84.3772 248.791L89.3276 244.347L89.7034 244.009L90.0778 243.668L90.4505 243.327L90.8217 242.982L95.8866 238.268L96.5498 237.674L97.236 237.106L97.9438 236.566L98.6724 236.055L102.222 233.666L103.725 232.829L105.347 232.252L107.043 231.955L108.764 231.942L109.081 231.967L111.593 232.497L113.878 233.664L115.781 235.385L117.169 237.542L117.464 238.17L117.98 239.612L118.213 241.124L118.155 242.653L117.808 244.143L116.661 246.349L114.893 248.097L112.675 249.222L110.218 249.614L106.561 249.624L106.331 249.628L106.025 249.638L103.231 249.774L100.18 250.188L97.244 251.114L94.5072 252.523L92.0493 254.376L91.5049 254.863L90.6159 255.735L89.8077 256.682L89.0869 257.7L88.459 258.773L87.9745 259.696L87.0031 262.197L86.6183 264.85L86.8395 267.524L87.6557 270.078L88.5313 271.682L89.643 273.134L90.9644 274.397L92.4643 275.442L96.2091 277.645L96.8979 278.035L97.5987 278.405L98.3104 278.751L99.0328 279.077L100.689 279.79L103.525 281.127L106.269 282.641L108.909 284.329L111.435 286.184L113.106 287.499L113.597 287.898L114.074 288.314L114.535 288.748L114.982 289.196L119.273 293.665L120.022 294.294L120.887 294.749L121.829 295.01L122.805 295.064L124.649 294.57L126.129 293.367L126.989 291.664L127.078 289.758L126.335 285.259L126.288 284.952L125.819 280.462L125.772 275.948L126.146 271.449L126.94 267.005L127.028 266.616L127.09 266.348L128.106 262.055L128.628 259.535L129.01 256.994L129.251 254.432L129.349 251.861L129.319 249.648L129.183 247.437L128.943 245.236L128.597 243.05L128.161 240.659L127.94 239.256L127.787 237.847L127.703 236.43L127.688 235.013L127.698 234.314L127.897 231.431L128.412 228.587L129.239 225.819L130.366 223.158L131.235 221.534L132.215 219.978L133.303 218.493L134.492 217.088L137.036 214.288L137.784 213.482L138.548 212.693L139.328 211.919L140.124 211.162L142.657 208.802L144.124 207.405L145.559 205.973L146.96 204.51L148.328 203.015L151.07 199.945L151.588 199.385L152.123 198.842L152.675 198.313L153.244 197.805L156.491 194.99L157.878 193.967L159.409 193.179L161.046 192.64L162.747 192.368L164.284 192.244L166.064 192.307L167.782 192.772L169.349 193.617L170.682 194.795L171.843 196.5L172.514 198.447L172.649 200.505L172.237 202.523L172.044 203.078L171.348 204.598L170.375 205.956L169.163 207.105L167.754 208.004L163.574 210.137L162.974 210.431L162.364 210.704L161.746 210.96L161.12 211.193L157.294 212.552L155.34 213.321L153.445 214.227L151.616 215.259L149.864 216.416L148.781 217.185L147.185 218.432L145.705 219.812L144.353 221.319L143.14 222.939L141.784 225.196L140.696 227.591L139.89 230.097L139.378 232.678L139.247 233.62L139.075 235.185L138.995 236.761L139.008 238.336L139.112 239.909L139.427 243.193L139.558 244.812L139.642 246.434L139.677 248.056L139.665 249.68L139.63 251.23L139.523 253.651L139.309 256.066L138.989 258.469L138.563 260.857L138.009 263.611L137.832 264.607L137.698 265.61L137.608 266.616L137.563 267.626L137.495 270.541L137.61 272.678L138.051 274.772L138.808 276.771L139.862 278.634L141.258 280.384L142.916 281.889L144.794 283.109L146.843 284.012L148.335 284.531L149.865 284.988L151.429 285.317L153.015 285.507L154.611 285.563L158.612 285.531L159.829 285.461L161.033 285.268L162.211 284.957L163.353 284.528L165.973 283.394L167.443 282.527L168.655 281.327L169.534 279.863L170.028 278.232L170.097 276.44L169.702 274.692L168.87 273.104L167.655 271.785L164.067 268.785L163.78 268.551L163.488 268.325L163.19 268.103L162.887 267.892L159.242 265.41L157.519 264.093L155.951 262.596L154.556 260.935L153.352 259.131L152.245 256.967L151.412 254.681L150.867 252.312L150.612 249.801L150.63 247.586L150.872 245.475L151.33 243.403L152 241.387L152.48 240.162L153.257 238.37L154.163 236.641L155.193 234.981L156.34 233.403L157.972 231.321L158.947 230.121L159.964 228.955L161.02 227.823L162.114 226.73L165.405 223.555L166.145 222.851L166.896 222.159L167.657 221.478L168.428 220.808L172.08 217.689L173.194 216.793L174.356 215.961L175.564 215.196L176.813 214.5L179.012 213.358L180.854 212.545L182.784 211.975L184.772 211.656L186.784 211.595L187.351 211.615L189.559 211.865L191.7 212.464L193.718 213.394L195.564 214.631L197.194 216.15L198.562 217.908L199.633 219.863L200.38 221.962L200.585 222.727L200.966 224.567L201.134 226.44L201.085 228.319L200.822 230.182L199.695 235.794L199.66 235.967L198.596 241.462L198.285 243.437L198.113 245.426L198.082 247.425L198.19 249.419L198.234 249.901L198.578 252.38L199.158 254.814L199.971 257.181L201.007 259.46L202.09 261.362L203.329 263.168L204.716 264.863L206.241 266.433L209.942 269.939L210.136 270.122L212.48 272.311L214.732 274.519L216.872 276.839L218.891 279.262L220.788 281.784L221.992 283.472L222.374 283.993L222.771 284.504L223.181 285.005L223.604 285.492L226.03 288.224L227.571 289.7L229.329 290.91L231.258 291.822L233.309 292.413L235.492 292.67L237.688 292.563L239.837 292.096L241.878 291.28L245.22 289.61L245.809 289.305L246.389 288.986L246.96 288.65L247.522 288.297L250.789 286.189L252.686 285.054L254.656 284.053L256.691 283.192L258.781 282.471L261.233 281.821L263.73 281.368L266.254 281.115L268.79 281.061L271.038 281.1L272.195 281.137L273.351 281.2L274.504 281.295L275.656 281.417L279.86 281.916L281.429 282.072L283.003 282.162L284.58 282.193L286.156 282.159L288.487 282.064L290.53 281.896L292.553 281.565L294.542 281.071L296.485 280.418L297.569 280.004L299.49 279.152L301.311 278.1L303.01 276.866L304.57 275.456L305.245 274.779L306.622 273.209L307.785 271.473L308.716 269.603L309.4 267.631L309.58 266.978L309.997 264.838L310.079 262.662L309.826 260.497L309.242 258.396L308.236 256.219L306.877 254.245L305.203 252.528L303.263 251.118L302.937 250.921L301.083 249.967L299.116 249.275L297.073 248.859L294.992 248.728L289.82 248.749H289.618H289.348L284.386 248.691L282.136 248.564L279.906 248.238L277.714 247.712L275.578 246.994L274.834 246.707L272.876 245.833L271.017 244.766L269.274 243.52L267.665 242.103L266.997 241.452L265.555 239.865L264.317 238.112L263.302 236.22L262.526 234.221L262.415 233.873L261.863 231.587L261.646 229.245L261.768 226.895L262.227 224.589L262.973 222.461L264.005 220.458L265.303 218.617L266.843 216.971L267.76 216.116L269.1 214.972L270.532 213.945L272.046 213.044L273.631 212.274L277.768 210.478L278.49 210.171L279.217 209.879L279.949 209.596L280.685 209.326L285.193 207.716L286.765 207.125L288.317 206.477L289.844 205.778L291.347 205.026L293.204 204.055L295.03 203.025L296.786 201.878L298.464 200.619L300.057 199.256L300.766 198.608L302.328 197.057L303.756 195.382L305.042 193.597L306.176 191.71L306.548 191.029L307.487 189.095L308.238 187.082L308.795 185.007L309.152 182.887L309.257 182.013L309.39 179.909L309.285 177.803L308.946 175.724L308.375 173.696L308.172 173.104L307.324 171.083L306.214 169.191L304.862 167.463L303.293 165.929L301.421 164.546L299.372 163.44L297.187 162.635L294.853 162.135L292.646 161.96L290.492 162.067L288.37 162.449L286.314 163.1L285.049 163.589L283.362 164.327L281.741 165.201L280.199 166.209L278.747 167.341L275.657 169.963L274.936 170.589L274.228 171.229L273.533 171.884L272.852 172.554L269.327 176.087L268.312 177.056L267.251 177.976L266.148 178.843L265.003 179.656L263.053 180.971L261.201 182.071L259.236 182.953L257.183 183.605L255.069 184.021L252.663 184.197L250.253 184.065L247.88 183.629L245.582 182.892L244.303 182.39L242.848 181.762L241.437 181.041L240.076 180.231L238.772 179.33L234.422 176.116L233.973 175.777L233.529 175.434L233.089 175.086L232.655 174.73L228.253 171.073L227.23 170.126L226.313 169.077L225.512 167.935L224.838 166.713L224.294 165.593L223.535 163.465L223.252 161.225L223.46 158.978L224.146 156.828L225.073 155.167L226.285 153.704L227.744 152.486L229.4 151.552L232.682 150.078L233.611 149.689L234.56 149.348L235.525 149.056L236.504 148.812L241.682 147.661L242.847 147.393L244.009 147.103L245.165 146.796L246.315 146.47L247.668 146.073L250.486 145.207L253.28 144.269L256.05 143.259L258.792 142.178L259.953 141.703L261.137 141.211L262.316 140.71L263.49 140.196L264.659 139.672L269.606 137.43L270.392 137.072L271.177 136.709L271.96 136.346L272.742 135.976L277.137 133.897L278.544 133.213L279.937 132.504L281.316 131.767L282.681 131.005L284.861 129.758L286.6 128.718L288.295 127.608L289.944 126.432L291.545 125.188L292.393 124.501L294.102 123.038L295.726 121.482L297.262 119.839L298.703 118.113L299.024 117.703L300.388 115.858L301.633 113.93L302.753 111.928L303.745 109.859L303.938 109.42L304.778 107.324L305.472 105.177L306.017 102.985L306.41 100.762L306.491 100.185L306.719 97.9674L306.777 95.7371L306.663 93.5093L306.379 91.2961L306.279 90.6996L305.817 88.5229L305.168 86.3925L304.336 84.3278L303.329 82.3435L303.029 81.8103L301.856 79.9453L300.507 78.2069L298.995 76.6048L297.335 75.161L296.928 74.8396L295.092 73.5516L293.124 72.473L291.049 71.6184L288.893 70.9976L288.545 70.9172L286.314 70.5471L284.054 70.4473L281.799 70.6177L279.581 71.0584L277.301 71.8132L275.136 72.8528L273.121 74.1603L271.289 75.7137L271.018 75.9742L269.567 77.5276L268.286 79.2246L267.191 81.0458L266.292 82.9717L265.325 85.365L264.83 86.6725L264.391 87.9995L264.01 89.3434L263.688 90.702L262.385 96.7841L262.311 97.1249L262.236 97.4658L262.16 97.8067L262.082 98.1475L260.947 103.117L260.485 105.018L259.972 106.908L259.409 108.783L258.795 110.643L258.295 112.091L257.562 114.085L256.75 116.05L255.861 117.979L254.896 119.873L254.328 120.934L253.283 122.773L252.146 124.557L250.92 126.281L249.608 127.942L248.91 128.779L247.465 130.403L245.918 131.93L244.274 133.354L242.541 134.666L241.493 135.407L239.805 136.505L238.036 137.464L236.196 138.28L234.297 138.947L233.472 139.2L231.182 139.77L228.844 140.084L226.485 140.14L224.134 139.938L221.767 139.463L219.468 138.73L217.265 137.742L215.187 136.512L214.826 136.271L213.116 134.988L211.552 133.529L210.152 131.913L208.933 130.157L207.712 127.859L206.798 125.422L206.208 122.89L205.952 120.299L205.827 116.603L205.815 116.308L205.802 116.016L205.785 115.722L205.766 115.427L205.694 114.373L205.324 110.368L204.763 106.384L204.015 102.433L203.079 98.5225L202.875 97.7361L202.678 96.9448L202.489 96.1559L202.308 95.3622L201.166 90.2589L200.857 88.8638L200.554 87.4662L200.257 86.0687L199.965 84.6687L199.446 82.1512L199.003 80.0524L198.538 77.9585L198.052 75.8719L197.545 73.7878L197.4 73.2034L196.803 70.8661L196.175 68.536L195.518 66.2132L194.831 63.9002L194.105 61.5677L193.348 59.2425L192.561 56.9295L191.744 54.6238L191.599 54.2221L190.837 52.1574L190.051 50.1049L189.238 48.0621L188.401 46.0291L187.87 44.763L187.094 42.9492L186.29 41.1474L185.459 39.3579L184.601 37.5829L183.778 35.9078L182.898 34.167L181.979 32.4456L181.023 30.7461L180.029 29.0686L179.223 27.7392L178.092 25.9423L176.902 24.1821L175.656 22.4607L174.354 20.7831L173.853 20.1598L172.364 18.3824L170.802 16.6683L169.17 15.02L167.47 13.4423L167.284 13.2768L165.462 11.7282L163.571 10.2625L161.616 8.88686L159.594 7.59649L157.479 6.37664L155.317 5.26152L153.106 4.24867L150.802 3.32105L148.538 2.52485L146.291 1.84799L144.015 1.2758L141.715 0.808334L141.342 0.742623L139.074 0.392006L136.792 0.150986L134.501 0.0195045L132.206 0L131.559 0.00975226L129.354 0.102283L127.157 0.311666L124.973 0.64034L122.811 1.08105L121.859 1.30262L119.81 1.84799L117.8 2.51997L115.835 3.31861L113.925 4.23892L112.942 4.75022L111.103 5.80207L109.352 6.99753L107.702 8.32686L106.162 9.78285L105.504 10.4549L104.073 12.0716L102.807 13.8197L101.718 15.6823L100.817 17.6447L100.598 18.1901L99.8861 20.3108L99.4214 22.4972L99.2104 24.725L99.256 26.9601L99.5872 29.3267L100.205 31.6348L101.101 33.848L102.31 36.0125L103.607 37.8337L105.032 39.4334L106.618 40.8747L108.348 42.1408L109.642 42.9857L111.191 43.9255L112.799 44.7606L114.458 45.4886L116.162 46.1046L119.921 47.3244L120.917 47.6385L121.919 47.9331L122.926 48.2107L123.938 48.4687L128.202 49.5181L129.774 49.9101L131.343 50.3191L132.907 50.7428L134.468 51.1786L135.913 51.5901L138.3 52.2864L140.678 53.012L143.047 53.7668L145.407 54.5508L146.477 54.9135L148.186 55.5052L149.888 56.1163L151.582 56.7469L153.269 57.397L155.509 58.2759L157.221 58.9674L158.92 59.693L160.603 60.4526L162.271 61.2463L164.088 62.1326L165.865 63.0334L167.613 63.9927L169.328 65.008L171.009 66.0769L172.235 66.8852L173.97 68.0856L175.648 69.3663L177.265 70.7224L178.858 72.1906L180.749 74.1213L182.485 76.1203L184.1 78.2166L185.589 80.4054L186.703 82.2486L187.726 84.1404L188.658 86.0809L189.496 88.0652L190.441 90.461L190.94 91.7709L191.407 93.093L191.841 94.4248L192.244 95.7688L193.284 99.4014L193.669 100.911L193.963 102.44L194.166 103.984L194.277 105.535L194.347 107.227L194.307 109.52L193.994 111.792L193.414 114.01L192.575 116.143L191.488 118.161L190.17 120.036L188.638 121.743L186.915 123.255L185.829 124.1L184.426 125.112L182.956 126.028L181.425 126.839L179.842 127.542L176.087 129.057L175.076 129.451L174.058 129.826L173.033 130.182L172.001 130.515L167.108 132.044L165.949 132.397L164.785 132.733L163.616 133.05L162.442 133.352L158.634 134.296L156.996 134.666L155.344 134.961L153.681 135.183L152.009 135.329L150.888 135.404L148.346 135.465L145.808 135.319L143.291 134.966L140.811 134.406L138.718 133.763L136.676 132.972L134.694 132.039L132.783 130.968L128.815 128.558L128.54 128.39L128.266 128.219L127.993 128.049L127.72 127.876L124.004 125.514L122.023 124.309L119.994 123.187L117.922 122.147L115.785 121.18L113.456 120.243L111.112 119.418L108.734 118.694L106.307 118.071L104.01 117.584L101.715 117.197L99.4058 116.905L97.0864 116.71L96.4266 116.669L94.2527 116.579L92.0768 116.584L89.9036 116.688L87.737 116.888L87.0012 116.973L84.7474 117.294L82.5143 117.738L80.3085 118.3L78.135 118.982L75.7702 119.875L73.4647 120.91L71.2255 122.079L69.0609 123.381L67.1795 124.667L65.371 126.05L63.6391 127.53L61.9901 129.103L61.1449 129.955L59.798 131.362L58.5021 132.821L57.2623 134.323L56.0761 135.872L54.2663 138.328L53.4577 139.441L52.6661 140.568L51.8915 141.703L51.134 142.852L48.1477 147.442L47.741 148.067L47.3318 148.691L46.9201 149.314L46.5085 149.935L45.4026 151.598L43.6659 154.183L41.9098 156.755L40.1341 159.313L38.3365 161.858L37.2307 163.409L36.7703 164.054L36.3075 164.697L35.8447 165.34L35.3795 165.982L32.7586 169.6L31.6869 171.088L30.6274 172.585L29.5775 174.088L28.5423 175.6L28.0357 176.342L26.5986 178.48L25.1883 180.635L23.8048 182.806L22.4457 184.995L21.2643 186.948L20.1049 188.913L18.9674 190.89L17.8518 192.882L17.2404 193.98L16.3027 195.686L15.3771 197.403L14.4612 199.124L13.56 200.85L12.3373 203.217L11.6163 204.622L10.9075 206.032L10.2084 207.446L9.51909 208.868L8.05034 211.926L7.37562 213.36L6.72529 214.802L6.09441 216.253L5.48793 217.714L4.51849 220.1L3.80239 221.948L3.14471 223.815L2.54552 225.702L2.00965 227.608L1.73685 228.636L1.1937 230.893L0.755246 233.172L0.421559 235.468L0.192577 237.778L0.100038 238.989L0.00503049 240.888L0.000152363 242.787L0.0927206 244.683L0.275389 246.573L0.601788 249.244L0.852663 250.797L1.22047 252.326L1.70032 253.821L2.2922 255.277L3.37126 257.666L4.22133 259.229L5.29063 260.653L6.55722 261.904L8.05034 262.995L10.3278 264.115L12.7221 264.717L15.1895 264.809L17.6228 264.388L19.4326 263.711L21.1084 262.752L22.604 261.532L23.8827 260.086L27.2952 255.518L30.0476 251.793L31.5968 249.899L33.3262 248.168L35.2163 246.614L37.2526 245.256L39.2743 244.172L41.3885 243.279L43.5758 242.585L45.8191 242.095L48.423 241.655L49.6067 241.477L50.7954 241.348L51.9889 241.265L53.1849 241.231L57.0261 241.194L58.6873 241.082L60.3265 240.773L61.9171 240.274L63.437 239.592L65.7875 238.051L67.7855 236.077L69.3539 233.746L70.4305 231.151L71.1011 228.933L71.2972 228.239L71.4674 227.54L71.6119 226.834L71.7302 226.123L72.4519 221.246L72.6804 219.593L72.877 217.933L73.0414 216.272L73.1741 214.607L73.4092 211.247L73.5076 209.747L73.5931 208.245L73.6654 206.743L73.7251 205.24L73.9158 199.835L73.9397 199.185L73.9655 198.535L73.9933 197.885L74.0228 197.235L74.287 191.586L74.3643 190.208L74.4673 188.832L74.5957 187.457L74.7496 186.086L75.1836 182.517L75.4233 180.866L75.7397 179.227L76.1319 177.606L76.5988 176.006L77.0777 174.497L77.8817 172.298L78.8738 170.177L80.0466 168.154L81.3914 166.238L82.9596 164.38L84.6892 162.671L86.5664 161.125L88.5757 159.754L90.1316 158.792L91.4028 158.043L92.7028 157.344L94.0301 156.699L95.3819 156.107L100.947 153.799L101.288 153.655L101.628 153.514L101.968 153.368L102.307 153.224L105.685 151.771L108.133 150.767L110.614 149.854L113.126 149.027L115.665 148.289L117.803 147.744L119.955 147.259L122.121 146.84L124.298 146.485L127.145 146.064L128.346 145.896L129.55 145.752L130.756 145.63L131.964 145.53L132.684 145.479L135.942 145.333L139.204 145.37L142.458 145.586L145.695 145.986L147.254 146.244L148.806 146.546L150.349 146.887L151.882 147.271L157.098 148.649L157.66 148.795L158.223 148.939L158.788 149.078L159.353 149.212L162.008 149.833L164.809 150.568L167.569 151.447L170.278 152.467L172.931 153.628L174.224 154.237L175.328 154.778L176.411 155.357L177.473 155.973L178.514 156.628L179.224 157.093L181.922 158.666L184.764 159.961L187.723 160.964L190.767 161.663L192.471 161.963L193.272 162.084L194.078 162.16L194.888 162.191L195.698 162.182L199.288 162.467L202.707 163.601L205.758 165.517L208.264 168.103L209.244 169.396L209.365 169.552L209.528 169.759L209.864 170.177L212.803 173.511L216.025 176.574L219.505 179.342L223.215 181.791L223.606 182.025L223.775 182.125L224.001 182.254L227.108 184L229.34 185.619L231.139 187.708L232.409 190.155L233.082 192.828L233.183 194.408L233.073 195.988L232.755 197.539L232.233 199.034L231.403 200.984L230.487 202.815L229.352 204.517L228.016 206.066L226.489 207.446L224.363 208.89L222.049 209.981L219.594 210.701L217.058 211.033L215.09 211.018L213.138 210.767L211.23 210.288L209.392 209.584L208.261 209.07L206.388 208.108L204.617 206.967L202.966 205.659L201.45 204.198L199.442 202.061L198.646 201.184L197.879 200.286L197.142 199.36L196.435 198.411L194.56 195.811L193.31 194.167L191.977 192.589L190.564 191.085L189.075 189.655L188.444 189.081L186.696 187.596L184.851 186.23L182.917 184.995L180.903 183.895L180.174 183.53L178.27 182.66L176.307 181.932L174.295 181.355L172.246 180.927L171.583 180.815L169.27 180.532L166.942 180.472L164.618 180.63L162.319 181.005L160.02 181.613L157.79 182.436L155.65 183.474L153.62 184.71L152.993 185.137L151.394 186.303L149.879 187.579L148.457 188.954L147.133 190.427L145.101 192.855L144.28 193.802L143.428 194.722L142.547 195.616L141.637 196.478L138.958 198.723L136.086 200.712L133.044 202.433L129.859 203.87L129.265 204.106L128.4 204.439L127.529 204.751L126.65 205.046L125.766 205.321L123.975 205.854L121.149 206.796L118.39 207.919L115.709 209.214L113.117 210.68L111.606 211.641L110.134 212.659L108.702 213.733L107.312 214.862L104.145 217.538L103.39 218.184L102.641 218.836L101.899 219.493L101.164 220.161L96.3511 224.567L95.9053 224.974L95.4591 225.383L95.0122 225.787L94.5645 226.194L91.9718 228.539L90.1173 230.226L88.2734 231.925L86.4405 233.637L84.6185 235.361L81.5619 238.273L81.3023 238.521L80.9583 238.855L77.0412 242.702L75.6218 243.997L74.1112 245.183L72.5175 246.256L70.8495 247.211L68.3528 248.357L65.7509 249.236L63.0692 249.84L60.3411 250.157L57.2842 250.352L56.8336 250.386L56.3855 250.432L55.9397 250.49L55.494 250.558L50.7881 251.34L49.1172 251.812L47.5924 252.643L46.2892 253.789L45.2711 255.194L44.5136 257.047L44.253 259.029L44.5038 261.013L45.2492 262.869L45.9556 264.13L46.7179 265.298L47.6314 266.355L48.6787 267.28L49.8406 268.055L53.6623 270.251L54.6902 270.874L55.6888 271.544L56.6558 272.257L57.5912 273.014L58.4656 273.757L60.631 275.741L62.638 277.881L64.4795 280.168L66.1431 282.585L66.7774 283.586L67.4845 284.662L68.2266 285.714L69.0036 286.741L69.814 287.74L70.9038 289.042L72.6792 290.978L74.62 292.747L76.7109 294.337L78.9354 295.734L80.8124 296.712L82.7547 297.553L84.7525 298.251L86.7954 298.805L91.3717 299.87L91.71 299.95L92.0481 300.031L92.3857 300.115L92.7228 300.2L95.2219 300.841L98.2819 301.734L101.277 302.825L104.194 304.111L107.021 305.585L107.294 305.739L108.543 306.471L109.767 307.243L110.965 308.056L112.136 308.907L114.674 310.819L116.157 311.849L117.716 312.762L119.339 313.552L121.02 314.214L123.728 314.983L126.508 315.422L129.322 315.523L132.127 315.287L133.241 315.125L134.552 314.903L135.85 314.619L137.133 314.274L138.399 313.868L144.064 311.901L144.561 311.727L145.057 311.55L145.552 311.37L146.047 311.187L152.705 308.702L153.437 308.429L154.169 308.159L154.902 307.889L155.635 307.621L162.915 304.97L163.206 304.865L163.595 304.725L169.65 302.578L171.065 302.113L172.501 301.716L173.953 301.386L175.42 301.126L177.625 300.788L179.778 300.571L181.941 300.577L184.093 300.807L186.209 301.257L188.549 302.033L190.78 303.078L192.874 304.379L194.89 305.997L196.451 307.533L197.779 309.12L198.951 310.824L199.958 312.632L201.66 316.062L202.006 316.775L202.339 317.495L202.657 318.221L202.962 318.953L203.785 320.983L204.956 323.687L206.253 326.334L207.673 328.917L209.212 331.431L210.25 332.988L211.334 334.514L212.462 336.007L213.635 337.466L216.968 341.487L217.206 341.776L217.444 342.065L217.682 342.355L217.918 342.646L222.821 348.684L223.198 349.146L223.576 349.606L223.957 350.066L224.339 350.523L226.807 353.47L228.332 355.242L229.904 356.971L231.522 358.657L233.185 360.299L235.015 362.007L236.893 363.661L238.819 365.26L240.79 366.802L243.435 368.811L243.984 369.232L244.53 369.656L245.072 370.086L245.611 370.519L248.565 372.916L250.274 374.373L251.91 375.91L253.471 377.525L254.951 379.212L256.539 381.222L258.013 383.315L259.37 385.487L260.605 387.73L260.804 388.117L261.705 389.955L262.53 391.827L263.278 393.732L263.949 395.665L264.328 396.832L264.964 398.918L265.527 401.025L266.016 403.15L266.43 405.291L266.611 406.322L266.935 408.431L267.168 410.551L267.311 412.679L267.364 414.812L267.365 415.438L267.309 417.812L267.126 420.18L266.815 422.534L266.379 424.868L265.803 427.231L265.098 429.56L264.266 431.846L263.309 434.083L263.182 434.36L262.199 436.368L261.121 438.328L259.951 440.234L258.692 442.082L258.469 442.393L257.026 444.308L255.494 446.151L253.874 447.92L252.089 449.687L250.288 451.313L248.498 452.777L246.638 454.151L244.714 455.434L244.118 455.811L242.264 456.917L240.354 457.924L238.394 458.829L236.389 459.63L235.591 459.924L233.483 460.627L231.333 461.192L229.152 461.618L226.947 461.903L226.426 461.953L224.128 462.089L221.826 462.055L219.533 461.85L217.262 461.475L214.868 460.889L212.529 460.114L210.259 459.157L208.013 457.989L206.046 456.776L204.226 455.466L202.503 454.031L200.884 452.479L199.932 451.498L198.646 450.112L197.424 448.67L196.27 447.173L195.185 445.626L193.371 442.908L192.644 441.799L191.936 440.678L191.248 439.545L190.579 438.4L187.682 433.34L187.374 432.804L187.065 432.269L186.754 431.734L186.443 431.201L184.137 427.266L183.14 425.577L182.134 423.893L181.118 422.215L180.091 420.544L178.311 417.662L177.673 416.641L177.027 415.624L176.372 414.614L175.708 413.609L173.27 409.954L172.447 408.754L171.593 407.576L170.708 406.421L169.793 405.29L167.981 403.108L166.686 401.642L165.304 400.257L163.841 398.958L162.301 397.751L162.089 397.594L159.859 396.098L157.507 394.803L155.051 393.717L152.509 392.85L150.47 392.327L148.4 391.946L146.309 391.707L144.207 391.611L141.717 391.584L140.226 391.59L138.736 391.641L137.248 391.739L135.764 391.881L131.251 392.385L130.161 392.511L129.072 392.648L127.984 392.794L126.898 392.949L122.495 393.6L120.975 393.834L119.458 394.087L117.945 394.359L116.435 394.649L113.189 395.339L109.963 396.115L106.759 396.977L103.578 397.923L101.228 398.656L100.934 398.75L100.641 398.846L100.349 398.946L100.057 399.048L94.4044 401.071L92.9547 401.472L91.4615 401.657L89.9575 401.622L88.4751 401.366L85.7663 400.262L83.4801 398.439L81.8021 396.044L80.8694 393.272L80.582 391.706L80.4851 391.094L80.4183 390.478L80.3813 389.859L80.3747 389.24L80.488 380.905L80.4897 380.689L80.4948 375.619L80.6811 373.436L81.2309 371.314L82.1287 369.315L83.349 367.495L84.8972 365.868L86.7018 364.532L88.7091 363.525L90.8597 362.878L92.2744 362.582L93.8474 362.329L95.4372 362.224L97.0299 362.267L98.6117 362.459L102.626 363.137L103.778 363.35L104.923 363.597L106.06 363.879L107.189 364.196L113.327 366.02L113.792 366.157L114.256 366.293L114.722 366.427L115.187 366.559L122.037 368.494L122.823 368.719L123.607 368.95L124.39 369.185L125.171 369.426L125.571 369.55L129.244 370.629L132.95 371.585L136.685 372.417L140.446 373.125L141.441 373.291L142.437 373.448L143.434 373.597L144.433 373.736L151.459 374.688L151.764 374.728L152.068 374.769L152.373 374.809L152.678 374.848L158.512 375.593L160.113 375.775L161.718 375.912L163.327 376.005L164.938 376.053L167.776 376.097L169.585 376.076L171.391 375.953L173.186 375.731L174.967 375.409L176.78 375.028L178.773 374.514L180.712 373.819L182.579 372.951L184.358 371.915L185.114 371.427L186.879 370.137L188.482 368.65L189.9 366.987L191.114 365.169L191.399 364.684L192.363 362.766L193.072 360.74L193.513 358.639L193.679 356.499L193.683 356.129L193.55 353.909L193.097 351.732L192.334 349.642L191.277 347.685L189.933 345.883L188.339 344.297L186.531 342.96L184.528 341.893L182.389 341.124L180.181 340.68L177.932 340.56L175.689 340.767L175.417 340.812L173.34 341.298L171.344 342.05L169.462 343.053L167.726 344.292L165.955 345.738L164.879 346.67L163.858 347.661L162.895 348.708L161.992 349.809L159.69 352.787L158.717 353.98L157.683 355.121L156.59 356.206L155.442 357.232L154.179 358.303L152.311 359.721L150.303 360.931L148.175 361.919L145.955 362.672L143.699 363.178L141.403 363.442L139.091 363.463L136.79 363.238L135.514 363.045L133.757 362.692L132.043 362.169L130.388 361.484L128.808 360.64L127.971 360.14L126.09 358.815L124.43 357.224L123.026 355.401L121.912 353.389L121.642 352.8L120.957 350.959L120.554 349.037L120.44 347.076L120.628 345.069L121.273 342.638L122.349 340.423L123.825 338.451L125.648 336.796L127.393 335.697L129.291 334.889L131.292 334.393L133.348 334.221L136.662 334.209L137.717 334.181L138.768 334.105L139.816 333.98L140.856 333.808L143.595 333.289L145.957 332.912L148.337 332.676L150.726 332.579L153.117 332.622L155.559 332.666L157.999 332.562L160.428 332.313L162.838 331.918L165.929 331.316L166.747 331.166L167.568 331.03L168.392 330.912L169.218 330.809L174.557 330.196L175.876 330.107L177.197 330.141L178.51 330.298L179.802 330.577L182.874 331.391L184.633 331.646L186.403 331.494L188.093 330.943L189.612 330.021L191.306 328.201L192.336 325.938L192.595 323.465Z" fill="#190B2F"/>
</svg>
