<svg width="379" height="402" viewBox="0 0 379 402" fill="none" xmlns="http://www.w3.org/2000/svg">
<path d="M240.092 60.7881L239.175 59.2728L238.917 58.3897L238.575 57.3159L237.654 54.6032L236.639 51.9215L235.531 49.2791L234.33 46.6764L234.024 46.0407L233.933 45.8534L233.844 45.6662L233.755 45.4789L233.665 45.2917L232.04 41.8437L231.495 40.6428L230.989 39.4247L230.52 38.1912L230.088 36.9439L229.721 35.8255L229.284 34.3755L228.918 32.9049L228.625 31.4189L228.406 29.919L228.334 29.3263L228.19 27.7372L228.144 26.1428L228.195 24.5468L228.346 22.9594L228.379 22.6896L228.643 21.0456L229.02 19.4237L229.508 17.8329L230.138 16.2008L230.863 14.6409L231.662 13.2097L232.559 11.8405L233.605 10.4747L234.76 9.16897L235.952 8.01454L237.228 6.95449L238.627 5.96497L240.094 5.08358L241.58 4.34654L243.118 3.72641L244.719 3.22472L246.384 2.8433L248.053 2.60106L249.739 2.49457L251.424 2.52553L253.091 2.69044L254.736 2.98765L256.353 3.41544L257.932 3.97037L258.224 4.08718L259.631 4.70216L260.993 5.41176L262.304 6.21057L263.558 7.09539L264.386 7.72241L265.438 8.55571L266.453 9.43529L267.427 10.3579L268.362 11.3234L269.673 12.7424L270.42 13.5671L271.15 14.4089L271.863 15.2662L272.556 16.1372L274.902 19.1506L275.153 19.4736L275.404 19.7983L275.653 20.1247L275.901 20.4494L277.07 21.987L278.323 23.6208L279.592 25.2409L280.879 26.8489L282.216 28.4862L283.094 29.5445L283.942 30.553L284.796 31.5545L285.659 32.551L286.623 33.6591L287.524 34.7071L288.414 35.7654L289.294 36.8323L290.162 37.9077L291.426 39.5192L292.666 41.1496L293.879 42.7989L295.067 44.4687L296.133 45.9926L296.393 46.3654L296.652 46.7383L296.912 47.1127L297.168 47.4873L299.325 50.6347L299.939 51.5142L300.566 52.3819L301.207 53.2409L301.861 54.0896L303.086 55.6529L303.945 56.7095L304.842 57.7351L305.773 58.7282L306.74 59.6885L307.821 60.7245L308.785 61.6006L309.793 62.4236L310.843 63.1915L311.932 63.9028L313.296 64.7429L314.422 65.3717L315.595 65.9008L316.81 66.3303L318.055 66.655L319.113 66.8835L320.558 67.0965L322.019 67.1189L323.468 66.9505L324.884 66.5931L325.137 66.5124L326.609 65.9077L327.971 65.0831L329.191 64.0574L330.239 62.8582L331.076 61.5319L331.705 60.0939L332.107 58.5787L332.275 57.0187L332.299 56.2027L332.275 54.9107L332.122 53.6257L331.84 52.3647L331.433 51.1363L329.937 47.276L329.875 47.1196L328.595 43.8932L328.028 42.3487L327.542 40.7767L327.14 39.1808L326.82 37.5624L326.573 35.8221L326.423 34.0732L326.372 32.3191L326.417 30.565L326.551 28.9174L326.769 27.2801L327.073 25.6566L327.478 23.9919L327.98 22.3083L328.549 20.7088L329.201 19.142L329.94 17.5993L330.758 16.096L331.648 14.6443L332.612 13.2424L333.649 11.8886L334.759 10.5881L335.933 9.34936L337.168 8.17085L338.482 7.04558L339.832 6.00101L341.215 5.04066L342.645 4.15247L344.117 3.3381L344.77 2.99797L345.997 2.39839L347.254 1.86574L348.538 1.39847L349.843 0.998203L351.386 0.570413L352.594 0.283527L353.82 0.0945364L355.059 0L356.299 0.00172033L357.811 0.0635704L359.172 0.209635L360.502 0.532648L361.778 1.02909L362.976 1.69051L364.489 2.87083L365.759 4.3105L366.74 5.95809L367.401 7.76026L367.693 8.86488L367.884 9.68613L368.021 10.5193L368.106 11.3577L368.136 12.2013L368.14 13.1547L368.3 15.1958L368.753 17.192L369.49 19.1008L370.497 20.8823L370.846 21.4046L371.425 22.1948L372.076 22.9284L372.789 23.5985L373.562 24.2015L375.268 25.7082L376.617 27.5413L377.548 29.6183L378.017 31.8466L378.128 32.9495L378.158 33.2726L378.178 33.5955L378.19 33.9202L378.195 34.2432L378.207 40.2098V40.4006V40.653L378.197 46.7451V47.0389L378.195 47.3327V47.6264L378.194 47.9202L378.163 53.0879L378.159 53.6446L378.158 54.2012V54.7579V55.3144L378.17 60.5956V60.8327L378.166 61.0698L378.161 61.3069L378.154 61.5439L378.036 65.071L377.905 66.4695L377.611 67.8422L377.156 69.1719L376.548 70.4363L375.522 71.9842L374.268 73.3517L372.815 74.5062L371.2 75.422L370.382 75.8034L369.497 76.1814L368.592 76.5008L367.666 76.7603L366.726 76.9579L362.58 77.6898L362.235 77.7636L361.897 77.8615L361.565 77.9835L361.242 78.1278L358.217 79.6174L357.457 80.2289L357.031 81.1068L357.023 82.0809L357.43 82.9674L357.816 83.3609L358.287 83.6478L358.815 83.8092L359.364 83.8385L363.876 83.5034L364.297 83.4811L364.719 83.476L365.14 83.4862L365.563 83.5137L367.58 83.6872L369.387 84.0206L371.097 84.6957L372.645 85.687L373.974 86.9566L374.71 87.9307L375.314 88.9924L375.78 90.1229L376.096 91.3032L376.383 92.7428L376.592 94.1121L376.675 95.4933L376.63 96.8763L376.46 98.2508L376.333 98.9981L375.979 100.543L375.455 102.039L374.77 103.468L373.931 104.814L372.863 106.15L371.643 107.349L370.289 108.396L368.82 109.272L368.626 109.371L367.288 109.983L365.895 110.462L364.462 110.806L363.003 111.007L361.383 111.151L360.306 111.223L359.225 111.244L358.146 111.215L357.071 111.137L353.544 110.801L352.97 110.749L352.396 110.708L351.821 110.675L351.245 110.651L348.113 110.546L346.842 110.553L345.574 110.655L344.316 110.852L343.079 111.146L341.922 111.467L340.54 111.942L339.229 112.581L338.006 113.376L336.888 114.314L335.709 115.609L334.733 117.063L333.981 118.645L333.466 120.322L333.232 121.731L333.168 123.155L333.273 124.577L333.548 125.976L333.682 126.493L334.184 128.032L334.876 129.496L335.744 130.862L336.778 132.109L337.9 133.167L339.14 134.085L340.482 134.848L341.906 135.445L344.76 136.449L345.072 136.557L345.383 136.66L345.698 136.758L346.012 136.853L349.417 137.854L350.659 138.263L351.874 138.751L353.056 139.316L354.198 139.955L355.215 140.569L356.415 141.374L357.528 142.293L358.545 143.321L359.455 144.443L360.198 145.458L360.864 146.504L361.393 147.626L361.775 148.808L362.002 150.028L362.072 150.596L362.11 152.205L361.84 153.79L361.268 155.295L360.419 156.661L359.45 157.723L358.313 158.602L357.042 159.274L355.674 159.716L351.92 160.581L351.161 160.762L348.376 161.595L345.701 162.732L343.169 164.16L340.76 165.899L340.405 166.192L340.102 166.45L339.805 166.713L339.511 166.981L337.259 169.084L336.166 169.977L334.967 170.723L333.68 171.305L332.33 171.718L330.648 171.977L328.945 171.972L327.265 171.7L325.649 171.171L322.561 169.886L316.469 167.366L316.286 167.29L316.042 167.191L314.162 166.442L312.087 165.519L310.089 164.44L308.178 163.21L306.369 161.837L305.819 161.387L305.244 160.896L304.687 160.384L304.151 159.851L303.634 159.298L301.631 157.075L300.846 156.307L299.97 155.644L299.014 155.099L297.999 154.68L296.845 154.287L295.481 153.99L294.086 154.008L292.73 154.342L291.485 154.972L290.313 155.979L289.428 157.245L288.887 158.693L288.727 160.272L288.906 161.674L289.375 162.963L290.11 164.121L291.081 165.09L292.637 166.34L293.385 166.888L294.175 167.368L295.006 167.776L295.869 168.112L300.3 169.611L300.526 169.689L300.829 169.795L306.227 171.726L306.649 171.874L307.072 172.018L307.496 172.161L307.922 172.297L311.977 173.583L312.777 173.863L313.561 174.193L314.324 174.57L315.061 174.99L315.89 175.499L317.478 176.672L318.837 178.102L319.928 179.748L320.716 181.555L321.068 182.852L321.264 184.18L321.302 185.522L321.18 186.858L320.953 188.367L320.715 189.636L320.381 190.887L319.96 192.109L319.448 193.296L318.814 194.634L318.189 195.873L317.504 197.077L316.756 198.247L315.954 199.377L315.177 200.413L314.324 201.513L313.432 202.581L312.506 203.621L311.544 204.626L311.097 205.076L309.864 206.273L308.582 207.418L307.254 208.509L305.881 209.543L304.479 210.514L303.038 211.426L301.562 212.28L300.052 213.072L299.02 213.587L297.991 214.087L296.951 214.566L295.901 215.023L294.843 215.46L291.191 216.92L290.892 217.038L290.593 217.157L290.294 217.276L289.993 217.392L284.645 219.481L284.42 219.569L284.195 219.657L283.97 219.743L283.745 219.83L279.189 221.589L278.488 221.859L277.785 222.127L277.082 222.393L276.38 222.656L272.001 224.294L271.676 224.414L271.353 224.536L271.028 224.654L270.704 224.775L266.269 226.407L265.589 226.659L264.909 226.914L264.23 227.173L263.553 227.434L260.734 228.532L259.624 228.975L258.523 229.439L257.429 229.92L256.343 230.42L254.602 231.241L253.46 231.803L252.335 232.403L251.232 233.038L250.149 233.708L248.964 234.469L247.77 235.284L246.622 236.161L245.525 237.101L244.48 238.099L243.975 238.608L242.891 239.788L241.896 241.044L240.998 242.372L240.2 243.762L239.438 245.372L238.811 247.04L238.323 248.754L237.974 250.527L237.787 252.111L237.715 253.683L237.756 255.255L237.91 256.82L238.079 258.057L238.263 259.246L238.495 260.427L238.771 261.596L239.096 262.754L240.144 266.24L240.259 266.629L240.371 267.017L240.479 267.405L240.585 267.795L241.492 271.192L241.784 272.423L242.004 273.669L242.152 274.925L242.228 276.186L242.271 277.591L242.247 279.008L242.085 280.417L241.79 281.802L241.364 283.154L241.025 284.07L240.45 285.363L239.714 286.571L238.829 287.676L237.811 288.658L237.259 289.126L236.082 289.969L234.784 290.608L233.399 291.029L231.878 291.225L230.238 291.163L228.719 290.813L227.291 290.191L226.003 289.316L224.97 288.305L224.123 287.133L223.489 285.832L223.087 284.444L222.866 283.331L222.696 282.175L222.644 281.008L222.708 279.84L222.89 278.685L223.648 275.069L223.725 274.684L223.799 274.298L223.866 273.911L223.928 273.523L224.287 271.204L224.503 269.393L224.591 267.57L224.549 265.745L224.379 263.928L224.134 262.395L223.799 260.882L223.373 259.389L222.859 257.925L222.452 256.872L221.964 255.673L221.433 254.491L220.857 253.331L220.241 252.192L219.66 251.163L218.882 249.835L218.066 248.531L217.208 247.253L216.315 246L215.997 245.568L215.016 244.284L213.992 243.033L212.927 241.821L211.819 240.644L211.664 240.486L210.46 239.297L209.211 238.154L207.919 237.062L206.584 236.019L205.186 235.01L203.75 234.059L202.276 233.162L200.741 232.311L199.231 231.545L197.721 230.849L196.187 230.21L194.629 229.628L194.393 229.545L192.844 229.028L191.277 228.566L189.696 228.161L188.102 227.809L187.587 227.706L186.087 227.432L184.577 227.216L183.061 227.058L181.539 226.958L180.622 226.915L179.191 226.883L177.76 226.919L176.33 227.022L174.908 227.192L173.855 227.343L172.441 227.594L171.047 227.936L169.678 228.367L168.34 228.886L167.488 229.25L166.159 229.886L164.891 230.635L163.694 231.492L162.575 232.451L162.207 232.796L161.1 233.952L160.127 235.223L159.299 236.593L158.625 238.044L158.093 239.642L157.748 241.291L157.596 242.968L157.637 244.652L157.708 245.507L157.852 246.741L158.08 247.961L158.39 249.162L158.781 250.34L160.115 253.941L160.207 254.188L160.3 254.434L160.396 254.682L160.492 254.925L161.695 257.961L162.236 259.394L162.729 260.844L163.174 262.309L163.57 263.787L163.992 265.627L164.338 267.482L164.608 269.35L164.809 271.303L164.914 272.834L164.969 274.293L164.979 275.753L164.946 277.211L164.865 279.321L164.825 280.237L164.775 281.151L164.715 282.066L164.645 282.979L164.355 286.501L164.294 287.25L164.236 287.999L164.18 288.748L164.127 289.499L163.796 294.22L163.774 294.536L163.751 294.85L163.727 295.166L163.703 295.482L163.4 299.324L163.294 300.507L163.162 301.689L163.005 302.868L162.822 304.043L162.6 305.376L162.313 306.909L161.964 308.429L161.554 309.934L161.083 311.422L160.961 311.781L160.387 313.346L159.738 314.884L159.016 316.387L158.222 317.856L157.971 318.294L157.196 319.572L156.357 320.809L155.457 322.001L154.497 323.149L153.782 323.96L152.841 324.961L151.836 325.901L150.773 326.772L149.656 327.575L148.8 328.148L147.52 328.92L146.173 329.569L144.772 330.088L143.328 330.473L143.095 330.523L141.376 330.791L139.637 330.856L137.903 330.719L136.197 330.378L134.659 329.887L133.183 329.232L131.787 328.42L130.488 327.461L129.734 326.841L128.765 325.985L127.856 325.068L127.01 324.092L126.232 323.061L125.353 321.812L124.592 320.679L123.882 319.51L123.224 318.311L122.621 317.086L122.464 316.748L121.723 315.031L121.074 313.279L120.521 311.494L120.065 309.682L119.953 309.183L119.691 307.909L119.47 306.627L119.292 305.338L119.156 304.045L118.816 300.202L118.799 299.999L118.783 299.798L118.768 299.595L118.754 299.394L118.507 295.649L118.478 294.309L118.567 292.971L118.774 291.646L119.097 290.344L119.799 288.444L120.747 286.655L121.925 285.008L123.311 283.532L123.703 283.166L124.501 282.467L125.341 281.817L126.22 281.223L127.134 280.683L129.563 279.347L130.406 278.861L131.227 278.338L132.025 277.78L132.799 277.191L134.43 275.89L135.469 274.969L136.406 273.942L137.229 272.824L137.929 271.623L138.417 270.674L138.972 269.37L139.329 267.998L139.481 266.587L139.425 265.17L139.329 264.325L139.044 262.964L138.511 261.681L137.75 260.516L136.728 259.464L135.36 258.518L133.884 257.932L132.316 257.686L130.731 257.793L129.491 258.133L128.332 258.691L127.292 259.449L126.404 260.38L124.58 262.675L124.322 263.009L124.073 263.352L123.834 263.701L123.605 264.057L122.132 266.415L121.233 267.656L120.172 268.762L118.969 269.712L117.647 270.489L116.18 271.094L114.643 271.482L113.065 271.65L111.48 271.592L109.288 271.355L108.671 271.277L108.057 271.18L107.447 271.063L106.841 270.923L102.649 269.894L102.022 269.736L101.396 269.571L100.773 269.4L100.151 269.219L98.6735 268.785L96.7756 268.176L94.9094 267.477L93.079 266.689L91.2887 265.814L89.9303 265.108L89.3443 264.818L88.7486 264.546L88.1439 264.295L87.5311 264.065L84.8561 263.113L83.662 262.778L82.4331 262.612L81.193 262.615L79.965 262.787L78.18 263.165L77.209 263.479L76.3242 263.988L75.5637 264.668L74.9603 265.491L74.4312 266.802L74.298 268.209L74.5719 269.595L75.2702 270.901L76.1359 271.846L77.1483 272.516L78.2901 272.928L79.4969 273.061L83.6164 273.018L83.7795 273.016L85.9644 273.037L88.1429 273.15L90.3043 273.446L92.433 273.921L94.5823 274.6L95.711 274.98L96.7871 275.287L97.8764 275.543L98.976 275.751L101.69 276.196L102.587 276.387L103.464 276.66L104.31 277.016L105.12 277.447L106.75 278.663L108.095 280.189L109.095 281.958L109.709 283.898L110.052 285.563L110.127 285.954L110.19 286.348L110.242 286.743L110.282 287.14L110.761 292.68L110.782 292.917L110.806 293.154L110.831 293.392L110.858 293.627L111.118 295.812L111.251 297.809L111.176 299.807L110.894 301.786L110.409 303.725L109.969 305L109.44 306.242L108.826 307.445L108.13 308.599L106.236 311.504L106.049 311.79L105.859 312.073L105.668 312.357L105.474 312.637L102.969 316.229L102.454 316.971L101.941 317.715L101.431 318.461L100.923 319.208L98.083 323.398L94.7881 328.257L94.5093 328.671L94.233 329.086L93.9593 329.504L93.688 329.923L91.9762 332.588L91.2696 333.734L90.6051 334.904L89.9837 336.096L89.4059 337.31L88.6086 339.209L87.918 341.148L87.3363 343.122L86.8653 345.126L86.7891 345.495L86.5702 346.643L86.3845 347.795L86.2323 348.952L86.1136 350.113L85.855 353.065L85.7832 353.846L85.7045 354.626L85.6193 355.406L85.5275 356.184L84.9828 360.639L84.9347 361.041L84.8893 361.445L84.8462 361.847L84.7996 362.314L84.5756 365.309L84.4919 368.25L84.543 371.189L84.73 374.146L84.773 374.625L84.8178 375.084L84.8659 375.543L84.9175 376L85.2829 379.14L85.4093 380.513L85.4696 381.893L85.4638 383.272L85.3916 384.65L85.2982 385.87L85.1413 387.27L84.8869 388.655L84.5357 390.019L84.0897 391.354L83.7578 392.242L83.1725 393.604L82.4575 394.903L81.6198 396.124L80.6673 397.26L80.4591 397.485L79.2453 398.648L77.9008 399.657L76.445 400.497L74.899 401.157L73.3404 401.613L71.7396 401.887L70.1179 401.971L68.4972 401.868L67.5473 401.753L66.2968 401.555L65.0632 401.27L63.8527 400.899L62.6713 400.444L59.2021 398.966L58.9492 398.86L58.6955 398.755L58.4412 398.652L58.1864 398.549L56.5914 397.915L54.446 397.114L52.2691 396.405L50.0646 395.784L47.836 395.257L46.7227 395.028L45.605 394.824L44.4831 394.644L43.358 394.486L40.7908 394.152L39.7976 394.015L38.8067 393.864L37.8182 393.699L36.832 393.518L35.1815 393.202L33.63 392.877L32.0912 392.498L30.567 392.061L28.9796 391.544L27.2549 390.91L25.6369 390.237L24.0482 389.496L22.4917 388.691L21.0416 387.863L19.6254 386.98L18.2455 386.04L16.9037 385.045L16.6158 384.823L15.386 383.841L14.19 382.819L13.0291 381.755L11.9047 380.654L11.5232 380.267L10.4309 379.123L9.37688 377.945L8.36225 376.73L7.38814 375.484L6.87375 374.804L6.04075 373.656L5.25239 372.478L4.50982 371.27L3.81418 370.035L3.36472 369.198L2.67769 367.834L2.0655 366.436L1.52995 365.005L1.07263 363.546L0.859758 362.797L0.499143 361.347L0.236055 359.875L0.0716806 358.389L0.00671748 356.896L0 356.227L0.0507908 354.657L0.234538 353.097L0.549975 351.558L0.994722 350.049L1.14992 349.596L1.73291 348.13L2.45664 346.727L3.31418 345.402L4.29723 344.169L4.60934 343.813L5.70831 342.696L6.92495 341.709L8.24412 340.863L9.64935 340.171L9.81839 340.099L11.4304 339.532L13.1016 339.176L14.8046 339.037L16.5114 339.118L18.1352 339.401L19.7118 339.882L21.2166 340.556L22.6269 341.41L23.3071 341.88L24.3552 342.669L25.3378 343.54L26.2483 344.485L27.0815 345.498L28.5698 347.462L29.0847 348.161L29.5805 348.873L30.0569 349.599L30.5134 350.338L32.5001 353.652L32.827 354.193L33.1572 354.733L33.4909 355.27L33.8276 355.805L35.1182 357.842L35.9835 359.182L36.8719 360.507L37.7833 361.818L38.7172 363.11L39.2805 363.876L40.0983 364.965L40.9377 366.037L41.7983 367.092L42.6799 368.13L43.7173 369.327L44.5687 370.279L45.4487 371.205L46.3563 372.105L47.2909 372.976L48.599 374.158L49.56 374.983L50.5618 375.758L51.6017 376.481L52.6773 377.149L53.9833 377.917L55.2066 378.565L56.4808 379.108L57.797 379.537L59.1451 379.852L59.6399 379.946L61.3524 380.161L63.0786 380.166L64.7923 379.96L66.4679 379.546L67.9606 378.982L69.3801 378.256L70.7082 377.371L71.9278 376.343L72.597 375.711L73.4887 374.782L74.2855 373.772L74.9799 372.688L75.5654 371.54L76.0286 370.513L76.5314 369.119L76.815 367.666L76.8728 366.185L76.703 364.714L76.2266 363.063L75.465 361.524L74.4421 360.143L73.1904 358.966L72.4128 358.356L71.6109 357.777L70.7649 357.265L69.8803 356.822L68.9633 356.451L66.6694 355.631L65.5616 355.185L64.4927 354.652L63.4693 354.037L62.4976 353.343L61.6266 352.666L60.4432 351.608L59.4203 350.391L58.5781 349.044L57.9332 347.593L57.4845 345.998L57.2742 344.353L57.307 342.696L57.582 341.061L57.7162 340.513L58.0971 339.24L58.6044 338.013L59.233 336.841L59.9766 335.74L61.8545 333.242L62.1483 332.857L62.4488 332.479L62.7556 332.105L63.0688 331.736L65.1469 329.33L66.0044 328.281L66.8027 327.186L67.5392 326.047L68.2118 324.87L68.341 324.63L69.1655 322.924L69.8462 321.156L70.3784 319.337L70.7586 317.481L70.9476 316.018L71.0419 314.545L71.0412 313.069L70.9453 311.595L70.8302 310.417L70.6729 309.089L70.4602 307.769L70.1925 306.459L69.8707 305.162L69.589 304.12L69.1602 302.636L68.6805 301.167L68.1507 299.715L67.5391 298.207L66.7742 296.493L65.98 294.883L65.1254 293.306L64.2116 291.761L63.9538 291.344L63.2131 290.177L62.4429 289.031L61.6434 287.906L60.8155 286.8L59.1897 284.688L58.7609 284.114L58.3484 283.528L57.9526 282.931L57.5738 282.322L56.1637 279.988L55.5412 278.823L55.0442 277.6L54.6778 276.33L54.446 275.031L54.3817 274.516L54.3025 272.829L54.4828 271.152L54.9183 269.52L55.5988 267.975L56.387 266.718L57.3381 265.577L58.4345 264.576L59.656 263.73L61.2671 262.772L62.0375 262.337L62.8285 261.944L63.6382 261.59L64.4643 261.275L67.8316 260.093L68.5475 259.834L69.2586 259.562L69.9644 259.275L70.6646 258.978L73.1554 257.887L74.3624 257.405L75.5985 257.003L76.8582 256.681L78.136 256.443L80.1643 256.238L82.2029 256.24L84.2306 256.449L86.2879 256.882L87.5416 257.248L88.7103 257.671L89.8514 258.164L90.9607 258.724L93.0539 259.863L93.9232 260.32L94.8041 260.756L95.6957 261.17L96.5977 261.56L99.7363 262.87L100.421 263.131L101.121 263.347L101.833 263.521L102.555 263.648L106.444 264.204L107.102 264.227L107.749 264.108L108.356 263.854L108.894 263.476L109.746 262.236L109.902 260.737L109.325 259.348L108.154 258.401L106.996 257.868L106.822 257.795L106.645 257.728L106.464 257.671L106.281 257.621L104.189 257.119L102.126 256.532L100.118 255.776L98.1796 254.855L96.3243 253.778L95.7089 253.384L94.9583 252.922L94.1938 252.482L93.4163 252.067L92.6261 251.675L91.3612 251.072L89.6787 250.359L87.9403 249.796L86.1591 249.387L84.349 249.134L82.7909 249.047L81.2307 249.074L79.6769 249.22L78.1382 249.481L77.3774 249.639L75.9583 249.976L74.5602 250.393L73.1878 250.886L71.8452 251.457L69.9219 252.34L69.0899 252.696L68.2409 253.01L67.3769 253.28L66.4653 253.513L64.0386 253.902L61.6174 253.951L59.2126 253.666L56.8696 253.053L56.002 252.735L55.1523 252.373L54.3228 251.965L53.516 251.517L51.9956 250.615L50.6308 249.753L49.3176 248.815L48.0602 247.803L46.8626 246.72L46.6018 246.469L45.4674 245.313L44.4091 244.087L43.431 242.795L42.5227 241.419L41.6378 239.865L40.8771 238.278L40.2296 236.642L39.6985 234.964L39.3102 233.366L39.0275 231.746L38.8517 230.111L38.7835 228.468L38.7794 227.984L38.8067 226.46L38.9149 224.94L39.1037 223.428L39.3724 221.928L39.5856 220.895L39.8863 219.56L40.234 218.238L40.6285 216.927L41.0691 215.631L41.7673 213.693L42.1285 212.73L42.5143 211.776L42.9249 210.831L43.3596 209.898L44.2881 207.973L44.8994 206.796L45.5801 205.657L46.3278 204.562L47.1397 203.514L48.1119 202.334L48.986 201.369L49.9462 200.489L50.9841 199.702L52.0906 199.015L53.5054 198.226L54.6106 197.709L55.7783 197.357L56.9845 197.175L58.2043 197.166L59.0817 197.225L60.542 197.486L61.908 198.065L63.1123 198.931L64.0951 200.042L64.7583 201.226L65.1677 202.521L65.306 203.872L65.1677 205.222L64.8746 206.638L64.6327 207.576L64.3015 208.484L63.884 209.357L63.3841 210.187L61.8234 212.512L61.2684 213.398L60.7722 214.321L60.337 215.274L59.9651 216.253L59.6998 217.026L59.2361 218.751L59.0107 220.524L59.0277 222.311L59.2868 224.077L59.6735 225.481L60.2128 226.831L60.8981 228.114L61.721 229.315L62.3534 230.135L63.2344 231.191L64.1946 232.176L65.228 233.083L66.3285 233.907L66.9797 234.356L68.336 235.223L69.7501 235.993L71.2149 236.66L72.7231 237.223L73.7768 237.574L74.9404 237.936L76.1174 238.252L77.3061 238.52L78.5044 238.742L80.3706 239.048L81.6153 239.275L82.8511 239.544L84.0765 239.859L85.2899 240.218L87.2935 240.913L89.2518 241.726L91.1585 242.656L93.0063 243.697L94.9589 244.873L95.1533 244.992L95.4121 245.15L98.7914 247.239L99.9225 247.914L101.075 248.552L102.247 249.151L103.439 249.713L105.221 250.517L106.265 250.957L107.33 251.342L108.414 251.67L109.513 251.941L109.95 252.038L111.891 252.364L113.854 252.495L115.821 252.429L117.771 252.165L119.115 251.866L120.435 251.472L121.724 250.988L122.977 250.414L124.377 249.711L125.476 249.12L126.538 248.466L127.561 247.751L128.54 246.978L129.558 246.124L130.618 245.145L131.578 244.064L132.427 242.896L133.159 241.652L133.519 240.962L134.117 239.622L134.542 238.218L134.789 236.771L134.853 235.303L134.69 233.564L134.272 231.872L133.607 230.262L132.71 228.767L131.767 227.599L130.682 226.561L129.473 225.671L128.16 224.945L126.438 224.129L125.596 223.756L124.738 223.424L123.864 223.134L122.976 222.887L121.292 222.46L119.722 222.026L118.173 221.522L116.648 220.952L115.15 220.315L114.5 220.019L113.201 219.408L111.923 218.753L110.667 218.059L109.433 217.324L106.241 215.355L106.086 215.259L105.879 215.131L100.551 211.878L100.362 211.762L100.173 211.646L99.9845 211.529L99.796 211.412L96.5559 209.388L95.4691 208.682L94.4084 207.936L93.3752 207.155L92.3707 206.335L91.5911 205.676L90.3962 204.604L89.2664 203.465L88.2052 202.26L87.2165 200.996L86.2015 199.517L85.2855 197.975L84.4722 196.378L83.7652 194.73L83.5881 194.277L83.116 192.985L82.7016 191.674L82.3455 190.346L82.0484 189.002L81.5337 186.403L81.3961 185.687L81.2672 184.969L81.147 184.249L81.0353 183.527L80.5623 180.349L80.3906 179.267L80.1976 178.188L79.9837 177.112L79.749 176.042L79.473 174.839L79.0557 173.18L78.57 171.537L78.0168 169.917L77.3971 168.323L76.7132 166.756L75.965 165.22L75.1541 163.715L74.2819 162.245L73.7414 161.377L73.0925 160.358L72.4207 159.355L71.7268 158.369L71.0108 157.396L68.988 154.715L68.66 154.276L68.3347 153.837L68.0122 153.395L67.6923 152.952L65.8668 150.402L65.118 149.32L64.4049 148.215L63.7282 147.087L63.0886 145.936L62.6264 145.073L61.9013 143.628L61.252 142.149L60.6808 140.637L60.1888 139.098L60.0754 138.708L59.6734 137.162L59.3615 135.597L59.1409 134.014L59.0123 132.422L58.9795 131.788L58.9513 130.288L59.0219 128.792L59.1906 127.302L59.4571 125.826L59.5899 125.208L59.9893 123.665L60.5162 122.162L61.167 120.708L61.937 119.313L62.1706 118.929L63.0552 117.618L64.0598 116.398L65.1754 115.276L66.3921 114.266L66.891 113.891L68.1306 113.058L69.4524 112.364L70.8416 111.816L72.2814 111.421L72.701 111.33L74.33 111.088L75.9763 111.067L77.6108 111.266L79.2041 111.682L80.7457 112.316L82.1871 113.154L83.502 114.178L84.666 115.372L84.861 115.601L85.7674 116.797L86.5343 118.085L87.1519 119.451L87.6125 120.879L87.8973 121.968L88.1812 123.234L88.3746 124.517L88.4765 125.809L88.4865 127.108L88.4136 129.726L88.3825 130.529L88.3339 131.329L88.2678 132.128L88.1841 132.927L87.8628 135.698L87.7319 136.926L87.624 138.156L87.5388 139.39L87.4766 140.623L87.4421 141.46L87.3984 143.233L87.4134 145.008L87.4867 146.781L87.6185 148.55L87.7934 150.191L88.0185 151.827L88.2935 153.454L88.6182 155.07L88.739 155.628L89.0725 157.082L89.4401 158.528L89.842 159.967L90.2776 161.394L90.5228 162.164L91.0023 163.621L91.5103 165.067L92.0468 166.505L92.6114 167.931L93.1216 169.184L93.5958 170.309L94.0974 171.42L94.6259 172.522L95.181 173.609L95.9063 174.989L96.5977 176.236L97.3433 177.452L98.1414 178.634L98.9908 179.78L99.3449 180.235L100.424 181.543L101.58 182.78L102.81 183.945L104.108 185.034L105.476 186.044L106.903 186.968L108.384 187.803L109.913 188.547L110.145 188.652L111.595 189.257L113.076 189.786L114.582 190.236L116.109 190.605L116.625 190.715L118.171 191.011L119.728 191.236L121.294 191.39L122.866 191.473L123.853 191.504L125.199 191.509L126.544 191.445L127.884 191.313L129.215 191.11L130.509 190.88L131.871 190.581L133.206 190.176L134.504 189.667L135.759 189.059L136.747 188.53L137.939 187.805L139.043 186.956L140.048 185.989L140.942 184.919L141.301 184.436L142.144 183.113L142.785 181.682L143.21 180.172L143.41 178.615L143.378 177.031L143.114 175.468L142.621 173.961L141.912 172.544L141.503 171.857L140.816 170.821L140.036 169.852L139.169 168.96L138.222 168.153L135.428 165.986L135.118 165.749L134.805 165.516L134.49 165.287L134.172 165.06L131.817 163.413L130.517 162.476L129.242 161.506L127.993 160.501L126.772 159.461L126.377 159.118L125.218 158.073L124.092 156.996L123 155.884L121.941 154.74L121.18 153.892L120.333 152.911L119.522 151.9L118.748 150.863L118.013 149.796L117.696 149.318L116.732 147.765L115.861 146.159L115.087 144.501L114.413 142.802L113.921 141.331L113.503 139.837L113.162 138.323L112.897 136.794L112.538 134.356L112.44 133.722L112.332 133.09L112.216 132.458L112.09 131.829L111.878 130.809L111.357 128.634L110.702 126.498L109.916 124.406L109.001 122.366L108.478 121.336L107.923 120.322L107.336 119.325L106.717 118.35L105.304 116.2L104.766 115.371L104.239 114.532L103.722 113.687L103.217 112.835L102.014 110.78L101.395 109.693L100.801 108.593L100.232 107.478L99.6887 106.353L99.1197 105.138L98.5094 103.766L97.9538 102.37L97.4539 100.953L97.0101 99.5187L96.9605 99.3452L96.5023 97.5876L96.1328 95.8095L95.8529 94.0159L95.6634 92.2085L95.5718 90.6211L95.5502 89.0303L95.5985 87.4411L95.7163 85.8554L95.8172 84.8092L95.9601 83.5103L96.1382 82.2166L96.3515 80.9282L96.5995 79.6465L96.9258 78.0745L97.2058 76.7827L97.5082 75.4958L97.8329 74.2142L98.1799 72.9377L98.6551 71.2489L99.0051 70.0687L99.3877 68.8987L99.8026 67.739L100.25 66.5915L100.622 65.6723L101.294 64.1261L102.042 62.6142L102.862 61.1402L103.754 59.7092L104.734 58.2969L105.784 56.9363L106.9 55.6289L108.081 54.3799L108.285 54.1754L109.402 53.0965L110.563 52.0657L111.767 51.0848L113.048 50.1261L114.584 49.0799L116.129 48.1349L117.717 47.2639L119.346 46.4719L120.818 45.8363L122.316 45.2642L123.837 44.7556L125.378 44.3141L126.204 44.0959L127.554 43.7695L128.917 43.4981L130.289 43.2816L131.67 43.1219L133.578 42.9415L134.644 42.8728L135.712 42.8676L136.779 42.926L137.84 43.0463L139.418 43.2765L140.862 43.5788L142.256 44.0599L143.578 44.7127L144.822 45.5357L146.177 46.7331L147.319 48.1092L148.237 49.6468L148.907 51.3064L149.272 52.789L149.44 54.306L149.407 55.8333L149.174 57.3417L149.039 57.9465L148.625 59.4188L148.052 60.8379L147.327 62.1848L146.459 63.4441L146.137 63.8598L145.1 65.071L143.95 66.1757L142.697 67.1618L141.353 68.0208L140.437 68.5448L139.305 69.1495L138.139 69.6838L136.944 70.1495L135.722 70.5428L132.111 71.5891L131.858 71.6612L131.605 71.7334L131.351 71.8021L131.098 71.8709L127.311 72.8879L126.15 73.223L125.003 73.6043L123.871 74.0286L122.757 74.4976L121.483 75.0629L120.123 75.726L118.813 76.4837L117.56 77.3323L116.371 78.2687L116.084 78.5109L114.84 79.6603L113.703 80.9161L112.681 82.2665L111.782 83.701L111.017 85.2008L110.386 86.7625L109.895 88.3739L109.547 90.0215L109.495 90.3376L109.299 91.8633L109.216 93.3974L109.245 94.9333L109.386 96.464L109.528 97.5653L109.726 98.8607L109.984 100.144L110.3 101.417L110.674 102.673L111.539 105.35L111.761 106.021L111.99 106.69L112.227 107.354L112.473 108.018L114.064 112.24L114.23 112.682L114.394 113.123L114.558 113.565L114.72 114.008L115.952 117.391L116.34 118.487L116.71 119.588L117.06 120.698L117.39 121.811L117.979 124L118.494 126.208L118.933 128.431L119.296 130.668L119.511 132.147L119.573 132.554L119.64 132.958L119.712 133.363L119.789 133.765L120.461 137.145L120.771 138.388L121.196 139.598L121.734 140.761L122.38 141.869L122.754 142.445L123.768 143.779L124.97 144.949L126.331 145.929L127.822 146.697L129.267 147.195L130.765 147.495L132.29 147.59L133.814 147.478L134.356 147.401L135.798 147.114L137.199 146.669L138.542 146.071L139.811 145.329L140.571 144.826L141.709 144.005L142.777 143.092L143.768 142.096L144.675 141.024L145.463 140.01L146.257 138.933L146.991 137.815L147.666 136.658L148.277 135.468L148.786 134.409L149.403 133.056L149.963 131.676L150.467 130.276L150.912 128.857L151.12 128.142L151.529 126.639L151.887 125.122L152.192 123.593L152.444 122.055L152.644 120.683L152.804 119.521L152.942 118.356L153.059 117.188L153.155 116.02L153.395 112.745L153.443 112.129L153.496 111.512L153.555 110.897L153.619 110.282L153.96 107.14L154.117 105.92L154.322 104.705L154.576 103.501L154.877 102.309L155.283 100.823L155.7 99.4825L156.211 98.1752L156.811 96.9056L157.499 95.6823L157.92 94.99L158.789 93.7084L159.779 92.5144L160.88 91.4234L162.081 90.4459L162.299 90.2844L163.652 89.3979L165.094 88.6643L166.608 88.0939L168.182 87.6902L169.833 87.4583L171.493 87.4153L173.147 87.5596L174.774 87.8895L176.318 88.3877L177.798 89.0526L179.196 89.8772L180.493 90.8513L180.801 91.109L181.892 92.1157L182.888 93.2136L183.783 94.399L184.566 95.6583L185.58 97.4674L185.992 98.2301L186.381 99.0067L186.745 99.7935L187.085 100.592L188.195 103.319L188.623 104.322L189.088 105.308L189.588 106.277L190.122 107.227L190.834 108.44L191.691 109.785L192.648 111.062L193.699 112.263L194.837 113.381L196.185 114.51L197.625 115.523L199.142 116.413L200.798 117.204L202.296 117.788L203.762 118.243L205.255 118.594L206.77 118.841L207.653 118.953L209.063 119.097L210.481 119.169L211.898 119.171L213.314 119.102L214.814 118.99L216.057 118.882L217.3 118.736L218.535 118.554L219.765 118.338L222.861 117.745L223.457 117.63L224.051 117.509L224.644 117.386L225.237 117.26L228.978 116.448L229.872 116.262L230.77 116.092L231.671 115.941L232.574 115.804L234.991 115.462L236.27 115.314L237.555 115.231L238.842 115.213L240.128 115.259L241.023 115.312L242.659 115.481L244.276 115.779L245.863 116.211L247.409 116.769L248.952 117.475L250.429 118.31L251.831 119.265L253.147 120.336L254.163 121.234L254.912 121.921L255.635 122.634L256.331 123.375L257.001 124.138L258.767 126.228L259.452 127.02L260.157 127.795L260.878 128.553L261.619 129.295L262.51 130.166L263.787 131.348L265.125 132.461L266.52 133.502L267.97 134.466L269.398 135.31L270.865 136.081L272.372 136.777L273.909 137.394L275.179 137.864L276.199 138.23L277.229 138.572L278.266 138.89L279.311 139.182L282.417 140.012L283.133 140.206L283.846 140.405L284.559 140.61L285.269 140.819L287.842 141.591L289.126 141.993L290.399 142.431L291.658 142.903L292.905 143.408L294.132 143.926L295.422 144.501L296.687 145.13L297.925 145.81L299.135 146.542L300.777 147.652L302.353 148.858L303.856 150.152L305.28 151.533L307.19 153.495L307.331 153.641L310.539 157.029L311.264 157.697L312.075 158.26L312.954 158.705L313.937 159.04L315.762 159.295L317.538 159.077L319.201 158.415L320.642 157.353L321.409 156.488L322.022 155.508L322.467 154.44L322.728 153.314L323.106 150.736L323.262 149.866L323.468 149.007L323.728 148.162L324.037 147.334L325.171 144.563L325.551 143.587L325.893 142.598L326.198 141.598L326.468 140.586L326.623 139.959L327.021 138.002L327.262 136.019L327.339 134.023L327.253 132.028L327.1 130.651L326.87 129.285L326.563 127.933L326.179 126.601L325.36 124.031L325.149 123.38L324.927 122.731L324.695 122.086L324.456 121.444L323.321 118.473L322.936 117.386L322.604 116.283L322.324 115.163L322.101 114.032L321.957 113.211L321.733 111.436L321.671 109.651L321.776 107.866L322.043 106.099L322.405 104.592L322.888 103.118L323.486 101.687L324.195 100.307L324.91 99.0445L325.482 98.079L326.092 97.1392L326.738 96.2218L327.418 95.3319L328.834 93.5555L329.574 92.6467L330.334 91.7515L331.11 90.8737L331.906 90.0112L332.653 89.2175L333.845 87.9909L335.075 86.8054L336.345 85.6612L337.651 84.5583L338.991 83.5L340.365 82.4864L341.772 81.5174L343.21 80.5948L343.911 80.1602L345.033 79.4868L346.168 78.8407L347.321 78.2223L348.488 77.633L349.283 77.2448L350.8 76.5404L352.346 75.8944L353.917 75.3137L355.507 74.7949L358.186 73.9806L358.505 73.8758L358.82 73.759L359.129 73.6284L359.433 73.4858L362.393 72.0169L363.226 71.431L363.847 70.6236L364.197 69.6667L364.245 68.6479L363.929 67.5364L363.254 66.5966L362.302 65.9403L361.184 65.6448L359.54 65.504L358.791 65.4919L358.047 65.5864L357.323 65.7823L356.635 66.076L352.008 68.4486L351.821 68.5431L348.374 70.2491L347.05 70.8727L345.701 71.4448L344.332 71.9653L342.944 72.4309L341.076 72.9669L339.183 73.4051L337.269 73.7469L335.342 73.9874L334.565 74.0648L333.493 74.1592L332.419 74.228L331.344 74.2709L330.268 74.2881L327.399 74.3001L326.477 74.2967L325.554 74.2778L324.633 74.2417L323.712 74.1885L321.52 74.0458L320.12 73.9221L318.727 73.7314L317.346 73.4772L315.976 73.1577L314.068 72.5959L312.202 71.9069L310.384 71.096L308.597 70.1511L307.4 69.4313L306.263 68.6737L305.161 67.8679L304.096 67.0107L303.108 66.1808L302.043 65.2549L301.007 64.2962L300.002 63.3032L299.03 62.281L298.563 61.7759L297.451 60.5321L296.377 59.2556L295.341 57.9482L294.347 56.6099L293.699 55.7114L293.003 54.7286L292.323 53.734L291.658 52.7289L291.01 51.7135L289.468 49.2482L289.052 48.5937L288.629 47.946L288.198 47.3017L287.76 46.6644L286.348 44.6388L285.513 43.4929L284.631 42.3848L283.702 41.3128L282.73 40.282L282.166 39.7099L281.022 38.6155L279.814 37.5881L278.55 36.6347L277.23 35.7585L276.713 35.4372L275.413 34.6864L274.066 34.025L272.676 33.4564L271.253 32.9822L270.527 32.7657L269.078 32.4032L267.604 32.161L266.116 32.0424L264.622 32.0493L264.118 32.0734L262.543 32.228L260.992 32.5441L259.48 33.0166L258.025 33.6419L256.542 34.4769L255.159 35.4698L253.895 36.6089L252.764 37.8802L252.613 38.0675L251.739 39.2752L250.976 40.5569L250.333 41.9021L249.814 43.3005L249.261 45.0219L248.974 45.9771L248.725 46.9427L248.51 47.9168L248.333 48.8978L247.84 51.9661L247.684 52.8286L247.495 53.6841L247.272 54.531L247.014 55.3695L245.695 59.3879L245.557 59.74L245.382 60.0734L245.171 60.386L244.927 60.6747L243.415 61.5972L241.645 61.6402L240.092 60.7881Z" fill="#190B2F"/>
</svg>
