<svg width="706" height="671" viewBox="0 0 706 671" fill="none" xmlns="http://www.w3.org/2000/svg">
<path d="M421.881 435.411L422.784 435.012L423.782 434.535L424.417 433.629L424.522 432.527L424.069 431.516L422.932 430.107L422.683 429.751L422.483 429.366L422.336 428.956L422.245 428.532L421.948 426.493L421.576 424.852L420.954 423.288L420.097 421.842L419.024 420.544L417.995 419.481L417.515 418.962L417.06 418.421L416.63 417.86L416.227 417.28L414.968 415.381L414.183 414.26L413.339 413.183L412.44 412.15L411.487 411.167L410.132 409.93L408.693 408.792L407.177 407.758L405.592 406.833L403.366 405.639L403.223 405.563L403.032 405.466L400.331 404.129L399.047 403.302L397.98 402.21L397.184 400.906L396.7 399.458L396.551 398.185L396.645 396.908L396.977 395.672L397.534 394.52L397.986 393.776L398.743 392.77L399.686 391.936L400.779 391.31L401.974 390.913L403.559 390.768L405.131 391.027L406.585 391.674L407.829 392.67L408.856 393.73L409.201 394.068L409.563 394.386L409.943 394.685L410.337 394.962L411.115 395.476L412.988 396.554L414.982 397.394L417.064 397.979L419.202 398.304L419.762 398.354L420.423 398.423L421.081 398.518L421.734 398.636L422.384 398.775L424.19 399.201L425.68 399.66L427.095 400.31L428.413 401.144L429.607 402.146L430.613 403.24L431.472 404.452L432.17 405.763L432.698 407.153L433.103 408.47L433.354 409.372L433.555 410.286L433.705 411.212L433.805 412.144L434.085 415.679L434.128 416.189L434.176 416.699L434.23 417.209L434.29 417.718L434.666 420.827L434.783 421.965L434.857 423.108L434.89 424.253L434.881 425.399L434.876 425.568L434.759 427.525L434.514 429.471L434.142 431.396L433.643 433.292L433.266 434.464L432.843 435.62L432.371 436.757L431.853 437.873L431.728 438.126L430.874 439.759L429.928 441.34L428.898 442.867L427.784 444.335L427.573 444.597L426.817 445.507L426.033 446.392L425.219 447.249L424.378 448.081L421.779 450.567L421.602 450.738L421.424 450.909L421.248 451.082L421.071 451.254L418.424 453.863L417.642 454.667L416.896 455.504L416.189 456.374L415.519 457.273L414.681 458.456L413.944 459.585L413.304 460.771L412.759 462.004L412.317 463.278L412.187 463.706L411.815 465.223L411.606 466.772L411.566 468.335L411.691 469.891L411.976 471.401L412.417 472.872L413.011 474.289L413.779 475.682L414.681 476.981L415.683 478.131L416.803 479.166L418.029 480.074L419.381 480.863L420.81 481.497L422.302 481.969L423.914 482.284L425.449 482.427L426.912 482.416L428.367 482.26L429.799 481.961L430.244 481.844L431.627 481.42L432.969 480.881L434.261 480.231L435.494 479.474L435.93 479.179L437.109 478.32L438.223 477.38L439.265 476.36L440.232 475.268L440.443 475.013L441.389 473.778L442.247 472.481L443.014 471.127L443.709 469.669L444.31 468.161L444.788 466.674L445.165 465.158L445.44 463.62L445.495 463.242L445.662 461.815L445.75 460.382L445.758 458.945L445.689 457.51L445.608 456.443L445.492 455.211L445.335 453.983L445.136 452.763L444.893 451.548L444.293 448.784L444.169 448.224L444.041 447.665L443.909 447.106L443.772 446.549L443.02 443.524L442.765 442.457L442.533 441.386L442.32 440.31L442.128 439.231L441.884 437.768L441.682 436.4L441.532 435.026L441.433 433.646L441.387 432.264L441.377 431.543L441.393 430.078L441.481 428.614L441.643 427.157L441.877 425.71L441.967 425.232L442.284 423.777L442.686 422.345L443.173 420.937L443.74 419.562L444.488 418.034L445.336 416.558L446.282 415.145L447.32 413.798L447.429 413.668L448.344 412.617L449.313 411.618L450.332 410.67L451.401 409.776L453.483 408.126L453.875 407.809L454.258 407.483L454.633 407.148L455.003 406.804L457.006 404.891L457.865 403.968L458.605 402.95L459.219 401.85L459.698 400.686L459.899 400.096L460.252 398.702L460.371 397.268L460.251 395.835L459.896 394.44L459.277 393.05L458.426 391.787L457.369 390.695L456.138 389.801L455.995 389.717L454.813 389.12L453.557 388.699L452.255 388.464L450.931 388.419L447.401 388.556L447.255 388.561L447.06 388.567L444.532 388.619L442.678 388.592L440.83 388.442L438.996 388.165L437.186 387.764L435.898 387.399L434.629 386.971L433.384 386.482L432.162 385.932L429.107 384.464L428.937 384.382L428.766 384.301L428.594 384.222L428.423 384.141L425.708 382.891L424.308 382.3L422.871 381.801L421.406 381.394L419.917 381.084L418.287 380.856L416.644 380.743L414.997 380.746L413.354 380.864L411.981 381.011L411.11 381.116L410.243 381.243L409.379 381.394L408.52 381.566L405.91 382.127L404.923 382.356L403.943 382.619L402.974 382.916L402.015 383.244L400.573 383.765L399.262 384.293L397.99 384.916L396.768 385.628L395.601 386.428L394.876 386.965L393.861 387.788L392.925 388.701L392.073 389.693L391.314 390.757L390.966 391.295L390.234 392.595L389.67 393.976L389.28 395.416L389.068 396.944L389.047 398.546L389.236 400.085L389.628 401.586L390.215 403.021L390.983 404.357L391.92 405.58L393.01 406.669L394.234 407.604L395.576 408.495L396.281 408.94L397.005 409.35L397.748 409.725L398.508 410.065L399.392 410.436L401.088 411.238L402.707 412.188L404.236 413.279L405.66 414.501L406.591 415.43L407.461 416.416L408.269 417.454L409.01 418.541L409.804 419.786L410.402 420.78L410.949 421.803L411.445 422.852L411.885 423.925L412.173 424.679L412.685 426.218L413.058 427.795L413.291 429.398L413.382 431.016L413.336 432.571L413.158 434.115L412.85 435.639L412.415 437.131L412.318 437.416L411.795 438.794L411.172 440.13L410.454 441.417L409.643 442.648L408.076 444.848L407.85 445.171L407.625 445.496L407.404 445.823L407.187 446.153L406.506 447.197L405.323 449.06L404.184 450.95L403.089 452.866L402.039 454.807L401.68 455.492L401.382 456.051L401.078 456.607L400.768 457.16L400.452 457.71L398.845 460.472L398.366 461.339L397.924 462.226L397.523 463.133L397.163 464.057L396.671 465.405L396.235 466.813L395.938 468.256L395.783 469.721L395.771 471.194L395.933 472.866L396.28 474.51L396.808 476.105L397.511 477.632L397.783 478.146L398.388 479.2L399.065 480.21L399.809 481.17L400.615 482.076L402.046 483.574L402.726 484.267L403.427 484.938L404.148 485.589L404.887 486.217L405.112 486.402L406.698 487.786L408.202 489.256L409.622 490.807L410.952 492.436L411.563 493.229L411.942 493.714L412.329 494.196L412.722 494.672L413.122 495.143L415.142 497.494L415.817 498.311L416.46 499.155L417.069 500.023L417.642 500.915L419.144 503.354L419.501 503.989L419.806 504.65L420.057 505.333L420.252 506.034L421.046 508.162L422.342 510.027L424.06 511.513L426.092 512.526L426.946 512.826L427.094 512.876L427.292 512.94L433.313 514.794L434.953 515.314L437.145 515.776L439.385 515.794L441.585 515.369L443.657 514.518L444.169 514.227L444.667 513.91L445.146 513.567L445.608 513.2L447.549 511.57L448.579 510.669L449.574 509.73L450.532 508.754L451.451 507.741L452.502 506.537L453.177 505.736L453.826 504.914L454.448 504.07L455.041 503.207L456.174 501.363L457.179 499.447L458.051 497.467L458.787 495.433L459.414 493.493L460.366 490.554L460.943 488.991L461.644 487.48L462.466 486.031L463.402 484.653L464.325 483.495L465.33 482.406L466.41 481.393L467.56 480.461L470.064 478.573L470.246 478.438L470.489 478.259L472.864 476.531L474.141 475.518L475.327 474.4L476.415 473.186L477.396 471.885L478.198 470.623L478.899 469.302L479.496 467.931L479.985 466.519L480.312 465.445L480.619 464.348L480.879 463.24L481.09 462.121L481.254 460.994L481.456 459.357L481.562 458.114L481.575 456.866L481.496 455.621L481.324 454.387L480.891 452.555L480.255 450.784L479.424 449.097L478.398 447.498L477.654 446.541L476.854 445.651L475.993 444.822L475.075 444.054L472.208 441.823L472.049 441.702L471.89 441.579L471.73 441.458L471.568 441.337L467.641 438.4L467.181 438.052L466.729 437.699L466.279 437.339L465.835 436.973L463.216 434.786L462.511 434.16L461.848 433.491L461.225 432.782L460.647 432.036L459.58 430.566L458.909 429.491L458.399 428.334L458.053 427.116L457.88 425.81L457.917 424.19L458.238 422.656L458.829 421.203L459.671 419.879L460.557 418.892L461.583 418.054L462.725 417.379L463.956 416.885L466.408 416.113L466.899 415.966L467.394 415.836L467.892 415.719L468.393 415.618L471.396 415.058L472.494 414.786L473.552 414.384L474.553 413.858L475.485 413.216L475.691 413.058L476.881 411.937L477.842 410.616L478.546 409.14L478.962 407.56L479.08 406.292L479.014 405.019L478.764 403.77L478.338 402.57L477.17 399.915L476.983 399.501L476.785 399.091L476.576 398.687L476.357 398.287L474.873 395.647L474.268 394.545L473.684 393.431L473.124 392.306L472.584 391.17L471.786 389.371L471.045 387.549L470.359 385.705L469.731 383.839L469.201 382.179L469.084 381.824L468.961 381.471L468.829 381.121L468.691 380.772L467.735 378.408L467.096 377.098L466.284 375.885L465.316 374.794L464.206 373.846L462.921 373.025L461.533 372.395L460.068 371.971L458.56 371.758L457.497 371.686L456.456 371.652L455.413 371.695L454.377 371.813L453.352 372.006L449.369 372.909L449.17 372.955L448.904 373.017L444.243 374.137L443.533 374.285L442.813 374.389L442.089 374.446L441.364 374.458L438.378 374.414L437.542 374.32L436.74 374.065L436.002 373.661L435.356 373.121L434.869 372.626L434.199 371.661L433.889 370.529L433.976 369.357L434.448 368.281L435.085 367.56L435.896 367.042L436.818 366.766L437.78 366.753L441.181 367.187L441.585 367.229L441.991 367.254L442.398 367.259L442.869 367.244L445.235 366.812L447.351 365.809L449.138 364.297L450.48 362.373L451.862 359.723L452.578 358.739L453.549 358.006L454.691 357.588L455.906 357.524L456.67 357.669L457.393 357.955L458.049 358.37L458.616 358.904L460.811 361.395L461.309 361.926L461.835 362.429L462.392 362.9L462.975 363.337L465.615 365.203L466.305 365.713L466.975 366.253L467.622 366.819L468.245 367.412L469.743 369.068L471.054 370.878L472.162 372.816L473.055 374.864L473.499 376.052L473.592 376.308L473.684 376.565L473.772 376.822L473.858 377.08L475.198 381.178L475.451 381.92L475.723 382.654L476.014 383.383L476.323 384.103L477.273 386.242L477.832 387.377L478.479 388.463L479.21 389.494L480.019 390.466L481.288 391.719L482.687 392.825L484.201 393.767L485.81 394.534L486.91 394.985L487.637 395.269L488.375 395.525L489.121 395.752L489.877 395.954L492.067 396.494L493.339 396.833L494.6 397.217L495.846 397.646L497.075 398.12L498.886 398.856L499.711 399.217L500.518 399.619L501.302 400.062L502.063 400.545L505.045 402.547L505.45 402.859L505.811 403.22L506.123 403.625L506.379 404.065L507.421 406.15L507.631 406.992L507.466 407.844L506.957 408.546L506.198 408.967L505.783 409.044L505.358 409.033L504.948 408.933L504.567 408.748L501.831 407.044L500.831 406.507L499.77 406.103L498.665 405.838L497.536 405.717L495.975 405.79L494.45 406.137L493.011 406.746L491.703 407.6L490.034 408.912L489.63 409.242L489.239 409.585L488.859 409.943L488.494 410.313L484.971 414.011L484.814 414.174L484.603 414.392L482.605 416.418L481.383 417.557L480.069 418.586L478.672 419.501L477.202 420.293L476.392 420.687L475.546 421.06L474.677 421.374L473.788 421.626L472.884 421.816L469.791 422.351L469.132 422.523L468.509 422.801L467.942 423.177L467.445 423.644L466.718 424.777L466.397 426.083L466.514 427.423L467.06 428.655L467.829 429.826L468.352 430.507L468.966 431.105L469.661 431.609L470.421 432.007L470.732 432.142L472.362 432.626L474.062 432.706L475.73 432.377L477.273 431.658L477.719 431.38L478.389 430.913L479.008 430.382L479.57 429.79L480.071 429.144L481.673 426.842L482.236 426.072L482.833 425.326L483.46 424.607L484.119 423.916L487.075 420.953L487.202 420.826L487.331 420.7L487.459 420.573L487.59 420.449L490.423 417.727L491.225 417.024L492.087 416.395L493.003 415.846L493.963 415.381L495.702 414.788L497.51 414.471L499.347 414.436L501.167 414.685L502.049 414.877L502.889 415.084L503.716 415.341L504.528 415.647L505.319 416.001L506.267 416.458L507.782 417.297L509.19 418.305L510.473 419.466L511.614 420.769L512.43 421.922L513.135 423.149L513.722 424.434L514.187 425.773L514.581 427.447L514.781 429.151L514.788 430.867L514.6 432.573L514.562 432.796L514.286 434.103L513.902 435.384L513.414 436.628L512.825 437.828L511.421 440.406L511.22 440.765L511.013 441.121L510.798 441.471L510.577 441.816L509.042 444.165L508.377 445.349L507.874 446.609L507.542 447.926L507.388 449.275L507.374 449.575L507.435 451.18L507.77 452.751L508.366 454.243L509.211 455.611L510.197 456.741L511.352 457.7L512.645 458.461L514.042 459.008L514.506 459.147L515.865 459.464L517.253 459.602L518.648 459.56L520.026 459.342L520.71 459.187L522.068 458.806L523.377 458.284L524.627 457.629L525.799 456.848L527.434 455.633L528.038 455.167L528.625 454.681L529.196 454.175L529.749 453.65L530.99 452.43L532.049 451.272L532.973 450.005L533.757 448.644L534.387 447.207L535.095 445.316L535.276 444.744L535.39 444.155L535.44 443.556L535.422 442.956L535.388 442.547L535.595 440.649L536.496 438.965L537.962 437.743L539.777 437.157L540.165 437.126L540.553 437.124L540.941 437.153L541.325 437.212L543.563 437.642L545.063 437.871L546.577 437.983L548.095 437.977L549.609 437.854L551.113 437.673L552.044 437.577L552.977 437.508L553.914 437.47L554.849 437.464L556.387 437.475L557.899 437.51L559.411 437.585L560.92 437.705L562.424 437.867L563.846 438.041L564.832 438.175L565.816 438.334L566.796 438.519L567.77 438.73L568.6 438.922L570.332 439.374L572.037 439.925L573.706 440.576L575.334 441.323L576.559 441.962L577.752 442.655L578.916 443.401L580.042 444.199L581.864 445.548L582.439 445.967L583.021 446.376L583.61 446.775L584.205 447.162L586.443 448.597L587.451 449.202L588.495 449.744L589.57 450.225L590.74 450.664L592.642 451.214L594.518 451.552L596.417 451.701L598.322 451.658L599.521 451.532L600.711 451.33L601.884 451.052L603.036 450.701L606.753 449.437L606.918 449.381L612.058 447.665L612.509 447.506L612.956 447.332L613.396 447.143L613.83 446.943L616.965 445.425L617.714 444.978L618.378 444.411L618.934 443.741L619.367 442.984L619.681 442.314L620.043 441.014L619.968 439.666L619.464 438.413L618.584 437.389L617.797 436.87L616.914 436.544L615.979 436.424L615.041 436.518L612.925 436.98L611.982 437.244L611.073 437.615L610.212 438.086L609.412 438.652L606.708 440.81L606.352 441.087L605.989 441.358L605.619 441.617L605.243 441.869L603.442 443.043L602.077 443.804L600.621 444.367L599.1 444.725L597.545 444.869L596.087 444.808L594.648 444.562L593.254 444.129L591.927 443.521L589.928 442.443L589.479 442.193L589.037 441.932L588.601 441.66L588.173 441.375L586.911 440.517L585.291 439.457L583.63 438.463L581.932 437.536L580.199 436.676L579.27 436.238L578.571 435.913L577.868 435.597L577.16 435.29L576.45 434.991L573.62 433.823L572.759 433.477L571.89 433.153L571.015 432.847L570.133 432.562L569.307 432.305L567.522 431.803L565.712 431.399L563.883 431.096L562.04 430.895L560.704 430.813L559.365 430.786L558.025 430.811L556.689 430.889L553.232 431.16L553.006 431.177L552.705 431.196L549.286 431.387L547.907 431.388L546.538 431.234L545.195 430.928L543.895 430.472L542.417 429.743L541.052 428.822L539.821 427.727L538.746 426.479L538.093 425.604L537.569 424.864L537.088 424.096L536.65 423.301L536.257 422.484L535.125 419.949L534.737 419.106L534.33 418.272L533.904 417.448L533.461 416.632L532.091 414.188L531.653 413.413L531.208 412.642L530.756 411.874L530.298 411.11L528.04 407.387L527.956 407.248L527.872 407.11L527.788 406.971L527.704 406.833L525.152 402.648L524.829 402.121L524.504 401.596L524.179 401.072L523.85 400.55L522.473 398.33L521.134 396.087L519.835 393.822L518.571 391.535L518.094 390.656L518.015 390.507L517.909 390.307L515.669 386.028L515.305 385.406L514.883 384.82L514.411 384.278L513.888 383.78L511.971 382.126L511.155 381.597L510.227 381.311L509.256 381.287L508.314 381.529L507.293 382.169L506.545 383.114L506.157 384.254L506.175 385.459L506.341 386.345L506.524 387.028L506.806 387.674L507.185 388.27L507.648 388.802L510.705 391.81L510.947 392.055L511.185 392.302L511.417 392.553L511.646 392.809L512.98 394.335L514.172 395.755L515.311 397.218L516.392 398.723L517.414 400.27L518.13 401.434L518.813 402.618L519.462 403.821L520.078 405.041L520.895 406.722L521.304 407.549L521.722 408.372L522.148 409.19L522.584 410.002L524.325 413.205L524.556 413.626L524.793 414.045L525.031 414.462L525.275 414.877L526.709 417.293L527.362 418.463L527.95 419.666L528.473 420.898L528.93 422.157L529.446 423.922L529.833 425.721L530.085 427.542L530.204 429.378L530.267 431.712L530.272 431.892L530.276 432.071L530.279 432.25L530.28 432.429L530.328 437.205L530.316 437.861L530.267 438.515L530.184 439.166L530.063 439.81L529.492 442.459L529.154 443.504L528.614 444.459L527.893 445.286L527.022 445.954L526.499 446.276L525.354 446.776L524.116 446.941L522.882 446.757L521.744 446.238L520.837 445.473L520.162 444.496L519.77 443.375L519.685 442.191L519.787 440.523L519.864 439.82L520.008 439.13L520.218 438.457L520.492 437.809L521.412 435.889L521.97 434.568L522.4 433.2L522.698 431.798L522.862 430.374L522.881 428.722L522.721 427.08L522.384 425.464L521.869 423.895L521.331 422.509L521.045 421.811L520.736 421.124L520.403 420.446L520.047 419.782L519.101 418.088L518.389 416.764L517.716 415.421L517.083 414.057L516.494 412.675L515.877 411.17L515.53 410.338L515.17 409.512L514.796 408.691L514.409 407.877L513.581 406.171L512.958 404.95L512.289 403.756L511.571 402.591L510.807 401.456L510.142 400.51L509.387 399.495L508.578 398.522L507.716 397.595L506.805 396.715L505.336 395.476L503.768 394.364L502.114 393.382L500.386 392.541L500.088 392.411L499.092 392.002L498.078 391.635L497.052 391.312L496.012 391.032L493.874 390.506L492.866 390.232L491.875 389.906L490.901 389.529L489.947 389.103L489.401 388.843L487.807 387.977L486.313 386.952L484.932 385.779L483.678 384.471L483.326 384.062L482.677 383.248L482.087 382.388L481.564 381.486L481.112 380.548L480.407 378.94L479.995 377.766L479.762 376.542L479.716 375.298L479.856 374.059L480.324 372.475L481.098 371.016L482.145 369.738L483.426 368.693L483.838 368.419L484.697 367.913L485.606 367.499L486.554 367.184L487.529 366.971L491.506 366.315L491.685 366.284L491.862 366.249L492.039 366.213L492.215 366.171L496.321 365.17L497.083 364.865L497.729 364.359L498.21 363.695L498.486 362.921L498.484 361.759L498.03 360.691L497.195 359.886L496.11 359.47L494.415 359.189L493.936 359.134L493.455 359.131L492.975 359.178L492.504 359.276L488.25 360.393L487.738 360.521L487.221 360.64L486.704 360.747L486.183 360.843L483.252 361.354L482.06 361.532L480.859 361.65L479.655 361.709L478.449 361.709L477.469 361.684L475.962 361.585L474.467 361.363L472.997 361.02L471.56 360.556L470.018 359.91L468.541 359.125L467.139 358.212L465.828 357.174L465.09 356.535L464.324 355.841L463.589 355.116L462.887 354.359L462.217 353.572L460.869 351.916L460.17 351.037L459.492 350.141L458.835 349.23L458.198 348.305L456.687 346.05L456.275 345.426L455.873 344.795L455.478 344.157L455.057 343.456L453.75 341.354L452.386 339.377L450.929 337.464L449.385 335.622L449.195 335.406L448.748 334.905L448.292 334.411L447.829 333.925L447.359 333.446L445.005 331.088L444.396 330.441L443.827 329.759L443.302 329.043L442.821 328.297L442.42 327.634L441.573 325.956L440.993 324.169L440.693 322.314L440.682 320.385L440.824 319.177L441.076 318.037L441.439 316.927L441.912 315.858L442.359 314.968L442.906 313.61L443.221 312.18L443.299 310.717L443.136 309.26L442.718 307.802L442.055 306.436L441.174 305.203L440.093 304.137L438.359 302.696L438.006 302.395L437.664 302.083L437.333 301.762L437.01 301.43L435.892 300.244L434.667 298.781L433.625 297.181L432.777 295.471L432.14 293.671L431.842 292.467L431.637 291.244L431.528 290.008L431.513 288.767L431.592 285.891L431.602 285.365L431.603 284.839L431.595 284.312L431.579 283.787L431.47 281.025L431.363 279.722L431.148 278.435L430.825 277.169L430.395 275.936L430.002 274.943L429.442 273.743L428.743 272.619L427.916 271.586L426.97 270.66L426.098 269.901L425.13 269.184L424.058 268.63L422.915 268.253L421.724 268.064L421.164 268.018L419.691 268.07L418.268 268.457L416.971 269.155L415.866 270.131L415.088 271.198L414.544 272.401L414.257 273.689L414.238 275.01L414.397 276.786L414.488 277.52L414.631 278.245L414.825 278.961L415.068 279.658L415.907 281.824L416.354 283.063L416.738 284.322L417.06 285.597L417.322 286.887L417.35 287.051L417.606 288.829L417.751 290.621L417.783 292.418L417.702 294.212L417.559 296.095L417.52 296.559L417.477 297.024L417.428 297.488L417.376 297.951L416.767 303.04L416.744 303.24L416.723 303.44L416.703 303.642L416.685 303.844L416.428 306.887L416.399 308.353L416.557 309.811L416.9 311.238L417.421 312.607L418.193 314.024L419.156 315.319L420.29 316.466L421.576 317.442L423.248 318.537L423.673 318.806L424.104 319.064L424.543 319.309L424.987 319.541L425.817 319.964L427.762 321.067L429.595 322.346L431.303 323.788L432.87 325.384L433.477 326.088L434.058 326.816L434.61 327.568L435.131 328.339L435.678 329.178L436.688 330.655L437.768 332.079L438.915 333.452L440.127 334.766L441.539 336.225L441.821 336.522L442.101 336.823L442.377 337.127L442.647 337.436L444.558 339.645L445.387 340.698L446.112 341.826L446.729 343.016L447.23 344.259L447.705 345.614L448 346.666L448.16 347.747L448.183 348.838L448.069 349.924L447.798 351.524L447.48 352.636L446.925 353.65L446.162 354.52L445.226 355.2L443.79 355.757L442.255 355.873L440.754 355.537L439.412 354.779L438.928 354.402L438.292 353.83L437.741 353.175L437.285 352.45L436.935 351.669L435.501 347.765L435.421 347.541L435.344 347.318L435.267 347.092L435.194 346.866L433.749 342.286L433.564 341.725L433.369 341.167L433.162 340.614L432.943 340.065L431.931 337.602L431.385 336.431L430.733 335.317L429.98 334.268L429.133 333.292L427.756 332.029L426.223 330.961L424.561 330.11L422.736 329.471L421.477 329.174L420.262 328.997L419.037 328.926L417.808 328.96L415.003 329.155L414.427 329.189L413.851 329.213L413.274 329.225L412.697 329.228L410.247 329.215L408.828 329.162L407.414 329.021L406.013 328.793L404.628 328.48L404.051 328.329L402.627 327.899L401.243 327.36L399.904 326.713L398.62 325.965L398.134 325.654L396.972 324.84L395.89 323.925L394.892 322.917L393.989 321.824L393.737 321.491L392.878 320.206L392.163 318.834L391.603 317.392L391.209 315.896L390.975 314.315L390.923 312.717L391.055 311.124L391.367 309.557L391.632 308.533L391.918 307.542L392.261 306.569L392.655 305.615L393.102 304.686L394.097 302.756L394.545 301.768L394.887 300.738L395.122 299.679L395.247 298.601L395.259 298.408L395.203 296.539L394.8 294.71L394.065 292.989L393.023 291.434L392.286 290.625L391.467 289.903L390.572 289.271L389.614 288.742L387.254 287.6L386.568 287.255L385.897 286.885L385.237 286.492L384.592 286.075L384.047 285.709L382.356 284.475L380.77 283.109L379.298 281.621L377.95 280.019L377.304 279.149L376.693 278.251L376.12 277.331L375.585 276.385L374.477 274.327L374.027 273.469L373.59 272.604L373.169 271.731L372.764 270.85L371.814 268.737L371.384 267.725L370.996 266.698L370.648 265.657L370.343 264.601L369.988 263.27L369.674 261.887L369.469 260.485L369.372 259.07L369.383 257.653L369.411 257.084L369.548 255.629L369.824 254.194L370.232 252.792L370.773 251.433L370.92 251.111L371.61 249.783L372.442 248.538L373.403 247.391L374.488 246.349L375.763 245.373L377.135 244.555L378.595 243.902L380.16 243.415L381.626 243.128L383.075 243.007L384.527 243.045L385.967 243.24L386.518 243.346L387.849 243.685L389.129 244.188L390.338 244.843L391.456 245.641L392.658 246.778L393.68 248.078L394.498 249.515L395.095 251.058L395.15 251.242L395.447 252.444L395.615 253.672L395.654 254.909L395.563 256.146L395.234 258.725L395.161 259.371L395.105 260.019L395.067 260.668L395.048 261.318L395.03 262.237L395.073 264.285L395.272 266.326L395.625 268.345L396.132 270.33L396.479 271.411L396.87 272.479L397.307 273.526L397.788 274.555L399.378 277.779L399.507 278.038L399.638 278.296L399.771 278.554L399.906 278.811L401.405 281.652L401.982 282.845L402.476 284.075L402.884 285.336L403.203 286.623L403.495 288.401L403.618 290.198L403.572 292.001L403.356 293.789L403.296 294.148L403.068 295.304L402.775 296.444L402.421 297.566L402.003 298.669L400.452 302.439L398.771 306.512L398.439 307.463L398.214 308.444L398.098 309.445L398.093 310.451L398.165 311.875L398.356 313.103L398.8 314.263L399.475 315.306L400.37 316.198L401.574 316.957L402.901 317.399L404.295 317.511L405.675 317.29L406.831 316.82L407.859 316.116L408.716 315.211L409.36 314.143L409.983 312.804L410.325 311.965L410.58 311.096L410.749 310.206L410.828 309.302L410.994 304.792L411.002 304.61L411.214 300.01L411.249 299.121L411.269 298.232L411.275 297.342L411.266 296.453L411.237 294.739L411.183 293.269L411.066 291.803L410.889 290.343L410.651 288.889L410.294 287.189L409.854 285.507L409.332 283.847L408.729 282.217L408.305 281.146L407.961 280.322L407.597 279.507L407.208 278.703L406.795 277.911L405.914 276.281L405.297 275.027L404.777 273.73L404.357 272.398L404.038 271.038L403.791 269.346L403.699 267.639L403.767 265.928L403.993 264.233L404.464 261.628L404.502 261.418L404.558 261.139L405.219 257.872L405.422 256.462L405.464 255.039L405.343 253.62L405.06 252.225L404.554 250.699L403.854 249.252L402.975 247.907L401.931 246.686L399.829 244.528L397.479 242.1L396.501 240.97L395.657 239.738L394.955 238.419L394.405 237.029L393.995 235.504L393.77 233.941L393.731 232.362L393.879 230.79L393.969 230.21L394.208 228.986L394.542 227.784L394.971 226.613L395.492 225.479L396.906 222.693L397.08 222.347L397.248 221.999L397.415 221.648L397.576 221.296L397.999 220.366L398.892 218.234L399.657 216.055L400.294 213.835L400.798 211.582L400.956 210.709L401.094 209.834L401.214 208.957L401.314 208.074L401.499 206.247L401.654 204.831L401.836 203.42L402.042 202.01L402.286 200.536L402.612 198.766L402.961 197.07L403.343 195.383L403.762 193.704L404.17 192.133L404.348 191.471L404.533 190.811L404.726 190.154L404.93 189.499L405.953 186.266L406.228 185.466L406.54 184.679L406.892 183.908L407.279 183.156L408.2 181.472L408.93 180.32L409.803 179.274L410.807 178.351L411.924 177.568L412.289 177.347L413.557 176.705L414.908 176.27L416.312 176.05L417.733 176.051L419.264 176.306L420.732 176.818L422.09 177.572L423.298 178.546L424.048 179.263L424.677 179.912L425.254 180.606L425.778 181.341L426.245 182.113L427.014 183.497L427.798 184.792L428.681 186.025L429.655 187.186L430.715 188.268L431.858 189.443L432.9 190.708L433.832 192.056L434.652 193.477L434.957 194.062L435.483 195.131L435.954 196.225L436.368 197.342L436.727 198.477L437.141 199.919L437.45 201.153L437.669 202.405L437.801 203.67L437.843 204.94L437.835 207.015L437.787 207.873L437.649 208.719L437.424 209.546L437.113 210.345L436.146 212.492L435.625 213.34L434.908 214.031L434.039 214.52L433.077 214.775L431.851 214.746L430.695 214.342L429.719 213.601L429.017 212.595L428.013 210.531L427.764 209.932L427.587 209.307L427.484 208.667L427.457 208.016L427.507 205.291L427.353 204.371L426.874 203.57L426.139 202.995L425.246 202.725L424.117 202.858L423.16 203.472L422.568 204.442L422.458 205.573L422.71 207.496L422.729 207.675L422.742 207.914L422.769 210.108L422.591 211.67L422.034 213.141L421.13 214.428L419.936 215.453L418.747 216.069L417.455 216.423L416.118 216.494L414.794 216.282L414.409 216.177L413.002 215.966L411.585 216.082L410.233 216.517L409.015 217.251L408.604 217.569L407.677 218.493L407.008 219.618L406.639 220.875L406.594 222.185L406.917 223.577L407.605 224.832L408.608 225.852L409.9 226.584L411.166 227.286L412.165 228.255L412.885 229.447L413.276 230.784L413.563 232.602L413.65 233.365L413.668 234.13L413.618 234.894L413.502 235.652L413.054 237.888L412.838 239.175L412.7 240.472L412.641 241.776L412.661 243.08L412.731 244.59L412.765 245.749L412.759 246.906L412.714 248.065L412.628 249.221L412.28 253.029L412.254 253.263L412.206 253.571L412.134 253.942L412.142 256.204L413.027 258.286L414.653 259.861L416.761 260.683L416.924 260.708L417.088 260.731L417.253 260.747L417.419 260.758L420.091 260.911L421.808 261.036L423.52 261.219L425.227 261.459L426.923 261.756L428.552 262.068L429.215 262.202L429.873 262.349L430.529 262.511L431.181 262.686L431.837 262.869L433.921 263.538L435.949 264.365L437.908 265.347L439.784 266.476L440.626 267.05L441.447 267.654L442.244 268.285L443.02 268.946L444.793 270.513L445.553 271.2L446.298 271.906L447.026 272.628L447.737 273.367L449.037 274.748L449.871 275.677L450.656 276.647L451.394 277.655L452.081 278.699L452.576 279.49L453.316 280.784L453.954 282.132L454.485 283.522L454.908 284.951L455.257 286.619L455.455 288.31L455.505 290.014L455.404 291.713L455.338 292.351L455.186 293.524L454.974 294.688L454.701 295.839L454.37 296.974L453.369 300.105L453.249 300.485L453.132 300.868L453.017 301.252L452.906 301.635L451.477 306.597L451.409 306.836L451.342 307.076L451.275 307.315L451.211 307.555L449.977 312.131L449.803 312.716L449.601 313.292L449.369 313.855L449.11 314.408L447.729 317.162L447.37 318.109L447.209 319.11L447.255 320.121L447.503 321.104L447.778 321.856L448.463 323.044L449.509 323.932L450.792 324.416L452.165 324.438L453.201 324.127L454.117 323.549L454.845 322.748L455.331 321.78L456.387 318.708L456.505 318.334L456.609 317.957L456.696 317.576L456.769 317.191L457.151 314.885L457.512 313.291L458.06 311.75L458.788 310.285L459.684 308.916L460.665 307.737L461.774 306.676L462.992 305.742L464.308 304.95L465.182 304.488L466.223 303.981L467.294 303.54L468.391 303.169L469.512 302.868L470.995 302.52L472.263 302.253L473.54 302.039L474.825 301.881L476.115 301.778L477.253 301.712L478.609 301.665L479.964 301.683L481.318 301.763L482.666 301.906L484.497 302.204L486.307 302.618L488.085 303.149L489.869 303.807L491.111 304.342L492.285 304.912L493.435 305.532L494.555 306.202L496.637 307.511L497.226 307.858L497.835 308.172L498.46 308.451L499.101 308.694L500.182 309.071L501.985 309.503L503.837 309.573L505.666 309.277L507.401 308.626L508.415 308.044L509.35 307.339L510.189 306.524L510.92 305.612L512.989 302.666L513.115 302.487L513.237 302.306L513.358 302.125L513.478 301.943L515.346 299.063L516.06 297.983L516.794 296.914L517.545 295.86L518.315 294.819L519.064 293.822L519.865 292.787L520.693 291.773L521.545 290.779L522.424 289.809L523.198 288.976L524.136 288.007L525.107 287.074L526.114 286.179L527.154 285.322L527.819 284.796L528.977 283.927L530.179 283.12L531.424 282.379L532.704 281.703L533.175 281.47L534.54 280.849L535.942 280.317L537.376 279.877L538.835 279.528L539.173 279.458L540.681 279.207L542.203 279.063L543.731 279.032L545.257 279.112L546.906 279.325L548.534 279.665L550.129 280.136L551.726 280.749L553.107 281.396L554.398 282.114L555.639 282.919L556.82 283.807L557.447 284.312L558.457 285.166L559.422 286.066L560.343 287.013L561.218 288.003L561.879 288.787L562.749 289.861L563.582 290.964L564.374 292.099L565.123 293.261L565.45 293.789L566.234 295.101L566.973 296.438L567.669 297.796L568.319 299.179L568.425 299.412L569.047 300.85L569.624 302.306L570.155 303.78L570.641 305.27L570.781 305.721L571.183 307.084L571.551 308.455L571.888 309.834L572.189 311.223L572.345 311.983L572.615 313.375L572.855 314.773L573.066 316.175L573.246 317.581L573.388 318.792L573.513 319.983L573.605 321.18L573.665 322.378L573.692 323.578L573.706 325.133L573.689 326.379L573.615 327.621L573.485 328.858L573.3 330.088L573.104 331.213L572.816 332.573L572.431 333.91L571.954 335.215L571.383 336.482L570.982 337.296L570.337 338.463L569.589 339.566L568.742 340.596L567.806 341.542L567.137 342.16L566.092 343.012L564.948 343.729L563.725 344.3L562.442 344.715L561.881 344.86L560.494 345.103L559.086 345.131L557.69 344.941L556.34 344.539L554.975 343.879L553.736 343.001L552.661 341.93L551.778 340.695L551.663 340.501L551.072 339.341L550.641 338.113L550.377 336.84L550.285 335.542L550.273 333.212L550.284 332.542L550.317 331.874L550.376 331.207L550.457 330.544L550.864 327.689L550.992 326.586L551.063 325.479L551.075 324.368L551.032 323.26L550.955 322.124L550.788 320.653L550.478 319.204L550.034 317.791L549.456 316.427L548.674 315L547.746 313.664L546.683 312.432L545.483 311.305L544.297 310.395L543.046 309.609L541.728 308.946L540.353 308.41L539.943 308.272L538.54 307.863L537.11 307.57L535.66 307.392L534.201 307.335L533.818 307.336L532.301 307.395L530.792 307.567L529.301 307.851L527.836 308.246L527.393 308.382L526.042 308.848L524.722 309.394L523.439 310.021L522.196 310.723L519.904 312.114L519.522 312.35L519.142 312.588L518.764 312.832L518.389 313.08L515.458 315.034L514.603 315.564L513.715 316.038L512.8 316.452L511.817 316.82L509.824 317.351L507.822 317.602L505.803 317.582L503.805 317.294L502.739 317.024L501.696 316.678L500.68 316.257L499.698 315.761L497.732 314.678L496.854 314.23L495.951 313.837L495.025 313.498L494.054 313.21L491.978 312.805L489.892 312.678L487.808 312.828L485.762 313.249L484.742 313.567L483.746 313.953L482.78 314.405L481.845 314.921L478.818 316.728L478.481 316.932L478.147 317.137L477.814 317.346L477.483 317.558L472.895 320.535L472.766 320.619L472.594 320.732L468.652 323.322L467.986 323.739L467.302 324.128L466.603 324.488L465.888 324.818L463.514 325.854L462.547 326.351L461.651 326.968L460.839 327.692L460.126 328.513L459.125 330.2L458.532 332.069L458.379 334.025L458.675 335.964L458.82 336.49L459.07 337.278L459.388 338.04L459.77 338.773L460.213 339.471L462.315 342.489L462.62 342.938L462.912 343.396L463.192 343.862L463.458 344.333L465.309 347.725L465.705 348.346L466.176 348.91L466.718 349.408L467.321 349.831L468.634 350.629L469.927 351.126L471.314 351.134L472.612 350.652L473.659 349.743L474.191 348.858L474.471 347.865L474.477 346.833L474.21 345.834L473.078 343.128L472.991 342.927L472.869 342.664L471.491 339.893L470.936 338.527L470.594 337.092L470.472 335.624L470.575 334.153L470.9 332.715L471.438 331.339L472.179 330.064L473.104 328.914L473.294 328.711L474.323 327.751L475.469 326.936L476.713 326.28L478.033 325.795L478.629 325.62L479.946 325.306L481.291 325.133L482.646 325.103L483.997 325.214L486.223 325.516L486.893 325.617L487.559 325.737L488.221 325.877L488.879 326.034L491.301 326.655L492.565 326.949L493.84 327.187L495.126 327.368L496.477 327.497L498.365 327.577L500.194 327.536L502.017 327.375L503.826 327.099L505.157 326.817L506.472 326.473L507.77 326.067L509.046 325.599L509.81 325.297L511.144 324.743L512.455 324.133L513.741 323.475L515 322.767L516.239 322.039L517.14 321.497L518.029 320.939L518.908 320.363L519.775 319.77L521.914 318.282L522.641 317.795L523.387 317.34L524.15 316.913L524.929 316.518L526.706 315.661L527.911 315.155L529.161 314.775L530.445 314.529L531.747 314.416L532.172 314.4L533.686 314.453L535.179 314.709L536.623 315.167L538.026 315.837L539.296 316.668L540.41 317.639L541.379 318.754L542.187 319.989L542.306 320.202L542.918 321.506L543.335 322.885L543.549 324.309L543.555 325.749L543.326 327.31L542.85 328.814L542.146 330.226L541.223 331.512L540.194 332.564L539.025 333.451L537.74 334.159L536.366 334.67L534.891 335.099L533.985 335.331L533.068 335.509L532.141 335.628L531.208 335.689L528.882 335.769L527.772 335.845L526.666 335.995L525.575 336.219L524.501 336.515L523.349 336.873L521.992 337.39L520.706 338.07L519.514 338.9L518.434 339.87L517.34 341.151L516.439 342.573L515.748 344.109L515.283 345.727L515.033 346.901L514.871 347.779L514.76 348.666L514.698 349.557L514.687 350.45L514.716 352.515L514.683 353.8L514.542 355.078L514.296 356.34L513.949 357.578L513.253 359.336L512.35 360.997L511.252 362.537L509.975 363.931L509.63 364.266L508.849 364.976L508.03 365.637L507.17 366.249L506.276 366.808L504.774 367.683L503.64 368.315L502.479 368.899L501.298 369.435L500.096 369.923L497.676 370.847L497.08 371.055L496.474 371.23L495.858 371.369L495.235 371.471L492.612 371.829L491.461 372.116L490.402 372.65L489.484 373.403L488.754 374.337L488.37 374.96L487.856 376.174L487.729 377.485L488.003 378.775L488.652 379.922L489.662 380.855L490.913 381.425L492.28 381.573L493.624 381.288L495.139 380.705L495.763 380.426L496.354 380.084L496.907 379.681L497.413 379.224L499.207 377.427L500.123 376.586L501.108 375.826L502.154 375.155L503.254 374.575L504.108 374.172L505.452 373.643L506.853 373.294L508.288 373.134L509.733 373.166L511.372 373.436L512.953 373.95L514.435 374.699L515.789 375.665L516.294 376.086L517.149 376.867L517.932 377.721L518.636 378.642L519.256 379.621L520.485 381.772L520.878 382.486L521.251 383.212L521.601 383.949L521.928 384.696L522.427 385.882L523.139 387.495L523.911 389.08L524.741 390.636L525.648 392.195L526.422 393.433L527.208 394.612L528.028 395.768L528.882 396.9L529.442 397.622L530.26 398.698L531.056 399.792L531.831 400.902L532.579 402.028L532.852 402.446L533.723 403.818L534.565 405.209L535.377 406.616L536.156 408.043L536.896 409.466L537.604 410.902L538.281 412.354L538.928 413.821L540.171 416.729L540.232 416.865L541.677 419.91L542.376 420.844L543.386 421.429L544.544 421.575L545.666 421.254L546.45 420.663L546.993 419.846L547.237 418.895L547.151 417.919L546.304 414.666L546.201 414.311L546.081 413.96L545.941 413.616L545.786 413.282L543.524 408.745L543.38 408.455L543.238 408.164L543.099 407.873L542.96 407.581L542.484 406.568L541.448 404.477L540.322 402.433L539.11 400.437L537.815 398.495L537.3 397.772L536.775 397.056L536.238 396.349L535.688 395.652L533.431 392.827L533.105 392.404L532.795 391.972L532.499 391.528L532.22 391.075L530.943 388.92L530.373 387.748L530.002 386.499L529.841 385.205L529.893 383.902L530.253 382.324L530.926 380.851L531.885 379.546L533.086 378.462L533.665 378.038L534.576 377.447L535.548 376.964L536.567 376.593L537.623 376.34L541.031 375.723L541.418 375.655L541.804 375.594L542.192 375.54L542.581 375.492L545.461 375.157L546.831 374.974L548.195 374.743L549.549 374.466L550.894 374.142L552.656 373.642L554.395 373.061L556.103 372.402L557.783 371.665L559.029 371.057L560.249 370.41L561.447 369.718L562.62 368.988L564.157 367.994L564.933 367.484L565.703 366.962L566.465 366.431L567.22 365.887L570.035 363.834L570.487 363.507L570.939 363.18L571.395 362.856L571.85 362.531L574.231 360.85L575.228 360.16L576.237 359.486L577.259 358.832L578.289 358.195L579.329 357.569L580.543 356.861L581.778 356.189L583.032 355.554L584.304 354.958L584.833 354.719L586.235 354.119L587.659 353.573L589.103 353.082L590.577 352.645L592.217 352.23L593.86 351.888L595.517 351.615L597.184 351.415L598.717 351.294L600.255 351.233L601.794 351.233L603.333 351.291L603.872 351.323L605.28 351.428L606.687 351.575L608.087 351.765L609.48 351.998L610.691 352.22L611.868 352.445L613.041 352.694L614.209 352.961L615.371 353.252L617.308 353.754L618.305 354.015L619.3 354.287L620.292 354.568L621.282 354.855L623.879 355.621L624.687 355.869L625.49 356.13L626.288 356.405L627.082 356.694L629.271 357.515L630.392 357.966L631.489 358.475L632.56 359.038L633.601 359.653L634.667 360.319L635.798 361.093L636.861 361.957L637.851 362.908L638.756 363.935L639.12 364.381L640.019 365.624L640.777 366.956L641.388 368.363L641.844 369.849L642.147 371.46L642.258 373.073L642.181 374.689L641.916 376.286L641.493 377.762L640.91 379.181L640.173 380.53L639.291 381.787L638.935 382.239L638.064 383.257L637.113 384.2L636.088 385.062L634.996 385.838L634.072 386.441L632.961 387.119L631.814 387.734L630.635 388.285L629.427 388.768L628.258 389.197L627.04 389.618L625.807 389.993L624.561 390.32L623.301 390.601L620.505 391.169L620.008 391.272L619.512 391.381L619.019 391.495L618.525 391.612L616.734 392.049L615.004 392.521L613.301 393.081L611.629 393.731L609.994 394.464L608.734 395.103L607.502 395.792L606.3 396.533L605.129 397.321L602.38 399.255L602.222 399.365L602.011 399.513L598.797 401.738L597.817 402.384L596.807 402.985L595.77 403.541L594.711 404.047L593.671 404.515L592.323 405.061L590.938 405.498L589.521 405.825L588.084 406.043L586.384 406.153L584.684 406.107L582.993 405.905L581.288 405.54L579.904 405.124L578.594 404.619L577.323 404.02L576.1 403.329L574.364 402.261L573.713 401.85L573.073 401.424L572.442 400.983L571.822 400.525L569.679 398.912L568.774 398.26L567.84 397.65L566.879 397.082L565.898 396.557L564.6 395.902L563.382 395.347L562.122 394.894L560.83 394.546L559.512 394.306L558.023 394.097L556.972 394.006L555.919 394.034L554.875 394.175L553.854 394.43L552.445 394.866L551.308 395.347L550.29 396.047L549.432 396.937L548.771 397.98L548.329 399.146L548.132 400.377L548.188 401.623L548.494 402.83L549.611 405.892L549.699 406.127L549.791 406.361L549.888 406.593L549.989 406.822L551.9 411.067L552.137 411.618L552.355 412.177L552.553 412.744L552.732 413.317L553.299 415.257L553.821 416.657L554.536 417.967L555.428 419.164L556.483 420.222L557.66 421.108L558.949 421.821L560.324 422.346L561.762 422.672L563.934 423.009L564.539 423.113L565.141 423.238L565.737 423.383L566.328 423.547L568.616 424.228L569.931 424.657L571.224 425.152L572.488 425.713L573.721 426.34L574.928 426.992L575.947 427.498L577 427.935L578.079 428.3L579.181 428.59L581.093 428.912L583.028 429.011L584.963 428.886L586.87 428.54L587.148 428.472L588.215 428.247L589.295 428.088L590.382 427.994L591.472 427.965L593.171 427.973L594.441 428.004L595.71 428.086L596.975 428.218L598.234 428.4L599.117 428.546L600.602 428.765L602.094 428.931L603.59 429.047L605.089 429.11L608.285 429.189L608.478 429.195L608.735 429.203L613.6 429.378L614.28 429.427L614.954 429.52L615.621 429.662L616.277 429.847L619.186 430.777L620.103 430.956L621.036 430.914L621.933 430.657L622.746 430.197L623.846 428.96L624.348 427.381L624.164 425.737L623.323 424.31L623.083 424.048L622.651 423.64L622.168 423.294L621.642 423.018L621.083 422.819L619.11 422.263L617.739 421.733L616.492 420.95L615.415 419.948L614.549 418.759L613.922 417.426L613.559 415.998L613.473 414.528L613.669 413.068L613.911 412.02L614.185 411.051L614.552 410.111L615.008 409.214L615.548 408.363L617.179 406.053L617.632 405.433L618.102 404.827L618.592 404.236L619.099 403.662L620.73 401.868L621.599 400.987L622.536 400.177L623.535 399.446L624.589 398.798L626.302 397.969L628.103 397.359L629.967 396.975L631.862 396.822L632.255 396.815L633.264 396.827L634.272 396.898L635.272 397.029L636.263 397.22L638.148 397.639L639.364 397.874L640.59 398.039L641.826 398.134L643.063 398.156L644.99 398.051L646.902 397.775L648.78 397.327L650.61 396.716L651.607 396.331L652.259 396.072L652.903 395.794L653.541 395.501L654.17 395.191L656.749 393.883L657.724 393.428L658.727 393.039L659.752 392.713L660.797 392.456L661.998 392.203L663.44 391.991L664.897 391.96L666.345 392.111L667.764 392.442L669.259 393.003L670.662 393.766L671.95 394.711L673.109 395.836L674.012 396.974L674.761 398.195L675.356 399.498L675.79 400.864L675.892 401.269L676.171 402.701L676.294 404.155L676.258 405.614L676.069 407.06L675.972 407.571L675.65 408.944L675.207 410.281L674.649 411.575L673.977 412.814L673.693 413.285L672.881 414.524L671.974 415.696L670.979 416.794L669.853 417.851L668.539 418.905L667.192 419.814L665.774 420.608L664.294 421.282L662.843 421.873L662.131 422.151L661.412 422.412L660.687 422.653L659.954 422.875L657.495 423.585L656.376 423.95L655.281 424.386L654.218 424.894L653.191 425.471L651.57 426.577L650.081 427.854L648.739 429.285L647.562 430.855L647.471 430.99L646.896 431.907L646.375 432.856L645.91 433.834L645.502 434.837L644.085 438.64L644.028 438.79L643.952 438.991L643.687 439.684L642.642 442.25L641.483 444.765L640.217 447.228L638.842 449.631L638.615 450.006L638.384 450.38L638.152 450.751L637.916 451.121L637.678 451.493L636.322 453.673L635.027 455.892L633.792 458.144L632.619 460.428L632.31 461.051L632.174 461.325L632.036 461.598L631.899 461.871L631.76 462.145L630.157 465.282L629.623 466.314L629.077 467.337L628.518 468.354L627.949 469.365L626.957 471.097L626.435 472.031L625.933 472.978L625.451 473.933L624.991 474.9L624.441 476.085L623.839 477.455L623.297 478.848L622.817 480.263L622.38 481.753L621.973 483.418L621.659 485.044L621.425 486.683L621.271 488.331L621.201 489.878L621.201 491.428L621.273 492.975L621.413 494.518L621.761 497.534L621.786 497.752L621.824 498.044L622.435 502.633L622.504 503.423L622.497 504.216L622.419 505.004L622.266 505.782L621.707 508.059L621.347 509.009L620.765 509.842L619.999 510.507L619.094 510.966L617.757 511.21L616.414 511.008L615.208 510.383L614.27 509.399L613.946 508.921L613.572 508.268L613.304 507.566L613.146 506.83L613.104 506.078L613.201 501.338L613.205 501.179L613.336 497.251L613.365 496.029L613.367 494.804L613.344 493.58L613.297 492.358L613.193 490.265L613.161 489.31L613.163 488.354L613.197 487.399L613.262 486.446L613.3 486.013L613.555 484.008L613.968 482.031L614.538 480.093L615.259 478.207L615.733 477.168L616.252 476.154L616.816 475.164L617.424 474.199L619.007 471.81L619.364 471.266L619.716 470.715L620.06 470.162L620.398 469.603L620.947 468.689L621.968 466.927L622.934 465.133L623.85 463.312L624.711 461.464L625.203 460.388L625.714 459.321L626.243 458.262L626.792 457.212L627.173 456.496L627.956 455.069L628.774 453.662L629.626 452.275L630.511 450.909L630.751 450.549L631.504 449.389L632.228 448.211L632.925 447.016L633.592 445.805L634.431 444.176L635.217 442.522L635.951 440.843L636.632 439.143L637.391 437.157L637.507 436.849L637.622 436.539L637.735 436.229L637.846 435.919L638.97 432.763L639.409 431.624L639.902 430.507L640.45 429.415L641.051 428.351L641.397 427.776L642.286 426.415L643.28 425.129L644.372 423.925L645.557 422.81L646.755 421.846L648.024 420.973L649.353 420.197L650.736 419.524L651.885 419.016L652.827 418.623L653.785 418.267L654.756 417.953L655.739 417.676L658.534 416.954L659.254 416.735L659.951 416.454L660.621 416.114L661.259 415.715L663.213 414.375L664.014 413.664L664.613 412.778L664.975 411.771L665.077 410.704L664.808 409.331L664.113 408.117L663.063 407.191L661.733 406.642L660.813 406.517L659.928 406.579L659.073 406.818L658.284 407.225L655.039 409.33L654.858 409.446L654.674 409.559L654.489 409.668L654.303 409.775L649.929 412.231L649.536 412.449L649.141 412.664L648.744 412.874L648.346 413.08L646.088 414.235L644.774 414.958L643.505 415.759L642.286 416.633L641.121 417.578L639.88 418.724L638.72 419.951L637.645 421.254L636.658 422.624L636.255 423.228L635.636 424.192L635.054 425.179L634.509 426.189L634.002 427.216L633.548 428.186L632.918 429.591L632.336 431.018L631.804 432.464L631.323 433.927L630.679 436.006L630.498 436.572L630.31 437.136L630.113 437.695L629.908 438.254L629.825 438.476L628.867 440.786L627.76 443.026L626.509 445.19L625.117 447.267L624.719 447.835L624.328 448.411L623.95 448.993L623.581 449.58L622.374 451.55L621.694 452.737L621.086 453.965L620.552 455.225L620.093 456.514L619.458 458.486L619.185 459.234L618.851 459.959L618.463 460.655L618.019 461.317L617.289 462.321L616.177 463.537L614.826 464.48L613.298 465.102L611.673 465.372L610.418 465.333L609.188 465.085L608.017 464.632L606.939 463.99L605.122 462.688L604.531 462.288L603.922 461.918L603.294 461.581L602.649 461.276L600.469 460.316L599.281 459.817L598.079 459.36L596.86 458.945L595.627 458.574L593.942 458.098L592.922 457.801L591.908 457.485L590.901 457.149L589.898 456.797L587.998 456.106L586.924 455.695L585.866 455.243L584.826 454.753L583.804 454.226L581.939 453.218L581.072 452.711L580.24 452.149L579.446 451.533L578.697 450.865L576.432 448.715L575.957 448.323L575.43 448.002L574.866 447.756L574.272 447.593L572.422 447.222L571.304 447.235L570.289 447.701L569.551 448.539L569.216 449.606L569.217 450.111L569.312 450.608L569.498 451.08L569.77 451.506L571.847 454.181L572.45 454.894L573.111 455.555L573.824 456.158L574.585 456.7L576.024 457.639L577.216 458.362L578.451 459.006L579.726 459.567L581.034 460.046L583.148 460.741L583.81 460.953L584.478 461.152L585.147 461.341L585.821 461.515L588.372 462.155L589.547 462.473L590.708 462.834L591.854 463.24L592.985 463.689L594.139 464.171L595.385 464.737L596.592 465.378L597.758 466.092L598.877 466.878L599.546 467.378L600.635 468.264L601.646 469.236L602.575 470.285L603.416 471.41L604.328 472.896L605.086 474.467L605.678 476.108L606.104 477.8L606.292 478.76L606.447 479.637L606.566 480.522L606.65 481.408L606.696 482.299L606.837 486.735L606.843 486.911L606.852 487.147L606.951 489.755L607.003 491.591L607.017 493.425L606.994 495.262L606.935 497.096L606.887 498.48L606.859 499.862L606.853 501.246L606.867 502.63L606.922 505.545L606.93 505.909L606.942 506.272L606.958 506.635L606.979 506.999L607.144 509.734L607.173 511.207L607.081 512.676L606.865 514.133L606.531 515.567L606.032 517.094L605.399 518.57L604.632 519.983L603.744 521.321L602.899 522.475L602.367 523.177L601.812 523.859L601.233 524.523L600.63 525.165L599.32 526.518L598.33 527.504L597.307 528.457L596.25 529.372L595.162 530.249L594.531 530.739L593.393 531.583L592.218 532.374L591.009 533.112L589.766 533.793L589.381 533.992L587.969 534.674L586.523 535.274L585.042 535.789L583.535 536.22L581.95 536.573L580.345 536.831L578.731 536.994L577.108 537.061L576.803 537.064L575.379 537.045L573.959 536.959L572.543 536.806L571.137 536.585L569.9 536.36L568.756 536.137L567.619 535.882L566.489 535.597L565.367 535.28L562.943 534.562L562.178 534.331L561.415 534.095L560.655 533.851L559.896 533.6L556.841 532.575L556.065 532.312L555.289 532.043L554.517 531.771L553.745 531.493L551.525 530.686L550.376 530.256L549.234 529.805L548.101 529.334L546.976 528.842L545.377 528.124L544.36 527.649L543.359 527.145L542.373 526.611L541.402 526.048L540.069 525.247L538.963 524.54L537.897 523.773L536.876 522.949L535.903 522.069L535.139 521.34L534.199 520.369L533.34 519.327L532.565 518.22L531.88 517.054L531.591 516.516L530.952 515.156L530.46 513.735L530.12 512.271L529.937 510.778L529.91 510.393L529.893 508.939L530.043 507.495L530.359 506.076L530.836 504.704L530.943 504.446L531.633 503.054L532.501 501.765L533.536 500.606L534.714 499.595L536.054 498.732L537.501 498.059L539.025 497.593L540.599 497.341L541.113 497.295L542.425 497.24L543.737 497.315L545.034 497.518L546.307 497.847L548.794 498.623L549.35 498.801L549.898 498.993L550.444 499.196L550.986 499.411L553.797 500.568L554.847 500.956L555.921 501.268L557.016 501.503L558.123 501.659L559.497 501.803L560.867 501.856L562.231 501.731L563.568 501.429L564.854 500.955L565.066 500.861L566.481 500.088L567.751 499.093L568.839 497.905L569.72 496.555L570.308 495.248L570.699 493.869L570.886 492.448L570.864 491.015L570.743 489.644L570.622 488.671L570.437 487.71L570.185 486.762L569.872 485.834L569.182 484.01L568.766 482.826L568.401 481.624L568.089 480.407L567.83 479.179L567.79 478.966L567.505 477.152L567.328 475.322L567.26 473.487L567.298 471.651L567.336 470.896L567.372 469.903L567.378 468.91L567.352 467.918L567.296 466.926L567.064 464.727L566.683 462.547L566.154 460.399L565.483 458.292L564.85 456.522L564.811 456.418L563.408 452.543L562.969 451.484L562.44 450.47L561.823 449.503L561.125 448.596L560.878 448.303L559.628 447.029L558.201 445.958L556.628 445.116L554.945 444.519L553.692 444.251L552.414 444.121L551.132 444.131L549.78 444.292L547.988 444.728L546.35 445.387L544.821 446.271L543.43 447.361L542.521 448.186L541.988 448.69L541.477 449.219L540.99 449.768L540.526 450.339L538.096 453.478L537.791 453.882L537.493 454.293L537.206 454.709L536.927 455.13L536.281 456.132L535.25 457.949L534.431 459.871L533.834 461.876L533.47 463.934L533.374 465.007L533.34 466.085L533.37 467.163L533.463 468.236L533.684 470.143L533.785 471.317L533.815 472.495L533.776 473.673L533.663 474.847L533.314 476.831L532.762 478.767L532.015 480.639L531.082 482.423L530.005 484.25L529.91 484.413L529.784 484.63L529.25 485.571L528.01 487.847L526.852 490.164L525.775 492.52L524.78 494.911L524.55 495.502L524.323 496.095L524.103 496.69L523.887 497.286L523.093 499.517L522.605 500.841L522.09 502.154L521.547 503.457L520.977 504.751L520.203 506.393L519.387 508.014L518.527 509.611L517.623 511.184L516.892 512.392L516.134 513.585L515.351 514.761L514.543 515.92L513.38 517.557L512.906 518.216L512.428 518.873L511.946 519.526L511.459 520.176L509.764 522.42L509.16 523.232L508.567 524.052L507.987 524.881L507.419 525.718L506.703 526.788L505.85 528.108L505.038 529.454L504.271 530.826L503.545 532.221L502.833 533.711L502.168 535.222L501.555 536.756L500.993 538.308L500.598 539.456L500.291 540.372L499.995 541.292L499.714 542.217L499.445 543.145L498.661 545.934L498.433 546.716L498.187 547.492L497.924 548.262L497.645 549.027L496.858 551.116L496.366 552.309L495.798 553.467L495.16 554.588L494.45 555.665L493.866 556.497L493.012 557.597L492.059 558.612L491.017 559.535L489.894 560.358L489.283 560.762L488.08 561.462L486.803 562.016L485.47 562.418L484.1 562.662L483.666 562.713L482.181 562.782L480.7 562.637L479.256 562.284L477.877 561.729L476.549 560.954L475.35 559.992L474.305 558.864L473.437 557.594L473.266 557.299L472.67 556.12L472.213 554.881L471.9 553.597L471.737 552.286L471.543 549.416L471.521 549.029L471.504 548.641L471.494 548.253L471.49 547.865L471.486 545.389L471.427 543.801L471.258 542.222L470.979 540.657L470.591 539.116L470.103 537.624L469.513 536.17L468.825 534.759L468.041 533.4L466.493 530.918L466.403 530.776L466.313 530.634L466.222 530.493L466.129 530.352L463.674 526.634L463.264 525.929L462.94 525.182L462.706 524.402L462.562 523.599L462.34 521.714L462.364 520.609L462.692 519.554L463.299 518.63L464.137 517.91L465.068 517.472L466.079 517.288L467.105 517.371L468.074 517.714L471.502 519.459L472.376 519.917L474.662 520.934L477.06 521.651L479.528 522.053L482.029 522.136L482.65 522.106L483.271 522.057L483.889 521.988L484.505 521.899L489.645 521.076L493.468 520.455L494.727 520.215L495.972 519.908L497.196 519.531L498.399 519.088L498.889 518.892L500.37 518.229L501.793 517.449L503.147 516.557L504.427 515.558L505.56 514.52L506.612 513.398L507.574 512.198L508.442 510.928L508.885 510.224L509.513 509.171L510.089 508.09L510.613 506.982L511.083 505.85L512.359 502.547L512.443 502.333L512.527 502.12L512.612 501.907L512.698 501.694L513.609 499.44L514.292 497.798L515.01 496.171L515.761 494.56L516.574 492.909L517.239 491.619L517.897 490.397L518.575 489.187L519.273 487.987L520.44 486.023L520.8 485.434L521.172 484.854L521.557 484.282L521.956 483.719L524.182 480.642L524.533 480.113L524.838 479.558L525.097 478.98L525.307 478.382L525.375 478.159L525.691 476.292L525.513 474.407L524.858 472.631L523.768 471.083L523.073 470.422L522.299 469.858L521.459 469.401L520.565 469.057L516.54 467.808L516.338 467.744L516.07 467.655L512.718 466.524L511.481 466.055L510.281 465.495L509.125 464.848L508.019 464.119L507.72 463.905L506.438 462.888L505.266 461.745L504.215 460.492L503.298 459.137L502.579 457.816L501.984 456.433L501.522 455.002L501.194 453.533L501.132 453.178L500.937 451.704L500.868 450.218L500.923 448.732L501.101 447.254L501.443 445.644L501.932 444.071L502.567 442.551L503.338 441.097L504.578 439.002L504.751 438.702L504.921 438.399L505.084 438.095L505.246 437.788L506.747 434.849L507.209 433.785L507.536 432.672L507.723 431.528L507.766 430.37L507.753 429.837L507.564 428.288L507.08 426.806L506.318 425.445L505.31 424.257L504.2 423.359L502.949 422.671L501.596 422.215L500.185 422.006L499.818 421.984L498.37 422.017L496.945 422.281L495.58 422.769L494.298 423.477L493.028 424.49L491.964 425.701L491.132 427.079L490.554 428.583L490.462 428.908L490.181 430.221L490.078 431.56L490.155 432.902L490.411 434.221L491.146 436.995L491.255 437.393L491.372 437.788L491.498 438.182L491.631 438.571L492.12 439.955L492.777 441.93L493.361 443.925L493.871 445.941L494.308 447.975L494.572 449.329L494.656 449.778L494.736 450.228L494.809 450.678L494.875 451.129L495.225 453.619L495.377 455.112L495.407 456.613L495.319 458.11L495.112 459.597L494.736 461.251L494.213 462.864L493.548 464.424L492.745 465.918L492.078 467.034L491.623 467.768L491.143 468.487L490.64 469.189L490.115 469.875L489.301 470.898L488.214 472.215L487.078 473.492L485.896 474.724L484.667 475.911L483.781 476.736L483.105 477.349L482.415 477.945L481.708 478.523L480.988 479.082L480.003 479.824L478.688 480.887L477.444 482.032L476.278 483.256L475.193 484.553L474.293 485.779L473.465 487.055L472.713 488.377L472.041 489.742L471.108 491.786L470.865 492.308L470.615 492.828L470.359 493.345L470.095 493.858L469.516 494.974L468.54 496.741L467.482 498.459L466.343 500.125L465.124 501.733L464.752 502.202L464.179 502.901L463.586 503.583L462.975 504.248L462.344 504.895L461.061 506.174L460.101 507.205L459.218 508.302L458.419 509.461L457.706 510.676L457.448 511.157L456.793 512.521L456.267 513.94L455.874 515.401L455.619 516.892L455.498 518.543L455.546 520.198L455.761 521.84L456.141 523.452L456.397 524.333L456.72 525.346L457.094 526.342L457.517 527.317L457.991 528.269L459.403 530.935L459.712 531.504L460.034 532.067L460.368 532.621L460.716 533.169L462.264 535.555L462.846 536.543L463.339 537.578L463.739 538.651L464.045 539.757L464.333 541.01L464.537 542.349L464.538 543.704L464.334 545.042L463.932 546.335L463.691 546.945L463.078 548.154L462.252 549.229L461.241 550.133L460.081 550.834L459.742 550.998L458.438 551.465L457.065 551.645L455.685 551.529L454.362 551.123L453.112 550.413L452.05 549.447L451.226 548.27L450.681 546.941L450.5 546.305L450.276 545.247L450.198 544.168L450.269 543.089L450.487 542.03L451.085 539.887L451.31 538.97L451.482 538.042L451.597 537.105L451.655 536.163L451.727 533.944L451.713 532.839L451.604 531.741L451.396 530.655L451.095 529.593L450.785 528.66L450.185 527.245L449.365 525.945L448.348 524.793L447.16 523.819L445.903 523.082L444.548 522.544L443.129 522.22L441.675 522.113L440.251 522.12L439.286 522.156L438.327 522.258L437.376 522.426L436.439 522.659L433.782 523.417L432.951 523.665L432.126 523.934L431.308 524.224L430.499 524.535L428.983 525.14L427.539 525.664L426.064 526.097L424.565 526.438L423.047 526.684L421.391 526.842L419.729 526.889L418.067 526.824L416.414 526.646L416.108 526.603L414.74 526.372L413.387 526.072L412.051 525.702L410.677 525.243L408.982 524.571L407.391 523.82L405.85 522.97L404.365 522.025L403.808 521.646L402.9 521.005L402.015 520.335L401.153 519.637L400.314 518.91L398.33 517.133L397.742 516.612L397.15 516.098L396.552 515.591L395.949 515.09L395.179 514.456L393.666 513.234L392.132 512.034L390.581 510.861L389.01 509.713L388.078 509.043L387.502 508.63L386.923 508.221L386.343 507.813L385.76 507.409L384.69 506.669L383.155 505.599L381.628 504.519L380.109 503.427L378.597 502.324L377.174 501.279L376.791 500.996L376.41 500.711L376.03 500.424L375.652 500.136L372.603 497.801L371.934 497.303L371.251 496.825L370.555 496.367L369.846 495.929L368.867 495.343L367.283 494.48L365.636 493.749L363.934 493.154L362.19 492.698L360.851 492.449L359.499 492.282L358.14 492.199L356.777 492.198L355.566 492.235L354.328 492.297L353.092 492.406L351.862 492.564L350.639 492.769L347.139 493.425L346.941 493.462L346.745 493.501L346.547 493.54L346.35 493.58L341.91 494.506L341.166 494.632L340.412 494.701L339.657 494.714L338.903 494.671L337.14 494.503L335.742 494.208L334.445 493.609L333.315 492.738L332.405 491.636L331.801 490.454L331.455 489.173L331.38 487.846L331.583 486.535L332.26 483.959L332.35 483.636L332.449 483.317L332.556 482.999L332.672 482.686L333.512 480.49L334.213 478.965L335.108 477.545L336.18 476.253L337.41 475.112L338.534 474.297L339.739 473.608L341.011 473.052L342.336 472.639L343.292 472.396L344.523 472.034L345.723 471.581L346.888 471.042L348.008 470.417L350.638 468.82L350.947 468.639L351.262 468.469L351.582 468.309L351.907 468.159L354.219 467.142L355.625 466.715L357.093 466.636L358.539 466.91L359.876 467.52L360.93 468.334L361.783 469.356L362.395 470.538L362.738 471.825L363.198 474.85L363.229 475.069L363.265 475.362L363.568 478.249L363.837 479.859L364.302 481.424L364.956 482.92L365.787 484.324L366.68 485.496L367.699 486.562L368.828 487.508L370.055 488.323L372.119 489.536L372.54 489.789L372.957 490.051L373.368 490.322L373.774 490.602L376.83 492.753L377.531 493.25L378.229 493.754L378.923 494.262L379.612 494.776L381.506 496.195L382.457 496.905L383.412 497.611L384.369 498.312L385.329 499.008L386.896 500.139L387.772 500.767L388.651 501.39L389.534 502.007L390.421 502.62L392.069 503.751L393.016 504.409L393.953 505.077L394.885 505.758L395.808 506.449L397.447 507.719L399.06 509.025L400.645 510.365L402.201 511.738L403.718 513.106L403.865 513.236L404.062 513.406L407.209 516.049L408.049 516.622L408.986 517.019L409.982 517.223L410.999 517.226L411.475 517.18L412.77 516.853L413.909 516.156L414.789 515.15L415.33 513.929L415.473 513.095L415.455 512.249L415.277 511.422L414.945 510.644L413.506 508.003L413.103 507.32L412.658 506.666L412.17 506.043L411.641 505.454L409.531 503.254L408.908 502.621L408.269 502.004L407.614 501.403L406.945 500.82L404.799 498.998L404.09 498.39L403.388 497.775L402.693 497.153L402.003 496.522L400.321 494.969L399.486 494.179L398.673 493.368L397.881 492.537L397.109 491.685L396.193 490.648L395.305 489.595L394.466 488.503L393.678 487.372L392.943 486.208L392.731 485.854L391.944 484.446L391.243 482.993L390.631 481.5L390.111 479.973L390.056 479.795L389.662 478.366L389.354 476.916L389.132 475.451L388.998 473.976L388.95 472.265L389.019 470.556L389.204 468.854L389.522 467.092L389.862 465.673L390.255 464.352L390.718 463.054L391.247 461.781L392.545 458.882L392.651 458.649L392.757 458.416L392.864 458.184L392.972 457.952L394.96 453.716L395.232 453.143L395.509 452.574L395.79 452.006L396.095 451.409L397.318 449.133L398.606 446.936L399.975 444.788L401.421 442.692L401.867 442.07L402.032 441.837L402.196 441.602L402.357 441.366L402.515 441.128L404.181 438.608L404.881 437.427L405.464 436.184L405.923 434.889L406.255 433.557L406.383 432.916L406.571 431.538L406.591 430.147L406.444 428.764L406.13 427.409L405.709 425.983L405.372 425.09L404.91 424.257L404.332 423.498L403.65 422.832L402.814 422.127L401.74 421.445L400.524 421.074L399.252 421.04L398.017 421.347L396.93 421.958L396.039 422.832L395.406 423.907L395.079 425.111L394.823 427.019L394.764 427.649L394.755 428.281L394.795 428.913L394.885 429.539L395.174 431.102L395.405 432.826L395.47 434.564L395.367 436.302L395.097 438.021L395.018 438.401L394.748 439.539L394.411 440.658L394.008 441.755L393.543 442.828L392.175 445.748L391.983 446.144L391.783 446.536L391.574 446.922L391.355 447.304L390.033 449.558L389.236 450.721L388.286 451.761L387.197 452.656L385.994 453.391L384.658 453.965L383.252 454.341L381.806 454.509L380.352 454.466L377.666 454.191L377.315 454.159L376.963 454.132L376.61 454.112L376.258 454.099L375.045 454.066L372.861 454.087L370.685 454.275L368.53 454.627L366.408 455.143L365.439 455.436L364.48 455.763L363.535 456.124L362.601 456.517L359.473 457.903L359.016 458.109L358.559 458.318L358.105 458.532L357.653 458.75L354.072 460.5L353.406 460.806L352.724 461.076L352.031 461.312L351.325 461.512L349.471 461.989L348.069 462.23L346.647 462.241L345.241 462.021L343.889 461.576L342.67 460.946L341.564 460.132L340.599 459.155L339.797 458.039L338.77 456.342L338.386 455.669L338.039 454.977L337.727 454.268L337.453 453.543L336.892 451.937L336.411 450.422L336.014 448.881L335.706 447.321L335.485 445.745L335.354 444.169L335.311 442.588L335.356 441.007L335.49 439.432L335.684 437.702L335.75 436.942L335.774 436.178L335.758 435.416L335.701 434.655L335.481 432.522L335.256 431.301L334.839 430.133L334.241 429.045L333.476 428.067L333.302 427.879L332.228 426.924L330.984 426.203L329.621 425.746L328.194 425.571L326.815 425.674L325.482 426.041L324.244 426.657L323.12 427.529L322.155 428.618L321.442 429.841L320.975 431.177L320.773 432.578L320.751 433.055L320.785 434.309L321.003 435.545L321.4 436.734L321.966 437.853L323.441 440.301L323.699 440.717L323.969 441.125L324.25 441.526L324.54 441.918L326.017 443.855L326.907 445.076L327.744 446.333L328.527 447.626L329.289 449.017L330.038 450.538L330.683 452.025L331.255 453.541L331.754 455.083L332.047 456.069L332.331 457.111L332.565 458.165L332.749 459.229L332.883 460.3L332.982 461.276L333.07 462.882L333.013 464.49L332.809 466.086L332.46 467.655L332.01 469.079L331.441 470.459L330.757 471.787L329.964 473.052L329.547 473.658L328.83 474.771L328.182 475.925L327.603 477.116L327.098 478.339L325.758 481.887L325.194 483.387L324.263 485.546L323.138 487.611L321.825 489.562L320.338 491.383L319.763 492.003L319.167 492.602L318.552 493.183L317.918 493.742L316.481 494.965L315.375 495.867L314.226 496.715L313.039 497.509L311.816 498.247L311.471 498.446L310.079 499.189L308.648 499.852L307.18 500.431L305.682 500.924L304.114 501.34L302.524 501.663L300.918 501.891L299.302 502.023L299.081 502.034L297.607 502.072L296.135 502.038L294.666 501.928L293.204 501.744L292.296 501.607L291.029 501.389L289.772 501.123L288.526 500.808L287.294 500.444L286.171 500.089L284.908 499.648L283.673 499.134L282.471 498.55L281.305 497.896L280.787 497.585L279.49 496.734L278.264 495.78L277.121 494.732L276.066 493.593L275.886 493.383L274.966 492.208L274.15 490.961L273.441 489.648L272.848 488.281L272.731 487.98L272.253 486.534L271.915 485.049L271.721 483.537L271.672 482.014L271.68 481.486L271.774 480.103L272.011 478.737L272.386 477.402L272.898 476.114L273.274 475.295L273.904 474.128L274.684 473.055L275.597 472.093L276.63 471.261L276.923 471.054L278.323 470.246L279.845 469.697L281.439 469.426L283.057 469.443L284.512 469.708L285.905 470.207L287.199 470.924L288.359 471.842L289.191 472.618L289.949 473.389L290.638 474.222L291.251 475.112L291.785 476.051L293.308 479.024L293.517 479.426L293.733 479.824L293.954 480.219L294.181 480.611L295.729 483.228L296.41 484.267L297.181 485.237L298.04 486.134L298.976 486.948L299.601 487.443L300.85 488.296L302.208 488.966L303.645 489.439L305.134 489.706L306.709 489.759L308.275 489.582L309.797 489.177L311.245 488.556L311.673 488.334L312.776 487.687L313.805 486.93L314.751 486.071L315.604 485.12L316.801 483.635L317.374 482.89L317.915 482.12L318.422 481.328L318.893 480.514L320.55 477.505L320.828 477.012L321.115 476.525L321.409 476.042L321.714 475.566L323.697 472.526L324.123 471.805L324.487 471.05L324.782 470.266L325.008 469.459L325.336 468.054L325.511 466.56L325.347 465.065L324.851 463.645L324.048 462.373L323.106 461.414L321.99 460.664L320.748 460.154L319.429 459.903L317.485 459.734L316.805 459.695L316.124 459.698L315.446 459.743L314.77 459.828L312.434 460.195L311.131 460.289L309.829 460.161L308.57 459.817L307.384 459.265L306.037 458.288L304.93 457.045L304.115 455.595L303.629 454.005L303.553 453.609L303.415 452.518L303.418 451.419L303.56 450.33L303.84 449.266L305.063 445.59L305.122 445.41L305.198 445.17L305.593 443.897L306.271 441.53L306.854 439.138L307.341 436.725L307.729 434.294L307.827 433.543L307.918 432.791L307.999 432.038L308.07 431.284L308.35 428.12L308.425 427.239L308.496 426.358L308.559 425.475L308.618 424.593L308.817 421.476L308.873 420.694L308.942 419.914L309.023 419.135L309.118 418.358L309.438 415.892L309.622 414.708L309.869 413.535L310.174 412.376L310.536 411.234L311.271 409.377L312.161 407.589L313.199 405.884L314.379 404.273L315.676 402.655L315.813 402.479L315.994 402.243L318.079 399.42L318.745 398.312L319.187 397.098L319.393 395.823L319.345 394.471L318.987 392.978L318.323 391.659L317.38 390.522L316.207 389.627L315.038 389.076L313.783 388.766L312.491 388.709L311.213 388.908L310.427 389.111L309.253 389.509L308.149 390.073L307.139 390.792L306.246 391.651L305.652 392.312L304.789 393.399L304.063 394.582L303.487 395.844L303.067 397.167L302.804 398.214L302.558 399.378L302.401 400.555L302.331 401.741L302.352 402.93L302.544 406.398L302.56 406.675L302.578 406.952L302.599 407.231L302.621 407.508L302.794 409.56L302.93 411.475L303.018 413.392L303.055 415.311L303.044 417.23L303.008 418.534L302.949 419.835L302.868 421.137L302.764 422.437L302.568 424.632L302.493 425.452L302.412 426.27L302.324 427.088L302.232 427.906L301.832 431.329L301.746 432.008L301.645 432.684L301.532 433.36L301.404 434.031L300.825 436.921L300.578 437.951L300.254 438.96L299.856 439.942L299.385 440.891L298.601 442.336L297.926 443.387L297.108 444.33L296.162 445.144L295.108 445.813L294.587 446.091L293.306 446.628L291.944 446.907L290.554 446.918L289.187 446.661L287.897 446.146L286.73 445.391L285.73 444.426L284.936 443.287L284.612 442.712L284.101 441.637L283.74 440.503L283.534 439.329L283.489 438.139L283.57 435.482L283.6 434.863L283.65 434.244L283.722 433.628L283.814 433.014L284.244 430.438L284.428 429.154L284.554 427.864L284.618 426.567L284.622 425.231L284.523 423.347L284.301 421.514L283.955 419.7L283.489 417.913L283.075 416.638L282.601 415.386L282.065 414.158L281.469 412.956L280.753 411.595L280.224 410.621L279.67 409.661L279.093 408.717L278.491 407.787L277.561 406.391L276.84 405.333L276.096 404.293L275.327 403.268L274.537 402.262L273.783 401.324L272.925 400.293L272.033 399.292L271.106 398.322L270.149 397.384L269.61 396.875L268.495 395.87L267.335 394.919L266.13 394.024L264.883 393.186L263.428 392.312L261.925 391.516L260.385 390.804L258.796 390.17L257.375 389.684L255.945 389.269L254.495 388.921L253.031 388.641L251.992 388.467L250.808 388.286L249.62 388.139L248.429 388.025L247.235 387.944L243.57 387.745L243.374 387.734L243.179 387.724L242.984 387.715L242.789 387.705L238.965 387.525L237.849 387.46L236.733 387.367L235.62 387.248L234.511 387.103L233.114 386.903L231.74 386.674L230.379 386.385L229.031 386.036L227.701 385.627L227.032 385.405L225.664 384.906L224.327 384.329L223.026 383.675L221.765 382.947L221.291 382.656L220.08 381.851L218.927 380.964L217.839 380.001L216.819 378.964L216.586 378.711L215.588 377.533L214.69 376.279L213.896 374.955L213.211 373.571L212.62 372.074L212.156 370.53L211.824 368.953L211.625 367.314L211.559 365.762L211.614 364.25L211.786 362.747L212.074 361.262L212.167 360.863L212.548 359.451L213.021 358.067L213.585 356.718L214.237 355.408L214.657 354.629L215.299 353.501L215.992 352.402L216.734 351.336L217.523 350.304L218.29 349.346L219.123 348.339L219.986 347.357L220.88 346.403L221.802 345.476L223.396 343.927L223.975 343.367L224.561 342.815L225.153 342.269L225.749 341.728L226.482 341.071L227.895 339.771L229.272 338.434L230.615 337.062L231.919 335.653L233.021 334.433L233.344 334.081L233.673 333.735L234.009 333.396L234.35 333.062L237.77 329.78L238.004 329.53L238.213 329.259L238.393 328.968L238.543 328.66L238.615 328.492L238.864 326.878L238.303 325.343L237.074 324.269L235.479 323.917L234.877 323.994L234.301 324.18L233.768 324.469L233.297 324.85L230.201 327.874L229.898 328.178L229.604 328.491L229.32 328.813L229.046 329.143L228.474 329.854L226.95 331.599L225.295 333.221L223.519 334.711L221.633 336.057L220.539 336.776L220.34 336.907L220.138 337.036L219.937 337.164L219.735 337.291L218.811 337.865L216.746 339.176L214.708 340.528L212.698 341.92L210.713 343.349L209.518 344.229L209.407 344.311L206.158 346.711L205.199 347.4L204.222 348.062L203.226 348.697L202.214 349.305L201.48 349.733L200.066 350.512L198.617 351.223L197.136 351.866L195.627 352.438L194.103 352.933L192.559 353.358L190.998 353.711L189.42 353.989L188.707 354.099L187.459 354.27L186.207 354.404L184.952 354.5L183.694 354.558L181.261 354.635L180.509 354.655L179.757 354.669L179.004 354.675L178.251 354.675L175.347 354.66L174.321 354.657L173.297 354.659L172.271 354.665L171.246 354.675L170.321 354.686L168.579 354.713L166.837 354.752L165.095 354.801L163.354 354.863L160.963 354.956L160.672 354.968L160.38 354.978L160.089 354.988L159.798 354.997L155.985 355.114L154.955 355.136L153.924 355.135L152.894 355.114L151.865 355.071L150.074 354.978L148.782 354.884L147.494 354.731L146.214 354.523L144.944 354.258L144.043 354.05L142.638 353.676L141.259 353.213L139.914 352.662L138.606 352.024L138.257 351.839L136.916 351.062L135.64 350.184L134.435 349.208L133.31 348.143L132.21 346.92L131.214 345.609L130.33 344.223L129.563 342.767L129.403 342.431L128.853 341.173L128.381 339.884L127.99 338.568L127.681 337.23L127.444 336.04L127.226 334.819L127.057 333.591L126.934 332.357L126.86 331.119L126.704 327.265L126.695 327.069L126.533 322.649L126.478 321.674L126.385 320.702L126.253 319.733L126.083 318.771L125.818 317.422L125.452 315.923L124.953 314.462L124.325 313.052L123.574 311.704L122.641 310.345L121.584 309.082L120.41 307.926L119.132 306.887L117.48 305.672L117.045 305.359L116.604 305.054L116.157 304.757L115.669 304.447L113.347 303.137L110.958 302.054L108.482 301.185L105.94 300.536L105.185 300.378L105.002 300.34L104.817 300.303L104.634 300.268L104.448 300.232L102.534 299.875L100.505 299.475L98.4851 299.035L96.4746 298.554L94.4734 298.031L93.3549 297.721L92.2405 297.398L91.1289 297.061L90.0215 296.712L87.2817 295.832L86.6808 295.64L86.081 295.451L85.4787 295.263L84.8775 295.078L83.7716 294.74L81.8338 294.162L79.8887 293.613L77.9352 293.092L75.9746 292.599L74.7994 292.318L73.6219 292.047L72.4421 291.787L71.2614 291.537L69.1975 291.109L68.2506 290.906L67.307 290.691L66.3662 290.463L65.4285 290.222L63.8585 289.809L62.4641 289.418L61.0827 288.984L59.7155 288.507L58.3637 287.988L57.5101 287.645L56.2983 287.131L55.1072 286.571L53.9383 285.966L52.7933 285.317L51.9432 284.814L50.7511 284.062L49.6022 283.247L48.5001 282.369L47.4478 281.432L47.22 281.217L46.0646 280.05L44.9941 278.805L44.0136 277.488L43.1281 276.105L42.3803 274.74L41.7249 273.327L41.1652 271.875L40.7034 270.388L40.619 270.08L40.2672 268.636L39.9992 267.173L39.8162 265.697L39.7187 264.213L39.6562 262.512L39.6336 261.637L39.6298 260.761L39.6452 259.885L39.6794 259.01L39.8496 255.606L39.8838 254.958L39.9217 254.31L39.9628 253.662L40.0077 253.015L40.2766 249.278L40.3282 248.572L40.382 247.866L40.4377 247.16L40.4952 246.455L40.8693 241.945L40.8911 241.686L40.9138 241.427L40.9374 241.169L40.9689 240.839L41.1988 237.883L41.3151 234.992L41.3241 232.098L41.2259 229.204L41.2082 228.879L41.1893 228.558L41.1691 228.237L41.1476 227.915L40.9109 224.496L40.8511 223.305L40.8358 222.113L40.8653 220.921L40.9395 219.731L41.0646 218.189L41.2049 216.95L41.4236 215.722L41.7196 214.511L42.092 213.32L42.4806 212.204L42.9853 210.955L43.6101 209.761L44.3491 208.634L45.1951 207.586L45.832 206.871L46.7627 205.953L47.8038 205.164L48.9382 204.516L50.1466 204.019L51.0219 203.724L52.2721 203.419L53.556 203.331L54.836 203.464L56.0747 203.814L56.4696 203.963L57.7224 204.595L58.8129 205.479L59.6913 206.573L60.318 207.829L60.6614 209.168L60.7179 210.548L60.485 211.911L59.973 213.194L59.295 214.482L58.886 215.186L58.4202 215.855L57.9009 216.482L57.3314 217.064L55.9105 218.401L54.9111 219.406L53.9799 220.474L53.1211 221.601L52.3383 222.783L52.2341 222.952L51.4262 224.374L50.7213 225.849L50.1229 227.371L49.634 228.931L49.4008 229.78L49.1243 230.869L48.8897 231.968L48.6977 233.074L48.5484 234.188L48.2145 237.103L48.1455 237.732L48.0824 238.361L48.0252 238.991L47.974 239.622L47.7295 242.815L47.6514 243.809L47.5691 244.801L47.4828 245.793L47.3921 246.785L47.0652 250.285L47.0204 250.759L46.9745 251.234L46.9279 251.708L46.8802 252.183L46.3923 256.992L46.3602 257.327L46.332 257.662L46.3077 257.998L46.2872 258.333L46.0892 261.91L46.0819 262.997L46.1801 264.08L46.3829 265.148L46.6884 266.192L47.2625 267.85L47.7194 268.871L48.3471 269.796L49.1265 270.598L50.0338 271.252L50.9082 271.772L51.9609 272.231L53.0946 272.411L54.2374 272.302L55.3168 271.912L56.2676 271.26L57.0243 270.391L57.5387 269.359L57.7778 268.232L57.8976 266.775L57.9135 265.841L57.808 264.913L57.5831 264.007L57.2424 263.137L56.0368 260.566L55.695 259.789L55.3906 258.997L55.1242 258.192L54.8962 257.375L54.6449 256.384L54.256 254.617L53.9798 252.828L53.8173 251.026L53.7692 249.217L53.7773 247.625L53.7848 247.012L53.8018 246.4L53.8276 245.788L53.8627 245.176L54.0667 242.029L54.1488 240.993L54.2605 239.961L54.4019 238.932L54.5727 237.908L54.6865 237.281L55.0702 235.477L55.5612 233.698L56.1575 231.952L56.8572 230.245L57.4309 229.029L58.057 227.838L58.7343 226.676L59.4618 225.545L60.7192 223.68L61.1463 223.056L61.5815 222.437L62.025 221.825L62.4768 221.218L63.7359 219.55L64.6095 218.424L65.512 217.32L66.4429 216.241L67.4014 215.186L67.5495 215.027L68.7186 213.814L69.9266 212.64L71.1724 211.506L72.5054 210.371L73.7042 209.411L74.879 208.527L76.0796 207.679L77.305 206.867L77.7494 206.582L79.0144 205.802L80.3061 205.067L81.623 204.379L82.9637 203.737L84.5486 203.052L86.1606 202.433L87.7966 201.881L89.4539 201.396L89.7654 201.312L91.0503 200.985L92.344 200.695L93.6457 200.443L94.9541 200.229L97.741 199.813L98.2286 199.742L98.7164 199.673L99.2047 199.607L99.6933 199.543L102.84 199.141L103.981 198.989L105.12 198.824L106.257 198.646L107.393 198.456L108.419 198.278L109.949 197.997L111.473 197.686L112.99 197.344L114.5 196.972L116.112 196.539L117.715 196.071L119.307 195.569L120.889 195.033L121.27 194.899L122.545 194.441L123.812 193.962L125.072 193.464L126.324 192.946L129.076 191.783L129.426 191.634L129.776 191.485L130.125 191.334L130.474 191.183L133.873 189.704L134.79 189.316L135.714 188.945L136.646 188.593L137.584 188.26L139.347 187.653L140.576 187.259L141.82 186.92L143.079 186.636L144.348 186.408L145.379 186.245L146.755 186.074L148.14 185.992L149.527 186L150.91 186.098L151.606 186.169L153.026 186.376L154.425 186.7L155.791 187.14L157.116 187.69L157.489 187.865L158.818 188.565L160.071 189.394L161.237 190.343L162.302 191.401L163.326 192.652L164.211 194.004L164.949 195.443L165.528 196.953L165.923 198.413L166.172 199.903L166.269 201.41L166.219 202.919L166.2 203.152L166.002 204.661L165.666 206.146L165.192 207.592L164.553 209.06L163.776 210.489L162.914 211.774L161.94 212.977L160.863 214.089L160.352 214.571L159.389 215.424L158.376 216.217L157.316 216.945L156.215 217.609L154.891 218.352L153.862 218.906L152.814 219.424L151.749 219.905L150.667 220.348L147.028 221.767L146.879 221.825L146.681 221.902L143.196 223.239L142.011 223.718L140.842 224.237L139.69 224.793L138.534 225.402L136.862 226.37L135.267 227.407L133.726 228.523L132.243 229.715L131.257 230.579L130.301 231.477L129.378 232.409L128.487 233.371L126.631 235.447L126.279 235.836L125.926 236.223L125.569 236.607L125.208 236.987L124.345 237.893L122.886 239.36L121.368 240.767L119.793 242.108L118.165 243.385L117.235 244.065L116.29 244.724L115.332 245.362L114.357 245.976L112.401 247.181L111.624 247.681L110.869 248.211L110.134 248.771L109.424 249.361L108.498 250.16L107.311 251.293L106.239 252.537L105.295 253.88L104.486 255.309L103.863 256.702L103.369 258.146L103.007 259.627L102.783 261.137L102.656 262.368L102.573 263.425L102.537 264.484L102.548 265.543L102.606 266.601L102.772 268.713L102.872 269.816L102.997 270.914L103.149 272.01L103.326 273.102L103.617 274.775L103.851 276.025L104.115 277.268L104.412 278.506L104.738 279.735L105.158 281.24L105.494 282.361L105.872 283.469L106.292 284.561L106.755 285.637L106.968 286.111L107.754 287.705L108.642 289.242L109.63 290.717L110.713 292.123L111.653 293.202L112.648 294.229L113.697 295.202L114.796 296.117L116.501 297.46L117.063 297.892L117.635 298.309L118.218 298.711L118.809 299.098L120.394 300.106L121.735 300.878L123.141 301.529L124.598 302.053L126.095 302.446L127.698 302.715L129.319 302.835L130.944 302.803L132.559 302.62L132.757 302.589L134.188 302.301L135.593 301.902L136.961 301.393L138.286 300.779L138.605 300.617L139.961 299.855L141.259 298.996L142.487 298.041L143.641 296.997L143.861 296.784L144.895 295.708L145.856 294.568L146.742 293.367L147.547 292.111L147.948 291.437L148.601 290.279L149.202 289.092L149.746 287.878L150.235 286.641L150.571 285.728L151.033 284.401L151.446 283.057L151.812 281.7L152.13 280.331L152.172 280.127L152.495 278.445L152.748 276.751L152.934 275.048L153.051 273.32L153.097 271.811L153.09 270.32L153.03 268.831L152.918 267.344L152.843 266.528L152.705 265.209L152.535 263.894L152.333 262.584L152.099 261.279L151.647 258.924L151.511 258.232L151.372 257.542L151.227 256.852L151.078 256.164L150.287 252.571L150.142 251.901L150.001 251.229L149.865 250.556L149.733 249.882L149.157 246.868L148.98 245.876L148.829 244.879L148.703 243.878L148.604 242.875L148.419 240.742L148.352 239.598L148.35 238.453L148.412 237.309L148.539 236.171L148.727 234.819L148.986 233.466L149.381 232.145L149.906 230.871L150.557 229.657L150.678 229.456L151.632 228.084L152.757 226.847L154.034 225.768L155.441 224.864L156.767 224.226L158.158 223.745L159.594 223.426L161.057 223.275L161.523 223.254L162.976 223.259L164.421 223.407L165.846 223.696L167.235 224.124L169.164 224.823L169.827 225.074L170.483 225.344L171.132 225.633L171.772 225.939L174.265 227.177L175.281 227.665L176.308 228.124L177.347 228.557L178.397 228.961L179.053 229.203L180.705 229.767L182.383 230.249L184.082 230.646L185.8 230.958L187.254 231.154L188.716 231.29L190.181 231.363L191.649 231.376L193.474 231.354L194.315 231.337L195.155 231.308L195.996 231.266L196.836 231.212L199.708 231.007L200.654 230.946L201.601 230.898L202.549 230.865L203.497 230.846L204.907 230.826L206.481 230.832L208.052 230.892L209.62 231.008L211.184 231.177L212.814 231.412L214.434 231.707L216.043 232.06L217.639 232.472L218.266 232.646L219.465 232.994L220.655 233.37L221.838 233.773L223.01 234.203L225.28 235.064L225.994 235.338L226.707 235.618L227.417 235.901L228.125 236.192L231.72 237.675L232.201 237.875L232.68 238.076L233.159 238.28L233.638 238.485L236.841 239.866L237.723 240.256L238.598 240.666L239.464 241.092L240.321 241.535L242.055 242.456L243.169 243.08L244.251 243.755L245.3 244.481L246.315 245.256L247.2 245.966L248.229 246.853L249.192 247.809L250.084 248.832L250.904 249.916L251.453 250.698L252.167 251.826L252.771 253.014L253.26 254.255L253.632 255.537L253.821 256.323L254.055 257.68L254.12 259.055L254.011 260.428L253.732 261.777L253.646 262.089L253.15 263.485L252.453 264.791L251.569 265.98L250.519 267.023L249.324 267.899L248.012 268.587L246.613 269.073L245.157 269.346L244.758 269.391L243.426 269.458L242.097 269.37L240.787 269.123L239.515 268.723L237.495 267.955L236.813 267.681L236.141 267.382L235.482 267.06L234.834 266.714L232.728 265.538L231.599 264.954L230.435 264.444L229.241 264.009L228.021 263.651L226.197 263.27L224.344 263.061L222.479 263.026L220.568 263.174L219.285 263.369L218.07 263.634L216.873 263.971L215.698 264.381L213.04 265.4L212.526 265.601L212.015 265.809L211.505 266.023L210.999 266.244L208.999 267.129L207.547 267.761L206.088 268.375L204.623 268.973L203.148 269.551L200.078 270.736L196.08 272.273L195.075 272.68L194.086 273.122L193.114 273.6L192.16 274.112L190.866 274.837L189.693 275.549L188.572 276.34L187.509 277.209L186.51 278.149L186.008 278.656L185.046 279.72L184.185 280.867L183.431 282.087L182.791 283.37L182.564 283.885L182.06 285.213L181.7 286.587L181.492 287.993L181.436 289.413L181.442 289.917L181.554 291.344L181.845 292.744L182.312 294.097L182.946 295.378L183.038 295.539L183.901 296.813L184.939 297.949L186.13 298.923L187.448 299.715L188.847 300.302L190.316 300.683L191.823 300.851L193.339 300.803L194.237 300.711L195.394 300.541L196.533 300.273L197.645 299.909L198.722 299.451L201.729 298.018L202.076 297.855L202.424 297.697L202.774 297.543L203.126 297.392L205.289 296.481L206.822 295.907L208.395 295.454L210 295.128L211.625 294.93L213.168 294.861L214.712 294.908L216.246 295.069L217.766 295.345L220.161 295.871L220.597 295.969L221.031 296.073L221.464 296.182L221.896 296.296L224.195 296.919L225.731 297.297L227.281 297.599L228.845 297.828L230.418 297.983L232.045 298.062L233.675 298.061L235.303 297.981L236.924 297.819L239.858 297.455L240.031 297.433L240.264 297.403L244.087 296.897L245.284 296.771L246.486 296.708L247.688 296.706L248.89 296.767L249.966 296.85L251.403 297.024L252.82 297.32L254.207 297.737L255.553 298.272L256.009 298.476L257.317 299.143L258.55 299.94L259.696 300.858L260.743 301.888L261.014 302.183L261.949 303.329L262.745 304.576L263.391 305.906L263.878 307.302L263.928 307.473L264.257 308.998L264.389 310.555L264.317 312.115L264.044 313.652L263.576 315.142L262.919 316.559L262.083 317.878L261.085 319.08L260.334 319.874L259.573 320.626L258.764 321.327L257.911 321.972L257.017 322.559L254.58 324.048L253.966 324.433L253.358 324.829L252.758 325.236L252.166 325.655L248.694 328.161L248.401 328.376L248.109 328.593L247.819 328.813L247.531 329.034L243.312 332.328L243.168 332.45L243.033 332.583L242.907 332.724L242.791 332.874L242.332 334.088L242.519 335.374L243.306 336.406L244.495 336.927L246.436 337.239L246.584 337.26L246.781 337.279L248.091 337.352L249.911 337.712L251.562 338.557L252.916 339.821L253.872 341.411L254.162 342.238L254.341 343.096L254.406 343.969L254.358 344.844L254.065 347.228L253.975 348.327L253.973 349.43L254.059 350.53L254.234 351.619L254.308 351.983L254.777 353.683L255.482 355.302L256.408 356.804L257.536 358.161L258.515 359.078L259.587 359.885L260.74 360.572L261.959 361.132L262.945 361.522L264.146 361.915L265.387 362.163L266.648 362.26L267.911 362.206L268.827 362.11L270.158 361.858L271.425 361.383L272.595 360.7L273.632 359.829L274.675 358.544L275.43 357.072L275.865 355.475L275.959 353.823L275.887 352.251L275.835 351.576L275.744 350.904L275.614 350.24L275.444 349.584L274.726 347.104L274.402 345.89L274.134 344.664L273.92 343.428L273.76 342.183L273.717 341.788L273.592 340.031L273.588 338.27L273.704 336.513L273.941 334.767L274.225 333.35L274.589 331.95L275.029 330.572L275.549 329.223L275.832 328.545L276.407 327.27L277.058 326.032L277.78 324.834L278.571 323.68L279.019 323.067L279.903 321.947L280.869 320.897L281.912 319.925L283.026 319.033L283.592 318.614L284.763 317.831L286.002 317.16L287.297 316.607L288.638 316.177L289.158 316.037L290.61 315.736L292.086 315.603L293.568 315.643L295.037 315.854L296.617 316.282L298.129 316.908L299.55 317.723L300.877 318.731L301.932 319.747L302.849 320.851L303.638 322.049L304.292 323.326L304.714 324.278L305.16 325.384L305.531 326.518L305.826 327.676L306.041 328.85L306.478 331.793L306.551 332.312L306.618 332.834L306.678 333.356L306.731 333.879L306.996 336.67L307.139 337.962L307.327 339.251L307.556 340.531L307.828 341.804L307.873 341.996L308.325 343.752L308.861 345.483L309.482 347.186L310.185 348.857L310.782 350.12L311.425 351.358L312.115 352.572L312.85 353.759L313.88 355.355L314.361 356.088L314.851 356.813L315.352 357.531L315.862 358.242L317.593 360.62L318.109 361.336L318.618 362.059L319.12 362.788L319.614 363.521L320.439 364.762L321.305 366.105L322.132 367.47L322.921 368.859L323.671 370.269L324.393 371.725L325.071 373.199L325.708 374.693L326.301 376.204L326.655 377.144L327.028 378.176L327.375 379.218L327.695 380.268L327.988 381.327L328.483 383.213L328.748 384.331L328.956 385.46L329.108 386.599L329.202 387.744L329.26 388.741L329.281 390.28L329.167 391.815L328.918 393.333L328.537 394.824L328.005 396.325L327.34 397.771L326.546 399.151L325.629 400.452L323.998 402.558L323.849 402.748L323.698 402.936L323.544 403.122L323.387 403.305L320.939 406.141L320.307 407.004L319.818 407.955L319.485 408.972L319.315 410.028L319.383 411.658L319.837 413.223L320.653 414.635L321.782 415.811L322.65 416.414L323.602 416.875L324.614 417.182L325.66 417.327L328.852 417.52L329.341 417.557L329.828 417.609L330.313 417.673L330.797 417.754L333.138 418.174L334.556 418.526L335.917 419.06L337.196 419.767L338.372 420.634L339.491 421.721L340.448 422.953L341.225 424.306L341.805 425.754L341.954 426.215L342.281 427.432L342.488 428.675L342.572 429.932L342.533 431.191L342.296 434.165L342.258 434.588L342.213 435.011L342.161 435.433L342.104 435.855L341.639 438.996L341.53 440.186L341.548 441.381L341.696 442.568L341.97 443.731L342.092 444.146L342.663 445.63L343.467 447.002L344.482 448.225L345.682 449.268L346.837 449.999L348.084 450.562L349.397 450.946L350.751 451.143L351.709 451.214L352.945 451.248L354.179 451.165L355.4 450.967L356.596 450.654L358.07 450.194L359.173 449.815L360.255 449.377L361.311 448.879L362.339 448.325L363.648 447.569L364.753 446.905L365.833 446.201L366.886 445.456L367.911 444.674L368.722 444.031L369.809 443.132L370.86 442.19L371.871 441.206L372.84 440.181L373.196 439.792L374.199 438.629L375.141 437.417L376.019 436.157L376.831 434.853L377.632 433.396L378.353 431.897L378.986 430.358L379.557 428.716L379.988 427.241L380.331 425.821L380.606 424.386L380.813 422.94L380.941 421.874L381.068 420.664L381.16 419.451L381.218 418.237L381.241 417.021L381.255 413.986L381.255 413.493L381.253 413L381.249 412.508L381.242 412.015L381.186 408.59L381.177 407.566L381.182 406.541L381.204 405.517L381.239 404.493L381.334 402.267L381.397 401.181L381.494 400.098L381.626 399.019L381.792 397.944L382.016 396.628L382.303 395.199L382.68 393.791L383.142 392.408L383.705 391.019L384.452 389.47L385.291 388.017L386.233 386.628L387.273 385.311L388.281 384.201L389.358 383.159L390.5 382.188L391.704 381.295L392.138 380.992L393.333 380.209L394.568 379.489L395.839 378.835L397.141 378.248L398.677 377.604L399.555 377.247L400.442 376.91L401.335 376.593L402.234 376.294L405.107 375.378L405.847 375.15L406.59 374.936L407.338 374.735L408.088 374.55L410.182 374.05L411.521 373.773L412.872 373.575L414.235 373.457L415.602 373.419L417.397 373.491L419.183 373.702L420.945 374.051L422.676 374.536L423.233 374.716L424.261 375.068L425.274 375.464L426.269 375.899L427.246 376.374L429.524 377.539L430.296 377.92L431.078 378.279L431.87 378.616L432.672 378.931L433.903 379.394L435.483 379.919L437.098 380.323L438.74 380.603L440.396 380.756L441.887 380.787L443.374 380.715L444.854 380.542L446.318 380.269L448.779 379.722L449.234 379.626L449.691 379.544L450.15 379.473L450.61 379.414L453.007 379.135L454.449 379.073L455.883 379.222L457.282 379.576L458.616 380.13L459.864 380.877L460.989 381.799L461.968 382.875L462.779 384.084L463.818 385.904L464.133 386.483L464.424 387.073L464.692 387.673L464.938 388.284L465.979 391.031L466.334 392.067L466.623 393.123L466.843 394.196L466.996 395.281L467.064 395.908L467.147 397.592L467.036 399.274L466.73 400.933L466.234 402.544L465.679 403.842L465 405.079L464.203 406.244L463.299 407.327L462.144 408.582L461.515 409.238L460.862 409.869L460.185 410.474L459.485 411.052L457.177 412.878L456.525 413.417L455.894 413.982L455.287 414.572L454.704 415.186L453.41 416.603L452.553 417.652L451.816 418.789L451.206 420L450.733 421.271L450.342 422.897L450.176 424.562L450.235 426.234L450.529 427.927L450.93 429.276L451.457 430.53L452.114 431.721L452.896 432.835L453.666 433.818L454.415 434.714L455.219 435.561L456.077 436.356L456.981 437.095L459.215 438.805L459.72 439.207L460.207 439.627L460.68 440.067L461.134 440.523L462.331 441.772L463.329 442.976L464.143 444.308L464.761 445.745L465.165 447.254L465.343 448.666L465.336 450.088L465.144 451.497L464.77 452.869L464.012 455.072L463.812 455.627L463.595 456.176L463.362 456.718L463.112 457.252L461.97 459.608L461.403 460.809L460.863 462.022L460.347 463.246L459.856 464.479L459.776 464.687L459.158 466.361L458.584 468.051L458.053 469.754L457.557 471.503L457.197 472.898L456.872 474.266L456.576 475.64L456.307 477.02L455.851 479.495L455.75 480.051L455.651 480.606L455.555 481.162L455.46 481.718L454.832 485.485L454.703 486.23L454.563 486.973L454.411 487.712L454.249 488.451L453.6 491.31L453.354 492.282L453.063 493.241L452.726 494.185L452.345 495.113L451.896 496.134L451.187 497.547L450.341 498.882L449.364 500.124L448.266 501.261L447.599 501.886L446.742 502.611L445.816 503.246L444.831 503.785L443.797 504.223L442.018 504.71L440.182 504.896L438.343 504.779L436.546 504.36L435.55 504.039L434.821 503.781L434.108 503.485L433.412 503.15L432.735 502.779L431.026 501.778L429.79 501.017L428.591 500.203L427.429 499.334L426.307 498.415L425.383 497.623L424.511 496.855L423.657 496.065L422.825 495.254L422.013 494.422L419.978 492.282L419.57 491.856L419.159 491.432L418.746 491.01L418.332 490.591L416.548 488.799L415.568 487.838L414.568 486.901L413.545 485.986L412.501 485.095L411.048 483.884L410.359 483.292L409.69 482.679L409.039 482.044L408.409 481.39L406.521 479.364L405.924 478.671L405.383 477.933L404.904 477.155L404.486 476.341L403.774 474.343L403.439 472.248L403.491 470.127L403.931 468.051L404.525 466.132L405.785 462.193L406.159 461.097L406.575 460.016L407.033 458.952L407.531 457.907L407.838 457.295L408.657 455.792L409.577 454.349L410.594 452.972L411.702 451.667L412.602 450.681L413.144 450.048L413.648 449.383L414.112 448.689L414.533 447.969L416.054 445.177L416.477 444.532L417 443.967L417.61 443.497L418.289 443.133L420.175 442.314L421.054 441.699L421.62 440.788L421.785 439.728L421.522 438.688L421.232 438.089L421.016 437.126L421.248 436.167L421.881 435.411Z" fill="#190B2F"/>
</svg>
