<svg width="404" height="514" viewBox="0 0 404 514" fill="none" xmlns="http://www.w3.org/2000/svg">
<path d="M143.349 449.762L143.497 451.402L143.697 452.66L143.349 453.885L142.519 454.851L141.36 455.378L139.709 455.731L138.47 455.816L137.257 455.551L136.166 454.958L135.285 454.082L132.568 450.487L132.147 449.89L131.762 449.267L131.421 448.621L131.119 447.954L129.218 443.355L128.57 441.858L127.876 440.383L127.131 438.931L126.342 437.504L123.713 432.931L123.433 432.428L123.17 431.916L122.921 431.397L122.688 430.87L121.421 427.883L120.216 425.71L118.585 423.836L116.598 422.343L114.344 421.297L112.656 420.856L110.92 420.667L109.177 420.735L107.463 421.059L104.967 421.722L103.377 422.215L101.834 422.837L100.346 423.582L98.9243 424.447L97.3393 425.501L95.5643 426.772L93.8819 428.16L92.2969 429.66L90.819 431.266L90.3174 431.849L88.9101 433.59L87.6075 435.412L86.4169 437.309L85.3408 439.273L84.7564 440.422L83.9116 442.167L83.1373 443.945L82.4361 445.753L81.8055 447.587L81.2285 449.387L80.6758 451.264L80.2132 453.164L79.8382 455.084L79.5558 457.02L79.4048 458.245L79.2076 460.486L79.1662 462.736L79.2807 464.983L79.5485 467.217L80.0354 469.71L80.7147 472.158L81.5815 474.545L82.6577 476.908L83.729 478.884L84.9001 480.736L86.1905 482.507L87.5929 484.19L88.6326 485.357L89.8864 486.708L91.1964 488.007L92.5574 489.252L93.9671 490.44L98.3448 493.979L98.5639 494.155L98.8561 494.389L105.199 499.446L105.715 499.858L106.236 500.267L106.757 500.674L107.28 501.079L111.799 504.56L112.875 505.365L113.971 506.142L115.086 506.889L116.221 507.606L118.215 508.828L120.236 509.973L122.332 510.976L124.489 511.832L126.702 512.536L129.093 513.115L131.518 513.517L133.968 513.741L136.427 513.785L137.133 513.772L139.117 513.684L141.092 513.494L143.054 513.202L145.002 512.809L147.878 512.151L149.214 511.83L150.546 511.482L151.868 511.107L153.183 510.704L155.769 509.883L157.802 509.284L159.859 508.767L161.933 508.335L164.023 507.987L166.703 507.667L169.396 507.487L172.095 507.447L174.792 507.546L175.938 507.618L177.489 507.734L179.038 507.889L180.581 508.082L182.12 508.313L187.676 509.217L188.154 509.294L188.633 509.37L189.112 509.444L189.591 509.517L194.536 510.266L196.389 510.523L198.248 510.734L200.111 510.898L201.978 511.017L203.114 511.074L205.517 511.149L207.922 511.129L210.324 511.014L212.719 510.804L215.128 510.496L217.523 510.093L219.9 509.594L222.255 509.001L222.704 508.879L224.794 508.271L226.863 507.596L228.909 506.853L230.93 506.044L231.972 505.607L233.902 504.769L235.81 503.883L237.696 502.95L239.558 501.969L240.704 501.347L242.536 500.33L244.347 499.279L246.139 498.193L247.91 497.073L249.82 495.84L251.173 494.945L252.506 494.022L253.819 493.071L255.112 492.091L257.566 490.189L258.868 489.136L260.122 488.028L261.329 486.867L262.485 485.657L263.884 484.127L265.24 482.52L266.463 480.812L267.546 479.011L268.482 477.129L268.614 476.837L269.511 474.537L270.174 472.159L270.598 469.728L270.777 467.266L270.728 465.035L270.478 462.817L270.029 460.631L269.386 458.494L268.87 457.026L268.247 455.389L267.538 453.788L266.746 452.225L265.873 450.707L262.844 445.745L262.701 445.511L262.508 445.199L261.673 443.856L259.632 440.503L257.653 437.113L255.739 433.686L253.89 430.223L253.371 429.229L253.201 428.904L253.029 428.58L252.855 428.257L252.68 427.934L250.447 423.836L249.37 421.98L248.194 420.186L246.923 418.458L245.56 416.801L243.767 414.871L241.849 413.064L239.815 411.388L237.675 409.851L236.883 409.322L235.459 408.406L234.002 407.543L232.516 406.733L231 405.977L228.159 404.623L226.717 403.978L225.246 403.402L223.749 402.895L222.23 402.461L220.589 402.033L218.293 401.551L215.961 401.29L213.615 401.253L211.276 401.44L208.987 401.845L206.746 402.464L204.573 403.293L202.489 404.323L201.669 404.779L199.984 405.788L198.37 406.908L196.835 408.133L195.385 409.458L193.63 411.171L192.489 412.324L191.387 413.516L190.327 414.743L189.309 416.007L187.006 418.965L186.149 420.011L185.24 421.011L184.281 421.964L183.274 422.866L181.522 424.357L179.764 425.674L177.854 426.76L175.824 427.598L173.704 428.176L171.377 428.495L169.027 428.5L166.698 428.19L164.432 427.571L164.079 427.449L162.162 426.664L160.341 425.674L158.642 424.49L157.081 423.127L155.513 421.598L154.422 420.475L153.397 419.294L152.435 418.059L151.542 416.774L149.236 413.251L148.576 412.275L147.89 411.318L147.176 410.381L146.439 409.464L144.905 407.617L143.288 405.833L141.523 404.195L139.621 402.716L137.603 401.406L135.572 400.322L133.461 399.41L131.28 398.674L129.047 398.122L126.444 397.591L125.298 397.373L124.146 397.185L122.989 397.029L121.83 396.903L118.368 396.575L116.433 396.357L114.507 396.072L112.588 395.721L110.601 395.283L107.833 394.552L105.189 393.706L102.589 392.725L100.044 391.614L98.206 390.712L96.4019 389.741L94.6342 388.702L92.908 387.599L90.7946 386.191L89.5334 385.335L88.2868 384.457L87.0573 383.558L85.8399 382.637L84.1404 381.326L82.3606 379.933L80.6052 378.514L78.8692 377.069L77.1551 375.598L76.824 375.308L75.0466 373.737L73.2936 372.141L71.5649 370.52L69.8582 368.875L68.3194 367.369L67.3162 366.378L66.3229 365.377L65.3392 364.367L64.3653 363.347L62.4979 361.368L61.0857 359.837L59.7101 358.272L58.3734 356.675L57.0757 355.046L56.4889 354.291L55.1181 352.466L53.8058 350.598L52.5519 348.689L51.3613 346.741L50.8476 345.871L49.8371 344.085L48.89 342.264L48.0086 340.411L47.1954 338.527L46.7012 337.326L45.9391 335.335L45.2744 333.31L44.7071 331.255L44.2396 329.175L44.1568 328.761L43.7502 326.334L43.4922 323.887L43.3826 321.43L43.4191 318.969L43.5944 316.639L43.9036 314.323L44.3443 312.029L44.9165 309.764L45.0821 309.178L45.7248 307.102L46.465 305.058L47.3001 303.052L48.2302 301.088L48.6319 300.289L49.6643 298.334L50.7745 296.423L51.9602 294.557L53.219 292.74L54.1467 291.456L55.2399 289.982L56.3696 288.534L57.5334 287.115L58.7337 285.724L62.2203 281.777L62.4784 281.487L62.7341 281.198L62.9921 280.909L63.2502 280.621L66.4933 277.014L67.869 275.499L69.2592 273.998L70.6616 272.511L72.0811 271.037L74.0508 269.038L76.0473 267.064L78.0706 265.118L80.1182 263.197L81.8323 261.612L82.4799 261.013L83.1251 260.409L83.7704 259.806L84.4107 259.199L89.2339 254.632L89.7087 254.181L90.1835 253.731L90.6558 253.28L91.1282 252.828L96.8815 247.306L97.1177 247.082L97.4342 246.785L102.873 241.708L103.604 241.077L104.381 240.5L105.199 239.987L106.051 239.534L109.856 237.696L111.086 237.282L112.384 237.189L113.659 237.42L114.84 237.963L116.211 239.205L117.058 240.851L117.27 242.689L116.825 244.484L116.204 245.862L115.612 246.918L114.845 247.853L113.927 248.64L112.885 249.256L108.525 251.34L107.504 251.863L106.513 252.445L105.559 253.081L104.644 253.772L101.223 256.504L100.071 257.446L98.9438 258.42L97.8432 259.421L96.7671 260.451L94.7316 262.447L93.3365 263.794L91.9195 265.116L90.4806 266.414L89.0172 267.687L85.7742 270.465L85.1849 270.978L84.603 271.501L84.0333 272.034L83.4709 272.577L80.8535 275.149L79.3634 276.749L78.0195 278.473L76.8313 280.309L75.8087 282.243L74.864 284.519L74.1506 286.878L73.6758 289.296L73.4397 291.749L73.3252 294.255L73.2912 295.323L73.2887 296.392L73.3155 297.46L73.3715 298.527L73.6101 301.998L73.7148 304.039L73.7513 306.083L73.7172 308.126L73.6125 310.168L73.3618 312.923L72.9844 315.663L72.4804 318.383L71.8522 321.078L70.9806 324.459L70.8978 324.781L70.8175 325.103L70.7371 325.426L70.6592 325.749L69.5319 330.494L69.118 332.507L68.8355 334.541L68.6797 336.59L68.6529 338.645L68.8161 341.333L69.2008 344L69.8046 346.625L70.6495 349.258L71.4164 351.186L72.2734 352.999L73.2352 354.758L74.3016 356.456L75.799 358.688L76.6438 359.915L77.5252 361.119L78.4358 362.298L79.378 363.453L82.1074 366.709L82.9158 367.643L83.7533 368.552L84.6152 369.436L85.5063 370.293L88.7226 373.297L89.7769 374.199L90.9042 375.004L92.0997 375.708L93.3511 376.304L94.028 376.59L96.5601 377.389L99.197 377.694L101.846 377.496L104.407 376.8L106.063 376.051L107.607 375.094L109.014 373.944L110.258 372.622L113.467 368.738L113.776 368.371L114.088 368.008L114.407 367.651L114.731 367.297L115.761 366.189L118.261 363.612L120.866 361.141L123.576 358.784L126.381 356.543L127.703 355.533L128.042 355.273L128.38 355.012L128.716 354.749L129.05 354.485L132.168 352.019L134.065 350.486L135.928 348.911L137.754 347.295L139.543 345.64L141.277 343.963L142.976 342.25L144.634 340.499L146.256 338.713L148.087 336.65L148.791 335.852L149.484 335.048L150.173 334.238L150.855 333.423L154.298 329.27L155.009 328.436L155.747 327.625L156.509 326.836L157.293 326.07L159.898 323.607L161.339 322.375L162.898 321.295L164.558 320.378L166.302 319.634L168.846 318.897L171.47 318.525L174.119 318.528L176.742 318.904L177.216 319.007L178.905 319.449L180.55 320.033L182.14 320.757L183.661 321.613L186.287 323.243L187.575 324.088L188.819 324.997L190.016 325.967L191.163 326.995L191.673 327.477L193.622 329.516L195.349 331.744L196.838 334.139L198.072 336.675L198.751 338.443L199.305 340.253L199.733 342.098L200.032 343.968L200.714 349.439L200.749 349.727L200.794 350.112L201.456 355.98L201.672 357.724L201.928 359.462L202.223 361.195L202.557 362.92L203.011 365.135L203.441 367.041L203.947 368.929L204.526 370.795L205.178 372.637L205.797 374.279L206.552 376.123L207.414 377.92L208.378 379.665L209.441 381.35L209.584 381.562L211.15 383.701L212.884 385.707L214.774 387.567L216.808 389.268L218.511 390.495L220.289 391.61L222.135 392.61L224.041 393.49L226.348 394.467L227.73 395.022L229.132 395.525L230.552 395.974L231.988 396.369L233.146 396.665L235.771 397.221L238.434 397.557L241.115 397.673L243.797 397.566L245.862 397.331L247.909 396.964L249.927 396.466L251.91 395.841L255.399 394.615L256.259 394.306L257.115 393.983L257.965 393.649L258.81 393.301L264.857 390.761L265.47 390.505L266.084 390.249L266.699 389.995L267.314 389.743L274.12 386.96L274.598 386.763L275.075 386.566L275.551 386.366L276.027 386.165L280.793 384.141L282.391 383.436L283.969 382.686L285.526 381.891L287.059 381.054L288.647 380.157L290.513 379.041L292.321 377.834L294.067 376.539L295.747 375.159L296.284 374.695L297.967 373.149L299.554 371.505L301.039 369.768L302.417 367.945L302.731 367.504L303.97 365.628L305.083 363.674L306.063 361.65L306.908 359.566L307.027 359.241L307.76 356.986L308.321 354.682L308.708 352.343L308.919 349.981L308.95 347.565L308.797 345.154L308.461 342.761L307.942 340.402L307.809 339.892L307.21 337.848L306.488 335.844L305.646 333.888L304.686 331.986L304.084 330.88L303.052 329.081L301.939 327.332L300.748 325.636L299.48 323.996L298.52 322.812L297.224 321.281L295.862 319.807L294.437 318.394L292.953 317.044L291.943 316.164L290.275 314.799L288.526 313.537L286.704 312.385L284.815 311.346L284.39 311.128L282.191 310.107L279.921 309.253L277.594 308.573L275.222 308.069L272.849 307.749L270.459 307.605L268.065 307.64L265.68 307.852L264.959 307.943L262.91 308.261L260.882 308.693L258.882 309.237L256.914 309.892L255.176 310.526L253.454 311.188L251.755 311.909L250.082 312.688L248.437 313.524L245.696 314.977L244.414 315.669L243.143 316.38L241.882 317.11L240.632 317.858L235.473 320.997L235.147 321.195L234.82 321.39L234.492 321.584L234.164 321.777L228.512 325.075L227.459 325.652L226.377 326.171L225.267 326.63L224.135 327.029L223.197 327.331L220.239 328.031L217.207 328.255L214.178 327.997L211.228 327.264L209.749 326.7L208.321 326.016L206.955 325.217L205.659 324.308L201.771 321.333L201.144 320.868L200.501 320.424L199.845 320L199.176 319.596L195.434 317.421L193.932 316.381L192.614 315.116L191.512 313.659L190.655 312.045L190.469 311.615L189.799 309.46L189.606 307.212L189.897 304.975L190.661 302.851L191.63 301.242L192.872 299.831L194.345 298.665L196.002 297.78L197.261 297.246L199.078 296.617L200.963 296.241L202.882 296.124L204.799 296.268L208.216 296.761L209.217 296.924L210.211 297.126L211.197 297.366L212.172 297.643L216.064 298.83L217.795 299.29L219.555 299.621L221.334 299.823L223.123 299.895L224.058 299.898L226.469 299.764L228.847 299.348L231.16 298.657L233.375 297.699L235.302 296.595L237.098 295.289L238.743 293.796L240.217 292.136L241.028 291.116L242.124 289.635L243.114 288.081L243.995 286.463L244.76 284.786L246.452 280.714L246.746 279.993L247.03 279.267L247.304 278.538L247.569 277.805L249.1 273.475L249.719 271.809L250.389 270.163L251.109 268.537L251.879 266.935L252.679 265.337L253.694 263.436L254.808 261.59L256.019 259.808L257.322 258.092L257.819 257.473L259.283 255.766L260.854 254.157L262.527 252.655L264.387 251.194L266.476 249.77L268.566 248.56L270.738 247.508L272.982 246.617L275.225 245.908L277.514 245.363L279.835 244.98L282.178 244.766L282.877 244.727L284.965 244.669L287.054 244.725L289.136 244.898L291.206 245.182L293.041 245.489L294.82 245.816L296.587 246.2L298.341 246.643L300.079 247.145L303.474 248.187L304.684 248.567L305.889 248.959L307.089 249.365L308.285 249.787L314.069 251.861L314.557 252.036L315.045 252.209L315.533 252.382L316.022 252.553L321.766 254.554L322.995 254.968L324.233 255.36L325.477 255.727L326.728 256.073L330.219 256.996L331.907 257.398L333.614 257.709L335.335 257.933L337.065 258.065L338.971 258.162L341.05 258.172L343.121 257.997L345.167 257.631L347.172 257.084L348.124 256.777L350.099 256.012L351.975 255.031L353.726 253.84L355.332 252.46L355.794 252.012L357.267 250.386L358.509 248.577L359.496 246.617L360.21 244.54L360.661 242.207L360.769 239.833L360.529 237.469L359.949 235.166L359.8 234.715L359.052 232.826L358.094 231.034L356.939 229.361L355.602 227.83L352.62 224.787L352.159 224.326L351.691 223.871L351.214 223.428L350.729 222.99L347.355 220.01L345.955 218.69L344.644 217.28L343.427 215.79L342.31 214.225L341.706 213.316L340.525 211.339L339.538 209.263L338.755 207.098L338.183 204.868L338.129 204.605L337.779 202.321L337.662 200.013L337.782 197.705L338.135 195.423L338.753 193.079L339.618 190.812L340.721 188.652L342.094 186.556L343.553 184.747L345.125 183.145L346.844 181.701L348.693 180.43L350.213 179.488L351.657 178.643L353.143 177.874L354.666 177.18L356.223 176.566L362.062 174.438L362.229 174.377L367.723 172.354L369.503 171.667L371.26 170.922L372.993 170.124L374.699 169.272L375.806 168.697L377.829 167.582L379.796 166.369L381.701 165.064L383.541 163.667L385.471 162.04L387.312 160.314L389.058 158.493L390.737 156.543L392.158 154.719L393.464 152.869L394.681 150.96L395.808 148.997L396.308 148.079L397.259 146.253L398.148 144.393L398.971 142.506L399.729 140.593L400.481 138.591L401.062 136.97L401.59 135.329L402.067 133.673L402.49 132.003L403.082 129.502L403.453 127.705L403.72 125.889L403.883 124.061L403.94 122.225L403.943 120.954L403.84 118.612L403.52 116.291L402.985 114.01L402.236 111.775L401.241 109.535L400.039 107.417L398.637 105.423L397.049 103.577L395.346 101.943L393.498 100.475L391.52 99.1896L389.341 98.055L387.084 97.1273L384.841 96.448L382.544 95.9854L380.213 95.7371L379.9 95.72L377.604 95.7006L375.316 95.9051L373.06 96.3336L370.771 97.0153L368.468 97.9551L366.362 99.0946L364.389 100.453L362.571 102.014L360.943 103.743L359.507 105.634L358.278 107.667L357.271 109.82L356.488 111.755L355.998 113.043L355.564 114.353L355.186 115.678L354.865 117.019L354.046 120.803L353.705 122.3L353.332 123.79L352.929 125.271L352.494 126.744L351.801 129.006L351.131 131.029L350.369 133.018L349.519 134.971L348.581 136.884L347.897 138.204L346.944 139.918L345.894 141.576L344.75 143.171L343.517 144.698L342.54 145.84L341.108 147.376L339.554 148.788L337.887 150.066L336.12 151.203L335.063 151.822L333.242 152.764L331.332 153.507L329.354 154.047L327.33 154.378L325.75 154.551L323.897 154.629L322.05 154.456L320.244 154.035L318.51 153.378L316.938 152.654L315.358 151.734L313.984 150.529L312.865 149.083L312.045 147.449L311.481 145.211L311.473 142.903L312.023 140.661L313.097 138.618L313.642 137.832L314.303 136.967L315.043 136.174L315.857 135.453L316.736 134.815L320.601 132.28L321.711 131.443L322.699 130.464L323.549 129.364L324.245 128.161L324.533 127.576L325.27 125.468L325.478 123.245L325.145 121.037L324.291 118.974L323.234 117.472L321.9 116.213L320.343 115.242L318.624 114.597L315.036 113.65L314.116 113.43L313.186 113.262L312.249 113.143L311.306 113.073L307.648 112.892L305.74 112.676L303.878 112.208L302.092 111.5L300.415 110.565L298.425 109.016L296.73 107.149L295.382 105.018L294.42 102.686L294.008 101.378L293.628 99.9833L293.359 98.5638L293.202 97.1249L293.158 95.6811L293.179 93.39L293.124 91.1816L292.921 88.9806L292.571 86.7991L292.076 84.6468L291.394 82.083L291.045 80.8339L290.666 79.5946L290.256 78.3627L289.816 77.1428L289.365 75.9376L288.397 73.2034L287.531 70.4326L286.768 67.6327L286.11 64.8059L285.729 62.9019L285.395 60.9907L285.108 59.0721L284.869 57.1462L284.502 53.8471L284.353 52.6005L284.187 51.3563L284.001 50.1122L283.798 48.8753L283.363 46.3505L282.925 44.0861L282.391 41.8462L281.763 39.6281L281.041 37.4393L280.145 35.08L279.141 32.7621L278.031 30.4953L276.817 28.2821L276.538 27.8001L275.487 26.0543L274.378 24.3451L273.212 22.6749L271.991 21.046L271.14 19.9479L269.817 18.2996L268.441 16.6927L267.014 15.132L265.537 13.6176L264.561 12.6486L263.083 11.2437L261.549 9.8997L259.96 8.62146L258.318 7.41137L257.152 6.58846L255.423 5.43926L253.633 4.39229L251.785 3.45003L249.887 2.6125L249.252 2.35442L247.012 1.53633L244.717 0.891112L242.38 0.416328L240.014 0.119291L237.609 0L235.201 0.0632736L232.805 0.30679L230.434 0.730432L230.122 0.798582L227.952 1.34639L225.823 2.03787L223.744 2.86815L221.725 3.83229L220.346 4.54565L218.747 5.41488L217.185 6.34738L215.661 7.34322L214.177 8.39745L210.2 11.3435L209.752 11.6771L209.305 12.0155L208.86 12.354L208.416 12.6948L206.977 13.8075L204.285 15.8649L201.569 17.8906L198.829 19.8822L196.065 21.8398L194.268 23.0985L193.962 23.3128L193.658 23.527L193.354 23.7437L193.051 23.9629L188.245 27.4275L187.034 28.3381L185.864 29.2999L184.734 30.3103L183.649 31.367L181.729 33.3148L180.433 34.7561L179.274 36.3095L178.262 37.9603L177.361 39.7985L176.395 42.4573L175.821 45.1136L175.605 47.8235L175.75 50.5382L176.096 52.5518L176.641 54.5191L177.38 56.4231L178.306 58.2442L179.264 59.9169L180.207 61.4533L181.242 62.9312L182.363 64.3433L183.568 65.6849L187.055 69.3443L187.408 69.712L187.764 70.0772L188.123 70.44L188.484 70.8003L192.273 74.5547L193.441 75.7599L194.561 77.0089L195.63 78.2993L196.648 79.6336L197.679 81.0385L198.959 82.9278L200.096 84.9048L201.083 86.9622L201.917 89.0853L202.65 91.4884L203.186 93.9427L203.521 96.431L203.653 98.9388L203.657 99.3478L203.617 101.422L203.448 103.492L203.15 105.547L202.725 107.58L202.352 109.123L201.852 111.013L201.273 112.878L200.616 114.718L199.88 116.527L199.159 118.203L198.35 120.007L197.489 121.784L196.575 123.537L195.611 125.263L194.307 127.52L193.511 128.874L192.696 130.218L191.863 131.55L191.011 132.87L188.672 136.436L188.035 137.398L187.387 138.35L186.729 139.297L186.062 140.24L183.278 144.113L182.491 145.17L181.67 146.197L180.812 147.198L179.922 148.167L177.389 150.833L176.185 151.99L174.881 153.034L173.488 153.955L172.018 154.746L171.276 155.101L168.866 156.029L166.339 156.557L163.76 156.669L161.197 156.365L159.357 155.878L157.59 155.174L155.92 154.269L154.366 153.168L152.06 151.318L151.026 150.449L150.035 149.528L149.088 148.562L148.189 147.549L146.945 146.081L145.453 144.094L144.201 141.944L143.208 139.665L142.485 137.286L142.09 135.2L141.905 133.084L141.932 130.961L142.168 128.852L142.567 126.396L142.821 125.015L143.132 123.647L143.502 122.293L143.926 120.954L145.696 115.753L145.922 115.091L146.156 114.431L146.392 113.774L146.633 113.119L148.313 108.605L148.917 106.961L149.506 105.313L150.086 103.66L150.651 102.002L151.384 99.8202L151.995 97.9625L152.579 96.0999L153.137 94.2251L153.67 92.3455L154.293 90.0763L154.734 88.4085L155.14 86.7333L155.51 85.0509L155.846 83.3612L156.314 80.8631L156.623 79.0347L156.862 77.194L157.032 75.3484L157.132 73.4956L157.198 71.5867L157.208 69.5707L157.098 67.5572L156.864 65.5534L156.514 63.5691L156.2 62.0595L155.71 60.1214L155.065 58.2296L154.264 56.3987L153.317 54.6384L152.472 53.2165L151.41 51.6363L150.178 50.1852L148.793 48.8802L147.269 47.7383L146.115 46.9713L144.367 45.9974L142.489 45.3108L140.527 44.9237L138.484 44.8531L136.135 45.1696L133.926 45.9049L131.893 47.0371L130.104 48.5247L128.823 50.0318L127.796 51.724L127.048 53.5549L126.598 55.4808L126.162 58.3733L126.016 59.5517L125.935 60.7326L125.921 61.9183L125.974 63.104L126.279 67.4087L126.34 68.9085L126.306 70.4107L126.177 71.9057L125.953 73.3909L125.597 75.3484L125.069 77.4569L124.27 79.4753L123.211 81.372L121.916 83.1153L120.272 84.7855L118.412 86.2074L116.369 87.3518L114.185 88.1966L113.947 88.2697L111.906 88.7664L109.825 89.0099L107.726 89.0025L105.644 88.7445L104.437 88.518L102.508 88.07L100.626 87.4516L98.8074 86.67L97.0617 85.7302L95.5473 84.8245L93.933 83.7946L92.3821 82.6697L90.9018 81.4548L89.4945 80.1546L87.7268 78.4186L86.5508 77.2281L85.4114 75.9985L84.3133 74.7349L83.2542 73.4371L80.2326 69.6097L79.7749 69.0278L79.3221 68.441L78.8716 67.8542L78.4236 67.265L76.2396 64.3652L74.8445 62.5343L73.4275 60.7204L71.991 58.9236L70.5326 57.1413L68.8916 55.1862L67.2237 53.253L65.534 51.3393L63.8175 49.4499L62.605 48.1327L61.6482 47.0979L60.6864 46.068L59.7198 45.043L58.7459 44.0228L55.3299 40.4608L54.6482 39.7547L53.964 39.0535L53.275 38.3572L52.5835 37.6632L49.1238 34.2205L48.0963 33.2198L47.0445 32.241L45.9707 31.2891L44.8751 30.3614L42.3503 28.2724L40.9649 27.1865L39.5235 26.176L38.0261 25.2484L36.4849 24.4011L34.4178 23.3371L32.7305 22.5653L30.98 21.9542L29.1807 21.5062L27.3497 21.2262L25.7404 21.0558L23.7633 20.9827L21.796 21.1799L19.8726 21.6498L18.0343 22.3754L17.097 22.8234L15.378 23.8363L13.8587 25.1291L12.5878 26.6679L11.5506 28.5061L10.7617 30.8094L10.4988 33.1151L10.7276 35.4257L11.4361 37.6365L12.5318 39.5648L13.9902 41.2326L15.7554 42.5742L17.7543 43.5335L19.3369 44.1056L20.9074 44.5755L22.5191 44.8726L24.1529 44.9894L25.7915 44.9261L28.4867 44.6753L30.2787 44.6072L32.0658 44.7314L33.831 45.0479L35.55 45.5543L36.2074 45.7856L38.5253 46.8423L40.624 48.2861L42.4428 50.0708L43.9231 52.1428L44.8361 53.9688L45.4862 55.9045L45.8587 57.9107L45.9488 59.9486L45.866 63.2891L45.8222 64.2897L45.7394 65.288L45.6177 66.2814L45.4594 67.2699L44.9311 70.2184L44.5732 72.5363L44.3273 74.8712L44.1958 77.2159L44.1788 79.563L44.2835 82.0343L44.5172 84.4982L44.8751 86.9452L45.3572 89.3726L45.5081 90.0398L45.9878 91.9997L46.5405 93.9378L47.1638 95.8564L47.8577 97.7506L48.3519 99.0313L49.1652 101.013L50.0538 102.959L51.0229 104.867L52.0649 106.735L52.3376 107.2L53.6159 109.265L54.9964 111.261L56.4743 113.187L58.0496 115.035L59.6955 116.781L61.429 118.444L63.2405 120.019L65.1299 121.502L65.5145 121.789L67.2992 123.062L69.135 124.26L71.0195 125.383L72.9479 126.425L73.5809 126.751L75.6383 127.761L77.7321 128.694L79.8601 129.549L82.0198 130.323L82.6601 130.54L84.7686 131.214L86.8941 131.823L89.0416 132.366L91.2037 132.84L93.3243 133.271L94.8485 133.571L96.38 133.846L97.9139 134.099L99.4502 134.33L105.182 135.146L105.586 135.202L105.99 135.263L106.394 135.326L106.796 135.39L112.208 136.249L113.886 136.556L115.546 136.936L117.192 137.391L118.814 137.917L121.701 139.061L124.484 140.439L127.148 142.036L129.673 143.845L130.174 144.237L131.236 145.094L132.271 145.986L133.274 146.908L134.248 147.865L137.795 151.466L138.462 152.158L139.107 152.869L139.736 153.597L140.347 154.344L142.57 157.465L144.447 160.799L145.964 164.314L147.098 167.971L147.325 168.821L147.571 169.666L147.839 170.504L148.126 171.336L150.475 177.861L150.651 178.319L150.843 178.77L151.052 179.215L151.276 179.649L151.763 180.542L152.915 183.71L153.085 187.075L152.255 190.342L150.502 193.22L150.027 193.751L149.521 194.252L148.983 194.72L148.418 195.153L147.137 196.071L144.371 197.78L141.396 199.097L138.27 199.993L135.049 200.454L132.444 200.648L132.168 200.67L131.562 200.721L127.141 201.284L122.778 202.187L118.5 203.429L114.331 205.002L114.02 205.133L113.706 205.262L113.392 205.389L113.078 205.513L107.407 207.751L106.031 208.262L104.636 208.715L103.224 209.112L101.795 209.448L98.4982 209.993L95.165 210.227L91.827 210.149L88.5084 209.754L86.6166 209.44L86.1321 209.357L85.65 209.27L85.1679 209.177L84.6883 209.077L79.1005 207.899L77.6201 207.595L76.135 207.305L74.6473 207.027L73.1597 206.764L69.9068 206.207L68.2342 205.939L66.5542 205.705L64.8718 205.506L63.1845 205.343L60.6864 205.126L58.7873 204.999L56.8857 204.946L54.9818 204.968L53.0802 205.063L51.7022 205.16L49.4695 205.382L47.2539 205.739L45.0626 206.229L42.8518 206.864L40.4292 207.731L38.1211 208.741L35.8884 209.908L33.7409 211.225L31.8711 212.549L30.0864 213.986L28.3967 215.534L26.8043 217.185L26.0496 218.018L24.7616 219.506L23.5369 221.049L22.3804 222.641L21.2945 224.285L19.8215 226.615L19.0374 227.888L18.2754 229.176L17.5377 230.479L16.8267 231.796L14.5405 236.13L14.1144 236.934L13.6834 237.735L13.25 238.536L12.8142 239.332L9.83408 244.744L9.41772 245.497L8.99651 246.244L8.56799 246.989L8.13704 247.732L5.33466 252.521L4.73327 253.585L4.16352 254.668L3.62787 255.766L3.12632 256.881L1.75799 260.052L1.0933 261.802L0.586877 263.606L0.243575 265.449L0.0682662 267.314L8.75342e-05 268.641L0.0366004 270.794L0.360428 272.922L0.964255 274.988L1.83589 276.955L3.10197 278.977L4.65049 280.791L6.44975 282.357L8.51444 283.668L10.4501 284.561L12.4247 285.184L14.4601 285.554L16.5272 285.667L17.8785 285.656L19.7995 285.555L21.706 285.285L23.5807 284.848L25.4068 284.247L27.245 283.552L28.9737 282.841L30.6586 282.034L32.2947 281.131L33.8773 280.137L35.5232 279.036L37.1375 277.909L38.7079 276.72L40.2272 275.47L41.6977 274.161L43.7089 272.301L44.8021 271.271L45.8782 270.222L46.9325 269.153L47.9697 268.067L51.1811 264.641L51.8726 263.908L52.5665 263.178L53.2653 262.45L53.9665 261.727L54.6141 261.06L56.988 258.647L59.3863 256.258L61.8088 253.899L64.2582 251.562L64.7159 251.131L65.5584 250.337L66.4057 249.548L67.2529 248.759L68.1051 247.975L68.5483 247.566L71.039 245.256L73.5079 242.921L75.9523 240.559L78.3725 238.175L79.5874 236.968L80.0135 236.542L80.4372 236.115L80.8608 235.687L81.2796 235.256L84.7004 231.738L85.9738 230.467L87.2861 229.232L88.635 228.039L90.0179 226.885L90.6631 226.364L92.723 224.784L94.8558 223.309L97.0593 221.94L99.3309 220.684L101.174 219.725L102.25 219.194L103.351 218.707L104.468 218.271L105.605 217.882L111.249 216.087L111.875 215.931L112.515 215.856L113.16 215.861L113.842 215.958L115.892 216.869L117.319 218.544L117.893 220.669L117.499 222.834L117.022 223.706L116.384 224.465L115.607 225.084L114.723 225.539L108.464 228.008L108.081 228.161L107.704 228.322L107.331 228.492L106.961 228.668L105.788 229.24L102.535 230.964L99.4064 232.902L96.414 235.049L93.5751 237.391L93.2123 237.713L92.5428 238.312L91.8854 238.92L91.2353 239.541L90.5974 240.169L86.5801 244.189L85.7863 244.978L84.9902 245.764L84.1891 246.546L83.3857 247.325L80.1523 250.442L79.0761 251.476L77.9927 252.506L76.9068 253.534L75.8184 254.554L71.4456 258.642L71.1729 258.895L70.9027 259.148L70.63 259.401L70.3597 259.655L66.4592 263.27L65.125 264.519L63.8029 265.783L62.493 267.056L61.1928 268.342L58.9918 270.543L57.9595 271.591L56.9442 272.655L55.9435 273.734L54.9623 274.828L52.9244 277.133L51.6802 278.493L50.3874 279.807L49.0483 281.075L47.6653 282.294L45.3645 284.142L42.9614 285.856L40.4658 287.431L37.8825 288.861L35.0363 290.334L34.7952 290.459L34.5566 290.584L34.3204 290.711L34.0818 290.839L29.3535 293.403L27.7515 294.36L26.2322 295.444L24.8078 296.649L23.4858 297.967L22.7626 298.75L21.3286 300.508L20.1185 302.428L19.1543 304.481L18.4482 306.638L18.0051 308.91L17.8493 311.22L17.9832 313.532L18.4044 315.808L18.6406 316.753L19.1616 318.516L19.8239 320.231L20.6274 321.885L21.5623 323.467L24.5887 328.136L24.7567 328.393L24.9831 328.733L26.4099 330.865L28.2506 333.726L29.9866 336.652L31.6179 339.639L33.1371 342.683L33.7483 343.985L34.3375 345.297L34.9072 346.617L35.455 347.946L36.9524 351.647L37.4978 352.962L38.0651 354.267L38.6543 355.562L39.2654 356.847L40.5583 359.51L41.4421 361.238L42.3941 362.928L43.4167 364.578L44.505 366.185L45.0845 367.007L46.5113 368.9L48.05 370.704L49.6935 372.411L51.4368 374.016L53.3115 375.542L55.2764 376.949L57.3265 378.233L59.4496 379.388L61.8649 380.608L62.8047 381.073L63.7542 381.521L64.7111 381.954L65.6752 382.37L70.3841 384.354L71.5089 384.867L72.6046 385.443L73.6637 386.082L74.6863 386.78L77.9634 389.161L79.0664 390.104L80.0062 391.209L80.761 392.449L81.3113 393.792L81.7446 396.265L81.4914 398.762L80.5711 401.098L79.0518 403.097L78.5186 403.63L77.7467 404.327L76.9117 404.943L76.0181 405.473L75.0758 405.911L71.5113 407.358L69.9263 408.132L68.463 409.117L67.1507 410.293L66.0112 411.639L64.7646 413.724L63.9344 416.007L63.5521 418.405L63.6276 420.833L63.798 422.166L64.0902 423.57L64.6015 424.909L65.3149 426.152L66.2182 427.267L68.1246 428.797L70.3695 429.764L72.7896 430.096L75.2146 429.77L76.1715 429.506L77.5447 429.025L78.84 428.364L80.033 427.534L81.1018 426.55L85.2604 422.175L85.499 421.922L85.7328 421.666L85.9665 421.408L86.1954 421.148L89.4555 417.407L90.8214 415.942L92.2798 414.568L93.8259 413.294L95.4499 412.124L96.4092 411.479L98.3058 410.329L100.3 409.356L102.372 408.57L104.51 407.976L105.734 407.695L107.641 407.363L109.574 407.232L111.51 407.306L113.428 407.583L116.116 408.334L118.663 409.484L121.005 411.006L123.155 412.933L124.438 414.398L125.517 415.907L126.442 417.513L127.204 419.203L127.521 420.002L128.56 422.274L129.836 424.421L131.336 426.42L133.04 428.247L133.245 428.445L134.854 429.863L136.578 431.137L138.406 432.256L140.325 433.211L144.208 434.938L144.715 435.168L145.219 435.402L145.72 435.643L146.219 435.889L150.132 437.848L152.041 438.721L154.008 439.459L156.019 440.059L158.069 440.516L160.746 440.892L163.447 441.027L166.149 440.918L168.83 440.566L169.301 440.483L171.116 440.108L172.906 439.631L174.667 439.053L176.392 438.376L177.864 437.75L179.843 436.843L181.769 435.828L183.637 434.709L185.439 433.488L187.532 431.877L189.512 430.128L191.371 428.251L193.1 426.254L195.839 422.869L199.153 418.802L200.631 417.171L202.27 415.702L204.053 414.412L205.961 413.314L208.249 412.318L210.638 411.598L213.094 411.166L215.67 411.026L217.867 411.135L219.959 411.447L222.011 411.961L224.003 412.671L225.242 413.181L227.043 413.997L228.783 414.935L230.454 415.99L232.049 417.159L232.834 417.777L234.597 419.285L236.231 420.932L237.725 422.706L239.069 424.597L240.312 426.695L241.37 428.892L242.235 431.172L242.919 433.591L243.374 435.868L243.641 438.099L243.736 440.343L243.659 442.589L243.613 443.225L243.378 445.432L242.998 447.618L242.473 449.774L241.806 451.891L241.52 452.704L240.751 454.715L239.874 456.681L238.892 458.597L237.809 460.458L237.125 461.562L236.027 463.26L234.864 464.913L233.637 466.521L232.349 468.079L231.407 469.173L230.015 470.743L228.577 472.271L227.094 473.755L225.567 475.194L224.828 475.87L223.145 477.359L221.413 478.79L219.634 480.162L217.787 481.488L215.63 482.924L213.441 484.261L211.202 485.512L208.917 486.675L206.856 487.631L204.764 488.515L202.642 489.326L200.495 490.065L199.579 490.362L197.582 490.982L195.569 491.549L193.543 492.064L191.503 492.526L189.541 492.943L187.82 493.296L186.094 493.623L184.363 493.925L182.628 494.2L178.333 494.851L177.416 494.992L176.5 495.138L175.584 495.29L174.669 495.446L173.781 495.601L170.364 496.235L166.963 496.948L163.579 497.739L160.214 498.607L159.725 498.74L158.646 499.037L157.568 499.344L156.494 499.661L155.425 499.987L151.206 501.294L149.74 501.725L148.26 502.111L146.77 502.451L145.27 502.747L142.957 503.165L140.863 503.475L138.75 503.647L136.634 503.681L134.518 503.577L133.415 503.487L131.331 503.23L129.276 502.805L127.262 502.214L125.302 501.46L124.185 500.978L122.369 500.081L120.652 499.003L119.055 497.756L117.592 496.353L116.803 495.513L115.5 493.935L114.419 492.2L113.572 490.339L112.975 488.382L112.846 487.826L112.518 485.686L112.53 483.52L112.878 481.383L113.557 479.327L114.592 477.331L115.936 475.53L117.553 473.97L119.403 472.693L119.909 472.4L121.641 471.541L123.467 470.902L125.356 470.495L127.282 470.325L132.87 470.18L133.03 470.176L138.864 470.064L140.654 469.926L142.414 469.58L144.126 469.033L145.759 468.29L146.996 467.64L148.693 466.547L150.176 465.177L151.401 463.571L152.326 461.776L152.455 461.461L153.085 459.318L153.261 457.091L152.976 454.875L152.243 452.765L150.928 449.961L150.534 449.305L150.015 448.743L149.392 448.3L148.691 447.993L147.159 447.502L145.513 447.455L144.096 448.295L143.349 449.762Z" fill="#190B2F"/>
</svg>
