<svg width="435" height="671" viewBox="0 0 435 671" fill="none" xmlns="http://www.w3.org/2000/svg">
<path d="M248.447 415.889L248.164 413.237L248.027 412.845L247.908 412.38L246.613 405.138L246.383 404.183L246.041 403.263L245.59 402.391L245.038 401.577L244.358 400.695L242.423 398.973L239.993 398.074L237.403 398.123L235.01 399.114L234.426 399.458L233.811 399.743L233.172 399.967L232.514 400.128L228.719 400.861L226.866 401.073L225.003 400.995L223.174 400.632L221.422 399.991L219.111 398.939L217.876 398.203L216.829 397.217L216.019 396.028L215.485 394.694L215.274 392.28L215.946 389.954L217.409 388.024L219.469 386.753L220.652 386.295L221.137 386.125L221.633 385.986L222.136 385.879L222.645 385.805L225.15 385.523L228.066 384.948L230.847 383.901L233.419 382.41L235.711 380.517L236.812 379.343L237.804 378.074L238.68 376.723L239.431 375.3L241.026 371.914L241.619 370.713L242.252 369.532L242.926 368.375L243.639 367.243L246.155 363.392L246.778 362.359L247.323 361.282L247.788 360.169L248.171 359.024L248.588 357.604L249.08 354.937L249.012 352.229L248.389 349.588L247.236 347.133L246.23 345.693L245.04 344.4L243.688 343.277L242.198 342.347L240.376 341.37L238.633 340.539L236.819 339.877L234.952 339.385L233.047 339.071L229.699 338.678L228.52 338.52L227.346 338.323L226.179 338.089L225.021 337.819L221.477 337.11L217.88 336.754H214.266L210.67 337.11L210.362 337.156L209.385 337.314L208.413 337.5L207.445 337.709L206.483 337.943L205.298 338.247L202.173 339.141L199.099 340.196L196.085 341.414L193.139 342.785L192.92 342.895L191.602 343.533L190.268 344.142L188.922 344.719L187.563 345.267L186.767 345.577L184.04 346.719L181.379 348.007L178.788 349.43L176.261 351.001L174.712 352.056L173.217 353.152L171.757 354.297L170.337 355.488L170.05 355.738L167.983 357.634L166.023 359.638L164.172 361.745L162.436 363.947L161.533 365.16L160.751 366.171L159.931 367.148L159.071 368.093L158.176 369.004L155.967 371.167L154.467 372.484L152.839 373.632L151.093 374.599L149.255 375.371L146.664 376.092L143.998 376.433L141.31 376.384L138.656 375.946L138.276 375.853L136.562 375.358L134.897 374.711L133.297 373.917L131.775 372.981L130.95 372.421L128.954 370.916L127.115 369.223L125.45 367.357L123.979 365.338L122.945 363.757L122.229 362.619L121.559 361.455L120.933 360.264L120.354 359.051L119.1 356.287L118.253 354.479L117.354 352.696L116.41 350.938L115.419 349.206L112.504 344.273L109.152 338.481L108.314 337.29L107.282 336.262L106.086 335.429L104.764 334.818L103.167 334.245L101.268 333.89L99.3518 334.15L97.6158 335.003L96.2377 336.357L95.3928 337.967L95.0642 339.757L95.2809 341.562L96.0259 343.224L97.2725 345.16L98.0321 346.185L98.9257 347.096L99.9337 347.878L101.039 348.516L104.584 350.256L105.719 351.018L106.607 352.056L107.187 353.293L107.413 354.64L107.08 356.61L106.011 358.298L104.37 359.438L102.417 359.857L98.0029 359.909L97.8276 359.911L94.9643 360.03L91.9379 360.418L89.0235 361.316L86.3064 362.7L83.8643 364.529L82.7346 365.63L81.7071 366.826L80.7916 368.11L79.9906 369.469L77.8309 373.544L77.3878 374.399L76.9666 375.266L76.5624 376.14L76.1777 377.022L75.0359 379.731L74.118 381.979L73.2487 384.247L72.4282 386.531L71.6613 388.836L70.2735 393.154L70.1955 393.393L70.0909 393.712L68.3597 398.9L67.6634 400.737L66.8234 402.512L65.8471 404.217L64.7368 405.84L63.0033 407.922L61.053 409.802L58.9104 411.459L56.5974 412.872L54.2041 414.158L53.5515 414.501L52.8942 414.83L52.2295 415.147L51.5599 415.449L46.968 417.465L45.529 418.157L44.1388 418.946L42.807 419.826L41.536 420.795L40.5305 421.618L38.7628 423.267L37.2216 425.133L35.9361 427.184L34.8989 429.454L34.2172 431.599L33.8178 433.736L33.6791 435.906L33.8032 438.077L34.2537 440.484L35.0255 442.807L36.1065 445.005L37.4748 447.035L37.6696 447.288L39.0209 448.845L40.5305 450.248L42.1837 451.48L43.9562 452.529L47.4866 454.364L48.1756 454.714L48.8744 455.05L49.578 455.371L50.289 455.678L54.1115 457.28L55.9279 458.104L57.6906 459.033L59.3974 460.063L61.0409 461.191L63.2297 462.931L65.2676 464.845L67.1448 466.92L68.8418 469.142L69.2022 469.654L70.1542 471.079L71.0404 472.545L71.8609 474.049L72.6108 475.589L74.5221 479.745L74.8849 480.526L75.2574 481.304L75.6372 482.079L76.0219 482.849L77.8163 486.383L78.7659 488.158L79.7885 489.893L80.8817 491.584L82.0431 493.228L82.8027 494.258L84.154 495.98L85.6027 497.62L87.1439 499.174L88.7752 500.634L89.6687 501.39L91.2854 502.662L92.9873 503.817L94.7671 504.85L96.6151 505.755L97.6815 506.231L99.7097 507.026L101.801 507.626L103.941 508.026L106.111 508.224L106.417 508.237L108.881 508.206L111.326 507.896L113.719 507.313L116.03 506.463L118.107 505.43L120.059 504.183L121.868 502.735L123.517 501.104L123.816 500.773L125.241 499.045L126.497 497.191L127.575 495.227L128.464 493.171L128.678 492.603L129.385 490.473L129.91 488.292L130.254 486.075L130.414 483.838L130.453 482.525L130.456 480.622L130.351 478.722L130.142 476.831L129.825 474.955L129.66 474.118L129.073 471.698L128.279 469.338L127.288 467.055L126.102 464.865L124.795 462.678L124.308 461.789L123.894 460.864L123.553 459.91L123.29 458.931L122.835 456.944L122.609 454.492L123.025 452.065L124.06 449.83L125.637 447.941L126.55 447.203L127.549 446.585L128.615 446.096L129.733 445.744L133.782 444.745L135.291 444.323L136.774 443.81L138.22 443.207L139.63 442.517L140.92 441.835L143.043 440.623L145.084 439.275L147.034 437.797L148.882 436.195L151.967 433.342L152.179 433.145L152.388 432.946L152.597 432.746L152.804 432.544L157.021 428.402L158.219 427.355L159.532 426.453L160.939 425.713L162.424 425.138L164.092 424.605L165.979 424.203L167.91 424.188L169.804 424.561L171.586 425.309L173.22 426.431L174.591 427.867L175.635 429.555L176.307 431.422L176.943 433.985L177.193 435.205L177.344 436.442L177.398 437.687L177.352 438.931L177.011 443.34L176.926 444.734L176.884 446.13L176.889 447.527L176.94 448.922L176.979 449.671L177.225 452.698L177.637 455.707L178.216 458.689L178.961 461.634L179.265 462.715L179.618 463.913L179.993 465.104L180.39 466.287L180.809 467.462L182.732 472.683L183.025 473.467L183.319 474.25L183.619 475.032L183.923 475.812L185.812 480.635L186.353 481.967L186.928 483.285L187.534 484.588L188.172 485.876L189.423 488.33L190.395 490.103L191.469 491.818L192.64 493.467L193.94 495.086L195.808 497.116L197.793 498.954L199.917 500.628L202.167 502.128L203.976 503.158L205.845 504.076L207.766 504.879L209.732 505.562L212.315 506.371L213.673 506.771L215.045 507.122L216.429 507.424L217.822 507.677L221.141 508.076L224.481 508.196L227.82 508.036L231.133 507.596L234.069 507.08L243.108 505.467L243.375 505.424L243.643 505.391L243.912 505.367L244.182 505.352L245.898 505.292L248.482 505.762L250.635 507.266L251.966 509.531L252.232 512.145L252.037 513.132L251.684 514.075L251.182 514.948L250.544 515.727L246.557 519.86L245.893 520.52L245.204 521.153L244.489 521.757L243.75 522.332L240.948 524.423L239.189 525.691L237.39 526.9L235.551 528.05L233.676 529.138L232.343 529.884L230.648 530.799L228.927 531.664L227.182 532.478L225.414 533.241L222.702 534.295L219.946 535.228L217.152 536.039L214.325 536.726L211.847 537.27L211.185 537.413L210.522 537.551L209.858 537.684L209.193 537.813L205.09 538.591L203.039 539.012L201.001 539.492L198.979 540.031L196.877 540.659L194.268 541.533L191.787 542.473L189.345 543.507L186.945 544.634L186.674 544.768L184.853 545.702L183.061 546.695L181.303 547.743L179.579 548.847L177.486 550.237L176.215 551.121L174.983 552.059L173.792 553.05L172.648 554.092L170.914 555.739L169.497 557.215L168.216 558.815L167.089 560.525L166.12 562.329L165.124 564.755L164.418 567.28L164.012 569.871L163.907 572.49L163.912 572.803L164.029 574.764L164.306 576.709L164.742 578.625L165.334 580.498L165.942 582.174L166.656 583.985L167.471 585.752L168.384 587.471L169.392 589.135L171.737 592.774L172.136 593.405L172.528 594.042L172.911 594.684L173.281 595.332L175.112 598.902L176.653 602.606L177.895 606.421L178.83 610.323L179.032 611.342L179.092 611.637L179.153 611.931L179.214 612.226L179.278 612.52L180.29 617.119L180.814 619.247L181.442 621.346L182.172 623.412L183.003 625.439L184.128 627.815L185.394 630.122L186.791 632.349L188.318 634.49L188.62 634.886L189.832 636.421L191.108 637.906L192.441 639.339L193.831 640.717L196.352 643.119L197.199 643.916L198.055 644.701L198.922 645.476L199.798 646.24L203.928 649.795L204.672 650.432L205.419 651.065L206.169 651.695L206.922 652.321L210.293 655.109L211.612 656.178L212.951 657.222L214.311 658.239L215.69 659.23L217.421 660.448L219.159 661.624L220.937 662.736L222.755 663.784L224.61 664.764L225.628 665.28L227.591 666.215L229.596 667.057L231.639 667.803L233.715 668.451L234.571 668.697L236.712 669.244L238.882 669.667L241.071 669.964L243.275 670.133L244.222 670.179L246.355 670.209L248.484 670.094L250.601 669.834L252.694 669.432L253.595 669.226L255.716 668.647L257.78 667.891L259.773 666.963L261.68 665.869L262.027 665.65L263.956 664.294L265.743 662.755L267.369 661.048L268.819 659.188L270.098 657.162L271.167 655.018L272.016 652.777L272.637 650.463L272.714 650.108L273.085 647.935L273.269 645.738L273.264 643.533L273.07 641.337L272.897 640.029L272.584 638.093L272.158 636.18L271.619 634.295L270.971 632.444L270.296 630.683L269.56 628.883L268.748 627.116L267.861 625.386L266.9 623.695L265.724 621.726L264.778 620.251L263.74 618.84L262.613 617.498L261.404 616.231L260.158 615.007L258.531 613.576L256.755 612.333L254.854 611.294L252.85 610.471L250.364 609.787L247.81 609.435L245.232 609.42L242.675 609.745L242.352 609.807L240.381 610.291L238.466 610.965L236.626 611.821L234.878 612.853L230.655 615.631L230.419 615.785L230.182 615.938L229.943 616.089L229.704 616.239L225.612 618.774L223.734 619.799L221.757 620.615L219.702 621.21L217.595 621.579L214.974 621.714L212.358 621.499L209.794 620.936L207.279 620.015L205.374 619.054L203.626 617.927L202.004 616.624L200.525 615.161L198.863 613.334L197.88 612.202L196.951 611.024L196.08 609.804L195.267 608.544L192.79 604.499L192.269 603.66L191.738 602.827L191.197 602.001L190.646 601.181L187.999 597.293L187.122 596.043L186.214 594.818L185.272 593.618L184.298 592.444L181.537 589.205L180.782 588.266L180.086 587.284L179.448 586.262L178.869 585.205L177.834 583.169L176.933 580.942L176.422 578.594L176.319 576.193L176.629 573.81L177.264 571.698L178.223 569.711L179.482 567.899L181.006 566.306L181.583 565.791L183.205 564.519L184.972 563.459L186.859 562.629L188.836 562.042L190.168 561.736L192.117 561.38L194.09 561.204L196.071 561.207L198.043 561.391L199.132 561.543L201.356 561.946L203.539 562.529L205.668 563.287L207.728 564.217L208.608 564.659L210.415 565.635L212.159 566.719L213.834 567.907L215.433 569.195L219.388 572.584L219.598 572.763L219.879 573.001L223.995 576.458L225.589 577.715L227.259 578.87L228.996 579.919L230.797 580.857L231.376 581.136L233.635 582.11L235.97 582.887L238.362 583.463L240.795 583.832L243.115 583.99L245.441 583.96L247.757 583.743L250.048 583.34L250.987 583.135L252.929 582.653L254.839 582.06L256.713 581.359L258.542 580.55L259.743 579.978L261.665 578.983L263.517 577.863L265.291 576.623L266.98 575.269L267.304 574.991L269.083 573.336L270.723 571.542L272.214 569.623L273.545 567.589L274.676 565.521L275.642 563.371L276.437 561.152L277.056 558.877L277.578 556.615L277.851 555.352L278.087 554.081L278.286 552.804L278.448 551.522L278.846 547.975L279.091 546.211L279.429 544.462L279.86 542.734L280.381 541.031L281.466 538.217L282.799 535.512L284.368 532.937L286.162 530.514L286.408 530.21L287.416 529.023L288.475 527.88L289.582 526.785L290.736 525.738L293.258 523.549L294.476 522.468L295.67 521.36L296.84 520.227L297.984 519.067L298.61 518.42L300.492 516.387L302.287 514.276L303.99 512.092L305.601 509.838L306.787 508.102L307.377 507.266L307.994 506.448L308.637 505.65L309.304 504.874L310.183 503.882L312.37 501.687L314.795 499.759L317.426 498.124L320.229 496.804L321.695 496.264L323.189 495.81L324.708 495.444L326.246 495.167L332.105 494.287L332.428 494.239L332.752 494.193L333.076 494.148L333.4 494.104L339.6 493.28L340.999 493.09L342.396 492.889L343.791 492.679L345.186 492.46L349.143 491.822L350.572 491.58L351.997 491.313L353.417 491.022L354.832 490.707L357.917 489.994L359.687 489.547L361.438 489.031L363.166 488.445L364.871 487.791L366.685 487.054L368.536 486.23L370.33 485.287L372.058 484.229L373.713 483.061L374.9 482.164L376.452 480.88L377.885 479.463L379.186 477.925L380.347 476.278L381.168 474.996L382.117 473.3L382.86 471.504L383.386 469.633L383.688 467.712L383.838 466.164L383.87 464.294L383.604 462.442L383.048 460.656L382.215 458.981L380.751 457.035L378.918 455.434L376.793 454.245L374.41 453.508L372.762 453.286L371.16 453.289L369.572 453.506L368.027 453.932L364.069 455.314L363.003 455.662L361.923 455.965L360.832 456.225L359.732 456.439L359.059 456.556L355.86 456.934L352.639 456.966L349.433 456.65L346.279 455.991L344.852 455.573L343.447 455.084L342.068 454.526L340.719 453.9L337.148 452.134L335.908 451.545L334.65 450.995L333.376 450.486L332.086 450.017L328.611 448.816L327.055 448.347L325.466 448.003L323.856 447.786L322.233 447.698L319.331 447.864L316.482 448.439L313.743 449.414L311.17 450.767L310.719 451.047L309.45 451.896L308.242 452.831L307.1 453.846L306.031 454.937L302.625 458.663L302.074 459.248L301.506 459.818L300.923 460.371L300.323 460.907L296.512 464.219L295.4 465.059L294.184 465.739L292.886 466.246L291.531 466.57L288.865 466.662L286.267 466.056L283.917 464.795L281.975 462.964L281.354 462.201L280.584 461.14L279.936 460L279.418 458.796L279.035 457.542L277.721 452.183L277.562 451.434L277.45 450.677L277.385 449.914L277.367 449.148L277.382 447.385L277.751 444.856L278.787 442.52L280.414 440.55L282.511 439.091L284.256 438.412L286.101 438.092L287.972 438.144L289.796 438.567L292.627 439.529L293.943 439.915L295.286 440.191L296.647 440.355L298.017 440.404L300.402 440.391L302.667 440.295L304.919 440.032L307.145 439.603L309.333 439.01L310.433 438.668L312.353 438.132L314.3 437.706L316.269 437.392L318.252 437.191L321.082 437.103L323.91 437.244L326.717 437.616L329.485 438.214L329.929 438.329L331.633 438.814L333.312 439.379L334.963 440.022L336.581 440.742L340.605 442.648L341.389 443.007L342.182 443.346L342.983 443.665L343.792 443.963L346.466 444.911L348.902 445.619L351.403 446.041L353.937 446.171L356.468 446.007L358.681 445.619L360.843 445.006L362.93 444.175L364.921 443.136L365.623 442.722L367.426 441.556L369.127 440.244L370.713 438.795L372.173 437.22L372.905 436.361L374.194 434.706L375.332 432.945L376.311 431.09L377.123 429.157L377.55 428.001L378.156 426.022L378.537 423.986L378.687 421.923L378.605 419.855L378.521 418.99L378.154 416.815L377.482 414.715L376.517 412.733L375.281 410.908L373.658 409.145L371.783 407.657L369.7 406.473L367.46 405.628L365.673 405.106L364.432 404.785L363.173 404.539L361.902 404.371L360.623 404.278L359.049 404.21L356.308 404.234L353.583 404.532L350.902 405.101L348.291 405.937L346.492 406.69L344.752 407.569L343.079 408.57L341.481 409.688L337.007 413.064L336.848 413.183L332.206 416.652L330.626 417.775L328.994 418.822L327.316 419.792L325.593 420.681L324.474 421.226L322.413 422.142L320.293 422.912L318.125 423.53L315.896 424.001L313.396 424.342L310.9 424.48L308.4 424.427L305.912 424.176L303.676 423.781L301.474 423.231L299.317 422.522L297.215 421.665L296.374 421.285L294.51 420.386L292.698 419.385L290.941 418.291L289.247 417.102L288.323 416.416L286.597 415.073L284.932 413.656L283.332 412.165L281.799 410.606L281.087 409.849L279.666 408.261L278.323 406.609L277.061 404.894L275.882 403.121L275.38 402.325L274.25 400.408L273.238 398.428L272.348 396.389L271.576 394.282L270.85 391.817L270.302 389.325L269.929 386.802L269.733 384.259L269.708 382.023L269.819 379.789L270.066 377.568L270.449 375.363L270.892 373.21L271.212 371.751L271.572 370.304L271.972 368.865L272.411 367.44L273.688 363.484L274.067 362.247L274.409 361L274.714 359.74L274.982 358.476L275.322 356.737L275.722 354.148L275.913 351.532L275.893 348.911L275.662 346.3L275.324 344.213L274.851 342.152L274.246 340.125L273.51 338.143L272.585 335.877L271.993 334.489L271.36 333.118L270.684 331.768L269.967 330.441L268.45 327.727L267.531 326.207L266.512 324.753L265.398 323.372L264.193 322.067L263.554 321.421L261.726 319.765L259.727 318.32L257.581 317.107L255.314 316.136L253.207 315.485L251.045 315.047L248.851 314.823L246.645 314.815L241.897 315.037L241.571 315.054L241.137 315.081L237.046 315.378L234.564 315.395L232.101 315.093L229.697 314.474L227.394 313.551L225.572 312.557L223.869 311.369L222.304 310.007L220.895 308.482L218.574 305.679L217.951 304.992L217.27 304.364L216.535 303.798L215.753 303.299L213.091 302.22L210.236 301.908L207.405 302.391L204.812 303.623L203.718 304.344L203.074 304.8L202.459 305.292L201.877 305.823L201.329 306.39L197.24 310.896L196.554 311.639L195.855 312.372L195.144 313.091L194.421 313.8L190.117 317.948L189.494 318.547L188.866 319.139L188.233 319.726L187.595 320.308L186.416 321.377L184.016 323.482L181.542 325.501L179 327.433L176.39 329.274L175.017 330.19L173.624 331.081L172.217 331.948L170.795 332.791L167.649 334.613L166.446 335.32L165.253 336.043L164.068 336.779L162.894 337.531L158.672 340.274L157.869 340.778L157.051 341.255L156.218 341.709L155.371 342.132L152.461 343.535L150.448 344.356L148.346 344.916L146.194 345.211L144.02 345.233L141.702 344.953L139.445 344.364L137.285 343.477L135.267 342.31L134.305 341.662L132.874 340.612L131.534 339.451L130.295 338.179L129.165 336.813L127.885 335.122L126.799 333.507L125.908 331.776L125.224 329.954L124.754 328.063L124.476 325.591L124.569 323.104L125.026 320.659L125.839 318.308L126.193 317.49L126.942 315.938L127.826 314.46L128.837 313.064L129.964 311.761L132.299 309.289L133.273 308.295L134.281 307.338L135.323 306.414L136.397 305.533L140.881 301.972L141.356 301.592L141.824 301.202L142.286 300.805L142.744 300.403L146.221 297.295L147.56 295.972L148.76 294.523L149.81 292.959L150.696 291.298L151.65 288.836L152.249 286.266L152.483 283.635L152.344 281L152.023 278.379L151.93 277.69L151.818 277.005L151.692 276.323L151.546 275.644L150.445 270.767L150.204 269.206L150.177 267.628L150.367 266.059L150.767 264.532L151.344 262.822L152.074 261.256L153.133 259.892L154.465 258.793L156.009 258.016L158.025 257.563L160.087 257.658L162.054 258.291L163.783 259.421L164.306 259.874L165.49 261.109L166.412 262.549L167.048 264.137L167.369 265.815L167.89 271.413L167.912 271.664L167.932 271.914L167.949 272.165L167.961 272.416L168.151 276.25L168.141 278.832L167.863 281.399L167.323 283.925L166.519 286.378L165.679 288.305L164.681 290.153L163.53 291.91L162.232 293.563L159.495 296.759L159.076 297.244L158.648 297.724L158.217 298.196L157.779 298.664L156.34 300.176L154.126 302.432L151.84 304.614L149.486 306.719L147.063 308.748L145.476 310.034L144.95 310.468L144.434 310.911L143.922 311.361L143.421 311.822L138.5 316.413L137.962 316.973L137.485 317.585L137.073 318.245L136.735 318.944L135.8 321.156L135.435 322.797L135.676 324.461L136.489 325.935L137.77 327.021L139.576 327.618L141.471 327.442L143.138 326.526L144.302 325.021L145.88 321.782L146.141 321.292L146.433 320.822L146.759 320.371L147.112 319.948L149.914 316.81L151.419 315.22L153.011 313.719L154.686 312.311L156.437 311.003L158.672 309.43L159.729 308.67L160.769 307.888L161.791 307.084L162.797 306.259L166.274 303.35L167.25 302.503L168.199 301.623L169.12 300.712L170.008 299.772L171.61 298.021L173.101 296.233L174.423 294.321L175.569 292.297L176.529 290.178L177.327 287.866L177.904 285.491L178.255 283.07L178.374 280.63L178.377 278.252L178.36 277.054L178.306 275.858L178.214 274.664L178.085 273.473L177.425 268.163L177.318 267.179L177.245 266.193L177.201 265.204L177.191 264.215L177.196 263.428L177.422 260.086L178.053 256.796L179.083 253.607L180.492 250.57L181.206 249.328L181.983 248.127L182.823 246.97L183.721 245.857L185.109 244.225L186.669 242.478L188.313 240.812L190.037 239.229L191.835 237.731L193.72 236.24L194.743 235.415L195.752 234.569L196.745 233.707L197.722 232.825L202.375 228.556L202.657 228.288L202.929 228.01L203.192 227.723L203.444 227.425L206.332 223.903L207.703 222.715L209.393 222.05L211.207 221.989L212.938 222.537L214.578 223.845L215.591 225.684L215.822 227.769L215.236 229.783L214.304 231.571L213.799 232.404L213.19 233.159L212.486 233.831L211.7 234.401L206.287 237.819L205.767 238.152L205.254 238.498L204.748 238.856L204.248 239.222L201.044 241.621L199.295 243.009L197.628 244.498L196.049 246.076L194.563 247.744L193.593 248.897L192.447 250.356L191.4 251.89L190.458 253.488L189.623 255.147L188.53 257.884L187.733 260.722L187.239 263.628L187.057 266.573L187.044 267.856L187.057 269.082L187.11 270.307L187.21 271.53L187.356 272.747L188.04 277.763L188.172 278.861L188.264 279.962L188.318 281.068L188.335 282.171L188.33 283.475L188.147 286.509L187.614 289.505L186.74 292.419L185.537 295.212L184.7 296.752L183.762 298.233L182.728 299.648L181.603 300.99L178.688 304.244L178.07 304.924L177.439 305.594L176.799 306.254L176.149 306.904L174.851 308.183L172.645 310.258L170.349 312.229L167.963 314.094L165.497 315.851L162.802 317.677L162.556 317.853L162.237 318.101L159.305 320.598L158.144 322.154L157.771 324.061L158.263 325.942L159.519 327.423L160.659 328.037L161.925 328.288L163.211 328.158L164.404 327.659L169.616 324.493L169.904 324.312L170.189 324.125L170.466 323.93L170.741 323.73L173.29 321.801L175.577 320.004L177.79 318.121L179.932 316.155L181.997 314.111L183.723 312.333L184.22 311.819L184.712 311.303L185.204 310.782L185.691 310.258L190.012 305.569L190.655 304.853L191.279 304.12L191.882 303.37L192.465 302.605L193.91 300.654L195.326 298.515L196.509 296.24L197.448 293.853L198.131 291.383L198.5 289.272L198.683 287.138L198.677 284.994L198.485 282.861L197.797 277.755L197.772 277.573L197.741 277.329L197.039 271.734L196.872 269.834L196.846 267.927L196.962 266.022L197.22 264.132L197.524 262.381L197.962 260.486L198.605 258.652L199.446 256.898L200.473 255.247L202.761 251.983L203.268 251.366L203.864 250.835L204.534 250.402L205.263 250.075L205.712 249.915L207.812 249.659L209.817 250.331L211.339 251.8L212.082 253.783L212.122 254.66L212 255.532L211.723 256.365L211.298 257.134L209.331 260.03L208.289 261.847L207.53 263.801L207.073 265.845L206.929 267.934L206.931 268.261L207.084 270.307L207.516 272.314L208.218 274.243L209.177 276.058L211.49 279.787L211.763 280.235L212.028 280.69L212.286 281.148L212.535 281.611L215.261 286.765L215.926 287.986L216.623 289.189L217.35 290.373L218.108 291.539L220.297 294.808L221.151 296.002L222.079 297.137L223.078 298.211L224.143 299.219L224.539 299.57L226.927 301.402L229.55 302.88L232.356 303.969L235.288 304.649L236.821 304.834L238.363 304.907L239.907 304.868L241.444 304.717L244.764 304.266L246.372 304.093L247.986 304.01L249.603 304.02L251.216 304.12L252.264 304.213L254.851 304.588L257.383 305.243L259.829 306.166L262.16 307.352L263.92 308.475L265.577 309.747L267.117 311.157L268.528 312.694L271.471 316.194L271.745 316.518L272.021 316.839L272.3 317.156L272.582 317.473L274.913 320.062L276.734 322.035L278.605 323.962L280.524 325.84L282.489 327.669L282.796 327.947L284.24 329.284L285.657 330.65L287.045 332.046L288.404 333.471L290.341 335.605L292.214 337.797L294.02 340.042L295.758 342.344L296.491 343.343L297.284 344.441L298.065 345.547L298.834 346.663L299.589 347.788L303.052 353.008L303.262 353.325L303.472 353.641L303.681 353.96L303.89 354.277L307.807 360.232L308.316 361.002L308.826 361.772L309.339 362.539L309.854 363.306L312.569 367.333L313.424 368.585L314.294 369.824L315.179 371.055L316.079 372.272L318.39 375.361L319.255 376.486L320.151 377.587L321.076 378.666L322.03 379.716L323.573 381.37L325.19 382.995L326.909 384.512L328.724 385.913L330.626 387.191L332.774 388.434L335.005 389.522L337.307 390.45L339.668 391.213L341.444 391.719L342.799 392.085L344.163 392.409L345.537 392.694L346.919 392.94L351.5 393.683L352.627 393.853L353.757 394.002L354.889 394.128L356.024 394.233L358.331 394.421L360.874 394.543L363.421 394.501L365.959 394.296L368.479 393.926L370.651 393.471L372.794 392.893L374.9 392.197L376.964 391.383L378.837 390.582L380.305 389.929L381.754 389.237L383.184 388.504L384.592 387.73L386.408 386.699L388.314 385.586L390.194 384.432L392.047 383.231L393.871 381.989L394.574 381.497L396.379 380.201L398.151 378.861L399.888 377.475L401.589 376.045L402.123 375.585L403.828 374.072L405.486 372.506L407.097 370.891L408.658 369.228L408.825 369.045L410.442 367.211L411.995 365.321L413.484 363.379L414.906 361.389L416.235 359.39L417.497 357.346L418.691 355.264L419.815 353.142L420.036 352.706L421.008 350.726L421.925 348.719L422.787 346.687L423.591 344.631L424.037 343.445L424.727 341.548L425.38 339.641L425.996 337.719L426.573 335.785L427.075 334.041L427.599 332.175L428.099 330.302L428.574 328.421L429.025 326.534L429.349 325.138L429.836 322.982L430.3 320.822L430.741 318.657L431.158 316.486L431.369 315.356L431.737 313.308L432.079 311.254L432.394 309.199L432.682 307.138L432.859 305.813L433.121 303.713L433.346 301.611L433.534 299.504L433.686 297.392L433.796 295.665L433.894 293.787L433.95 291.907L433.963 290.027L433.934 288.144L433.866 285.606L433.791 283.901L433.655 282.201L433.458 280.508L433.201 278.82L432.785 276.377L432.408 274.528L431.911 272.708L431.298 270.923L430.57 269.184L429.886 267.688L428.947 265.874L427.833 264.161L426.557 262.566L425.131 261.105L424.472 260.493L422.794 259.119L420.956 257.967L418.989 257.054L416.923 256.396L414.571 255.977L412.184 255.887L409.807 256.126L407.486 256.691L407.067 256.825L405.167 257.546L403.355 258.467L401.653 259.58L400.081 260.868L397.943 262.824L396.988 263.733L396.071 264.683L395.193 265.669L394.357 266.692L391.76 270.002L390.864 271.125L389.948 272.233L389.014 273.325L388.06 274.399L383.877 279.032L383.671 279.261L383.467 279.49L383.263 279.721L383.06 279.952L380.209 283.211L378.705 285.036L377.308 286.943L376.025 288.928L374.858 290.986L373.78 293.179L372.834 295.432L372.025 297.736L371.355 300.086L370.239 304.493L370.188 304.695L370.119 304.96L368.667 310.497L368.129 312.277L367.461 314.014L366.667 315.697L365.751 317.317L365.125 318.335L363.819 320.211L362.307 321.925L360.61 323.457L358.751 324.787L356.623 325.959L354.368 326.865L352.021 327.491L349.583 327.834L347.27 327.888L344.999 327.686L342.765 327.23L340.596 326.529L339.348 326.044L337.641 325.313L335.991 324.463L334.405 323.499L332.891 322.425L329.685 319.974L328.913 319.373L328.151 318.756L327.401 318.128L326.662 317.485L323.871 315.015L322.345 313.688L320.795 312.387L319.224 311.113L317.63 309.868L316.403 308.926L314.748 307.686L313.063 306.488L311.349 305.331L309.607 304.217L308.283 303.394L306.556 302.356L304.796 301.38L303.004 300.459L301.183 299.599L300.81 299.431L298.384 298.403L295.914 297.487L293.403 296.691L290.858 296.009L288.697 295.529L286.518 295.137L284.326 294.828L282.123 294.606L277.976 294.267L277.415 294.224L276.854 294.182L276.292 294.146L275.73 294.109L268.15 293.651L267.645 293.619L267.141 293.583L266.637 293.546L266.133 293.505L264.056 293.327L260.756 293.132L257.451 293.113L254.149 293.269L250.86 293.598L249.087 293.822L248.458 293.909L247.831 294.012L247.207 294.131L246.585 294.262L242.755 295.134L240.591 295.451L238.404 295.424L236.247 295.057L234.175 294.357L233.608 294.116L231.858 293.191L230.28 291.995L228.918 290.558L227.808 288.918L227.321 288.056L226.513 286.205L226.099 284.227L226.096 282.208L226.504 280.23L227.407 278.201L228.74 276.425L230.436 274.993L232.409 273.975L235.238 272.901L235.84 272.687L236.451 272.494L237.068 272.329L237.692 272.187L245.193 270.633L245.578 270.55L245.962 270.465L246.344 270.373L246.726 270.278L247.492 270.08L251.402 269.345L255.375 269.13L259.342 269.44L263.233 270.268L263.827 270.441L264.417 270.628L265.003 270.826L265.585 271.038L268.052 271.958L270.807 272.94L273.591 273.834L276.401 274.642L279.236 275.363L282.62 276.167L282.899 276.235L283.27 276.326L285.068 276.771L288.705 277.792L292.274 279.027L295.763 280.471L299.16 282.123L299.525 282.315L300.258 282.705L300.985 283.109L301.704 283.526L302.417 283.952L305.129 285.606L307.248 286.787L309.453 287.798L311.732 288.631L314.069 289.281L316.359 289.732L318.677 290.007L321.009 290.105L323.342 290.024L324.171 289.966L326.216 289.759L328.247 289.437L330.255 288.999L332.236 288.448L333.048 288.197L335.269 287.442L337.444 286.561L339.565 285.557L341.625 284.437L342.372 284.003L344.108 282.922L345.777 281.738L347.371 280.457L348.887 279.083L350.797 277.088L352.54 274.947L354.104 272.67L355.479 270.275L355.83 269.603L356.558 268.132L357.223 266.631L357.824 265.104L358.36 263.552L359.847 258.934L360.094 258.184L360.349 257.434L360.612 256.689L360.884 255.946L362.107 252.662L362.974 250.521L363.963 248.434L365.069 246.407L366.29 244.449L367.734 242.41L369.302 240.469L370.987 238.625L372.783 236.891L373.847 235.926L375.054 234.864L376.294 233.841L377.565 232.857L378.865 231.912L383.708 228.507L383.949 228.339L384.191 228.171L384.433 228.003L384.675 227.835L389.346 224.607L390.762 223.609L392.159 222.586L393.537 221.536L394.896 220.462L396.48 219.185L398.099 217.833L399.672 216.43L401.197 214.976L402.673 213.471L403.491 212.609L404.933 211.023L406.305 209.376L407.604 207.669L408.829 205.91L409.328 205.16L410.516 203.26L411.599 201.299L412.575 199.285L413.44 197.22L413.683 196.591L414.426 194.479L415.037 192.324L415.512 190.136L415.85 187.922L415.962 186.994L416.14 184.907L416.169 182.812L416.048 180.72L415.779 178.642L415.589 177.495L415.153 175.441L414.532 173.437L413.732 171.498L412.76 169.64L412.367 168.965L411.146 167.114L409.724 165.413L408.121 163.884L406.356 162.542L404.283 161.321L402.077 160.364L399.77 159.68L397.398 159.285L397.074 159.251L395.008 159.137L392.941 159.227L390.893 159.519L388.884 160.011L386.504 160.722L385.11 161.17L383.737 161.682L382.387 162.252L381.064 162.878L377.265 164.785L376.124 165.345L374.971 165.881L373.808 166.395L372.635 166.887L370.658 167.691L368.325 168.568L365.948 169.316L363.533 169.932L361.088 170.417L358.792 170.745L356.484 170.957L354.167 171.05L351.848 171.028L350.805 170.989L348.808 170.882L346.817 170.702L344.833 170.453L342.86 170.132L341.557 169.895L339.41 169.471L337.276 168.987L335.157 168.439L333.056 167.827L328.737 166.505L328.344 166.385L327.95 166.268L327.555 166.156L327.159 166.047L321.835 164.595L320.222 164.227L318.586 163.996L316.935 163.901L315.282 163.945L313.091 164.093L311.224 164.361L309.417 164.904L307.712 165.708L306.144 166.758L305.561 167.216L304.048 168.658L302.84 170.363L301.981 172.27L301.504 174.306L301.431 176.46L301.785 178.589L302.552 180.603L303.704 182.425L304.16 183.009L305.419 184.395L306.869 185.579L308.478 186.536L310.212 187.243L315.263 188.88L315.529 188.967L315.794 189.055L316.058 189.147L316.321 189.242L319.001 190.222L321.889 191.379L324.701 192.706L327.429 194.202L330.061 195.86L331.477 196.847L332.858 197.882L334.205 198.964L335.514 200.086L337.462 201.818L338.818 203.048L340.15 204.308L341.456 205.591L342.735 206.902L344.684 208.94L345.783 210.127L346.842 211.349L347.861 212.606L348.838 213.895L350.356 215.968L351.444 217.561L352.427 219.219L353.301 220.939L354.061 222.712L354.153 222.946L355.013 225.501L355.629 228.124L355.992 230.794L356.102 233.488L356.013 235.551L355.774 237.602L355.387 239.628L354.854 241.623L353.9 244.734L353.548 245.837L353.171 246.931L352.769 248.015L352.343 249.091L350.913 252.579L350.2 254.253L349.439 255.904L348.631 257.534L347.777 259.139L346.763 260.985L345.771 262.693L344.699 264.351L343.549 265.959L342.325 267.511L341.085 269.009L339.839 270.412L338.5 271.727L337.076 272.95L335.571 274.072L334.129 275.074L332.415 276.133L330.6 277.01L328.703 277.694L326.746 278.174L325.331 278.445L323.348 278.681L321.352 278.64L319.381 278.318L317.474 277.726L316.434 277.322L314.515 276.36L312.81 275.057L311.378 273.459L310.268 271.622L309.453 269.34L309.135 266.938L309.329 264.524L310.025 262.205L310.635 260.754L311.188 259.585L311.839 258.464L312.585 257.407L313.42 256.418L316.159 253.442L317.155 252.316L318.107 251.152L319.011 249.949L319.868 248.714L320.996 247.014L322.184 245.055L323.208 243.007L324.061 240.88L324.738 238.691L324.87 238.194L325.343 236.028L325.624 233.829L325.71 231.612L325.601 229.398L325.516 228.495L325.218 226.436L324.716 224.42L324.014 222.464L323.119 220.586L322.551 219.534L321.481 217.821L320.205 216.255L318.742 214.862L317.116 213.666L314.872 212.463L312.467 211.627L309.96 211.186L307.378 211.147L305.464 211.381L303.627 211.827L301.853 212.484L300.168 213.342L296.003 215.778L295.611 216.009L295.223 216.245L294.838 216.486L294.455 216.732L292.915 217.741L289.966 219.565L286.931 221.241L283.818 222.768L280.633 224.137L279.369 224.632L278.097 225.099L276.816 225.545L275.526 225.964L271.977 227.079L270.412 227.596L268.862 228.151L267.327 228.75L265.809 229.391L261.136 231.435L260.541 231.676L259.935 231.888L259.319 232.065L258.694 232.212L253.906 233.205L252.549 233.288L251.223 232.984L250.037 232.319L249.088 231.347L248.358 229.856L248.183 228.207L248.582 226.6L249.508 225.223L250.693 223.996L251.592 223.214L252.613 222.6L253.726 222.176L254.896 221.952L260.28 221.402L261.125 221.299L261.966 221.163L262.801 220.993L263.628 220.79L265.7 220.24L268.362 219.392L270.927 218.286L273.372 216.932L275.672 215.346L277.176 214.112L278.592 212.779L279.914 211.349L281.135 209.834L281.853 208.88L283.161 207.021L284.353 205.087L285.425 203.082L286.396 200.961L287.307 198.598L288.042 196.24L288.622 193.841L289.047 191.408L289.327 189.43L289.499 188.093L289.637 186.751L289.741 185.406L289.812 184.062L289.977 179.894L290.065 178.467L290.217 177.047L290.431 175.631L290.708 174.228L291.14 172.273L291.762 170.012L292.614 167.827L293.687 165.745L294.969 163.782L296.43 161.982L298.067 160.34L299.862 158.874L301.877 157.553L304.006 156.433L306.151 155.568L308.371 154.915L310.645 154.484L311.043 154.431L313.225 154.221L315.417 154.202L317.603 154.37L319.766 154.723L323.842 155.571L324.353 155.68L324.863 155.795L325.371 155.914L325.879 156.038L329.877 157.049L332.08 157.522L334.311 157.831L336.559 157.982L338.812 157.967L341.28 157.765L343.724 157.366L346.128 156.774L348.478 155.994L349.89 155.463L351.351 154.879L352.789 154.238L354.2 153.544L355.584 152.794L358.616 151.077L359.951 150.302L361.272 149.506L362.578 148.685L363.869 147.84L366.351 146.186L367.86 145.155L369.344 144.086L370.803 142.985L372.236 141.85L373.874 140.523L375.38 139.251L376.835 137.921L378.238 136.538L379.586 135.1L380.606 133.97L381.969 132.372L383.241 130.699L384.416 128.958L385.492 127.153L385.876 126.466L386.927 124.415L387.828 122.291L388.574 120.108L389.161 117.88L389.609 115.456L389.869 113.008L389.941 110.546L389.815 108.003L389.54 105.703L389.124 103.514L388.561 101.356L387.854 99.2389L387.474 98.2183L386.716 96.3282L385.865 94.477L384.924 92.6697L383.894 90.9111L383.017 89.4959L381.95 87.8371L380.827 86.2149L379.65 84.6341L378.42 83.0947L377.462 81.9353L376.082 80.3131L374.659 78.725L373.193 77.1758L371.687 75.6681L370.909 74.9106L369.327 73.4077L367.705 71.9487L366.043 70.5359L364.344 69.167L363.438 68.4583L361.767 67.1941L360.054 65.986L358.302 64.8339L356.513 63.7426L355.424 63.102L353.577 62.0693L351.686 61.1169L349.756 60.2498L347.79 59.4654L346.691 59.0563L344.681 58.3694L342.636 57.7945L340.563 57.3342L338.467 56.9907L337.291 56.8324L335.214 56.6254L333.126 56.5645L331.04 56.6497L328.965 56.8811L327.75 57.0613L325.724 57.4535L323.741 58.0259L321.818 58.7737L319.969 59.692L318.976 60.2425L317.223 61.3483L315.608 62.649L314.152 64.1226L312.873 65.7546L312.469 66.3367L311.357 68.2025L310.514 70.2047L309.956 72.3019L309.693 74.46L309.748 76.8032L310.153 79.1123L310.899 81.3361L311.968 83.4235L312.12 83.672L313.314 85.377L314.711 86.9164L316.29 88.2707L318.027 89.4155L320.353 90.7479L321.534 91.386L322.745 91.9657L323.983 92.4821L325.245 92.9376L328.911 94.1603L330.398 94.6913L331.861 95.2832L333.297 95.9384L334.704 96.6546L336.56 97.6483L338.413 98.7469L340.166 100.001L341.803 101.399L343.315 102.934L343.782 103.453L345.188 105.18L346.41 107.041L347.434 109.018L348.25 111.091L348.371 111.452L348.971 113.646L349.32 115.897L349.41 118.172L349.24 120.464L348.789 122.815L348.066 125.075L347.079 127.233L345.842 129.257L344.423 131.064L342.804 132.694L341.009 134.129L339.06 135.344L338.238 135.795L336.465 136.669L334.626 137.395L332.733 137.967L330.8 138.379L326.681 139.081L325.914 139.205L325.147 139.317L324.377 139.417L323.606 139.504L319.422 139.945L317.461 140.186L315.51 140.501L313.572 140.885L311.649 141.338L310.671 141.587L308.403 142.23L306.171 142.992L303.982 143.869L301.842 144.861L301.405 145.075L299.434 146.12L297.523 147.272L295.679 148.526L293.906 149.878L293.174 150.47L291.565 151.859L290.049 153.347L288.63 154.928L287.315 156.596L287.024 156.991L285.659 159.005L284.461 161.124L283.437 163.333L282.594 165.618L281.955 167.888L281.495 170.205L281.216 172.548L281.121 174.906L281.117 178.479L281.112 179.18L281.097 179.879L281.073 180.581L281.04 181.28L280.822 185.306L280.632 187.423L280.292 189.52L279.805 191.591L279.173 193.62L278.17 196.114L276.949 198.506L275.518 200.781L273.89 202.917L272.376 204.731L271.739 205.45L271.061 206.13L270.345 206.768L269.592 207.364L265.37 210.514L264.373 211.099L263.272 211.449L262.121 211.554L260.975 211.401L258.795 210.27L257.366 208.273L257.002 205.845L257.783 203.514L257.926 203.287L258.222 202.858L258.557 202.464L258.929 202.101L259.334 201.774L262.286 199.624L264.171 198.087L265.881 196.36L267.397 194.457L268.702 192.407L268.98 191.914L269.85 190.175L270.545 188.358L271.061 186.485L271.391 184.568L271.433 184.22L271.568 181.611L271.336 179.007L270.744 176.462L269.802 174.024L268.854 172.258L267.722 170.604L266.418 169.079L264.959 167.706L261.432 164.722L261.081 164.42L260.737 164.108L260.4 163.789L260.07 163.462L259.022 162.398L256.867 159.724L255.292 156.669L254.359 153.361L254.107 149.934L254.155 149.043L254.25 148.154L254.391 147.272L254.577 146.398L255.378 143.08L255.857 140.873L256.235 138.649L256.511 136.409L256.686 134.158L256.719 133.551L256.797 131.279L256.784 129.006L256.678 126.734L256.482 124.471L256.412 123.821L256.126 121.589L255.751 119.37L255.285 117.168L254.726 114.969L253.979 112.487L253.121 110.056L252.151 107.669L251.07 105.328L250.031 103.316L248.91 101.351L247.71 99.4289L246.431 97.5606L245.511 96.2721L244.449 94.8253L243.353 93.4028L242.223 92.0071L241.059 90.6382L238.988 88.2634L238.001 87.1454L237.003 86.0371L235.993 84.9386L234.972 83.8522L232.598 81.3531L231.457 80.1596L230.309 78.971L229.155 77.7896L227.994 76.6156L226.123 74.7303L224.788 73.3955L223.445 72.0705L222.092 70.7576L220.729 69.4521L219.542 68.3218L217.968 66.8434L216.377 65.3819L214.77 63.9375L213.146 62.5126L212.712 62.135L210.875 60.564L209.016 59.0197L207.136 57.4998L205.234 56.0091L203.286 54.5282L201.318 53.074L199.33 51.6467L197.321 50.251L196.645 49.7882L194.982 48.6629L193.308 47.5522L191.623 46.4609L189.927 45.3843L186.436 43.1971L185.759 42.7756L185.082 42.3518L184.405 41.9329L183.726 41.5139L179.801 39.0977L178.301 38.1696L176.806 37.2294L175.319 36.2819L173.836 35.3247L173.003 34.7839L170.827 33.3542L168.667 31.9L166.522 30.4215L164.391 28.9211L162.558 27.5984L160.737 26.2613L158.925 24.9069L157.129 23.5332L153.927 21.0633L153.467 20.7077L153.004 20.3497L152.544 19.9916L152.084 19.6336L147.56 16.0968L146.442 15.2346L145.315 14.3845L144.178 13.549L143.029 12.7257L140.287 10.782L138.829 9.77848L137.344 8.81638L135.829 7.89808L134.291 7.02367L132.401 5.98359L130.624 5.06284L128.805 4.23228L126.945 3.49179L125.053 2.84387L123.712 2.4225L121.671 1.85983L119.597 1.43845L117.498 1.1608L115.385 1.03415L114.123 1L112.088 1.03659L110.065 1.25093L108.068 1.6406L106.113 2.20327L105.098 2.54428L103.094 3.34812L101.195 4.37839L99.4273 5.62063L97.7521 7.11862L96.1282 8.96493L94.8134 10.9403L93.7664 13.0692L93.0068 15.315L92.571 17.4901L92.403 19.7017L92.5052 21.9183L92.8802 24.1032L93.2016 25.4745L93.6642 27.1576L94.2485 28.8017L94.9522 30.3996L95.7727 31.9414L98.5094 36.6619L98.6919 36.9786L98.8721 37.2952L99.0499 37.6143L99.2276 37.9334L101.273 41.6674L102.329 43.7524L103.25 45.9007L104.031 48.1027L104.669 50.3508L105.178 52.7355L105.529 55.1468L105.716 57.5777L105.738 60.0159L105.692 62.0376L105.641 63.4114L105.553 64.7827L105.429 66.1516L105.268 67.5181L104.72 71.6832L104.557 73.0643L104.433 74.4478L104.348 75.8337L104.302 77.2221L104.248 79.955L104.277 82.0206L104.448 84.0788L104.757 86.1199L105.205 88.1367L105.531 89.4057L106.133 91.3616L106.902 93.2567L107.839 95.0762L108.933 96.8056L109.67 97.8627L110.917 99.4484L112.339 100.878L113.916 102.137L115.626 103.207L116.256 103.55L118.258 104.464L120.369 105.075L122.545 105.372L124.741 105.353L127.003 104.992L129.182 104.293L131.23 103.273L133.1 101.955L133.762 101.409L135.172 100.116L136.436 98.6762L137.536 97.1125L138.464 95.4391L140.531 91.1814L140.767 90.6869L140.996 90.1901L141.217 89.6883L141.434 89.1841L143.289 84.7559L144.071 83.0314L144.945 81.3531L145.916 79.7285L146.976 78.1599L147.932 76.8275L149.216 75.1907L150.635 73.6732L152.179 72.2848L153.837 71.0329L154.436 70.6212L156.381 69.4301L158.448 68.4583L160.608 67.7202L162.836 67.2209L165.231 66.9627L167.639 66.9822L170.03 67.2818L172.373 67.8517L172.726 67.9614L174.737 68.6848L176.67 69.5957L178.508 70.687L180.232 71.9462L181.79 73.2031L183.068 74.2919L184.291 75.4416L185.452 76.6521L186.548 77.9212L190.01 82.1399L190.297 82.4931L190.584 82.8462L190.867 83.2019L191.149 83.5575L194.532 87.8615L195.571 89.1768L196.619 90.4824L197.675 91.783L198.74 93.0764L200.915 95.6997L201.857 96.8519L202.784 98.0137L203.697 99.1877L204.596 100.372L205.505 101.587L207.042 103.701L208.52 105.859L209.936 108.056L211.29 110.292L212.403 112.243L213.468 114.219L214.485 116.221L215.454 118.245L216.496 120.493L217.071 121.75L217.634 123.012L218.185 124.278L218.725 125.55L221.036 131.079L221.225 131.532L221.414 131.983L221.605 132.433L221.795 132.884L224.739 139.826L224.978 140.386L225.221 140.941L225.469 141.497L225.721 142.05L227.562 146.049L228.464 147.881L229.462 149.661L230.553 151.386L231.733 153.052L233.479 155.215L235.376 157.246L237.415 159.134L239.584 160.871L241.721 162.459L242.314 162.895L242.913 163.324L243.517 163.743L244.127 164.154L250.899 168.663L251.029 168.75L255.896 171.932L257.357 173.059L258.622 174.406L259.659 175.936L260.442 177.609L260.567 177.943L261.17 180.364L261.209 182.861L260.681 185.301L259.615 187.559L258.411 189.155L256.938 190.504L255.244 191.561L253.386 192.294L251.675 192.794L249.922 193.198L248.134 193.398L246.335 193.391L244.549 193.176L238.579 192.107L235.989 191.644L232.541 191.159L229.066 190.943L225.585 190.991L222.118 191.306L220.274 191.544L219.851 191.591L219.426 191.627L219 191.651L218.574 191.661L215.51 191.69L213.147 191.401L210.94 190.504L209.043 189.065L207.587 187.179L206.835 185.521L206.43 183.745L206.387 181.923L206.71 180.13L207.802 176.311L208.075 175.437L208.391 174.579L208.75 173.736L209.15 172.916L211.036 169.267L211.872 167.576L212.645 165.854L213.355 164.108L214 162.335L214.506 160.861L215.151 158.791L215.676 156.686L216.081 154.555L216.363 152.404L216.492 151.135L216.626 149.13L216.62 147.121L216.475 145.116L216.189 143.126L215.883 141.419L215.458 139.563L214.857 137.755L214.085 136.014L213.151 134.355L212.264 132.942L211.114 131.367L209.757 129.966L208.219 128.768L206.529 127.793L206.001 127.535L203.871 126.729L201.63 126.322L199.352 126.329L197.114 126.751L195.056 127.537L193.169 128.675L191.51 130.127L190.132 131.846L188.362 134.509L187.86 135.295L187.395 136.106L186.969 136.935L186.577 137.782L185.209 140.922L184.254 142.797L183.083 144.549L181.71 146.144L180.159 147.567L178.102 149.006L175.862 150.141L173.485 150.945L171.016 151.401L167.927 151.749L167.216 151.82L166.505 151.873L165.791 151.907L165.078 151.924L161 151.968L158.959 152.087L156.939 152.392L154.954 152.884L153.024 153.556L150.63 154.691L148.388 156.104L146.333 157.777L144.495 159.682L143.703 160.605L142.749 161.789L141.863 163.022L141.047 164.305L140.304 165.63L138.651 168.789L137.904 170.149L137.105 171.476L136.253 172.769L135.35 174.031L134.963 174.55L133.119 176.815L131.091 178.92L128.898 180.851L126.55 182.59L124.963 183.606L123.322 184.537L121.635 185.377L119.904 186.127L117.009 187.287L115.708 187.83L114.42 188.409L113.152 189.023L111.898 189.671L111.026 190.139L108.502 191.6L106.081 193.225L103.773 195.008L101.589 196.939L101.044 197.453L99.9434 198.542L98.8892 199.677L97.8885 200.856L96.9389 202.081L95.6217 203.857L94.4214 205.638L93.3915 207.52L92.5393 209.488L91.8673 211.527L91.3098 214.073L91.0371 216.664L91.0541 219.27L91.3585 221.86L91.5898 223.175L91.8941 224.68L92.2764 226.166L92.7365 227.63L93.2698 229.067L94.9059 233.13L95.3393 234.182L95.7873 235.227L96.2548 236.262L96.7368 237.293L97.5987 239.093L98.821 241.531L100.131 243.923L101.526 246.268L103.004 248.56L104.55 250.862L104.957 251.488L105.346 252.126L105.716 252.772L106.069 253.429L107.148 255.514L108.265 258.138L108.976 260.902L109.264 263.742L109.12 266.592L108.796 268.426L108.292 270.219L107.615 271.953L106.773 273.615L106.415 274.238L105.017 276.374L103.379 278.328L101.519 280.074L99.4638 281.587L97.5598 282.685L95.556 283.584L93.4694 284.273L91.3244 284.746L89.6712 285.021L87.9279 285.257L86.1724 285.389L84.4121 285.418L82.6542 285.34L78.2935 285.019L77.3976 284.946L76.5016 284.863L75.608 284.765L74.7145 284.656L69.7792 284.02L68.3135 283.84L66.8453 283.674L65.3747 283.523L63.9041 283.389L61.2697 283.16L59.2124 283.007L57.1501 282.905L55.0854 282.851L53.0208 282.849L51.2726 282.866L49.354 282.917L47.4379 283.029L45.5266 283.207L43.6226 283.443L42.0352 283.667L39.9339 284.018L37.8547 284.473L35.7973 285.031L33.7716 285.691L33.0265 285.954L30.8791 286.79L28.7852 287.759L26.7595 288.858L24.7752 290.105L22.7397 291.573L20.843 293.152L19.0559 294.859L17.3905 296.686L15.9321 298.513L14.5979 300.432L13.3878 302.434L12.3116 304.51L11.8661 305.44L11.0577 307.235L10.3297 309.065L9.6821 310.923L9.1221 312.811L8.39167 315.475L8.00942 316.927L7.65636 318.384L7.335 319.85L7.04037 321.319L6.09571 326.307L5.94476 327.121L5.79624 327.934L5.65013 328.75L5.50892 329.566L4.18198 337.261L4.1479 337.461L4.10164 337.729L2.86722 344.843L2.67244 345.983L2.48982 347.123L2.31695 348.268L2.15383 349.413L1.64741 353.081L1.41852 354.923L1.2408 356.771L1.1142 358.625L1.0387 360.481L1.00948 361.631L0.999753 364.049L1.09957 366.466L1.3041 368.872L1.61818 371.269L2.03938 373.651L2.56531 376.009L3.19833 378.342L3.93364 380.647L4.32077 381.769L4.9392 383.494L5.6063 385.201L6.31969 386.889L7.07933 388.558L8.85914 392.338L9.26575 393.186L9.67967 394.029L10.1033 394.866L10.5367 395.702L13.0981 400.566L13.6702 401.592L14.2887 402.593L14.9533 403.562L15.6594 404.5L17.4733 406.787L18.9074 408.361L20.5508 409.72L22.3647 410.835L24.3174 411.688L26.5379 412.294L28.8266 412.557L31.1274 412.475L33.3893 412.046L35.9409 411.359L36.871 411.086L37.7889 410.779L38.6922 410.433L39.5809 410.051L45.473 407.374L46.0598 407.099L46.6369 406.807L47.2041 406.497L47.7641 406.171L51.9203 403.677L53.2691 402.693L54.4256 401.489L55.3508 400.101L56.0204 398.571L56.4806 396.333L56.3905 394.05L55.7574 391.856L54.6155 389.878L54.0702 389.15L53.2886 388.219L52.4145 387.379L51.4528 386.638L50.4156 386.008L47.6521 384.522L46.0111 383.491L44.5259 382.244L43.2209 380.81L42.1228 379.212L41.088 377.071L40.4258 374.789L40.1482 372.426L40.2675 370.051L40.4428 368.755L40.7252 367.184L41.144 365.645L41.6992 364.149L42.3833 362.707L44.7596 358.223L45.0956 357.604L45.4389 356.99L45.7895 356.382L46.1523 355.78L47.3916 353.751L48.9085 351.198L50.3644 348.609L51.7571 345.988L53.089 343.333L54.6813 340.057L54.7811 339.855L57.2037 334.81L58.1289 333.04L59.1685 331.332L60.3178 329.7L61.5741 328.146L63.4464 326.171L65.4867 324.373L67.6829 322.766L70.0129 321.363L71.5931 320.508L72.6327 319.965L73.6919 319.451L74.7632 318.968L75.8491 318.518L78.6904 317.385L80.6674 316.545L82.6006 315.612L84.49 314.589L86.3258 313.478L88.5122 311.995L90.6061 310.387L92.6051 308.66L94.4993 306.821L95.6193 305.669L96.5859 304.651L97.5281 303.611L98.4436 302.549L99.3347 301.465L102.069 298.062L102.885 297.083L103.739 296.14L104.63 295.232L105.558 294.357L108.141 292.253L110.927 290.426L113.887 288.897L116.989 287.681L118.187 287.284L118.991 287.001L119.782 286.69L120.563 286.349L121.333 285.981L124.169 284.561L126.029 283.44L127.695 282.047L129.122 280.413L130.28 278.576L131.191 276.425L131.734 274.153L131.89 271.822L131.654 269.498L131.556 268.974L131.052 266.999L130.295 265.109L129.294 263.331L128.07 261.701L126.317 259.665L125.37 258.623L124.366 257.636L123.31 256.706L122.204 255.834L121.289 255.152L119.085 253.373L117.031 251.427L115.136 249.323L113.412 247.077L111.952 245.007L111.528 244.395L111.112 243.779L110.705 243.155L110.306 242.527L107.292 237.687L106.646 236.598L106.05 235.483L105.504 234.343L105.008 233.179L104.803 232.672L103.785 229.6L103.145 226.427L102.897 223.199L103.043 219.965L103.25 218.425L103.549 216.903L103.936 215.398L104.409 213.919L105.371 211.191L106.067 209.493L106.929 207.871L107.946 206.344L109.11 204.926L110.958 202.888L112.105 201.809L113.408 200.924L114.83 200.252L116.341 199.814L119.173 199.641L121.941 200.269L124.42 201.648L126.426 203.689L127.11 204.741L127.649 205.847L128.048 207.011L128.303 208.215L129.019 213.008L129.209 214.126L129.445 215.234L129.725 216.333L130.049 217.419L131.157 220.866L131.836 222.586L132.735 224.203L133.833 225.691L135.116 227.023L137.268 228.641L139.686 229.822L142.284 230.529L144.967 230.731L145.227 230.726L146.82 230.609L148.39 230.321L149.922 229.868L151.395 229.252L153.725 228.129L155.4 227.248L157.007 226.251L158.541 225.141L159.989 223.925L163.792 220.505L164.07 220.257L164.35 220.011L164.63 219.767L164.91 219.524L167.929 216.935L169.855 215.351L171.847 213.844L173.897 212.421L176 211.084L176.502 210.779L178.279 209.747L180.093 208.782L181.944 207.891L183.828 207.067L186.428 206.069L189.08 205.209L191.772 204.485L194.497 203.903L194.824 203.842L196.674 203.531L198.533 203.277L200.4 203.087L202.272 202.961L206.197 202.756L207.212 202.7L208.227 202.632L209.241 202.559L210.255 202.473L217.785 201.818L217.951 201.804L223.973 201.321L225.762 201.292L227.54 201.485L229.28 201.899L231.028 202.559L233.369 203.879L235.356 205.567L236.992 207.596L238.22 209.895L238.805 211.595L239.166 213.356L239.296 215.149L239.193 216.944L238.878 219.514L238.623 221.131L238.256 222.729L237.779 224.298L237.195 225.828L235.853 229.009L235.37 230.368L235.05 231.773L234.895 233.208L234.908 234.65L234.968 235.546L235.423 237.982L236.431 240.245L237.936 242.21L239.858 243.774L241.423 244.595L243.103 245.141L244.851 245.401L246.617 245.367L249.515 245.07L250.917 244.87L252.299 244.571L253.655 244.166L254.978 243.662L260.182 241.455L260.727 241.219L261.269 240.975L261.809 240.725L262.344 240.469L267.722 237.838L268.882 237.339L270.084 236.952L271.317 236.679L272.571 236.523L275.3 236.318L277.248 236.408L279.117 236.959L280.801 237.943L282.201 239.3L283.282 241.051L283.887 243.019L283.976 245.075L283.545 247.087L283.343 247.659L282.589 249.277L281.536 250.721L280.224 251.931L278.702 252.864L276.232 254.068L275.053 254.582L273.836 255.001L272.589 255.32L271.32 255.536L264.772 256.382L264.518 256.416L264.263 256.45L264.01 256.486L263.756 256.523L257.055 257.512L255.855 257.709L254.662 257.948L253.478 258.225L252.304 258.542L249.008 259.49L247.163 259.926L245.285 260.174L243.391 260.24L241.439 260.111L238.84 259.633L236.389 258.82L234.073 257.68L231.935 256.233L230.39 254.881L229.001 253.371L227.785 251.717L226.756 249.941L226.632 249.698L225.641 247.403L224.942 245.004L224.547 242.537L224.462 240.038L224.475 239.604L224.612 237.704L224.915 235.826L225.38 233.982L226.005 232.185L227.287 228.957L227.673 227.859L227.966 226.731L228.165 225.581L228.269 224.42L228.35 222.702L228.197 220.342L227.522 218.077L226.358 216.019L224.765 214.272L223.472 213.305L222.046 212.548L220.522 212.019L218.934 211.727L216.477 211.469L214.592 211.369L212.707 211.464L210.841 211.751L209.016 212.231L208.37 212.436L206.139 213.283L204.015 214.375L202.025 215.692L200.192 217.222L197.797 219.458L197.266 219.967L196.745 220.486L196.236 221.014L195.738 221.558L193.858 223.65L191.963 225.518L189.859 227.145L187.573 228.509L185.14 229.588L183.504 230.129L181.832 230.541L180.13 230.818L178.413 230.964L176.709 231.045L174.484 231.223L172.273 231.552L170.091 232.029L167.946 232.652L166.181 233.232L164.652 233.763L163.142 234.348L161.652 234.983L160.187 235.67L156.53 237.463L155.458 238.009L154.404 238.591L153.367 239.205L152.352 239.853L149.973 241.419L148.247 242.676L146.644 244.088L145.184 245.645L143.854 247.355L142.496 249.525L141.405 251.805L140.575 254.194L140.015 256.659L139.761 258.764L139.705 260.88L139.847 262.995L140.188 265.085L141.183 269.808L141.242 270.088L141.305 270.368L141.368 270.648L141.437 270.925L142.647 275.938L142.992 277.838L143.121 279.767L143.029 281.699L142.72 283.606L142.026 285.942L141.003 288.154L139.676 290.197L138.072 292.031L135.559 294.516L135.135 294.927L134.704 295.329L134.264 295.721L133.816 296.104L130.675 298.742L128.944 300.111L127.135 301.372L125.255 302.525L123.312 303.565L121.786 304.322L120.271 305.014L118.711 305.601L117.118 306.081L115.494 306.451L112.229 307.084L110.841 307.442L109.507 307.971L108.248 308.663L107.085 309.503L105.862 310.509L104.462 311.97L103.449 313.719L102.877 315.661L102.78 317.68L103.165 319.67L104.009 321.514L105.266 323.104L106.863 324.351L108.945 325.608L110.06 326.363L111.095 327.228L112.032 328.193L112.87 329.247L115.799 333.361L116.349 334.155L116.88 334.964L117.388 335.785L117.875 336.62L121.476 342.97L121.601 343.185L121.722 343.401L121.847 343.616L121.968 343.83L126.312 351.391L126.436 351.605L126.565 351.817L126.694 352.026L126.826 352.233L128.457 354.764L130.11 356.825L132.155 358.496L134.505 359.706L137.052 360.401L138.87 360.566L140.694 360.466L142.483 360.106L144.205 359.49L148.38 357.646L149.016 357.356L149.642 357.051L150.263 356.73L150.874 356.394L155.393 353.834L156.754 353.052L158.105 352.255L159.449 351.439L160.781 350.611L165.592 347.574L165.974 347.333L166.356 347.094L166.739 346.853L167.123 346.614L172.847 343.041L173.731 342.495L174.617 341.959L175.511 341.431L176.409 340.91L177.498 340.288L180.239 338.654L182.925 336.925L185.547 335.1L188.104 333.188L189.874 331.815L190.275 331.498L190.672 331.174L191.063 330.843L191.447 330.504L193.957 328.253L195.893 326.751L198.023 325.54L200.303 324.644L202.687 324.079L204.815 323.869L206.953 323.923L209.069 324.242L211.128 324.821L213.412 325.62L214.791 326.061L216.193 326.427L217.612 326.714L219.045 326.926L220.699 327.126L223.228 327.352L225.766 327.428L228.304 327.347L230.833 327.116L234.003 326.726L234.693 326.636L235.381 326.534L236.067 326.419L236.751 326.295L241.339 325.411L243.082 325.165L244.841 325.094L246.599 325.199L248.337 325.477L248.85 325.586L251.276 326.302L253.559 327.394L255.644 328.828L257.477 330.572L258.752 332.19L259.81 333.958L260.633 335.848L261.207 337.828L261.488 339.097L261.827 341.061L261.979 343.048L261.942 345.041L261.716 347.021L261.319 349.469L261.029 351.028L260.666 352.572L260.232 354.097L259.726 355.6L257.548 361.614L257.49 361.774L256.63 364.183L255.597 367.498L254.837 370.886L254.355 374.326L254.155 377.792L254.154 379.122L254.193 380.449L254.274 381.777L254.397 383.102L254.858 387.359L254.99 388.728L255.091 390.1L255.159 391.473L255.195 392.85L255.237 395.665L255.328 397.728L255.54 399.779L255.871 401.818L256.321 403.832L257.074 406.385L258.017 408.874L259.145 411.283L260.451 413.602L260.807 414.182L261.73 415.765L262.578 417.392L263.348 419.056L264.04 420.754L264.979 423.53L265.707 426.37L266.22 429.257L266.516 432.173L266.679 434.748L266.716 435.368L266.745 435.99L266.767 436.611L266.782 437.232L266.916 444.121L266.933 444.922L266.956 445.723L266.984 446.523L267.017 447.324L267.275 453.191L267.342 454.317L267.444 455.44L267.582 456.56L267.754 457.674L268.357 461.21L268.763 463.031L269.349 464.801L270.111 466.504L271.04 468.122L272.667 470.284L274.59 472.187L276.771 473.79L279.193 475.071L281.036 475.772L282.907 476.268L284.82 476.569L286.753 476.671L287.983 476.673L290.195 476.571L292.387 476.261L294.541 475.745L296.636 475.03L298.878 474.004L301 472.749L302.98 471.279L304.793 469.608L307.59 466.748L307.844 466.491L308.1 466.237L308.359 465.985L308.62 465.736L312.401 462.165L313.775 461.014L315.278 460.036L316.886 459.244L318.578 458.651L319.908 458.272L321.935 457.889L323.997 457.88L326.027 458.245L327.957 458.972L329.029 459.491L330.554 460.437L331.851 461.677L332.864 463.158L333.55 464.817L333.904 467.106L333.639 469.407L332.773 471.554L331.367 473.395L330.115 474.645L329.169 475.491L328.137 476.229L327.031 476.85L325.863 477.346L322.528 478.552L320.882 479.209L319.281 479.97L317.732 480.832L316.242 481.791L315.734 482.143L313.583 483.764L311.575 485.559L309.723 487.514L308.04 489.617L305.671 492.842L305.541 493.019L305.37 493.256L302.967 496.6L301.357 498.746L299.659 500.824L297.877 502.829L296.013 504.759L294.453 506.258L292.845 507.703L291.189 509.094L289.489 510.429L287.21 512.157L286.209 512.937L285.231 513.744L284.275 514.577L283.341 515.436L282.411 516.315L280.382 518.386L278.516 520.605L276.823 522.959L275.313 525.434L274.417 527.137L273.607 528.882L272.887 530.666L272.257 532.483L271.692 534.256L271.119 536.169L270.614 538.101L270.178 540.049L269.81 542.012L269.024 546.66L268.942 547.162L268.864 547.665L268.792 548.168L268.725 548.672L268.051 553.936L267.77 555.578L267.35 557.19L266.796 558.76L266.11 560.278L265.481 561.526L264.263 563.539L262.75 565.341L260.978 566.888L258.989 568.144L256.831 569.079L254.554 569.671L252.213 569.905L249.865 569.777L249.613 569.743L247.42 569.29L245.314 568.529L243.338 567.476L241.532 566.151L239.81 564.441L238.373 562.485L237.255 560.331L236.465 557.961L236.067 555.809L235.963 553.695L236.136 551.586L236.584 549.517L236.88 548.485L237.535 546.567L238.381 544.724L239.408 542.976L240.605 541.34L243.146 538.212L243.608 537.654L244.08 537.105L244.561 536.564L245.053 536.032L249.29 531.528L250.013 530.767L250.741 530.01L251.475 529.259L252.215 528.515L254.949 525.859L257.757 523.281L260.635 520.783L263.582 518.367L265.103 517.155L265.285 517.011L267.697 515.081L270.262 513.047L272.846 511.037L275.448 509.051L278.068 507.088L280.344 505.4L280.552 505.247L280.832 505.044L286.631 500.899L287.526 500.176L288.329 499.352L289.028 498.439L289.615 497.45L291.303 494.177L291.736 492.885L291.759 491.522L291.37 490.216L290.606 489.087L289.24 488.087L287.599 487.667L285.92 487.888L284.444 488.719L281.603 491.127L281.383 491.32L281.171 491.521L280.965 491.729L280.767 491.944L279.397 493.481L276.933 495.762L274.078 497.529L270.937 498.717L267.627 499.281L266.416 499.326L265.204 499.288L263.997 499.165L262.803 498.959L256.95 497.74L256.307 497.609L255.663 497.486L255.017 497.37L254.371 497.26L252.087 496.888L249.077 496.486L246.05 496.263L243.015 496.217L239.982 496.35L238.839 496.434L237.603 496.546L236.372 496.702L235.147 496.9L233.93 497.142L231.226 497.728L229.047 498.086L226.844 498.223L224.637 498.137L222.451 497.828L219.955 497.193L217.551 496.267L215.273 495.066L213.152 493.605L212.476 493.079L211.104 491.93L209.815 490.687L208.618 489.357L207.517 487.946L206.107 486.002L205.053 484.479L204.066 482.912L203.148 481.303L202.302 479.656L201.928 478.888L200.861 476.549L199.91 474.16L199.078 471.727L198.355 469.212L197.825 466.998L197.398 464.808L197.063 462.602L196.821 460.384L196.682 458.792L196.545 456.972L196.455 455.149L196.41 453.324L196.413 451.499L196.473 447.067L196.493 446.245L196.528 445.422L196.579 444.601L196.645 443.781L196.948 440.455L197.051 438.112L196.935 435.77L196.601 433.449L196.053 431.169L195.264 428.874L194.257 426.665L193.041 424.566L191.629 422.59L190.01 420.547L189.333 419.721L188.625 418.922L187.884 418.15L187.12 417.407L185.345 415.748L183.397 414.15L181.259 412.818L178.966 411.775L176.558 411.037L174.413 410.655L172.239 410.516L170.062 410.621L167.912 410.969L166.904 411.191L164.903 411.722L162.955 412.426L161.075 413.295L159.278 414.323L157.304 415.57L155.984 416.442L154.704 417.368L153.462 418.35L152.264 419.382L150.367 421.087L148.846 422.366L147.239 423.54L145.556 424.602L143.808 425.547L141.234 426.674L138.566 427.55L135.827 428.167L133.042 428.519L129.599 428.788L129.343 428.807L129.087 428.824L128.829 428.84L128.574 428.854L122.869 429.146L121.16 429.335L119.485 429.721L117.863 430.301L116.31 431.073L113.955 432.741L111.983 434.826L110.457 437.255L109.434 439.936L109.091 441.528L108.928 443.148L108.947 444.776L109.144 446.392L109.675 449.349L110.016 450.968L110.452 452.564L110.983 454.131L111.603 455.665L113.897 460.874L114.033 461.19L114.167 461.508L114.294 461.827L114.418 462.149L116.042 466.437L116.631 468.496L116.87 470.624L116.753 472.762L116.266 474.904L115.38 477.045L114.148 478.944L112.597 480.591L110.776 481.933L108.847 482.886L106.788 483.496L104.655 483.745L102.507 483.628L101.716 483.516L99.846 483.127L98.0419 482.5L96.3302 481.645L94.7452 480.578L92.8777 479.136L91.6433 478.115L90.4795 477.013L89.3936 475.834L88.3905 474.585L86.3623 471.881L85.4518 470.629L84.585 469.348L83.7572 468.041L82.9731 466.707L81.9286 464.867L80.8452 462.894L79.8153 460.892L78.8414 458.863L77.9235 456.807L77.6995 456.29L76.8108 454.144L75.9781 451.976L75.2014 449.786L74.4832 447.576L74.1155 446.386L73.575 444.553L73.0856 442.705L72.6522 440.844L72.27 438.971L72.0606 437.859L71.6734 435.518L71.3886 433.162L71.2084 430.796L71.1329 428.424L71.1646 425.971L71.3082 423.521L71.5614 421.08L71.9267 418.652L72.6912 414.27L72.735 414.021L72.7959 413.69L74.3273 405.628L74.4759 405.024L74.6901 404.437L74.9628 403.876L75.2939 403.348L76.4675 401.682L77.9332 400.379L79.825 399.86L81.7509 400.235L83.3092 401.426L83.5575 401.762L83.7742 402.118L83.9519 402.495L84.0956 402.887L85.4079 407.123L86.1822 409.15L87.2121 411.062L88.4781 412.823L89.9609 414.409L91.7553 415.875L93.7348 417.081L95.8603 418.001L98.093 418.622L100.17 419.049L101.453 419.275L102.748 419.433L104.051 419.524L105.356 419.541L112.285 419.453L112.575 419.451L120.037 419.397L121.114 419.377L122.187 419.334L123.259 419.27L124.33 419.183L125.674 419.058L128.732 418.661L131.751 418.038L134.717 417.193L137.612 416.131L139.17 415.458L140.696 414.72L142.194 413.921L143.657 413.062L147.2 410.882L148.118 410.309L149.028 409.727L149.934 409.133L150.832 408.529L155.47 405.367L156.284 404.826L157.112 404.31L157.951 403.813L158.804 403.338L161.655 401.799L163.666 400.839L165.762 400.089L167.927 399.553L170.133 399.236L172.577 399.148L175.019 399.334L177.425 399.787L179.765 400.503L180.237 400.676L182.095 401.448L183.879 402.371L185.584 403.438L187.195 404.641L189.752 406.724L190.631 407.459L191.491 408.217L192.331 408.996L193.151 409.8L196.659 413.322L197.513 414.209L198.339 415.122L199.134 416.062L199.899 417.029L201.019 418.491L202.537 420.681L203.841 423.002L204.922 425.435L205.769 427.961L206.254 429.937L206.595 431.943L206.791 433.969L206.841 436.003L206.784 441.079L206.782 441.338L206.78 441.598L206.781 441.857L206.782 442.117L206.814 446.645L206.925 448.956L207.223 451.25L207.706 453.513L208.371 455.729L209.25 457.963L210.313 460.116L211.554 462.172L212.965 464.115L213.84 465.221L214.917 466.518L216.051 467.764L217.242 468.957L218.486 470.093L220.834 472.142L222.059 473.186L223.307 474.202L224.577 475.189L225.871 476.147L228.045 477.72L229.607 478.818L231.198 479.874L232.817 480.886L234.463 481.854L237.403 483.53L238.501 484.126L239.624 484.677L240.768 485.18L241.932 485.635L245.706 487.021L247.191 487.469L248.719 487.741L250.268 487.832L251.817 487.741L253.347 487.561L255.416 487.088L257.336 486.185L259.019 484.892L260.387 483.269L261.299 481.585L261.87 479.756L262.077 477.851L261.913 475.943L261.175 471.949L261.058 471.363L260.923 470.78L260.77 470.202L260.6 469.629L259.986 467.666L259.122 464.588L258.442 461.464L257.949 458.305L257.644 455.122L257.459 452.323L257.435 451.993L257.4 451.553L256.935 446.271L256.647 444.292L256.138 442.359L255.414 440.495L254.485 438.725L253.015 436.632L251.258 434.773L249.251 433.187L247.037 431.907L245.401 431.114L244.374 430.645L243.326 430.226L242.259 429.857L241.176 429.539L235.681 428.067L234.824 427.832L233.97 427.589L233.119 427.336L232.27 427.074L228.139 425.776L226.424 425.204L224.731 424.566L223.063 423.867L221.423 423.107L218.754 421.704L216.178 420.14L213.703 418.42L211.339 416.55L210.98 416.248L209.803 415.227L208.657 414.17L207.543 413.081L206.462 411.958L204.41 409.764L203.189 408.436L201.992 407.087L200.819 405.718L199.669 404.327L196.549 400.483L196.185 400.03L195.826 399.572L195.472 399.11L195.123 398.644L192.138 394.606L191.036 393.237L189.825 391.965L188.51 390.799L187.105 389.746L186.779 389.522L184.498 388.173L182.056 387.145L179.497 386.453L176.87 386.112L174.936 386.088L173.01 386.254L171.111 386.609L169.254 387.148L166.188 388.202L165.022 388.628L163.87 389.094L162.733 389.598L161.618 390.141L159.108 391.415L157.153 392.448L155.225 393.534L153.33 394.674L151.47 395.87L148.249 398.009L147.667 398.396L147.09 398.788L146.513 399.185L145.941 399.585L142.235 402.196L140.667 403.25L139.058 404.242L137.409 405.165L135.725 406.017L133.767 406.958L132.077 407.705L130.344 408.343L128.571 408.867L126.77 409.276L124.352 409.746L122.669 409.985L120.97 410.053L119.273 409.951L117.595 409.676L115.404 409.203L113.7 408.68L112.107 407.876L110.676 406.814L109.444 405.523L108.738 404.646L107.754 403.094L107.143 401.363L106.934 399.536L107.138 397.711L107.834 395.797L108.981 394.116L110.508 392.769L112.322 391.844L112.855 391.651L114.494 391.225L116.181 391.106L117.863 391.298L119.482 391.795L122.879 393.196L124.045 393.629L125.238 393.987L126.451 394.262L127.736 394.465L130.906 394.613L133.998 394.258L136.996 393.417L139.822 392.114L141.955 390.916L142.301 390.718L142.642 390.516L142.983 390.309L143.319 390.097L147.438 387.452L149.126 386.41L150.849 385.428L152.605 384.51L154.392 383.65L156.099 382.87L157.83 382.023L159.515 381.09L161.148 380.072L162.731 378.971L164.951 377.21L167.033 375.288L168.966 373.215L170.739 371.006L172.58 368.526L172.86 368.154L173.144 367.781L173.432 367.413L173.721 367.048L177.734 362.062L178.503 361.187L179.351 360.386L180.266 359.662L181.242 359.027L184.176 357.292L185.601 356.671L187.132 356.406L188.683 356.515L190.161 356.993L191.779 358.065L193.007 359.568L193.732 361.368L193.889 363.304L193.565 367.922L193.537 368.253L193.488 368.692L193.42 369.189L193.193 373.149L193.601 377.095L194.633 380.927L196.301 384.614L196.66 385.248L196.994 385.803L197.342 386.349L197.705 386.887L201.653 392.587L202.079 393.193L202.511 393.795L202.949 394.391L203.395 394.981L204.244 396.094L206.345 398.683L208.603 401.136L211.008 403.445L213.551 405.601L214.746 406.526L215.967 407.418L217.212 408.273L218.48 409.094L219.155 409.518L221.663 411.018L224.234 412.409L226.861 413.69L229.541 414.857L231.968 415.85L232.547 416.087L233.127 416.318L233.709 416.545L234.292 416.769L241.867 419.653L242.125 419.74L242.505 419.845L245.173 419.716L247.339 418.255L248.447 415.889Z" stroke="#FF5053"/>
</svg>
