<svg width="641" height="7" viewBox="0 0 641 7" fill="none" xmlns="http://www.w3.org/2000/svg">
<line x1="0.5" y1="7" x2="0.500002" y2="3" stroke="#29114C"/>
<line x1="8.5" y1="7" x2="8.5" y2="3" stroke="#29114C"/>
<line x1="16.5" y1="7" x2="16.5" y2="3" stroke="#29114C"/>
<line x1="24.5" y1="7" x2="24.5" y2="3" stroke="#29114C"/>
<line x1="32.5" y1="7" x2="32.5" y2="3" stroke="#29114C"/>
<line x1="40.5" y1="7" x2="40.5" y2="3" stroke="#29114C"/>
<line x1="48.5" y1="7" x2="48.5" y2="3" stroke="#29114C"/>
<line x1="56.5" y1="7" x2="56.5" y2="3" stroke="#29114C"/>
<line x1="64.5" y1="7" x2="64.5" y2="3" stroke="#29114C"/>
<line x1="72.5" y1="7" x2="72.5" y2="3" stroke="#29114C"/>
<line x1="80.5" y1="7" x2="80.5" y2="3" stroke="#29114C"/>
<line x1="88.5" y1="7" x2="88.5" y2="3" stroke="#29114C"/>
<line x1="96.5" y1="7" x2="96.5" y2="3" stroke="#29114C"/>
<line x1="104.5" y1="7" x2="104.5" y2="3" stroke="#29114C"/>
<line x1="112.5" y1="7" x2="112.5" y2="3" stroke="#29114C"/>
<line x1="120.5" y1="7" x2="120.5" y2="3" stroke="#29114C"/>
<line x1="128.5" y1="7" x2="128.5" y2="3" stroke="#29114C"/>
<line x1="136.5" y1="7" x2="136.5" y2="3" stroke="#29114C"/>
<line x1="144.5" y1="7" x2="144.5" y2="3" stroke="#29114C"/>
<line x1="152.5" y1="7" x2="152.5" y2="3" stroke="#29114C"/>
<line x1="160.5" y1="7" x2="160.5" y2="3" stroke="#29114C"/>
<line x1="168.5" y1="7" x2="168.5" y2="3" stroke="#29114C"/>
<line x1="176.5" y1="7" x2="176.5" y2="3" stroke="#29114C"/>
<line x1="184.5" y1="7" x2="184.5" y2="3" stroke="#29114C"/>
<line x1="192.5" y1="7" x2="192.5" y2="3" stroke="#29114C"/>
<line x1="200.5" y1="7" x2="200.5" y2="3" stroke="#29114C"/>
<line x1="208.5" y1="7" x2="208.5" y2="3" stroke="#29114C"/>
<line x1="216.5" y1="7" x2="216.5" y2="3" stroke="#29114C"/>
<line x1="224.5" y1="7" x2="224.5" y2="3" stroke="#29114C"/>
<line x1="232.5" y1="7" x2="232.5" y2="3" stroke="#29114C"/>
<line x1="240.5" y1="7" x2="240.5" y2="3" stroke="#29114C"/>
<line x1="248.5" y1="7" x2="248.5" y2="3" stroke="#29114C"/>
<line x1="256.5" y1="7" x2="256.5" y2="3" stroke="#29114C"/>
<line x1="264.5" y1="7" x2="264.5" y2="3" stroke="#29114C"/>
<line x1="272.5" y1="7" x2="272.5" y2="3" stroke="#29114C"/>
<line x1="280.5" y1="7" x2="280.5" y2="3" stroke="#29114C"/>
<line x1="288.5" y1="7" x2="288.5" y2="3" stroke="#29114C"/>
<line x1="296.5" y1="7" x2="296.5" y2="3" stroke="#29114C"/>
<line x1="304.5" y1="7" x2="304.5" y2="3" stroke="#29114C"/>
<line x1="312.5" y1="7" x2="312.5" y2="3" stroke="#29114C"/>
<line x1="320.5" y1="7" x2="320.5" y2="3" stroke="#29114C"/>
<line x1="328.5" y1="7" x2="328.5" y2="3" stroke="#29114C"/>
<line x1="336.5" y1="7" x2="336.5" y2="3" stroke="#29114C"/>
<line x1="344.5" y1="7" x2="344.5" y2="3" stroke="#29114C"/>
<line x1="352.5" y1="7" x2="352.5" y2="3" stroke="#29114C"/>
<line x1="360.5" y1="7" x2="360.5" y2="3" stroke="#29114C"/>
<line x1="368.5" y1="7" x2="368.5" y2="3" stroke="#29114C"/>
<line x1="376.5" y1="7" x2="376.5" y2="3" stroke="#29114C"/>
<line x1="384.5" y1="7" x2="384.5" y2="3" stroke="#29114C"/>
<line x1="392.5" y1="7" x2="392.5" y2="3" stroke="#29114C"/>
<line x1="400.5" y1="7" x2="400.5" y2="3" stroke="#29114C"/>
<line x1="408.5" y1="7" x2="408.5" y2="3" stroke="#29114C"/>
<line x1="416.5" y1="7" x2="416.5" y2="3" stroke="#29114C"/>
<line x1="424.5" y1="7" x2="424.5" y2="3" stroke="#29114C"/>
<line x1="432.5" y1="7" x2="432.5" y2="3" stroke="#29114C"/>
<line x1="440.5" y1="7" x2="440.5" y2="3" stroke="#29114C"/>
<line x1="448.5" y1="7" x2="448.5" y2="3" stroke="#29114C"/>
<line x1="456.5" y1="7" x2="456.5" y2="3" stroke="#29114C"/>
<line x1="464.5" y1="7" x2="464.5" y2="3" stroke="#29114C"/>
<line x1="472.5" y1="7" x2="472.5" y2="3" stroke="#29114C"/>
<line x1="480.5" y1="7" x2="480.5" y2="3" stroke="#29114C"/>
<line x1="488.5" y1="7" x2="488.5" y2="3" stroke="#29114C"/>
<line x1="496.5" y1="7" x2="496.5" y2="3" stroke="#29114C"/>
<line x1="504.5" y1="7" x2="504.5" y2="3" stroke="#29114C"/>
<line x1="512.5" y1="7" x2="512.5" y2="3" stroke="#29114C"/>
<line x1="520.5" y1="7" x2="520.5" y2="3" stroke="#29114C"/>
<line x1="528.5" y1="7" x2="528.5" y2="3" stroke="#29114C"/>
<line x1="536.5" y1="7" x2="536.5" y2="3" stroke="#29114C"/>
<line x1="544.5" y1="7" x2="544.5" y2="3" stroke="#29114C"/>
<line x1="552.5" y1="7" x2="552.5" y2="3" stroke="#29114C"/>
<line x1="560.5" y1="7" x2="560.5" y2="3" stroke="#29114C"/>
<line x1="568.5" y1="7" x2="568.5" y2="3" stroke="#29114C"/>
<line x1="576.5" y1="7" x2="576.5" y2="3" stroke="#29114C"/>
<line x1="584.5" y1="7" x2="584.5" y2="3" stroke="#29114C"/>
<line x1="592.5" y1="7" x2="592.5" y2="3" stroke="#29114C"/>
<line x1="600.5" y1="7" x2="600.5" y2="3" stroke="#29114C"/>
<line x1="608.5" y1="7" x2="608.5" y2="3" stroke="#29114C"/>
<line x1="616.5" y1="7" x2="616.5" y2="3" stroke="#29114C"/>
<line x1="624.5" y1="7" x2="624.5" y2="3" stroke="#29114C"/>
<line x1="632.5" y1="7" x2="632.5" y2="3" stroke="#29114C"/>
<line x1="640.5" y1="7" x2="640.5" y2="3" stroke="#29114C"/>
<line y1="6.5" x2="641" y2="6.5" stroke="#29114C"/>
<line x1="0.5" y1="7" x2="0.500004" y2="-1.34899e-10" stroke="#29114C"/>
<line x1="40.5" y1="7" x2="40.5" y2="-1.34899e-10" stroke="#29114C"/>
<line x1="80.5" y1="7" x2="80.5" y2="-1.34899e-10" stroke="#29114C"/>
<line x1="120.5" y1="7" x2="120.5" y2="-1.34899e-10" stroke="#29114C"/>
<line x1="160.5" y1="7" x2="160.5" y2="-1.34899e-10" stroke="#29114C"/>
<line x1="200.5" y1="7" x2="200.5" y2="-1.34899e-10" stroke="#29114C"/>
<line x1="240.5" y1="7" x2="240.5" y2="-1.34899e-10" stroke="#29114C"/>
<line x1="280.5" y1="7" x2="280.5" y2="-1.34899e-10" stroke="#29114C"/>
<line x1="320.5" y1="7" x2="320.5" y2="-1.34899e-10" stroke="#29114C"/>
<line x1="360.5" y1="7" x2="360.5" y2="-1.34899e-10" stroke="#29114C"/>
<line x1="400.5" y1="7" x2="400.5" y2="-1.34899e-10" stroke="#29114C"/>
<line x1="440.5" y1="7" x2="440.5" y2="-1.34899e-10" stroke="#29114C"/>
<line x1="480.5" y1="7" x2="480.5" y2="-1.34899e-10" stroke="#29114C"/>
<line x1="520.5" y1="7" x2="520.5" y2="-1.34899e-10" stroke="#29114C"/>
<line x1="560.5" y1="7" x2="560.5" y2="-1.34899e-10" stroke="#29114C"/>
<line x1="600.5" y1="7" x2="600.5" y2="-1.34899e-10" stroke="#29114C"/>
<line x1="640.5" y1="7" x2="640.5" y2="-1.34899e-10" stroke="#29114C"/>
</svg>
