<?xml version="1.0" encoding="UTF-8"?>
<svg id="Layer_2" data-name="Layer 2" xmlns="http://www.w3.org/2000/svg" viewBox="0 0 524.33 204.5">
  <path d="m10.33,155.13v-6.37h2.5c7.81,0,12.86-.52,15.16-1.57,2.3-1.05,3.45-3.46,3.45-7.23V29.03c0-3.98-1.17-6.45-3.5-7.43-2.34-.98-7.31-1.47-14.91-1.47h-2.7v-6.37h71.63c11.16,0,20.39,1.88,27.7,5.65,6.24,3.3,11.24,7.52,14.99,12.66,3.75,5.15,5.63,10.61,5.63,16.4,0,2.36-.35,4.79-1.06,7.29-.71,2.5-2.12,5.5-4.24,9.01-2.12,3.51-5.6,6.75-10.46,9.72-4.85,2.97-10.84,5.23-17.97,6.78,11.44.81,21.17,4.67,29.18,11.57,8.01,6.91,12.02,15.04,12.02,24.4s-3.74,17.6-11.21,24.71c-7.47,7.11-16.69,11.37-27.66,12.78-2.36.27-5.89.4-10.6.4H10.33Zm38.5-75.99h29.16c6.32,0,11.85-1.06,16.6-3.19,4.74-2.12,8.29-4.84,10.64-8.15,2.35-3.31,4.05-6.56,5.1-9.77,1.04-3.21,1.56-6.32,1.56-9.36,0-2.63-.42-5.4-1.26-8.3-.84-2.9-2.19-5.97-4.04-9.21-1.85-3.24-4.81-5.89-8.88-7.95-4.07-2.06-8.86-3.09-14.38-3.09h-24.01c-3.97,0-6.71.44-8.22,1.32-1.51.88-2.27,2.97-2.27,6.27v51.42Zm0,61.54c0,3.44.62,5.64,1.87,6.62,1.24.98,4.25,1.46,9.03,1.46h24.42c10.63,0,18.77-3.22,24.42-9.65,5.65-6.43,8.48-13.79,8.48-22.08s-2.52-15.71-7.57-22.69c-5.05-6.97-12.58-10.46-22.6-10.46h-38.04v56.79Z"/>
  <path d="m149.1,120.3v-4.7h2.01c5.81,0,9.55-.38,11.22-1.15,1.66-.77,2.5-2.55,2.5-5.33V27.7c0-2.83-.87-4.63-2.61-5.4-1.74-.77-5.44-1.15-11.11-1.15h-2.01v-4.7h85.96l4.25,34.37-3.8-4.63c-.58-3.12-1.02-5.49-1.33-7.13-.31-1.64-1.22-3.98-2.75-7-1.53-3.03-3.47-5.31-5.83-6.83-4.21-2.71-12.14-4.06-23.78-4.06h-12.64c-4.72,0-7.66.25-8.84.75-1.18.5-1.82,2.09-1.92,4.77v37.35h12.23c7.65,0,12.57-1.12,14.76-3.37,2.19-2.25,3.28-7.04,3.28-14.37h3.8v40.33h-3.8c0-7.49-1.13-12.34-3.39-14.56-2.26-2.22-7.19-3.33-14.8-3.33h-12.08v41.08c0,2.73.58,4.39,1.75,4.96s4.31.86,9.42.86h14.15c3.97,0,7.2-.11,9.68-.34s5.33-.87,8.53-1.94,5.87-2.62,8.01-4.66c1.94-1.94,3.65-4.79,5.14-8.54s2.43-6.71,2.81-8.86,1.01-5.59,1.86-10.33l3.8.3-6.36,39.06h-88.09Z"/>
  <path d="m245.28,149.67v-6h2.57c7.29,0,12.01-.49,14.13-1.48,2.12-.98,3.25-3.25,3.38-6.81V30.72c0-3.49-1.08-5.73-3.24-6.71-2.16-.98-6.92-1.48-14.27-1.48h-2.57v-6h57.48c13.39,0,24.3,2.09,32.74,6.27,6.91,3.36,12.32,7.57,16.23,12.64,3.9,5.07,5.85,10.45,5.85,16.15,0,6.1-2.28,11.75-6.85,16.96-4.57,5.21-10.82,9.31-18.75,12.29-1.02.38-3.87,1.24-8.56,2.57,5.71,1.84,10.36,4.22,13.94,7.14,3.58,2.92,6.15,6.38,7.71,10.37,1.55,4,2.66,7.85,3.33,11.56.67,3.71,1.35,8.2,2.05,13.46.7,5.27,1.59,9.64,2.66,13.13,2.09,6.92,5.58,10.37,10.47,10.37,2.73,0,5.07-.94,7.04-2.81,1.97-1.87,3.27-3.89,3.9-6.04.63-2.16,1.2-4.34,1.71-6.57l.57-3.14c.41-.89,1.2-1.33,2.37-1.33,1.65,0,2.48,1.02,2.48,3.04,0,1.71-.26,3.62-.78,5.71-.52,2.09-1.41,4.38-2.67,6.85s-3.25,4.55-5.97,6.23c-2.72,1.68-5.92,2.52-9.61,2.52s-7.34-.46-10.8-1.38c-3.46-.92-6.88-2.38-10.28-4.38-3.39-2-6.12-5.01-8.18-9.04-2.06-4.03-3.09-8.83-3.09-14.42v-13.89c0-6.72-2.01-12.66-6.04-17.79-4.03-5.14-10.86-7.71-20.51-7.71h-21.6v49.48c0,3.87,1.11,6.31,3.33,7.33,2.22,1.02,7.17,1.52,14.84,1.52h1.9v6c-9.64-.38-19.13-.57-28.45-.57s-18.81.19-28.45.57Zm36.83-68.8h18.18c5.71,0,10.58-.35,14.61-1.05,4.03-.7,7.85-2.06,11.47-4.1,3.62-2.03,6.38-5,8.28-8.91s2.85-8.85,2.85-14.82c0-9.66-2.54-16.98-7.61-21.97-5.08-4.99-13.86-7.48-26.36-7.48h-8.56c-5.71,0-9.28.35-10.71,1.05-1.43.7-2.14,2.83-2.14,6.39v50.9Z"/>
  <path d="m376.5,120.43c0-20.8,7.06-38.25,21.17-52.32,14.11-14.08,30.53-21.12,49.23-21.12,14.24,0,26.62,5.75,37.12,17.25,7.55-10.71,11.62-16.26,12.21-16.66.26-.26.62-.39,1.08-.39,1.51,0,2.23,1.48,2.17,4.43v48.81c0,2.82-.92,4.23-2.76,4.23-1.31,0-2.18-.38-2.61-1.13-.43-.76-.77-2.05-1.03-3.89-1.77-12.49-6.55-23.35-14.33-32.58-7.78-9.23-17.74-13.85-29.89-13.85-4,0-8.09.53-12.26,1.58-4.17,1.05-8.68,3.14-13.54,6.26-4.86,3.12-9.13,7.04-12.8,11.73-3.68,4.7-6.76,11.19-9.26,19.47-2.5,8.28-3.74,17.68-3.74,28.2s1.18,19.16,3.54,27.13c2.36,7.98,5.35,14.38,8.96,19.21,3.61,4.83,7.84,8.87,12.7,12.11,4.86,3.25,9.53,5.48,14.03,6.7,4.5,1.21,9.04,1.82,13.64,1.82,7.29,0,14.01-1.69,20.19-5.07,6.17-3.38,9.78-8.03,10.83-13.93.26-1.31.39-3.38.39-6.2v-11.92c0-4.33-1.18-7.04-3.54-8.12s-8.63-1.62-18.81-1.62h-2.66v-6.2l31.71.39h9.45l15.95-.39v6.2h-.69c-5.65,0-9.31.48-10.98,1.43-1.67.95-2.51,3.3-2.51,7.04v35.35c0,2.95-.59,4.43-1.77,4.43-.66,0-1.87-.69-3.64-2.07-3.74-3.08-6.76-6.56-9.06-10.44h-.2c-3.22,5.65-8.26,9.95-15.12,12.9-6.86,2.95-14.39,4.43-22.6,4.43-18.97,0-35.48-7.02-49.53-21.08-14.05-14.05-21.07-31.42-21.07-52.1Z"/>
</svg>