<svg id="Layer_1" data-name="Layer 1" xmlns="http://www.w3.org/2000/svg" xmlns:xlink="http://www.w3.org/1999/xlink" viewBox="0 0 1190.55 389.73"><defs><style>.cls-1,.cls-10,.cls-11,.cls-12,.cls-13,.cls-14,.cls-15,.cls-16,.cls-17,.cls-18,.cls-19,.cls-2,.cls-20,.cls-21,.cls-22,.cls-23,.cls-24,.cls-25,.cls-26,.cls-27,.cls-28,.cls-29,.cls-3,.cls-30,.cls-31,.cls-32,.cls-33,.cls-34,.cls-35,.cls-36,.cls-37,.cls-38,.cls-39,.cls-4,.cls-40,.cls-41,.cls-42,.cls-43,.cls-44,.cls-45,.cls-46,.cls-47,.cls-48,.cls-49,.cls-5,.cls-50,.cls-51,.cls-52,.cls-53,.cls-54,.cls-6,.cls-7,.cls-8,.cls-9{fill:none;stroke-miterlimit:10;}.cls-1,.cls-2,.cls-3,.cls-4,.cls-5,.cls-6{stroke:#000;stroke-width:0.5px;}.cls-2{stroke-dasharray:4.01 4.01;}.cls-3{stroke-dasharray:3.99 3.99;}.cls-4{stroke-dasharray:4.01 4.01;}.cls-5{stroke-dasharray:4.01 4.01;}.cls-6{stroke-dasharray:4.01 4.01;}.cls-7{stroke:url(#linear-gradient);}.cls-8{stroke:url(#linear-gradient-2);}.cls-9{stroke:url(#linear-gradient-3);}.cls-10{stroke:url(#linear-gradient-4);}.cls-11{stroke:url(#linear-gradient-5);}.cls-12{stroke:url(#linear-gradient-6);}.cls-13{stroke:url(#linear-gradient-7);}.cls-14{stroke:url(#linear-gradient-8);}.cls-15{stroke:url(#linear-gradient-9);}.cls-16{stroke:url(#linear-gradient-10);}.cls-17{stroke:url(#linear-gradient-11);}.cls-18{stroke:url(#linear-gradient-12);}.cls-19{stroke:url(#linear-gradient-13);}.cls-20{stroke:url(#linear-gradient-14);}.cls-21{stroke:url(#linear-gradient-15);}.cls-22{stroke:url(#linear-gradient-16);}.cls-23{stroke:url(#linear-gradient-17);}.cls-24{stroke:url(#linear-gradient-18);}.cls-25{stroke:url(#linear-gradient-19);}.cls-26{stroke:url(#linear-gradient-20);}.cls-27{stroke:url(#linear-gradient-21);}.cls-28{stroke:url(#linear-gradient-22);}.cls-29{stroke:url(#linear-gradient-23);}.cls-30{stroke:url(#linear-gradient-24);}.cls-31{stroke:url(#linear-gradient-25);}.cls-32{stroke:url(#linear-gradient-26);}.cls-33{stroke:url(#linear-gradient-27);}.cls-34{stroke:url(#linear-gradient-28);}.cls-35{stroke:url(#linear-gradient-29);}.cls-36{stroke:url(#linear-gradient-30);}.cls-37{stroke:url(#linear-gradient-31);}.cls-38{stroke:url(#linear-gradient-32);}.cls-39{stroke:url(#linear-gradient-33);}.cls-40{stroke:url(#linear-gradient-34);}.cls-41{stroke:url(#linear-gradient-35);}.cls-42{stroke:url(#linear-gradient-36);}.cls-43{stroke:url(#linear-gradient-37);}.cls-44{stroke:url(#linear-gradient-38);}.cls-45{stroke:url(#linear-gradient-39);}.cls-46{stroke:url(#linear-gradient-40);}.cls-47{stroke:url(#linear-gradient-41);}.cls-48{stroke:url(#linear-gradient-42);}.cls-49{stroke:url(#linear-gradient-43);}.cls-50{stroke:url(#linear-gradient-44);}.cls-51{stroke:url(#linear-gradient-45);}.cls-52{stroke:url(#linear-gradient-46);}.cls-53{stroke:url(#linear-gradient-47);}.cls-54{stroke:url(#linear-gradient-48);}</style><linearGradient id="linear-gradient" x1="87.04" y1="290.86" x2="503.31" y2="290.86" gradientUnits="userSpaceOnUse"><stop offset="0" stop-color="#8b9190"/><stop offset="1"/></linearGradient><linearGradient id="linear-gradient-2" x1="87.04" y1="278.86" x2="500.56" y2="278.86" xlink:href="#linear-gradient"/><linearGradient id="linear-gradient-3" x1="87.04" y1="266.86" x2="498.33" y2="266.86" xlink:href="#linear-gradient"/><linearGradient id="linear-gradient-4" x1="87.04" y1="254.86" x2="496.53" y2="254.86" xlink:href="#linear-gradient"/><linearGradient id="linear-gradient-5" x1="87.04" y1="242.86" x2="495.1" y2="242.86" xlink:href="#linear-gradient"/><linearGradient id="linear-gradient-6" x1="87.04" y1="230.86" x2="494.03" y2="230.86" xlink:href="#linear-gradient"/><linearGradient id="linear-gradient-7" x1="87.04" y1="218.86" x2="493.28" y2="218.86" xlink:href="#linear-gradient"/><linearGradient id="linear-gradient-8" x1="87.04" y1="206.86" x2="492.83" y2="206.86" xlink:href="#linear-gradient"/><linearGradient id="linear-gradient-9" x1="87.04" y1="182.86" x2="492.8" y2="182.86" xlink:href="#linear-gradient"/><linearGradient id="linear-gradient-10" x1="87.04" y1="170.86" x2="493.22" y2="170.86" xlink:href="#linear-gradient"/><linearGradient id="linear-gradient-11" x1="87.04" y1="158.86" x2="493.95" y2="158.86" xlink:href="#linear-gradient"/><linearGradient id="linear-gradient-12" x1="87.04" y1="146.86" x2="494.99" y2="146.86" xlink:href="#linear-gradient"/><linearGradient id="linear-gradient-13" x1="87.04" y1="134.86" x2="496.38" y2="134.86" xlink:href="#linear-gradient"/><linearGradient id="linear-gradient-14" x1="87.04" y1="122.86" x2="498.14" y2="122.86" xlink:href="#linear-gradient"/><linearGradient id="linear-gradient-15" x1="87.04" y1="110.86" x2="500.34" y2="110.86" xlink:href="#linear-gradient"/><linearGradient id="linear-gradient-16" x1="87.04" y1="98.86" x2="503.04" y2="98.86" xlink:href="#linear-gradient"/><linearGradient id="linear-gradient-17" x1="495.88" y1="128.86" x2="498.64" y2="128.86" xlink:href="#linear-gradient"/><linearGradient id="linear-gradient-18" x1="499.85" y1="104.85" x2="503.52" y2="104.85" xlink:href="#linear-gradient"/><linearGradient id="linear-gradient-19" x1="493.45" y1="152.86" x2="495.49" y2="152.86" xlink:href="#linear-gradient"/><linearGradient id="linear-gradient-20" x1="492.3" y1="176.86" x2="493.72" y2="176.86" xlink:href="#linear-gradient"/><linearGradient id="linear-gradient-21" x1="492.33" y1="212.87" x2="493.78" y2="212.87" xlink:href="#linear-gradient"/><linearGradient id="linear-gradient-22" x1="496.03" y1="260.87" x2="498.82" y2="260.87" xlink:href="#linear-gradient"/><linearGradient id="linear-gradient-23" x1="493.53" y1="236.87" x2="495.6" y2="236.87" xlink:href="#linear-gradient"/><linearGradient id="linear-gradient-24" x1="500.07" y1="284.87" x2="503.8" y2="284.87" xlink:href="#linear-gradient"/><linearGradient id="linear-gradient-25" x1="-471.19" y1="290.86" x2="-54.91" y2="290.86" gradientTransform="matrix(-1, 0, 0, 1, 632.32, 0)" xlink:href="#linear-gradient"/><linearGradient id="linear-gradient-26" x1="-471.19" y1="278.86" x2="-57.66" y2="278.86" gradientTransform="matrix(-1, 0, 0, 1, 632.32, 0)" xlink:href="#linear-gradient"/><linearGradient id="linear-gradient-27" x1="-471.19" y1="266.86" x2="-59.9" y2="266.86" gradientTransform="matrix(-1, 0, 0, 1, 632.32, 0)" xlink:href="#linear-gradient"/><linearGradient id="linear-gradient-28" x1="-471.19" y1="254.86" x2="-61.7" y2="254.86" gradientTransform="matrix(-1, 0, 0, 1, 632.32, 0)" xlink:href="#linear-gradient"/><linearGradient id="linear-gradient-29" x1="-471.19" y1="242.86" x2="-63.13" y2="242.86" gradientTransform="matrix(-1, 0, 0, 1, 632.32, 0)" xlink:href="#linear-gradient"/><linearGradient id="linear-gradient-30" x1="-471.19" y1="230.86" x2="-64.2" y2="230.86" gradientTransform="matrix(-1, 0, 0, 1, 632.32, 0)" xlink:href="#linear-gradient"/><linearGradient id="linear-gradient-31" x1="-471.19" y1="218.86" x2="-64.95" y2="218.86" gradientTransform="matrix(-1, 0, 0, 1, 632.32, 0)" xlink:href="#linear-gradient"/><linearGradient id="linear-gradient-32" x1="-471.19" y1="206.86" x2="-65.4" y2="206.86" gradientTransform="matrix(-1, 0, 0, 1, 632.32, 0)" xlink:href="#linear-gradient"/><linearGradient id="linear-gradient-33" x1="-471.19" y1="182.86" x2="-65.43" y2="182.86" gradientTransform="matrix(-1, 0, 0, 1, 632.32, 0)" xlink:href="#linear-gradient"/><linearGradient id="linear-gradient-34" x1="-471.19" y1="170.86" x2="-65.01" y2="170.86" gradientTransform="matrix(-1, 0, 0, 1, 632.32, 0)" xlink:href="#linear-gradient"/><linearGradient id="linear-gradient-35" x1="-471.19" y1="158.86" x2="-64.28" y2="158.86" gradientTransform="matrix(-1, 0, 0, 1, 632.32, 0)" xlink:href="#linear-gradient"/><linearGradient id="linear-gradient-36" x1="-471.19" y1="146.86" x2="-63.24" y2="146.86" gradientTransform="matrix(-1, 0, 0, 1, 632.32, 0)" xlink:href="#linear-gradient"/><linearGradient id="linear-gradient-37" x1="-471.19" y1="134.86" x2="-61.85" y2="134.86" gradientTransform="matrix(-1, 0, 0, 1, 632.32, 0)" xlink:href="#linear-gradient"/><linearGradient id="linear-gradient-38" x1="-471.19" y1="122.86" x2="-60.08" y2="122.86" gradientTransform="matrix(-1, 0, 0, 1, 632.32, 0)" xlink:href="#linear-gradient"/><linearGradient id="linear-gradient-39" x1="-471.19" y1="110.86" x2="-57.89" y2="110.86" gradientTransform="matrix(-1, 0, 0, 1, 632.32, 0)" xlink:href="#linear-gradient"/><linearGradient id="linear-gradient-40" x1="-471.19" y1="98.86" x2="-55.19" y2="98.86" gradientTransform="matrix(-1, 0, 0, 1, 632.32, 0)" xlink:href="#linear-gradient"/><linearGradient id="linear-gradient-41" x1="-62.35" y1="128.86" x2="-59.59" y2="128.86" gradientTransform="matrix(-1, 0, 0, 1, 632.32, 0)" xlink:href="#linear-gradient"/><linearGradient id="linear-gradient-42" x1="-58.38" y1="104.85" x2="-54.71" y2="104.85" gradientTransform="matrix(-1, 0, 0, 1, 632.32, 0)" xlink:href="#linear-gradient"/><linearGradient id="linear-gradient-43" x1="-64.78" y1="152.86" x2="-62.74" y2="152.86" gradientTransform="matrix(-1, 0, 0, 1, 632.32, 0)" xlink:href="#linear-gradient"/><linearGradient id="linear-gradient-44" x1="-65.93" y1="176.86" x2="-64.51" y2="176.86" gradientTransform="matrix(-1, 0, 0, 1, 632.32, 0)" xlink:href="#linear-gradient"/><linearGradient id="linear-gradient-45" x1="-65.9" y1="212.87" x2="-64.45" y2="212.87" gradientTransform="matrix(-1, 0, 0, 1, 632.32, 0)" xlink:href="#linear-gradient"/><linearGradient id="linear-gradient-46" x1="-62.2" y1="260.87" x2="-59.41" y2="260.87" gradientTransform="matrix(-1, 0, 0, 1, 632.32, 0)" xlink:href="#linear-gradient"/><linearGradient id="linear-gradient-47" x1="-64.69" y1="236.87" x2="-62.63" y2="236.87" gradientTransform="matrix(-1, 0, 0, 1, 632.32, 0)" xlink:href="#linear-gradient"/><linearGradient id="linear-gradient-48" x1="-58.15" y1="284.87" x2="-54.43" y2="284.87" gradientTransform="matrix(-1, 0, 0, 1, 632.32, 0)" xlink:href="#linear-gradient"/></defs><title>2018_35c3_logo_noText_Artboard 1</title><line class="cls-1" x1="37.06" y1="194.55" x2="595.28" y2="194.55"/><circle class="cls-1" cx="37.06" cy="194.55" r="2.29"/><circle class="cls-1" cx="130.86" cy="194.55" r="2.29"/><circle class="cls-1" cx="223.79" cy="194.55" r="2.29"/><circle class="cls-1" cx="316.17" cy="194.55" r="2.29"/><circle class="cls-1" cx="410.05" cy="194.55" r="2.29"/><circle class="cls-1" cx="502.7" cy="194.55" r="2.29"/><circle class="cls-1" cx="595.28" cy="194.55" r="2.29"/><ellipse class="cls-2" cx="363.07" cy="194.59" rx="232.21" ry="151.36"/><ellipse class="cls-3" cx="409.53" cy="194.59" rx="185.75" ry="151.36"/><ellipse class="cls-4" cx="455.73" cy="194.59" rx="139.56" ry="151.36"/><ellipse class="cls-5" cx="502.67" cy="195.13" rx="92.62" ry="151.36"/><ellipse class="cls-6" cx="548.98" cy="194.59" rx="46.31" ry="151.36"/><line class="cls-7" x1="503.31" y1="290.86" x2="87.04" y2="290.86"/><line class="cls-8" x1="87.04" y1="278.86" x2="500.56" y2="278.86"/><line class="cls-9" x1="498.33" y1="266.86" x2="87.04" y2="266.86"/><line class="cls-10" x1="496.53" y1="254.86" x2="87.04" y2="254.86"/><line class="cls-11" x1="495.1" y1="242.86" x2="87.04" y2="242.86"/><line class="cls-12" x1="494.03" y1="230.86" x2="87.04" y2="230.86"/><line class="cls-13" x1="493.28" y1="218.86" x2="87.04" y2="218.86"/><line class="cls-14" x1="492.83" y1="206.86" x2="87.04" y2="206.86"/><line class="cls-15" x1="492.8" y1="182.86" x2="87.04" y2="182.86"/><line class="cls-16" x1="493.22" y1="170.86" x2="87.04" y2="170.86"/><line class="cls-17" x1="493.95" y1="158.86" x2="87.04" y2="158.86"/><line class="cls-18" x1="494.99" y1="146.86" x2="87.04" y2="146.86"/><line class="cls-19" x1="496.38" y1="134.86" x2="87.04" y2="134.86"/><line class="cls-20" x1="498.14" y1="122.86" x2="87.04" y2="122.86"/><line class="cls-21" x1="500.34" y1="110.86" x2="87.04" y2="110.86"/><line class="cls-22" x1="503.04" y1="98.86" x2="87.04" y2="98.86"/><path class="cls-23" d="M498.14,122.86q-1,5.85-1.77,12"/><path class="cls-24" d="M503,98.86q-1.44,5.77-2.7,12"/><path class="cls-25" d="M495,146.86q-.6,5.9-1,12"/><path class="cls-26" d="M493.22,170.86q-.28,5.93-.42,12"/><path class="cls-27" d="M493.28,218.86q-.3-5.93-.45-12"/><path class="cls-28" d="M498.33,266.86q-1-5.85-1.8-12"/><path class="cls-29" d="M495.1,242.86q-.61-5.89-1.07-12"/><path class="cls-30" d="M503.31,290.86q-1.46-5.77-2.75-12"/><line class="cls-1" x1="1153.49" y1="194.55" x2="595.27" y2="194.55"/><circle class="cls-1" cx="1153.49" cy="194.55" r="2.29"/><circle class="cls-1" cx="1059.69" cy="194.55" r="2.29"/><circle class="cls-1" cx="966.76" cy="194.55" r="2.29"/><circle class="cls-1" cx="874.38" cy="194.55" r="2.29"/><circle class="cls-1" cx="780.5" cy="194.55" r="2.29"/><circle class="cls-1" cx="687.85" cy="194.55" r="2.29"/><circle class="cls-1" cx="595.27" cy="194.55" r="2.29"/><ellipse class="cls-2" cx="827.48" cy="194.59" rx="232.21" ry="151.36"/><ellipse class="cls-3" cx="781.02" cy="194.59" rx="185.75" ry="151.36"/><ellipse class="cls-4" cx="734.82" cy="194.59" rx="139.56" ry="151.36"/><ellipse class="cls-5" cx="687.88" cy="195.13" rx="92.62" ry="151.36"/><ellipse class="cls-6" cx="641.57" cy="194.59" rx="46.31" ry="151.36"/><line class="cls-31" x1="687.24" y1="290.86" x2="1103.51" y2="290.86"/><line class="cls-32" x1="1103.51" y1="278.86" x2="689.99" y2="278.86"/><line class="cls-33" x1="692.22" y1="266.86" x2="1103.51" y2="266.86"/><line class="cls-34" x1="694.02" y1="254.86" x2="1103.51" y2="254.86"/><line class="cls-35" x1="695.45" y1="242.86" x2="1103.51" y2="242.86"/><line class="cls-36" x1="696.52" y1="230.86" x2="1103.51" y2="230.86"/><line class="cls-37" x1="697.27" y1="218.86" x2="1103.51" y2="218.86"/><line class="cls-38" x1="697.72" y1="206.86" x2="1103.51" y2="206.86"/><line class="cls-39" x1="697.75" y1="182.86" x2="1103.51" y2="182.86"/><line class="cls-40" x1="697.33" y1="170.86" x2="1103.51" y2="170.86"/><line class="cls-41" x1="696.6" y1="158.86" x2="1103.51" y2="158.86"/><line class="cls-42" x1="695.56" y1="146.86" x2="1103.51" y2="146.86"/><line class="cls-43" x1="694.17" y1="134.86" x2="1103.51" y2="134.86"/><line class="cls-44" x1="692.41" y1="122.86" x2="1103.51" y2="122.86"/><line class="cls-45" x1="690.21" y1="110.86" x2="1103.51" y2="110.86"/><line class="cls-46" x1="687.51" y1="98.86" x2="1103.51" y2="98.86"/><path class="cls-47" d="M692.41,122.86q1,5.85,1.77,12"/><path class="cls-48" d="M687.51,98.86q1.44,5.77,2.7,12"/><path class="cls-49" d="M695.56,146.86q.6,5.9,1,12"/><path class="cls-50" d="M697.33,170.86q.28,5.93.42,12"/><path class="cls-51" d="M697.27,218.86q.3-5.93.45-12"/><path class="cls-52" d="M692.22,266.86q1-5.85,1.8-12"/><path class="cls-53" d="M695.45,242.86q.61-5.89,1.07-12"/><path class="cls-54" d="M687.24,290.86q1.46-5.77,2.75-12"/></svg>