<?xml version="1.0" encoding="UTF-8"?>
<svg id="Layer_2" data-name="Layer 2" xmlns="http://www.w3.org/2000/svg" viewBox="0 0 820 537">
  <g>
    <path d="M48.63,205.7v-6.11h4.68c7.07,0,11.41-.59,13.04-1.77,1.62-1.18,2.43-3.67,2.43-7.49v-102.96c0-3.75-.83-6.22-2.48-7.39-1.66-1.18-5.98-1.77-12.99-1.77h-4.68v-6.11h69.04c13.18,0,24.16,3.63,32.95,10.89,8.79,7.26,13.18,15.76,13.18,25.5s-4.47,17.91-13.42,24.84c-8.95,6.93-19.34,10.4-31.18,10.4h-33.04v46.58c0,3.76.81,6.25,2.43,7.46s5.97,1.82,13.04,1.82h4.68v6.11c-4.58-.39-14.23-.58-28.93-.58s-24.16.19-28.74.58ZM85.59,138.85h26.93c5.86,0,10.92-.83,15.18-2.48,4.26-1.65,7.37-3.49,9.31-5.49,1.94-2.01,3.47-4.65,4.58-7.93,1.11-3.28,1.73-5.83,1.86-7.64.13-1.81.19-4.09.19-6.83s-.06-5.2-.19-7.02c-.13-1.81-.75-4.36-1.86-7.64-1.11-3.28-2.64-5.92-4.58-7.93-1.94-2.01-5.03-3.79-9.26-5.35-4.23-1.56-9.31-2.34-15.23-2.34h-17.38c-4.46,0-7.16.45-8.12,1.34-.95.89-1.43,3.06-1.43,6.49v52.81Z"/>
    <path d="M180.13,205.7v-6.11c6.94,0,11.22-.43,12.84-1.29,1.62-.86,2.43-3.39,2.43-7.58v-52.36c0-4.83-.84-7.85-2.53-9.06-1.69-1.21-5.94-1.81-12.75-1.81v-6.11l27.22-2.1v21.47c1.85-5.6,4.73-10.57,8.64-14.93s9.06-6.54,15.42-6.54c4.2,0,7.65,1.18,10.36,3.53,2.71,2.36,4.06,5.16,4.06,8.4,0,2.87-.88,5.01-2.63,6.45-1.75,1.43-3.68,2.15-5.78,2.15-2.36,0-4.34-.75-5.97-2.24-1.62-1.5-2.43-3.55-2.43-6.16,0-1.59.37-3.01,1.1-4.25.73-1.24,1.38-2.09,1.96-2.53s1.05-.73,1.43-.86c-.25-.13-.95-.19-2.1-.19-7.19,0-12.84,3.58-16.95,10.73s-6.16,15.82-6.16,25.99v30.04c0,3.75.78,6.23,2.34,7.44,1.56,1.21,5.74,1.81,12.56,1.81h4.11v6.11c-5.22-.39-13.5-.58-24.83-.58-1.59,0-3.63.03-6.11.1-2.48.07-5.35.16-8.59.29-3.25.13-5.79.19-7.64.19Z"/>
    <path d="M269.46,195.17c-8.63-8.48-12.94-18.93-12.94-31.34s4.22-23.15,12.65-32.2c8.43-9.06,18.7-13.59,30.8-13.59s22.01,4.5,30.51,13.51c8.5,9.01,12.75,19.78,12.75,32.33s-4.28,22.69-12.84,31.23c-8.56,8.53-18.76,12.79-30.61,12.79s-21.69-4.24-30.32-12.73ZM272.76,162.25c0,12.7,1.65,21.92,4.97,27.66,5.09,8.74,12.51,13.11,22.25,13.11,4.84,0,9.28-1.31,13.32-3.92,4.04-2.62,7.18-6.12,9.41-10.53,2.86-5.74,4.3-14.52,4.3-26.32,0-12.57-1.72-21.63-5.16-27.18-5.09-8.49-12.45-12.73-22.06-12.73-4.2,0-8.36,1.1-12.46,3.3-4.11,2.2-7.4,5.47-9.88,9.81-3.12,5.74-4.68,14.68-4.68,26.8Z"/>
    <path d="M352.59,127.49v-4.3c5.98-.25,10.97-2.5,14.94-6.73,3.98-4.23,6.65-8.96,8.02-14.18,1.37-5.22,2.12-10.85,2.24-16.9h4.87v36h27.98v6.11h-27.98v54.4c0,14.09,4.39,21.13,13.18,21.13,3.76,0,6.88-1.93,9.36-5.79,2.48-3.86,3.72-9.23,3.72-16.11v-10.8h4.87v11.16c0,7.06-1.62,13.22-4.87,18.5-3.25,5.28-8.09,7.91-14.52,7.91-2.36,0-4.7-.3-7.02-.91-2.32-.61-5-1.69-8.02-3.25-3.02-1.56-5.48-4.26-7.35-8.12-1.88-3.85-2.82-8.58-2.82-14.18v-53.95h-16.62Z"/>
    <path d="M443.07,195.17c-8.63-8.48-12.94-18.93-12.94-31.34s4.22-23.15,12.65-32.2c8.43-9.06,18.7-13.59,30.8-13.59s22.01,4.5,30.51,13.51c8.5,9.01,12.75,19.78,12.75,32.33s-4.28,22.69-12.84,31.23c-8.56,8.53-18.76,12.79-30.61,12.79s-21.69-4.24-30.32-12.73ZM446.37,162.25c0,12.7,1.65,21.92,4.97,27.66,5.09,8.74,12.51,13.11,22.25,13.11,4.84,0,9.28-1.31,13.32-3.92,4.04-2.62,7.18-6.12,9.41-10.53,2.86-5.74,4.3-14.52,4.3-26.32,0-12.57-1.72-21.63-5.16-27.18-5.09-8.49-12.45-12.73-22.06-12.73-4.2,0-8.36,1.1-12.46,3.3-4.11,2.2-7.4,5.47-9.88,9.81-3.12,5.74-4.68,14.68-4.68,26.8Z"/>
    <path d="M547.02,194.98c-8.28-8.61-12.41-19.12-12.41-31.53s4.07-23.08,12.22-32.01c8.15-8.93,18.21-13.4,30.18-13.4,7.81,0,14.64,1.9,20.51,5.68,5.87,3.79,8.8,8.9,8.8,15.33,0,2.87-.81,5.11-2.43,6.73-1.62,1.62-3.69,2.44-6.2,2.44-2.67,0-4.79-.85-6.38-2.54-1.58-1.69-2.37-3.85-2.37-6.47,0-1.15.18-2.3.56-3.45.37-1.15,1.26-2.33,2.65-3.55,1.39-1.21,3.3-1.92,5.72-2.11-4.6-4.79-11.36-7.19-20.3-7.19h-.38c-6.62,0-12.67,3.13-18.14,9.38-5.48,6.25-8.21,16.53-8.21,30.82,0,7.47.91,13.93,2.72,19.38,1.81,5.46,4.22,9.59,7.21,12.4,2.99,2.81,5.95,4.87,8.88,6.17,2.93,1.31,5.83,1.96,8.69,1.96,12.61,0,21.04-6.87,25.31-20.62.36-1.28,1.13-1.92,2.32-1.92,1.7,0,2.55.64,2.55,1.91,0,.64-.25,1.78-.75,3.44-.5,1.66-1.53,3.79-3.1,6.4-1.56,2.61-3.45,5.05-5.67,7.31-2.22,2.26-5.28,4.22-9.19,5.87-3.91,1.65-8.3,2.48-13.18,2.48-11.46,0-21.33-4.31-29.6-12.92Z"/>
    <path d="M633.1,195.17c-8.63-8.48-12.94-18.93-12.94-31.34s4.22-23.15,12.65-32.2c8.43-9.06,18.7-13.59,30.8-13.59s22.01,4.5,30.51,13.51c8.5,9.01,12.75,19.78,12.75,32.33s-4.28,22.69-12.84,31.23c-8.56,8.53-18.76,12.79-30.61,12.79s-21.69-4.24-30.32-12.73ZM636.4,162.25c0,12.7,1.65,21.92,4.97,27.66,5.09,8.74,12.51,13.11,22.25,13.11,4.84,0,9.28-1.31,13.32-3.92,4.04-2.62,7.18-6.12,9.41-10.53,2.87-5.74,4.3-14.52,4.3-26.32,0-12.57-1.72-21.63-5.16-27.18-5.09-8.49-12.45-12.73-22.06-12.73-4.2,0-8.36,1.1-12.46,3.3-4.11,2.2-7.4,5.47-9.88,9.81-3.12,5.74-4.68,14.68-4.68,26.8Z"/>
    <path d="M719,205.7v-6.11c6.94,0,11.2-.43,12.8-1.29,1.59-.86,2.39-3.39,2.39-7.59v-101.62c0-4.83-.84-7.86-2.53-9.06-1.69-1.21-5.91-1.81-12.65-1.81v-6.11l28.08-2.1v120.71c0,4.2.83,6.73,2.48,7.59,1.65.86,5.92,1.29,12.8,1.29v6.11c-1.59,0-4.04-.06-7.35-.19-3.31-.13-6.18-.22-8.59-.29-2.42-.06-4.33-.1-5.73-.1-1.53,0-8.75.19-21.68.58Z"/>
  </g>
  <path d="M268.83,370.17v-6.37h2.5c7.81,0,12.86-.52,15.16-1.57,2.3-1.05,3.45-3.46,3.45-7.23v-110.94c0-3.98-1.17-6.45-3.5-7.43-2.34-.98-7.31-1.47-14.91-1.47h-2.7v-6.37h71.63c11.16,0,20.39,1.88,27.7,5.65,6.24,3.3,11.24,7.52,14.99,12.66,3.75,5.15,5.63,10.61,5.63,16.4,0,2.36-.35,4.79-1.06,7.29-.71,2.5-2.12,5.5-4.24,9.01-2.12,3.51-5.6,6.75-10.46,9.72-4.85,2.97-10.84,5.23-17.97,6.78,11.44.81,21.17,4.67,29.18,11.57,8.01,6.91,12.02,15.04,12.02,24.4s-3.74,17.6-11.21,24.71c-7.47,7.11-16.69,11.37-27.66,12.78-2.36.27-5.89.4-10.6.4h-77.95ZM307.33,294.18h29.16c6.32,0,11.85-1.06,16.6-3.19,4.74-2.12,8.29-4.84,10.64-8.15,2.35-3.31,4.05-6.56,5.1-9.77,1.04-3.21,1.56-6.32,1.56-9.36,0-2.63-.42-5.4-1.26-8.3-.84-2.9-2.19-5.97-4.04-9.21-1.85-3.24-4.81-5.89-8.88-7.95-4.07-2.06-8.86-3.09-14.38-3.09h-24.01c-3.97,0-6.71.44-8.22,1.32-1.51.88-2.27,2.97-2.27,6.27v51.42ZM307.33,355.72c0,3.44.62,5.64,1.87,6.62,1.24.98,4.25,1.46,9.03,1.46h24.42c10.63,0,18.77-3.22,24.42-9.65,5.65-6.43,8.48-13.79,8.48-22.08s-2.52-15.71-7.57-22.69c-5.05-6.97-12.58-10.46-22.6-10.46h-38.04v56.79Z"/>
  <path d="M407.61,335.33v-4.7h2.01c5.81,0,9.55-.38,11.22-1.15,1.66-.77,2.5-2.55,2.5-5.33v-81.42c0-2.83-.87-4.63-2.61-5.4-1.74-.77-5.44-1.15-11.11-1.15h-2.01v-4.7h85.96l4.25,34.37-3.8-4.63c-.58-3.12-1.02-5.49-1.33-7.13-.31-1.64-1.22-3.98-2.75-7-1.53-3.03-3.47-5.31-5.83-6.83-4.21-2.71-12.14-4.06-23.78-4.06h-12.64c-4.72,0-7.66.25-8.84.75-1.18.5-1.82,2.09-1.92,4.77v37.35h12.23c7.65,0,12.57-1.12,14.76-3.37,2.19-2.25,3.28-7.04,3.28-14.37h3.8v40.33h-3.8c0-7.49-1.13-12.34-3.39-14.56-2.26-2.22-7.19-3.33-14.8-3.33h-12.08v41.08c0,2.73.58,4.39,1.75,4.96s4.31.86,9.42.86h14.15c3.97,0,7.2-.11,9.68-.34s5.33-.87,8.53-1.94,5.87-2.62,8.01-4.66c1.94-1.94,3.65-4.79,5.14-8.54s2.43-6.71,2.81-8.86,1.01-5.59,1.86-10.33l3.8.3-6.36,39.06h-88.09Z"/>
  <path d="M503.78,364.7v-6h2.57c7.29,0,12.01-.49,14.13-1.48,2.12-.98,3.25-3.25,3.38-6.81v-104.66c0-3.49-1.08-5.73-3.24-6.71-2.16-.98-6.92-1.48-14.27-1.48h-2.57v-6h57.48c13.39,0,24.3,2.09,32.74,6.27,6.91,3.36,12.32,7.57,16.23,12.64,3.9,5.07,5.85,10.45,5.85,16.15,0,6.1-2.28,11.75-6.85,16.96-4.57,5.21-10.82,9.31-18.75,12.29-1.02.38-3.87,1.24-8.56,2.57,5.71,1.84,10.36,4.22,13.94,7.14,3.58,2.92,6.15,6.38,7.71,10.37,1.55,4,2.66,7.85,3.33,11.56.67,3.71,1.35,8.2,2.05,13.46.7,5.27,1.59,9.64,2.66,13.13,2.09,6.92,5.58,10.37,10.47,10.37,2.73,0,5.07-.94,7.04-2.81,1.97-1.87,3.27-3.89,3.9-6.04.63-2.16,1.2-4.34,1.71-6.57l.57-3.14c.41-.89,1.2-1.33,2.37-1.33,1.65,0,2.48,1.02,2.48,3.04,0,1.71-.26,3.62-.78,5.71-.52,2.09-1.41,4.38-2.67,6.85-1.26,2.47-3.25,4.55-5.97,6.23-2.72,1.68-5.92,2.52-9.61,2.52s-7.34-.46-10.8-1.38c-3.46-.92-6.88-2.38-10.28-4.38-3.39-2-6.12-5.01-8.18-9.04-2.06-4.03-3.09-8.83-3.09-14.42v-13.89c0-6.72-2.01-12.66-6.04-17.79-4.03-5.14-10.86-7.71-20.51-7.71h-21.6v49.48c0,3.87,1.11,6.31,3.33,7.33,2.22,1.02,7.17,1.52,14.84,1.52h1.9v6c-9.64-.38-19.13-.57-28.45-.57s-18.81.19-28.45.57ZM540.61,295.9h18.18c5.71,0,10.58-.35,14.61-1.05,4.03-.7,7.85-2.06,11.47-4.1,3.62-2.03,6.38-5,8.28-8.91,1.9-3.91,2.85-8.85,2.85-14.82,0-9.66-2.54-16.98-7.61-21.97-5.08-4.99-13.86-7.48-26.36-7.48h-8.56c-5.71,0-9.28.35-10.71,1.05-1.43.7-2.14,2.83-2.14,6.39v50.9Z"/>
  <path d="M635,335.46c0-20.8,7.06-38.25,21.17-52.32,14.11-14.08,30.53-21.12,49.23-21.12,14.24,0,26.62,5.75,37.12,17.25,7.55-10.71,11.62-16.26,12.21-16.66.26-.26.62-.39,1.08-.39,1.51,0,2.23,1.48,2.17,4.43v48.81c0,2.82-.92,4.23-2.76,4.23-1.31,0-2.18-.38-2.61-1.13-.43-.76-.77-2.05-1.03-3.89-1.77-12.49-6.55-23.35-14.33-32.58-7.78-9.23-17.74-13.85-29.89-13.85-4,0-8.09.53-12.26,1.58-4.17,1.05-8.68,3.14-13.54,6.26-4.86,3.12-9.13,7.04-12.8,11.73-3.68,4.7-6.76,11.19-9.26,19.47-2.5,8.28-3.74,17.68-3.74,28.2s1.18,19.16,3.54,27.13c2.36,7.98,5.35,14.38,8.96,19.21,3.61,4.83,7.84,8.87,12.7,12.11,4.86,3.25,9.53,5.48,14.03,6.7,4.5,1.21,9.04,1.82,13.64,1.82,7.29,0,14.01-1.69,20.19-5.07,6.17-3.38,9.78-8.03,10.83-13.93.26-1.31.39-3.38.39-6.2v-11.92c0-4.33-1.18-7.04-3.54-8.12s-8.63-1.62-18.81-1.62h-2.66v-6.2l31.71.39h9.45l15.95-.39v6.2h-.69c-5.65,0-9.31.48-10.98,1.43-1.67.95-2.51,3.3-2.51,7.04v35.35c0,2.95-.59,4.43-1.77,4.43-.66,0-1.87-.69-3.64-2.07-3.74-3.08-6.76-6.56-9.06-10.44h-.2c-3.22,5.65-8.26,9.95-15.12,12.9-6.86,2.95-14.39,4.43-22.6,4.43-18.97,0-35.48-7.02-49.53-21.08-14.05-14.05-21.07-31.42-21.07-52.1Z"/>
  <g>
    <path d="M690.25,443.38v-2.18c2.09.14,4.35.2,6.79.2.89,0,3.42-.07,7.6-.2v2.18c-2.66,0-3.99.6-3.99,1.81,0,.18.14.58.41,1.19l7.84,19.47,7.13-17.8c.27-.8.41-1.35.41-1.67,0-.8-.27-1.48-.8-2.06-.53-.58-1.38-.89-2.54-.94v-2.18c2.36.14,4.39.2,6.07.2,1.91,0,3.65-.07,5.22-.2v2.18c-1.39,0-2.57.31-3.55.94s-1.62,1.21-1.93,1.74-.62,1.2-.94,2l-9.14,22.71c-.36.89-.85,1.33-1.47,1.33-.41,0-.7-.08-.87-.26s-.37-.53-.6-1.07l-10.06-24.79c-.46-1.16-.98-1.88-1.57-2.17-.59-.28-1.93-.43-4.02-.43Z"/>
    <path d="M729.19,471.3c0-.84.04-1.39.12-1.64s.3-.57.65-.96l13.3-14.94c4.9-5.51,7.35-10.67,7.35-15.48,0-3.11-.82-5.77-2.44-7.99-1.63-2.22-3.94-3.33-6.92-3.33-2.03,0-3.9.62-5.62,1.86-1.71,1.24-2.97,2.96-3.75,5.17.13-.05.43-.07.9-.07,1.14,0,2.02.37,2.66,1.1.64.73.95,1.59.95,2.58,0,1.26-.4,2.2-1.19,2.8-.79.61-1.58.91-2.36.91-.31,0-.67-.03-1.09-.1-.41-.07-.94-.43-1.59-1.08-.65-.65-.97-1.57-.97-2.74,0-3.24,1.22-6.15,3.67-8.74,2.44-2.58,5.54-3.88,9.27-3.88,4.23,0,7.74,1.26,10.51,3.79s4.17,5.77,4.17,9.72c0,1.39-.21,2.71-.63,3.98-.42,1.26-.9,2.38-1.46,3.36-.55.98-1.57,2.25-3.06,3.82-1.49,1.57-2.83,2.91-4.03,4.03-1.2,1.12-3.14,2.86-5.82,5.22l-7.34,7.2h12.5c4.06,0,6.25-.18,6.57-.55.45-.66.96-2.73,1.52-6.21h1.74l-1.94,12.14h-25.68Z"/>
  </g>
</svg>